<?xml version="1.0" encoding="UTF-8" standalone="no"?>
<svg
   xmlns:dc="http://purl.org/dc/elements/1.1/"
   xmlns:cc="http://creativecommons.org/ns#"
   xmlns:rdf="http://www.w3.org/1999/02/22-rdf-syntax-ns#"
   xmlns:svg="http://www.w3.org/2000/svg"
   xmlns="http://www.w3.org/2000/svg"
   xmlns:sodipodi="http://sodipodi.sourceforge.net/DTD/sodipodi-0.dtd"
   xmlns:inkscape="http://www.inkscape.org/namespaces/inkscape"
   fill-opacity="1"
   color-rendering="auto"
   color-interpolation="auto"
   text-rendering="auto"
   stroke="black"
   stroke-linecap="square"
   stroke-miterlimit="10"
   shape-rendering="auto"
   stroke-opacity="1"
   fill="black"
   stroke-dasharray="none"
   font-weight="normal"
   stroke-width="1"
   font-family="'Dialog'"
   font-style="normal"
   stroke-linejoin="miter"
   font-size="12"
   stroke-dashoffset="0"
   image-rendering="auto"
   version="1.1"
   id="svg9"
   sodipodi:docname="hiragana_letter_e.svg"
   inkscape:version="0.92.4 (5da689c313, 2019-01-14)">
  <metadata
     id="metadata13">
    <rdf:RDF>
      <cc:Work
         rdf:about="">
        <dc:format>image/svg+xml</dc:format>
        <dc:type
           rdf:resource="http://purl.org/dc/dcmitype/StillImage" />
      </cc:Work>
    </rdf:RDF>
  </metadata>
  <sodipodi:namedview
     pagecolor="#ffffff"
     bordercolor="#666666"
     borderopacity="1"
     objecttolerance="10"
     gridtolerance="10"
     guidetolerance="10"
     inkscape:pageopacity="0"
     inkscape:pageshadow="2"
     inkscape:window-width="1920"
     inkscape:window-height="986"
     id="namedview11"
     showgrid="false"
     inkscape:zoom="2.36"
     inkscape:cx="50"
     inkscape:cy="50"
     inkscape:window-x="-11"
     inkscape:window-y="-11"
     inkscape:window-maximized="1"
     inkscape:current-layer="svg9" />
  <!--Unicode Character 'HIRAGANA LETTER E' (U+3048)-->
  <defs
     id="genericDefs" />
  <g
     id="g7"
     transform="matrix(0.43084327,0,0,0.42242798,-10.27307,-66.532334)">
    <g
       id="g5">
      <path
         d="m 195.3281,171.2812 -4.6406,27.4219 q -58.3594,0 -108.2813,-11.25 l 4.5,-28.2656 q 31.3594,14.4844 89.5782,14.4844 6.75,0 18.8437,-2.3907 z m 58.3594,216.8438 q -37.5469,4.3594 -54.9844,4.3594 -30.6562,0 -42.8203,-8.2266 -12.164,-8.2266 -12.164,-25.1016 l 1.125,-34.0312 q 0,-7.875 -3.0938,-10.9688 -3.0938,-3.0937 -10.125,-3.0937 -11.6719,0 -20.25,8.5781 -39.9375,40.6406 -64.4062,68.7656 L 25.875,371.8125 q 22.5,-27.2813 61.0312,-64.3359 38.5313,-37.0547 66.6563,-57.0235 -80.0156,5.2031 -102.9375,5.2031 l -4.5,-29.3906 q 24.4688,1.5469 43.1719,1.5469 60.3281,0 118.9687,-9 v 20.5313 L 145.125,289.125 q 11.8125,0 18.9141,8.3672 7.1015,8.3672 7.1015,23.8359 l -1.2656,33.4688 q 0,5.9062 5.6953,8.8593 5.6953,2.9532 24.2578,2.9532 15.4688,0 51.8907,-6.0469 z"
         id="path3"
         inkscape:connector-curvature="0"
         style="stroke:none" />
    </g>
  </g>
</svg>
