<?xml version="1.0" encoding="UTF-8" standalone="no"?>
<svg
   xmlns:dc="http://purl.org/dc/elements/1.1/"
   xmlns:cc="http://creativecommons.org/ns#"
   xmlns:rdf="http://www.w3.org/1999/02/22-rdf-syntax-ns#"
   xmlns:svg="http://www.w3.org/2000/svg"
   xmlns="http://www.w3.org/2000/svg"
   xmlns:sodipodi="http://sodipodi.sourceforge.net/DTD/sodipodi-0.dtd"
   xmlns:inkscape="http://www.inkscape.org/namespaces/inkscape"
   fill-opacity="1"
   color-rendering="auto"
   color-interpolation="auto"
   text-rendering="auto"
   stroke="black"
   stroke-linecap="square"
   stroke-miterlimit="10"
   shape-rendering="auto"
   stroke-opacity="1"
   fill="black"
   stroke-dasharray="none"
   font-weight="normal"
   stroke-width="1"
   font-family="'Dialog'"
   font-style="normal"
   stroke-linejoin="miter"
   font-size="12"
   stroke-dashoffset="0"
   image-rendering="auto"
   version="1.1"
   id="svg9"
   sodipodi:docname="hiragana_letter_ke.svg"
   inkscape:version="0.92.4 (5da689c313, 2019-01-14)"
   width="100%"
   height="100%"
   viewBox="0 0 100 100"
   preserveAspectRatio="xMidYMid meet"
   >
  <metadata
     id="metadata13">
    <rdf:RDF>
      <cc:Work
         rdf:about="">
        <dc:format>image/svg+xml</dc:format>
        <dc:type
           rdf:resource="http://purl.org/dc/dcmitype/StillImage" />
      </cc:Work>
    </rdf:RDF>
  </metadata>
  <sodipodi:namedview
     pagecolor="#ffffff"
     bordercolor="#666666"
     borderopacity="1"
     objecttolerance="10"
     gridtolerance="10"
     guidetolerance="10"
     inkscape:pageopacity="0"
     inkscape:pageshadow="2"
     inkscape:window-width="1920"
     inkscape:window-height="986"
     id="namedview11"
     showgrid="false"
     inkscape:zoom="2.36"
     inkscape:cx="50"
     inkscape:cy="50"
     inkscape:window-x="-11"
     inkscape:window-y="-11"
     inkscape:window-maximized="1"
     inkscape:current-layer="svg9" />
  <!--Unicode Character 'HIRAGANA LETTER KE' (U+3051)-->
  <defs
     id="genericDefs" />
  <g
     id="g7"
     transform="matrix(0.45410522,0,0,0.40790503,-20.276251,-65.082707)">
    <g
       id="g5">
      <path
         d="m 118.4062,310.6406 q -15.4687,27.1406 -26.2968,76.0782 H 70.875 q -11.6719,-21.9376 -17.9297,-56.0391 -6.2578,-34.1016 -6.2578,-61.1016 0,-50.7656 14.3437,-108.9843 l 28.2657,6.75 q -16.7344,56.5312 -16.7344,102.2343 0,40.6407 6.6094,67.0781 h 0.5625 q 4.5,-16.0312 14.2031,-36.5624 z M 263.25,239.3438 q -22.3594,4.0781 -40.9219,6.0468 0.2813,8.2969 0.2813,12.0938 0,28.8281 -2.7422,51.6797 -2.7422,22.8515 -11.7422,46.4062 -9,23.5547 -26.7188,46.1953 l -26.4374,-17.2968 q 17.8593,-16.4532 26.789,-35.9297 8.9297,-19.4766 11.8125,-42.3282 2.8828,-22.8515 2.8828,-57.4453 -32.9062,2.3906 -46.9687,2.3906 -23.7656,0 -39.5156,-0.7031 l -0.5626,-28.125 q 17.0157,3.0938 43.4532,3.0938 19.5468,0 43.0312,-1.9688 -0.9844,-25.3125 -6.0468,-54.9843 l 27,-2.6719 q 3.375,28.4062 4.3593,54.7031 15.6094,-1.5469 38.8125,-6.8906 z"
         id="path3"
         inkscape:connector-curvature="0"
         style="stroke:none" />
    </g>
  </g>
</svg>
