<?xml version="1.0" encoding="UTF-8" standalone="no"?>
<svg
   xmlns:dc="http://purl.org/dc/elements/1.1/"
   xmlns:cc="http://creativecommons.org/ns#"
   xmlns:rdf="http://www.w3.org/1999/02/22-rdf-syntax-ns#"
   xmlns:svg="http://www.w3.org/2000/svg"
   xmlns="http://www.w3.org/2000/svg"
   xmlns:sodipodi="http://sodipodi.sourceforge.net/DTD/sodipodi-0.dtd"
   xmlns:inkscape="http://www.inkscape.org/namespaces/inkscape"
   fill-opacity="1"
   color-rendering="auto"
   color-interpolation="auto"
   text-rendering="auto"
   stroke="black"
   stroke-linecap="square"
   stroke-miterlimit="10"
   shape-rendering="auto"
   stroke-opacity="1"
   fill="black"
   stroke-dasharray="none"
   font-weight="normal"
   stroke-width="1"
   font-family="'Dialog'"
   font-style="normal"
   stroke-linejoin="miter"
   font-size="12"
   stroke-dashoffset="0"
   image-rendering="auto"
   version="1.1"
   id="svg9"
   sodipodi:docname="hiragana_letter_ho.svg"
   inkscape:version="0.92.4 (5da689c313, 2019-01-14)"
   width="100%"
   height="100%"
   viewBox="0 0 100 100"
   preserveAspectRatio="xMidYMid meet"
   >
  <metadata
     id="metadata13">
    <rdf:RDF>
      <cc:Work
         rdf:about="">
        <dc:format>image/svg+xml</dc:format>
        <dc:type
           rdf:resource="http://purl.org/dc/dcmitype/StillImage" />
      </cc:Work>
    </rdf:RDF>
  </metadata>
  <sodipodi:namedview
     pagecolor="#ffffff"
     bordercolor="#666666"
     borderopacity="1"
     objecttolerance="10"
     gridtolerance="10"
     guidetolerance="10"
     inkscape:pageopacity="0"
     inkscape:pageshadow="2"
     inkscape:window-width="1920"
     inkscape:window-height="986"
     id="namedview11"
     showgrid="false"
     inkscape:zoom="2.36"
     inkscape:cx="50"
     inkscape:cy="50"
     inkscape:window-x="-11"
     inkscape:window-y="-11"
     inkscape:window-maximized="1"
     inkscape:current-layer="svg9" />
  <!--Unicode Character 'HIRAGANA LETTER HO' (U+307B)-->
  <defs
     id="genericDefs" />
  <g
     id="g7"
     transform="matrix(0.42312686,0,0,0.43109048,-10.984676,-70.355966)">
    <g
       id="g5">
      <path
         d="m 93.375,319.0781 q -12.6562,26.8594 -21.6562,70.875 H 47.5312 q -15.8906,-40.7812 -15.8906,-99.4219 0,-61.4531 16.4532,-126.7031 l 27.7031,8.5781 q -18.1407,56.9532 -18.1407,119.8126 0,27.4218 3.375,46.125 h 0.5626 Q 65.5312,324 71.4375,311.0625 Z m 165.2344,17.5781 -14.9063,24.4688 q -29.3906,-20.5312 -45.8437,-26.1562 -2.3906,34.0312 -18.211,45.7734 -15.8203,11.7422 -37.6172,11.7422 -21.7968,0 -35.7187,-13.1485 -13.9219,-13.1484 -13.9219,-32.6953 0,-19.8281 17.086,-32.9062 17.0859,-13.0782 41.414,-13.0782 12.0938,0 21.0938,1.4063 v -41.4844 q -22.2188,1.4063 -41.2032,1.4063 -28.9687,0 -38.1093,-0.5625 l -1.4063,-28.4063 q 25.875,2.8125 45.8438,2.8125 21.5156,0 34.875,-1.125 v -32.625 q -11.8125,0.9844 -33.1875,0.9844 -17.5781,0 -38.8125,-0.9844 l -2.1094,-28.125 q 14.625,2.5313 40.9219,2.5313 54.7031,0 89.5781,-6.6094 l 2.5312,25.5938 q -19.9687,3.9374 -32.7656,4.3593 v 33.4688 q 12.9375,-0.5625 40.6406,-5.7657 l 2.5313,26.1563 -43.1719,4.9219 v 48.9375 q 34.875,11.3906 60.4688,29.1093 z M 171.7031,328.5 q -10.5469,-1.6875 -19.125,-1.6875 -14.2031,0 -23.9062,6.3281 -9.7031,6.3282 -9.7031,14.2032 0,8.8593 6.6796,14.4843 6.6797,5.625 18.0704,5.625 10.5468,0 17.0859,-4.9922 6.5391,-4.9921 8.7187,-12.7265 Q 171.7031,342 171.7031,328.5 Z"
         id="path3"
         inkscape:connector-curvature="0"
         style="stroke:none" />
    </g>
  </g>
</svg>
