<?xml version="1.0" encoding="UTF-8" standalone="no"?>
<svg
   xmlns:dc="http://purl.org/dc/elements/1.1/"
   xmlns:cc="http://creativecommons.org/ns#"
   xmlns:rdf="http://www.w3.org/1999/02/22-rdf-syntax-ns#"
   xmlns:svg="http://www.w3.org/2000/svg"
   xmlns="http://www.w3.org/2000/svg"
   xmlns:sodipodi="http://sodipodi.sourceforge.net/DTD/sodipodi-0.dtd"
   xmlns:inkscape="http://www.inkscape.org/namespaces/inkscape"
   fill-opacity="1"
   color-rendering="auto"
   color-interpolation="auto"
   text-rendering="auto"
   stroke="black"
   stroke-linecap="square"
   stroke-miterlimit="10"
   shape-rendering="auto"
   stroke-opacity="1"
   fill="black"
   stroke-dasharray="none"
   font-weight="normal"
   stroke-width="1"
   font-family="'Dialog'"
   font-style="normal"
   stroke-linejoin="miter"
   font-size="12"
   stroke-dashoffset="0"
   image-rendering="auto"
   version="1.1"
   id="svg9"
   sodipodi:docname="hiragana_letter_wa.svg"
   inkscape:version="0.92.4 (5da689c313, 2019-01-14)"
   width="100%"
   height="100%"
   viewBox="0 0 100 100"
   preserveAspectRatio="xMidYMid meet"
   >
  <metadata
     id="metadata13">
    <rdf:RDF>
      <cc:Work
         rdf:about="">
        <dc:format>image/svg+xml</dc:format>
        <dc:type
           rdf:resource="http://purl.org/dc/dcmitype/StillImage" />
      </cc:Work>
    </rdf:RDF>
  </metadata>
  <sodipodi:namedview
     pagecolor="#ffffff"
     bordercolor="#666666"
     borderopacity="1"
     objecttolerance="10"
     gridtolerance="10"
     guidetolerance="10"
     inkscape:pageopacity="0"
     inkscape:pageshadow="2"
     inkscape:window-width="1920"
     inkscape:window-height="986"
     id="namedview11"
     showgrid="false"
     inkscape:zoom="2.36"
     inkscape:cx="50"
     inkscape:cy="50"
     inkscape:window-x="-11"
     inkscape:window-y="-11"
     inkscape:window-maximized="1"
     inkscape:current-layer="svg9" />
  <!--Unicode Character 'HIRAGANA LETTER WA' (U+308F)-->
  <defs
     id="genericDefs" />
  <g
     id="g7"
     transform="matrix(0.4255311,0,0,0.42544444,-8.3614805,-67.051972)">
    <g
       id="g5">
      <path
         d="m 113.2031,229.2188 q 27.5625,-21.9376 63,-21.9376 31.7813,0 53.6485,20.5313 21.8672,20.5313 21.8672,52.0313 0,33.0468 -26.086,60.3281 -26.0859,27.2812 -67.5703,33.0469 l -11.5313,-25.875 q 35.7188,-3.7969 57.6563,-22.5 21.9375,-18.7032 21.9375,-45.2813 0,-19.8281 -14.625,-32.9063 -14.625,-13.0781 -35.0156,-13.0781 -18.9844,0 -36.3516,9.2813 -17.3672,9.2812 -36.2109,27.5625 V 389.9531 H 78.6094 v -94.2187 q -14.625,15.0468 -33.75,46.6875 L 23.0625,325.9688 q 7.0313,-12.0938 33.75,-44.1563 16.875,-20.25 21.7969,-27.2813 v -19.2656 h -50.625 v -25.875 h 50.625 v -48.7968 h 25.3125 v 48.7968 q 13.6406,0 13.6406,7.4532 0,2.6718 -4.3594,12.375 z"
         id="path3"
         inkscape:connector-curvature="0"
         style="stroke:none" />
    </g>
  </g>
</svg>
