<?xml version="1.0" encoding="UTF-8" standalone="no"?>
<svg
   xmlns:dc="http://purl.org/dc/elements/1.1/"
   xmlns:cc="http://creativecommons.org/ns#"
   xmlns:rdf="http://www.w3.org/1999/02/22-rdf-syntax-ns#"
   xmlns:svg="http://www.w3.org/2000/svg"
   xmlns="http://www.w3.org/2000/svg"
   xmlns:sodipodi="http://sodipodi.sourceforge.net/DTD/sodipodi-0.dtd"
   xmlns:inkscape="http://www.inkscape.org/namespaces/inkscape"
   fill-opacity="1"
   color-rendering="auto"
   color-interpolation="auto"
   text-rendering="auto"
   stroke="black"
   stroke-linecap="square"
   stroke-miterlimit="10"
   shape-rendering="auto"
   stroke-opacity="1"
   fill="black"
   stroke-dasharray="none"
   font-weight="normal"
   stroke-width="1"
   font-family="'Dialog'"
   font-style="normal"
   stroke-linejoin="miter"
   font-size="12"
   stroke-dashoffset="0"
   image-rendering="auto"
   version="1.1"
   id="svg9"
   sodipodi:docname="hiragana_letter_ha.svg"
   inkscape:version="0.92.4 (5da689c313, 2019-01-14)"
   width="100%"
   height="100%"
   viewBox="0 0 100 100"
   preserveAspectRatio="xMidYMid meet"
   >
  <metadata
     id="metadata13">
    <rdf:RDF>
      <cc:Work
         rdf:about="">
        <dc:format>image/svg+xml</dc:format>
        <dc:type
           rdf:resource="http://purl.org/dc/dcmitype/StillImage" />
      </cc:Work>
    </rdf:RDF>
  </metadata>
  <sodipodi:namedview
     pagecolor="#ffffff"
     bordercolor="#666666"
     borderopacity="1"
     objecttolerance="10"
     gridtolerance="10"
     guidetolerance="10"
     inkscape:pageopacity="0"
     inkscape:pageshadow="2"
     inkscape:window-width="1920"
     inkscape:window-height="986"
     id="namedview11"
     showgrid="false"
     inkscape:zoom="2.36"
     inkscape:cx="50"
     inkscape:cy="50"
     inkscape:window-x="-11"
     inkscape:window-y="-11"
     inkscape:window-maximized="1"
     inkscape:current-layer="svg9" />
  <!--Unicode Character 'HIRAGANA LETTER HA' (U+306F)-->
  <defs
     id="genericDefs" />
  <g
     id="g7"
     transform="matrix(0.43221745,0,0,0.42152738,-12.383777,-67.582395)">
    <g
       id="g5">
      <path
         d="m 258.0469,337.5 -17.0157,25.5938 q -17.0156,-12.2344 -44.2968,-24.75 -1.2656,27.4218 -14.2735,41.7656 -13.0078,14.3437 -36.4921,14.3437 -24.4688,0 -39.7266,-12.7265 Q 90.9844,369 90.9844,349.5938 q 0,-21.0938 18.2812,-34.3126 18.2813,-13.2187 43.5938,-13.2187 11.6718,0 18.8437,1.4063 v -61.0313 q -51.0469,0 -80.1562,-2.25 l 0.8437,-27.4219 q 25.4532,4.0782 62.0156,4.0782 6.6094,0 17.2969,-0.5626 v -53.2968 h 26.1563 v 51.4687 q 15.75,-0.8437 45.8437,-6.6093 v 27.9843 q -18.5625,2.8125 -45.8437,4.6407 v 68.4843 q 29.9531,10.2657 60.1875,28.5469 z m -87.8907,-6.6094 q -7.7343,-2.6718 -16.875,-2.6718 -14.7656,0 -25.7343,6.3281 -10.9688,6.3281 -10.9688,15.6093 0,8.5782 8.4375,13.5 8.4375,4.9219 20.6719,4.9219 12.375,0 17.9297,-8.5078 5.5547,-8.5078 6.539,-29.1797 z M 94.2188,319.9219 Q 80.1562,354.375 72,391.3594 H 48.0938 Q 31.9219,352.125 31.9219,294.3281 q 0,-58.2187 15.8906,-128.8125 l 28.5469,7.875 q -18.4219,53.0156 -18.4219,121.2188 0,26.1562 2.5313,45.9844 h 0.5624 q 5.9063,-18.4219 10.6876,-28.9688 z"
         id="path3"
         inkscape:connector-curvature="0"
         style="stroke:none" />
    </g>
  </g>
</svg>
