<?xml version="1.0" encoding="UTF-8" standalone="no"?>
<svg
   xmlns:dc="http://purl.org/dc/elements/1.1/"
   xmlns:cc="http://creativecommons.org/ns#"
   xmlns:rdf="http://www.w3.org/1999/02/22-rdf-syntax-ns#"
   xmlns:svg="http://www.w3.org/2000/svg"
   xmlns="http://www.w3.org/2000/svg"
   xmlns:sodipodi="http://sodipodi.sourceforge.net/DTD/sodipodi-0.dtd"
   xmlns:inkscape="http://www.inkscape.org/namespaces/inkscape"
   fill-opacity="1"
   color-rendering="auto"
   color-interpolation="auto"
   text-rendering="auto"
   stroke="black"
   stroke-linecap="square"
   stroke-miterlimit="10"
   shape-rendering="auto"
   stroke-opacity="1"
   fill="black"
   stroke-dasharray="none"
   font-weight="normal"
   stroke-width="1"
   font-family="'Dialog'"
   font-style="normal"
   stroke-linejoin="miter"
   font-size="12"
   stroke-dashoffset="0"
   image-rendering="auto"
   version="1.1"
   id="svg9"
   sodipodi:docname="hiragana_letter_hi.svg"
   inkscape:version="0.92.4 (5da689c313, 2019-01-14)">
  <metadata
     id="metadata13">
    <rdf:RDF>
      <cc:Work
         rdf:about="">
        <dc:format>image/svg+xml</dc:format>
        <dc:type
           rdf:resource="http://purl.org/dc/dcmitype/StillImage" />
      </cc:Work>
    </rdf:RDF>
  </metadata>
  <sodipodi:namedview
     pagecolor="#ffffff"
     bordercolor="#666666"
     borderopacity="1"
     objecttolerance="10"
     gridtolerance="10"
     guidetolerance="10"
     inkscape:pageopacity="0"
     inkscape:pageshadow="2"
     inkscape:window-width="1920"
     inkscape:window-height="986"
     id="namedview11"
     showgrid="false"
     inkscape:zoom="2.36"
     inkscape:cx="50"
     inkscape:cy="50"
     inkscape:window-x="-11"
     inkscape:window-y="-11"
     inkscape:window-maximized="1"
     inkscape:current-layer="svg9" />
  <!--Unicode Character 'HIRAGANA LETTER HI' (U+3072)-->
  <defs
     id="genericDefs" />
  <g
     id="g7"
     transform="matrix(0.42588844,0,0,0.43036325,-14.400685,-70.171607)">
    <g
       id="g5">
      <path
         d="m 270.1406,274.3594 -19.5468,19.6875 q -33.3282,-30.6563 -39.2344,-41.7657 l -0.5625,0.5626 q 1.4062,17.2968 1.4062,22.2187 0,52.4531 -24.6093,82.6172 -24.6094,30.1641 -66.6563,30.1641 -35.0156,0 -58.0781,-20.0391 -23.0625,-20.0391 -23.0625,-53.3672 0,-52.0313 58.3593,-107.4375 -41.4843,4.7812 -57.2343,5.4844 L 35.4375,184.5 q 28.9687,0 51.1875,-2.4609 22.2188,-2.461 49.0781,-8.086 l 6.8907,24.1875 q -36,27.8438 -56.461,59.6953 -20.4609,31.8516 -20.4609,56.3203 0,21.2344 17.0156,34.8047 17.0156,13.5703 40.2187,13.5703 30.6563,0 46.7579,-23.4843 16.1015,-23.4844 16.1015,-65.5313 0,-44.5781 -19.2656,-95.3437 l 25.3125,-6.0469 q 33.3281,64.8281 78.3281,102.2344 z"
         id="path3"
         inkscape:connector-curvature="0"
         style="stroke:none" />
    </g>
  </g>
</svg>
