<?xml version="1.0" encoding="UTF-8" standalone="no"?>
<svg
   xmlns:dc="http://purl.org/dc/elements/1.1/"
   xmlns:cc="http://creativecommons.org/ns#"
   xmlns:rdf="http://www.w3.org/1999/02/22-rdf-syntax-ns#"
   xmlns:svg="http://www.w3.org/2000/svg"
   xmlns="http://www.w3.org/2000/svg"
   xmlns:sodipodi="http://sodipodi.sourceforge.net/DTD/sodipodi-0.dtd"
   xmlns:inkscape="http://www.inkscape.org/namespaces/inkscape"
   fill-opacity="1"
   color-rendering="auto"
   color-interpolation="auto"
   text-rendering="auto"
   stroke="black"
   stroke-linecap="square"
   stroke-miterlimit="10"
   shape-rendering="auto"
   stroke-opacity="1"
   fill="black"
   stroke-dasharray="none"
   font-weight="normal"
   stroke-width="1"
   font-family="'Dialog'"
   font-style="normal"
   stroke-linejoin="miter"
   font-size="12"
   stroke-dashoffset="0"
   image-rendering="auto"
   version="1.1"
   id="svg9"
   sodipodi:docname="hiragana_letter_ya.svg"
   inkscape:version="0.92.4 (5da689c313, 2019-01-14)"
   width="100%"
   height="100%"
   viewBox="0 0 100 100"
   preserveAspectRatio="xMidYMid meet"
   >
  <metadata
     id="metadata13">
    <rdf:RDF>
      <cc:Work
         rdf:about="">
        <dc:format>image/svg+xml</dc:format>
        <dc:type
           rdf:resource="http://purl.org/dc/dcmitype/StillImage" />
      </cc:Work>
    </rdf:RDF>
  </metadata>
  <sodipodi:namedview
     pagecolor="#ffffff"
     bordercolor="#666666"
     borderopacity="1"
     objecttolerance="10"
     gridtolerance="10"
     guidetolerance="10"
     inkscape:pageopacity="0"
     inkscape:pageshadow="2"
     inkscape:window-width="1920"
     inkscape:window-height="986"
     id="namedview11"
     showgrid="false"
     inkscape:zoom="2.36"
     inkscape:cx="50"
     inkscape:cy="50"
     inkscape:window-x="-11"
     inkscape:window-y="-11"
     inkscape:window-maximized="1"
     inkscape:current-layer="svg9" />
  <!--Unicode Character 'HIRAGANA LETTER YA' (U+3084)-->
  <defs
     id="genericDefs" />
  <g
     id="g7"
     transform="matrix(0.41833772,0,0,0.41355376,-9.4270631,-64.17835)">
    <g
       id="g5">
      <path
         d="m 166.2188,199.8281 q 20.3906,-6.0469 34.875,-6.0469 24.1874,0 39.3046,15.75 15.1172,15.75 15.1172,39.5157 0,27.4219 -22.4297,45.3515 -22.4297,17.9297 -62.3671,22.0078 L 168.75,288.5625 q 23.7656,0 42.1172,-11.6016 18.3516,-11.6015 18.3516,-29.6015 0,-11.6719 -8.086,-20.3906 -8.0859,-8.7188 -20.039,-8.7188 -11.3907,0 -22.2188,3.7969 7.1719,13.0781 12.9375,25.3125 l -23.625,14.0625 q -6.3281,-18.5625 -13.7813,-30.7969 -20.1093,7.5938 -45.5624,20.5312 35.1562,69.6094 55.2656,132.75 l -27,10.2657 q -11.25,-49.5 -51.0469,-131.2031 -19.4063,11.1093 -41.4844,26.7187 L 28.5469,264.6562 q 6.75,-4.5 45.4219,-25.0312 Q 54.4219,200.8125 38.25,180.8438 l 25.7344,-11.8126 q 20.9531,34.7344 33.0468,59.3438 26.7188,-12.5156 45.2813,-19.2656 -8.7187,-17.1563 -26.5781,-36.7032 l 25.0312,-13.7812 z"
         id="path3"
         inkscape:connector-curvature="0"
         style="stroke:none" />
    </g>
  </g>
</svg>
