<?xml version="1.0" encoding="UTF-8" standalone="no"?>
<svg
   xmlns:dc="http://purl.org/dc/elements/1.1/"
   xmlns:cc="http://creativecommons.org/ns#"
   xmlns:rdf="http://www.w3.org/1999/02/22-rdf-syntax-ns#"
   xmlns:svg="http://www.w3.org/2000/svg"
   xmlns="http://www.w3.org/2000/svg"
   xmlns:sodipodi="http://sodipodi.sourceforge.net/DTD/sodipodi-0.dtd"
   xmlns:inkscape="http://www.inkscape.org/namespaces/inkscape"
   fill-opacity="1"
   color-rendering="auto"
   color-interpolation="auto"
   text-rendering="auto"
   stroke="black"
   stroke-linecap="square"
   stroke-miterlimit="10"
   shape-rendering="auto"
   stroke-opacity="1"
   fill="black"
   stroke-dasharray="none"
   font-weight="normal"
   stroke-width="1"
   font-family="'Dialog'"
   font-style="normal"
   stroke-linejoin="miter"
   font-size="12"
   stroke-dashoffset="0"
   image-rendering="auto"
   version="1.1"
   id="svg9"
   sodipodi:docname="hiragana_letter_we.svg"
   inkscape:version="0.92.4 (5da689c313, 2019-01-14)">
  <metadata
     id="metadata13">
    <rdf:RDF>
      <cc:Work
         rdf:about="">
        <dc:format>image/svg+xml</dc:format>
        <dc:type
           rdf:resource="http://purl.org/dc/dcmitype/StillImage" />
      </cc:Work>
    </rdf:RDF>
  </metadata>
  <sodipodi:namedview
     pagecolor="#ffffff"
     bordercolor="#666666"
     borderopacity="1"
     objecttolerance="10"
     gridtolerance="10"
     guidetolerance="10"
     inkscape:pageopacity="0"
     inkscape:pageshadow="2"
     inkscape:window-width="1920"
     inkscape:window-height="986"
     id="namedview11"
     showgrid="false"
     inkscape:zoom="2.36"
     inkscape:cx="50"
     inkscape:cy="50"
     inkscape:window-x="-11"
     inkscape:window-y="-11"
     inkscape:window-maximized="1"
     inkscape:current-layer="svg9" />
  <!--Unicode Character 'HIRAGANA LETTER WE' (U+3091)-->
  <defs
     id="genericDefs" />
  <g
     id="g7"
     transform="matrix(0.41809381,0,0,0.43847834,-8.4791777,-70.345139)">
    <g
       id="g5">
      <path
         d="m 257.7656,370.9688 -27.7031,14.625 q -8.5781,-20.9532 -19.125,-32.625 -10.5469,-11.6719 -18.8437,-11.6719 -10.9688,0 -22.6407,11.6719 -11.6719,11.6718 -18,29.3906 h -29.1093 q -9.1407,-31.0782 -33.6094,-31.0782 -6.3282,0 -11.8125,2.1094 -5.4844,2.1094 -26.0157,31.6406 L 24.75,368.0156 q 37.4062,-46.8281 83.25,-77.2031 -2.5312,-1.4063 -2.5312,-5.7656 0,-9.1407 8.7187,-15.3281 8.7187,-6.1876 19.4063,-6.1876 8.1562,0 14.9062,5.1329 6.75,5.1328 6.75,11.7421 3.9375,0.7032 6.0469,0.7032 15.3281,0 28.8281,-7.6641 13.5,-7.6641 13.5,-18.0703 0,-7.0312 -6.5391,-12.8672 -6.539,-5.8359 -22.5703,-5.8359 -20.3906,0 -50.4844,10.1953 -30.0937,10.1953 -50.625,37.3359 L 49.2188,270.4219 q 4.0781,-7.4531 10.6874,-14.4141 6.6094,-6.9609 25.0313,-19.0547 19.6875,-12.7969 28.3359,-21.5859 8.6485,-8.7891 14.2735,-17.5078 -23.7657,2.25 -52.0313,2.25 l -2.1094,-28.2656 q 8.7188,0.8437 26.8594,0.8437 37.6875,0 81.1406,-9.7031 v 25.875 q -23.625,9.7031 -37.4062,26.8594 20.9531,-4.3594 33.75,-4.3594 22.9219,0 37.4766,12.164 14.5546,12.1641 14.5546,31.0078 0,24.1876 -20.1093,38.461 -20.1094,14.2734 -53.8594,14.2734 -14.4844,0 -23.9063,-3.2344 -21.6562,13.6407 -34.3124,26.2969 l 0.5624,0.5625 q 1.6876,-0.2812 4.9219,-0.2812 17.4375,0 32.9063,19.2656 12.2344,-14.9062 27.4922,-24.75 15.2578,-9.8438 27.2109,-9.8438 35.4375,0 67.0781,55.6876 z"
         id="path3"
         inkscape:connector-curvature="0"
         style="stroke:none" />
    </g>
  </g>
</svg>
