<?xml version="1.0" encoding="UTF-8" standalone="no"?>
<svg
   xmlns:dc="http://purl.org/dc/elements/1.1/"
   xmlns:cc="http://creativecommons.org/ns#"
   xmlns:rdf="http://www.w3.org/1999/02/22-rdf-syntax-ns#"
   xmlns:svg="http://www.w3.org/2000/svg"
   xmlns="http://www.w3.org/2000/svg"
   xmlns:sodipodi="http://sodipodi.sourceforge.net/DTD/sodipodi-0.dtd"
   xmlns:inkscape="http://www.inkscape.org/namespaces/inkscape"
   fill-opacity="1"
   color-rendering="auto"
   color-interpolation="auto"
   text-rendering="auto"
   stroke="black"
   stroke-linecap="square"
   stroke-miterlimit="10"
   shape-rendering="auto"
   stroke-opacity="1"
   fill="black"
   stroke-dasharray="none"
   font-weight="normal"
   stroke-width="1"
   font-family="'Dialog'"
   font-style="normal"
   stroke-linejoin="miter"
   font-size="12"
   stroke-dashoffset="0"
   image-rendering="auto"
   version="1.1"
   id="svg9"
   sodipodi:docname="hiragana_letter_yu.svg"
   inkscape:version="0.92.4 (5da689c313, 2019-01-14)">
  <metadata
     id="metadata13">
    <rdf:RDF>
      <cc:Work
         rdf:about="">
        <dc:format>image/svg+xml</dc:format>
        <dc:type
           rdf:resource="http://purl.org/dc/dcmitype/StillImage" />
      </cc:Work>
    </rdf:RDF>
  </metadata>
  <sodipodi:namedview
     pagecolor="#ffffff"
     bordercolor="#666666"
     borderopacity="1"
     objecttolerance="10"
     gridtolerance="10"
     guidetolerance="10"
     inkscape:pageopacity="0"
     inkscape:pageshadow="2"
     inkscape:window-width="1920"
     inkscape:window-height="986"
     id="namedview11"
     showgrid="false"
     inkscape:zoom="2.36"
     inkscape:cx="50"
     inkscape:cy="50"
     inkscape:window-x="-11"
     inkscape:window-y="-11"
     inkscape:window-maximized="1"
     inkscape:current-layer="svg9" />
  <!--Unicode Character 'HIRAGANA LETTER YU' (U+3086)-->
  <defs
     id="genericDefs" />
  <g
     id="g7"
     transform="matrix(0.42256346,0,0,0.40261901,-11.257245,-62.524171)">
    <g
       id="g5">
      <path
         d="m 184.3594,199.5469 q 32.3437,1.8281 50.414,21.375 18.0704,19.5469 18.0704,51.75 0,32.625 -20.25,56.3203 -20.25,23.6953 -51.6094,23.6953 -5.3438,0 -10.8282,-0.8437 -11.1093,28.9687 -32.2031,47.8124 L 117.5625,377.8594 Q 135.4219,363.6562 145.125,345.5156 120.5156,334.125 109.1953,315.4922 97.875,296.8594 97.875,267.75 v -9.7031 q -23.7656,24.8906 -23.7656,66.0937 0,18.8438 5.3437,38.9532 l -27,7.875 q -13.6406,-60.75 -13.6406,-120.2344 0,-46.9688 8.7187,-82.2656 l 27.2813,6.0468 q -9.4219,52.7344 -9.4219,88.7344 0,10.9688 0.2813,15.4688 h 0.5625 q 7.0312,-28.8282 34.1015,-51.2579 27.0703,-22.4297 58.0079,-26.789 -1.9688,-20.25 -7.7344,-40.6407 L 180,157.7812 q 2.25,15.1876 4.3594,41.7657 z m -4.9219,127.2656 h 4.9219 q 20.8125,0 33.3984,-17.3672 12.586,-17.3672 12.586,-37.0547 0,-18.2812 -11.9532,-31.5 -11.9531,-13.2187 -32.0625,-15.4687 0.8438,15.3281 0.8438,31.3593 0,40.5 -7.7344,70.0313 z m -25.5937,-5.7656 q 2.9531,-11.1094 5.0624,-34.6641 2.1094,-23.5547 2.1094,-44.2266 0,-6.8906 -0.5625,-16.4531 -22.3593,1.5469 -40.6406,16.1719 -0.2813,8.2969 -0.2813,11.8125 0,27 8.8594,44.7187 8.8594,17.7188 25.4532,22.6407 z"
         id="path3"
         inkscape:connector-curvature="0"
         style="stroke:none" />
    </g>
  </g>
</svg>
