<?xml version="1.0" encoding="UTF-8" standalone="no"?>
<svg
   xmlns:dc="http://purl.org/dc/elements/1.1/"
   xmlns:cc="http://creativecommons.org/ns#"
   xmlns:rdf="http://www.w3.org/1999/02/22-rdf-syntax-ns#"
   xmlns:svg="http://www.w3.org/2000/svg"
   xmlns="http://www.w3.org/2000/svg"
   xmlns:sodipodi="http://sodipodi.sourceforge.net/DTD/sodipodi-0.dtd"
   xmlns:inkscape="http://www.inkscape.org/namespaces/inkscape"
   fill-opacity="1"
   color-rendering="auto"
   color-interpolation="auto"
   text-rendering="auto"
   stroke="black"
   stroke-linecap="square"
   stroke-miterlimit="10"
   shape-rendering="auto"
   stroke-opacity="1"
   fill="black"
   stroke-dasharray="none"
   font-weight="normal"
   stroke-width="1"
   font-family="'Dialog'"
   font-style="normal"
   stroke-linejoin="miter"
   font-size="12"
   stroke-dashoffset="0"
   image-rendering="auto"
   version="1.1"
   id="svg9"
   sodipodi:docname="hiragana_letter_sa.svg"
   inkscape:version="0.92.4 (5da689c313, 2019-01-14)"
   width="100%"
   height="100%"
   viewBox="0 0 100 100"
   preserveAspectRatio="xMidYMid meet"
   >
  <metadata
     id="metadata13">
    <rdf:RDF>
      <cc:Work
         rdf:about="">
        <dc:format>image/svg+xml</dc:format>
        <dc:type
           rdf:resource="http://purl.org/dc/dcmitype/StillImage" />
      </cc:Work>
    </rdf:RDF>
  </metadata>
  <sodipodi:namedview
     pagecolor="#ffffff"
     bordercolor="#666666"
     borderopacity="1"
     objecttolerance="10"
     gridtolerance="10"
     guidetolerance="10"
     inkscape:pageopacity="0"
     inkscape:pageshadow="2"
     inkscape:window-width="1920"
     inkscape:window-height="986"
     id="namedview11"
     showgrid="false"
     inkscape:zoom="2.36"
     inkscape:cx="50"
     inkscape:cy="50"
     inkscape:window-x="-11"
     inkscape:window-y="-11"
     inkscape:window-maximized="1"
     inkscape:current-layer="svg9" />
  <!--Unicode Character 'HIRAGANA LETTER SA' (U+3055)-->
  <defs
     id="genericDefs" />
  <g
     id="g7"
     transform="matrix(0.42860533,0,0,0.41136163,-6.3068143,-64.254362)">
    <g
       id="g5">
      <path
         d="m 234.4219,221.2031 q -38.9531,10.5469 -67.0781,16.0313 14.625,25.875 39.375,57.375 l -17.4376,13.2187 q -27.8437,-9.2812 -53.5781,-9.2812 -28.6875,0 -45.7734,8.5781 -17.0859,8.5781 -17.0859,23.7656 0,15.75 17.5078,26.8594 17.5078,11.1094 47.039,11.1094 36,0 71.7188,-14.9063 l 10.6875,25.0313 q -36.4219,15.75 -81,15.75 -41.7657,0 -67.0781,-17.7891 -25.3126,-17.7891 -25.3126,-46.3359 0,-17.7188 11.3204,-30.8672 11.3203,-13.1484 32.2031,-20.25 20.8828,-7.1016 45.7734,-7.1016 13.9219,0 25.3125,2.6719 Q 147.7969,256.6406 140.2031,243 91.6875,252.8438 35.1562,255.9375 L 28.2656,228.375 q 5.3438,0.2812 16.5938,0.2812 36.4218,0 82.6875,-9.5624 -14.7657,-28.6876 -23.625,-51.75 l 27.4219,-8.7188 q 8.4374,25.4531 23.9062,54.9844 37.125,-7.0313 72,-18.7032 z"
         id="path3"
         inkscape:connector-curvature="0"
         style="stroke:none" />
    </g>
  </g>
</svg>
