<?xml version="1.0" encoding="UTF-8" standalone="no"?>
<svg
   xmlns:dc="http://purl.org/dc/elements/1.1/"
   xmlns:cc="http://creativecommons.org/ns#"
   xmlns:rdf="http://www.w3.org/1999/02/22-rdf-syntax-ns#"
   xmlns:svg="http://www.w3.org/2000/svg"
   xmlns="http://www.w3.org/2000/svg"
   xmlns:sodipodi="http://sodipodi.sourceforge.net/DTD/sodipodi-0.dtd"
   xmlns:inkscape="http://www.inkscape.org/namespaces/inkscape"
   fill-opacity="1"
   color-rendering="auto"
   color-interpolation="auto"
   text-rendering="auto"
   stroke="black"
   stroke-linecap="square"
   stroke-miterlimit="10"
   shape-rendering="auto"
   stroke-opacity="1"
   fill="black"
   stroke-dasharray="none"
   font-weight="normal"
   stroke-width="1"
   font-family="'Dialog'"
   font-style="normal"
   stroke-linejoin="miter"
   font-size="12"
   stroke-dashoffset="0"
   image-rendering="auto"
   version="1.1"
   id="svg9"
   sodipodi:docname="hiragana_letter_wo.svg"
   inkscape:version="0.92.4 (5da689c313, 2019-01-14)">
  <metadata
     id="metadata13">
    <rdf:RDF>
      <cc:Work
         rdf:about="">
        <dc:format>image/svg+xml</dc:format>
        <dc:type
           rdf:resource="http://purl.org/dc/dcmitype/StillImage" />
      </cc:Work>
    </rdf:RDF>
  </metadata>
  <sodipodi:namedview
     pagecolor="#ffffff"
     bordercolor="#666666"
     borderopacity="1"
     objecttolerance="10"
     gridtolerance="10"
     guidetolerance="10"
     inkscape:pageopacity="0"
     inkscape:pageshadow="2"
     inkscape:window-width="1920"
     inkscape:window-height="986"
     id="namedview11"
     showgrid="false"
     inkscape:zoom="2.36"
     inkscape:cx="50"
     inkscape:cy="50"
     inkscape:window-x="-11"
     inkscape:window-y="-11"
     inkscape:window-maximized="1"
     inkscape:current-layer="svg9" />
  <!--Unicode Character 'HIRAGANA LETTER WO' (U+3092)-->
  <defs
     id="genericDefs" />
  <g
     id="g7"
     transform="matrix(0.42767484,0,0,0.40730082,-9.395789,-61.275945)">
    <g
       id="g5">
      <path
         d="m 245.6719,389.3906 q -38.25,3.375 -70.5938,3.375 -51.3281,0 -69.8906,-11.9531 -18.5625,-11.9531 -18.5625,-35.0156 0,-19.2657 17.9297,-38.1094 17.9297,-18.8437 50.6953,-34.7344 -4.5,-15.4687 -26.1562,-15.4687 -9,0 -18.7032,3.164 -9.7031,3.1641 -15.6094,7.9454 Q 71.4375,301.5 55.8281,318.2344 L 33.1875,300.0938 q 10.2656,-8.1563 18.7734,-17.7188 8.5079,-9.5625 15.1875,-19.3359 6.6797,-9.7735 13.2891,-21.4453 l 13.2187,-23.625 q -3.2343,0.2812 -11.5312,0.2812 -12.7969,0 -36,-1.125 v -27.9844 q 20.3906,2.6719 40.2188,2.6719 7.5937,0 20.5312,-0.5625 8.4375,-15.4688 13.7812,-37.2656 l 27.4219,7.875 q -7.7343,19.9687 -11.5312,27.5625 45.7031,-1.9688 85.5,-9.1407 L 223.7344,207 q -36.9844,4.5 -99.8438,8.7188 -7.0312,15.1874 -12.0937,22.9218 15.6093,-3.9375 24.75,-3.9375 16.3125,0 28.8281,8.086 12.5156,8.0859 15.4688,18.6328 12.7968,-6.0469 54.1406,-22.3594 L 245.3906,265.5 q -39.2344,14.4844 -61.875,23.9062 v 53.0157 H 156.375 v -40.3594 q -19.5469,9 -31.6406,21.1641 -12.0938,12.164 -12.0938,24.1172 0,9.9843 11.25,14.3437 11.25,4.3594 42.6094,4.3594 31.6406,0 76.6406,-6.0469 z"
         id="path3"
         inkscape:connector-curvature="0"
         style="stroke:none" />
    </g>
  </g>
</svg>
