<?xml version="1.0" encoding="UTF-8" standalone="no"?>
<svg
   xmlns:dc="http://purl.org/dc/elements/1.1/"
   xmlns:cc="http://creativecommons.org/ns#"
   xmlns:rdf="http://www.w3.org/1999/02/22-rdf-syntax-ns#"
   xmlns:svg="http://www.w3.org/2000/svg"
   xmlns="http://www.w3.org/2000/svg"
   xmlns:sodipodi="http://sodipodi.sourceforge.net/DTD/sodipodi-0.dtd"
   xmlns:inkscape="http://www.inkscape.org/namespaces/inkscape"
   fill-opacity="1"
   color-rendering="auto"
   color-interpolation="auto"
   text-rendering="auto"
   stroke="black"
   stroke-linecap="square"
   stroke-miterlimit="10"
   shape-rendering="auto"
   stroke-opacity="1"
   fill="black"
   stroke-dasharray="none"
   font-weight="normal"
   stroke-width="1"
   font-family="'Dialog'"
   font-style="normal"
   stroke-linejoin="miter"
   font-size="12"
   stroke-dashoffset="0"
   image-rendering="auto"
   version="1.1"
   id="svg9"
   sodipodi:docname="hiragana_letter_mo.svg"
   inkscape:version="0.92.4 (5da689c313, 2019-01-14)">
  <metadata
     id="metadata13">
    <rdf:RDF>
      <cc:Work
         rdf:about="">
        <dc:format>image/svg+xml</dc:format>
        <dc:type
           rdf:resource="http://purl.org/dc/dcmitype/StillImage" />
      </cc:Work>
    </rdf:RDF>
  </metadata>
  <sodipodi:namedview
     pagecolor="#ffffff"
     bordercolor="#666666"
     borderopacity="1"
     objecttolerance="10"
     gridtolerance="10"
     guidetolerance="10"
     inkscape:pageopacity="0"
     inkscape:pageshadow="2"
     inkscape:window-width="1920"
     inkscape:window-height="986"
     id="namedview11"
     showgrid="false"
     inkscape:zoom="2.36"
     inkscape:cx="50"
     inkscape:cy="103.37251"
     inkscape:window-x="-11"
     inkscape:window-y="-11"
     inkscape:window-maximized="1"
     inkscape:current-layer="svg9" />
  <!--Unicode Character 'HIRAGANA LETTER MO' (U+3082)-->
  <defs
     id="genericDefs" />
  <g
     id="g7"
     transform="matrix(0.43798621,0,0,0.42649938,-11.138705,-66.655585)">
    <g
       id="g5">
      <path
         d="m 242.4375,283.9219 q 4.6406,15.8906 4.6406,33.75 0,33.6093 -24.2578,52.1719 -24.2578,18.5624 -67.8515,18.5624 -21.375,0 -39.0235,-7.8046 -17.6484,-7.8047 -27.4922,-23.9063 -9.8437,-16.1015 -9.8437,-38.7422 0,-9.4219 1.9687,-23.625 -21.5156,-0.5625 -48.375,-4.3593 l 4.0781,-27.4219 Q 73.8281,267.75 84.0938,267.75 87.75,244.8281 92.1094,228.375 63.7031,226.6875 44.0156,223.1719 L 48.375,195.75 q 26.0156,6.6094 49.2188,7.5938 l 11.25,-44.7188 28.2656,5.2031 -8.2969,24.4688 q -3.9375,11.8125 -4.6406,15.8906 12.7969,0.5625 20.9531,0.5625 24.1875,0 46.4062,-3.5156 l -4.3593,27.9844 q -18.7031,1.125 -40.6407,1.125 -10.5468,0 -28.4062,-0.5626 -4.9219,20.8126 -7.875,38.8126 51.0469,0 76.9219,-4.5 l -4.3594,28.125 q -26.2969,3.2343 -75.9375,3.2343 -2.6719,18.5625 -2.6719,23.9063 0,22.7812 15.8907,32.6953 15.8906,9.9141 37.4062,9.9141 28.4062,0 46.1953,-11.461 17.7891,-11.4609 17.7891,-33.3984 0,-12.9375 -4.9219,-26.2969 z"
         id="path3"
         inkscape:connector-curvature="0"
         style="stroke:none" />
    </g>
  </g>
</svg>
