<?xml version="1.0" encoding="UTF-8" standalone="no"?>
<svg
   xmlns:dc="http://purl.org/dc/elements/1.1/"
   xmlns:cc="http://creativecommons.org/ns#"
   xmlns:rdf="http://www.w3.org/1999/02/22-rdf-syntax-ns#"
   xmlns:svg="http://www.w3.org/2000/svg"
   xmlns="http://www.w3.org/2000/svg"
   xmlns:sodipodi="http://sodipodi.sourceforge.net/DTD/sodipodi-0.dtd"
   xmlns:inkscape="http://www.inkscape.org/namespaces/inkscape"
   fill-opacity="1"
   color-rendering="auto"
   color-interpolation="auto"
   text-rendering="auto"
   stroke="black"
   stroke-linecap="square"
   stroke-miterlimit="10"
   shape-rendering="auto"
   stroke-opacity="1"
   fill="black"
   stroke-dasharray="none"
   font-weight="normal"
   stroke-width="1"
   font-family="'Dialog'"
   font-style="normal"
   stroke-linejoin="miter"
   font-size="12"
   stroke-dashoffset="0"
   image-rendering="auto"
   version="1.1"
   id="svg9"
   sodipodi:docname="hiragana_letter_na.svg"
   inkscape:version="0.92.4 (5da689c313, 2019-01-14)"
   width="100%"
   height="100%"
   viewBox="0 0 100 100"
   preserveAspectRatio="xMidYMid meet"
   >
  <metadata
     id="metadata13">
    <rdf:RDF>
      <cc:Work
         rdf:about="">
        <dc:format>image/svg+xml</dc:format>
        <dc:type
           rdf:resource="http://purl.org/dc/dcmitype/StillImage" />
      </cc:Work>
    </rdf:RDF>
  </metadata>
  <sodipodi:namedview
     pagecolor="#ffffff"
     bordercolor="#666666"
     borderopacity="1"
     objecttolerance="10"
     gridtolerance="10"
     guidetolerance="10"
     inkscape:pageopacity="0"
     inkscape:pageshadow="2"
     inkscape:window-width="1920"
     inkscape:window-height="986"
     id="namedview11"
     showgrid="false"
     inkscape:zoom="2.36"
     inkscape:cx="50"
     inkscape:cy="50"
     inkscape:window-x="-11"
     inkscape:window-y="-11"
     inkscape:window-maximized="1"
     inkscape:current-layer="svg9" />
  <!--Unicode Character 'HIRAGANA LETTER NA' (U+306A)-->
  <defs
     id="genericDefs" />
  <g
     id="g7"
     transform="matrix(0.40945876,0,0,0.41634139,-8.4145412,-63.883897)">
    <g
       id="g5">
      <path
         d="m 147.2344,217.125 q -19.6875,3.2344 -43.5938,4.3594 -24.3281,74.8125 -56.9531,117.4218 l -23.625,-14.625 Q 54.8438,284.0625 75.2344,223.4531 l -13.6406,0.2813 q -9.8438,0 -21.7969,-0.8438 L 36.8438,195.75 q 22.7812,1.8281 32.625,1.8281 4.5,0 13.5,-0.5625 3.5156,-11.1094 8.0156,-41.4844 l 26.5781,6.8907 q -2.1094,15.4687 -7.0313,32.7656 6.6094,-0.1406 34.3126,-5.4844 z m 114.0468,127.8281 -16.4531,25.3125 q -23.9062,-18.7031 -45.2812,-26.7187 -4.6407,22.5 -21.0938,35.5781 -16.4531,13.0781 -38.5312,13.0781 -20.9531,0 -35.3672,-12.4453 -14.4141,-12.4453 -14.4141,-33.1172 0,-18.8437 14.6953,-30.5859 14.6953,-11.7422 39.1641,-11.7422 10.5469,0 26.1562,2.9531 -0.4218,-4.7812 -5.7656,-17.1562 -7.1718,-17.0156 -7.1718,-25.7344 0,-17.2969 22.7812,-29.3906 -15.3281,-3.375 -29.9531,-7.4532 l 5.4843,-27.7031 q 40.6407,17.4375 89.5782,18.1407 l -5.7656,26.1562 q -27.8438,0.5625 -41.1329,9 -13.289,8.4375 -13.289,15.1875 0,5.0625 6.4687,22.2187 7.1719,18.9844 7.5938,25.3126 28.2656,10.4062 62.2968,29.1093 z m -88.1718,-10.6875 q -12.0938,-4.2187 -28.5469,-4.2187 -13.5,0 -20.8828,4.8515 -7.3828,4.8516 -7.3828,13.2891 0,7.7344 7.0312,12.6563 7.0313,4.9218 17.4375,4.9218 26.1563,0 32.3438,-31.5 z"
         id="path3"
         inkscape:connector-curvature="0"
         style="stroke:none" />
    </g>
  </g>
</svg>
