<?xml version="1.0" encoding="UTF-8" standalone="no"?>
<svg
   xmlns:dc="http://purl.org/dc/elements/1.1/"
   xmlns:cc="http://creativecommons.org/ns#"
   xmlns:rdf="http://www.w3.org/1999/02/22-rdf-syntax-ns#"
   xmlns:svg="http://www.w3.org/2000/svg"
   xmlns="http://www.w3.org/2000/svg"
   xmlns:sodipodi="http://sodipodi.sourceforge.net/DTD/sodipodi-0.dtd"
   xmlns:inkscape="http://www.inkscape.org/namespaces/inkscape"
   fill-opacity="1"
   color-rendering="auto"
   color-interpolation="auto"
   text-rendering="auto"
   stroke="black"
   stroke-linecap="square"
   stroke-miterlimit="10"
   shape-rendering="auto"
   stroke-opacity="1"
   fill="black"
   stroke-dasharray="none"
   font-weight="normal"
   stroke-width="1"
   font-family="'Dialog'"
   font-style="normal"
   stroke-linejoin="miter"
   font-size="12"
   stroke-dashoffset="0"
   image-rendering="auto"
   version="1.1"
   id="svg9"
   sodipodi:docname="hiragana_letter_wi.svg"
   inkscape:version="0.92.4 (5da689c313, 2019-01-14)"
   width="100%"
   height="100%"
   viewBox="0 0 100 100"
   preserveAspectRatio="xMidYMid meet"
   >
  <metadata
     id="metadata13">
    <rdf:RDF>
      <cc:Work
         rdf:about="">
        <dc:format>image/svg+xml</dc:format>
        <dc:type
           rdf:resource="http://purl.org/dc/dcmitype/StillImage" />
      </cc:Work>
    </rdf:RDF>
  </metadata>
  <sodipodi:namedview
     pagecolor="#ffffff"
     bordercolor="#666666"
     borderopacity="1"
     objecttolerance="10"
     gridtolerance="10"
     guidetolerance="10"
     inkscape:pageopacity="0"
     inkscape:pageshadow="2"
     inkscape:window-width="1920"
     inkscape:window-height="986"
     id="namedview11"
     showgrid="false"
     inkscape:zoom="2.36"
     inkscape:cx="50"
     inkscape:cy="50"
     inkscape:window-x="-11"
     inkscape:window-y="-11"
     inkscape:window-maximized="1"
     inkscape:current-layer="svg9" />
  <!--Unicode Character 'HIRAGANA LETTER WI' (U+3090)-->
  <defs
     id="genericDefs" />
  <g
     id="g7"
     transform="matrix(0.44687416,0,0,0.4467985,-14.227314,-75.162234)">
    <g
       id="g5">
      <path
         d="m 147.2344,219.6562 q 10.9687,-1.4062 20.6718,-1.4062 37.6876,0 61.4532,21.7969 23.7656,21.7969 23.7656,58.2187 0,26.0156 -11.1797,46.2656 -11.1797,20.25 -30.7265,31.5 -19.5469,11.25 -40.7813,11.25 -19.2656,0 -33.9609,-12.5156 -14.6954,-12.5156 -14.6954,-31.2187 0,-17.8594 11.9532,-29.8125 11.9531,-11.9532 27.8437,-11.9532 26.5781,0 59.3438,25.5938 7.4531,-13.2188 7.4531,-28.4062 0,-24.3282 -16.1719,-39.4454 -16.1719,-15.1172 -43.7343,-15.1172 -15.4688,0 -29.3907,4.0782 -25.1719,70.4531 -31.1484,87.9609 -5.9766,17.5078 -12.4453,26.4375 -6.4688,8.9297 -17.7188,8.9297 -19.125,0 -31.4297,-15.6094 -12.3047,-15.6093 -12.3047,-40.0781 0,-28.9688 21.7266,-51.8906 21.7266,-22.9219 62.3672,-37.2656 l 8.0156,-26.0157 q -11.3906,2.1094 -25.5937,2.1094 -17.5781,0 -34.875,-2.1094 l -2.25,-28.2656 q 16.1719,3.7969 33.8906,3.7969 14.3437,0 35.0859,-2.25 20.7422,-2.25 29.1797,-2.9532 -9.9843,36 -14.3437,48.375 z m -38.6719,38.6719 Q 90,265.7812 74.5312,282.4453 q -15.4687,16.6641 -15.4687,33.1172 0,12.5156 4.2187,20.8125 4.2188,8.2969 9,8.2969 3.2344,0 4.9219,-4.3594 z m 97.3125,88.7344 q -25.4531,-19.4063 -42.3281,-19.4063 -5.7657,0 -10.7578,4.2891 -4.9922,4.2891 -4.9922,9.9141 0,18.4218 26.1562,18.4218 21.375,0 31.9219,-13.2187 z"
         id="path3"
         inkscape:connector-curvature="0"
         style="stroke:none" />
    </g>
  </g>
</svg>
