<?xml version="1.0" encoding="UTF-8" standalone="no"?>
<svg
   xmlns:dc="http://purl.org/dc/elements/1.1/"
   xmlns:cc="http://creativecommons.org/ns#"
   xmlns:rdf="http://www.w3.org/1999/02/22-rdf-syntax-ns#"
   xmlns:svg="http://www.w3.org/2000/svg"
   xmlns="http://www.w3.org/2000/svg"
   xmlns:sodipodi="http://sodipodi.sourceforge.net/DTD/sodipodi-0.dtd"
   xmlns:inkscape="http://www.inkscape.org/namespaces/inkscape"
   fill-opacity="1"
   color-rendering="auto"
   color-interpolation="auto"
   text-rendering="auto"
   stroke="black"
   stroke-linecap="square"
   stroke-miterlimit="10"
   shape-rendering="auto"
   stroke-opacity="1"
   fill="black"
   stroke-dasharray="none"
   font-weight="normal"
   stroke-width="1"
   font-family="'Dialog'"
   font-style="normal"
   stroke-linejoin="miter"
   font-size="12"
   stroke-dashoffset="0"
   image-rendering="auto"
   version="1.1"
   id="svg9"
   sodipodi:docname="hiragana_letter_ma.svg"
   inkscape:version="0.92.4 (5da689c313, 2019-01-14)"
   width="100%"
   height="100%"
   viewBox="0 0 100 100"
   preserveAspectRatio="xMidYMid meet"
   >
  <metadata
     id="metadata13">
    <rdf:RDF>
      <cc:Work
         rdf:about="">
        <dc:format>image/svg+xml</dc:format>
        <dc:type
           rdf:resource="http://purl.org/dc/dcmitype/StillImage" />
      </cc:Work>
    </rdf:RDF>
  </metadata>
  <sodipodi:namedview
     pagecolor="#ffffff"
     bordercolor="#666666"
     borderopacity="1"
     objecttolerance="10"
     gridtolerance="10"
     guidetolerance="10"
     inkscape:pageopacity="0"
     inkscape:pageshadow="2"
     inkscape:window-width="1920"
     inkscape:window-height="986"
     id="namedview11"
     showgrid="false"
     inkscape:zoom="2.36"
     inkscape:cx="50"
     inkscape:cy="50"
     inkscape:window-x="-11"
     inkscape:window-y="-11"
     inkscape:window-maximized="1"
     inkscape:current-layer="svg9" />
  <!--Unicode Character 'HIRAGANA LETTER MA' (U+307E)-->
  <defs
     id="genericDefs" />
  <g
     id="g7"
     transform="matrix(0.43314778,0,0,0.41206185,-13.332227,-62.722185)">
    <g
       id="g5">
      <path
         d="m 256.9219,350.1562 -17.5781,24.4688 q -47.5313,-34.7344 -81,-42.6094 0,26.1563 -14.4844,43.4532 -14.4844,17.2968 -41.0625,17.2968 -24.0469,0 -40.0781,-13.5703 -16.0313,-13.5703 -16.0313,-32.1328 0,-21.0937 19.0547,-34.3125 19.0547,-13.2188 47.4609,-13.2188 10.6875,0 18.7031,1.125 v -28.8281 q -45.8437,0 -90.4218,-2.8125 V 243 q 43.0312,2.9531 90.4218,2.9531 v -27.9843 q -52.7343,0 -95.625,4.3593 v -26.0156 q 42.8907,-4.2187 95.625,-4.2187 V 156.375 h 25.3126 v 35.7188 q 51.4687,0 91.2656,4.2187 v 26.0156 q -38.6719,-4.3593 -91.2656,-4.3593 v 27.9843 q 45,0 87.3281,-2.9531 v 26.0156 q -42.0469,2.8125 -87.3281,2.8125 V 303.75 q 50.625,11.9531 99.7031,46.4062 z M 131.625,326.5312 q -10.125,-0.5624 -16.7344,-0.5624 -17.4375,0 -28.7578,5.4843 -11.3203,5.4844 -11.3203,15.6094 0,7.875 7.7344,13.2891 7.7343,5.414 19.6875,5.414 15.0468,0 22.2187,-7.664 7.1719,-7.6641 7.1719,-31.5704 z"
         id="path3"
         inkscape:connector-curvature="0"
         style="stroke:none" />
    </g>
  </g>
</svg>
