<?xml version="1.0" encoding="UTF-8" standalone="no"?>
<svg
   xmlns:dc="http://purl.org/dc/elements/1.1/"
   xmlns:cc="http://creativecommons.org/ns#"
   xmlns:rdf="http://www.w3.org/1999/02/22-rdf-syntax-ns#"
   xmlns:svg="http://www.w3.org/2000/svg"
   xmlns="http://www.w3.org/2000/svg"
   xmlns:sodipodi="http://sodipodi.sourceforge.net/DTD/sodipodi-0.dtd"
   xmlns:inkscape="http://www.inkscape.org/namespaces/inkscape"
   fill-opacity="1"
   color-rendering="auto"
   color-interpolation="auto"
   text-rendering="auto"
   stroke="black"
   stroke-linecap="square"
   stroke-miterlimit="10"
   shape-rendering="auto"
   stroke-opacity="1"
   fill="black"
   stroke-dasharray="none"
   font-weight="normal"
   stroke-width="1"
   font-family="'Dialog'"
   font-style="normal"
   stroke-linejoin="miter"
   font-size="12"
   stroke-dashoffset="0"
   image-rendering="auto"
   version="1.1"
   id="svg9"
   sodipodi:docname="hiragana_letter_re.svg"
   inkscape:version="0.92.4 (5da689c313, 2019-01-14)"
   width="100%"
   height="100%"
   viewBox="0 0 100 100"
   preserveAspectRatio="xMidYMid meet"
   >
  <metadata
     id="metadata13">
    <rdf:RDF>
      <cc:Work
         rdf:about="">
        <dc:format>image/svg+xml</dc:format>
        <dc:type
           rdf:resource="http://purl.org/dc/dcmitype/StillImage" />
      </cc:Work>
    </rdf:RDF>
  </metadata>
  <sodipodi:namedview
     pagecolor="#ffffff"
     bordercolor="#666666"
     borderopacity="1"
     objecttolerance="10"
     gridtolerance="10"
     guidetolerance="10"
     inkscape:pageopacity="0"
     inkscape:pageshadow="2"
     inkscape:window-width="1920"
     inkscape:window-height="986"
     id="namedview11"
     showgrid="false"
     inkscape:zoom="2.36"
     inkscape:cx="50"
     inkscape:cy="50"
     inkscape:window-x="-11"
     inkscape:window-y="-11"
     inkscape:window-maximized="1"
     inkscape:current-layer="svg9" />
  <!--Unicode Character 'HIRAGANA LETTER RE' (U+308C)-->
  <defs
     id="genericDefs" />
  <g
     id="g7"
     transform="matrix(0.41597894,0,0,0.4226566,-10.732304,-67.34271)">
    <g
       id="g5">
      <path
         d="m 262.4062,361.6875 q -18.4218,12.375 -35.4374,12.375 -16.7344,0 -25.9454,-10.9687 -9.2109,-10.9688 -9.2109,-30.2344 0,-12.0938 5.9063,-40.6406 6.1874,-29.25 6.1874,-42.0469 0,-9.7031 -4.3593,-15.1875 -4.3594,-5.4844 -12.0938,-5.4844 -25.4531,0 -74.25,51.6094 V 394.1719 H 87.8906 v -84.6563 q -15.1875,17.2969 -36,49.6406 L 30.2344,342.7031 q 20.25,-31.7812 57.6562,-74.1093 V 251.1562 H 38.8125 v -26.0156 h 49.0781 v -62.1562 h 25.3125 v 61.875 q 4.0781,0.9844 6.6094,2.8125 2.5313,1.8281 2.5313,3.5156 0,2.3906 -2.8126,8.4375 l 0.5626,0.5625 q 16.3124,-15.75 35.0859,-26.1563 18.7734,-10.4062 31.9922,-10.4062 18.1406,0 30.0937,13.2188 11.9532,13.2187 11.9532,33.6093 0,13.5 -6.6094,42.4688 -6.0469,26.2969 -6.0469,37.4062 0,17.5781 10.125,17.5781 10.4063,0 35.7187,-16.1718 z"
         id="path3"
         inkscape:connector-curvature="0"
         style="stroke:none" />
    </g>
  </g>
</svg>
