<?xml version="1.0" encoding="UTF-8" standalone="no"?>
<svg
   xmlns:dc="http://purl.org/dc/elements/1.1/"
   xmlns:cc="http://creativecommons.org/ns#"
   xmlns:rdf="http://www.w3.org/1999/02/22-rdf-syntax-ns#"
   xmlns:svg="http://www.w3.org/2000/svg"
   xmlns="http://www.w3.org/2000/svg"
   xmlns:sodipodi="http://sodipodi.sourceforge.net/DTD/sodipodi-0.dtd"
   xmlns:inkscape="http://www.inkscape.org/namespaces/inkscape"
   fill-opacity="1"
   color-rendering="auto"
   color-interpolation="auto"
   text-rendering="auto"
   stroke="black"
   stroke-linecap="square"
   stroke-miterlimit="10"
   shape-rendering="auto"
   stroke-opacity="1"
   fill="black"
   stroke-dasharray="none"
   font-weight="normal"
   stroke-width="1"
   font-family="'Dialog'"
   font-style="normal"
   stroke-linejoin="miter"
   font-size="12"
   stroke-dashoffset="0"
   image-rendering="auto"
   version="1.1"
   id="svg9"
   sodipodi:docname="hiragana_letter_ne.svg"
   inkscape:version="0.92.4 (5da689c313, 2019-01-14)"
   width="100%"
   height="100%"
   viewBox="0 0 100 100"
   preserveAspectRatio="xMidYMid meet"
   >
  <metadata
     id="metadata13">
    <rdf:RDF>
      <cc:Work
         rdf:about="">
        <dc:format>image/svg+xml</dc:format>
        <dc:type
           rdf:resource="http://purl.org/dc/dcmitype/StillImage" />
      </cc:Work>
    </rdf:RDF>
  </metadata>
  <sodipodi:namedview
     pagecolor="#ffffff"
     bordercolor="#666666"
     borderopacity="1"
     objecttolerance="10"
     gridtolerance="10"
     guidetolerance="10"
     inkscape:pageopacity="0"
     inkscape:pageshadow="2"
     inkscape:window-width="1920"
     inkscape:window-height="986"
     id="namedview11"
     showgrid="false"
     inkscape:zoom="2.36"
     inkscape:cx="50"
     inkscape:cy="50"
     inkscape:window-x="-11"
     inkscape:window-y="-11"
     inkscape:window-maximized="1"
     inkscape:current-layer="svg9" />
  <!--Unicode Character 'HIRAGANA LETTER NE' (U+306D)-->
  <defs
     id="genericDefs" />
  <g
     id="g7"
     transform="matrix(0.41505615,0,0,0.41939305,-9.3461509,-66.223805)">
    <g
       id="g5">
      <path
         d="M 260.0156,353.9531 242.4375,375.75 q -9.4219,-8.8594 -27.8437,-24.4688 -7.3126,13.2188 -21.2344,21.0235 -13.9219,7.8047 -29.25,7.8047 -16.5938,0 -28.6875,-10.336 -12.0938,-10.3359 -12.0938,-25.664 0,-16.4532 12.7266,-28.6875 12.7265,-12.2344 30.1641,-12.2344 14.625,0 38.5312,12.0937 9.8438,-18.4218 9.8438,-36.8437 0,-19.125 -9.4922,-29.7422 -9.4922,-10.6172 -24.8204,-10.6172 -29.6718,0 -77.7656,45 V 390.2344 H 77.2031 V 308.3906 Q 58.5,329.0625 47.25,342.1406 L 25.3125,323.4375 Q 41.7656,306.5625 49.5703,297.9141 57.375,289.2656 63,282.2344 q 5.625,-7.0313 9.9141,-13.5 4.289,-6.4688 4.289,-8.1563 V 241.5938 H 31.6406 v -25.875 h 45.5625 v -52.4532 h 25.3125 v 52.1719 q 5.625,0.4219 10.4766,3.3047 4.8516,2.8828 4.8516,6.3984 0,5.7656 -6.6094,16.7344 l 0.5625,0.5625 q 35.5781,-29.9531 67.9219,-29.9531 27.4218,0 43.8046,16.8047 16.3828,16.8047 16.3828,45.3515 0,27.4219 -12.6562,53.8594 12.6562,9 32.7656,25.4531 z m -66.7968,-17.0156 q -14.3438,-8.1563 -28.6876,-8.1563 -6.4687,0 -11.039,3.9376 -4.5703,3.9374 -4.5703,9.1406 0,5.0625 4.7812,8.7187 4.7813,3.6563 11.3907,3.6563 7.875,0 15.8906,-4.9219 8.0156,-4.9219 12.2344,-12.375 z"
         id="path3"
         inkscape:connector-curvature="0"
         style="stroke:none" />
    </g>
  </g>
</svg>
