<?xml version="1.0" encoding="UTF-8" standalone="no"?>
<svg
   xmlns:dc="http://purl.org/dc/elements/1.1/"
   xmlns:cc="http://creativecommons.org/ns#"
   xmlns:rdf="http://www.w3.org/1999/02/22-rdf-syntax-ns#"
   xmlns:svg="http://www.w3.org/2000/svg"
   xmlns="http://www.w3.org/2000/svg"
   xmlns:sodipodi="http://sodipodi.sourceforge.net/DTD/sodipodi-0.dtd"
   xmlns:inkscape="http://www.inkscape.org/namespaces/inkscape"
   fill-opacity="1"
   color-rendering="auto"
   color-interpolation="auto"
   text-rendering="auto"
   stroke="black"
   stroke-linecap="square"
   stroke-miterlimit="10"
   shape-rendering="auto"
   stroke-opacity="1"
   fill="black"
   stroke-dasharray="none"
   font-weight="normal"
   stroke-width="1"
   font-family="'Dialog'"
   font-style="normal"
   stroke-linejoin="miter"
   font-size="12"
   stroke-dashoffset="0"
   image-rendering="auto"
   version="1.1"
   id="svg9"
   sodipodi:docname="hiragana_letter_ta.svg"
   inkscape:version="0.92.4 (5da689c313, 2019-01-14)"
   width="100%"
   height="100%"
   viewBox="0 0 100 100"
   preserveAspectRatio="xMidYMid meet"
   >
  <metadata
     id="metadata13">
    <rdf:RDF>
      <cc:Work
         rdf:about="">
        <dc:format>image/svg+xml</dc:format>
        <dc:type
           rdf:resource="http://purl.org/dc/dcmitype/StillImage" />
      </cc:Work>
    </rdf:RDF>
  </metadata>
  <sodipodi:namedview
     pagecolor="#ffffff"
     bordercolor="#666666"
     borderopacity="1"
     objecttolerance="10"
     gridtolerance="10"
     guidetolerance="10"
     inkscape:pageopacity="0"
     inkscape:pageshadow="2"
     inkscape:window-width="1920"
     inkscape:window-height="986"
     id="namedview11"
     showgrid="false"
     inkscape:zoom="2.36"
     inkscape:cx="50"
     inkscape:cy="50"
     inkscape:window-x="-11"
     inkscape:window-y="-11"
     inkscape:window-maximized="1"
     inkscape:current-layer="svg9" />
  <!--Unicode Character 'HIRAGANA LETTER TA' (U+305F)-->
  <defs
     id="genericDefs" />
  <g
     id="g7"
     transform="matrix(0.40508957,0,0,0.41908003,-8.4006954,-64.243382)">
    <g
       id="g5">
      <path
         d="m 173.1094,219.9375 q -36.9844,6.4687 -55.2656,7.0313 -24.1876,101.25 -56.5313,156.9374 l -27,-12.6562 q 28.4063,-31.5 56.9531,-142.5938 -21.2344,1.4063 -39.9375,1.4063 l -4.6406,-28.2656 q 15.75,1.8281 50.0625,1.8281 4.7812,-23.9062 7.1719,-47.25 l 26.8593,5.7656 q -1.6874,19.5469 -6.6093,39.375 20.5312,-2.1094 45.4219,-7.1718 z m 74.25,17.0156 -6.8906,26.8594 q -24.75,-9 -54.7032,-9 -19.8281,0 -33.4687,3.2344 l 6.0469,-27.1407 q 14.3437,-1.4062 27.4218,-1.4062 27.8438,0 61.5938,7.4531 z m 6.3281,151.7344 q -35.0156,1.8281 -54.4219,1.8281 -24.3281,0 -41.4844,-2.1094 -17.1562,-2.1093 -25.2421,-4.289 -8.086,-2.1797 -13.4297,-9.6328 -5.3438,-7.4532 -5.3438,-15.0469 0,-18.7031 14.3438,-48.375 l 27.9844,6.3281 q -17.0157,24.3282 -17.0157,34.1719 0,4.6406 3.2344,7.1016 3.2344,2.4609 17.3672,4.5 14.1328,2.039 32.6953,2.039 21.6562,0 61.3125,-4.6406 z"
         id="path3"
         inkscape:connector-curvature="0"
         style="stroke:none" />
    </g>
  </g>
</svg>
