<?xml version="1.0" encoding="UTF-8" standalone="no"?>
<svg
   xmlns:dc="http://purl.org/dc/elements/1.1/"
   xmlns:cc="http://creativecommons.org/ns#"
   xmlns:rdf="http://www.w3.org/1999/02/22-rdf-syntax-ns#"
   xmlns:svg="http://www.w3.org/2000/svg"
   xmlns="http://www.w3.org/2000/svg"
   xmlns:sodipodi="http://sodipodi.sourceforge.net/DTD/sodipodi-0.dtd"
   xmlns:inkscape="http://www.inkscape.org/namespaces/inkscape"
   fill-opacity="1"
   color-rendering="auto"
   color-interpolation="auto"
   text-rendering="auto"
   stroke="black"
   stroke-linecap="square"
   stroke-miterlimit="10"
   shape-rendering="auto"
   stroke-opacity="1"
   fill="black"
   stroke-dasharray="none"
   font-weight="normal"
   stroke-width="1"
   font-family="'Dialog'"
   font-style="normal"
   stroke-linejoin="miter"
   font-size="12"
   stroke-dashoffset="0"
   image-rendering="auto"
   version="1.1"
   id="svg9"
   sodipodi:docname="hiragana_letter_nu.svg"
   inkscape:version="0.92.4 (5da689c313, 2019-01-14)"
   width="100%"
   height="100%"
   viewBox="0 0 100 100"
   preserveAspectRatio="xMidYMid meet"
   >
  <metadata
     id="metadata13">
    <rdf:RDF>
      <cc:Work
         rdf:about="">
        <dc:format>image/svg+xml</dc:format>
        <dc:type
           rdf:resource="http://purl.org/dc/dcmitype/StillImage" />
      </cc:Work>
    </rdf:RDF>
  </metadata>
  <sodipodi:namedview
     pagecolor="#ffffff"
     bordercolor="#666666"
     borderopacity="1"
     objecttolerance="10"
     gridtolerance="10"
     guidetolerance="10"
     inkscape:pageopacity="0"
     inkscape:pageshadow="2"
     inkscape:window-width="1920"
     inkscape:window-height="986"
     id="namedview11"
     showgrid="false"
     inkscape:zoom="2.36"
     inkscape:cx="50"
     inkscape:cy="50"
     inkscape:window-x="-11"
     inkscape:window-y="-11"
     inkscape:window-maximized="1"
     inkscape:current-layer="svg9" />
  <!--Unicode Character 'HIRAGANA LETTER NU' (U+306C)-->
  <defs
     id="genericDefs" />
  <g
     id="g7"
     transform="matrix(0.41639031,0,0,0.40632447,-10.744741,-61.862777)">
    <g
       id="g5">
      <path
         d="m 261.8438,351.8438 -20.25,21.375 q -11.5313,-13.9219 -22.3594,-20.8126 -10.6875,15.75 -25.4532,25.4532 -14.7656,9.7031 -28.6874,9.7031 -15.0469,0 -23.836,-9.2109 -8.789,-9.211 -8.789,-23.836 0,-19.125 12.6562,-31.5 12.6562,-12.375 30.5156,-12.375 13.9219,0 32.9063,6.75 8.8593,-18 8.8593,-39.2344 0,-15.8906 -16.0312,-26.789 -16.0312,-10.8984 -35.4375,-10.8984 l -7.5937,0.2812 q -38.9532,141.3281 -87.1876,141.3281 -18.1406,0 -29.5312,-14.8359 -11.3906,-14.836 -11.3906,-37.7578 0,-22.5 9.0703,-44.8594 9.0703,-22.3594 24.6797,-34.4531 -14.2032,-37.2657 -23.0625,-71.0157 l 27.8437,-8.4374 q 3.6563,30.6562 16.4532,65.1093 27.2812,-14.3437 51.6093,-18.7031 5.4844,-20.5312 11.5313,-56.5312 l 27.5625,6.4687 q -3.7969,22.9219 -10.5469,47.1094 32.625,0 55.3359,18.1406 22.711,18.1406 22.711,46.4063 0,22.5 -11.8125,49.7812 16.3125,9.8438 30.2344,23.3438 z M 129.375,245.6719 q -16.0312,4.0781 -33.4688,15.1875 6.75,19.5468 15.3282,36.2812 7.875,-19.4062 18.1406,-51.4687 z M 97.0312,326.25 q -16.5937,-31.5 -23.3437,-49.2188 -7.4531,7.7344 -12.5156,22.5 -5.0625,14.7657 -5.0625,29.25 0,10.2657 4.0781,18.1407 4.0781,7.875 10.125,7.875 11.9531,0 26.7187,-28.5469 z m 97.0313,14.3438 q -9.1406,-3.9376 -16.5937,-3.9376 -7.1719,0 -13.1485,5.3438 -5.9765,5.3438 -5.9765,12.7969 0,7.1719 7.0312,7.1719 6.3281,0 14.4141,-6.1172 8.0859,-6.1172 14.2734,-15.2578 z"
         id="path3"
         inkscape:connector-curvature="0"
         style="stroke:none" />
    </g>
  </g>
</svg>
