<?xml version="1.0" encoding="UTF-8" standalone="no"?>
<svg
   xmlns:dc="http://purl.org/dc/elements/1.1/"
   xmlns:cc="http://creativecommons.org/ns#"
   xmlns:rdf="http://www.w3.org/1999/02/22-rdf-syntax-ns#"
   xmlns:svg="http://www.w3.org/2000/svg"
   xmlns="http://www.w3.org/2000/svg"
   xmlns:sodipodi="http://sodipodi.sourceforge.net/DTD/sodipodi-0.dtd"
   xmlns:inkscape="http://www.inkscape.org/namespaces/inkscape"
   fill-opacity="1"
   color-rendering="auto"
   color-interpolation="auto"
   text-rendering="auto"
   stroke="black"
   stroke-linecap="square"
   stroke-miterlimit="10"
   shape-rendering="auto"
   stroke-opacity="1"
   fill="black"
   stroke-dasharray="none"
   font-weight="normal"
   stroke-width="1"
   font-family="'Dialog'"
   font-style="normal"
   stroke-linejoin="miter"
   font-size="12"
   stroke-dashoffset="0"
   image-rendering="auto"
   version="1.1"
   id="svg9"
   sodipodi:docname="hiragana_letter_mi.svg"
   inkscape:version="0.92.4 (5da689c313, 2019-01-14)">
  <metadata
     id="metadata13">
    <rdf:RDF>
      <cc:Work
         rdf:about="">
        <dc:format>image/svg+xml</dc:format>
        <dc:type
           rdf:resource="http://purl.org/dc/dcmitype/StillImage" />
      </cc:Work>
    </rdf:RDF>
  </metadata>
  <sodipodi:namedview
     pagecolor="#ffffff"
     bordercolor="#666666"
     borderopacity="1"
     objecttolerance="10"
     gridtolerance="10"
     guidetolerance="10"
     inkscape:pageopacity="0"
     inkscape:pageshadow="2"
     inkscape:window-width="1920"
     inkscape:window-height="986"
     id="namedview11"
     showgrid="false"
     inkscape:zoom="2.36"
     inkscape:cx="50"
     inkscape:cy="50"
     inkscape:window-x="-11"
     inkscape:window-y="-11"
     inkscape:window-maximized="1"
     inkscape:current-layer="svg9" />
  <!--Unicode Character 'HIRAGANA LETTER MI' (U+307F)-->
  <defs
     id="genericDefs" />
  <g
     id="g7"
     transform="matrix(0.43086449,0,0,0.41527074,-12.04402,-66.657473)">
    <g
       id="g5">
      <path
         d="m 255.7969,341.5781 -16.4531,23.9063 Q 218.3906,347.2031 201.6562,334.9688 186.0469,369 162.4219,395.4375 l -22.2188,-15.8906 q 24.75,-23.7657 39.7969,-57.9375 -26.5781,-17.4375 -46.4062,-26.7188 -18.1407,48.5156 -32.1329,63.2813 -13.9921,14.7656 -29.7421,14.7656 -17.2969,0 -27.9141,-14.7656 Q 33.1875,343.4062 33.1875,324 q 0,-28.4062 18.1406,-46.8984 18.1407,-18.4922 46.5469,-18.4922 11.3906,0 19.6875,2.8125 11.6719,-37.6875 17.5781,-68.2031 -35.5781,2.5312 -68.0625,2.5312 l -3.9375,-27.8438 q 9,0.5626 31.9219,0.5626 28.9687,0 61.0313,-4.9219 l 9.2812,8.2969 q -7.4531,43.1718 -23.3438,97.4531 25.1719,11.9531 48.9376,26.4375 10.6874,-27.5625 15.75,-51.8906 l 24.8906,8.7187 q -9.5625,33.8906 -19.4063,57.5156 24.1875,15.3281 43.5938,31.5 z M 108.2812,285.8906 q -6.0468,-1.6875 -11.5312,-1.6875 -16.0312,0 -27,10.8281 -10.9688,10.8282 -10.9688,27.7032 0,9.7031 3.7266,16.5234 3.7266,6.8203 9.4922,6.8203 7.3125,0 17.2266,-16.5937 9.914,-16.5938 19.0546,-43.5938 z"
         id="path3"
         inkscape:connector-curvature="0"
         style="stroke:none" />
    </g>
  </g>
</svg>
