<?xml version="1.0" encoding="UTF-8" standalone="no"?>
<svg
   xmlns:dc="http://purl.org/dc/elements/1.1/"
   xmlns:cc="http://creativecommons.org/ns#"
   xmlns:rdf="http://www.w3.org/1999/02/22-rdf-syntax-ns#"
   xmlns:svg="http://www.w3.org/2000/svg"
   xmlns="http://www.w3.org/2000/svg"
   xmlns:sodipodi="http://sodipodi.sourceforge.net/DTD/sodipodi-0.dtd"
   xmlns:inkscape="http://www.inkscape.org/namespaces/inkscape"
   fill-opacity="1"
   color-rendering="auto"
   color-interpolation="auto"
   text-rendering="auto"
   stroke="black"
   stroke-linecap="square"
   stroke-miterlimit="10"
   shape-rendering="auto"
   stroke-opacity="1"
   fill="black"
   stroke-dasharray="none"
   font-weight="normal"
   stroke-width="1"
   font-family="'Dialog'"
   font-style="normal"
   stroke-linejoin="miter"
   font-size="12"
   stroke-dashoffset="0"
   image-rendering="auto"
   version="1.1"
   id="svg9"
   sodipodi:docname="hiragana_letter_ra.svg"
   inkscape:version="0.92.4 (5da689c313, 2019-01-14)"
   width="100%"
   height="100%"
   viewBox="0 0 100 100"
   preserveAspectRatio="xMidYMid meet"
   >
  <metadata
     id="metadata13">
    <rdf:RDF>
      <cc:Work
         rdf:about="">
        <dc:format>image/svg+xml</dc:format>
        <dc:type
           rdf:resource="http://purl.org/dc/dcmitype/StillImage" />
      </cc:Work>
    </rdf:RDF>
  </metadata>
  <sodipodi:namedview
     pagecolor="#ffffff"
     bordercolor="#666666"
     borderopacity="1"
     objecttolerance="10"
     gridtolerance="10"
     guidetolerance="10"
     inkscape:pageopacity="0"
     inkscape:pageshadow="2"
     inkscape:window-width="1920"
     inkscape:window-height="986"
     id="namedview11"
     showgrid="false"
     inkscape:zoom="2.36"
     inkscape:cx="50"
     inkscape:cy="50"
     inkscape:window-x="-11"
     inkscape:window-y="-11"
     inkscape:window-maximized="1"
     inkscape:current-layer="svg9" />
  <!--Unicode Character 'HIRAGANA LETTER RA' (U+3089)-->
  <defs
     id="genericDefs" />
  <g
     id="g7"
     transform="matrix(0.44678127,0,0,0.42395037,-11.795816,-67.254475)">
    <g
       id="g5">
      <path
         d="m 210.7969,200.3906 -13.5,23.3438 q -28.8281,-21.9375 -82.6875,-38.25 l 13.7812,-24.1875 q 49.6406,18 82.4063,39.0937 z M 77.4844,276.4688 q 37.9687,-15.8907 76.0781,-15.8907 35.0156,0 58.3594,16.7344 23.3437,16.7344 23.3437,45.8437 0,29.8126 -22.1484,48.7266 -22.1484,18.9141 -57.8672,18.9141 -36.7031,0 -90.1406,-12.6563 l 2.25,-30.7968 q 40.0781,12.2343 56.3906,15.0468 16.3125,2.8125 28.5469,2.8125 57.0937,0 57.0937,-43.3125 0,-16.7344 -16.3828,-26.2265 -16.3828,-9.4922 -40.7109,-9.4922 -39.9375,0 -89.5781,26.5781 L 41.4844,295.4531 Q 65.25,234.8438 86.625,199.2656 l 24.8906,12.6563 Q 96.75,230.2031 77.4844,276.4688 Z"
         id="path3"
         inkscape:connector-curvature="0"
         style="stroke:none" />
    </g>
  </g>
</svg>
