<?xml version="1.0" encoding="UTF-8" standalone="no"?>
<svg
   xmlns:dc="http://purl.org/dc/elements/1.1/"
   xmlns:cc="http://creativecommons.org/ns#"
   xmlns:rdf="http://www.w3.org/1999/02/22-rdf-syntax-ns#"
   xmlns:svg="http://www.w3.org/2000/svg"
   xmlns="http://www.w3.org/2000/svg"
   xmlns:sodipodi="http://sodipodi.sourceforge.net/DTD/sodipodi-0.dtd"
   xmlns:inkscape="http://www.inkscape.org/namespaces/inkscape"
   fill-opacity="1"
   color-rendering="auto"
   color-interpolation="auto"
   text-rendering="auto"
   stroke="black"
   stroke-linecap="square"
   stroke-miterlimit="10"
   shape-rendering="auto"
   stroke-opacity="1"
   fill="black"
   stroke-dasharray="none"
   font-weight="normal"
   stroke-width="1"
   font-family="'Dialog'"
   font-style="normal"
   stroke-linejoin="miter"
   font-size="12"
   stroke-dashoffset="0"
   image-rendering="auto"
   version="1.1"
   id="svg9"
   sodipodi:docname="hiragana_letter_mu.svg"
   inkscape:version="0.92.4 (5da689c313, 2019-01-14)">
  <metadata
     id="metadata13">
    <rdf:RDF>
      <cc:Work
         rdf:about="">
        <dc:format>image/svg+xml</dc:format>
        <dc:type
           rdf:resource="http://purl.org/dc/dcmitype/StillImage" />
      </cc:Work>
    </rdf:RDF>
  </metadata>
  <sodipodi:namedview
     pagecolor="#ffffff"
     bordercolor="#666666"
     borderopacity="1"
     objecttolerance="10"
     gridtolerance="10"
     guidetolerance="10"
     inkscape:pageopacity="0"
     inkscape:pageshadow="2"
     inkscape:window-width="1920"
     inkscape:window-height="986"
     id="namedview11"
     showgrid="false"
     inkscape:zoom="2.36"
     inkscape:cx="50"
     inkscape:cy="50"
     inkscape:window-x="-11"
     inkscape:window-y="-11"
     inkscape:window-maximized="1"
     inkscape:current-layer="svg9" />
  <!--Unicode Character 'HIRAGANA LETTER MU' (U+3080)-->
  <defs
     id="genericDefs" />
  <g
     id="g7"
     transform="matrix(0.43338669,0,0,0.41962933,-13.713937,-65.142091)">
    <g
       id="g5">
      <path
         d="m 242.8594,302.625 q 3.2344,18.5625 3.2344,33.1875 0,12.2344 -3.9376,23.5547 -3.9374,11.3203 -11.9531,17.4375 -8.0156,6.1172 -33.4687,10.0547 -25.4532,3.9375 -54,3.9375 -30.6563,0 -44.6485,-4.9219 -13.9921,-4.9219 -23.6953,-15.9609 -9.7031,-11.0391 -9.7031,-29.6016 0,-11.8125 4.2187,-20.1094 -14.2031,-1.125 -24.1171,-13.4297 -9.9141,-12.3046 -9.9141,-23.6953 0,-19.2656 14.4141,-31.6406 14.414,-12.375 31.7109,-12.375 7.4531,0 13.0781,3.0937 0.8438,-2.9531 0.8438,-12.375 -22.3594,0 -57.0938,-4.3593 l 2.3907,-27.5625 q 20.8124,6.0468 54.7031,6.0468 0,-27.2812 -2.6719,-45.2812 l 28.8281,1.9688 q 0.5625,11.25 0.5625,42.75 14.0625,0 40.3594,-3.5157 v 26.7188 Q 140.2031,229.5 121.6406,229.5 l -3.375,42.0469 0.5625,7.1719 q 0,6.3281 -2.9531,14.0624 -2.9531,7.7344 -13.7812,22.7813 -4.3594,6.1875 -6.961,13.8516 -2.6016,7.664 -2.6016,13.289 0,15.3281 18.7032,19.0547 18.7031,3.7266 34.5937,3.7266 24.0469,0 45.7031,-3.1641 21.6563,-3.1641 25.4532,-8.7891 3.7968,-5.625 3.7968,-16.3124 0,-17.0157 -8.1562,-40.3594 z m -169.875,-8.5781 q 4.7812,0 10.8984,-5.7657 Q 90,282.5156 90,275.625 q 0,-8.7188 -10.6875,-8.7188 -7.7344,0 -13.0781,4.7813 -5.3438,4.7813 -5.3438,10.2656 0,5.0625 3.4453,8.5781 3.4453,3.5157 8.6485,3.5157 z M 260.7188,254.25 239.2031,270.7031 Q 220.9219,232.875 191.6719,213.0469 l 20.9531,-17.5781 q 35.2969,33.75 48.0938,58.7812 z"
         id="path3"
         inkscape:connector-curvature="0"
         style="stroke:none" />
    </g>
  </g>
</svg>
