<?xml version="1.0" encoding="UTF-8" standalone="no"?>
<svg
   xmlns:dc="http://purl.org/dc/elements/1.1/"
   xmlns:cc="http://creativecommons.org/ns#"
   xmlns:rdf="http://www.w3.org/1999/02/22-rdf-syntax-ns#"
   xmlns:svg="http://www.w3.org/2000/svg"
   xmlns="http://www.w3.org/2000/svg"
   xmlns:sodipodi="http://sodipodi.sourceforge.net/DTD/sodipodi-0.dtd"
   xmlns:inkscape="http://www.inkscape.org/namespaces/inkscape"
   fill-opacity="1"
   color-rendering="auto"
   color-interpolation="auto"
   text-rendering="auto"
   stroke="black"
   stroke-linecap="square"
   stroke-miterlimit="10"
   shape-rendering="auto"
   stroke-opacity="1"
   fill="black"
   stroke-dasharray="none"
   font-weight="normal"
   stroke-width="1"
   font-family="'Dialog'"
   font-style="normal"
   stroke-linejoin="miter"
   font-size="12"
   stroke-dashoffset="0"
   image-rendering="auto"
   version="1.1"
   id="svg9"
   sodipodi:docname="hiragana_letter_o.svg"
   inkscape:version="0.92.4 (5da689c313, 2019-01-14)"
   width="100%"
   height="100%"
   viewBox="0 0 100 100"
   preserveAspectRatio="xMidYMid meet"
   >
  <metadata
     id="metadata13">
    <rdf:RDF>
      <cc:Work
         rdf:about="">
        <dc:format>image/svg+xml</dc:format>
        <dc:type
           rdf:resource="http://purl.org/dc/dcmitype/StillImage" />
      </cc:Work>
    </rdf:RDF>
  </metadata>
  <sodipodi:namedview
     pagecolor="#ffffff"
     bordercolor="#666666"
     borderopacity="1"
     objecttolerance="10"
     gridtolerance="10"
     guidetolerance="10"
     inkscape:pageopacity="0"
     inkscape:pageshadow="2"
     inkscape:window-width="1920"
     inkscape:window-height="986"
     id="namedview11"
     showgrid="false"
     inkscape:zoom="2.36"
     inkscape:cx="50"
     inkscape:cy="50"
     inkscape:window-x="-11"
     inkscape:window-y="-11"
     inkscape:window-maximized="1"
     inkscape:current-layer="svg9" />
  <!--Unicode Character 'HIRAGANA LETTER O' (U+304A)-->
  <defs
     id="genericDefs" />
  <g
     id="g7"
     transform="matrix(0.43599401,0,0,0.41921138,-10.542169,-64.948062)">
    <g
       id="g5">
      <path
         d="m 116.2969,247.3594 q 18.9843,-3.7969 39.5156,-3.7969 42.1875,0 67.5703,19.8984 25.3828,19.8985 25.3828,55.8985 0,30.0937 -16.664,49.4297 -16.6641,19.3359 -42.2578,19.3359 -38.5313,0 -51.3282,-47.8125 l 26.8594,-9.1406 q 6.0469,30.2343 25.0312,30.2343 14.3438,0 23.4141,-12.375 9.0703,-12.375 9.0703,-30.5156 0,-47.25 -67.0781,-47.25 -19.9687,0 -39.5156,5.2032 v 67.9218 q 0,21.6563 -8.9297,33.3282 -8.9297,11.6718 -25.2422,11.6718 -21.0938,0 -36.9141,-18.3515 -15.8203,-18.3516 -15.8203,-41.2735 0,-21.6562 18.0703,-43.3828 18.0703,-21.7266 43.8047,-31.5703 v -25.0313 q -23.625,2.9532 -50.625,4.9219 L 35.4375,207 q 4.0781,0.2812 12.9375,0.2812 18.8438,0 42.8906,-3.0937 v -47.5313 h 25.0313 v 44.5782 Q 139.3594,198 157.7812,191.8125 l 3.5157,28.125 q -22.5,4.5 -45,7.0313 z m -25.0313,92.9531 v -56.1094 q -15.4687,6.75 -25.875,19.4766 -10.4062,12.7265 -10.4062,26.3672 0,12.2343 7.9453,22.3593 7.9453,10.125 19.1953,10.125 9.1406,0 9.1406,-22.2187 z m 156.0938,-114.6094 -22.5,17.0157 q -18.7032,-31.5 -58.6406,-52.7344 l 23.9062,-17.2969 q 29.9531,20.25 57.2344,53.0156 z"
         id="path3"
         inkscape:connector-curvature="0"
         style="stroke:none" />
    </g>
  </g>
</svg>
