<?xml version="1.0" encoding="UTF-8" standalone="no"?>
<svg
   xmlns:dc="http://purl.org/dc/elements/1.1/"
   xmlns:cc="http://creativecommons.org/ns#"
   xmlns:rdf="http://www.w3.org/1999/02/22-rdf-syntax-ns#"
   xmlns:svg="http://www.w3.org/2000/svg"
   xmlns="http://www.w3.org/2000/svg"
   xmlns:sodipodi="http://sodipodi.sourceforge.net/DTD/sodipodi-0.dtd"
   xmlns:inkscape="http://www.inkscape.org/namespaces/inkscape"
   fill-opacity="1"
   color-rendering="auto"
   color-interpolation="auto"
   text-rendering="auto"
   stroke="black"
   stroke-linecap="square"
   stroke-miterlimit="10"
   shape-rendering="auto"
   stroke-opacity="1"
   fill="black"
   stroke-dasharray="none"
   font-weight="normal"
   stroke-width="1"
   font-family="'Dialog'"
   font-style="normal"
   stroke-linejoin="miter"
   font-size="12"
   stroke-dashoffset="0"
   image-rendering="auto"
   version="1.1"
   id="svg9"
   sodipodi:docname="hiragana_letter_ki.svg"
   inkscape:version="0.92.4 (5da689c313, 2019-01-14)"
   width="100%"
   height="100%"
   viewBox="0 0 100 100"
   preserveAspectRatio="xMidYMid meet"
   >
  <metadata
     id="metadata13">
    <rdf:RDF>
      <cc:Work
         rdf:about="">
        <dc:format>image/svg+xml</dc:format>
        <dc:type
           rdf:resource="http://purl.org/dc/dcmitype/StillImage" />
      </cc:Work>
    </rdf:RDF>
  </metadata>
  <sodipodi:namedview
     pagecolor="#ffffff"
     bordercolor="#666666"
     borderopacity="1"
     objecttolerance="10"
     gridtolerance="10"
     guidetolerance="10"
     inkscape:pageopacity="0"
     inkscape:pageshadow="2"
     inkscape:window-width="1920"
     inkscape:window-height="986"
     id="namedview11"
     showgrid="false"
     inkscape:zoom="2.36"
     inkscape:cx="50"
     inkscape:cy="50"
     inkscape:window-x="-11"
     inkscape:window-y="-11"
     inkscape:window-maximized="1"
     inkscape:current-layer="svg9" />
  <!--Unicode Character 'HIRAGANA LETTER KI' (U+304D)-->
  <defs
     id="genericDefs" />
  <g
     id="g7"
     transform="matrix(0.47269303,0,0,0.40050948,-12.913122,-59.970642)">
    <g
       id="g5">
      <path
         d="M 236.6719,235.8281 176.4844,252 q 7.875,13.9219 33.75,49.5 l -19.8282,13.2188 Q 153,307.2656 128.6719,307.2656 q -23.4844,0 -38.6719,7.5235 -15.1875,7.5234 -15.1875,19.7578 0,15.75 17.4375,25.4531 17.4375,9.7031 47.3906,9.7031 31.3594,0 70.5938,-14.625 l 10.4062,26.1563 q -41.7656,13.5 -81.5625,13.5 -40.9219,0 -65.6719,-16.1016 -24.75,-16.1016 -24.75,-43.664 0,-25.4532 23.3438,-39.2344 23.3438,-13.7813 56.3906,-13.7813 20.6719,0 38.1094,1.6875 l -15.8906,-25.0312 q -18,2.8125 -56.8125,10.3359 Q 54.9844,276.4688 38.5312,279 l -9.9843,-28.5469 q 58.5,-4.2187 108.5625,-15.75 L 126.1406,215.7188 Q 78.4688,226.2656 50.625,228.9375 l -8.2969,-27.1406 q 32.9063,-2.3907 71.7188,-10.2657 -5.2031,-10.9687 -10.9688,-30.2343 l 26.8594,-9 q 3.5156,17.1562 10.2656,33.1875 32.7657,-7.4532 55.9688,-19.6875 l 12.0937,25.4531 q -30.5156,11.5312 -57.0937,18.1406 l 11.25,19.5469 q 41.0625,-9.1406 61.5937,-18.9844 z"
         id="path3"
         inkscape:connector-curvature="0"
         style="stroke:none" />
    </g>
  </g>
</svg>
