<?xml version="1.0" encoding="UTF-8" standalone="no"?>
<svg
   xmlns:dc="http://purl.org/dc/elements/1.1/"
   xmlns:cc="http://creativecommons.org/ns#"
   xmlns:rdf="http://www.w3.org/1999/02/22-rdf-syntax-ns#"
   xmlns:svg="http://www.w3.org/2000/svg"
   xmlns="http://www.w3.org/2000/svg"
   xmlns:sodipodi="http://sodipodi.sourceforge.net/DTD/sodipodi-0.dtd"
   xmlns:inkscape="http://www.inkscape.org/namespaces/inkscape"
   fill-opacity="1"
   color-rendering="auto"
   color-interpolation="auto"
   text-rendering="auto"
   stroke="black"
   stroke-linecap="square"
   stroke-miterlimit="10"
   shape-rendering="auto"
   stroke-opacity="1"
   fill="black"
   stroke-dasharray="none"
   font-weight="normal"
   stroke-width="1"
   font-family="'Dialog'"
   font-style="normal"
   stroke-linejoin="miter"
   font-size="12"
   stroke-dashoffset="0"
   image-rendering="auto"
   version="1.1"
   id="svg9"
   sodipodi:docname="hiragana_letter_a.svg"
   inkscape:version="0.92.4 (5da689c313, 2019-01-14)">
  <metadata
     id="metadata13">
    <rdf:RDF>
      <cc:Work
         rdf:about="">
        <dc:format>image/svg+xml</dc:format>
        <dc:type
           rdf:resource="http://purl.org/dc/dcmitype/StillImage" />
      </cc:Work>
    </rdf:RDF>
  </metadata>
  <sodipodi:namedview
     pagecolor="#ffffff"
     bordercolor="#666666"
     borderopacity="1"
     objecttolerance="10"
     gridtolerance="10"
     guidetolerance="10"
     inkscape:pageopacity="0"
     inkscape:pageshadow="2"
     inkscape:window-width="1920"
     inkscape:window-height="986"
     id="namedview11"
     showgrid="false"
     inkscape:zoom="2.36"
     inkscape:cx="50"
     inkscape:cy="50"
     inkscape:window-x="-11"
     inkscape:window-y="-11"
     inkscape:window-maximized="1"
     inkscape:current-layer="svg9" />
  <!--Unicode Character 'HIRAGANA LETTER A' (U+3042)-->
  <defs
     id="genericDefs" />
  <g
     id="g7"
     transform="matrix(0.45782209,0,0,0.40856241,-14.591065,-64.93882)">
    <g
       id="g5">
      <path
         d="M 129.9375,246.5156 Q 140.4844,243 161.2969,243 q 35.5781,0 62.0156,20.8828 26.4375,20.8828 26.4375,52.5234 0,25.5938 -21.0234,49.4297 -21.0235,23.836 -54.4922,37.336 l -14.9063,-24.75 q 64.4063,-25.7344 64.4063,-59.9063 0,-14.3437 -9,-26.3672 -9,-12.0234 -23.4844,-16.8046 -18.4219,53.7187 -47.8125,78.0468 2.3906,8.0156 7.1719,15.75 l -25.5938,10.9688 -4.0781,-10.4063 q -18.8437,12.0938 -42.0469,12.0938 -19.5468,0 -32.9765,-13.4297 -13.4297,-13.4297 -13.4297,-34.3828 0,-27.2813 19.4765,-49.2188 19.4766,-21.9375 51.961,-32.7656 -0.2813,-9.5625 -0.2813,-29.3906 l -55.2656,6.6094 -3.0938,-25.875 58.6407,-7.0313 2.1093,-35.2969 27.5626,1.6875 q -1.8282,10.4063 -3.375,29.9531 l 84.9374,-10.125 3.6563,26.1563 -89.4375,11.5313 z m 35.1563,23.9063 q -1.9688,-0.2813 -6.4688,-0.2813 -14.2031,0 -27,2.5313 2.3906,31.0781 5.2031,50.0625 14.2031,-14.4844 28.2657,-52.3125 z m -51.3282,72.8437 Q 107.0156,306.4219 105.75,278.4375 85.5,285.75 72,300.6562 q -13.5,14.9063 -13.5,31.3594 0,9.8438 6.75,16.1719 6.75,6.3281 17.4375,6.3281 13.3594,0 31.0781,-11.25 z"
         id="path3"
         inkscape:connector-curvature="0"
         style="stroke:none" />
    </g>
  </g>
</svg>
