<?xml version="1.0" encoding="UTF-8" standalone="no"?>
<svg
   xmlns:dc="http://purl.org/dc/elements/1.1/"
   xmlns:cc="http://creativecommons.org/ns#"
   xmlns:rdf="http://www.w3.org/1999/02/22-rdf-syntax-ns#"
   xmlns:svg="http://www.w3.org/2000/svg"
   xmlns="http://www.w3.org/2000/svg"
   xmlns:sodipodi="http://sodipodi.sourceforge.net/DTD/sodipodi-0.dtd"
   xmlns:inkscape="http://www.inkscape.org/namespaces/inkscape"
   fill-opacity="1"
   color-rendering="auto"
   color-interpolation="auto"
   text-rendering="auto"
   stroke="black"
   stroke-linecap="square"
   stroke-miterlimit="10"
   shape-rendering="auto"
   stroke-opacity="1"
   fill="black"
   stroke-dasharray="none"
   font-weight="normal"
   stroke-width="1"
   font-family="'Dialog'"
   font-style="normal"
   stroke-linejoin="miter"
   font-size="12"
   stroke-dashoffset="0"
   image-rendering="auto"
   version="1.1"
   id="svg9"
   sodipodi:docname="hiragana_letter_hu.svg"
   inkscape:version="0.92.4 (5da689c313, 2019-01-14)">
  <metadata
     id="metadata13">
    <rdf:RDF>
      <cc:Work
         rdf:about="">
        <dc:format>image/svg+xml</dc:format>
        <dc:type
           rdf:resource="http://purl.org/dc/dcmitype/StillImage" />
      </cc:Work>
    </rdf:RDF>
  </metadata>
  <sodipodi:namedview
     pagecolor="#ffffff"
     bordercolor="#666666"
     borderopacity="1"
     objecttolerance="10"
     gridtolerance="10"
     guidetolerance="10"
     inkscape:pageopacity="0"
     inkscape:pageshadow="2"
     inkscape:window-width="1920"
     inkscape:window-height="986"
     id="namedview11"
     showgrid="false"
     inkscape:zoom="2.36"
     inkscape:cx="50"
     inkscape:cy="50"
     inkscape:window-x="-11"
     inkscape:window-y="-11"
     inkscape:window-maximized="1"
     inkscape:current-layer="svg9" />
  <!--Unicode Character 'HIRAGANA LETTER HU' (U+3075)-->
  <defs
     id="genericDefs" />
  <g
     id="g7"
     transform="matrix(0.39978496,0,0,0.4100465,-7.6781667,-64.502474)">
    <g
       id="g5">
      <path
         d="m 194.0625,187.1719 -8.5781,26.7187 q -32.625,-17.7187 -76.9219,-19.2656 l 6.6094,-26.7188 q 43.4531,4.2188 78.8906,19.2657 z m -38.5313,35.4375 q -5.4843,11.9531 -5.4843,20.1094 0,5.625 3.0937,12.9374 3.0938,7.3126 15.75,24.6094 17.5782,24.0469 22.4297,37.2656 4.8516,13.2188 4.8516,24.6094 0,19.5469 -13.0781,32.9063 -13.0782,13.3593 -34.4532,13.3593 -17.8594,0 -43.875,-11.1093 l -4.7812,-35.1563 q 30.6562,19.2656 47.5312,19.2656 9.9844,0 15.6094,-6.8906 5.625,-6.8906 5.625,-17.5781 0,-8.0156 -4.1484,-17.9297 -4.1485,-9.914 -19.7578,-30.4453 -14.625,-19.2656 -18.4219,-28.0547 -3.7969,-8.789 -3.7969,-15.8203 0,-15.6094 6.0469,-31.6406 z m 110.5313,94.5 -25.0313,14.0625 q -11.25,-40.6407 -48.0937,-73.6875 l 25.0313,-14.2032 q 29.1093,31.5 48.0937,73.8282 z M 107.1562,270.9844 Q 82.6875,316.9688 40.9219,348.75 L 21.0938,326.8125 Q 63.4219,303.3281 85.5,252.8438 Z"
         id="path3"
         inkscape:connector-curvature="0"
         style="stroke:none" />
    </g>
  </g>
</svg>
