<?xml version="1.0" encoding="UTF-8" standalone="no"?>
<svg
   xmlns:dc="http://purl.org/dc/elements/1.1/"
   xmlns:cc="http://creativecommons.org/ns#"
   xmlns:rdf="http://www.w3.org/1999/02/22-rdf-syntax-ns#"
   xmlns:svg="http://www.w3.org/2000/svg"
   xmlns="http://www.w3.org/2000/svg"
   xmlns:sodipodi="http://sodipodi.sourceforge.net/DTD/sodipodi-0.dtd"
   xmlns:inkscape="http://www.inkscape.org/namespaces/inkscape"
   fill-opacity="1"
   color-rendering="auto"
   color-interpolation="auto"
   text-rendering="auto"
   stroke="black"
   stroke-linecap="square"
   stroke-miterlimit="10"
   shape-rendering="auto"
   stroke-opacity="1"
   fill="black"
   stroke-dasharray="none"
   font-weight="normal"
   stroke-width="1"
   font-family="'Dialog'"
   font-style="normal"
   stroke-linejoin="miter"
   font-size="12"
   stroke-dashoffset="0"
   image-rendering="auto"
   version="1.1"
   id="svg9"
   sodipodi:docname="hiragana_letter_ku.svg"
   inkscape:version="0.92.4 (5da689c313, 2019-01-14)"
   width="100%"
   height="100%"
   viewBox="0 0 100 100"
   preserveAspectRatio="xMidYMid meet"
   >
  <metadata
     id="metadata13">
    <rdf:RDF>
      <cc:Work
         rdf:about="">
        <dc:format>image/svg+xml</dc:format>
        <dc:type
           rdf:resource="http://purl.org/dc/dcmitype/StillImage" />
      </cc:Work>
    </rdf:RDF>
  </metadata>
  <sodipodi:namedview
     pagecolor="#ffffff"
     bordercolor="#666666"
     borderopacity="1"
     objecttolerance="10"
     gridtolerance="10"
     guidetolerance="10"
     inkscape:pageopacity="0"
     inkscape:pageshadow="2"
     inkscape:window-width="1920"
     inkscape:window-height="986"
     id="namedview11"
     showgrid="false"
     inkscape:zoom="2.36"
     inkscape:cx="50"
     inkscape:cy="50"
     inkscape:window-x="-11"
     inkscape:window-y="-11"
     inkscape:window-maximized="1"
     inkscape:current-layer="svg9" />
  <!--Unicode Character 'HIRAGANA LETTER KU' (U+304F)-->
  <defs
     id="genericDefs" />
  <g
     id="g7"
     transform="matrix(0.39831101,0,0,0.42096722,-1.988742,-66.96934)">
    <g
       id="g5">
      <path
         d="m 220.6406,368.5781 -18.4218,23.625 Q 173.1094,366.1875 133.8047,340.7344 94.5,315.2812 56.6719,296.5781 q -6.6094,-3.375 -10.7578,-9 -4.1485,-5.625 -4.1485,-11.3906 0,-5.7656 3.7266,-11.4609 3.7266,-5.6954 10.0547,-9.3516 48.6562,-27.9844 78.8906,-47.7422 30.2344,-19.7578 61.1719,-45.2109 l 17.1562,22.7812 q -18.2812,13.5 -35.4375,25.3828 -17.1562,11.8829 -33.4687,22.4297 -16.3125,10.5469 -32.4844,20.3906 l -32.2031,19.2657 q -4.3594,2.6719 -4.3594,3.7969 0,1.6874 5.4844,4.2187 35.4375,16.5937 74.3906,40.7813 38.9531,24.1874 65.9531,47.1093 z"
         id="path3"
         inkscape:connector-curvature="0"
         style="stroke:none" />
    </g>
  </g>
</svg>
