<?xml version="1.0" encoding="UTF-8" standalone="no"?>
<svg
   xmlns:dc="http://purl.org/dc/elements/1.1/"
   xmlns:cc="http://creativecommons.org/ns#"
   xmlns:rdf="http://www.w3.org/1999/02/22-rdf-syntax-ns#"
   xmlns:svg="http://www.w3.org/2000/svg"
   xmlns="http://www.w3.org/2000/svg"
   xmlns:sodipodi="http://sodipodi.sourceforge.net/DTD/sodipodi-0.dtd"
   xmlns:inkscape="http://www.inkscape.org/namespaces/inkscape"
   fill-opacity="1"
   color-rendering="auto"
   color-interpolation="auto"
   text-rendering="auto"
   stroke="black"
   stroke-linecap="square"
   stroke-miterlimit="10"
   shape-rendering="auto"
   stroke-opacity="1"
   fill="black"
   stroke-dasharray="none"
   font-weight="normal"
   stroke-width="1"
   font-family="'Dialog'"
   font-style="normal"
   stroke-linejoin="miter"
   font-size="12"
   stroke-dashoffset="0"
   image-rendering="auto"
   version="1.1"
   id="svg9"
   sodipodi:docname="hiragana_letter_se.svg"
   inkscape:version="0.92.4 (5da689c313, 2019-01-14)">
  <metadata
     id="metadata13">
    <rdf:RDF>
      <cc:Work
         rdf:about="">
        <dc:format>image/svg+xml</dc:format>
        <dc:type
           rdf:resource="http://purl.org/dc/dcmitype/StillImage" />
      </cc:Work>
    </rdf:RDF>
  </metadata>
  <sodipodi:namedview
     pagecolor="#ffffff"
     bordercolor="#666666"
     borderopacity="1"
     objecttolerance="10"
     gridtolerance="10"
     guidetolerance="10"
     inkscape:pageopacity="0"
     inkscape:pageshadow="2"
     inkscape:window-width="1920"
     inkscape:window-height="986"
     id="namedview11"
     showgrid="false"
     inkscape:zoom="2.36"
     inkscape:cx="50"
     inkscape:cy="50"
     inkscape:window-x="-11"
     inkscape:window-y="-11"
     inkscape:window-maximized="1"
     inkscape:current-layer="svg9" />
  <!--Unicode Character 'HIRAGANA LETTER SE' (U+305B)-->
  <defs
     id="genericDefs" />
  <g
     id="g7"
     transform="matrix(0.42525289,0,0,0.43490967,-9.6018857,-71.272562)">
    <g
       id="g5">
      <path
         d="m 253.125,245.9531 -45.7031,3.6563 q 0,29.5312 -1.2657,43.1015 -1.2656,13.5703 -5.414,20.7422 -4.1484,7.1719 -14.4141,12.0235 -10.2656,4.8515 -22.2187,4.8515 -3.6563,0 -12.0938,-0.5625 l -5.2031,-28.5468 q 11.8125,3.0937 18.8437,3.0937 10.8282,0 13.1485,-8.3672 2.3203,-8.3672 2.3203,-43.9453 l -84.9375,6.6094 q 0,53.7187 2.1094,74.4609 2.1093,20.7422 13.5,26.4375 11.3906,5.6953 48.6562,5.6953 19.9688,0 75.6563,-4.6406 l -3.0938,29.1094 q -30.9375,0.8437 -72.2812,0.8437 -50.0625,0 -63.4219,-6.3984 -13.3594,-6.3984 -20.1797,-24.1875 -6.8203,-17.7891 -6.8203,-99.0703 l -40.0781,2.9531 -1.9688,-26.2969 41.2032,-3.0937 q 0,-41.625 1.125,-67.3594 h 28.5468 q -3.7968,34.4531 -3.7968,64.6875 l 85.7812,-6.6094 v -9.7031 q -0.2812,-17.7187 -2.8125,-48.375 h 26.1563 q 2.9531,31.2187 2.9531,49.2187 v 6.8907 l 43.7343,-3.2344 z"
         id="path3"
         inkscape:connector-curvature="0"
         style="stroke:none" />
    </g>
  </g>
</svg>
