<?xml version="1.0" encoding="UTF-8" standalone="no"?>
<svg
   xmlns:dc="http://purl.org/dc/elements/1.1/"
   xmlns:cc="http://creativecommons.org/ns#"
   xmlns:rdf="http://www.w3.org/1999/02/22-rdf-syntax-ns#"
   xmlns:svg="http://www.w3.org/2000/svg"
   xmlns="http://www.w3.org/2000/svg"
   xmlns:sodipodi="http://sodipodi.sourceforge.net/DTD/sodipodi-0.dtd"
   xmlns:inkscape="http://www.inkscape.org/namespaces/inkscape"
   fill-opacity="1"
   color-rendering="auto"
   color-interpolation="auto"
   text-rendering="auto"
   stroke="black"
   stroke-linecap="square"
   stroke-miterlimit="10"
   shape-rendering="auto"
   stroke-opacity="1"
   fill="black"
   stroke-dasharray="none"
   font-weight="normal"
   stroke-width="1"
   font-family="'Dialog'"
   font-style="normal"
   stroke-linejoin="miter"
   font-size="12"
   stroke-dashoffset="0"
   image-rendering="auto"
   version="1.1"
   id="svg9"
   sodipodi:docname="hiragana_letter_no.svg"
   inkscape:version="0.92.4 (5da689c313, 2019-01-14)"
   width="100%"
   height="100%"
   viewBox="0 0 100 100"
   preserveAspectRatio="xMidYMid meet"
   >
  <metadata
     id="metadata13">
    <rdf:RDF>
      <cc:Work
         rdf:about="">
        <dc:format>image/svg+xml</dc:format>
        <dc:type
           rdf:resource="http://purl.org/dc/dcmitype/StillImage" />
      </cc:Work>
    </rdf:RDF>
  </metadata>
  <sodipodi:namedview
     pagecolor="#ffffff"
     bordercolor="#666666"
     borderopacity="1"
     objecttolerance="10"
     gridtolerance="10"
     guidetolerance="10"
     inkscape:pageopacity="0"
     inkscape:pageshadow="2"
     inkscape:window-width="1920"
     inkscape:window-height="986"
     id="namedview11"
     showgrid="false"
     inkscape:zoom="2.36"
     inkscape:cx="50"
     inkscape:cy="50"
     inkscape:window-x="-11"
     inkscape:window-y="-11"
     inkscape:window-maximized="1"
     inkscape:current-layer="svg9" />
  <!--Unicode Character 'HIRAGANA LETTER NO' (U+306E)-->
  <defs
     id="genericDefs" />
  <g
     id="g7"
     transform="matrix(0.44150576,0,0,0.43314382,-13.244633,-74.077677)">
    <g
       id="g5">
      <path
         d="m 154.4062,206.4375 q -10.5468,82.9687 -28.0546,126 -17.5078,43.0313 -39.4454,43.0313 -19.6874,0 -36.7031,-27.3516 -17.0156,-27.3516 -17.0156,-57.8672 0,-33.8906 15.1172,-57.7266 15.1172,-23.8359 42.6094,-38.039 27.4921,-14.2032 61.9453,-14.2032 42.75,0 71.9297,26.4376 29.1797,26.4374 29.1797,71.4374 0,36.9844 -21.1641,66.0235 -21.1641,29.0391 -60.8203,46.8984 l -16.1719,-24.1875 q 34.875,-11.6718 54,-36.5625 19.125,-24.8906 19.125,-54.7031 0,-29.25 -21.0234,-48.5156 -21.0235,-19.2656 -53.5079,-20.6719 z m -26.0156,2.6719 q -28.8281,5.4844 -48.5156,27.2812 -19.6875,21.7969 -19.6875,51.3282 0,19.125 9.4219,39.2343 9.4218,20.1094 17.0156,20.1094 7.875,0 21.6562,-43.2422 13.7813,-43.2422 20.1094,-94.7109 z"
         id="path3"
         inkscape:connector-curvature="0"
         style="stroke:none" />
    </g>
  </g>
</svg>
