<?xml version="1.0" encoding="UTF-8" standalone="no"?>
<svg
   xmlns:dc="http://purl.org/dc/elements/1.1/"
   xmlns:cc="http://creativecommons.org/ns#"
   xmlns:rdf="http://www.w3.org/1999/02/22-rdf-syntax-ns#"
   xmlns:svg="http://www.w3.org/2000/svg"
   xmlns="http://www.w3.org/2000/svg"
   xmlns:sodipodi="http://sodipodi.sourceforge.net/DTD/sodipodi-0.dtd"
   xmlns:inkscape="http://www.inkscape.org/namespaces/inkscape"
   fill-opacity="1"
   color-rendering="auto"
   color-interpolation="auto"
   text-rendering="auto"
   stroke="black"
   stroke-linecap="square"
   stroke-miterlimit="10"
   shape-rendering="auto"
   stroke-opacity="1"
   fill="black"
   stroke-dasharray="none"
   font-weight="normal"
   stroke-width="1"
   font-family="'Dialog'"
   font-style="normal"
   stroke-linejoin="miter"
   font-size="12"
   stroke-dashoffset="0"
   image-rendering="auto"
   version="1.1"
   id="svg9"
   sodipodi:docname="hiragana_letter_so.svg"
   inkscape:version="0.92.4 (5da689c313, 2019-01-14)">
  <metadata
     id="metadata13">
    <rdf:RDF>
      <cc:Work
         rdf:about="">
        <dc:format>image/svg+xml</dc:format>
        <dc:type
           rdf:resource="http://purl.org/dc/dcmitype/StillImage" />
      </cc:Work>
    </rdf:RDF>
  </metadata>
  <sodipodi:namedview
     pagecolor="#ffffff"
     bordercolor="#666666"
     borderopacity="1"
     objecttolerance="10"
     gridtolerance="10"
     guidetolerance="10"
     inkscape:pageopacity="0"
     inkscape:pageshadow="2"
     inkscape:window-width="1920"
     inkscape:window-height="986"
     id="namedview11"
     showgrid="false"
     inkscape:zoom="2.36"
     inkscape:cx="50"
     inkscape:cy="50"
     inkscape:window-x="-11"
     inkscape:window-y="-11"
     inkscape:window-maximized="1"
     inkscape:current-layer="svg9" />
  <!--Unicode Character 'HIRAGANA LETTER SO' (U+305D)-->
  <defs
     id="genericDefs" />
  <g
     id="g7"
     transform="matrix(0.42472197,0,0,0.42730801,-10.634606,-71.095321)">
    <g
       id="g5">
      <path
         d="m 255.5156,254.8125 q -69.75,4.6406 -96.9609,24.6797 -27.2109,20.039 -27.2109,43.664 0,18.5626 21.7265,31.711 21.7266,13.1484 51.6797,13.1484 L 194.0625,396 q -41.2031,-6.3281 -65.6719,-25.3828 -24.4687,-19.0547 -24.4687,-44.9297 0,-27.8437 29.1093,-54.9844 l -0.5624,-0.5625 Q 65.25,278.7188 35.1562,283.3594 l -5.7656,-27.9844 64.125,-7.5938 q 5.625,-0.7031 18,-9.9843 12.9375,-9.5625 21.5156,-16.4531 11.1094,-8.7188 18.4219,-15.4688 -46.2656,-0.7031 -85.2187,-8.2969 l 5.2031,-27.9843 q 18.8437,5.0624 47.4609,8.4374 28.6172,3.375 81.7735,3.375 V 204.75 q -27.1407,21.0938 -58.6407,37.6875 L 142.5938,243 251.1562,226.5469 Z"
         id="path3"
         inkscape:connector-curvature="0"
         style="stroke:none" />
    </g>
  </g>
</svg>
