<?xml version="1.0" encoding="UTF-8" standalone="no"?>
<svg
   xmlns:dc="http://purl.org/dc/elements/1.1/"
   xmlns:cc="http://creativecommons.org/ns#"
   xmlns:rdf="http://www.w3.org/1999/02/22-rdf-syntax-ns#"
   xmlns:svg="http://www.w3.org/2000/svg"
   xmlns="http://www.w3.org/2000/svg"
   xmlns:sodipodi="http://sodipodi.sourceforge.net/DTD/sodipodi-0.dtd"
   xmlns:inkscape="http://www.inkscape.org/namespaces/inkscape"
   fill-opacity="1"
   color-rendering="auto"
   color-interpolation="auto"
   text-rendering="auto"
   stroke="black"
   stroke-linecap="square"
   stroke-miterlimit="10"
   shape-rendering="auto"
   stroke-opacity="1"
   fill="black"
   stroke-dasharray="none"
   font-weight="normal"
   stroke-width="1"
   font-family="'Dialog'"
   font-style="normal"
   stroke-linejoin="miter"
   font-size="12"
   stroke-dashoffset="0"
   image-rendering="auto"
   version="1.1"
   id="svg9"
   sodipodi:docname="hiragana_letter_ru.svg"
   inkscape:version="0.92.4 (5da689c313, 2019-01-14)">
  <metadata
     id="metadata13">
    <rdf:RDF>
      <cc:Work
         rdf:about="">
        <dc:format>image/svg+xml</dc:format>
        <dc:type
           rdf:resource="http://purl.org/dc/dcmitype/StillImage" />
      </cc:Work>
    </rdf:RDF>
  </metadata>
  <sodipodi:namedview
     pagecolor="#ffffff"
     bordercolor="#666666"
     borderopacity="1"
     objecttolerance="10"
     gridtolerance="10"
     guidetolerance="10"
     inkscape:pageopacity="0"
     inkscape:pageshadow="2"
     inkscape:window-width="1920"
     inkscape:window-height="986"
     id="namedview11"
     showgrid="false"
     inkscape:zoom="2.36"
     inkscape:cx="50"
     inkscape:cy="50"
     inkscape:window-x="-11"
     inkscape:window-y="-11"
     inkscape:window-maximized="1"
     inkscape:current-layer="svg9" />
  <!--Unicode Character 'HIRAGANA LETTER RU' (U+308B)-->
  <defs
     id="genericDefs" />
  <g
     id="g7"
     transform="matrix(0.42819784,0,0,0.44719387,-6.4064285,-72.372237)">
    <g
       id="g5">
      <path
         d="m 132.1875,243 q 19.6875,-6.6094 40.6406,-6.6094 27,0 47.461,18.4219 20.4609,18.4219 20.4609,44.4375 0,29.3906 -18.2812,49.9922 -18.2813,20.6016 -40.7813,27 -22.5,6.3984 -40.5,6.3984 -26.2969,0 -42.6797,-11.9531 Q 82.125,358.7344 82.125,337.5 q 0,-16.5938 11.6719,-27 11.6719,-10.4062 27.4219,-10.4062 19.6874,0 37.9687,12.3046 18.2813,12.3047 28.2656,32.5547 12.5157,-6.1875 19.8281,-17.9297 7.3126,-11.7422 7.3126,-25.2422 0,-19.2656 -15.0469,-29.25 -15.0469,-9.9843 -43.7344,-9.9843 -30.0937,0 -58.2187,13.9219 -37.125,33.4687 -54.9844,46.9687 L 23.625,302.0625 q 61.3125,-43.3125 118.6875,-105.75 -36,4.9219 -62.8594,4.9219 -11.5312,0 -23.625,-0.8438 l -1.4062,-27.7031 q 12.2343,1.8281 27.4219,1.8281 36.4218,0 99.8437,-9.5625 l 2.9531,23.9063 -53.0156,53.5781 z m 30.7969,111.5156 q -5.4844,-11.1094 -17.2969,-19.8281 -11.8125,-8.7187 -23.3437,-8.7187 -6.1876,0 -10.2657,3.4453 -4.0781,3.4453 -4.0781,8.3671 0,8.1563 9.7734,14.1329 9.7735,5.9765 24.2578,5.9765 10.9688,0 20.9532,-3.375 z"
         id="path3"
         inkscape:connector-curvature="0"
         style="stroke:none" />
    </g>
  </g>
</svg>
