<?xml version="1.0" encoding="UTF-8" standalone="no"?>
<svg
   xmlns:dc="http://purl.org/dc/elements/1.1/"
   xmlns:cc="http://creativecommons.org/ns#"
   xmlns:rdf="http://www.w3.org/1999/02/22-rdf-syntax-ns#"
   xmlns:svg="http://www.w3.org/2000/svg"
   xmlns="http://www.w3.org/2000/svg"
   xmlns:sodipodi="http://sodipodi.sourceforge.net/DTD/sodipodi-0.dtd"
   xmlns:inkscape="http://www.inkscape.org/namespaces/inkscape"
   fill-opacity="1"
   color-rendering="auto"
   color-interpolation="auto"
   text-rendering="auto"
   stroke="black"
   stroke-linecap="square"
   stroke-miterlimit="10"
   shape-rendering="auto"
   stroke-opacity="1"
   fill="black"
   stroke-dasharray="none"
   font-weight="normal"
   stroke-width="1"
   font-family="'Dialog'"
   font-style="normal"
   stroke-linejoin="miter"
   font-size="12"
   stroke-dashoffset="0"
   image-rendering="auto"
   version="1.1"
   id="svg9"
   sodipodi:docname="hiragana_letter_ro.svg"
   inkscape:version="0.92.4 (5da689c313, 2019-01-14)">
  <metadata
     id="metadata13">
    <rdf:RDF>
      <cc:Work
         rdf:about="">
        <dc:format>image/svg+xml</dc:format>
        <dc:type
           rdf:resource="http://purl.org/dc/dcmitype/StillImage" />
      </cc:Work>
    </rdf:RDF>
  </metadata>
  <sodipodi:namedview
     pagecolor="#ffffff"
     bordercolor="#666666"
     borderopacity="1"
     objecttolerance="10"
     gridtolerance="10"
     guidetolerance="10"
     inkscape:pageopacity="0"
     inkscape:pageshadow="2"
     inkscape:window-width="1920"
     inkscape:window-height="986"
     id="namedview11"
     showgrid="false"
     inkscape:zoom="2.36"
     inkscape:cx="50"
     inkscape:cy="50"
     inkscape:window-x="-11"
     inkscape:window-y="-11"
     inkscape:window-maximized="1"
     inkscape:current-layer="svg9" />
  <!--Unicode Character 'HIRAGANA LETTER RO' (U+308D)-->
  <defs
     id="genericDefs" />
  <g
     id="g7"
     transform="matrix(0.42069146,0,0,0.43896415,-7.8759061,-72.373642)">
    <g
       id="g5">
      <path
         d="m 134.1562,252.8438 q 21.0938,-8.1563 40.0782,-8.1563 29.5312,0 51.0468,17.8594 21.5157,17.8593 21.5157,44.1562 0,25.7344 -15.1875,44.2969 -15.1875,18.5625 -44.086,28.3359 -28.8984,9.7735 -67.4296,9.7735 l -17.2969,-0.4219 -9.7031,-30.7969 q 22.2187,3.2344 42.6093,3.2344 38.6719,0 61.5235,-14.4141 22.8515,-14.414 22.8515,-39.4453 0,-17.2968 -15.1172,-27.0703 -15.1171,-9.7734 -41.414,-9.7734 -18.5625,0 -35.7891,5.1328 -17.2266,5.1328 -29.7422,13.1484 -12.5156,8.0157 -49.3594,41.625 L 28.8281,312.1875 Q 59.625,288.4219 98.4375,250.9453 137.25,213.4688 149.4844,202.3594 l -0.5625,-0.5625 q -14.3438,2.5312 -43.0313,4.289 -28.6875,1.7579 -49.5,1.7579 l -2.25,-28.4063 q 12.5156,1.4063 24.1875,1.4063 32.4844,0 117.5625,-13.7813 l 4.2188,24.75 q -11.1094,6.75 -21.7969,15.5391 -10.6875,8.789 -25.1719,24.1172 l -19.5468,20.8124 z"
         id="path3"
         inkscape:connector-curvature="0"
         style="stroke:none" />
    </g>
  </g>
</svg>
