<?xml version="1.0" encoding="UTF-8" standalone="no"?>
<svg
   xmlns:dc="http://purl.org/dc/elements/1.1/"
   xmlns:cc="http://creativecommons.org/ns#"
   xmlns:rdf="http://www.w3.org/1999/02/22-rdf-syntax-ns#"
   xmlns:svg="http://www.w3.org/2000/svg"
   xmlns="http://www.w3.org/2000/svg"
   xmlns:sodipodi="http://sodipodi.sourceforge.net/DTD/sodipodi-0.dtd"
   xmlns:inkscape="http://www.inkscape.org/namespaces/inkscape"
   fill-opacity="1"
   color-rendering="auto"
   color-interpolation="auto"
   text-rendering="auto"
   stroke="black"
   stroke-linecap="square"
   stroke-miterlimit="10"
   shape-rendering="auto"
   stroke-opacity="1"
   fill="black"
   stroke-dasharray="none"
   font-weight="normal"
   stroke-width="1"
   font-family="'Dialog'"
   font-style="normal"
   stroke-linejoin="miter"
   font-size="12"
   stroke-dashoffset="0"
   image-rendering="auto"
   version="1.1"
   id="svg9"
   sodipodi:docname="hiragana_letter_ni.svg"
   inkscape:version="0.92.4 (5da689c313, 2019-01-14)"
   width="100%"
   height="100%"
   viewBox="0 0 100 100"
   preserveAspectRatio="xMidYMid meet"
   >
  <metadata
     id="metadata13">
    <rdf:RDF>
      <cc:Work
         rdf:about="">
        <dc:format>image/svg+xml</dc:format>
        <dc:type
           rdf:resource="http://purl.org/dc/dcmitype/StillImage" />
      </cc:Work>
    </rdf:RDF>
  </metadata>
  <sodipodi:namedview
     pagecolor="#ffffff"
     bordercolor="#666666"
     borderopacity="1"
     objecttolerance="10"
     gridtolerance="10"
     guidetolerance="10"
     inkscape:pageopacity="0"
     inkscape:pageshadow="2"
     inkscape:window-width="1920"
     inkscape:window-height="986"
     id="namedview11"
     showgrid="false"
     inkscape:zoom="2.36"
     inkscape:cx="50"
     inkscape:cy="50"
     inkscape:window-x="-11"
     inkscape:window-y="-11"
     inkscape:window-maximized="1"
     inkscape:current-layer="svg9" />
  <!--Unicode Character 'HIRAGANA LETTER NI' (U+306B)-->
  <defs
     id="genericDefs" />
  <g
     id="g7"
     transform="matrix(0.44441973,0,0,0.42953407,-13.807332,-67.994689)">
    <g
       id="g5">
      <path
         d="M 104.7656,315.8438 Q 89.4375,350.1562 79.7344,388.125 H 60.75 Q 37.6875,344.3906 37.6875,280.4062 q 0,-53.4374 15.8906,-118.8281 l 27.9844,8.8594 q -18.4219,57.6563 -18.4219,110.9531 0,36.1406 5.625,57.2344 h 0.7032 Q 76.5,319.3594 82.4062,308.9531 Z m 129.9375,-128.9532 -3.375,26.7188 q -18.5625,-3.375 -50.7656,-3.375 -26.7187,0 -61.3125,5.7656 l -3.2344,-27.1406 Q 158.3438,184.5 180,184.5 q 36.9844,0 54.7031,2.3906 z M 252,348.75 l -6.3281,29.1094 q -40.3594,3.0937 -65.6719,3.0937 -41.9062,0 -56.8125,-6.8906 -14.9063,-6.8906 -14.9063,-30.7969 0,-11.9531 3.2344,-25.3125 l 27,5.7657 q -4.6406,13.6406 -4.6406,19.5468 0,6.8906 7.1719,9.6328 7.1719,2.7422 30.9375,2.7422 18.9844,0 80.0156,-6.8906 z"
         id="path3"
         inkscape:connector-curvature="0"
         style="stroke:none" />
    </g>
  </g>
</svg>
