<?xml version="1.0" encoding="UTF-8" standalone="no"?>
<svg
   xmlns:dc="http://purl.org/dc/elements/1.1/"
   xmlns:cc="http://creativecommons.org/ns#"
   xmlns:rdf="http://www.w3.org/1999/02/22-rdf-syntax-ns#"
   xmlns:svg="http://www.w3.org/2000/svg"
   xmlns="http://www.w3.org/2000/svg"
   xmlns:sodipodi="http://sodipodi.sourceforge.net/DTD/sodipodi-0.dtd"
   xmlns:inkscape="http://www.inkscape.org/namespaces/inkscape"
   fill-opacity="1"
   color-rendering="auto"
   color-interpolation="auto"
   text-rendering="auto"
   stroke="black"
   stroke-linecap="square"
   stroke-miterlimit="10"
   shape-rendering="auto"
   stroke-opacity="1"
   fill="black"
   stroke-dasharray="none"
   font-weight="normal"
   stroke-width="1"
   font-family="'Dialog'"
   font-style="normal"
   stroke-linejoin="miter"
   font-size="12"
   stroke-dashoffset="0"
   image-rendering="auto"
   version="1.1"
   id="svg9"
   sodipodi:docname="hiragana_letter_me.svg"
   inkscape:version="0.92.4 (5da689c313, 2019-01-14)">
  <metadata
     id="metadata13">
    <rdf:RDF>
      <cc:Work
         rdf:about="">
        <dc:format>image/svg+xml</dc:format>
        <dc:type
           rdf:resource="http://purl.org/dc/dcmitype/StillImage" />
      </cc:Work>
    </rdf:RDF>
  </metadata>
  <sodipodi:namedview
     pagecolor="#ffffff"
     bordercolor="#666666"
     borderopacity="1"
     objecttolerance="10"
     gridtolerance="10"
     guidetolerance="10"
     inkscape:pageopacity="0"
     inkscape:pageshadow="2"
     inkscape:window-width="1920"
     inkscape:window-height="986"
     id="namedview11"
     showgrid="false"
     inkscape:zoom="2.36"
     inkscape:cx="50"
     inkscape:cy="50"
     inkscape:window-x="-11"
     inkscape:window-y="-11"
     inkscape:window-maximized="1"
     inkscape:current-layer="svg9" />
  <!--Unicode Character 'HIRAGANA LETTER ME' (U+3081)-->
  <defs
     id="genericDefs" />
  <g
     id="g7"
     transform="matrix(0.43552541,0,0,0.41375695,-11.935998,-64.093592)">
    <g
       id="g5">
      <path
         d="m 167.625,214.4531 q 38.5312,3.0938 60.75,24.1875 22.2188,21.0938 22.2188,54.1406 0,19.5469 -8.4376,38.6719 -8.4374,19.125 -25.9453,34.2422 -17.5078,15.1172 -49.7109,28.7578 l -18.7031,-26.4375 q 30.6562,-6.3281 53.5781,-26.2265 22.9219,-19.8985 22.9219,-52.1016 0,-22.2187 -18.9844,-35.7891 -18.9844,-13.5703 -42.6094,-13.9922 -11.6719,49.9219 -24.75,81.4219 7.1719,11.25 14.3438,18.7031 l -22.9219,15.6094 -5.4844,-6.6094 q -16.5937,25.5938 -37.8281,25.5938 -21.2344,0 -34.9453,-17.5078 -13.711,-17.5078 -13.711,-43.2422 0,-21.2344 10.0547,-40.7812 Q 57.5156,253.5469 75.5156,239.625 66.9375,216 59.3438,179.4375 l 26.4374,-6.0469 q 2.8126,23.625 12.375,52.3125 20.25,-8.5781 42.6094,-10.5469 7.3125,-31.6406 7.5938,-58.5 l 28.125,6.0469 q -3.5156,27.5625 -8.8594,51.75 z M 134.7188,243 q -14.0626,1.5469 -27.2813,9 9,24.75 14.3437,36.2812 Q 130.5,263.8125 134.7188,243 Z m -26.1563,79.4531 q -11.3906,-21.7969 -23.3437,-55.2656 -20.6719,20.5313 -20.6719,49.5 0,14.3437 5.414,22.9219 5.4141,8.5781 13.2891,8.5781 6.0469,0 11.7422,-4.7813 5.6953,-4.7812 13.5703,-20.9531 z"
         id="path3"
         inkscape:connector-curvature="0"
         style="stroke:none" />
    </g>
  </g>
</svg>
