<?xml version="1.0" encoding="UTF-8" standalone="no"?>
<svg
   xmlns:dc="http://purl.org/dc/elements/1.1/"
   xmlns:cc="http://creativecommons.org/ns#"
   xmlns:rdf="http://www.w3.org/1999/02/22-rdf-syntax-ns#"
   xmlns:svg="http://www.w3.org/2000/svg"
   xmlns="http://www.w3.org/2000/svg"
   xmlns:sodipodi="http://sodipodi.sourceforge.net/DTD/sodipodi-0.dtd"
   xmlns:inkscape="http://www.inkscape.org/namespaces/inkscape"
   fill-opacity="1"
   color-rendering="auto"
   color-interpolation="auto"
   text-rendering="auto"
   stroke="black"
   stroke-linecap="square"
   stroke-miterlimit="10"
   shape-rendering="auto"
   stroke-opacity="1"
   fill="black"
   stroke-dasharray="none"
   font-weight="normal"
   stroke-width="1"
   font-family="'Dialog'"
   font-style="normal"
   stroke-linejoin="miter"
   font-size="12"
   stroke-dashoffset="0"
   image-rendering="auto"
   version="1.1"
   id="svg9"
   sodipodi:docname="hiragana_letter_ri.svg"
   inkscape:version="0.92.4 (5da689c313, 2019-01-14)">
  <metadata
     id="metadata13">
    <rdf:RDF>
      <cc:Work
         rdf:about="">
        <dc:format>image/svg+xml</dc:format>
        <dc:type
           rdf:resource="http://purl.org/dc/dcmitype/StillImage" />
      </cc:Work>
    </rdf:RDF>
  </metadata>
  <sodipodi:namedview
     pagecolor="#ffffff"
     bordercolor="#666666"
     borderopacity="1"
     objecttolerance="10"
     gridtolerance="10"
     guidetolerance="10"
     inkscape:pageopacity="0"
     inkscape:pageshadow="2"
     inkscape:window-width="1920"
     inkscape:window-height="986"
     id="namedview11"
     showgrid="false"
     inkscape:zoom="2.36"
     inkscape:cx="50"
     inkscape:cy="50"
     inkscape:window-x="-11"
     inkscape:window-y="-11"
     inkscape:window-maximized="1"
     inkscape:current-layer="svg9" />
  <!--Unicode Character 'HIRAGANA LETTER RI' (U+308A)-->
  <defs
     id="genericDefs" />
  <g
     id="g7"
     transform="matrix(0.4389709,0,0,0.39321456,-10.548279,-63.132667)">
    <g
       id="g5">
      <path
         d="m 220.3594,164.1094 q 3.375,47.8125 3.375,78.3281 0,74.8125 -17.2266,110.3203 -17.2266,35.5078 -52.1016,56.461 l -18.7031,-21.6563 q 26.1563,-14.7656 39.7266,-36.9844 13.5703,-22.2187 17.8594,-48.2343 4.289,-26.0157 4.289,-61.0313 0,-45.7031 -4.6406,-75.5156 z M 121.5,256.2188 q -23.4844,44.4374 -30.7969,91.125 H 71.7188 q -6.75,-26.0157 -11.461,-60.5391 -4.7109,-34.5235 -4.7109,-55.8985 0,-38.3906 4.9219,-60.4687 l 26.1562,5.2031 q -5.3438,22.5 -5.3438,55.2656 0,20.25 3.0938,48.9376 h 0.5625 q 7.5937,-22.9219 16.4531,-36 z"
         id="path3"
         inkscape:connector-curvature="0"
         style="stroke:none" />
    </g>
  </g>
</svg>
