<?xml version="1.0" encoding="UTF-8" standalone="no"?>
<svg
   xmlns:dc="http://purl.org/dc/elements/1.1/"
   xmlns:cc="http://creativecommons.org/ns#"
   xmlns:rdf="http://www.w3.org/1999/02/22-rdf-syntax-ns#"
   xmlns:svg="http://www.w3.org/2000/svg"
   xmlns="http://www.w3.org/2000/svg"
   xmlns:sodipodi="http://sodipodi.sourceforge.net/DTD/sodipodi-0.dtd"
   xmlns:inkscape="http://www.inkscape.org/namespaces/inkscape"
   fill-opacity="1"
   color-rendering="auto"
   color-interpolation="auto"
   text-rendering="auto"
   stroke="black"
   stroke-linecap="square"
   stroke-miterlimit="10"
   shape-rendering="auto"
   stroke-opacity="1"
   fill="black"
   stroke-dasharray="none"
   font-weight="normal"
   stroke-width="1"
   font-family="'Dialog'"
   font-style="normal"
   stroke-linejoin="miter"
   font-size="12"
   stroke-dashoffset="0"
   image-rendering="auto"
   version="1.1"
   id="svg9"
   sodipodi:docname="hiragana_letter_su.svg"
   inkscape:version="0.92.4 (5da689c313, 2019-01-14)"
   width="100%"
   height="100%"
   viewBox="0 0 100 100"
   preserveAspectRatio="xMidYMid meet"
   >
  <metadata
     id="metadata13">
    <rdf:RDF>
      <cc:Work
         rdf:about="">
        <dc:format>image/svg+xml</dc:format>
        <dc:type
           rdf:resource="http://purl.org/dc/dcmitype/StillImage" />
      </cc:Work>
    </rdf:RDF>
  </metadata>
  <sodipodi:namedview
     pagecolor="#ffffff"
     bordercolor="#666666"
     borderopacity="1"
     objecttolerance="10"
     gridtolerance="10"
     guidetolerance="10"
     inkscape:pageopacity="0"
     inkscape:pageshadow="2"
     inkscape:window-width="1920"
     inkscape:window-height="986"
     id="namedview11"
     showgrid="false"
     inkscape:zoom="2.36"
     inkscape:cx="50"
     inkscape:cy="50"
     inkscape:window-x="-11"
     inkscape:window-y="-11"
     inkscape:window-maximized="1"
     inkscape:current-layer="svg9" />
  <!--Unicode Character 'HIRAGANA LETTER SU' (U+3059)-->
  <defs
     id="genericDefs" />
  <g
     id="g7"
     transform="matrix(0.41907679,0,0,0.40793616,-10.626722,-65.624476)">
    <g
       id="g5">
      <path
         d="m 255.2344,225.4219 h -64.8282 v 48.0937 q 6.0469,18.9844 6.0469,37.125 0,31.0782 -16.3125,55.336 -16.3125,24.2578 -47.3906,37.7578 l -16.1719,-26.4375 q 22.6407,-6.1875 36.2813,-18.3516 13.6406,-12.1641 15.6094,-27.2109 -12.375,10.6875 -29.9532,10.6875 -19.6875,0 -34.875,-14.4141 -15.1875,-14.414 -15.1875,-37.1953 0,-23.3437 14.2031,-38.6016 14.2032,-15.2578 36.7032,-15.2578 14.4844,0 24.75,7.1719 V 225.4219 H 32.7656 v -25.875 h 131.3438 v -36.2813 h 26.2968 v 36.2813 h 64.8282 z m -117.8438,90.1406 q 11.25,0 18.5625,-8.3672 7.3125,-8.3672 7.3125,-19.4765 0,-9.7032 -7.1718,-16.5235 -7.1719,-6.8203 -17.5782,-6.8203 -10.125,0 -16.7344,7.5234 -6.6093,7.5235 -6.6093,18.3516 0,12.2344 6.1172,18.7734 6.1171,6.5391 16.1015,6.5391 z"
         id="path3"
         inkscape:connector-curvature="0"
         style="stroke:none" />
    </g>
  </g>
</svg>
