<?xml version="1.0" encoding="UTF-8" standalone="no"?>
<svg
   xmlns:dc="http://purl.org/dc/elements/1.1/"
   xmlns:cc="http://creativecommons.org/ns#"
   xmlns:rdf="http://www.w3.org/1999/02/22-rdf-syntax-ns#"
   xmlns:svg="http://www.w3.org/2000/svg"
   xmlns="http://www.w3.org/2000/svg"
   xmlns:sodipodi="http://sodipodi.sourceforge.net/DTD/sodipodi-0.dtd"
   xmlns:inkscape="http://www.inkscape.org/namespaces/inkscape"
   fill-opacity="1"
   color-rendering="auto"
   color-interpolation="auto"
   text-rendering="auto"
   stroke="black"
   stroke-linecap="square"
   stroke-miterlimit="10"
   shape-rendering="auto"
   stroke-opacity="1"
   fill="black"
   stroke-dasharray="none"
   font-weight="normal"
   stroke-width="1"
   font-family="'Dialog'"
   font-style="normal"
   stroke-linejoin="miter"
   font-size="12"
   stroke-dashoffset="0"
   image-rendering="auto"
   version="1.1"
   id="svg9"
   sodipodi:docname="hiragana_letter_n.svg"
   inkscape:version="0.92.4 (5da689c313, 2019-01-14)">
  <metadata
     id="metadata13">
    <rdf:RDF>
      <cc:Work
         rdf:about="">
        <dc:format>image/svg+xml</dc:format>
        <dc:type
           rdf:resource="http://purl.org/dc/dcmitype/StillImage" />
      </cc:Work>
    </rdf:RDF>
  </metadata>
  <sodipodi:namedview
     pagecolor="#ffffff"
     bordercolor="#666666"
     borderopacity="1"
     objecttolerance="10"
     gridtolerance="10"
     guidetolerance="10"
     inkscape:pageopacity="0"
     inkscape:pageshadow="2"
     inkscape:window-width="1920"
     inkscape:window-height="986"
     id="namedview11"
     showgrid="false"
     inkscape:zoom="2.36"
     inkscape:cx="50"
     inkscape:cy="50"
     inkscape:window-x="-11"
     inkscape:window-y="-11"
     inkscape:window-maximized="1"
     inkscape:current-layer="svg9" />
  <!--Unicode Character 'HIRAGANA LETTER N' (U+3093)-->
  <defs
     id="genericDefs" />
  <g
     id="g7"
     transform="matrix(0.41755961,0,0,0.41571592,-9.9293547,-64.326434)">
    <g
       id="g5">
      <path
         d="m 260.8594,333.9844 q -27.8438,34.3125 -43.9453,44.2265 -16.1016,9.9141 -31.4297,9.9141 -16.875,0 -27.1406,-12.3047 -10.2657,-12.3047 -10.2657,-31.4297 0,-15.0468 5.2031,-36.8437 3.0938,-12.9375 3.0938,-18.9844 0,-12.9375 -12.375,-12.9375 -9.8438,0 -24.3281,7.5938 -14.4844,7.5937 -25.875,20.25 Q 82.4062,316.125 70.7344,339.75 L 49.5,382.3594 25.875,371.5312 133.0312,161.8594 l 24.1876,11.8125 -46.4063,87.1875 0.7031,0.5625 q 14.9063,-11.8125 33.0469,-11.8125 17.0156,0 27.8437,10.4062 10.8282,10.4063 10.8282,26.7188 0,10.5468 -4.2188,30.2344 -3.9375,18.9843 -3.9375,28.8281 0,7.1719 3.4453,11.5312 3.4454,4.3594 9.211,4.3594 20.8125,0 51.6094,-46.4063 z"
         id="path3"
         inkscape:connector-curvature="0"
         style="stroke:none" />
    </g>
  </g>
</svg>
