<?xml version="1.0" encoding="UTF-8" standalone="no"?>
<svg
   xmlns:dc="http://purl.org/dc/elements/1.1/"
   xmlns:cc="http://creativecommons.org/ns#"
   xmlns:rdf="http://www.w3.org/1999/02/22-rdf-syntax-ns#"
   xmlns:svg="http://www.w3.org/2000/svg"
   xmlns="http://www.w3.org/2000/svg"
   xmlns:sodipodi="http://sodipodi.sourceforge.net/DTD/sodipodi-0.dtd"
   xmlns:inkscape="http://www.inkscape.org/namespaces/inkscape"
   fill-opacity="1"
   color-rendering="auto"
   color-interpolation="auto"
   text-rendering="auto"
   stroke="black"
   stroke-linecap="square"
   stroke-miterlimit="10"
   shape-rendering="auto"
   stroke-opacity="1"
   fill="black"
   stroke-dasharray="none"
   font-weight="normal"
   stroke-width="1"
   font-family="'Dialog'"
   font-style="normal"
   stroke-linejoin="miter"
   font-size="12"
   stroke-dashoffset="0"
   image-rendering="auto"
   version="1.1"
   id="svg9"
   sodipodi:docname="katakana_letter_ba.svg"
   inkscape:version="0.92.4 (5da689c313, 2019-01-14)">
  <metadata
     id="metadata13">
    <rdf:RDF>
      <cc:Work
         rdf:about="">
        <dc:format>image/svg+xml</dc:format>
        <dc:type
           rdf:resource="http://purl.org/dc/dcmitype/StillImage" />
      </cc:Work>
    </rdf:RDF>
  </metadata>
  <sodipodi:namedview
     pagecolor="#ffffff"
     bordercolor="#666666"
     borderopacity="1"
     objecttolerance="10"
     gridtolerance="10"
     guidetolerance="10"
     inkscape:pageopacity="0"
     inkscape:pageshadow="2"
     inkscape:window-width="1920"
     inkscape:window-height="986"
     id="namedview11"
     showgrid="false"
     inkscape:zoom="3.337544"
     inkscape:cx="49.127703"
     inkscape:cy="-1.5113511"
     inkscape:window-x="-11"
     inkscape:window-y="-11"
     inkscape:window-maximized="1"
     inkscape:current-layer="svg9" />
  <!--Unicode Character 'KATAKANA LETTER BA' (U+30D0)-->
  <defs
     id="genericDefs" />
  <g
     id="g7"
     transform="matrix(0.3865376,0,0,0.41732236,-5.2775796,-65.143739)">
    <g
       id="g5">
      <path
         d="M 271.8281,194.625 252,203.0625 q -5.3438,-23.9063 -13.7812,-38.6719 l 20.9531,-8.5781 q 8.0156,15.75 12.6562,38.8125 z M 115.1719,166.3594 q -8.4375,64.8281 -29.3203,127.8281 -20.8828,63 -48.7266,100.9687 L 13.5,378.9844 Q 44.0156,336.6562 64.0547,277.8047 84.0938,218.9531 89.0156,157.7812 Z M 255.2344,379.8281 227.25,387 Q 223.0312,341.4375 203.0625,281.6016 183.0938,221.7656 155.25,170.4375 l 24.1875,-11.5313 Q 238.7812,283.5 255.2344,379.8281 Z m -15.3282,-173.6719 -19.8281,8.2969 q -5.3437,-23.7656 -13.9219,-38.5312 l 21.0938,-8.5781 q 8.0156,15.75 12.6562,38.8124 z"
         id="path3"
         inkscape:connector-curvature="0"
         style="stroke:none" />
    </g>
  </g>
</svg>
