<?xml version="1.0"?>

<!DOCTYPE svg PUBLIC '-//W3C//DTD SVG 1.0//EN' 'http://www.w3.org/TR/2001/REC-SVG-20010904/DTD/svg10.dtd'>
<svg fill-opacity="1" xmlns:xlink="http://www.w3.org/1999/xlink" color-rendering="auto" color-interpolation="auto" text-rendering="auto" stroke="black" stroke-linecap="square" stroke-miterlimit="10" shape-rendering="auto" stroke-opacity="1" fill="black" stroke-dasharray="none" font-weight="normal" stroke-width="1" xmlns="http://www.w3.org/2000/svg" font-family="&apos;Dialog&apos;" font-style="normal" stroke-linejoin="miter" font-size="12" stroke-dashoffset="0" image-rendering="auto">
  <!--Unicode Character 'KATAKANA LETTER DE' (U+30C7)-->
  <defs id="genericDefs" />
  <g>
    <g>
      <path d="M273.0938 206.7188 L253.125 215.1562 Q247.9219 191.25 239.3438 176.4844 L260.2969 167.9062 Q268.3125 183.6562 273.0938 206.7188 ZM192.9375 198.7031 L48.9375 198.7031 L48.9375 172.6875 L192.9375 172.6875 L192.9375 198.7031 ZM241.0312 218.25 L221.2031 226.5469 Q215.8594 202.7812 207.4219 188.0156 L228.375 179.4375 Q236.3906 195.1875 241.0312 218.25 ZM261.5625 269.5781 L159.3281 269.5781 Q159.6094 272.9531 159.6094 281.1094 Q159.6094 367.0312 84.0938 403.4531 L63.7031 380.3906 Q98.0156 368.2969 115.6641 343.6875 Q133.3125 319.0781 133.3125 284.4844 Q133.3125 274.3594 132.75 269.5781 L21.0938 269.5781 L21.0938 243.5625 L261.5625 243.5625 L261.5625 269.5781 Z" stroke="none" />
    </g>
  </g>
</svg>
