<?xml version="1.0"?>

<!DOCTYPE svg PUBLIC '-//W3C//DTD SVG 1.0//EN' 'http://www.w3.org/TR/2001/REC-SVG-20010904/DTD/svg10.dtd'>
<svg fill-opacity="1" xmlns:xlink="http://www.w3.org/1999/xlink" color-rendering="auto" color-interpolation="auto" text-rendering="auto" stroke="black" stroke-linecap="square" stroke-miterlimit="10" shape-rendering="auto" stroke-opacity="1" fill="black" stroke-dasharray="none" font-weight="normal" stroke-width="1" xmlns="http://www.w3.org/2000/svg" font-family="&apos;Dialog&apos;" font-style="normal" stroke-linejoin="miter" font-size="12" stroke-dashoffset="0" image-rendering="auto">
  <!--Unicode Character 'KATAKANA LETTER PO' (U+30DD)-->
  <defs id="genericDefs" />
  <g>
    <g>
      <path d="M230.9062 141.3281 Q243.5625 141.3281 252.8438 150.3984 Q262.125 159.4688 262.125 171.8438 Q262.125 184.2188 252.7734 193.4297 Q243.4219 202.6406 230.9062 202.6406 Q218.6719 202.6406 209.3906 193.3594 Q200.1094 184.0781 200.1094 171.8438 Q200.1094 159.4688 209.3203 150.3984 Q218.5312 141.3281 230.9062 141.3281 ZM230.9062 183.375 Q236.3906 183.375 239.5547 180.2812 Q242.7188 177.1875 242.7188 171.8438 Q242.7188 166.5 239.5547 163.2656 Q236.3906 160.0312 230.9062 160.0312 Q225.5625 160.0312 222.3984 163.2656 Q219.2344 166.5 219.2344 171.8438 Q219.2344 177.3281 222.3984 180.3516 Q225.5625 183.375 230.9062 183.375 ZM259.1719 241.0312 L158.3438 241.0312 L158.3438 374.9062 Q158.3438 385.1719 149.9062 391.9922 Q141.4688 398.8125 127.8281 398.8125 Q121.2188 398.8125 105.75 398.25 L97.875 369.7031 Q117.2812 372.375 125.8594 372.375 Q132.4688 372.375 132.4688 366.0469 L132.4688 241.0312 L27.1406 241.0312 L27.1406 215.1562 L132.4688 215.1562 L132.4688 159.75 L158.3438 159.75 L158.3438 215.1562 L259.1719 215.1562 L259.1719 241.0312 ZM105.4688 271.5469 Q77.3438 329.2031 43.7344 364.2188 L20.1094 347.0625 Q58.2188 315.7031 80.8594 258.8906 L105.4688 271.5469 ZM262.9688 350.7188 L237.9375 364.7812 Q212.625 312.8906 176.7656 274.0781 L201.375 259.7344 Q244.9688 313.1719 262.9688 350.7188 Z" stroke="none" />
    </g>
  </g>
</svg>
