<?xml version="1.0" encoding="UTF-8" standalone="no"?>
<svg
   xmlns:dc="http://purl.org/dc/elements/1.1/"
   xmlns:cc="http://creativecommons.org/ns#"
   xmlns:rdf="http://www.w3.org/1999/02/22-rdf-syntax-ns#"
   xmlns:svg="http://www.w3.org/2000/svg"
   xmlns="http://www.w3.org/2000/svg"
   xmlns:sodipodi="http://sodipodi.sourceforge.net/DTD/sodipodi-0.dtd"
   xmlns:inkscape="http://www.inkscape.org/namespaces/inkscape"
   fill-opacity="1"
   color-rendering="auto"
   color-interpolation="auto"
   text-rendering="auto"
   stroke="black"
   stroke-linecap="square"
   stroke-miterlimit="10"
   shape-rendering="auto"
   stroke-opacity="1"
   fill="black"
   stroke-dasharray="none"
   font-weight="normal"
   stroke-width="1"
   font-family="'Dialog'"
   font-style="normal"
   stroke-linejoin="miter"
   font-size="12"
   stroke-dashoffset="0"
   image-rendering="auto"
   version="1.1"
   id="svg61"
   sodipodi:docname="katakana_letter_bi.svg"
   inkscape:version="0.92.4 (5da689c313, 2019-01-14)">
  <metadata
     id="metadata65">
    <rdf:RDF>
      <cc:Work
         rdf:about="">
        <dc:format>image/svg+xml</dc:format>
        <dc:type
           rdf:resource="http://purl.org/dc/dcmitype/StillImage" />
      </cc:Work>
    </rdf:RDF>
  </metadata>
  <sodipodi:namedview
     pagecolor="#ffffff"
     bordercolor="#666666"
     borderopacity="1"
     objecttolerance="10"
     gridtolerance="10"
     guidetolerance="10"
     inkscape:pageopacity="0"
     inkscape:pageshadow="2"
     inkscape:window-width="1920"
     inkscape:window-height="986"
     id="namedview63"
     showgrid="false"
     inkscape:zoom="2.36"
     inkscape:cx="50"
     inkscape:cy="16.101695"
     inkscape:window-x="-11"
     inkscape:window-y="-11"
     inkscape:window-maximized="1"
     inkscape:current-layer="svg61" />
  <!--Unicode Character 'KATAKANA LETTER BI' (U+30D3)-->
  <defs
     id="genericDefs" />
  <g
     id="g59"
     transform="matrix(0.4475202,0,0,0.43068043,-18.945007,-67.225094)">
    <g
       id="g57">
      <path
         d="m 267.8906,194.625 -19.9687,8.4375 q -5.2031,-23.9063 -13.7813,-38.6719 l 21.0938,-8.5781 q 7.875,15.75 12.6562,38.8125 z m -18.4218,163.8281 -4.0782,28.8281 H 70.875 q -13.3594,0 -20.5312,-9 -7.1719,-9 -7.1719,-24.0468 v -190.125 h 26.0156 v 90.4218 Q 145.4062,243 200.1094,211.6406 l 15.3281,23.3438 q -62.1563,32.625 -146.25,46.6875 v 72.8437 q 0,2.8125 2.1797,4.9219 2.1797,2.1094 3.6562,2.1797 1.4766,0.0703 26.3672,0.0703 104.3438,0 148.0782,-3.2344 z M 235.8281,206.1562 216,214.4531 q -5.3438,-23.7656 -13.7812,-38.5312 l 20.9531,-8.5781 q 8.0156,15.75 12.6562,38.8124 z"
         id="path55"
         inkscape:connector-curvature="0"
         style="stroke:none" />
    </g>
  </g>
</svg>
