<?xml version="1.0" encoding="UTF-8" standalone="no"?>
<svg
   xmlns:dc="http://purl.org/dc/elements/1.1/"
   xmlns:cc="http://creativecommons.org/ns#"
   xmlns:rdf="http://www.w3.org/1999/02/22-rdf-syntax-ns#"
   xmlns:svg="http://www.w3.org/2000/svg"
   xmlns="http://www.w3.org/2000/svg"
   xmlns:sodipodi="http://sodipodi.sourceforge.net/DTD/sodipodi-0.dtd"
   xmlns:inkscape="http://www.inkscape.org/namespaces/inkscape"
   fill-opacity="1"
   color-rendering="auto"
   color-interpolation="auto"
   text-rendering="auto"
   stroke="black"
   stroke-linecap="square"
   stroke-miterlimit="10"
   shape-rendering="auto"
   stroke-opacity="1"
   fill="black"
   stroke-dasharray="none"
   font-weight="normal"
   stroke-width="1"
   font-family="'Dialog'"
   font-style="normal"
   stroke-linejoin="miter"
   font-size="12"
   stroke-dashoffset="0"
   image-rendering="auto"
   version="1.1"
   id="svg9"
   sodipodi:docname="manyougana-katakana_letter_ri.svg"
   inkscape:version="0.92.4 (5da689c313, 2019-01-14)"
   width="100%"
   height="100%"
   viewBox="0 0 100 100"
   preserveAspectRatio="xMidYMid meet"
   >
  <metadata
     id="metadata13">
    <rdf:RDF>
      <cc:Work
         rdf:about="">
        <dc:format>image/svg+xml</dc:format>
        <dc:type
           rdf:resource="http://purl.org/dc/dcmitype/StillImage" />
      </cc:Work>
    </rdf:RDF>
  </metadata>
  <sodipodi:namedview
     pagecolor="#ffffff"
     bordercolor="#666666"
     borderopacity="1"
     objecttolerance="10"
     gridtolerance="10"
     guidetolerance="10"
     inkscape:pageopacity="0"
     inkscape:pageshadow="2"
     inkscape:window-width="1920"
     inkscape:window-height="986"
     id="namedview11"
     showgrid="false"
     inkscape:zoom="3.337544"
     inkscape:cx="71.09824"
     inkscape:cy="23.565146"
     inkscape:window-x="-11"
     inkscape:window-y="-11"
     inkscape:window-maximized="1"
     inkscape:current-layer="svg9" />
  <!--U+5229-->
  <defs
     id="genericDefs" />
  <g
     id="g7"
     transform="matrix(0.39469036,0,0,0.38142649,-5.6210988,-55.304322)">
    <g
       id="g5">
      <path
         d="m 264.9375,378.9844 q 0,6.75 -5.9766,14.9062 -5.9765,8.1563 -20.039,8.1563 l -35.8594,-0.2813 -6.8906,-23.625 39.0937,1.6875 q 6.8906,-1.6875 6.8906,-6.8906 v -225 h 22.7813 z m -87.1875,-49.7813 -19.125,15.75 Q 140.3438,309.0938 115.1719,288.2812 V 405.1406 H 93.375 V 289.4062 Q 79.4531,321.6094 35.7188,362.25 L 16.4531,348.4688 Q 66.7969,304.5938 90.1406,246.5156 H 27.9844 v -21.0937 h 64.4062 v -37.4063 q -26.2968,5.2032 -55.8281,5.2032 l -11.25,-21.6563 q 85.0781,-2.5313 138.5156,-20.1094 l 12.9375,18.4219 q -36.8437,11.5312 -62.4375,15.6094 v 39.9375 h 60.75 v 21.0937 h -60.75 v 24.75 l 7.4531,-5.4844 q 39.375,32.9063 55.9688,63.4219 z m 31.3594,20.9531 H 187.1719 V 181.9688 h 21.9375 z"
         id="path3"
         inkscape:connector-curvature="0"
         style="stroke:none" />
    </g>
  </g>
</svg>
