<?xml version="1.0" encoding="UTF-8" standalone="no"?>
<svg
   xmlns:dc="http://purl.org/dc/elements/1.1/"
   xmlns:cc="http://creativecommons.org/ns#"
   xmlns:rdf="http://www.w3.org/1999/02/22-rdf-syntax-ns#"
   xmlns:svg="http://www.w3.org/2000/svg"
   xmlns="http://www.w3.org/2000/svg"
   xmlns:sodipodi="http://sodipodi.sourceforge.net/DTD/sodipodi-0.dtd"
   xmlns:inkscape="http://www.inkscape.org/namespaces/inkscape"
   fill-opacity="1"
   color-rendering="auto"
   color-interpolation="auto"
   text-rendering="auto"
   stroke="black"
   stroke-linecap="square"
   stroke-miterlimit="10"
   shape-rendering="auto"
   stroke-opacity="1"
   fill="black"
   stroke-dasharray="none"
   font-weight="normal"
   stroke-width="1"
   font-family="'Dialog'"
   font-style="normal"
   stroke-linejoin="miter"
   font-size="12"
   stroke-dashoffset="0"
   image-rendering="auto"
   version="1.1"
   id="svg9"
   sodipodi:docname="manyougana-katakana_letter_nu.svg"
   inkscape:version="0.92.4 (5da689c313, 2019-01-14)"
   width="100%"
   height="100%"
   viewBox="0 0 100 100"
   preserveAspectRatio="xMidYMid meet"
   >
  <metadata
     id="metadata13">
    <rdf:RDF>
      <cc:Work
         rdf:about="">
        <dc:format>image/svg+xml</dc:format>
        <dc:type
           rdf:resource="http://purl.org/dc/dcmitype/StillImage" />
      </cc:Work>
    </rdf:RDF>
  </metadata>
  <sodipodi:namedview
     pagecolor="#ffffff"
     bordercolor="#666666"
     borderopacity="1"
     objecttolerance="10"
     gridtolerance="10"
     guidetolerance="10"
     inkscape:pageopacity="0"
     inkscape:pageshadow="2"
     inkscape:window-width="1920"
     inkscape:window-height="986"
     id="namedview11"
     showgrid="false"
     inkscape:zoom="2.36"
     inkscape:cx="50"
     inkscape:cy="50"
     inkscape:window-x="-11"
     inkscape:window-y="-11"
     inkscape:window-maximized="1"
     inkscape:current-layer="svg9" />
  <!--U+5974-->
  <defs
     id="genericDefs" />
  <g
     id="g7"
     transform="matrix(0.38907928,0,0,0.38540363,-6.2946337,-56.934257)">
    <g
       id="g5">
      <path
         d="m 144.5625,203.9062 q -9.8437,82.2657 -35.4375,124.5938 22.5,17.1562 32.3438,25.7344 l -15.3282,16.7344 Q 101.8125,349.0312 97.3125,347.0625 72.7031,379.8281 35.4375,405.1406 L 18.4219,388.6875 q 38.3906,-23.3437 60.75,-52.875 -18.1407,-12.375 -44.8594,-21.375 19.8281,-47.25 29.1094,-89.5781 H 27.9844 v -20.9532 h 40.5 q 4.0781,-16.3124 9.8437,-53.8593 l 21.9375,5.7656 -9.5625,48.0937 z m -23.9063,20.9532 h -34.875 q -10.4062,43.1718 -24.1874,78.3281 13.5,5.0625 29.9531,14.4844 18.7031,-34.0313 29.1093,-92.8125 z M 273.375,387.8438 255.2344,404.0156 Q 214.5938,372.0938 195.6094,342.7031 172.125,372.6562 132.75,404.8594 L 115.4531,387.8438 Q 161.2969,355.5 183.7969,323.1562 158.9062,276.4688 150.6094,188.2969 h -15.4688 v -20.9531 h 117.4219 q -7.7344,102.7968 -42.3281,156.375 21.7968,34.7343 63.1406,64.125 z m -45,-199.5469 h -54.7031 q 6.0469,72.5625 25.3125,114.8906 21.6562,-41.0625 29.3906,-114.8906 z"
         id="path3"
         inkscape:connector-curvature="0"
         style="stroke:none" />
    </g>
  </g>
</svg>
