<?xml version="1.0" encoding="UTF-8" standalone="no"?>
<svg
   xmlns:dc="http://purl.org/dc/elements/1.1/"
   xmlns:cc="http://creativecommons.org/ns#"
   xmlns:rdf="http://www.w3.org/1999/02/22-rdf-syntax-ns#"
   xmlns:svg="http://www.w3.org/2000/svg"
   xmlns="http://www.w3.org/2000/svg"
   xmlns:sodipodi="http://sodipodi.sourceforge.net/DTD/sodipodi-0.dtd"
   xmlns:inkscape="http://www.inkscape.org/namespaces/inkscape"
   fill-opacity="1"
   color-rendering="auto"
   color-interpolation="auto"
   text-rendering="auto"
   stroke="black"
   stroke-linecap="square"
   stroke-miterlimit="10"
   shape-rendering="auto"
   stroke-opacity="1"
   fill="black"
   stroke-dasharray="none"
   font-weight="normal"
   stroke-width="1"
   font-family="'Dialog'"
   font-style="normal"
   stroke-linejoin="miter"
   font-size="12"
   stroke-dashoffset="0"
   image-rendering="auto"
   version="1.1"
   id="svg9"
   sodipodi:docname="manyougana-katakana_letter_me.svg"
   inkscape:version="0.92.4 (5da689c313, 2019-01-14)"
   width="100%"
   height="100%"
   viewBox="0 0 100 100"
   preserveAspectRatio="xMidYMid meet"
   >
  <metadata
     id="metadata13">
    <rdf:RDF>
      <cc:Work
         rdf:about="">
        <dc:format>image/svg+xml</dc:format>
        <dc:type
           rdf:resource="http://purl.org/dc/dcmitype/StillImage" />
      </cc:Work>
    </rdf:RDF>
  </metadata>
  <sodipodi:namedview
     pagecolor="#ffffff"
     bordercolor="#666666"
     borderopacity="1"
     objecttolerance="10"
     gridtolerance="10"
     guidetolerance="10"
     inkscape:pageopacity="0"
     inkscape:pageshadow="2"
     inkscape:window-width="1920"
     inkscape:window-height="986"
     id="namedview11"
     showgrid="false"
     inkscape:zoom="2.36"
     inkscape:cx="50"
     inkscape:cy="50"
     inkscape:window-x="-11"
     inkscape:window-y="-11"
     inkscape:window-maximized="1"
     inkscape:current-layer="svg9" />
  <!--U+5973-->
  <defs
     id="genericDefs" />
  <g
     id="g7"
     transform="matrix(0.40984398,0,0,0.38445686,-8.2749947,-55.160826)">
    <g
       id="g5">
      <path
         d="M 262.4062,378.4219 248.4844,398.25 Q 209.25,368.1562 153.2812,348.4688 109.125,386.8594 37.6875,401.2031 L 24.75,379.8281 Q 92.25,366.4688 128.3906,338.9062 97.1719,328.2188 58.7812,319.6406 79.875,282.9375 100.2656,235.5469 H 37.6875 v -21.9375 h 71.4375 q 15.0469,-33.4688 26.2969,-68.4844 l 21.5156,9.4219 -23.0625,59.0625 h 126.7031 v 21.9375 h -38.5312 q -22.9219,64.2656 -51.6094,94.7812 63.1406,24.1875 91.9687,48.0938 z m -66.2343,-142.875 h -71.1563 q -7.875,18.9843 -32.9062,70.5937 52.4531,14.7656 55.6875,15.75 28.8281,-27.9844 48.375,-86.3437 z"
         id="path3"
         inkscape:connector-curvature="0"
         style="stroke:none" />
    </g>
  </g>
</svg>
