<?xml version="1.0" encoding="UTF-8" standalone="no"?>
<svg
   xmlns:dc="http://purl.org/dc/elements/1.1/"
   xmlns:cc="http://creativecommons.org/ns#"
   xmlns:rdf="http://www.w3.org/1999/02/22-rdf-syntax-ns#"
   xmlns:svg="http://www.w3.org/2000/svg"
   xmlns="http://www.w3.org/2000/svg"
   xmlns:sodipodi="http://sodipodi.sourceforge.net/DTD/sodipodi-0.dtd"
   xmlns:inkscape="http://www.inkscape.org/namespaces/inkscape"
   fill-opacity="1"
   color-rendering="auto"
   color-interpolation="auto"
   text-rendering="auto"
   stroke="black"
   stroke-linecap="square"
   stroke-miterlimit="10"
   shape-rendering="auto"
   stroke-opacity="1"
   fill="black"
   stroke-dasharray="none"
   font-weight="normal"
   stroke-width="1"
   font-family="'Dialog'"
   font-style="normal"
   stroke-linejoin="miter"
   font-size="12"
   stroke-dashoffset="0"
   image-rendering="auto"
   version="1.1"
   id="svg9"
   sodipodi:docname="manyougana-katakana_letter_wo.svg"
   inkscape:version="0.92.4 (5da689c313, 2019-01-14)"
   width="100%"
   height="100%"
   viewBox="0 0 100 100"
   preserveAspectRatio="xMidYMid meet"
   >
  <metadata
     id="metadata13">
    <rdf:RDF>
      <cc:Work
         rdf:about="">
        <dc:format>image/svg+xml</dc:format>
        <dc:type
           rdf:resource="http://purl.org/dc/dcmitype/StillImage" />
      </cc:Work>
    </rdf:RDF>
  </metadata>
  <sodipodi:namedview
     pagecolor="#ffffff"
     bordercolor="#666666"
     borderopacity="1"
     objecttolerance="10"
     gridtolerance="10"
     guidetolerance="10"
     inkscape:pageopacity="0"
     inkscape:pageshadow="2"
     inkscape:window-width="1920"
     inkscape:window-height="986"
     id="namedview11"
     showgrid="false"
     inkscape:zoom="2.36"
     inkscape:cx="50"
     inkscape:cy="50"
     inkscape:window-x="-11"
     inkscape:window-y="-11"
     inkscape:window-maximized="1"
     inkscape:current-layer="svg9" />
  <!--U+4E4E-->
  <defs
     id="genericDefs" />
  <g
     id="g7"
     transform="matrix(0.40692338,0,0,0.38347941,-9.5774334,-55.827385)">
    <g
       id="g5">
      <path
         d="M 266.0625,283.6406 H 160.1719 v 92.9532 q 0,27.7031 -33.4688,27.7031 h -23.9062 l -10.6875,-23.625 q 26.4375,1.8281 32.4844,1.8281 12.7968,0 12.7968,-7.5938 V 283.6406 H 26.7188 V 261.7031 H 137.3906 V 187.7344 L 42.3281,192.375 30.7969,171.8438 Q 188.1562,169.3125 240.75,147.9375 l 14.4844,15.3281 q -30.375,14.9063 -95.0625,22.7813 v 75.6562 H 266.0625 Z M 239.625,188.8594 q -11.3906,33.75 -45.8438,68.625 l -19.8281,-12.375 q 33.4688,-30.0938 46.9688,-65.6719 z M 112.0781,247.9219 91.5469,258.6094 Q 75.9375,223.4531 48.375,205.3125 l 16.7344,-13.2187 q 11.6718,6.6093 26.9297,25.1015 15.2578,18.4922 20.039,30.7266 z"
         id="path3"
         inkscape:connector-curvature="0"
         style="stroke:none" />
    </g>
  </g>
</svg>
