<?xml version="1.0" encoding="UTF-8" standalone="no"?>
<svg
   xmlns:dc="http://purl.org/dc/elements/1.1/"
   xmlns:cc="http://creativecommons.org/ns#"
   xmlns:rdf="http://www.w3.org/1999/02/22-rdf-syntax-ns#"
   xmlns:svg="http://www.w3.org/2000/svg"
   xmlns="http://www.w3.org/2000/svg"
   xmlns:sodipodi="http://sodipodi.sourceforge.net/DTD/sodipodi-0.dtd"
   xmlns:inkscape="http://www.inkscape.org/namespaces/inkscape"
   fill-opacity="1"
   color-rendering="auto"
   color-interpolation="auto"
   text-rendering="auto"
   stroke="black"
   stroke-linecap="square"
   stroke-miterlimit="10"
   shape-rendering="auto"
   stroke-opacity="1"
   fill="black"
   stroke-dasharray="none"
   font-weight="normal"
   stroke-width="1"
   font-family="'Dialog'"
   font-style="normal"
   stroke-linejoin="miter"
   font-size="12"
   stroke-dashoffset="0"
   image-rendering="auto"
   version="1.1"
   id="svg9"
   sodipodi:docname="manyougana-katakana_letter_yo.svg"
   inkscape:version="0.92.4 (5da689c313, 2019-01-14)">
  <metadata
     id="metadata13">
    <rdf:RDF>
      <cc:Work
         rdf:about="">
        <dc:format>image/svg+xml</dc:format>
        <dc:type
           rdf:resource="http://purl.org/dc/dcmitype/StillImage" />
      </cc:Work>
    </rdf:RDF>
  </metadata>
  <sodipodi:namedview
     pagecolor="#ffffff"
     bordercolor="#666666"
     borderopacity="1"
     objecttolerance="10"
     gridtolerance="10"
     guidetolerance="10"
     inkscape:pageopacity="0"
     inkscape:pageshadow="2"
     inkscape:window-width="1920"
     inkscape:window-height="986"
     id="namedview11"
     showgrid="false"
     inkscape:zoom="2.36"
     inkscape:cx="50"
     inkscape:cy="50"
     inkscape:window-x="-11"
     inkscape:window-y="-11"
     inkscape:window-maximized="1"
     inkscape:current-layer="svg9" />
  <!--U+8207-->
  <defs
     id="genericDefs" />
  <g
     id="g7"
     transform="matrix(0.3713158,0,0,0.37299816,-2.920008,-52.650425)">
    <g
       id="g5">
      <path
         d="M 267.6094,336.6562 H 25.5938 V 315.5625 H 44.8594 L 32.4844,176.4844 q 45.2812,-9.8438 66.9375,-25.875 l 12.375,18.7031 q -22.2188,13.9219 -55.6875,23.625 L 58.5,212.4844 h 48.0938 v 21.0937 H 59.625 q 2.8125,19.6875 2.8125,29.3907 h 44.1563 v 20.9531 H 64.8281 l 2.8125,31.6406 h 46.6875 v -62.1563 h 21.9375 v 62.1563 h 22.0782 V 244.4062 H 114.3281 V 145.125 h 21.9375 v 28.8281 h 42.8906 v 20.9531 h -42.8906 v 28.5469 h 44.0156 v 92.1094 h 43.4532 l 4.3594,-32.7656 h -40.3594 v -21.0938 h 42.0468 l 3.2344,-29.3906 h -45.2812 v -20.9531 h 46.6875 l 3.2343,-26.5782 h -55.9687 v -20.9531 h 79.875 l -15.0469,151.7344 h 21.0938 z m 7.4531,50.0626 -12.0937,19.2656 q -51.0469,-15.75 -95.0626,-49.2188 L 178.875,337.5 q 57.2344,35.8594 96.1875,49.2188 z M 125.0156,355.6406 Q 87.1875,384.0469 25.3125,404.2969 L 11.5312,384.4688 q 65.8126,-21.2344 98.7188,-46.125 z"
         id="path3"
         inkscape:connector-curvature="0"
         style="stroke:none" />
    </g>
  </g>
</svg>
