<?xml version="1.0" encoding="UTF-8" standalone="no"?>
<svg
   xmlns:dc="http://purl.org/dc/elements/1.1/"
   xmlns:cc="http://creativecommons.org/ns#"
   xmlns:rdf="http://www.w3.org/1999/02/22-rdf-syntax-ns#"
   xmlns:svg="http://www.w3.org/2000/svg"
   xmlns="http://www.w3.org/2000/svg"
   xmlns:sodipodi="http://sodipodi.sourceforge.net/DTD/sodipodi-0.dtd"
   xmlns:inkscape="http://www.inkscape.org/namespaces/inkscape"
   fill-opacity="1"
   color-rendering="auto"
   color-interpolation="auto"
   text-rendering="auto"
   stroke="black"
   stroke-linecap="square"
   stroke-miterlimit="10"
   shape-rendering="auto"
   stroke-opacity="1"
   fill="black"
   stroke-dasharray="none"
   font-weight="normal"
   stroke-width="1"
   font-family="'Dialog'"
   font-style="normal"
   stroke-linejoin="miter"
   font-size="12"
   stroke-dashoffset="0"
   image-rendering="auto"
   version="1.1"
   id="svg9"
   sodipodi:docname="manyougana-katakana_letter_mu.svg"
   inkscape:version="0.92.4 (5da689c313, 2019-01-14)">
  <metadata
     id="metadata13">
    <rdf:RDF>
      <cc:Work
         rdf:about="">
        <dc:format>image/svg+xml</dc:format>
        <dc:type
           rdf:resource="http://purl.org/dc/dcmitype/StillImage" />
      </cc:Work>
    </rdf:RDF>
  </metadata>
  <sodipodi:namedview
     pagecolor="#ffffff"
     bordercolor="#666666"
     borderopacity="1"
     objecttolerance="10"
     gridtolerance="10"
     guidetolerance="10"
     inkscape:pageopacity="0"
     inkscape:pageshadow="2"
     inkscape:window-width="1920"
     inkscape:window-height="986"
     id="namedview11"
     showgrid="false"
     inkscape:zoom="2.36"
     inkscape:cx="50"
     inkscape:cy="50"
     inkscape:window-x="-11"
     inkscape:window-y="-11"
     inkscape:window-maximized="1"
     inkscape:current-layer="svg9" />
  <!--U+725F-->
  <defs
     id="genericDefs" />
  <g
     id="g7"
     transform="matrix(0.37595847,0,0,0.37023501,-4.4176798,-51.636298)">
    <g
       id="g5">
      <path
         d="m 253.125,231.4688 -18.4219,12.6562 q -5.9062,-10.6875 -16.7343,-23.3438 l -158.3438,6.1876 -8.0156,-21.375 h 28.125 q 25.1718,-27 45,-62.8594 l 22.0781,10.6875 q -18.5625,29.6719 -38.5313,51.6093 l 93.375,-2.6718 q -10.2656,-10.4063 -34.0312,-24.75 l 18.7031,-12.375 q 43.7344,26.1562 66.7969,66.2344 z m 19.5469,102.2343 H 160.4531 v 71.4375 H 137.6719 V 333.7031 H 15.3281 v -21.7969 h 122.3438 v -30.5156 h -58.5 q -9.8438,11.3906 -31.0781,28.9688 L 28.5469,295.4531 Q 69.3281,270.9844 81.5625,231.75 l 19.8281,7.3125 q -3.5156,11.25 -9.2812,21.2344 h 45.2812 v -30.5157 h 22.7813 v 30.5157 h 79.1719 v 21.0937 h -79.1719 v 30.5156 h 112.5 z"
         id="path3"
         inkscape:connector-curvature="0"
         style="stroke:none" />
    </g>
  </g>
</svg>
