<?xml version="1.0" encoding="UTF-8" standalone="no"?>
<svg
   xmlns:dc="http://purl.org/dc/elements/1.1/"
   xmlns:cc="http://creativecommons.org/ns#"
   xmlns:rdf="http://www.w3.org/1999/02/22-rdf-syntax-ns#"
   xmlns:svg="http://www.w3.org/2000/svg"
   xmlns="http://www.w3.org/2000/svg"
   xmlns:sodipodi="http://sodipodi.sourceforge.net/DTD/sodipodi-0.dtd"
   xmlns:inkscape="http://www.inkscape.org/namespaces/inkscape"
   fill-opacity="1"
   color-rendering="auto"
   color-interpolation="auto"
   text-rendering="auto"
   stroke="black"
   stroke-linecap="square"
   stroke-miterlimit="10"
   shape-rendering="auto"
   stroke-opacity="1"
   fill="black"
   stroke-dasharray="none"
   font-weight="normal"
   stroke-width="1"
   font-family="'Dialog'"
   font-style="normal"
   stroke-linejoin="miter"
   font-size="12"
   stroke-dashoffset="0"
   image-rendering="auto"
   version="1.1"
   id="svg9"
   sodipodi:docname="manyougana-katakana_letter_n.svg"
   inkscape:version="0.92.4 (5da689c313, 2019-01-14)">
  <metadata
     id="metadata13">
    <rdf:RDF>
      <cc:Work
         rdf:about="">
        <dc:format>image/svg+xml</dc:format>
        <dc:type
           rdf:resource="http://purl.org/dc/dcmitype/StillImage" />
      </cc:Work>
    </rdf:RDF>
  </metadata>
  <sodipodi:namedview
     pagecolor="#ffffff"
     bordercolor="#666666"
     borderopacity="1"
     objecttolerance="10"
     gridtolerance="10"
     guidetolerance="10"
     inkscape:pageopacity="0"
     inkscape:pageshadow="2"
     inkscape:window-width="1920"
     inkscape:window-height="986"
     id="namedview11"
     showgrid="false"
     inkscape:zoom="2.36"
     inkscape:cx="50"
     inkscape:cy="50"
     inkscape:window-x="-11"
     inkscape:window-y="-11"
     inkscape:window-maximized="1"
     inkscape:current-layer="svg9" />
  <!--U+5C13-->
  <defs
     id="genericDefs" />
  <g
     id="g7"
     transform="matrix(0.38527054,0,0,0.38017368,-5.2179765,-55.088971)">
    <g
       id="g5">
      <path
         d="M 260.2969,216 H 86.9062 Q 69.75,242.7188 38.25,269.5781 L 20.1094,253.9688 q 21.2344,-14.625 42.539,-45.1407 21.3047,-30.5156 30.0235,-61.1719 l 21.9375,8.1563 q -5.2032,19.2656 -17.5782,39.0937 H 260.2969 Z M 159.6094,386.1562 q 0,8.1563 -6.0469,13.0079 -6.0469,4.8515 -15.0469,4.8515 h -29.9531 l -7.1719,-22.2187 q 20.6719,2.3906 27.7032,2.3906 8.5781,0 8.5781,-3.7969 v -157.5 h 21.9375 z m 109.6875,-27.7031 -21.0938,13.9219 q -22.0781,-59.2031 -63,-98.2969 l 17.8594,-12.6562 q 42.75,36.8437 66.2344,97.0312 z M 108.5625,274.3594 Q 85.3594,330.0469 34.5938,372.375 L 17.0156,354.5156 q 46.125,-35.1562 70.875,-91.9687 z"
         id="path3"
         inkscape:connector-curvature="0"
         style="stroke:none" />
    </g>
  </g>
</svg>
