<?xml version="1.0" encoding="UTF-8" standalone="no"?>
<svg
   xmlns:dc="http://purl.org/dc/elements/1.1/"
   xmlns:cc="http://creativecommons.org/ns#"
   xmlns:rdf="http://www.w3.org/1999/02/22-rdf-syntax-ns#"
   xmlns:svg="http://www.w3.org/2000/svg"
   xmlns="http://www.w3.org/2000/svg"
   xmlns:sodipodi="http://sodipodi.sourceforge.net/DTD/sodipodi-0.dtd"
   xmlns:inkscape="http://www.inkscape.org/namespaces/inkscape"
   fill-opacity="1"
   color-rendering="auto"
   color-interpolation="auto"
   text-rendering="auto"
   stroke="black"
   stroke-linecap="square"
   stroke-miterlimit="10"
   shape-rendering="auto"
   stroke-opacity="1"
   fill="black"
   stroke-dasharray="none"
   font-weight="normal"
   stroke-width="1"
   font-family="'Dialog'"
   font-style="normal"
   stroke-linejoin="miter"
   font-size="12"
   stroke-dashoffset="0"
   image-rendering="auto"
   version="1.1"
   id="svg9"
   sodipodi:docname="manyougana_katakana_letter_a.svg"
   inkscape:version="0.92.4 (5da689c313, 2019-01-14)"
   width="100%"
   height="100%"
   viewBox="0 0 100 100"
   preserveAspectRatio="xMidYMid meet"
   >
  <metadata
     id="metadata13">
    <rdf:RDF>
      <cc:Work
         rdf:about="">
        <dc:format>image/svg+xml</dc:format>
        <dc:type
           rdf:resource="http://purl.org/dc/dcmitype/StillImage" />
      </cc:Work>
    </rdf:RDF>
  </metadata>
  <sodipodi:namedview
     pagecolor="#ffffff"
     bordercolor="#666666"
     borderopacity="1"
     objecttolerance="10"
     gridtolerance="10"
     guidetolerance="10"
     inkscape:pageopacity="0"
     inkscape:pageshadow="2"
     inkscape:window-width="1920"
     inkscape:window-height="986"
     id="namedview11"
     showgrid="false"
     inkscape:zoom="2.36"
     inkscape:cx="219.08847"
     inkscape:cy="19.800289"
     inkscape:window-x="-11"
     inkscape:window-y="-11"
     inkscape:window-maximized="1"
     inkscape:current-layer="svg9" />
  <!--U+963F-->
  <defs
     id="genericDefs" />
  <g
     id="g7"
     transform="matrix(0.41328254,0,0,0.40171455,-10.248938,-63.984414)">
    <g
       id="g5">
      <path
         d="m 266.9062,182.8125 h -23.7656 v 197.5781 q 0,25.0313 -19.9687,25.0313 h -36 l -7.4531,-23.0625 27,1.2656 q 8.1562,0.2812 11.3203,-1.3359 3.164,-1.6172 3.164,-7.6641 V 182.8125 H 108.5625 v -20.9531 h 158.3437 z m -183.375,63.7031 q 26.1563,25.7344 26.1563,53.8594 0,10.9688 -3.7969,20.4609 -3.7968,9.4922 -11.3203,14.2032 -7.5234,4.7109 -26.0859,4.7109 -8.2969,0 -11.8125,-0.2812 L 48.375,319.9219 v 87.6093 H 26.7188 V 161.8594 h 78.0468 v 19.2656 z m -34.875,69.0469 24.75,2.8125 q 14.4844,0 14.4844,-17.4375 Q 87.8906,274.5 60.1875,252 l 22.5,-69.1875 H 48.6562 Z m 153.2813,32.3437 H 180 v -16.4531 h -37.4062 v 16.4531 H 120.6562 V 218.25 h 81.2813 z M 180,310.3594 v -71.0156 h -37.4062 v 71.0156 z"
         id="path3"
         inkscape:connector-curvature="0"
         style="stroke:none" />
    </g>
  </g>
</svg>
