<?xml version="1.0" encoding="UTF-8" standalone="no"?>
<svg
   xmlns:dc="http://purl.org/dc/elements/1.1/"
   xmlns:cc="http://creativecommons.org/ns#"
   xmlns:rdf="http://www.w3.org/1999/02/22-rdf-syntax-ns#"
   xmlns:svg="http://www.w3.org/2000/svg"
   xmlns="http://www.w3.org/2000/svg"
   xmlns:sodipodi="http://sodipodi.sourceforge.net/DTD/sodipodi-0.dtd"
   xmlns:inkscape="http://www.inkscape.org/namespaces/inkscape"
   fill-opacity="1"
   color-rendering="auto"
   color-interpolation="auto"
   text-rendering="auto"
   stroke="black"
   stroke-linecap="square"
   stroke-miterlimit="10"
   shape-rendering="auto"
   stroke-opacity="1"
   fill="black"
   stroke-dasharray="none"
   font-weight="normal"
   stroke-width="1"
   font-family="'Dialog'"
   font-style="normal"
   stroke-linejoin="miter"
   font-size="12"
   stroke-dashoffset="0"
   image-rendering="auto"
   version="1.1"
   id="svg9"
   sodipodi:docname="manyougana-katakana_letter_o.svg"
   inkscape:version="0.92.4 (5da689c313, 2019-01-14)">
  <metadata
     id="metadata13">
    <rdf:RDF>
      <cc:Work
         rdf:about="">
        <dc:format>image/svg+xml</dc:format>
        <dc:type
           rdf:resource="http://purl.org/dc/dcmitype/StillImage" />
      </cc:Work>
    </rdf:RDF>
  </metadata>
  <sodipodi:namedview
     pagecolor="#ffffff"
     bordercolor="#666666"
     borderopacity="1"
     objecttolerance="10"
     gridtolerance="10"
     guidetolerance="10"
     inkscape:pageopacity="0"
     inkscape:pageshadow="2"
     inkscape:window-width="1920"
     inkscape:window-height="986"
     id="namedview11"
     showgrid="false"
     inkscape:zoom="3.337544"
     inkscape:cx="70.229489"
     inkscape:cy="33.121408"
     inkscape:window-x="-11"
     inkscape:window-y="-11"
     inkscape:window-maximized="1"
     inkscape:current-layer="svg9" />
  <!--U+65BC-->
  <defs
     id="genericDefs" />
  <g
     id="g7"
     transform="matrix(0.36510255,0,0,0.37861215,-2.6697628,-54.683607)">
    <g
       id="g5">
      <path
         d="m 278.1562,276.4688 -15.4687,15.1874 Q 221.0625,255.2344 202.5,204.1875 187.1719,252.9844 146.8125,291.6562 L 133.875,281.1094 q 0,28.125 -3.2344,62.6484 -3.2344,34.5234 -11.3906,45.0703 -8.1562,10.5469 -22.5,10.5469 -10.6875,0 -24.75,-3.0938 L 66.5156,372.375 q 20.8125,5.3438 27.1406,5.3438 6.1876,0 9.6329,-8.1563 3.4453,-8.1563 6.1875,-36.0703 2.7422,-27.9141 2.3203,-51.8203 H 73.6875 Q 72.9844,359.5781 29.9531,403.7344 L 11.8125,389.3906 Q 27.9844,373.9219 36.9844,355.5 q 9,-18.4219 11.7422,-36.1406 2.7422,-17.7188 3.4453,-49.7813 L 53.2969,216 H 20.3906 v -21.375 h 58.2188 v -46.6875 h 21.9375 v 46.6875 h 54.4219 V 216 H 74.5312 v 45.1406 h 59.3438 v 12.375 Q 177.75,233.4375 192.375,148.5 l 21.6562,4.3594 -2.3906,16.7344 q 20.6719,66.7968 66.5156,106.875 z M 245.6719,302.625 229.5,318.5156 Q 209.9531,286.875 174.7969,263.8125 l 14.7656,-13.9219 q 37.9687,24.6094 56.1094,52.7344 z m -0.5625,86.0625 -19.2656,14.2031 Q 199.8281,351 156.0938,320.7656 l 16.7343,-13.7812 q 48.9375,34.875 72.2813,81.7031 z"
         id="path3"
         inkscape:connector-curvature="0"
         style="stroke:none" />
    </g>
  </g>
</svg>
