<?xml version="1.0" encoding="UTF-8" standalone="no"?>
<svg
   xmlns:dc="http://purl.org/dc/elements/1.1/"
   xmlns:cc="http://creativecommons.org/ns#"
   xmlns:rdf="http://www.w3.org/1999/02/22-rdf-syntax-ns#"
   xmlns:svg="http://www.w3.org/2000/svg"
   xmlns="http://www.w3.org/2000/svg"
   xmlns:sodipodi="http://sodipodi.sourceforge.net/DTD/sodipodi-0.dtd"
   xmlns:inkscape="http://www.inkscape.org/namespaces/inkscape"
   fill-opacity="1"
   color-rendering="auto"
   color-interpolation="auto"
   text-rendering="auto"
   stroke="black"
   stroke-linecap="square"
   stroke-miterlimit="10"
   shape-rendering="auto"
   stroke-opacity="1"
   fill="black"
   stroke-dasharray="none"
   font-weight="normal"
   stroke-width="1"
   font-family="'Dialog'"
   font-style="normal"
   stroke-linejoin="miter"
   font-size="12"
   stroke-dashoffset="0"
   image-rendering="auto"
   version="1.1"
   id="svg9"
   sodipodi:docname="manyougana-katakana_letter_re.svg"
   inkscape:version="0.92.4 (5da689c313, 2019-01-14)">
  <metadata
     id="metadata13">
    <rdf:RDF>
      <cc:Work
         rdf:about="">
        <dc:format>image/svg+xml</dc:format>
        <dc:type
           rdf:resource="http://purl.org/dc/dcmitype/StillImage" />
      </cc:Work>
    </rdf:RDF>
  </metadata>
  <sodipodi:namedview
     pagecolor="#ffffff"
     bordercolor="#666666"
     borderopacity="1"
     objecttolerance="10"
     gridtolerance="10"
     guidetolerance="10"
     inkscape:pageopacity="0"
     inkscape:pageshadow="2"
     inkscape:window-width="1920"
     inkscape:window-height="986"
     id="namedview11"
     showgrid="false"
     inkscape:zoom="3.337544"
     inkscape:cx="56.453579"
     inkscape:cy="59.059833"
     inkscape:window-x="-11"
     inkscape:window-y="-11"
     inkscape:window-maximized="1"
     inkscape:current-layer="svg9" />
  <!--U+793C-->
  <defs
     id="genericDefs" />
  <g
     id="g7"
     transform="matrix(0.37289726,0,0,0.38951268,-3.9880365,-57.992046)">
    <g
       id="g5">
      <path
         d="m 276.75,349.3125 q -6.8906,31.2187 -15.0469,38.9531 Q 253.5469,396 241.875,396 H 194.3438 Q 167.625,396 167.625,368.8594 V 149.7656 h 21.9375 v 219.0938 q 0,7.1718 7.1719,7.1718 h 42.6094 q 13.2187,0 14.625,-35.7187 z M 122.3438,200.6719 Q 114.3281,243.5625 94.5,272.1094 V 402.8906 H 72.5625 V 294.6094 q -24.3281,24.75 -45.4219,36.5625 L 12.0938,312.1875 Q 75.6562,277.4531 94.5,221.7656 H 23.625 V 200.6719 H 72.5625 V 152.0156 H 94.5 v 48.6563 z m 26.2968,109.4062 -18.7031,14.2031 Q 117.1406,299.3906 98.1562,281.6719 l 15.3282,-13.3594 q 14.625,11.8125 35.1562,41.7656 z"
         id="path3"
         inkscape:connector-curvature="0"
         style="stroke:none" />
    </g>
  </g>
</svg>
