<?xml version="1.0" encoding="UTF-8" standalone="no"?>
<svg
   xmlns:dc="http://purl.org/dc/elements/1.1/"
   xmlns:cc="http://creativecommons.org/ns#"
   xmlns:rdf="http://www.w3.org/1999/02/22-rdf-syntax-ns#"
   xmlns:svg="http://www.w3.org/2000/svg"
   xmlns="http://www.w3.org/2000/svg"
   xmlns:sodipodi="http://sodipodi.sourceforge.net/DTD/sodipodi-0.dtd"
   xmlns:inkscape="http://www.inkscape.org/namespaces/inkscape"
   fill-opacity="1"
   color-rendering="auto"
   color-interpolation="auto"
   text-rendering="auto"
   stroke="black"
   stroke-linecap="square"
   stroke-miterlimit="10"
   shape-rendering="auto"
   stroke-opacity="1"
   fill="black"
   stroke-dasharray="none"
   font-weight="normal"
   stroke-width="1"
   font-family="'Dialog'"
   font-style="normal"
   stroke-linejoin="miter"
   font-size="12"
   stroke-dashoffset="0"
   image-rendering="auto"
   version="1.1"
   id="svg9"
   sodipodi:docname="manyougana-katakana_letter_ki2.svg"
   inkscape:version="0.92.4 (5da689c313, 2019-01-14)">
  <metadata
     id="metadata13">
    <rdf:RDF>
      <cc:Work
         rdf:about="">
        <dc:format>image/svg+xml</dc:format>
        <dc:type
           rdf:resource="http://purl.org/dc/dcmitype/StillImage" />
      </cc:Work>
    </rdf:RDF>
  </metadata>
  <sodipodi:namedview
     pagecolor="#ffffff"
     bordercolor="#666666"
     borderopacity="1"
     objecttolerance="10"
     gridtolerance="10"
     guidetolerance="10"
     inkscape:pageopacity="0"
     inkscape:pageshadow="2"
     inkscape:window-width="1920"
     inkscape:window-height="986"
     id="namedview11"
     showgrid="false"
     inkscape:zoom="2.36"
     inkscape:cx="50"
     inkscape:cy="-17.79661"
     inkscape:window-x="-11"
     inkscape:window-y="-11"
     inkscape:window-maximized="1"
     inkscape:current-layer="svg9" />
  <!--U+5E7E-->
  <defs
     id="genericDefs" />
  <g
     id="g7"
     transform="matrix(0.38063364,0,0,0.37978256,-5.6381402,-53.983886)">
    <g
       id="g5">
      <path
         d="m 275.9062,347.0625 q -5.4843,36.7031 -14.3437,45.7031 -8.8594,9 -20.1094,9 -23.9062,0 -56.8125,-29.3906 -39.9375,18.9844 -75.2344,26.7188 L 94.2188,380.1094 q 50.2031,-10.2656 75.6562,-22.7813 -14.9062,-17.7187 -21.5156,-40.6406 H 93.6562 l -1.2656,8.4375 q 33.4688,12.375 51.3282,27 l -13.7813,16.7344 q -16.0313,-12.6563 -41.4844,-23.625 -12.0937,36.4218 -55.6875,59.625 L 17.5781,386.7188 Q 64.9688,366.75 71.4375,316.6875 h -47.25 V 295.7344 H 142.5938 Q 133.875,258.4688 132.75,144.5625 l 21.375,0.5625 0.8438,65.1094 q 0,17.1562 2.8828,43.8047 2.8828,26.6484 6.8203,41.6953 h 42.0469 Q 199.5469,285.3281 193.5,279.2812 l 11.5312,-4.6406 -37.9687,3.2344 -6.8906,-22.2188 L 180,255.0938 q 8.2969,-7.5938 22.2188,-26.1563 -23.3438,-10.9687 -42.6094,-16.7344 l 9.7031,-20.3906 10.125,3.6563 q 16.0313,-18.5626 33.3281,-48.375 l 18.8438,11.5312 q -19.6875,27.9844 -33.75,44.0156 l 18.4218,8.4375 q 9.9844,-11.5312 25.875,-34.875 l 20.25,11.25 q -27.8437,37.4063 -56.25,66.2344 l 35.4376,-1.9687 q -2.5313,-7.3126 -9.4219,-19.125 l 18.9843,-6.6094 q 16.3126,24.6094 19.8282,52.1718 l -21.2344,6.0469 q 0,-5.625 -2.3906,-12.9375 l -31.0782,2.5313 q 11.1094,14.3437 13.5,21.9375 h 39.2344 v 20.9531 h -38.1094 l 14.2032,12.5156 q -15.0469,14.625 -41.7656,31.6407 9.8437,9.8437 20.25,14.414 10.4062,4.5703 14.625,4.5703 4.7812,0 8.6484,-4.5703 3.8672,-4.5703 8.9297,-38.8828 z m -46.9687,-30.375 h -58.2187 q 5.7656,16.7344 17.5781,29.3906 28.5469,-16.4531 40.6406,-29.3906 z m -95.625,-36.5625 -21.2344,6.0469 q 0,-5.625 -2.3906,-12.9375 L 29.3906,279.8438 22.5,257.7656 42.0469,256.7812 q 5.2031,-4.5 13.1484,-14.414 7.9453,-9.9141 9.3516,-11.461 Q 39.375,219.375 21.6562,214.1719 l 9.9844,-20.3907 9.8438,3.7969 q 15.1875,-17.1562 33.3281,-48.375 l 18.8437,11.3907 Q 73.125,190.2656 59.9062,204.75 l 18.7032,8.2969 q 9.9844,-11.5313 25.875,-34.875 l 20.25,11.25 q -28.6875,37.8281 -56.25,66.2343 l 35.4375,-1.9687 q -2.9531,-8.2969 -9.7031,-18.9844 l 19.2656,-6.6093 q 16.0312,24.75 19.8281,52.0312 z"
         id="path3"
         inkscape:connector-curvature="0"
         style="stroke:none" />
    </g>
  </g>
  <g
     transform="matrix(0.38063364,0,0,0.37978256,-5.6381402,-53.983886)"
     id="g19">
    <g
       id="g17">
      <path
         style="stroke:none"
         inkscape:connector-curvature="0"
         id="path15"
         d="m 275.9062,347.0625 q -5.4843,36.7031 -14.3437,45.7031 -8.8594,9 -20.1094,9 -23.9062,0 -56.8125,-29.3906 -39.9375,18.9844 -75.2344,26.7188 L 94.2188,380.1094 q 50.2031,-10.2656 75.6562,-22.7813 -14.9062,-17.7187 -21.5156,-40.6406 H 93.6562 l -1.2656,8.4375 q 33.4688,12.375 51.3282,27 l -13.7813,16.7344 q -16.0313,-12.6563 -41.4844,-23.625 -12.0937,36.4218 -55.6875,59.625 L 17.5781,386.7188 Q 64.9688,366.75 71.4375,316.6875 h -47.25 V 295.7344 H 142.5938 Q 133.875,258.4688 132.75,144.5625 l 21.375,0.5625 0.8438,65.1094 q 0,17.1562 2.8828,43.8047 2.8828,26.6484 6.8203,41.6953 h 42.0469 Q 199.5469,285.3281 193.5,279.2812 l 11.5312,-4.6406 -37.9687,3.2344 -6.8906,-22.2188 L 180,255.0938 q 8.2969,-7.5938 22.2188,-26.1563 -23.3438,-10.9687 -42.6094,-16.7344 l 9.7031,-20.3906 10.125,3.6563 q 16.0313,-18.5626 33.3281,-48.375 l 18.8438,11.5312 q -19.6875,27.9844 -33.75,44.0156 l 18.4218,8.4375 q 9.9844,-11.5312 25.875,-34.875 l 20.25,11.25 q -27.8437,37.4063 -56.25,66.2344 l 35.4376,-1.9687 q -2.5313,-7.3126 -9.4219,-19.125 l 18.9843,-6.6094 q 16.3126,24.6094 19.8282,52.1718 l -21.2344,6.0469 q 0,-5.625 -2.3906,-12.9375 l -31.0782,2.5313 q 11.1094,14.3437 13.5,21.9375 h 39.2344 v 20.9531 h -38.1094 l 14.2032,12.5156 q -15.0469,14.625 -41.7656,31.6407 9.8437,9.8437 20.25,14.414 10.4062,4.5703 14.625,4.5703 4.7812,0 8.6484,-4.5703 3.8672,-4.5703 8.9297,-38.8828 z m -46.9687,-30.375 h -58.2187 q 5.7656,16.7344 17.5781,29.3906 28.5469,-16.4531 40.6406,-29.3906 z m -95.625,-36.5625 -21.2344,6.0469 q 0,-5.625 -2.3906,-12.9375 L 29.3906,279.8438 22.5,257.7656 42.0469,256.7812 q 5.2031,-4.5 13.1484,-14.414 7.9453,-9.9141 9.3516,-11.461 Q 39.375,219.375 21.6562,214.1719 l 9.9844,-20.3907 9.8438,3.7969 q 15.1875,-17.1562 33.3281,-48.375 l 18.8437,11.3907 Q 73.125,190.2656 59.9062,204.75 l 18.7032,8.2969 q 9.9844,-11.5313 25.875,-34.875 l 20.25,11.25 q -28.6875,37.8281 -56.25,66.2343 l 35.4375,-1.9687 q -2.9531,-8.2969 -9.7031,-18.9844 l 19.2656,-6.6093 q 16.0312,24.75 19.8281,52.0312 z" />
    </g>
  </g>
</svg>
