<?xml version="1.0" encoding="UTF-8" standalone="no"?>
<svg
   xmlns:dc="http://purl.org/dc/elements/1.1/"
   xmlns:cc="http://creativecommons.org/ns#"
   xmlns:rdf="http://www.w3.org/1999/02/22-rdf-syntax-ns#"
   xmlns:svg="http://www.w3.org/2000/svg"
   xmlns="http://www.w3.org/2000/svg"
   xmlns:sodipodi="http://sodipodi.sourceforge.net/DTD/sodipodi-0.dtd"
   xmlns:inkscape="http://www.inkscape.org/namespaces/inkscape"
   fill-opacity="1"
   color-rendering="auto"
   color-interpolation="auto"
   text-rendering="auto"
   stroke="black"
   stroke-linecap="square"
   stroke-miterlimit="10"
   shape-rendering="auto"
   stroke-opacity="1"
   fill="black"
   stroke-dasharray="none"
   font-weight="normal"
   stroke-width="1"
   font-family="'Dialog'"
   font-style="normal"
   stroke-linejoin="miter"
   font-size="12"
   stroke-dashoffset="0"
   image-rendering="auto"
   version="1.1"
   id="svg9"
   sodipodi:docname="manyougana-katakana_letter_su.svg"
   inkscape:version="0.92.4 (5da689c313, 2019-01-14)">
  <metadata
     id="metadata13">
    <rdf:RDF>
      <cc:Work
         rdf:about="">
        <dc:format>image/svg+xml</dc:format>
        <dc:type
           rdf:resource="http://purl.org/dc/dcmitype/StillImage" />
      </cc:Work>
    </rdf:RDF>
  </metadata>
  <sodipodi:namedview
     pagecolor="#ffffff"
     bordercolor="#666666"
     borderopacity="1"
     objecttolerance="10"
     gridtolerance="10"
     guidetolerance="10"
     inkscape:pageopacity="0"
     inkscape:pageshadow="2"
     inkscape:window-width="1920"
     inkscape:window-height="986"
     id="namedview11"
     showgrid="false"
     inkscape:zoom="2.36"
     inkscape:cx="50"
     inkscape:cy="50"
     inkscape:window-x="-11"
     inkscape:window-y="-11"
     inkscape:window-maximized="1"
     inkscape:current-layer="svg9" />
  <!--U+9808-->
  <defs
     id="genericDefs" />
  <g
     id="g7"
     transform="matrix(0.37862348,0,0,0.38012622,-4.0479613,-55.793724)">
    <g
       id="g5">
      <path
         d="M 112.3594,164.1094 Q 75.375,213.75 34.875,237.7969 l -15.6094,-15.75 q 41.0625,-24.8907 77.7656,-71.4375 z m 159.75,17.2968 h -64.125 q -2.6719,7.4532 -10.9688,20.9532 h 54.7032 V 349.875 H 123.6094 V 202.3594 h 47.5312 q 9.9844,-13.0782 12.9375,-20.9532 h -70.5937 v -21.0937 h 158.625 z M 229.5,243.2812 v -19.5468 h -84.0938 v 19.5468 z m 0,42.3282 V 264.375 h -84.0938 v 21.2344 z m 0,43.1718 v -22.0781 h -84.0938 v 22.0781 z M 116.0156,241.5938 q -40.5,51.8906 -83.5312,72.2812 L 17.0156,297.9844 q 52.4532,-26.5782 83.25,-69.8906 3.6563,2.1093 8.8594,7.0312 5.2031,4.9219 6.8906,6.4688 z m 4.3594,79.4531 q -39.7969,58.3593 -89.8594,82.125 L 14.625,387 q 53.5781,-25.1719 89.5781,-79.1719 z m 152.0156,68.625 -14.0625,16.5937 q -26.0156,-23.4844 -66.2343,-37.125 5.2031,-9 11.5312,-17.2968 42.0469,13.2187 68.7656,37.8281 z M 179.4375,368.8594 Q 140.7656,396.7031 108,404.0156 L 95.3438,385.0312 q 34.5937,-6.6093 71.1562,-31.6406 z"
         id="path3"
         inkscape:connector-curvature="0"
         style="stroke:none" />
    </g>
  </g>
</svg>
