<?xml version="1.0" encoding="UTF-8" standalone="no"?>
<svg
   xmlns:dc="http://purl.org/dc/elements/1.1/"
   xmlns:cc="http://creativecommons.org/ns#"
   xmlns:rdf="http://www.w3.org/1999/02/22-rdf-syntax-ns#"
   xmlns:svg="http://www.w3.org/2000/svg"
   xmlns="http://www.w3.org/2000/svg"
   xmlns:sodipodi="http://sodipodi.sourceforge.net/DTD/sodipodi-0.dtd"
   xmlns:inkscape="http://www.inkscape.org/namespaces/inkscape"
   fill-opacity="1"
   color-rendering="auto"
   color-interpolation="auto"
   text-rendering="auto"
   stroke="black"
   stroke-linecap="square"
   stroke-miterlimit="10"
   shape-rendering="auto"
   stroke-opacity="1"
   fill="black"
   stroke-dasharray="none"
   font-weight="normal"
   stroke-width="1"
   font-family="'Dialog'"
   font-style="normal"
   stroke-linejoin="miter"
   font-size="12"
   stroke-dashoffset="0"
   image-rendering="auto"
   version="1.1"
   id="svg9"
   sodipodi:docname="manyougana-katakana_letter_i.svg"
   inkscape:version="0.92.4 (5da689c313, 2019-01-14)"
   width="100%"
   height="100%"
   viewBox="0 0 100 100"
   preserveAspectRatio="xMidYMid meet"
   >
  <metadata
     id="metadata13">
    <rdf:RDF>
      <cc:Work
         rdf:about="">
        <dc:format>image/svg+xml</dc:format>
        <dc:type
           rdf:resource="http://purl.org/dc/dcmitype/StillImage" />
      </cc:Work>
    </rdf:RDF>
  </metadata>
  <sodipodi:namedview
     pagecolor="#ffffff"
     bordercolor="#666666"
     borderopacity="1"
     objecttolerance="10"
     gridtolerance="10"
     guidetolerance="10"
     inkscape:pageopacity="0"
     inkscape:pageshadow="2"
     inkscape:window-width="1920"
     inkscape:window-height="986"
     id="namedview11"
     showgrid="false"
     inkscape:zoom="2.36"
     inkscape:cx="50"
     inkscape:cy="50"
     inkscape:window-x="-11"
     inkscape:window-y="-11"
     inkscape:window-maximized="1"
     inkscape:current-layer="svg9" />
  <!--U+4F0A-->
  <defs
     id="genericDefs" />
  <g
     id="g7"
     transform="matrix(0.3703795,0,0,0.38040616,-2.2767176,-55.547032)">
    <g
       id="g5">
      <path
         d="M 99.7031,156.0938 Q 96.6094,172.2656 85.7812,199.125 L 74.8125,223.7344 V 407.25 H 53.2969 V 258.8906 q -15.3281,17.2969 -23.625,23.9063 l -19.8281,-13.5 Q 61.0312,233.5781 79.1719,147.6562 Z m 173.9531,88.5937 h -27.1406 v 78.75 H 224.8594 V 305.8594 H 172.5469 Q 168.75,342 153.9141,364.7812 q -14.836,22.7813 -48.4453,42.75 L 87.3281,390.7969 q 60.75,-29.25 62.4375,-84.9375 h -45.8437 v -21.0938 h 47.25 V 244.6875 H 84.375 v -20.9531 h 66.7969 v -40.0782 h -48.375 v -20.9531 h 143.7187 v 61.0313 h 27.1406 z m -48.7968,-20.9531 v -40.0782 h -52.0313 v 40.0782 z m 0,61.0312 v -40.0781 h -52.0313 v 40.0781 z"
         id="path3"
         inkscape:connector-curvature="0"
         style="stroke:none" />
    </g>
  </g>
</svg>
