<?xml version="1.0" encoding="UTF-8" standalone="no"?>
<svg
   xmlns:dc="http://purl.org/dc/elements/1.1/"
   xmlns:cc="http://creativecommons.org/ns#"
   xmlns:rdf="http://www.w3.org/1999/02/22-rdf-syntax-ns#"
   xmlns:svg="http://www.w3.org/2000/svg"
   xmlns="http://www.w3.org/2000/svg"
   xmlns:sodipodi="http://sodipodi.sourceforge.net/DTD/sodipodi-0.dtd"
   xmlns:inkscape="http://www.inkscape.org/namespaces/inkscape"
   fill-opacity="1"
   color-rendering="auto"
   color-interpolation="auto"
   text-rendering="auto"
   stroke="black"
   stroke-linecap="square"
   stroke-miterlimit="10"
   shape-rendering="auto"
   stroke-opacity="1"
   fill="black"
   stroke-dasharray="none"
   font-weight="normal"
   stroke-width="1"
   font-family="'Dialog'"
   font-style="normal"
   stroke-linejoin="miter"
   font-size="12"
   stroke-dashoffset="0"
   image-rendering="auto"
   version="1.1"
   id="svg9"
   sodipodi:docname="manyougana-katakana_letter_he.svg"
   inkscape:version="0.92.4 (5da689c313, 2019-01-14)">
  <metadata
     id="metadata13">
    <rdf:RDF>
      <cc:Work
         rdf:about="">
        <dc:format>image/svg+xml</dc:format>
        <dc:type
           rdf:resource="http://purl.org/dc/dcmitype/StillImage" />
      </cc:Work>
    </rdf:RDF>
  </metadata>
  <sodipodi:namedview
     pagecolor="#ffffff"
     bordercolor="#666666"
     borderopacity="1"
     objecttolerance="10"
     gridtolerance="10"
     guidetolerance="10"
     inkscape:pageopacity="0"
     inkscape:pageshadow="2"
     inkscape:window-width="1920"
     inkscape:window-height="986"
     id="namedview11"
     showgrid="false"
     inkscape:zoom="2.36"
     inkscape:cx="50"
     inkscape:cy="50"
     inkscape:window-x="-11"
     inkscape:window-y="-11"
     inkscape:window-maximized="1"
     inkscape:current-layer="svg9" />
  <!--U+90E8-->
  <defs
     id="genericDefs" />
  <g
     id="g7"
     transform="matrix(0.39270482,0,0,0.3799765,-5.7682029,-54.735516)">
    <g
       id="g5">
      <path
         d="M 165.6562,199.8281 H 27.9844 v -21.0937 h 59.3437 v -31.9219 h 22.6407 v 31.9219 h 55.6874 z m 73.125,56.6719 q 32.9063,30.9375 32.9063,66.375 0,21.5156 -10.8984,34.4531 -10.8985,12.9375 -28.336,11.25 l -18.4219,-1.6875 -5.7656,-24.1875 q 20.6719,3.6563 24.1875,3.6563 17.5781,0 17.5781,-21.5156 0,-37.125 -34.3124,-63.9844 9.5624,-20.6719 27.9843,-81.1406 H 204.4688 V 405.1406 H 182.5312 V 158.625 h 83.25 v 19.2656 q -18.9843,57.2344 -27,78.6094 z m -62.8593,19.125 H 17.0156 V 254.5312 H 71.4375 Q 61.3125,223.4531 44.8594,209.3906 l 19.125,-7.875 q 18,17.8594 28.125,45.8438 l -14.625,7.1718 h 22.5 q 21.5156,-29.6718 25.875,-53.8593 l 20.1094,8.7187 q -6.1876,20.8125 -22.0782,45.1406 h 52.0313 z M 149.2031,404.0156 H 127.2656 V 384.1875 H 62.7188 v 19.8281 H 40.9219 V 297.9844 H 149.2031 Z M 127.2656,363.0938 V 319.0781 H 62.7188 v 44.0157 z"
         id="path3"
         inkscape:connector-curvature="0"
         style="stroke:none" />
    </g>
  </g>
</svg>
