<?xml version="1.0" encoding="UTF-8" standalone="no"?>
<svg
   xmlns:dc="http://purl.org/dc/elements/1.1/"
   xmlns:cc="http://creativecommons.org/ns#"
   xmlns:rdf="http://www.w3.org/1999/02/22-rdf-syntax-ns#"
   xmlns:svg="http://www.w3.org/2000/svg"
   xmlns="http://www.w3.org/2000/svg"
   xmlns:sodipodi="http://sodipodi.sourceforge.net/DTD/sodipodi-0.dtd"
   xmlns:inkscape="http://www.inkscape.org/namespaces/inkscape"
   fill-opacity="1"
   color-rendering="auto"
   color-interpolation="auto"
   text-rendering="auto"
   stroke="black"
   stroke-linecap="square"
   stroke-miterlimit="10"
   shape-rendering="auto"
   stroke-opacity="1"
   fill="black"
   stroke-dasharray="none"
   font-weight="normal"
   stroke-width="1"
   font-family="'Dialog'"
   font-style="normal"
   stroke-linejoin="miter"
   font-size="12"
   stroke-dashoffset="0"
   image-rendering="auto"
   version="1.1"
   id="svg9"
   sodipodi:docname="manyougana-katakana_letter_sa.svg"
   inkscape:version="0.92.4 (5da689c313, 2019-01-14)">
  <metadata
     id="metadata13">
    <rdf:RDF>
      <cc:Work
         rdf:about="">
        <dc:format>image/svg+xml</dc:format>
        <dc:type
           rdf:resource="http://purl.org/dc/dcmitype/StillImage" />
      </cc:Work>
    </rdf:RDF>
  </metadata>
  <sodipodi:namedview
     pagecolor="#ffffff"
     bordercolor="#666666"
     borderopacity="1"
     objecttolerance="10"
     gridtolerance="10"
     guidetolerance="10"
     inkscape:pageopacity="0"
     inkscape:pageshadow="2"
     inkscape:window-width="1920"
     inkscape:window-height="986"
     id="namedview11"
     showgrid="false"
     inkscape:zoom="2.36"
     inkscape:cx="50"
     inkscape:cy="50"
     inkscape:window-x="-11"
     inkscape:window-y="-11"
     inkscape:window-maximized="1"
     inkscape:current-layer="svg9" />
  <!--U+6563-->
  <defs
     id="genericDefs" />
  <g
     id="g7"
     transform="matrix(0.38250411,0,0,0.37787124,-5.8237934,-54.7026)">
    <g
       id="g5">
      <path
         d="m 275.3438,389.1094 -16.1719,17.4375 Q 230.4844,382.2188 211.6406,353.6719 189,385.0312 159.8906,405.9844 L 144,389.3906 Q 184.0781,360 198.9844,332.0156 184.5,306.8438 175.9219,263.25 l -14.0625,20.9531 -15.8906,-9.1406 v 104.4844 q 0,8.1562 -6.4688,13.289 -6.4688,5.1329 -14.1328,5.9766 -7.6641,0.8437 -28.6172,0.8437 l -7.4531,-22.0781 27.5625,0.8438 q 7.3125,0.4219 7.3125,-7.1719 V 354.2344 H 62.7188 V 400.5 H 42.0469 V 261.4219 h 103.9219 l -0.2813,6.6093 q 7.7344,-10.125 14.4844,-22.0781 H 18.7031 V 224.8594 H 51.6094 V 198.4219 H 28.5469 v -21.0938 h 23.0625 v -27.8437 h 21.7968 v 27.8437 h 34.3126 v -27.8437 h 21.9374 v 27.8437 h 22.3594 v 21.0938 h -22.3594 v 26.4375 h 32.7657 v 18.4218 q 21.375,-52.5937 20.3906,-97.5937 l 20.25,4.6406 q 0,26.1563 -4.9219,53.8594 h 64.8282 v 20.9531 h -16.1719 q -4.3594,67.5 -23.625,106.875 14.7656,28.2656 52.1719,57.0938 z m -167.625,-164.25 V 198.4219 H 73.4062 v 26.4375 z m 116.5781,0.2812 H 191.25 q 6.4688,54.1406 18.9844,81 13.2187,-27.4218 14.0625,-81 z m -100.125,72.2813 V 282.5156 H 62.7188 v 14.9063 z m 0,35.7187 v -14.625 H 62.7188 v 14.625 z"
         id="path3"
         inkscape:connector-curvature="0"
         style="stroke:none" />
    </g>
  </g>
</svg>
