<?xml version="1.0" encoding="UTF-8" standalone="no"?>
<svg
   xmlns:dc="http://purl.org/dc/elements/1.1/"
   xmlns:cc="http://creativecommons.org/ns#"
   xmlns:rdf="http://www.w3.org/1999/02/22-rdf-syntax-ns#"
   xmlns:svg="http://www.w3.org/2000/svg"
   xmlns="http://www.w3.org/2000/svg"
   xmlns:sodipodi="http://sodipodi.sourceforge.net/DTD/sodipodi-0.dtd"
   xmlns:inkscape="http://www.inkscape.org/namespaces/inkscape"
   fill-opacity="1"
   color-rendering="auto"
   color-interpolation="auto"
   text-rendering="auto"
   stroke="black"
   stroke-linecap="square"
   stroke-miterlimit="10"
   shape-rendering="auto"
   stroke-opacity="1"
   fill="black"
   stroke-dasharray="none"
   font-weight="normal"
   stroke-width="1"
   font-family="'Dialog'"
   font-style="normal"
   stroke-linejoin="miter"
   font-size="12"
   stroke-dashoffset="0"
   image-rendering="auto"
   version="1.1"
   id="svg9"
   sodipodi:docname="manyougana-katakana_letter_ru.svg"
   inkscape:version="0.92.4 (5da689c313, 2019-01-14)"
   width="100%"
   height="100%"
   viewBox="0 0 100 100"
   preserveAspectRatio="xMidYMid meet"
   >
  <metadata
     id="metadata13">
    <rdf:RDF>
      <cc:Work
         rdf:about="">
        <dc:format>image/svg+xml</dc:format>
        <dc:type
           rdf:resource="http://purl.org/dc/dcmitype/StillImage" />
      </cc:Work>
    </rdf:RDF>
  </metadata>
  <sodipodi:namedview
     pagecolor="#ffffff"
     bordercolor="#666666"
     borderopacity="1"
     objecttolerance="10"
     gridtolerance="10"
     guidetolerance="10"
     inkscape:pageopacity="0"
     inkscape:pageshadow="2"
     inkscape:window-width="1920"
     inkscape:window-height="986"
     id="namedview11"
     showgrid="false"
     inkscape:zoom="4.72"
     inkscape:cx="44.306564"
     inkscape:cy="14.281602"
     inkscape:window-x="-11"
     inkscape:window-y="-11"
     inkscape:window-maximized="1"
     inkscape:current-layer="svg9" />
  <!--U+6D41-->
  <defs
     id="genericDefs" />
  <g
     id="g7"
     transform="matrix(0.37092668,0,0,0.37954274,-3.3392532,-54.671828)">
    <g
       id="g5">
      <path
         d="m 262.6875,199.5469 h -89.8594 q -15.1875,30.7969 -29.6719,49.5 l 76.3594,-3.9375 Q 205.0312,231.4688 192.375,226.9688 l 17.8594,-13.9219 q 34.0312,19.5469 50.625,52.7343 l -18.7032,14.0626 q -2.5312,-5.7657 -10.2656,-16.875 l -132.1875,8.8593 -9,-21.9375 27.1407,-0.8437 q 12.7968,-15.75 29.6718,-49.5 H 89.2969 v -21.0938 h 74.25 v -31.6406 h 21.9375 v 31.6406 h 77.2031 z M 88.1719,194.9062 71.1562,210.7969 q -13.3593,-26.0157 -45,-35.4375 L 42.3281,159.75 q 24.0469,6.4688 45.8438,35.1562 z m -10.6875,68.625 -17.8594,13.5 Q 45.1406,246.5156 11.5312,235.2656 L 28.2656,219.375 q 29.3906,9.9844 49.2188,44.1562 z m 200.1094,84.6563 q -1.6876,22.2187 -6.6094,35.0859 -4.9219,12.8672 -12.4453,14.9063 -7.5235,2.0391 -26.9297,2.0391 -9.9844,0 -16.5235,-6.3282 -6.539,-6.3281 -6.539,-17.2968 v -96.75 h 21.7969 v 93.375 q 0,8.2968 8.1562,8.2968 8.5781,0 10.8984,-1.6875 2.3204,-1.6875 4.4297,-14.9062 2.1094,-13.2188 2.8125,-23.3438 z M 182.25,400.2188 H 160.4531 V 279.8438 H 182.25 Z m -46.5469,-62.4376 q 0,44.2969 -55.9687,68.2032 l -15.75,-18.7032 q 49.7812,-17.7187 49.7812,-59.625 v -46.9687 h 21.9375 z M 85.5,294.8906 Q 72.5625,365.7656 35.7188,400.7812 L 16.7344,386.7188 q 39.375,-34.3126 48.9375,-100.2657 z"
         id="path3"
         inkscape:connector-curvature="0"
         style="stroke:none" />
    </g>
  </g>
</svg>
