<?xml version="1.0" encoding="UTF-8" standalone="no"?>
<svg
   xmlns:dc="http://purl.org/dc/elements/1.1/"
   xmlns:cc="http://creativecommons.org/ns#"
   xmlns:rdf="http://www.w3.org/1999/02/22-rdf-syntax-ns#"
   xmlns:svg="http://www.w3.org/2000/svg"
   xmlns="http://www.w3.org/2000/svg"
   xmlns:sodipodi="http://sodipodi.sourceforge.net/DTD/sodipodi-0.dtd"
   xmlns:inkscape="http://www.inkscape.org/namespaces/inkscape"
   fill-opacity="1"
   color-rendering="auto"
   color-interpolation="auto"
   text-rendering="auto"
   stroke="black"
   stroke-linecap="square"
   stroke-miterlimit="10"
   shape-rendering="auto"
   stroke-opacity="1"
   fill="black"
   stroke-dasharray="none"
   font-weight="normal"
   stroke-width="1"
   font-family="'Dialog'"
   font-style="normal"
   stroke-linejoin="miter"
   font-size="12"
   stroke-dashoffset="0"
   image-rendering="auto"
   version="1.1"
   id="svg9"
   sodipodi:docname="manyougana-katakana_letter_ka.svg"
   inkscape:version="0.92.4 (5da689c313, 2019-01-14)">
  <metadata
     id="metadata13">
    <rdf:RDF>
      <cc:Work
         rdf:about="">
        <dc:format>image/svg+xml</dc:format>
        <dc:type
           rdf:resource="http://purl.org/dc/dcmitype/StillImage" />
      </cc:Work>
    </rdf:RDF>
  </metadata>
  <sodipodi:namedview
     pagecolor="#ffffff"
     bordercolor="#666666"
     borderopacity="1"
     objecttolerance="10"
     gridtolerance="10"
     guidetolerance="10"
     inkscape:pageopacity="0"
     inkscape:pageshadow="2"
     inkscape:window-width="1920"
     inkscape:window-height="986"
     id="namedview11"
     showgrid="false"
     inkscape:zoom="2.36"
     inkscape:cx="50"
     inkscape:cy="50"
     inkscape:window-x="-11"
     inkscape:window-y="-11"
     inkscape:window-maximized="1"
     inkscape:current-layer="svg9" />
  <!--U+52A0-->
  <defs
     id="genericDefs" />
  <g
     id="g7"
     transform="matrix(0.39254519,0,0,0.37789342,-5.0888456,-54.771739)">
    <g
       id="g5">
      <path
         d="m 155.8125,207 -1.4063,68.3438 q -0.7031,34.7343 -4.2187,61.5234 -3.5156,26.789 -8.2969,37.4766 -4.7812,10.6874 -11.8828,15.2578 -7.1016,4.5703 -17.0859,4.5703 -7.7344,0 -35.4375,-5.0625 l -3.7969,-25.1719 q 30.375,9.2813 37.125,9.2813 4.3594,0 8.2266,-5.836 3.8671,-5.8359 7.9453,-37.4766 4.0781,-31.6406 6.3281,-101.8124 H 98.1562 q -3.2343,71.0156 -18.914,112.289 -15.6797,41.2734 -44.9297,67.4297 L 16.7344,392.4844 q 28.9687,-31.0782 38.3906,-51.961 9.4219,-20.8828 14.4844,-56.1796 5.0625,-35.2969 5.9062,-56.25 h -47.25 V 207 h 47.25 q 1.5469,-12.2344 2.8125,-60.4688 l 23.3438,1.6876 L 99.1406,207 Z M 262.9688,393.0469 H 240.1875 V 371.25 H 194.625 v 21.7969 H 172.8281 V 189.7031 h 90.1407 z M 240.1875,350.1562 V 210.7969 H 194.625 v 139.3593 z"
         id="path3"
         inkscape:connector-curvature="0"
         style="stroke:none" />
    </g>
  </g>
</svg>
