<?xml version="1.0" encoding="UTF-8" standalone="no"?>
<svg
   xmlns:dc="http://purl.org/dc/elements/1.1/"
   xmlns:cc="http://creativecommons.org/ns#"
   xmlns:rdf="http://www.w3.org/1999/02/22-rdf-syntax-ns#"
   xmlns:svg="http://www.w3.org/2000/svg"
   xmlns="http://www.w3.org/2000/svg"
   xmlns:sodipodi="http://sodipodi.sourceforge.net/DTD/sodipodi-0.dtd"
   xmlns:inkscape="http://www.inkscape.org/namespaces/inkscape"
   fill-opacity="1"
   color-rendering="auto"
   color-interpolation="auto"
   text-rendering="auto"
   stroke="black"
   stroke-linecap="square"
   stroke-miterlimit="10"
   shape-rendering="auto"
   stroke-opacity="1"
   fill="black"
   stroke-dasharray="none"
   font-weight="normal"
   stroke-width="1"
   font-family="'Dialog'"
   font-style="normal"
   stroke-linejoin="miter"
   font-size="12"
   stroke-dashoffset="0"
   image-rendering="auto"
   version="1.1"
   id="svg9"
   sodipodi:docname="manyougana-katakana_letter_tu1.svg"
   inkscape:version="0.92.4 (5da689c313, 2019-01-14)">
  <metadata
     id="metadata13">
    <rdf:RDF>
      <cc:Work
         rdf:about="">
        <dc:format>image/svg+xml</dc:format>
        <dc:type
           rdf:resource="http://purl.org/dc/dcmitype/StillImage" />
      </cc:Work>
    </rdf:RDF>
  </metadata>
  <sodipodi:namedview
     pagecolor="#ffffff"
     bordercolor="#666666"
     borderopacity="1"
     objecttolerance="10"
     gridtolerance="10"
     guidetolerance="10"
     inkscape:pageopacity="0"
     inkscape:pageshadow="2"
     inkscape:window-width="1920"
     inkscape:window-height="986"
     id="namedview11"
     showgrid="false"
     inkscape:zoom="2.36"
     inkscape:cx="50"
     inkscape:cy="50"
     inkscape:window-x="-11"
     inkscape:window-y="-11"
     inkscape:window-maximized="1"
     inkscape:current-layer="svg9" />
  <!--U+5DDE-->
  <defs
     id="genericDefs" />
  <g
     id="g7"
     transform="matrix(0.42152763,0,0,0.388077,-5.6382356,-57.262447)">
    <g
       id="g5">
      <path
         d="M 247.3594,402.0469 H 225.5625 V 148.7812 h 21.7969 z M 144,298.2656 124.1719,308.3906 Q 121.5,264.6562 101.1094,230.625 v 59.3438 q 0.8437,65.9531 -59.9063,114.3281 L 22.7812,390.2344 Q 79.4531,347.7656 79.4531,288.2812 V 150.6094 h 21.9375 v 76.9218 l 17.5782,-7.875 Q 140.0625,254.25 144,298.2656 Z m 78.8906,0.2813 -21.2344,7.0312 Q 197.2969,263.8125 172.5469,227.25 V 388.125 H 150.8906 V 161.8594 h 21.9375 v 63.5625 l 18.1407,-7.4531 q 23.2031,29.8124 31.9218,80.5781 z m -155.8125,-72 q -3.375,38.25 -30.5156,79.875 L 15.8906,297.1406 Q 42.0469,263.25 48.0938,221.4844 Z"
         id="path3"
         inkscape:connector-curvature="0"
         style="stroke:none" />
    </g>
  </g>
</svg>
