<?xml version="1.0" encoding="UTF-8" standalone="no"?>
<svg
   xmlns:dc="http://purl.org/dc/elements/1.1/"
   xmlns:cc="http://creativecommons.org/ns#"
   xmlns:rdf="http://www.w3.org/1999/02/22-rdf-syntax-ns#"
   xmlns:svg="http://www.w3.org/2000/svg"
   xmlns="http://www.w3.org/2000/svg"
   xmlns:sodipodi="http://sodipodi.sourceforge.net/DTD/sodipodi-0.dtd"
   xmlns:inkscape="http://www.inkscape.org/namespaces/inkscape"
   fill-opacity="1"
   color-rendering="auto"
   color-interpolation="auto"
   text-rendering="auto"
   stroke="black"
   stroke-linecap="square"
   stroke-miterlimit="10"
   shape-rendering="auto"
   stroke-opacity="1"
   fill="black"
   stroke-dasharray="none"
   font-weight="normal"
   stroke-width="1"
   font-family="'Dialog'"
   font-style="normal"
   stroke-linejoin="miter"
   font-size="12"
   stroke-dashoffset="0"
   image-rendering="auto"
   version="1.1"
   id="svg9"
   sodipodi:docname="manyougana-katakana_letter_ne.svg"
   inkscape:version="0.92.4 (5da689c313, 2019-01-14)">
  <metadata
     id="metadata13">
    <rdf:RDF>
      <cc:Work
         rdf:about="">
        <dc:format>image/svg+xml</dc:format>
        <dc:type
           rdf:resource="http://purl.org/dc/dcmitype/StillImage" />
      </cc:Work>
    </rdf:RDF>
  </metadata>
  <sodipodi:namedview
     pagecolor="#ffffff"
     bordercolor="#666666"
     borderopacity="1"
     objecttolerance="10"
     gridtolerance="10"
     guidetolerance="10"
     inkscape:pageopacity="0"
     inkscape:pageshadow="2"
     inkscape:window-width="1920"
     inkscape:window-height="986"
     id="namedview11"
     showgrid="false"
     inkscape:zoom="4.72"
     inkscape:cx="55.557688"
     inkscape:cy="56.629613"
     inkscape:window-x="-11"
     inkscape:window-y="-11"
     inkscape:window-maximized="1"
     inkscape:current-layer="svg9" />
  <!--U+7962-->
  <defs
     id="genericDefs" />
  <g
     id="g7"
     transform="matrix(0.36828053,0,0,0.38228941,-2.9600991,-55.346268)">
    <g
       id="g5">
      <path
         d="M 123.6094,304.5938 109.125,319.9219 Q 97.5938,306.1406 80.5781,296.0156 v 108 H 58.5 V 297.7031 q -9.7031,13.0781 -32.9062,33.1875 L 10.4062,315.2812 Q 64.125,269.0156 82.125,218.25 H 19.8281 v -21.2344 h 39.5157 v -51.3281 h 21.9374 v 51.3281 h 30.7969 q -10.5469,40.3594 -31.5,70.4532 v 10.4062 l 5.2031,-4.0781 q 21.375,11.3906 37.8282,30.7969 z M 262.6875,213.6094 H 157.2188 q -13.5,29.1094 -37.4063,53.2968 l -15.6094,-14.3437 q 36.7031,-31.7813 48.0938,-105.75 l 21.375,6.6094 q -2.25,15.75 -9.8438,39.2343 h 98.8594 z m -58.2187,170.5781 q -1.6876,10.9687 -7.5235,15.5391 -5.8359,4.5703 -10.3359,4.5703 h -25.875 l -9.2813,-22.7813 26.5781,2.1094 q 5.4844,-1.2656 5.4844,-5.4844 V 230.3438 h 20.6719 v 153.8437 z m 72.5624,-32.9063 -18.9843,10.6876 Q 238.2188,307.2656 216,281.6719 l 17.2969,-9.8438 q 27.1406,31.0781 43.7343,79.4531 z M 163.8281,280.4062 Q 148.9219,333 120.6562,364.5 l -18.7031,-12.9375 q 26.7188,-24.6094 42.3281,-79.1719 z"
         id="path3"
         inkscape:connector-curvature="0"
         style="stroke:none" />
    </g>
  </g>
</svg>
