<?xml version="1.0" encoding="UTF-8" standalone="no"?>
<svg
   xmlns:dc="http://purl.org/dc/elements/1.1/"
   xmlns:cc="http://creativecommons.org/ns#"
   xmlns:rdf="http://www.w3.org/1999/02/22-rdf-syntax-ns#"
   xmlns:svg="http://www.w3.org/2000/svg"
   xmlns="http://www.w3.org/2000/svg"
   xmlns:sodipodi="http://sodipodi.sourceforge.net/DTD/sodipodi-0.dtd"
   xmlns:inkscape="http://www.inkscape.org/namespaces/inkscape"
   fill-opacity="1"
   color-rendering="auto"
   color-interpolation="auto"
   text-rendering="auto"
   stroke="black"
   stroke-linecap="square"
   stroke-miterlimit="10"
   shape-rendering="auto"
   stroke-opacity="1"
   fill="black"
   stroke-dasharray="none"
   font-weight="normal"
   stroke-width="1"
   font-family="'Dialog'"
   font-style="normal"
   stroke-linejoin="miter"
   font-size="12"
   stroke-dashoffset="0"
   image-rendering="auto"
   version="1.1"
   id="svg9"
   sodipodi:docname="manyougana-katakana_letter_ki1.svg"
   inkscape:version="0.92.4 (5da689c313, 2019-01-14)">
  <metadata
     id="metadata13">
    <rdf:RDF>
      <cc:Work
         rdf:about="">
        <dc:format>image/svg+xml</dc:format>
        <dc:type
           rdf:resource="http://purl.org/dc/dcmitype/StillImage" />
      </cc:Work>
    </rdf:RDF>
  </metadata>
  <sodipodi:namedview
     pagecolor="#ffffff"
     bordercolor="#666666"
     borderopacity="1"
     objecttolerance="10"
     gridtolerance="10"
     guidetolerance="10"
     inkscape:pageopacity="0"
     inkscape:pageshadow="2"
     inkscape:window-width="1920"
     inkscape:window-height="986"
     id="namedview11"
     showgrid="false"
     inkscape:zoom="2.36"
     inkscape:cx="50"
     inkscape:cy="50"
     inkscape:window-x="-11"
     inkscape:window-y="-11"
     inkscape:window-maximized="1"
     inkscape:current-layer="svg9" />
  <!--U+6A5F-->
  <defs
     id="genericDefs" />
  <g
     id="g7"
     transform="matrix(0.3697401,0,0,0.37833624,-3.1871516,-54.743551)">
    <g
       id="g5">
      <path
         d="m 277.3125,355.3594 q -4.9219,27.9844 -11.4609,37.3359 -6.5391,9.3516 -18.211,9.3516 -18.5625,0 -45.1406,-27.1407 -31.6406,18.8438 -68.3438,24.4688 l -10.5468,-19.5469 q 32.9062,-2.9531 67.0781,-21.6562 -9.1406,-17.7188 -13.2187,-42.6094 h -38.6719 l -1.6875,11.25 q 24.1875,10.8281 39.375,24.75 l -11.8125,17.8594 q -14.4844,-13.6407 -32.4844,-22.3594 -8.8594,28.9687 -38.8125,53.1563 L 77.4844,383.9062 q 34.5937,-24.6093 39.7968,-68.625 l -32.3437,0.2813 v -19.8281 h 89.2969 q -0.8438,-4.3594 -1.6875,-16.4532 l -20.25,6.0469 q -1.4063,-10.125 -2.25,-13.5 l -45.2813,3.5157 Q 106.7344,279 108,282.5156 L 92.3906,294.6094 Q 84.6562,278.1562 76.0781,265.2188 H 75.7969 V 405.4219 H 53.8594 V 290.8125 H 53.2969 Q 46.6875,312.75 27.1406,340.0312 L 10.4062,326.8125 Q 43.1719,279.2812 53.0156,224.2969 H 21.375 v -19.8281 h 32.4844 v -55.6876 h 21.9375 v 55.6876 H 98.1562 L 108,188.8594 l 3.5156,1.6875 q 11.3906,-22.5 18.4219,-42.0469 l 20.1094,10.125 q -9.1407,22.7812 -21.6563,42.6094 7.5938,4.6406 8.7188,5.4844 6.1875,-10.6876 14.9062,-29.6719 l 15.8906,8.7187 v -36.9844 h 22.2188 q 0.4219,108.8438 6.0469,146.9532 h 28.6875 q -15.0469,-13.2188 -17.1563,-14.3438 l 8.5781,-8.7187 q -8.8593,0.4219 -15.6093,1.125 l -4.2188,-23.0625 8.2969,-0.2813 q 10.8281,-13.9219 18.1406,-26.7187 -10.9687,-8.2969 -29.6718,-17.8594 l 11.8124,-18.4219 3.2344,1.6875 q 11.5313,-22.0781 18.7032,-42.0468 l 20.1093,9.8437 q -9.2812,22.2187 -21.5156,42.8906 5.3437,2.9531 8.5781,5.4844 6.0469,-10.5469 14.625,-29.6719 l 18.8438,9.8438 Q 253.125,217.9688 240.75,234.4219 l 15.3281,-3.7969 q 10.4063,21.6562 14.0625,46.9688 l -20.9531,6.3281 -2.1094,-13.5 q -5.7656,0.5625 -20.1093,1.4062 11.25,8.1563 23.625,19.5469 l -3.5157,4.3594 h 21.375 v 19.8281 h -69.4687 q 3.7968,18.7031 9.8437,30.7969 20.5313,-13.5 35.7188,-27.8438 l 14.3437,13.7813 q -23.4844,21.375 -37.6875,30.7969 5.2031,6.3281 13.2891,11.5312 8.0859,5.2031 10.8984,5.2031 5.7656,0 6.8906,-6.3281 l 4.6407,-27.4219 z M 171.9844,272.9531 Q 168.3281,225.2812 167.9062,192.6562 155.1094,221.2031 144,235.8281 l 14.9062,-3.7969 q 7.5938,15.3282 13.0782,40.9219 z m -46.125,-47.5312 q -9.4219,-7.4531 -26.4375,-16.3125 v 15.1875 h -23.625 v 22.2187 q 1.9687,-1.9687 5.0625,-3.7968 14.3437,14.7656 22.2187,29.6718 l -3.6562,-20.1094 h 8.2969 q 8.4374,-10.2656 18.1406,-26.8593 z m 118.125,25.7343 q -4.3594,-14.7656 -4.3594,-15.0468 -6.0469,9.8437 -10.6875,15.0468 z m -97.1719,1.4063 q -3.9375,-14.0625 -4.2187,-14.7656 -6.75,10.2656 -10.6876,14.7656 z"
         id="path3"
         inkscape:connector-curvature="0"
         style="stroke:none" />
    </g>
  </g>
</svg>
