<?xml version="1.0" encoding="UTF-8" standalone="no"?>
<svg
   xmlns:dc="http://purl.org/dc/elements/1.1/"
   xmlns:cc="http://creativecommons.org/ns#"
   xmlns:rdf="http://www.w3.org/1999/02/22-rdf-syntax-ns#"
   xmlns:svg="http://www.w3.org/2000/svg"
   xmlns="http://www.w3.org/2000/svg"
   xmlns:sodipodi="http://sodipodi.sourceforge.net/DTD/sodipodi-0.dtd"
   xmlns:inkscape="http://www.inkscape.org/namespaces/inkscape"
   fill-opacity="1"
   color-rendering="auto"
   color-interpolation="auto"
   text-rendering="auto"
   stroke="black"
   stroke-linecap="square"
   stroke-miterlimit="10"
   shape-rendering="auto"
   stroke-opacity="1"
   fill="black"
   stroke-dasharray="none"
   font-weight="normal"
   stroke-width="1"
   font-family="'Dialog'"
   font-style="normal"
   stroke-linejoin="miter"
   font-size="12"
   stroke-dashoffset="0"
   image-rendering="auto"
   version="1.1"
   id="svg9"
   sodipodi:docname="manyougana-katakana_letter_no.svg"
   inkscape:version="0.92.4 (5da689c313, 2019-01-14)"
   width="100%"
   height="100%"
   viewBox="0 0 100 100"
   preserveAspectRatio="xMidYMid meet"
   >
  <metadata
     id="metadata13">
    <rdf:RDF>
      <cc:Work
         rdf:about="">
        <dc:format>image/svg+xml</dc:format>
        <dc:type
           rdf:resource="http://purl.org/dc/dcmitype/StillImage" />
      </cc:Work>
    </rdf:RDF>
  </metadata>
  <sodipodi:namedview
     pagecolor="#ffffff"
     bordercolor="#666666"
     borderopacity="1"
     objecttolerance="10"
     gridtolerance="10"
     guidetolerance="10"
     inkscape:pageopacity="0"
     inkscape:pageshadow="2"
     inkscape:window-width="1920"
     inkscape:window-height="986"
     id="namedview11"
     showgrid="false"
     inkscape:zoom="3.337544"
     inkscape:cx="63.279481"
     inkscape:cy="42.305348"
     inkscape:window-x="-11"
     inkscape:window-y="-11"
     inkscape:window-maximized="1"
     inkscape:current-layer="svg9" />
  <!--U+4E43-->
  <defs
     id="genericDefs" />
  <g
     id="g7"
     transform="matrix(0.41514635,0,0,0.40634135,-7.5784698,-64.59378)">
    <g
       id="g5">
      <path
         d="m 257.4844,241.875 q -1.125,34.0312 -6.5391,80.2266 -5.4141,46.1953 -15.6094,62.2968 -10.1953,16.1016 -33.1171,16.1016 -17.0157,0 -49.9219,-11.1094 l -6.3281,-26.8594 q 33.8906,14.9063 54.2812,14.9063 9.2812,0 15.1875,-5.0625 5.9063,-5.0625 11.3906,-35.0859 5.4844,-30.0235 7.0313,-73.4766 h -38.5313 l -5.2031,16.0313 -22.2188,-4.2188 26.4376,-92.25 h -80.0157 l -0.8437,45.8438 Q 111.0938,354.375 37.125,402.0469 L 21.0938,384.75 Q 90.7031,342.7031 90.7031,226.9688 V 183.375 H 43.7344 V 162.4219 H 217.125 v 22.3593 l -16.4531,57.0938 z"
         id="path3"
         inkscape:connector-curvature="0"
         style="stroke:none" />
    </g>
  </g>
</svg>
