<?xml version="1.0" encoding="UTF-8" standalone="no"?>
<svg
   xmlns:dc="http://purl.org/dc/elements/1.1/"
   xmlns:cc="http://creativecommons.org/ns#"
   xmlns:rdf="http://www.w3.org/1999/02/22-rdf-syntax-ns#"
   xmlns:svg="http://www.w3.org/2000/svg"
   xmlns="http://www.w3.org/2000/svg"
   xmlns:sodipodi="http://sodipodi.sourceforge.net/DTD/sodipodi-0.dtd"
   xmlns:inkscape="http://www.inkscape.org/namespaces/inkscape"
   fill-opacity="1"
   color-rendering="auto"
   color-interpolation="auto"
   text-rendering="auto"
   stroke="black"
   stroke-linecap="square"
   stroke-miterlimit="10"
   shape-rendering="auto"
   stroke-opacity="1"
   fill="black"
   stroke-dasharray="none"
   font-weight="normal"
   stroke-width="1"
   font-family="'Dialog'"
   font-style="normal"
   stroke-linejoin="miter"
   font-size="12"
   stroke-dashoffset="0"
   image-rendering="auto"
   version="1.1"
   id="svg9"
   sodipodi:docname="manyougana-katakana_letter_so.svg"
   inkscape:version="0.92.4 (5da689c313, 2019-01-14)">
  <metadata
     id="metadata13">
    <rdf:RDF>
      <cc:Work
         rdf:about="">
        <dc:format>image/svg+xml</dc:format>
        <dc:type
           rdf:resource="http://purl.org/dc/dcmitype/StillImage" />
      </cc:Work>
    </rdf:RDF>
  </metadata>
  <sodipodi:namedview
     pagecolor="#ffffff"
     bordercolor="#666666"
     borderopacity="1"
     objecttolerance="10"
     gridtolerance="10"
     guidetolerance="10"
     inkscape:pageopacity="0"
     inkscape:pageshadow="2"
     inkscape:window-width="1920"
     inkscape:window-height="986"
     id="namedview11"
     showgrid="false"
     inkscape:zoom="2.36"
     inkscape:cx="50"
     inkscape:cy="50"
     inkscape:window-x="-11"
     inkscape:window-y="-11"
     inkscape:window-maximized="1"
     inkscape:current-layer="svg9" />
  <!--U+66FD-->
  <defs
     id="genericDefs" />
  <g
     id="g7"
     transform="matrix(0.45786271,0,0,0.37265461,-15.771325,-52.121992)">
    <g
       id="g5">
      <path
         d="M 252.2812,272.6719 H 36.5625 V 179.1562 H 90.4219 Q 80.2969,166.9219 64.8281,156.9375 l 18.9844,-13.7813 q 23.625,21.6563 34.0313,36 h 56.6718 q 13.6406,-12.7968 28.5469,-38.6718 l 19.5469,12.6562 q -14.625,19.9688 -21.5156,26.0156 h 51.1874 z M 229.5,213.6094 v -13.5 h -75.375 v 13.5 z m -97.3125,0 v -13.5 H 58.5 v 13.5 z M 229.5,251.7188 v -16.7344 h -75.375 v 16.7344 z m -97.3125,0 V 234.9844 H 58.5 v 16.7344 z m 96.75,152.8593 H 207.1406 V 387.5625 H 79.7344 v 17.0156 H 57.0938 V 285.6094 H 228.9375 Z M 207.1406,325.6875 V 306.7031 H 79.7344 v 18.9844 z m 0,40.9219 V 346.6406 H 79.7344 v 19.9688 z"
         id="path3"
         inkscape:connector-curvature="0"
         style="stroke:none" />
    </g>
  </g>
</svg>
