<?xml version="1.0" encoding="UTF-8" standalone="no"?>
<svg
   xmlns:dc="http://purl.org/dc/elements/1.1/"
   xmlns:cc="http://creativecommons.org/ns#"
   xmlns:rdf="http://www.w3.org/1999/02/22-rdf-syntax-ns#"
   xmlns:svg="http://www.w3.org/2000/svg"
   xmlns="http://www.w3.org/2000/svg"
   xmlns:sodipodi="http://sodipodi.sourceforge.net/DTD/sodipodi-0.dtd"
   xmlns:inkscape="http://www.inkscape.org/namespaces/inkscape"
   fill-opacity="1"
   color-rendering="auto"
   color-interpolation="auto"
   text-rendering="auto"
   stroke="black"
   stroke-linecap="square"
   stroke-miterlimit="10"
   shape-rendering="auto"
   stroke-opacity="1"
   fill="black"
   stroke-dasharray="none"
   font-weight="normal"
   stroke-width="1"
   font-family="'Dialog'"
   font-style="normal"
   stroke-linejoin="miter"
   font-size="12"
   stroke-dashoffset="0"
   image-rendering="auto"
   version="1.1"
   id="svg9"
   sodipodi:docname="manyougana-katakana_letter_mo.svg"
   inkscape:version="0.92.4 (5da689c313, 2019-01-14)"
   width="100%"
   height="100%"
   viewBox="0 0 100 100"
   preserveAspectRatio="xMidYMid meet"
   >
  <metadata
     id="metadata13">
    <rdf:RDF>
      <cc:Work
         rdf:about="">
        <dc:format>image/svg+xml</dc:format>
        <dc:type
           rdf:resource="http://purl.org/dc/dcmitype/StillImage" />
      </cc:Work>
    </rdf:RDF>
  </metadata>
  <sodipodi:namedview
     pagecolor="#ffffff"
     bordercolor="#666666"
     borderopacity="1"
     objecttolerance="10"
     gridtolerance="10"
     guidetolerance="10"
     inkscape:pageopacity="0"
     inkscape:pageshadow="2"
     inkscape:window-width="1920"
     inkscape:window-height="986"
     id="namedview11"
     showgrid="false"
     inkscape:zoom="2.36"
     inkscape:cx="50"
     inkscape:cy="50"
     inkscape:window-x="-11"
     inkscape:window-y="-11"
     inkscape:window-maximized="1"
     inkscape:current-layer="svg9" />
  <!--U+6BDB-->
  <defs
     id="genericDefs" />
  <g
     id="g7"
     transform="matrix(0.38749539,0,0,0.40084704,-7.2328508,-58.48587)">
    <g
       id="g5">
      <path
         d="m 271.8281,329.2031 q -3.7969,31.0781 -14.0625,47.1797 -10.2656,16.1016 -30.7968,16.1016 h -77.4844 q -29.6719,0 -29.6719,-28.8282 V 321.3281 L 27.7031,332.2969 25.0312,310.3594 119.8125,299.25 V 256.5 l -79.4531,9.2812 -1.8282,-21.6562 81.2813,-9.4219 v -40.3593 q -37.125,5.2031 -83.5313,6.8906 l -13.5,-21.7969 q 107.4376,-1.4063 202.5,-30.2344 l 16.0313,16.3125 q -33.3281,14.7656 -99.5625,26.0156 v 41.0626 l 89.5781,-9.9844 V 244.125 L 141.75,254.25 v 42.3281 l 115.1719,-12.375 1.9687,21.9375 -117.1406,14.625 v 39.5156 q 0,11.25 12.0938,11.25 h 74.8124 q 10.2657,0 15.2579,-10.8984 4.9921,-10.8984 6.6797,-40.4297 z"
         id="path3"
         inkscape:connector-curvature="0"
         style="stroke:none" />
    </g>
  </g>
</svg>
