<?xml version="1.0" encoding="UTF-8" standalone="no"?>
<svg
   xmlns:dc="http://purl.org/dc/elements/1.1/"
   xmlns:cc="http://creativecommons.org/ns#"
   xmlns:rdf="http://www.w3.org/1999/02/22-rdf-syntax-ns#"
   xmlns:svg="http://www.w3.org/2000/svg"
   xmlns="http://www.w3.org/2000/svg"
   xmlns:sodipodi="http://sodipodi.sourceforge.net/DTD/sodipodi-0.dtd"
   xmlns:inkscape="http://www.inkscape.org/namespaces/inkscape"
   fill-opacity="1"
   color-rendering="auto"
   color-interpolation="auto"
   text-rendering="auto"
   stroke="black"
   stroke-linecap="square"
   stroke-miterlimit="10"
   shape-rendering="auto"
   stroke-opacity="1"
   fill="black"
   stroke-dasharray="none"
   font-weight="normal"
   stroke-width="1"
   font-family="'Dialog'"
   font-style="normal"
   stroke-linejoin="miter"
   font-size="12"
   stroke-dashoffset="0"
   image-rendering="auto"
   version="1.1"
   id="svg9"
   sodipodi:docname="manyougana-katakana_letter_ya.svg"
   inkscape:version="0.92.4 (5da689c313, 2019-01-14)">
  <metadata
     id="metadata13">
    <rdf:RDF>
      <cc:Work
         rdf:about="">
        <dc:format>image/svg+xml</dc:format>
        <dc:type
           rdf:resource="http://purl.org/dc/dcmitype/StillImage" />
      </cc:Work>
    </rdf:RDF>
  </metadata>
  <sodipodi:namedview
     pagecolor="#ffffff"
     bordercolor="#666666"
     borderopacity="1"
     objecttolerance="10"
     gridtolerance="10"
     guidetolerance="10"
     inkscape:pageopacity="0"
     inkscape:pageshadow="2"
     inkscape:window-width="1920"
     inkscape:window-height="986"
     id="namedview11"
     showgrid="false"
     inkscape:zoom="2.36"
     inkscape:cx="50"
     inkscape:cy="50"
     inkscape:window-x="-11"
     inkscape:window-y="-11"
     inkscape:window-maximized="1"
     inkscape:current-layer="svg9" />
  <!--U+4E5F-->
  <defs
     id="genericDefs" />
  <g
     id="g7"
     transform="matrix(0.40157519,0,0,0.40543123,-9.179144,-58.472586)">
    <g
       id="g5">
      <path
         d="m 267.8906,334.5469 q -7.5937,39.2343 -18.2812,46.5469 -10.6875,7.3124 -19.5469,7.3124 H 93.9375 q -13.9219,0 -20.5313,-9.8437 -6.6093,-9.8437 -6.6093,-18 V 266.625 l -37.9688,9.2812 -2.3906,-21.0937 q 12.2344,-2.6719 40.3594,-10.9687 v -54.9844 h 22.5 v 50.4844 l 51.1875,-12.375 v -80.1563 h 22.5 v 75.2344 l 82.6875,-20.8125 -3.7969,50.2031 q -4.5,62.1563 -16.9453,72.7031 -12.4453,10.5469 -21.8672,7.875 L 174.7969,324 170.7188,300.0938 q 26.8593,10.2656 33.1874,10.2656 4.0782,0 9.9844,-25.3828 5.9063,-25.3828 7.3125,-54.9141 l -58.2187,13.7813 v 99.7031 h -22.5 v -94.5 l -51.1875,12.6562 v 91.6875 q 0.9843,7.5938 4.6406,10.8282 3.6563,3.2343 6.3281,3.2343 h 128.6719 q 12.9375,0 16.4531,-42.3281 z"
         id="path3"
         inkscape:connector-curvature="0"
         style="stroke:none" />
    </g>
  </g>
</svg>
