<?xml version="1.0"?>

<!DOCTYPE svg PUBLIC '-//W3C//DTD SVG 1.0//EN' 'http://www.w3.org/TR/2001/REC-SVG-20010904/DTD/svg10.dtd'>
<svg fill-opacity="1" xmlns:xlink="http://www.w3.org/1999/xlink" color-rendering="auto" color-interpolation="auto" text-rendering="auto" stroke="black" stroke-linecap="square" stroke-miterlimit="10" shape-rendering="auto" stroke-opacity="1" fill="black" stroke-dasharray="none" font-weight="normal" stroke-width="1" xmlns="http://www.w3.org/2000/svg" font-family="&apos;Dialog&apos;" font-style="normal" stroke-linejoin="miter" font-size="12" stroke-dashoffset="0" image-rendering="auto">
  <!--U+973C-->
  <defs id="genericDefs" />
  <g>
    <g>
      <path d="M279.7031 357.3281 Q270.8438 403.4531 258.0469 403.4531 Q242.7188 403.4531 237.6562 376.3125 L222.3281 388.6875 Q209.25 356.9062 196.1719 344.1094 L196.1719 404.2969 L175.3594 404.2969 L175.3594 341.2969 L174.7969 341.2969 Q160.3125 380.3906 131.9062 396 L114.0469 380.9531 Q138.2344 365.4844 145.8281 354.3047 Q153.4219 343.125 157.7812 323.1562 L134.7188 323.1562 L134.7188 303.1875 L152.0156 303.1875 Q147.9375 283.7812 134.7188 267.1875 L151.1719 257.4844 Q163.5469 274.7812 170.4375 294.3281 L155.5312 302.3438 L155.5312 303.1875 L175.3594 303.1875 L175.3594 251.4375 L196.1719 251.4375 L196.1719 303.1875 L212.4844 303.1875 L212.4844 302.625 L198.7031 294.0469 Q212.0625 279.5625 214.5938 255.6562 L230.625 265.5 Q228.0938 281.9531 216.8438 303.1875 L229.7812 303.1875 L229.7812 323.1562 L196.1719 323.1562 L196.1719 336.375 L209.1094 329.7656 Q227.3906 346.6406 236.3906 372.9375 L237.0938 372.375 Q232.1719 351.8438 232.1719 296.1562 Q232.1719 281.9531 233.0156 248.7656 L144.8438 248.7656 L144.8438 240.1875 Q143.0156 243.4219 137.9531 247.6406 L118.9688 234.7031 L120.6562 233.0156 L106.5938 233.0156 L106.5938 241.3125 L86.9062 241.3125 L86.9062 225.1406 L106.5938 225.1406 L106.5938 211.0781 L84.0938 211.0781 L84.0938 280.6875 L65.3906 280.6875 L65.3906 211.0781 L43.4531 211.0781 L43.4531 225.1406 L62.7188 225.1406 L62.7188 241.3125 L42.8906 241.3125 L42.8906 233.0156 L23.0625 233.0156 L23.0625 190.9688 L65.3906 190.9688 L65.3906 178.1719 L28.2656 178.1719 L28.2656 159.75 L119.5312 159.75 L119.5312 178.1719 L84.0938 178.1719 L84.0938 190.9688 L126.1406 190.9688 Q126.7031 220.0781 126.4219 227.25 Q150.3281 200.1094 154.6875 142.1719 L174.5156 147.6562 Q174.7969 151.875 173.5312 158.0625 Q172.2656 164.25 171.9844 166.3594 L260.8594 166.3594 L260.8594 186.3281 L167.9062 186.3281 Q166.7812 188.5781 164.3906 198.1406 L248.7656 198.1406 L248.7656 217.9688 L162.4219 217.9688 L162.4219 202.3594 Q156.7969 221.4844 150.3281 228.9375 L255.5156 228.9375 Q253.4062 285.4688 253.4062 303.6094 Q253.4062 343.4062 257.4844 372.6562 L258.0469 372.6562 Q260.0156 361.125 260.2969 347.3438 L279.7031 357.3281 ZM114.8906 270.1406 L86.9062 270.1406 L86.9062 253.9688 L114.8906 253.9688 L114.8906 270.1406 ZM62.7188 270.1406 L33.1875 270.1406 L33.1875 253.9688 L62.7188 253.9688 L62.7188 270.1406 ZM118.4062 304.0312 L28.2656 304.0312 L28.2656 284.4844 L118.4062 284.4844 L118.4062 304.0312 ZM130.5 334.5469 L78.0469 334.5469 Q65.8125 356.9062 60.4688 360.5625 L61.0312 361.125 L92.1094 356.7656 Q89.1562 353.8125 82.6875 349.0312 L101.3906 340.0312 Q116.1562 353.6719 125.0156 370.9688 Q122.2031 372.6562 117.3516 374.9062 Q112.5 377.1562 106.5938 380.6719 L102.2344 374.0625 Q78.6094 376.4531 34.875 384.75 L23.0625 368.0156 Q40.2188 358.1719 54.9844 334.5469 L15.8906 334.5469 L15.8906 315 L130.5 315 L130.5 334.5469 Z" stroke="none" />
    </g>
  </g>
</svg>
