<?xml version="1.0"?>

<!DOCTYPE svg PUBLIC '-//W3C//DTD SVG 1.0//EN' 'http://www.w3.org/TR/2001/REC-SVG-20010904/DTD/svg10.dtd'>
<svg fill-opacity="1" xmlns:xlink="http://www.w3.org/1999/xlink" color-rendering="auto" color-interpolation="auto" text-rendering="auto" stroke="black" stroke-linecap="square" stroke-miterlimit="10" shape-rendering="auto" stroke-opacity="1" fill="black" stroke-dasharray="none" font-weight="normal" stroke-width="1" xmlns="http://www.w3.org/2000/svg" font-family="&apos;Dialog&apos;" font-style="normal" stroke-linejoin="miter" font-size="12" stroke-dashoffset="0" image-rendering="auto">
  <!--Unicode Character 'HENTAIGANA LETTER WO-2' (U+1B117)-->
  <defs id="genericDefs" />
  <g>
    <g>
      <path d="M145.9688 120.375 Q155.5312 137.5312 176.3438 145.6875 Q179.7188 149.9062 180.8438 155.25 Q179.1562 163.125 173.5312 163.125 Q163.4062 163.125 148.7812 141.1875 Q141.4688 127.9688 141.4688 123.1875 L141.4688 122.625 Q141.4688 121.2188 145.9688 120.375 ZM124.5938 168.75 Q127.4062 168.75 129.6562 171.5625 L129.6562 172.125 Q126.8438 176.0625 126.8438 180 L126.8438 184.5 Q126.8438 193.7812 151.5938 198 L152.7188 198 Q154.4062 198 161.1562 195.75 Q175.2188 200.8125 175.2188 208.125 Q175.2188 214.875 152.7188 218.8125 Q93.0938 246.9375 93.0938 258.75 Q93.0938 261.8438 114.4688 262.6875 Q157.7812 259.5938 157.7812 252.5625 Q163.4062 236.25 171.2812 236.25 Q172.125 236.25 181.4062 241.3125 Q184.7812 243 193.2188 243 L203.3438 243 Q206.4375 243 207.8438 245.8125 L207.8438 247.5 Q207.8438 256.2188 172.4062 265.5 Q172.4062 338.0625 138.0938 372.375 Q133.0312 369.5625 133.0312 367.875 Q157.2188 326.5312 157.2188 269.4375 L156.6562 269.4375 Q131.0625 276.1875 112.7812 276.1875 Q80.1562 276.1875 80.1562 262.125 Q80.1562 248.625 136.9688 214.3125 Q144.2812 210.375 144.2812 209.8125 Q143.7188 208.9688 131.9062 205.3125 Q116.7188 196.0312 116.7188 183.375 Q120.9375 168.75 124.5938 168.75 Z" stroke="none" />
    </g>
  </g>
</svg>
