<?xml version="1.0"?>

<!DOCTYPE svg PUBLIC '-//W3C//DTD SVG 1.0//EN' 'http://www.w3.org/TR/2001/REC-SVG-20010904/DTD/svg10.dtd'>
<svg fill-opacity="1" xmlns:xlink="http://www.w3.org/1999/xlink" color-rendering="auto" color-interpolation="auto" text-rendering="auto" stroke="black" stroke-linecap="square" stroke-miterlimit="10" shape-rendering="auto" stroke-opacity="1" fill="black" stroke-dasharray="none" font-weight="normal" stroke-width="1" xmlns="http://www.w3.org/2000/svg" font-family="&apos;Dialog&apos;" font-style="normal" stroke-linejoin="miter" font-size="12" stroke-dashoffset="0" image-rendering="auto">
  <!--Unicode Character 'HENTAIGANA LETTER NA-2' (U+1B07F)-->
  <defs id="genericDefs" />
  <g>
    <g>
      <path d="M140.3438 135 Q157.2188 139.7812 157.2188 151.3125 Q157.2188 161.1562 120.0938 194.625 L120.0938 195.75 Q160.875 184.5 193.7812 170.4375 Q207.8438 173.8125 207.8438 183.375 Q207.8438 187.3125 178.5938 211.5 Q145.9688 243.5625 136.9688 254.8125 Q143.7188 264.0938 149.3438 290.25 L151.0312 291.375 L151.5938 291.375 L178.0312 278.4375 Q194.3438 272.8125 207.8438 272.8125 L208.4062 272.8125 Q236.5312 272.8125 241.5938 297 Q242.1562 300.0938 242.1562 301.5 Q242.1562 333.8438 169.0312 357.75 L165.6562 352.6875 L165.6562 351.5625 Q223.0312 328.5 223.0312 303.75 L223.0312 299.8125 Q223.0312 281.25 206.1562 281.25 Q182.5312 281.25 156.0938 307.125 Q153 309.375 149.9062 310.5 Q133.0312 306.5625 133.0312 293.625 Q133.0312 281.25 127.9688 266.625 L126.8438 266.625 Q91.6875 308.5312 62.1562 336.9375 Q57.9375 338.625 54.8438 338.625 Q45.8438 337.5 45.8438 330.75 Q52.3125 320.9062 58.2188 308.8125 Q63 293.0625 64.9688 293.0625 Q68.3438 294.4688 68.3438 295.3125 Q64.9688 312.4688 64.9688 315.5625 L66.0938 315.5625 Q109.6875 275.3438 120.6562 258.75 L120.6562 257.625 Q113.625 249.1875 106.0312 249.1875 L98.7188 249.1875 Q97.3125 249.1875 97.0312 244.6875 Q99.8438 242.4375 111.0938 241.3125 Q119.25 241.3125 130.2188 247.5 Q181.9688 190.4062 181.9688 186.1875 L181.4062 186.1875 Q173.5312 186.1875 98.1562 218.25 Q94.5 221.0625 90.8438 221.0625 Q86.3438 221.0625 86.3438 215.4375 L86.3438 214.3125 Q86.3438 202.2188 102.0938 195.75 Q142.0312 161.7188 142.0312 151.875 L142.0312 147.9375 Q142.0312 142.0312 135.2812 138.9375 L135.2812 138.375 Q135.2812 136.9688 140.3438 135 Z" stroke="none" />
    </g>
  </g>
</svg>
