<?xml version="1.0" encoding="UTF-8" standalone="no"?>
<svg
   xmlns:dc="http://purl.org/dc/elements/1.1/"
   xmlns:cc="http://creativecommons.org/ns#"
   xmlns:rdf="http://www.w3.org/1999/02/22-rdf-syntax-ns#"
   xmlns:svg="http://www.w3.org/2000/svg"
   xmlns="http://www.w3.org/2000/svg"
   xmlns:sodipodi="http://sodipodi.sourceforge.net/DTD/sodipodi-0.dtd"
   xmlns:inkscape="http://www.inkscape.org/namespaces/inkscape"
   fill-opacity="1"
   color-rendering="auto"
   color-interpolation="auto"
   text-rendering="auto"
   stroke="black"
   stroke-linecap="square"
   stroke-miterlimit="10"
   shape-rendering="auto"
   stroke-opacity="1"
   fill="black"
   stroke-dasharray="none"
   font-weight="normal"
   stroke-width="1"
   font-family="'Dialog'"
   font-style="normal"
   stroke-linejoin="miter"
   font-size="12"
   stroke-dashoffset="0"
   image-rendering="auto"
   version="1.1"
   id="svg9"
   sodipodi:docname="hentaigana_letter_tu1.svg"
   inkscape:version="0.92.4 (5da689c313, 2019-01-14)">
  <metadata
     id="metadata13">
    <rdf:RDF>
      <cc:Work
         rdf:about="">
        <dc:format>image/svg+xml</dc:format>
        <dc:type
           rdf:resource="http://purl.org/dc/dcmitype/StillImage" />
      </cc:Work>
    </rdf:RDF>
  </metadata>
  <sodipodi:namedview
     pagecolor="#ffffff"
     bordercolor="#666666"
     borderopacity="1"
     objecttolerance="10"
     gridtolerance="10"
     guidetolerance="10"
     inkscape:pageopacity="0"
     inkscape:pageshadow="2"
     inkscape:window-width="1920"
     inkscape:window-height="986"
     id="namedview11"
     showgrid="false"
     inkscape:zoom="2.36"
     inkscape:cx="50"
     inkscape:cy="50"
     inkscape:window-x="-11"
     inkscape:window-y="-11"
     inkscape:window-maximized="1"
     inkscape:current-layer="svg9" />
  <!--Unicode Character 'HENTAIGANA LETTER TU-1' (U+1B069)-->
  <defs
     id="genericDefs" />
  <g
     id="g7"
     transform="matrix(0.48167757,0,0,0.44655828,-18.793774,-59.832239)">
    <g
       id="g5">
      <path
         d="m 68.9062,136.125 h 1.125 q 19.6876,13.7812 19.6876,29.25 v 1.6875 q 0,5.625 -15.1876,43.875 -10.125,27.2813 -10.125,50.0625 0,17.7188 7.3126,31.5 l 1.125,0.5625 h 0.5624 q 1.9688,0 5.625,-23.0625 8.1563,-30.375 11.25,-35.4375 4.5,1.9687 4.5,2.8125 -10.125,40.2188 -10.125,59.625 0.5626,9.8438 0.5626,15.75 0,5.625 -8.4376,6.75 -17.4374,0 -24.1874,-45.5625 -0.5626,-7.875 -0.5626,-10.125 0,-30.0937 20.25,-86.625 1.6876,-4.7813 2.25,-15.75 0,-14.0625 -9,-21.9375 0.2813,0 3.375,-3.375 z m 145.6876,1.125 q 12.9374,0 16.875,21.9375 4.5,35.7187 4.5,65.25 0,88.875 -42.75,132.1875 h -0.5626 q -2.8124,-1.4062 -2.8124,-2.25 v -0.5625 Q 207,327.375 212.9062,294.75 q 5.625,-35.1562 5.625,-76.5 V 216 q -1.9687,-67.5 -8.4374,-67.5 h -2.25 q -2.8126,0 -10.6876,6.75 0,-0.8438 -3.375,-3.375 9.5626,-14.625 20.8126,-14.625 z m -73.125,14.0625 q 10.125,2.5313 10.125,10.125 -7.875,29.8125 -7.875,48.9375 0,4.5 2.25,4.5 3.375,-2.5312 16.875,-23.0625 l 1.125,-0.5625 q 3.375,1.4062 3.375,2.25 v 1.125 q -13.2188,20.8125 -19.6876,37.125 0,5.0625 -6.1874,7.3125 -8.1563,0 -11.25,-18 -0.5626,-3.6563 -0.5626,-7.875 0,-9.2813 5.625,-42.75 v -2.25 q 0,-1.125 -1.125,-1.125 h -0.5624 q -2.8126,0 -10.6876,7.3125 -2.8124,-1.6875 -2.8124,-3.9375 12.9374,-19.125 21.375,-19.125 z"
         id="path3"
         inkscape:connector-curvature="0"
         style="stroke:none" />
    </g>
  </g>
</svg>
