<?xml version="1.0"?>

<!DOCTYPE svg PUBLIC '-//W3C//DTD SVG 1.0//EN' 'http://www.w3.org/TR/2001/REC-SVG-20010904/DTD/svg10.dtd'>
<svg fill-opacity="1" xmlns:xlink="http://www.w3.org/1999/xlink" color-rendering="auto" color-interpolation="auto" text-rendering="auto" stroke="black" stroke-linecap="square" stroke-miterlimit="10" shape-rendering="auto" stroke-opacity="1" fill="black" stroke-dasharray="none" font-weight="normal" stroke-width="1" xmlns="http://www.w3.org/2000/svg" font-family="&apos;Dialog&apos;" font-style="normal" stroke-linejoin="miter" font-size="12" stroke-dashoffset="0" image-rendering="auto">
  <!--Unicode Character 'HENTAIGANA LETTER KA-KE' (U+1B022)-->
  <defs id="genericDefs" />
  <g>
    <g>
      <path d="M127.4062 136.4062 Q148.7812 139.2188 148.7812 149.9062 Q145.4062 166.7812 145.4062 168.4688 L145.9688 168.4688 Q170.7188 156.6562 190.4062 156.6562 Q223.0312 159.1875 223.0312 178.0312 Q223.0312 196.0312 180.2812 201.0938 Q167.3438 201.0938 157.2188 194.3438 Q157.2188 189.8438 159.4688 189.8438 Q165.9375 192.0938 174.0938 192.0938 L180.2812 192.0938 Q202.7812 190.125 205.5938 179.7188 L206.1562 176.3438 Q206.1562 163.9688 188.1562 163.9688 Q164.8125 163.9688 142.5938 178.5938 Q133.5938 203.625 119.5312 238.2188 L119.5312 238.7812 Q119.5312 241.3125 134.1562 243.2812 Q152.1562 248.9062 162.8438 265.7812 Q170.7188 280.9688 170.7188 298.4062 Q170.7188 325.6875 152.7188 344.5312 Q140.0625 356.3438 127.4062 356.3438 L126.8438 356.3438 Q109.6875 356.3438 89.1562 318.6562 L88.0312 318.6562 Q78.1875 325.9688 54.8438 347.3438 Q49.2188 350.1562 46.4062 350.1562 Q37.9688 350.1562 36.2812 332.7188 Q38.8125 295.875 63.2812 287.1562 Q65.5312 286.5938 67.7812 286.5938 L68.3438 286.5938 Q78.4688 286.5938 89.7188 304.5938 L90.8438 304.5938 Q108.2812 289.9688 124.5938 278.7188 L126.2812 278.7188 Q127.9688 282.6562 127.9688 283.7812 Q108 298.125 94.7812 312.4688 L94.7812 313.0312 Q110.5312 338.3438 127.4062 342.8438 L127.9688 342.8438 Q142.0312 342.8438 151.0312 316.9688 Q152.7188 307.125 152.7188 300.0938 L152.7188 296.7188 Q152.7188 259.0312 129.0938 251.7188 Q108.2812 250.3125 108.2812 242.7188 L108.2812 240.4688 Q108.2812 238.7812 121.7812 198.8438 L124.5938 187.0312 L123.4688 186.4688 Q85.5 206.7188 75.0938 206.7188 Q60.75 206.7188 53.1562 181.9688 L57.6562 178.0312 Q68.0625 190.9688 75.0938 190.9688 L78.4688 190.9688 Q96.75 190.9688 127.4062 175.7812 Q130.2188 162.2812 130.2188 152.1562 Q130.2188 146.5312 121.7812 146.5312 Q117 146.5312 108.8438 149.3438 L106.0312 144.8438 Q113.0625 138.6562 127.4062 136.4062 ZM211.2188 234.2812 L211.7812 234.2812 Q223.5938 234.2812 223.5938 244.9688 Q223.5938 251.1562 205.5938 291.6562 Q203.3438 298.125 203.3438 301.7812 L203.3438 303.4688 Q208.6875 313.0312 230.9062 313.0312 L240.4688 313.0312 Q248.0625 313.0312 251.7188 322.0312 Q251.7188 329.0625 238.2188 329.9062 Q214.875 329.9062 196.0312 315.8438 Q192.6562 309.0938 192.6562 305.7188 Q194.9062 294.4688 205.0312 257.9062 Q205.5938 252.2812 205.5938 248.9062 Q204.4688 246.375 203.3438 246.0938 L201.6562 246.0938 Q196.5938 246.0938 185.9062 254.5312 L184.7812 254.5312 Q184.2188 254.5312 181.9688 251.1562 L181.9688 250.5938 Q198 234.2812 211.2188 234.2812 ZM50.3438 325.4062 Q50.625 332.7188 52.5938 332.7188 L53.7188 332.7188 Q57.6562 332.7188 82.4062 310.7812 L82.4062 310.2188 Q73.6875 293.9062 64.9688 293.9062 Q54.8438 293.9062 50.3438 325.4062 Z" stroke="none" />
    </g>
  </g>
</svg>
