<?xml version="1.0"?>

<!DOCTYPE svg PUBLIC '-//W3C//DTD SVG 1.0//EN' 'http://www.w3.org/TR/2001/REC-SVG-20010904/DTD/svg10.dtd'>
<svg fill-opacity="1" xmlns:xlink="http://www.w3.org/1999/xlink" color-rendering="auto" color-interpolation="auto" text-rendering="auto" stroke="black" stroke-linecap="square" stroke-miterlimit="10" shape-rendering="auto" stroke-opacity="1" fill="black" stroke-dasharray="none" font-weight="normal" stroke-width="1" xmlns="http://www.w3.org/2000/svg" font-family="&apos;Dialog&apos;" font-style="normal" stroke-linejoin="miter" font-size="12" stroke-dashoffset="0" image-rendering="auto">
  <!--Unicode Character 'HENTAIGANA LETTER HE-2' (U+1B0B4)-->
  <defs id="genericDefs" />
  <g>
    <g>
      <path d="M112.2188 124.5938 Q117.8438 127.125 117.8438 127.9688 Q108.8438 149.625 108.8438 171.2812 Q109.4062 177.1875 109.4062 180.8438 L109.9688 180.8438 Q139.2188 163.6875 139.2188 154.9688 Q139.2188 148.2188 129.6562 145.9688 L129.0938 145.9688 Q130.5 140.3438 132.4688 140.3438 Q155.5312 142.875 155.5312 154.9688 Q155.5312 166.7812 110.5312 190.9688 L110.5312 192.0938 Q112.2188 204.75 112.2188 205.5938 L112.2188 206.1562 Q113.625 206.1562 138.6562 188.7188 Q189.5625 154.9688 208.9688 154.9688 Q220.2188 156.9375 220.2188 166.2188 Q220.2188 168.4688 215.7188 183.6562 Q215.7188 186.1875 236.5312 190.4062 Q243.2812 194.3438 243.2812 200.5312 Q243.2812 213.4688 181.9688 244.4062 L181.4062 245.5312 Q185.3438 251.1562 189.2812 271.4062 Q225.8438 264.6562 230.9062 264.6562 Q253.9688 268.0312 253.9688 275.9062 L253.9688 276.4688 Q251.4375 282.0938 247.7812 282.0938 Q235.125 279.2812 224.1562 279.2812 L212.3438 279.2812 Q189.8438 280.4062 189.8438 282.6562 L189.8438 283.7812 Q189.8438 335.5312 142.5938 368.1562 L138.0938 363.0938 Q174.0938 329.625 174.0938 287.7188 L174.0938 284.9062 L173.5312 284.9062 Q166.7812 284.9062 100.4062 300.0938 L100.4062 300.6562 Q100.4062 312.1875 106.5938 322.5938 Q107.4375 322.0312 117.2812 303.4688 L118.4062 303.4688 Q119.25 303.4688 121.7812 306.8438 Q113.9062 324.8438 110.5312 341.7188 Q108.2812 343.9688 106.0312 343.9688 Q93.6562 341.1562 88.0312 306.8438 Q88.0312 303.4688 87.4688 303.4688 Q58.7812 310.7812 51.4688 310.7812 L48.6562 310.7812 Q35.7188 310.7812 34.0312 299.5312 Q34.0312 289.125 49.7812 282.6562 L50.3438 282.6562 Q52.0312 283.2188 52.0312 286.0312 Q46.9688 289.4062 46.9688 294.4688 L46.9688 295.0312 Q48.375 297.8438 51.4688 297.8438 L54.8438 297.8438 Q62.7188 297.8438 88.0312 292.2188 L88.0312 291.6562 Q88.0312 281.8125 90.8438 273.6562 Q90.2812 272.5312 90.2812 271.9688 Q78.4688 274.7812 75.0938 274.7812 Q61.0312 274.7812 61.0312 264.6562 Q61.0312 253.125 83.5312 232.0312 L83.5312 230.3438 Q67.7812 225.8438 67.7812 216.2812 Q67.7812 207 85.7812 197.1562 L86.3438 196.0312 Q77.9062 188.1562 68.3438 184.7812 Q59.3438 199.6875 57.6562 200.5312 L54.8438 201.0938 Q46.9688 198 46.9688 185.3438 Q46.9688 168.4688 63.2812 147.0938 L64.4062 147.0938 Q68.3438 149.3438 68.3438 149.9062 Q59.9062 163.4062 59.9062 177.4688 L60.4688 177.4688 Q84.9375 157.7812 89.1562 157.7812 L91.4062 161.1562 Q78.1875 171.2812 72.8438 178.5938 Q93.9375 190.9688 95.3438 190.9688 Q96.1875 190.9688 97.0312 189.2812 L97.0312 185.9062 Q97.0312 149.625 111.6562 124.5938 L112.2188 124.5938 ZM106.5938 223.5938 L106.5938 224.7188 Q129.0938 228.0938 129.0938 239.3438 L129.0938 240.4688 Q129.0938 251.7188 100.4062 267.4688 L99.8438 273.0938 L99.8438 289.4062 L100.4062 289.4062 L173.5312 274.7812 Q171.5625 251.1562 168.4688 251.1562 Q137.5312 264.6562 134.7188 264.6562 Q131.3438 262.4062 131.3438 259.0312 Q163.9688 243.5625 163.9688 241.5938 Q163.9688 239.625 153.8438 230.9062 L153.8438 230.3438 Q156.0938 226.4062 157.2188 226.4062 Q159.75 226.4062 175.2188 236.5312 L175.7812 236.5312 Q202.7812 222.1875 224.1562 202.2188 L225.2812 200.5312 L225.2812 199.4062 Q225.2812 194.625 208.4062 193.2188 Q201.6562 191.25 201.6562 186.4688 Q203.3438 178.5938 203.3438 170.7188 Q203.3438 168.4688 200.5312 166.7812 L199.9688 166.7812 Q168.4688 169.5938 106.5938 223.5938 ZM79.0312 211.2188 L79.0312 212.3438 Q79.0312 218.5312 94.7812 221.3438 Q98.4375 219.375 104.3438 213.4688 Q100.6875 211.7812 94.2188 202.2188 L91.4062 201.6562 Q79.875 207.8438 79.0312 211.2188 ZM75.6562 257.3438 L75.6562 260.7188 Q77.0625 263.5312 81.2812 263.5312 L83.5312 263.5312 Q99 263.5312 112.7812 248.3438 Q114.4688 245.5312 114.4688 242.1562 Q114.4688 237.375 95.3438 233.7188 Q88.3125 238.2188 77.3438 252.2812 Q75.6562 256.2188 75.6562 257.3438 ZM208.4062 289.4062 L208.9688 289.4062 Q229.7812 295.3125 238.7812 308.5312 Q240.1875 308.5312 242.7188 319.2188 Q241.3125 328.7812 235.9688 328.7812 L235.4062 328.7812 Q229.7812 328.7812 223.0312 311.3438 Q216.8438 302.3438 204.4688 293.9062 Q206.4375 290.5312 208.4062 289.4062 Z" stroke="none" />
    </g>
  </g>
</svg>
