<?xml version="1.0"?>

<!DOCTYPE svg PUBLIC '-//W3C//DTD SVG 1.0//EN' 'http://www.w3.org/TR/2001/REC-SVG-20010904/DTD/svg10.dtd'>
<svg fill-opacity="1" xmlns:xlink="http://www.w3.org/1999/xlink" color-rendering="auto" color-interpolation="auto" text-rendering="auto" stroke="black" stroke-linecap="square" stroke-miterlimit="10" shape-rendering="auto" stroke-opacity="1" fill="black" stroke-dasharray="none" font-weight="normal" stroke-width="1" xmlns="http://www.w3.org/2000/svg" font-family="&apos;Dialog&apos;" font-style="normal" stroke-linejoin="miter" font-size="12" stroke-dashoffset="0" image-rendering="auto">
  <!--Unicode Character 'HENTAIGANA LETTER SO-3' (U+1B059)-->
  <defs id="genericDefs" />
  <g>
    <g>
      <path d="M181.6875 134.7188 Q189.8438 134.7188 196.875 149.9062 L196.875 151.0312 Q196.875 155.5312 167.0625 170.1562 Q136.9688 187.875 113.625 203.9062 L113.0625 205.0312 L113.625 205.0312 Q154.125 188.1562 182.25 188.1562 L184.5 188.1562 Q217.6875 188.1562 225 209.5312 Q225 212.3438 225.5625 212.3438 Q225.5625 238.5 173.25 253.4062 Q144 258.4688 141.1875 259.5938 L132.75 284.9062 Q133.3125 284.9062 133.3125 285.4688 Q145.9688 274.7812 157.5 274.7812 Q181.9688 274.7812 191.25 300.6562 Q193.5 306.8438 194.625 320.3438 Q194.625 343.6875 174.375 355.2188 Q166.2188 358.0312 161.4375 358.0312 Q134.4375 353.25 134.4375 333.8438 L134.4375 333.2812 Q134.4375 316.9688 155.25 313.5938 Q168.75 315 168.75 322.5938 Q168.75 327.0938 153.5625 327.0938 Q148.5 329.625 148.5 333.2812 L148.5 337.7812 Q152.1562 348.4688 162 348.4688 Q174.375 348.4688 178.3125 330.4688 Q178.875 324.8438 178.875 321.4688 Q178.875 295.3125 164.8125 287.7188 Q162 286.0312 159.1875 286.0312 L155.25 286.0312 Q131.625 286.0312 121.5 326.5312 Q116.4375 355.2188 111.375 355.2188 L108.5625 355.2188 Q101.8125 351.2812 101.8125 334.9688 Q101.8125 333.2812 113.625 305.1562 Q124.3125 275.9062 128.25 259.0312 Q125.1562 259.0312 121.5 252.2812 Q126 245.8125 141.75 239.3438 Q145.125 240.1875 145.125 244.4062 Q144.5625 249.1875 144.5625 250.0312 Q161.1562 250.0312 191.25 234.2812 Q205.3125 224.7188 205.3125 212.9062 Q205.3125 197.7188 180 197.7188 Q132.75 197.7188 80.4375 238.7812 Q70.875 247.2188 68.0625 247.2188 Q64.9688 247.2188 62.4375 241.5938 Q62.4375 226.9688 74.25 220.7812 Q82.125 220.7812 171 149.9062 L171.5625 149.9062 Q171 148.7812 171 148.2188 Q147.9375 149.9062 104.0625 178.5938 Q100.6875 180.2812 99 180.2812 Q86.625 176.9062 86.625 163.4062 Q86.625 152.7188 92.25 137.5312 L92.8125 137.5312 Q96.75 137.5312 99 138.6562 L98.4375 144.2812 L98.4375 148.2188 Q98.4375 159.4688 106.3125 159.4688 L106.875 159.4688 Q111.6562 159.4688 171.5625 136.9688 L181.6875 134.7188 Z" stroke="none" />
    </g>
  </g>
</svg>
