<?xml version="1.0" encoding="UTF-8" standalone="no"?>
<svg
   xmlns:dc="http://purl.org/dc/elements/1.1/"
   xmlns:cc="http://creativecommons.org/ns#"
   xmlns:rdf="http://www.w3.org/1999/02/22-rdf-syntax-ns#"
   xmlns:svg="http://www.w3.org/2000/svg"
   xmlns="http://www.w3.org/2000/svg"
   xmlns:sodipodi="http://sodipodi.sourceforge.net/DTD/sodipodi-0.dtd"
   xmlns:inkscape="http://www.inkscape.org/namespaces/inkscape"
   fill-opacity="1"
   color-rendering="auto"
   color-interpolation="auto"
   text-rendering="auto"
   stroke="black"
   stroke-linecap="square"
   stroke-miterlimit="10"
   shape-rendering="auto"
   stroke-opacity="1"
   fill="black"
   stroke-dasharray="none"
   font-weight="normal"
   stroke-width="1"
   font-family="'Dialog'"
   font-style="normal"
   stroke-linejoin="miter"
   font-size="12"
   stroke-dashoffset="0"
   image-rendering="auto"
   version="1.1"
   id="svg9"
   sodipodi:docname="hentaigana_letter_ne1.svg"
   inkscape:version="0.92.4 (5da689c313, 2019-01-14)"
   width="100%"
   height="100%"
   viewBox="0 0 100 100"
   preserveAspectRatio="xMidYMid meet"
   >
  <metadata
     id="metadata13">
    <rdf:RDF>
      <cc:Work
         rdf:about="">
        <dc:format>image/svg+xml</dc:format>
        <dc:type
           rdf:resource="http://purl.org/dc/dcmitype/StillImage" />
      </cc:Work>
    </rdf:RDF>
  </metadata>
  <sodipodi:namedview
     pagecolor="#ffffff"
     bordercolor="#666666"
     borderopacity="1"
     objecttolerance="10"
     gridtolerance="10"
     guidetolerance="10"
     inkscape:pageopacity="0"
     inkscape:pageshadow="2"
     inkscape:window-width="1920"
     inkscape:window-height="986"
     id="namedview11"
     showgrid="false"
     inkscape:zoom="2.36"
     inkscape:cx="50"
     inkscape:cy="50"
     inkscape:window-x="-11"
     inkscape:window-y="-11"
     inkscape:window-maximized="1"
     inkscape:current-layer="svg9" />
  <!--Unicode Character 'HENTAIGANA LETTER NE-1' (U+1B092)-->
  <defs
     id="genericDefs" />
  <g
     id="g7"
     transform="matrix(0.48004813,0,0,0.41210602,-19.40659,-51.979654)">
    <g
       id="g5">
      <path
         d="m 162.8438,128.5312 q 26.4374,5.9063 26.4374,16.875 0,6.75 -15.75,14.625 -8.4374,6.75 -8.4374,12.9376 3.6562,14.0624 11.25,14.0624 15.1874,2.25 15.1874,9 0,5.3438 -9,7.3126 v 0.5624 q 21.9376,46.4063 21.9376,85.5 v 13.5 q 1.6874,1.4063 18.5624,5.625 3.6563,2.5313 4.5,7.3126 0,6.1874 -7.875,7.3124 -3.9374,0 -18.5624,-3.9374 v 0.5624 q -16.5938,44.4376 -69.1876,44.4376 -36.5624,0 -61.875,-41.0626 -9.5624,-19.9687 -9.5624,-36.5624 v -1.125 q 0,-42.4688 42.75,-76.5 30.9374,-18.8438 57.375,-21.9376 v -0.5624 q -5.0626,-12.9376 -5.0626,-17.4376 0,-3.9374 13.5,-24.1874 v -3.9376 q -1.9687,-4.2187 -10.6874,-7.3124 v -0.5626 q 3.0937,-4.5 4.5,-4.5 z m -91.6876,155.25 v 7.3126 q 0,26.4374 27.5626,50.0624 16.3124,11.25 30.9374,11.25 h 7.3126 q 31.2187,0 46.125,-31.5 2.8124,-6.1874 2.8124,-9 -25.875,-16.0312 -25.875,-30.375 0,-3.375 7.3126,-21.375 v -1.6874 q 0,-5.9063 -12.375,-12.9376 -8.4376,-8.7187 -8.4376,-15.1874 1.4063,-12.9376 20.8126,-30.9376 v -1.6874 h -0.5626 q -35.7187,0 -74.8124,33.75 -20.8126,25.3124 -20.8126,52.3124 z m 85.5,-57.375 q 0,5.625 18.5626,16.3126 3.9374,3.9374 3.9374,9.5624 0,4.2188 -9.5624,23.0626 v 2.8124 q 0,10.6876 18.5624,18.5626 v -6.75 q 0,-41.9063 -16.3124,-79.875 h -1.125 q -14.0626,12.375 -14.0626,16.3124 z"
         id="path3"
         inkscape:connector-curvature="0"
         style="stroke:none" />
    </g>
  </g>
</svg>
