<?xml version="1.0"?>

<!DOCTYPE svg PUBLIC '-//W3C//DTD SVG 1.0//EN' 'http://www.w3.org/TR/2001/REC-SVG-20010904/DTD/svg10.dtd'>
<svg fill-opacity="1" xmlns:xlink="http://www.w3.org/1999/xlink" color-rendering="auto" color-interpolation="auto" text-rendering="auto" stroke="black" stroke-linecap="square" stroke-miterlimit="10" shape-rendering="auto" stroke-opacity="1" fill="black" stroke-dasharray="none" font-weight="normal" stroke-width="1" xmlns="http://www.w3.org/2000/svg" font-family="&apos;Dialog&apos;" font-style="normal" stroke-linejoin="miter" font-size="12" stroke-dashoffset="0" image-rendering="auto">
  <!--Unicode Character 'HENTAIGANA LETTER NA-7' (U+1B084)-->
  <defs id="genericDefs" />
  <g>
    <g>
      <path d="M69.75 144.2812 Q72.2812 160.5938 79.3125 160.5938 L81.5625 160.5938 Q86.0625 160.5938 116.4375 146.5312 Q117 146.5312 120.9375 145.9688 Q132.75 145.9688 136.6875 170.7188 Q137.8125 178.5938 138.9375 178.5938 L140.0625 178.5938 Q178.5938 151.5938 197.4375 151.5938 Q211.7812 151.5938 214.3125 169.0312 Q212.3438 183.6562 192.9375 210.6562 L193.5 210.6562 Q209.8125 206.1562 218.8125 206.1562 L222.1875 206.1562 Q239.9062 206.1562 246.9375 225.2812 Q248.0625 229.5 248.0625 233.1562 Q248.0625 265.2188 185.625 325.4062 L184.5 327.0938 L184.5 328.7812 Q184.5 331.5938 201.9375 332.7188 Q216.8438 332.1562 219.375 332.1562 Q226.125 332.1562 229.5 339.4688 Q227.5312 347.3438 214.3125 347.3438 L209.25 347.3438 Q172.125 345.375 172.125 332.7188 L172.125 332.1562 Q172.125 328.2188 194.625 305.7188 Q230.0625 263.8125 230.0625 232.5938 Q230.0625 214.0312 217.6875 214.0312 Q204.4688 214.0312 183.375 224.1562 L182.8125 224.1562 Q180.8438 224.1562 180 217.4062 Q180 215.4375 188.4375 205.0312 Q197.4375 185.625 197.4375 174.0938 Q197.4375 161.7188 188.4375 161.7188 L186.1875 161.7188 Q173.5312 161.7188 140.0625 188.7188 L139.5 189.8438 Q140.625 199.6875 140.625 210.6562 L140.625 219.0938 Q140.625 279 118.125 335.5312 Q111.6562 348.4688 101.8125 348.4688 L101.25 348.4688 Q91.9688 348.4688 75.375 322.5938 L75.375 322.0312 L79.875 318.6562 Q91.4062 333.2812 99 333.2812 L100.125 333.2812 Q106.875 333.2812 118.125 286.0312 Q125.4375 252.5625 125.4375 225.8438 L125.4375 202.7812 L124.875 199.9688 L123.75 199.9688 Q112.5 207.2812 97.3125 222.4688 Q98.4375 239.625 98.4375 247.2188 Q98.4375 288 76.5 310.7812 Q70.875 314.1562 68.0625 314.1562 Q53.7188 309.0938 41.625 283.7812 Q39.9375 277.875 39.9375 273.6562 Q39.9375 253.9688 69.1875 231.4688 Q83.8125 217.9688 83.8125 216.2812 L83.8125 215.7188 Q83.8125 209.5312 74.25 192.6562 L74.25 192.0938 Q76.7812 189.8438 77.0625 189.8438 L77.625 189.8438 Q90.2812 201.0938 92.8125 210.0938 L93.375 210.0938 Q95.9062 210.0938 123.75 188.7188 Q121.5 159.4688 115.3125 159.4688 Q107.1562 160.875 81 176.9062 Q78.75 177.4688 77.0625 177.4688 Q67.5 177.4688 64.125 161.7188 Q63 155.5312 63 148.7812 Q63 144.2812 69.75 144.2812 ZM50.625 277.5938 L50.625 282.0938 Q55.6875 300.0938 63.5625 300.0938 L66.9375 300.0938 Q74.5312 297 81.5625 274.7812 Q85.5 257.9062 85.5 241.5938 L85.5 233.1562 L84.375 233.1562 Q52.875 261 50.625 277.5938 Z" stroke="none" />
    </g>
  </g>
</svg>
