<?xml version="1.0"?>

<!DOCTYPE svg PUBLIC '-//W3C//DTD SVG 1.0//EN' 'http://www.w3.org/TR/2001/REC-SVG-20010904/DTD/svg10.dtd'>
<svg fill-opacity="1" xmlns:xlink="http://www.w3.org/1999/xlink" color-rendering="auto" color-interpolation="auto" text-rendering="auto" stroke="black" stroke-linecap="square" stroke-miterlimit="10" shape-rendering="auto" stroke-opacity="1" fill="black" stroke-dasharray="none" font-weight="normal" stroke-width="1" xmlns="http://www.w3.org/2000/svg" font-family="&apos;Dialog&apos;" font-style="normal" stroke-linejoin="miter" font-size="12" stroke-dashoffset="0" image-rendering="auto">
  <!--Unicode Character 'HENTAIGANA LETTER WO-4' (U+1B119)-->
  <defs id="genericDefs" />
  <g>
    <g>
      <path d="M171.5625 132.75 Q201.9375 132.75 201.9375 146.8125 Q201.9375 152.4375 196.875 178.875 L197.4375 178.875 Q212.9062 175.5 221.625 175.5 Q229.2188 175.5 232.3125 182.25 Q232.3125 189 213.75 189 Q192.375 190.125 192.375 194.0625 Q192.375 200.25 177.1875 236.25 L177.1875 236.8125 L177.75 236.8125 Q210.6562 227.8125 221.625 218.25 Q221.625 217.4062 225.5625 216.5625 Q240.1875 220.5 240.1875 224.4375 L240.1875 226.6875 Q240.1875 229.7812 218.8125 235.6875 Q207.2812 241.3125 159.1875 289.125 L159.1875 290.25 L169.875 287.4375 Q181.125 287.4375 185.0625 305.4375 L186.1875 305.4375 Q204.4688 289.125 220.5 289.125 Q240.4688 289.125 246.9375 303.1875 L248.625 310.5 Q248.625 335.5312 192.375 360 L191.25 360 L187.875 355.5 L187.875 354.375 Q232.3125 332.4375 232.3125 311.0625 L232.3125 310.5 Q232.3125 297 222.75 297 L219.9375 297 Q200.8125 297 184.5 325.6875 Q181.6875 328.2188 180 328.5 Q171 328.5 171 315 Q171 297 164.25 297 L163.6875 297 Q156.9375 297 133.875 327.375 Q125.1562 340.875 119.8125 340.875 L118.6875 340.875 Q116.7188 340.875 115.875 334.6875 L115.875 331.875 Q115.875 320.3438 131.625 308.8125 Q138.375 298.125 197.4375 240.75 L197.4375 240.1875 L196.3125 240.1875 Q139.7812 263.25 136.6875 263.25 Q124.5938 263.25 122.625 240.1875 L122.625 239.0625 Q125.7188 236.8125 127.6875 236.8125 Q131.0625 243.8438 132.75 245.25 Q134.1562 246.9375 136.6875 246.9375 L137.25 246.9375 Q153 246.9375 164.25 239.0625 Q177.1875 204.1875 177.1875 196.3125 L176.625 196.3125 Q156.0938 201.375 111.375 230.625 Q103.5 236.5312 103.5 237.375 Q107.4375 256.5 107.4375 269.4375 Q105.4688 328.2188 71.4375 342 L61.3125 344.25 Q43.3125 344.25 39.375 313.3125 Q39.375 275.0625 89.4375 235.6875 Q90 234.5625 90 234 Q90 230.0625 79.3125 217.125 Q78.1875 215.1562 78.1875 212.625 Q78.1875 207.8438 96.75 178.3125 L96.75 176.625 Q96.75 174.6562 81 170.4375 Q64.125 160.875 64.125 145.6875 Q64.125 136.6875 68.625 136.6875 L70.875 136.6875 L72 137.25 L71.4375 138.375 L71.4375 143.4375 Q71.4375 156.9375 102.375 160.875 Q110.8125 160.875 114.75 173.8125 L114.75 175.5 Q114.75 180.2812 100.125 192.9375 Q85.5 207.5625 85.5 212.0625 Q85.5 214.875 96.1875 224.4375 L100.125 228.9375 Q143.7188 197.7188 176.0625 185.625 Q182.8125 185.625 182.8125 170.4375 Q184.2188 170.4375 184.5 150.1875 Q183.0938 138.9375 167.625 138.9375 L167.0625 137.8125 Q167.0625 132.75 171.5625 132.75 ZM48.375 309.375 L48.375 312.1875 Q48.375 328.7812 59.0625 331.875 L61.3125 331.875 Q87.75 331.875 92.25 279 Q92.8125 275.0625 92.8125 267.75 L92.8125 260.4375 Q92.8125 250.5938 91.6875 245.25 L90.5625 245.25 Q48.375 277.875 48.375 309.375 Z" stroke="none" />
    </g>
  </g>
</svg>
