<?xml version="1.0"?>

<!DOCTYPE svg PUBLIC '-//W3C//DTD SVG 1.0//EN' 'http://www.w3.org/TR/2001/REC-SVG-20010904/DTD/svg10.dtd'>
<svg fill-opacity="1" xmlns:xlink="http://www.w3.org/1999/xlink" color-rendering="auto" color-interpolation="auto" text-rendering="auto" stroke="black" stroke-linecap="square" stroke-miterlimit="10" shape-rendering="auto" stroke-opacity="1" fill="black" stroke-dasharray="none" font-weight="normal" stroke-width="1" xmlns="http://www.w3.org/2000/svg" font-family="&apos;Dialog&apos;" font-style="normal" stroke-linejoin="miter" font-size="12" stroke-dashoffset="0" image-rendering="auto">
  <!--Unicode Character 'HENTAIGANA LETTER YA-YO' (U+1B0E2)-->
  <defs id="genericDefs" />
  <g>
    <g>
      <path d="M72 137.8125 L72.5625 137.8125 Q100.125 140.625 100.125 155.8125 L97.3125 176.625 L99 176.625 Q122.9062 158.9062 124.3125 151.3125 L124.3125 148.5 Q120.6562 142.875 118.125 142.875 L118.125 142.3125 Q121.5 137.8125 123.75 137.8125 Q142.3125 144.5625 142.3125 153.5625 Q142.3125 163.9688 95.625 191.25 Q93.9375 219.0938 93.9375 240.75 L94.5 240.75 Q145.125 207.5625 149.625 207.5625 Q175.2188 196.3125 191.8125 196.3125 L195.75 196.3125 Q225.8438 196.3125 231.75 221.625 Q232.3125 225.2812 232.3125 228.9375 L232.3125 230.625 Q232.3125 264.6562 169.3125 281.25 Q166.7812 281.25 140.0625 295.3125 L126 301.5 L126 302.625 L126.5625 302.625 Q168.4688 302.625 231.1875 325.125 Q254.25 334.125 254.25 345.375 Q252.5625 350.4375 248.625 350.4375 L246.9375 350.4375 Q244.125 350.4375 209.8125 333.5625 Q155.8125 312.1875 132.75 312.1875 Q106.875 308.25 95.0625 308.25 L95.0625 308.8125 Q95.0625 317.25 96.75 333.5625 Q96.75 349.5938 83.8125 354.9375 Q77.625 354.9375 74.25 336.9375 Q68.625 324.5625 60.1875 311.0625 Q61.3125 311.0625 62.4375 307.6875 L63.5625 307.6875 Q64.125 307.6875 80.4375 326.8125 L81.5625 326.8125 L82.6875 268.875 L81.5625 268.875 L46.125 303.75 Q43.5938 305.4375 41.625 305.4375 Q33.75 301.2188 33.75 293.625 Q33.75 291.0938 50.625 268.3125 Q69.1875 236.5312 69.1875 227.25 Q69.1875 224.1562 67.5 218.8125 Q68.3438 218.8125 70.875 215.4375 Q77.625 218.8125 77.625 227.8125 Q77.625 237.9375 58.5 273.375 L58.5 273.9375 Q80.7188 255.6562 83.25 250.3125 Q84.375 210.0938 84.375 198.5625 L83.8125 198.5625 Q66.375 207.2812 56.25 209.25 Q49.2188 209.25 47.25 198.5625 Q48.6562 191.8125 56.8125 186.1875 Q60.1875 186.4688 60.1875 187.875 Q57.375 191.8125 57.375 195.1875 L57.375 195.75 Q57.6562 196.875 58.5 196.875 L59.625 196.875 Q68.3438 195.4688 84.9375 185.0625 L84.9375 173.25 Q84.9375 147.9375 75.9375 146.25 Q69.75 143.7188 69.75 142.875 Q70.875 137.8125 72 137.8125 ZM93.9375 258.75 Q93.9375 266.3438 94.5 298.6875 L95.625 299.25 L108.5625 299.25 Q118.125 299.25 152.4375 280.125 L152.4375 279 Q137.8125 277.3125 137.8125 268.875 L137.8125 267.75 Q137.8125 249.1875 174.375 239.0625 Q179.1562 239.0625 179.4375 238.5 Q195.75 240.4688 195.75 250.875 L195.75 251.4375 Q195.75 257.3438 185.625 267.1875 L185.625 267.75 Q214.875 254.8125 214.875 227.8125 L214.875 224.4375 Q214.875 209.8125 200.8125 205.3125 L192.9375 204.1875 Q160.0312 204.1875 115.875 238.5 Q93.9375 254.8125 93.9375 258.75 ZM152.4375 268.3125 Q152.4375 271.6875 159.1875 272.25 Q168.75 272.25 173.8125 264.9375 Q181.6875 259.0312 181.6875 252.5625 L181.6875 250.3125 Q181.6875 245.8125 176.625 245.8125 L176.0625 245.8125 Q165.0938 245.8125 153.5625 262.6875 Q152.4375 266.0625 152.4375 268.3125 Z" stroke="none" />
    </g>
  </g>
</svg>
