<?xml version="1.0"?>

<!DOCTYPE svg PUBLIC '-//W3C//DTD SVG 1.0//EN' 'http://www.w3.org/TR/2001/REC-SVG-20010904/DTD/svg10.dtd'>
<svg fill-opacity="1" xmlns:xlink="http://www.w3.org/1999/xlink" color-rendering="auto" color-interpolation="auto" text-rendering="auto" stroke="black" stroke-linecap="square" stroke-miterlimit="10" shape-rendering="auto" stroke-opacity="1" fill="black" stroke-dasharray="none" font-weight="normal" stroke-width="1" xmlns="http://www.w3.org/2000/svg" font-family="&apos;Dialog&apos;" font-style="normal" stroke-linejoin="miter" font-size="12" stroke-dashoffset="0" image-rendering="auto">
  <!--Unicode Character 'HENTAIGANA LETTER RA-4' (U+1B0F0)-->
  <defs id="genericDefs" />
  <g>
    <g>
      <path d="M96.1875 134.4375 Q126.5625 139.2188 126.5625 152.4375 Q123.75 162.5625 112.5 193.5 Q100.6875 232.3125 100.6875 242.4375 L100.6875 245.8125 L102.375 245.8125 Q140.3438 237.375 156.9375 237.375 Q199.9688 237.375 210.375 264.375 Q211.5 269.7188 211.5 272.8125 L211.5 274.5 Q211.5 321.1875 102.375 353.25 Q100.6875 353.25 81 358.3125 Q79.5938 358.3125 76.5 352.6875 L76.5 351.5625 Q123.4688 338.3438 150.1875 323.4375 Q192.9375 298.6875 192.9375 276.1875 L192.9375 271.125 Q192.9375 252.5625 172.125 247.5 Q165.6562 246.9375 162.5625 246.9375 Q132.75 246.9375 103.5 263.25 Q99.2812 264.375 98.4375 264.375 Q93.9375 264.375 87.75 253.6875 L87.75 250.875 Q87.75 239.625 106.875 160.875 L106.875 154.6875 Q106.875 145.9688 92.25 138.9375 Q94.2188 134.7188 96.1875 134.4375 Z" stroke="none" />
    </g>
  </g>
</svg>
