<?xml version="1.0"?>

<!DOCTYPE svg PUBLIC '-//W3C//DTD SVG 1.0//EN' 'http://www.w3.org/TR/2001/REC-SVG-20010904/DTD/svg10.dtd'>
<svg fill-opacity="1" xmlns:xlink="http://www.w3.org/1999/xlink" color-rendering="auto" color-interpolation="auto" text-rendering="auto" stroke="black" stroke-linecap="square" stroke-miterlimit="10" shape-rendering="auto" stroke-opacity="1" fill="black" stroke-dasharray="none" font-weight="normal" stroke-width="1" xmlns="http://www.w3.org/2000/svg" font-family="&apos;Dialog&apos;" font-style="normal" stroke-linejoin="miter" font-size="12" stroke-dashoffset="0" image-rendering="auto">
  <!--Unicode Character 'HENTAIGANA LETTER A-2' (U+1B003)-->
  <defs id="genericDefs" />
  <g>
    <g>
      <path d="M126 131.625 Q127.125 132.1875 127.6875 132.1875 Q155.8125 132.1875 155.8125 145.6875 Q154.125 157.7812 154.125 163.6875 L154.125 167.625 Q155.25 167.625 155.25 168.1875 Q178.0312 162.2812 189 156.375 L190.125 156.375 Q195.75 156.375 197.4375 164.25 Q197.4375 173.25 153 181.125 L153 200.8125 Q185.9062 190.6875 201.375 190.6875 Q233.4375 190.6875 238.5 210.9375 L238.5 213.1875 Q238.5 234.8438 171 267.1875 Q146.25 280.4062 146.25 292.5 Q146.25 302.3438 160.875 307.125 Q163.9688 310.5 164.8125 313.875 Q164.8125 320.3438 149.0625 326.8125 Q141.1875 333 141.1875 338.625 L141.1875 339.1875 Q146.5312 345.375 157.5 345.375 L168.75 345.375 Q172.125 345.375 177.75 344.8125 Q188.4375 346.7812 188.4375 353.8125 Q188.4375 361.125 168.1875 361.125 Q129.375 358.0312 129.375 342 L129.375 341.4375 Q129.375 330.4688 146.25 316.125 L146.25 315.5625 Q134.4375 306.2812 134.4375 296.4375 Q135 287.4375 144.5625 276.75 L144.5625 275.625 Q140.0625 275.625 134.4375 266.625 Q97.875 240.1875 91.6875 240.1875 Q82.125 243.2812 63.5625 263.8125 Q60.75 264.375 60.1875 264.375 Q49.5 260.7188 49.5 248.625 L49.5 245.8125 Q49.5 229.7812 64.125 208.6875 Q66.9375 208.6875 69.1875 211.5 Q63 226.125 63 233.4375 L63 241.3125 Q63.2812 242.4375 64.125 242.4375 L64.6875 242.4375 Q67.7812 242.4375 94.5 227.25 Q114.75 216.5625 140.625 205.875 L140.625 182.8125 L136.125 182.8125 Q109.9688 182.8125 97.875 167.625 Q97.875 167.0625 101.25 162.5625 Q113.625 171 126.5625 171 L134.4375 171 L141.1875 170.4375 L141.1875 156.375 Q141.1875 143.1562 128.8125 139.5 Q123.4688 137.8125 123.1875 137.8125 Q123.1875 133.5938 126 131.625 ZM152.4375 252 Q152.4375 257.0625 153 266.625 Q152.4375 267.4688 152.4375 269.4375 Q166.5 262.6875 190.125 246.375 Q218.8125 225.2812 218.8125 215.4375 L218.8125 210.9375 Q218.8125 200.25 203.0625 198.5625 L196.3125 198.5625 Q180.8438 198.5625 152.4375 210.375 L152.4375 252 ZM99 235.6875 Q101.5312 237.375 139.5 253.6875 L140.0625 253.6875 L140.0625 225 Q140.0625 221.9062 140.625 215.4375 Q126.8438 218.25 99 235.6875 Z" stroke="none" />
    </g>
  </g>
</svg>
