<?xml version="1.0"?>

<!DOCTYPE svg PUBLIC '-//W3C//DTD SVG 1.0//EN' 'http://www.w3.org/TR/2001/REC-SVG-20010904/DTD/svg10.dtd'>
<svg fill-opacity="1" xmlns:xlink="http://www.w3.org/1999/xlink" color-rendering="auto" color-interpolation="auto" text-rendering="auto" stroke="black" stroke-linecap="square" stroke-miterlimit="10" shape-rendering="auto" stroke-opacity="1" fill="black" stroke-dasharray="none" font-weight="normal" stroke-width="1" xmlns="http://www.w3.org/2000/svg" font-family="&apos;Dialog&apos;" font-style="normal" stroke-linejoin="miter" font-size="12" stroke-dashoffset="0" image-rendering="auto">
  <!--Unicode Character 'HENTAIGANA LETTER NO-3' (U+1B09B)-->
  <defs id="genericDefs" />
  <g>
    <g>
      <path d="M116.4375 147.9375 Q122.625 147.9375 125.4375 156.375 Q125.4375 162 96.1875 197.4375 Q95.625 198.2812 95.625 199.6875 Q95.625 201.9375 106.3125 221.625 Q109.6875 229.5 109.6875 230.0625 L110.8125 230.0625 Q159.1875 197.4375 193.5 180.5625 Q197.4375 154.125 203.625 154.125 Q206.4375 154.9688 219.375 176.0625 Q219.375 179.7188 205.3125 185.625 Q200.8125 234 200.8125 259.875 L200.8125 267.1875 Q200.8125 274.5 212.0625 274.5 Q248.0625 274.5 248.0625 291.375 Q248.0625 308.8125 195.1875 340.875 Q187.5938 344.8125 186.1875 344.8125 L182.25 340.3125 L182.25 339.75 Q204.75 327.6562 225.5625 300.9375 Q228.9375 293.9062 228.9375 292.5 L228.9375 290.8125 Q228.9375 287.1562 199.6875 285.75 Q185.0625 282.6562 185.0625 264.9375 Q185.0625 236.8125 191.25 191.25 Q166.2188 201.375 114.1875 241.875 L114.1875 243 Q117.5625 269.4375 117.5625 278.4375 L117.5625 284.625 Q117.5625 309.0938 104.0625 327.375 Q90.8438 342.5625 68.0625 342.5625 Q48.9375 342.5625 41.0625 321.1875 Q39.9375 316.9688 39.9375 313.3125 L39.9375 311.625 Q39.9375 284.0625 97.875 239.0625 L97.875 238.5 Q97.875 232.5938 86.625 199.125 Q86.625 195.1875 100.6875 176.625 Q105.75 168.1875 105.75 167.0625 L104.0625 167.0625 Q89.1562 175.5 79.3125 175.5 Q63.8438 175.5 54 156.375 Q56.8125 153.5625 59.0625 153.5625 Q64.9688 160.875 74.25 160.875 L76.5 160.875 Q89.4375 160.875 113.625 148.5 L116.4375 147.9375 ZM54.5625 316.125 L54.5625 321.75 Q56.5312 334.125 65.8125 334.125 L70.875 334.125 Q96.1875 334.125 101.25 298.125 Q102.375 294.75 102.375 283.5 L102.375 278.4375 Q102.375 262.125 100.6875 252.5625 L99.5625 252.5625 Q54.5625 287.7188 54.5625 316.125 Z" stroke="none" />
    </g>
  </g>
</svg>
