<?xml version="1.0"?>

<!DOCTYPE svg PUBLIC '-//W3C//DTD SVG 1.0//EN' 'http://www.w3.org/TR/2001/REC-SVG-20010904/DTD/svg10.dtd'>
<svg fill-opacity="1" xmlns:xlink="http://www.w3.org/1999/xlink" color-rendering="auto" color-interpolation="auto" text-rendering="auto" stroke="black" stroke-linecap="square" stroke-miterlimit="10" shape-rendering="auto" stroke-opacity="1" fill="black" stroke-dasharray="none" font-weight="normal" stroke-width="1" xmlns="http://www.w3.org/2000/svg" font-family="&apos;Dialog&apos;" font-style="normal" stroke-linejoin="miter" font-size="12" stroke-dashoffset="0" image-rendering="auto">
  <!--Unicode Character 'HENTAIGANA LETTER NI-3' (U+1B089)-->
  <defs id="genericDefs" />
  <g>
    <g>
      <path d="M97.5938 143.4375 Q108.8438 150.4688 108.8438 158.625 L108.8438 162 Q108.8438 173.25 86.3438 203.625 Q73.9688 221.625 58.2188 241.3125 L58.2188 241.875 Q59.0625 243.5625 66.6562 245.8125 Q81.8438 256.5 81.8438 303.1875 L81.8438 307.125 Q81.8438 310.7812 81.2812 318.375 L81.8438 318.375 Q84.6562 317.25 100.4062 298.6875 L100.9688 298.6875 Q103.7812 301.2188 103.7812 303.1875 Q81.8438 332.7188 80.1562 344.8125 Q76.5 349.3125 73.4062 349.3125 Q66.6562 349.3125 65.5312 339.1875 Q68.9062 317.8125 68.9062 288.5625 Q68.9062 256.2188 59.3438 250.3125 L57.0938 250.3125 Q49.2188 258.1875 46.4062 258.1875 Q40.7812 255.6562 40.7812 243 Q40.7812 237.0938 57.6562 219.9375 Q97.0312 170.7188 97.0312 160.3125 L97.0312 154.125 Q97.0312 153.2812 94.2188 146.8125 Q94.7812 146.8125 97.5938 143.4375 ZM208.9688 192.9375 Q226.9688 196.0312 226.9688 203.625 Q226.9688 216 192.6562 232.3125 Q189.8438 229.2188 189.8438 228.9375 Q206.7188 214.0312 206.7188 209.25 L206.7188 208.125 Q206.7188 207 205.5938 207 L195.4688 207 Q178.875 207 150.4688 220.5 Q147.6562 216.8438 147.6562 215.4375 Q174.9375 192.9375 208.9688 192.9375 ZM140.3438 283.5 Q140.3438 291.9375 153.8438 300.375 Q166.7812 306 190.4062 306 L199.4062 306 Q222.4688 306 237.0938 300.375 Q247.2188 302.3438 247.2188 308.8125 L247.2188 309.375 Q247.2188 321.75 197.7188 321.75 Q145.6875 321.75 135.8438 294.1875 Q134.1562 289.6875 134.1562 285.75 Q138.6562 283.5 140.3438 283.5 Z" stroke="none" />
    </g>
  </g>
</svg>
