<?xml version="1.0"?>

<!DOCTYPE svg PUBLIC '-//W3C//DTD SVG 1.0//EN' 'http://www.w3.org/TR/2001/REC-SVG-20010904/DTD/svg10.dtd'>
<svg fill-opacity="1" xmlns:xlink="http://www.w3.org/1999/xlink" color-rendering="auto" color-interpolation="auto" text-rendering="auto" stroke="black" stroke-linecap="square" stroke-miterlimit="10" shape-rendering="auto" stroke-opacity="1" fill="black" stroke-dasharray="none" font-weight="normal" stroke-width="1" xmlns="http://www.w3.org/2000/svg" font-family="&apos;Dialog&apos;" font-style="normal" stroke-linejoin="miter" font-size="12" stroke-dashoffset="0" image-rendering="auto">
  <!--Unicode Character 'HENTAIGANA LETTER SA-4' (U+1B03F)-->
  <defs id="genericDefs" />
  <g>
    <g>
      <path d="M152.4375 140.0625 Q164.25 140.0625 172.125 150.1875 Q171 151.875 171 153 L169.875 153 Q164.8125 150.1875 161.4375 150.1875 L160.3125 150.1875 Q150.1875 151.875 150.1875 160.3125 Q149.625 181.9688 149.625 184.5 Q150.1875 184.5 150.1875 185.0625 Q193.5 180.5625 202.5 174.375 L211.5 171.5625 Q227.8125 173.8125 227.8125 180 L227.8125 180.5625 Q227.8125 188.4375 181.6875 194.0625 Q171 196.3125 151.875 198 L151.875 202.5 Q151.875 221.0625 158.0625 221.0625 Q161.1562 224.1562 185.0625 228.375 Q187.875 231.1875 189 234.5625 Q189 241.875 162.5625 248.0625 L133.875 259.875 L133.3125 259.875 Q132.4688 259.875 130.5 257.0625 Q144.5625 246.9375 167.625 235.6875 Q167.625 233.7188 149.625 232.3125 Q137.25 228.0938 137.25 216.5625 Q135.8438 200.8125 134.4375 200.8125 L133.3125 201.375 Q128.8125 201.375 117 201.9375 Q76.2188 201.9375 60.1875 181.125 L60.1875 180.5625 L62.4375 176.625 Q80.1562 188.4375 116.4375 188.4375 Q129.9375 187.875 134.4375 186.75 Q133.875 174.6562 133.875 168.75 L133.875 168.1875 Q133.875 140.0625 152.4375 140.0625 ZM121.5 266.625 Q123.4688 267.75 124.3125 267.75 L124.3125 269.4375 Q122.0625 272.5312 122.0625 274.5 L122.0625 277.875 Q122.0625 282.9375 153.5625 282.9375 Q164.25 285.75 164.25 293.0625 Q164.25 296.4375 151.3125 300.375 Q132.1875 312.1875 132.1875 321.1875 L132.1875 323.4375 Q132.1875 335.8125 161.4375 335.8125 L172.6875 335.8125 Q176.9062 335.8125 188.4375 334.125 Q203.0625 336.6562 203.0625 344.25 Q199.9688 352.6875 177.75 352.6875 L175.5 352.6875 Q136.125 352.6875 126.5625 336.9375 Q123.75 333 122.0625 324.5625 Q122.0625 314.7188 137.8125 297.5625 L137.8125 295.875 Q112.5 293.9062 112.5 280.6875 L112.5 279.5625 Q114.75 266.625 121.5 266.625 Z" stroke="none" />
    </g>
  </g>
</svg>
