<?xml version="1.0"?>

<!DOCTYPE svg PUBLIC '-//W3C//DTD SVG 1.0//EN' 'http://www.w3.org/TR/2001/REC-SVG-20010904/DTD/svg10.dtd'>
<svg fill-opacity="1" xmlns:xlink="http://www.w3.org/1999/xlink" color-rendering="auto" color-interpolation="auto" text-rendering="auto" stroke="black" stroke-linecap="square" stroke-miterlimit="10" shape-rendering="auto" stroke-opacity="1" fill="black" stroke-dasharray="none" font-weight="normal" stroke-width="1" xmlns="http://www.w3.org/2000/svg" font-family="&apos;Dialog&apos;" font-style="normal" stroke-linejoin="miter" font-size="12" stroke-dashoffset="0" image-rendering="auto">
  <!--Unicode Character 'HENTAIGANA LETTER HI-7' (U+1B0AF)-->
  <defs id="genericDefs" />
  <g>
    <g>
      <path d="M102.6562 136.4062 Q117 150.4688 136.4062 150.4688 Q144.2812 154.4062 144.2812 160.5938 Q144.2812 166.7812 133.5938 167.3438 L133.0312 167.3438 Q112.5 167.3438 99.2812 140.3438 L99.2812 139.2188 L102.6562 136.4062 ZM80.7188 191.5312 Q80.7188 198 101.5312 199.9688 L103.2188 199.9688 L108.2812 199.4062 Q118.4062 199.4062 126.2812 210.6562 L126.8438 212.9062 Q126.8438 219.0938 113.3438 224.7188 Q87.1875 249.75 58.2188 271.9688 L57.6562 273.0938 L58.2188 273.0938 Q70.5938 272.25 109.9688 256.2188 Q118.9688 251.1562 132.4688 241.5938 Q145.9688 244.6875 145.9688 253.9688 Q145.9688 254.8125 129.6562 269.7188 Q104.9062 298.9688 104.9062 328.2188 L104.9062 328.7812 Q104.9062 342.2812 144.8438 342.2812 L152.1562 342.2812 Q193.7812 339.4688 193.7812 322.0312 L193.7812 316.9688 Q193.7812 308.8125 179.7188 252.8438 Q179.1562 247.5 178.5938 246.6562 Q180.8438 244.9688 185.3438 244.9688 Q191.8125 271.4062 209.5312 314.1562 Q211.2188 321.1875 211.2188 323.7188 Q211.2188 346.5 172.9688 354.0938 Q159.75 356.3438 151.0312 356.3438 L145.9688 356.3438 Q104.3438 356.3438 95.3438 342.8438 Q90.8438 336.9375 90.8438 329.9062 L90.8438 327.6562 Q90.8438 306.5625 121.7812 260.1562 L121.7812 259.5938 L121.2188 259.5938 Q63.8438 292.2188 55.9688 292.2188 Q47.25 292.2188 40.2188 277.0312 L40.2188 276.4688 Q41.9062 272.8125 59.3438 262.4062 Q97.5938 228.0938 101.5312 215.7188 L100.9688 215.7188 Q80.7188 215.7188 75.6562 195.4688 Q75.6562 193.2188 80.7188 191.5312 ZM216.2812 193.7812 Q235.4062 193.7812 246.6562 214.5938 Q247.7812 219.375 247.7812 220.7812 Q247.7812 235.9688 219.6562 241.5938 L216.8438 242.1562 Q214.3125 241.0312 212.3438 238.2188 L212.3438 236.5312 Q229.2188 232.3125 229.2188 221.9062 L229.2188 219.6562 Q225.2812 203.3438 213.4688 203.3438 L210.0938 203.3438 Q203.625 203.3438 197.7188 207.2812 L197.1562 207.2812 Q194.3438 205.875 194.3438 202.7812 Q205.5938 193.7812 216.2812 193.7812 Z" stroke="none" />
    </g>
  </g>
</svg>
