<?xml version="1.0"?>

<!DOCTYPE svg PUBLIC '-//W3C//DTD SVG 1.0//EN' 'http://www.w3.org/TR/2001/REC-SVG-20010904/DTD/svg10.dtd'>
<svg fill-opacity="1" xmlns:xlink="http://www.w3.org/1999/xlink" color-rendering="auto" color-interpolation="auto" text-rendering="auto" stroke="black" stroke-linecap="square" stroke-miterlimit="10" shape-rendering="auto" stroke-opacity="1" fill="black" stroke-dasharray="none" font-weight="normal" stroke-width="1" xmlns="http://www.w3.org/2000/svg" font-family="&apos;Dialog&apos;" font-style="normal" stroke-linejoin="miter" font-size="12" stroke-dashoffset="0" image-rendering="auto">
  <!--Unicode Character 'HENTAIGANA LETTER HI-3' (U+1B0AB)-->
  <defs id="genericDefs" />
  <g>
    <g>
      <path d="M147.6562 149.9062 Q165.9375 149.9062 173.5312 159.4688 Q174.6562 163.6875 174.6562 165.0938 Q171.2812 193.2188 169.5938 219.0938 L170.1562 219.0938 Q173.8125 219.0938 203.3438 198.8438 L207.2812 198.2812 Q215.7188 198.2812 221.3438 205.0312 L221.3438 206.7188 Q221.3438 212.625 195.4688 219.0938 Q169.0312 228.375 169.0312 232.5938 Q166.7812 263.5312 166.7812 290.5312 Q166.7812 314.7188 177.4688 319.7812 Q184.5 323.1562 196.5938 323.1562 L204.4688 323.1562 Q212.3438 323.1562 238.2188 318.6562 L238.7812 318.6562 Q248.3438 319.5 248.3438 327.0938 Q248.3438 336.375 210.6562 338.3438 L203.9062 338.3438 Q169.0312 338.3438 158.3438 320.9062 Q151.5938 306.8438 151.5938 283.2188 Q152.1562 254.25 153.2812 239.3438 L152.1562 239.3438 Q135.2812 246.9375 97.0312 284.9062 Q65.25 322.5938 62.7188 339.4688 Q58.7812 342.8438 56.5312 342.8438 Q45 342.8438 40.7812 303.4688 L39.6562 273.6562 Q39.6562 216.8438 62.1562 162.2812 L62.7188 162.2812 Q68.3438 162.5625 68.3438 165.0938 Q54.8438 212.9062 54.8438 271.9688 Q55.6875 311.9062 58.2188 311.9062 Q88.875 274.2188 125.1562 246.0938 Q153.8438 227.5312 153.8438 226.9688 Q157.7812 180 157.7812 168.4688 L157.7812 166.7812 Q157.7812 159.75 143.7188 156.0938 L143.7188 154.4062 Q145.9688 149.9062 147.6562 149.9062 ZM114.4688 194.3438 Q129.0938 198.5625 129.0938 202.7812 L129.0938 205.0312 Q129.0938 219.6562 95.9062 223.0312 L91.4062 223.0312 Q77.0625 223.0312 67.2188 211.2188 L67.2188 210.6562 Q69.4688 206.7188 70.0312 206.7188 Q79.3125 210.6562 93.0938 210.6562 Q115.0312 208.6875 115.0312 201.6562 Q115.0312 200.8125 111.0938 197.7188 Q111.0938 196.875 114.4688 194.3438 Z" stroke="none" />
    </g>
  </g>
</svg>
