<?xml version="1.0"?>

<!DOCTYPE svg PUBLIC '-//W3C//DTD SVG 1.0//EN' 'http://www.w3.org/TR/2001/REC-SVG-20010904/DTD/svg10.dtd'>
<svg fill-opacity="1" xmlns:xlink="http://www.w3.org/1999/xlink" color-rendering="auto" color-interpolation="auto" text-rendering="auto" stroke="black" stroke-linecap="square" stroke-miterlimit="10" shape-rendering="auto" stroke-opacity="1" fill="black" stroke-dasharray="none" font-weight="normal" stroke-width="1" xmlns="http://www.w3.org/2000/svg" font-family="&apos;Dialog&apos;" font-style="normal" stroke-linejoin="miter" font-size="12" stroke-dashoffset="0" image-rendering="auto">
  <!--Unicode Character 'HENTAIGANA LETTER NU-3' (U+1B091)-->
  <defs id="genericDefs" />
  <g>
    <g>
      <path d="M119.5312 137.5312 Q137.5312 142.5938 142.5938 151.0312 Q144.8438 156.375 144.8438 163.9688 L144.8438 164.5312 L145.4062 164.5312 Q165.6562 159.4688 179.1562 159.4688 Q217.4062 159.4688 231.4688 189.8438 Q233.7188 198.8438 233.7188 204.4688 L233.7188 207.2812 Q233.7188 237.9375 203.3438 261.2812 Q201.375 269.1562 190.9688 277.0312 Q174.0938 287.1562 108.2812 304.5938 Q87.1875 312.1875 80.7188 317.5312 L80.7188 318.0938 Q98.1562 311.3438 106.5938 311.3438 Q118.6875 311.3438 144.2812 334.9688 L144.8438 334.9688 Q147.9375 334.9688 157.2188 322.5938 Q178.3125 302.9062 199.4062 302.9062 Q231.1875 302.9062 252.8438 338.3438 Q253.9688 342.5625 253.9688 343.9688 Q251.7188 354.6562 244.9688 354.6562 Q237.375 354.6562 229.7812 336.0938 Q213.4688 310.2188 197.1562 310.2188 L193.2188 310.2188 Q177.75 310.2188 162.8438 335.5312 Q157.5 353.25 154.4062 354.0938 Q150.1875 355.2188 148.7812 355.2188 Q142.3125 355.2188 114.4688 322.5938 Q110.25 319.2188 106.5938 319.2188 L99.2812 319.2188 Q86.3438 319.2188 52.5938 346.7812 Q45.5625 355.2188 41.3438 355.2188 Q35.7188 355.2188 34.0312 344.5312 Q34.0312 334.125 58.2188 322.5938 Q95.0625 299.25 143.1562 285.4688 Q165.9375 277.5938 166.7812 275.9062 L166.7812 275.3438 Q152.1562 275.3438 144.8438 262.4062 L144.2812 258.4688 Q144.2812 246.0938 169.0312 241.0312 Q169.3125 240.4688 174.6562 240.4688 Q188.7188 240.4688 201.0938 251.1562 L201.6562 251.1562 Q215.7188 234.2812 215.7188 213.4688 L215.7188 207.2812 Q215.7188 178.5938 188.7188 169.0312 Q184.2188 167.9062 179.1562 167.9062 L177.4688 167.9062 Q144.2812 170.1562 144.2812 176.9062 Q144.2812 199.125 126.2812 234.8438 Q125.4375 234.8438 121.7812 241.0312 Q134.7188 249.1875 134.7188 250.0312 L134.7188 251.1562 Q134.7188 256.2188 125.7188 257.9062 Q123.4688 257.9062 111.6562 252.2812 Q77.625 282.375 66.0938 283.2188 Q61.5938 283.2188 52.5938 269.7188 Q40.2188 263.25 40.2188 256.7812 Q40.5 242.1562 76.7812 203.9062 Q72.2812 190.4062 72.2812 175.2188 L72.2812 174.0938 Q72.2812 152.1562 76.2188 152.1562 Q77.0625 151.5938 79.0312 151.5938 Q79.5938 152.7188 79.5938 153.2812 Q79.5938 174.0938 86.9062 195.4688 L87.4688 195.4688 Q107.1562 180.5625 129.0938 169.5938 L129.0938 160.5938 Q129.0938 148.5 116.1562 143.1562 Q116.1562 140.625 119.5312 137.5312 ZM91.9688 206.7188 Q97.5938 223.3125 111.6562 234.2812 L112.2188 234.2812 Q122.625 221.625 127.9688 191.5312 Q129.0938 191.5312 129.0938 181.9688 L129.0938 178.5938 L128.5312 178.5938 Q114.1875 183.6562 91.9688 206.7188 ZM54.8438 257.9062 L54.8438 259.5938 Q54.8438 260.7188 67.7812 271.9688 L69.4688 271.9688 Q83.25 267.1875 102.0938 247.7812 Q103.2188 247.7812 103.2188 244.9688 Q85.5 228.375 81.8438 216.2812 L80.1562 216.2812 Q58.5 240.1875 54.8438 257.9062 ZM153.8438 259.5938 Q153.8438 267.1875 167.9062 268.0312 L169.5938 268.0312 Q183.9375 268.0312 189.2812 259.5938 Q185.0625 249.4688 178.0312 249.4688 Q178.0312 248.3438 171.2812 248.3438 L170.7188 248.3438 Q156.0938 248.3438 153.8438 258.4688 L153.8438 259.5938 Z" stroke="none" />
    </g>
  </g>
</svg>
