<?xml version="1.0"?>

<!DOCTYPE svg PUBLIC '-//W3C//DTD SVG 1.0//EN' 'http://www.w3.org/TR/2001/REC-SVG-20010904/DTD/svg10.dtd'>
<svg fill-opacity="1" xmlns:xlink="http://www.w3.org/1999/xlink" color-rendering="auto" color-interpolation="auto" text-rendering="auto" stroke="black" stroke-linecap="square" stroke-miterlimit="10" shape-rendering="auto" stroke-opacity="1" fill="black" stroke-dasharray="none" font-weight="normal" stroke-width="1" xmlns="http://www.w3.org/2000/svg" font-family="&apos;Dialog&apos;" font-style="normal" stroke-linejoin="miter" font-size="12" stroke-dashoffset="0" image-rendering="auto">
  <!--Unicode Character 'HENTAIGANA LETTER YO-3' (U+1B0E9)-->
  <defs id="genericDefs" />
  <g>
    <g>
      <path d="M120.375 135 Q151.3125 141.4688 151.3125 155.8125 Q151.3125 158.0625 144.5625 174.375 Q156.9375 178.875 171.5625 178.875 L174.9375 178.875 Q180.8438 178.875 194.0625 173.25 Q194.9062 172.6875 197.4375 172.6875 Q203.0625 172.6875 205.875 176.625 L205.875 178.3125 Q205.875 189.2812 176.0625 191.8125 Q160.875 191.8125 140.625 182.8125 Q130.5 213.4688 130.5 220.5 L130.5 222.75 Q130.5 226.4062 153 233.4375 Q167.0625 240.4688 174.375 254.25 Q178.3125 264.6562 178.875 264.9375 Q208.9688 262.125 228.9375 261 Q246.9375 264.6562 246.9375 271.125 Q246.9375 276.4688 237.375 277.3125 Q210.375 276.75 193.5 276.75 L180 276.75 L180 280.6875 Q180 318.6562 148.5 349.3125 Q136.4062 357.75 124.875 357.75 Q102.6562 357.75 89.4375 325.125 Q86.0625 313.5938 86.0625 305.4375 Q86.0625 301.2188 87.1875 292.5 Q68.3438 298.6875 64.6875 298.6875 Q51.1875 298.6875 41.0625 270.5625 L41.0625 268.875 L46.6875 266.0625 Q57.0938 282.9375 67.5 282.9375 Q70.0312 282.9375 124.3125 272.25 Q162 266.625 162.5625 266.625 Q162.5625 250.5938 146.25 240.1875 Q119.8125 231.75 119.8125 227.25 Q118.6875 222.1875 118.6875 219.9375 Q118.6875 209.8125 131.625 158.625 L131.625 154.6875 Q131.625 145.9688 116.4375 140.625 L116.4375 140.0625 Q118.4062 135 120.375 135 ZM95.0625 290.25 L95.0625 298.6875 Q95.0625 333.8438 120.9375 343.125 L126 343.125 Q148.5 343.125 162 295.875 Q163.125 287.1562 163.6875 277.875 Q139.7812 278.1562 95.625 289.125 L95.0625 290.25 Z" stroke="none" />
    </g>
  </g>
</svg>
