<?xml version="1.0"?>

<!DOCTYPE svg PUBLIC '-//W3C//DTD SVG 1.0//EN' 'http://www.w3.org/TR/2001/REC-SVG-20010904/DTD/svg10.dtd'>
<svg fill-opacity="1" xmlns:xlink="http://www.w3.org/1999/xlink" color-rendering="auto" color-interpolation="auto" text-rendering="auto" stroke="black" stroke-linecap="square" stroke-miterlimit="10" shape-rendering="auto" stroke-opacity="1" fill="black" stroke-dasharray="none" font-weight="normal" stroke-width="1" xmlns="http://www.w3.org/2000/svg" font-family="&apos;Dialog&apos;" font-style="normal" stroke-linejoin="miter" font-size="12" stroke-dashoffset="0" image-rendering="auto">
  <!--Unicode Character 'HENTAIGANA LETTER MU-3' (U+1B0D2)-->
  <defs id="genericDefs" />
  <g>
    <g>
      <path d="M107.1562 126 Q132.4688 130.7812 132.4688 142.875 L132.4688 143.4375 Q132.4688 149.625 95.9062 179.4375 Q88.0312 184.5 88.0312 186.75 L88.5938 186.75 L187.5938 151.3125 L189.2812 151.3125 Q201.375 151.3125 216.8438 164.8125 Q218.25 168.75 218.5312 168.75 Q218.5312 179.7188 183.6562 188.4375 Q183.0938 189 160.5938 196.875 Q161.1562 205.3125 161.1562 209.25 L161.1562 214.875 Q162.5625 214.875 170.1562 212.625 Q179.1562 214.875 179.1562 220.5 L179.1562 222.1875 Q179.1562 225.8438 161.1562 231.1875 L161.1562 265.5 L161.7188 265.5 Q170.7188 265.5 197.7188 255.375 Q200.25 254.25 203.3438 254.25 Q210.6562 254.25 212.3438 260.4375 Q212.3438 271.6875 161.1562 280.125 Q161.1562 332.7188 142.5938 366.75 Q139.7812 366.75 135.8438 363.375 L135.8438 362.8125 Q146.5312 328.7812 146.5312 281.25 Q136.125 282.375 124.0312 282.375 L121.2188 282.375 Q90.2812 282.375 90.2812 266.625 Q90.2812 252.8438 132.4688 232.875 L132.4688 232.3125 L131.3438 232.3125 Q112.2188 232.3125 108.8438 220.5 Q108.8438 219.9375 108.2812 218.8125 Q108.2812 208.125 144.8438 195.75 L144.8438 194.625 Q144.8438 190.9688 139.2188 185.625 Q140.625 183.0938 143.1562 182.25 Q148.2188 183.375 156.6562 190.125 L157.7812 190.125 Q198 172.4062 198.2812 168.75 L198.2812 166.5 Q195.4688 161.4375 189.8438 161.4375 L186.4688 161.4375 Q178.5938 161.4375 130.2188 181.125 Q97.3125 196.875 81.2812 206.4375 Q78.4688 207 77.9062 207 Q73.125 207 69.4688 194.625 Q69.4688 190.125 91.9688 170.4375 Q113.9062 148.5 113.9062 141.75 L113.9062 141.1875 Q113.9062 136.125 102.6562 130.5 Q102.6562 128.5312 107.1562 126 ZM121.2188 216 L121.2188 216.5625 Q121.2188 219.375 133.0312 219.9375 Q144.2812 219.375 146.5312 218.8125 L146.5312 205.875 L145.9688 203.0625 L144.8438 203.0625 Q121.2188 210.9375 121.2188 216 ZM100.9688 264.375 Q100.9688 269.4375 125.1562 269.4375 Q146.5312 268.5938 146.5312 267.75 Q147.0938 252.8438 147.0938 244.125 L147.0938 236.8125 L146.5312 236.8125 Q100.9688 253.4062 100.9688 264.375 Z" stroke="none" />
    </g>
  </g>
</svg>
