<?xml version="1.0" encoding="UTF-8" standalone="no"?>
<svg
   xmlns:dc="http://purl.org/dc/elements/1.1/"
   xmlns:cc="http://creativecommons.org/ns#"
   xmlns:rdf="http://www.w3.org/1999/02/22-rdf-syntax-ns#"
   xmlns:svg="http://www.w3.org/2000/svg"
   xmlns="http://www.w3.org/2000/svg"
   xmlns:sodipodi="http://sodipodi.sourceforge.net/DTD/sodipodi-0.dtd"
   xmlns:inkscape="http://www.inkscape.org/namespaces/inkscape"
   fill-opacity="1"
   color-rendering="auto"
   color-interpolation="auto"
   text-rendering="auto"
   stroke="black"
   stroke-linecap="square"
   stroke-miterlimit="10"
   shape-rendering="auto"
   stroke-opacity="1"
   fill="black"
   stroke-dasharray="none"
   font-weight="normal"
   stroke-width="1"
   font-family="'Dialog'"
   font-style="normal"
   stroke-linejoin="miter"
   font-size="12"
   stroke-dashoffset="0"
   image-rendering="auto"
   version="1.1"
   id="svg9"
   sodipodi:docname="hentaigana_letter_wi1.svg"
   inkscape:version="0.92.4 (5da689c313, 2019-01-14)">
  <metadata
     id="metadata13">
    <rdf:RDF>
      <cc:Work
         rdf:about="">
        <dc:format>image/svg+xml</dc:format>
        <dc:type
           rdf:resource="http://purl.org/dc/dcmitype/StillImage" />
      </cc:Work>
    </rdf:RDF>
  </metadata>
  <sodipodi:namedview
     pagecolor="#ffffff"
     bordercolor="#666666"
     borderopacity="1"
     objecttolerance="10"
     gridtolerance="10"
     guidetolerance="10"
     inkscape:pageopacity="0"
     inkscape:pageshadow="2"
     inkscape:window-width="1920"
     inkscape:window-height="986"
     id="namedview11"
     showgrid="false"
     inkscape:zoom="2.36"
     inkscape:cx="50"
     inkscape:cy="50"
     inkscape:window-x="-11"
     inkscape:window-y="-11"
     inkscape:window-maximized="1"
     inkscape:current-layer="svg9" />
  <!--Unicode Character 'HENTAIGANA LETTER WI-1' (U+1B10D)-->
  <defs
     id="genericDefs" />
  <g
     id="g7"
     transform="matrix(0.45653627,0,0,0.40437087,-15.173425,-49.862045)">
    <g
       id="g5">
      <path
         d="m 176.9062,125.4375 q 14.0626,0 14.0626,24.1875 1.125,18 1.125,31.5 h 1.125 q 14.625,-4.5 17.4374,-4.5 11.8126,2.8125 11.8126,11.25 0,6.4688 -30.375,27 l -1.6876,43.875 q 1.125,0 1.125,0.5625 13.7813,-3.9375 37.6876,-16.875 3.0937,-0.5625 4.5,-0.5625 8.1562,0 11.25,5.0625 v 1.6875 q 0,9 -56.25,27.5625 -8.4376,69.4687 -22.5,91.125 -5.0626,-0.8437 -5.0626,-1.6875 11.25,-50.3438 11.25,-86.625 h -0.5624 q -41.9063,8.1562 -68.625,10.6875 v 1.6875 q 0,18.8438 6.75,56.8125 -3.9376,1.125 -6.75,1.125 -9.8438,-27 -14.0626,-59.0625 l -13.5,1.125 q -32.625,0 -32.625,-15.1875 0,-10.4063 19.6876,-18 0.8437,0 2.8124,3.375 -9.5624,7.0313 -9.5624,8.4375 v 3.9375 q 1.6874,4.5 18.5624,4.5 h 1.125 q 3.6563,0 11.25,-0.5625 -1.125,-24.4688 -1.125,-45.5625 v -8.4375 l 0.5626,-6.75 q -27.2813,0 -39.375,-21.9375 v -1.125 q 2.5312,-2.8125 4.5,-2.8125 10.6874,12.375 27.5624,12.375 h 7.3126 q 0.2812,-20.25 10.125,-55.6875 1.125,0 1.125,-0.5625 6.1874,0.8438 6.1874,2.8125 -2.8124,31.5 -2.8124,52.3125 h 0.5624 q 19.6876,0 73.6876,-15.1875 v -21.375 q 0,-29.8125 -4.5,-29.8125 h -1.6876 q -3.6562,0 -8.4374,3.9375 h -0.5626 q -0.8437,0 -2.8124,-2.8125 v -0.5625 q 10.6874,-11.25 19.6874,-11.25 z m 15.1876,71.4375 v 9 h 1.125 q 7.875,-6.1875 12.9374,-14.0625 v -1.125 h -0.5624 q -13.5,4.5 -13.5,6.1875 z m -91.6876,41.0625 q 0,16.875 1.6876,38.25 h 0.5624 q 16.5938,0 70.875,-11.8125 1.125,-14.0625 1.6876,-63 h -0.5626 q -32.625,9 -74.25,15.1875 z"
         id="path3"
         inkscape:connector-curvature="0"
         style="stroke:none" />
    </g>
  </g>
</svg>
