<?xml version="1.0"?>

<!DOCTYPE svg PUBLIC '-//W3C//DTD SVG 1.0//EN' 'http://www.w3.org/TR/2001/REC-SVG-20010904/DTD/svg10.dtd'>
<svg fill-opacity="1" xmlns:xlink="http://www.w3.org/1999/xlink" color-rendering="auto" color-interpolation="auto" text-rendering="auto" stroke="black" stroke-linecap="square" stroke-miterlimit="10" shape-rendering="auto" stroke-opacity="1" fill="black" stroke-dasharray="none" font-weight="normal" stroke-width="1" xmlns="http://www.w3.org/2000/svg" font-family="&apos;Dialog&apos;" font-style="normal" stroke-linejoin="miter" font-size="12" stroke-dashoffset="0" image-rendering="auto">
  <!--Unicode Character 'HENTAIGANA LETTER RI-5' (U+1B0F5)-->
  <defs id="genericDefs" />
  <g>
    <g>
      <path d="M211.7812 145.9688 Q234.8438 145.9688 243.2812 166.2188 Q244.9688 172.9688 244.9688 175.7812 Q244.9688 200.25 218.5312 220.2188 Q211.2188 225.2812 194.3438 229.2188 L194.3438 229.7812 Q194.3438 237.0938 193.7812 258.4688 Q202.2188 262.125 202.2188 266.9062 Q202.2188 271.4062 193.7812 284.3438 L193.7812 298.9688 Q193.7812 311.625 181.9688 315.2812 Q179.1562 315.2812 170.7188 309.0938 Q149.3438 322.875 149.3438 325.4062 L149.3438 326.5312 Q149.3438 332.1562 188.1562 332.1562 Q208.9688 332.1562 227.5312 327.0938 Q238.7812 328.7812 238.7812 336.0938 Q238.7812 343.6875 211.2188 345.6562 Q197.7188 346.5 193.7812 346.7812 Q151.3125 346.7812 142.0312 336.6562 Q139.5 333.8438 138.6562 329.9062 Q138.6562 321.75 158.3438 308.5312 Q161.1562 305.4375 161.1562 304.0312 Q142.3125 292.2188 140.9062 286.5938 Q140.9062 275.9062 180.8438 260.7188 Q182.5312 258.75 182.5312 252.8438 L182.5312 230.9062 Q176.3438 225.2812 176.3438 224.7188 L176.3438 222.4688 Q188.4375 209.5312 189.2812 209.5312 L191.5312 209.5312 Q194.9062 210.9375 194.9062 217.4062 L194.9062 221.3438 Q205.3125 221.3438 217.4062 206.7188 Q226.4062 194.625 226.4062 176.9062 Q226.4062 163.6875 218.5312 159.4688 Q214.875 158.3438 213.4688 158.3438 L208.4062 158.3438 Q174.6562 158.3438 140.9062 209.5312 Q138.0938 213.4688 136.9688 213.4688 Q134.4375 211.7812 133.5938 211.7812 L133.5938 210.0938 Q148.2188 172.6875 185.9062 152.1562 Q201.9375 145.9688 211.7812 145.9688 ZM91.4062 158.3438 Q100.4062 163.9688 100.4062 168.4688 Q95.3438 180.2812 95.3438 204.4688 L95.3438 209.5312 L94.7812 216.2812 Q99.8438 219.375 99.8438 221.9062 Q94.7812 238.5 94.7812 239.9062 Q94.7812 247.2188 95.3438 265.2188 Q93.9375 273.6562 86.9062 273.6562 L85.2188 273.6562 L79.5938 273.0938 Q74.25 282.9375 59.3438 305.7188 L60.4688 305.7188 Q93.9375 278.7188 115.5938 248.9062 Q124.0312 237.6562 125.7188 236.5312 L128.5312 239.9062 Q110.8125 271.6875 72.2812 314.1562 Q60.4688 328.2188 53.7188 328.2188 L53.1562 328.2188 Q48.375 328.2188 43.0312 318.6562 L43.0312 316.9688 Q43.0312 315.2812 54.2812 300.0938 Q67.5 275.3438 68.9062 269.7188 Q46.9688 258.1875 46.9688 250.0312 Q46.9688 240.75 78.4688 221.9062 L81.2812 220.2188 Q82.4062 183.6562 82.9688 178.0312 L81.2812 178.0312 Q70.3125 185.3438 63.8438 185.3438 Q55.6875 185.3438 48.6562 167.9062 Q48.6562 165.6562 52.0312 163.4062 Q58.5 170.7188 63.8438 170.7188 Q70.875 170.7188 90.2812 158.3438 L91.4062 158.3438 ZM61.5938 251.7188 L61.5938 253.4062 Q66.9375 260.1562 72.2812 260.1562 Q75.0938 260.1562 80.7188 247.7812 L80.7188 234.2812 L79.5938 234.2812 Q63.5625 244.125 61.5938 251.7188 ZM154.4062 289.4062 L154.4062 289.9688 Q162.2812 297 169.0312 297.2812 Q177.1875 290.5312 181.9688 283.2188 L181.9688 273.6562 L181.4062 273.6562 Q154.4062 282.6562 154.4062 289.4062 Z" stroke="none" />
    </g>
  </g>
</svg>
