<?xml version="1.0"?>

<!DOCTYPE svg PUBLIC '-//W3C//DTD SVG 1.0//EN' 'http://www.w3.org/TR/2001/REC-SVG-20010904/DTD/svg10.dtd'>
<svg fill-opacity="1" xmlns:xlink="http://www.w3.org/1999/xlink" color-rendering="auto" color-interpolation="auto" text-rendering="auto" stroke="black" stroke-linecap="square" stroke-miterlimit="10" shape-rendering="auto" stroke-opacity="1" fill="black" stroke-dasharray="none" font-weight="normal" stroke-width="1" xmlns="http://www.w3.org/2000/svg" font-family="&apos;Dialog&apos;" font-style="normal" stroke-linejoin="miter" font-size="12" stroke-dashoffset="0" image-rendering="auto">
  <!--Unicode Character 'HENTAIGANA LETTER RO-5' (U+1B106)-->
  <defs id="genericDefs" />
  <g>
    <g>
      <path d="M169.3125 135.5625 Q183.375 138.9375 183.375 147.375 Q181.9688 154.6875 165.9375 179.4375 L165.9375 180 L166.5 180 Q168.4688 180 187.3125 171.5625 L189.5625 171 Q197.4375 171 203.0625 182.25 Q203.0625 186.75 187.3125 223.3125 Q194.9062 222.75 198.5625 222.75 L201.375 222.75 Q217.6875 224.4375 217.6875 236.8125 L217.6875 237.9375 Q217.6875 247.5 210.375 273.375 L210.375 274.5 Q210.6562 275.625 211.5 275.625 Q222.75 272.8125 226.6875 272.8125 L228.375 272.8125 Q250.875 275.9062 250.875 293.625 L250.875 294.1875 Q250.875 329.9062 152.4375 357.1875 L151.3125 357.1875 L148.5 351.5625 Q233.4375 323.7188 233.4375 293.625 L233.4375 290.8125 Q232.0312 281.25 226.6875 281.25 Q219.9375 281.25 204.1875 285.75 Q199.125 285.75 196.875 279 Q201.375 262.6875 201.375 241.875 L201.375 239.0625 Q201.375 231.75 194.625 231.75 L191.25 231.75 Q181.125 231.75 179.4375 238.5 Q167.3438 264.9375 146.8125 284.0625 Q131.3438 296.4375 122.625 296.4375 Q110.8125 296.4375 109.125 281.8125 Q109.125 260.1562 147.375 237.375 Q170.1562 227.8125 172.6875 226.125 Q186.1875 194.3438 186.1875 185.0625 L185.0625 184.5 Q163.6875 193.2188 150.1875 200.25 Q144.2812 200.25 142.875 190.125 Q142.875 187.5938 156.9375 172.125 Q171 149.625 171 145.6875 L171 143.4375 Q171 142.875 166.5 138.9375 L166.5 138.375 Q166.5 137.5312 169.3125 135.5625 ZM75.375 143.4375 L76.5 143.4375 Q76.5 149.625 88.875 160.3125 Q106.3125 163.6875 106.3125 173.8125 Q106.3125 181.125 88.3125 181.125 Q81.8438 184.7812 73.6875 191.25 L72.5625 191.25 Q69.1875 189.2812 69.1875 188.4375 Q82.125 175.2188 82.125 174.375 Q71.4375 160.0312 71.4375 147.375 Q71.4375 145.6875 75.375 143.4375 ZM84.9375 221.0625 Q92.8125 224.4375 92.8125 229.5 Q92.8125 230.9062 82.125 248.625 Q70.3125 272.5312 70.3125 301.5 Q70.3125 308.25 71.4375 313.875 L72 313.875 Q82.6875 300.375 93.375 277.875 L93.9375 277.875 Q97.875 279.8438 97.875 281.8125 Q79.3125 319.7812 79.3125 336.375 Q76.2188 341.4375 73.125 341.4375 Q59.625 341.4375 59.625 299.8125 Q59.625 278.7188 71.4375 239.0625 L70.875 239.0625 Q52.5938 248.625 49.5 248.625 L48.9375 248.625 Q41.0625 248.625 37.125 228.375 Q37.125 226.9688 42.75 223.875 Q47.8125 234 48.9375 234 L52.875 234 Q61.875 232.875 84.375 221.0625 L84.9375 221.0625 ZM125.4375 281.25 Q126.5625 283.7812 127.6875 284.0625 L129.9375 284.0625 Q141.1875 284.0625 167.625 237.375 L166.5 236.8125 Q125.4375 258.1875 125.4375 281.25 Z" stroke="none" />
    </g>
  </g>
</svg>
