<?xml version="1.0"?>

<!DOCTYPE svg PUBLIC '-//W3C//DTD SVG 1.0//EN' 'http://www.w3.org/TR/2001/REC-SVG-20010904/DTD/svg10.dtd'>
<svg fill-opacity="1" xmlns:xlink="http://www.w3.org/1999/xlink" color-rendering="auto" color-interpolation="auto" text-rendering="auto" stroke="black" stroke-linecap="square" stroke-miterlimit="10" shape-rendering="auto" stroke-opacity="1" fill="black" stroke-dasharray="none" font-weight="normal" stroke-width="1" xmlns="http://www.w3.org/2000/svg" font-family="&apos;Dialog&apos;" font-style="normal" stroke-linejoin="miter" font-size="12" stroke-dashoffset="0" image-rendering="auto">
  <!--Unicode Character 'HENTAIGANA LETTER TO-6' (U+1B07C)-->
  <defs id="genericDefs" />
  <g>
    <g>
      <path d="M225.2812 144.8438 Q236.5312 147.375 236.5312 153.2812 Q236.5312 154.9688 225.2812 169.5938 Q216.2812 183.6562 203.3438 205.5938 L203.3438 207.2812 L203.9062 207.2812 Q214.0312 205.5938 217.4062 205.5938 Q234.5625 205.5938 237.0938 228.0938 L237.0938 230.3438 Q237.0938 262.125 173.5312 326.5312 L173.5312 327.6562 Q173.5312 331.3125 194.9062 332.1562 L197.1562 332.1562 Q209.25 332.1562 232.5938 328.2188 Q245.25 328.2188 248.9062 337.7812 L248.9062 340.0312 Q248.9062 347.0625 207.8438 347.9062 L202.7812 347.9062 Q169.875 347.9062 161.1562 334.9688 L160.5938 332.1562 L160.5938 331.0312 Q160.5938 327.6562 179.7188 309.0938 Q219.6562 261.2812 219.6562 229.2188 L219.6562 228.6562 Q219.6562 215.7188 208.4062 215.7188 L204.4688 215.7188 Q195.75 217.9688 194.9062 217.9688 Q190.9688 216.5625 190.9688 212.3438 Q190.9688 208.6875 206.1562 178.0312 Q211.7812 165.0938 211.7812 163.9688 L211.2188 163.9688 Q189.8438 173.5312 182.5312 173.5312 Q171.2812 173.5312 167.9062 154.9688 Q166.7812 152.1562 166.7812 151.0312 Q167.625 148.2188 172.4062 148.2188 Q176.3438 157.7812 184.2188 157.7812 L186.4688 157.7812 Q199.9688 157.7812 222.4688 145.4062 Q223.3125 144.8438 225.2812 144.8438 ZM127.4062 152.7188 Q138.0938 155.5312 138.0938 160.5938 Q138.0938 163.125 120.0938 180.2812 Q91.125 215.4375 71.1562 258.4688 Q65.5312 269.4375 65.5312 271.4062 L65.5312 271.9688 Q72 266.9062 75.0938 266.9062 Q81.2812 266.9062 85.7812 279.8438 L86.9062 279.8438 Q95.0625 251.1562 104.9062 251.1562 Q116.1562 251.1562 125.7188 276.4688 L126.2812 276.4688 Q138.6562 233.1562 148.2188 215.7188 L148.7812 215.7188 Q152.1562 215.7188 152.1562 217.9688 Q139.7812 261.5625 134.1562 300.6562 Q131.625 305.7188 127.4062 305.7188 Q115.5938 301.2188 115.5938 291.6562 Q107.1562 261.8438 104.3438 261.8438 L103.2188 261.8438 Q100.4062 261.8438 95.3438 285.4688 Q92.8125 320.3438 90.8438 320.3438 L87.4688 322.5938 Q78.1875 322.5938 76.7812 307.9688 Q74.25 278.7188 70.0312 278.7188 Q63.5625 278.7188 51.4688 314.1562 Q48.0938 318.0938 47.5312 318.0938 L46.4062 318.0938 Q39.0938 318.0938 39.0938 299.5312 Q39.0938 292.2188 52.0312 271.9688 Q68.625 241.3125 106.0312 176.9062 L106.0312 175.7812 Q87.75 183.0938 80.7188 183.0938 Q71.1562 183.0938 61.0312 168.4688 Q57.0938 160.5938 57.0938 158.3438 Q60.75 154.9688 61.0312 154.9688 L62.1562 154.9688 Q68.0625 167.3438 84.6562 167.3438 Q98.7188 167.3438 125.7188 152.7188 L127.4062 152.7188 Z" stroke="none" />
    </g>
  </g>
</svg>
