<?xml version="1.0"?>

<!DOCTYPE svg PUBLIC '-//W3C//DTD SVG 1.0//EN' 'http://www.w3.org/TR/2001/REC-SVG-20010904/DTD/svg10.dtd'>
<svg fill-opacity="1" xmlns:xlink="http://www.w3.org/1999/xlink" color-rendering="auto" color-interpolation="auto" text-rendering="auto" stroke="black" stroke-linecap="square" stroke-miterlimit="10" shape-rendering="auto" stroke-opacity="1" fill="black" stroke-dasharray="none" font-weight="normal" stroke-width="1" xmlns="http://www.w3.org/2000/svg" font-family="&apos;Dialog&apos;" font-style="normal" stroke-linejoin="miter" font-size="12" stroke-dashoffset="0" image-rendering="auto">
  <!--Unicode Character 'HENTAIGANA LETTER HI-5' (U+1B0AD)-->
  <defs id="genericDefs" />
  <g>
    <g>
      <path d="M106.0312 134.4375 Q112.2188 135.8438 112.2188 137.25 Q101.5312 197.7188 101.5312 254.25 L102.0938 254.25 Q126.8438 224.7188 147.6562 204.75 Q160.0312 195.1875 166.7812 195.1875 Q176.3438 195.1875 178.0312 207.5625 Q167.9062 263.5312 167.9062 293.625 Q167.9062 320.625 187.0312 320.625 Q214.5938 320.625 225.8438 286.875 Q228.0938 279.2812 228.0938 271.6875 L228.0938 262.125 Q228.0938 252.2812 225.8438 242.4375 L224.1562 242.4375 Q204.1875 260.7188 185.9062 268.3125 Q182.5312 263.8125 182.5312 262.6875 Q226.9688 233.7188 226.9688 210.9375 L226.9688 207 Q226.9688 199.4062 215.7188 192.9375 Q214.0312 190.125 214.0312 186.75 Q217.9688 170.4375 219.0938 159.75 Q218.5312 152.4375 216.2812 152.4375 L212.3438 152.4375 Q207.8438 152.4375 195.4688 163.6875 Q194.625 163.6875 191.5312 159.75 Q207.2812 140.0625 223.0312 140.0625 Q232.3125 140.0625 233.1562 151.3125 Q233.1562 158.625 220.7812 182.8125 Q220.2188 183.6562 220.2188 185.625 Q220.7812 188.1562 232.5938 192.375 Q243.2812 199.9688 243.2812 208.6875 Q243.2812 218.25 231.4688 235.6875 L231.4688 236.25 Q239.3438 253.9688 239.3438 267.75 Q239.3438 316.9688 203.9062 333 Q193.5 335.8125 187.0312 335.8125 Q161.4375 335.8125 153.8438 309.375 Q152.1562 296.4375 152.1562 294.1875 Q152.1562 275.625 160.5938 214.875 L160.5938 211.5 Q159.75 208.6875 157.7812 208.6875 Q145.6875 212.9062 117.8438 250.3125 Q101.5312 271.6875 101.5312 274.5 L101.5312 299.25 Q101.5312 326.8125 102.6562 344.25 Q102.6562 356.625 95.3438 358.3125 Q85.2188 358.3125 85.2188 323.4375 L85.2188 321.1875 Q85.7812 309.375 85.7812 299.8125 L85.2188 299.8125 Q79.3125 308.5312 71.7188 328.5 Q66.375 335.25 62.1562 335.25 Q46.9688 335.25 44.7188 302.0625 L44.7188 299.25 Q44.7188 262.4062 64.4062 226.6875 L65.5312 226.125 Q70.5938 226.9688 70.5938 229.5 Q59.9062 263.5312 59.9062 302.0625 L59.9062 306.5625 Q60.1875 309.375 61.0312 309.375 Q62.7188 309.0938 84.0938 278.4375 L86.9062 274.5 Q92.5312 181.4062 103.2188 141.1875 Q103.7812 134.4375 106.0312 134.4375 Z" stroke="none" />
    </g>
  </g>
</svg>
