<?xml version="1.0"?>

<!DOCTYPE svg PUBLIC '-//W3C//DTD SVG 1.0//EN' 'http://www.w3.org/TR/2001/REC-SVG-20010904/DTD/svg10.dtd'>
<svg fill-opacity="1" xmlns:xlink="http://www.w3.org/1999/xlink" color-rendering="auto" color-interpolation="auto" text-rendering="auto" stroke="black" stroke-linecap="square" stroke-miterlimit="10" shape-rendering="auto" stroke-opacity="1" fill="black" stroke-dasharray="none" font-weight="normal" stroke-width="1" xmlns="http://www.w3.org/2000/svg" font-family="&apos;Dialog&apos;" font-style="normal" stroke-linejoin="miter" font-size="12" stroke-dashoffset="0" image-rendering="auto">
  <!--Unicode Character 'HENTAIGANA LETTER RA-2' (U+1B0EE)-->
  <defs id="genericDefs" />
  <g>
    <g>
      <path d="M91.4062 133.875 L91.9688 133.875 Q105.1875 149.625 126.2812 149.625 Q130.2188 149.0625 145.9688 148.5 Q152.7188 148.5 155.5312 156.9375 Q155.5312 163.6875 134.7188 165.9375 Q118.125 171 96.4688 190.6875 Q94.7812 192.6562 94.7812 194.625 Q95.0625 195.75 95.9062 195.75 L97.0312 195.75 Q122.625 184.5 139.7812 184.5 Q162.5625 184.5 165.6562 212.625 Q165.6562 241.3125 141.4688 252.5625 Q131.9062 255.9375 122.9062 255.9375 Q113.3438 255.9375 91.4062 248.0625 L87.4688 248.0625 Q79.0312 248.0625 76.2188 311.0625 L76.2188 313.3125 Q76.2188 334.6875 79.5938 334.6875 L80.7188 334.6875 Q81.5625 334.6875 91.9688 319.5 Q126.8438 282.6562 141.4688 273.9375 Q170.1562 254.8125 180.8438 254.8125 Q190.6875 254.8125 197.1562 271.125 Q196.3125 275.625 181.9688 294.75 Q175.2188 308.25 175.2188 318.9375 L175.2188 321.75 Q175.2188 331.875 194.9062 334.6875 Q225.2812 336.6562 225.2812 342.5625 Q226.4062 342.5625 226.9688 347.0625 Q226.9688 352.125 217.4062 352.125 L216.2812 352.125 Q194.9062 352.125 173.5312 339.75 Q165.0938 332.4375 165.0938 320.0625 L165.0938 317.25 Q165.0938 300.0938 180.8438 266.0625 Q180 263.8125 179.1562 263.8125 L175.7812 263.8125 Q159.4688 263.8125 112.2188 311.625 Q95.9062 333.2812 92.5312 348.75 Q88.0312 358.875 80.1562 358.875 Q67.5 358.875 62.7188 330.75 Q61.0312 319.7812 61.0312 306 L61.0312 299.8125 Q64.9688 245.25 76.2188 239.0625 Q81.5625 237.375 82.4062 237.375 Q107.1562 244.6875 119.5312 244.6875 L124.5938 244.6875 Q145.125 244.6875 149.3438 216.5625 L149.3438 210.9375 Q149.3438 196.0312 140.9062 192.9375 Q140.0625 192.375 138.0938 192.375 Q119.5312 192.375 98.1562 212.625 L94.7812 213.75 Q89.4375 213.75 81.8438 201.375 L81.8438 199.6875 Q85.2188 189.5625 116.7188 162.5625 Q116.7188 161.7188 106.5938 158.625 Q91.9688 149.3438 88.0312 136.6875 Q88.0312 135.8438 91.4062 133.875 Z" stroke="none" />
    </g>
  </g>
</svg>
