<?xml version="1.0"?>

<!DOCTYPE svg PUBLIC '-//W3C//DTD SVG 1.0//EN' 'http://www.w3.org/TR/2001/REC-SVG-20010904/DTD/svg10.dtd'>
<svg fill-opacity="1" xmlns:xlink="http://www.w3.org/1999/xlink" color-rendering="auto" color-interpolation="auto" text-rendering="auto" stroke="black" stroke-linecap="square" stroke-miterlimit="10" shape-rendering="auto" stroke-opacity="1" fill="black" stroke-dasharray="none" font-weight="normal" stroke-width="1" xmlns="http://www.w3.org/2000/svg" font-family="&apos;Dialog&apos;" font-style="normal" stroke-linejoin="miter" font-size="12" stroke-dashoffset="0" image-rendering="auto">
  <!--Unicode Character 'HENTAIGANA LETTER RA-3' (U+1B0EF)-->
  <defs id="genericDefs" />
  <g>
    <g>
      <path d="M103.5 138.6562 Q110.5312 149.3438 117.5625 149.3438 L120.9375 149.3438 Q130.5 149.3438 149.0625 139.7812 Q150.1875 139.2188 151.3125 139.2188 Q166.5 143.4375 166.5 153.2812 Q163.6875 157.7812 140.0625 176.3438 L139.5 177.4688 L139.5 178.0312 Q139.5 178.875 159.1875 190.9688 Q174.9375 204.75 174.9375 220.2188 L174.9375 222.4688 Q174.9375 243.5625 149.0625 251.7188 Q143.4375 252.8438 138.9375 252.8438 L135.5625 252.8438 Q125.7188 252.8438 111.375 246.6562 L110.8125 246.6562 Q100.6875 284.0625 93.375 329.3438 L93.9375 329.3438 Q131.625 281.5312 168.1875 281.5312 Q200.5312 281.5312 210.9375 310.7812 Q212.0625 316.125 212.0625 319.2188 L212.0625 324.2812 Q212.0625 342.2812 196.875 353.5312 Q196.5938 353.5312 193.5 354.0938 Q190.4062 354.0938 189.5625 349.5938 Q195.1875 335.25 195.1875 323.1562 Q195.1875 300.0938 177.1875 292.7812 Q172.125 291.6562 169.875 291.6562 L162 291.6562 Q139.2188 291.6562 110.8125 330.4688 Q99.8438 351.8438 95.625 351.8438 L94.5 351.8438 Q75.9375 343.4062 75.9375 332.7188 Q75.9375 331.3125 82.125 315.2812 Q90.5625 290.25 98.4375 235.9688 Q98.4375 225 88.875 215.1562 L92.8125 211.2188 Q107.1562 216.8438 112.5 228.6562 Q112.5 229.7812 113.625 233.1562 L113.0625 236.5312 L113.0625 237.0938 Q116.4375 242.7188 135 242.7188 L136.6875 242.7188 Q154.9688 242.7188 158.0625 219.6562 L158.0625 216.8438 Q158.0625 200.25 131.0625 181.4062 L130.5 180.2812 L130.5 178.5938 Q131.625 174.9375 146.8125 154.4062 L146.8125 152.7188 L146.25 152.7188 Q124.3125 163.4062 117 165.0938 Q105.75 165.0938 98.4375 142.0312 L98.4375 141.4688 Q99.8438 141.4688 103.5 138.6562 Z" stroke="none" />
    </g>
  </g>
</svg>
