<?xml version="1.0"?>

<!DOCTYPE svg PUBLIC '-//W3C//DTD SVG 1.0//EN' 'http://www.w3.org/TR/2001/REC-SVG-20010904/DTD/svg10.dtd'>
<svg fill-opacity="1" xmlns:xlink="http://www.w3.org/1999/xlink" color-rendering="auto" color-interpolation="auto" text-rendering="auto" stroke="black" stroke-linecap="square" stroke-miterlimit="10" shape-rendering="auto" stroke-opacity="1" fill="black" stroke-dasharray="none" font-weight="normal" stroke-width="1" xmlns="http://www.w3.org/2000/svg" font-family="&apos;Dialog&apos;" font-style="normal" stroke-linejoin="miter" font-size="12" stroke-dashoffset="0" image-rendering="auto">
  <!--Unicode Character 'HENTAIGANA LETTER SE-4' (U+1B055)-->
  <defs id="genericDefs" />
  <g>
    <g>
      <path d="M88.0312 134.1562 Q112.7812 139.7812 112.7812 149.3438 L112.7812 151.0312 Q112.7812 153 109.9688 170.7188 L111.0938 171.2812 Q125.7188 162.8438 129.0938 162.8438 Q135.5625 162.8438 139.2188 168.4688 L139.2188 171.2812 Q139.2188 176.3438 108.8438 184.7812 Q106.0312 214.875 106.0312 240.4688 L106.0312 249.4688 L106.5938 249.4688 Q132.75 217.125 146.5312 196.0312 Q148.7812 196.875 149.9062 198.8438 L149.9062 199.4062 Q131.3438 234.2812 106.5938 267.4688 Q106.5938 285.4688 99.2812 285.4688 L98.1562 285.4688 Q91.9688 280.9688 91.4062 280.9688 Q64.9688 305.1562 61.0312 305.1562 Q54.8438 302.0625 54.8438 293.3438 Q70.0312 269.4375 70.0312 262.9688 Q77.9062 242.4375 77.9062 234.8438 L77.9062 234.2812 Q77.9062 233.1562 76.7812 233.1562 Q59.3438 241.3125 59.3438 248.3438 Q59.3438 250.3125 61.0312 252.2812 Q59.3438 255.0938 57.6562 255.0938 Q49.2188 252 49.2188 245.5312 Q49.2188 232.5938 80.1562 216.8438 Q83.25 216.2812 85.2188 216.2812 Q89.7188 216.2812 93.6562 220.2188 L94.2188 220.2188 Q94.7812 202.7812 95.9062 187.5938 Q93.375 187.5938 83.5312 188.1562 Q64.4062 188.1562 54.8438 171.8438 L54.8438 171.2812 Q55.125 171.2812 57.6562 168.4688 L58.2188 168.4688 Q66.9375 176.3438 77.3438 176.3438 L85.7812 176.3438 Q90.5625 176.3438 97.5938 175.2188 L97.5938 163.4062 Q97.5938 144.8438 85.2188 139.7812 Q84.6562 139.7812 83.5312 139.2188 Q85.5 134.1562 88.0312 134.1562 ZM193.2188 149.3438 Q203.3438 154.125 203.3438 160.5938 Q200.8125 172.125 192.6562 191.5312 L193.7812 192.0938 Q208.9688 188.7188 219.0938 188.7188 Q238.7812 190.125 238.7812 201.0938 Q238.7812 221.625 172.9688 245.5312 Q171.8438 250.5938 171.8438 254.5312 Q182.25 252.2812 187.0312 252.2812 Q208.9688 252.2812 208.9688 279.2812 Q208.9688 312.1875 190.9688 345.6562 Q178.875 358.5938 166.2188 358.5938 Q145.125 358.5938 134.7188 323.1562 L133.0312 323.1562 Q106.0312 347.625 91.4062 350.7188 L90.8438 350.7188 Q90 350.7188 87.4688 347.3438 L87.4688 346.7812 Q128.5312 322.3125 146.5312 280.4062 Q148.7812 275.0625 148.7812 273.0938 Q129.0938 280.9688 124.5938 280.9688 Q115.5938 279.8438 115.5938 273.6562 Q115.5938 265.2188 131.3438 256.2188 L135.2812 257.3438 L135.2812 258.4688 Q131.0625 262.4062 130.2188 264.0938 L130.2188 264.6562 Q130.2188 265.7812 131.9062 265.7812 Q154.9688 263.25 154.9688 258.4688 Q157.2188 251.1562 157.2188 247.2188 Q157.2188 243 146.5312 237.6562 L146.5312 237.0938 Q146.5312 234 148.7812 233.1562 L151.5938 233.1562 Q163.6875 233.1562 170.7188 238.7812 Q200.8125 230.3438 216.2812 212.9062 Q221.3438 207 221.3438 202.7812 L221.3438 201.0938 Q221.3438 197.7188 212.9062 197.1562 Q205.5938 197.1562 189.8438 203.3438 Q181.4062 199.6875 181.4062 194.3438 Q185.9062 178.5938 185.9062 168.4688 L185.9062 165.6562 Q185.9062 164.8125 184.2188 163.9688 L183.6562 163.9688 Q178.875 163.9688 161.7188 182.5312 Q159.1875 181.6875 157.7812 179.1562 L157.7812 178.5938 Q180.5625 149.3438 193.2188 149.3438 ZM72.2812 278.7188 L72.8438 278.7188 Q83.5312 272.5312 93.0938 262.4062 L93.0938 261.8438 Q93.0938 252.2812 94.2188 230.3438 Q92.8125 232.3125 81.2812 261.2812 Q72.2812 277.875 72.2812 278.7188 ZM139.7812 316.9688 L139.7812 317.5312 Q150.1875 344.5312 162.8438 344.5312 L167.3438 344.5312 Q183.375 344.5312 191.5312 298.4062 Q192.6562 290.5312 193.2188 278.7188 Q192.375 261.8438 187.5938 261.8438 L185.9062 261.8438 Q176.9062 261.8438 166.7812 267.4688 Q159.1875 293.9062 139.7812 316.9688 Z" stroke="none" />
    </g>
  </g>
</svg>
