<?xml version="1.0" encoding="UTF-8" standalone="no"?>
<svg
   xmlns:dc="http://purl.org/dc/elements/1.1/"
   xmlns:cc="http://creativecommons.org/ns#"
   xmlns:rdf="http://www.w3.org/1999/02/22-rdf-syntax-ns#"
   xmlns:svg="http://www.w3.org/2000/svg"
   xmlns="http://www.w3.org/2000/svg"
   xmlns:sodipodi="http://sodipodi.sourceforge.net/DTD/sodipodi-0.dtd"
   xmlns:inkscape="http://www.inkscape.org/namespaces/inkscape"
   fill-opacity="1"
   color-rendering="auto"
   color-interpolation="auto"
   text-rendering="auto"
   stroke="black"
   stroke-linecap="square"
   stroke-miterlimit="10"
   shape-rendering="auto"
   stroke-opacity="1"
   fill="black"
   stroke-dasharray="none"
   font-weight="normal"
   stroke-width="1"
   font-family="'Dialog'"
   font-style="normal"
   stroke-linejoin="miter"
   font-size="12"
   stroke-dashoffset="0"
   image-rendering="auto"
   version="1.1"
   id="svg9"
   sodipodi:docname="hentaigana_letter_mo1.svg"
   inkscape:version="0.92.4 (5da689c313, 2019-01-14)">
  <metadata
     id="metadata13">
    <rdf:RDF>
      <cc:Work
         rdf:about="">
        <dc:format>image/svg+xml</dc:format>
        <dc:type
           rdf:resource="http://purl.org/dc/dcmitype/StillImage" />
      </cc:Work>
    </rdf:RDF>
  </metadata>
  <sodipodi:namedview
     pagecolor="#ffffff"
     bordercolor="#666666"
     borderopacity="1"
     objecttolerance="10"
     gridtolerance="10"
     guidetolerance="10"
     inkscape:pageopacity="0"
     inkscape:pageshadow="2"
     inkscape:window-width="1920"
     inkscape:window-height="986"
     id="namedview11"
     showgrid="false"
     inkscape:zoom="2.36"
     inkscape:cx="50"
     inkscape:cy="50"
     inkscape:window-x="-11"
     inkscape:window-y="-11"
     inkscape:window-maximized="1"
     inkscape:current-layer="svg9" />
  <!--Unicode Character 'HENTAIGANA LETTER MO-1' (U+1B0D7)-->
  <defs
     id="genericDefs" />
  <g
     id="g7"
     transform="matrix(0.44616283,0,0,0.45464532,-14.315248,-62.248414)">
    <g
       id="g5">
      <path
         d="m 171.2812,138.375 q 27.5626,0 32.0626,41.0625 0.5624,11.25 0.5624,19.6875 v 10.125 l -0.5624,5.625 q 43.875,1.9688 48.9374,11.8125 1.125,3.6563 1.125,4.5 0,4.2187 -5.625,6.1875 -21.9374,-9 -44.4374,-9 h -0.5626 q 0,21.0938 -13.5,68.0625 -14.625,38.5313 -45.5624,54 -10.9688,3.9375 -15.75,3.9375 -17.1563,0 -29.25,-21.9375 V 330.75 q 0,-1.125 3.9374,-3.375 11.5313,15.1875 23.0626,15.1875 h 4.5 q 14.625,0 35.4374,-29.8125 15.1876,-21.0938 21.375,-84.9375 l -2.8124,-0.5625 q -34.3126,0 -34.3126,2.25 -9.5624,27.2812 -35.4374,57.9375 l -13.5,12.375 q 0,3.375 17.4374,4.5 h 3.375 q 18.2813,0 23.625,-9.5625 v -0.5625 q -2.25,-12.6563 -3.375,-15.75 Q 144,276.75 145.9688,276.75 h 0.5624 q 5.3438,11.25 7.875,14.0625 6.75,2.25 6.75,6.1875 0,12.9375 -39.375,19.125 h -2.8124 q -14.625,0 -28.6876,-7.875 -12.9374,5.0625 -27.5624,5.0625 -15.1876,0 -24.75,-16.3125 l 3.9374,-3.9375 h 0.5626 q 6.1874,10.6875 20.25,10.6875 10.9687,0 18.5624,-3.375 v -1.6875 q -9,-12.9375 -9,-26.4375 0,-7.5938 2.25,-25.3125 -8.7187,0 -35.4374,22.5 -0.8438,0 -4.5,-4.5 21.6562,-21.0937 41.625,-29.8125 0,-9 16.875,-51.1875 7.3124,-14.9063 15.75,-26.4375 h 0.5624 q 3.9376,1.9688 3.9376,2.8125 v 0.5625 Q 102.375,179.7188 92.5312,216 q -2.8124,13.7812 -2.8124,14.625 l 1.125,0.5625 q 15.75,-6.1875 47.25,-12.9375 4.5,-13.7812 4.5,-23.0625 v -0.5625 q 0,-4.7812 -7.3126,-6.75 v -1.125 q 1.125,-3.9375 4.5,-3.9375 h 0.5626 q 18,0 18,12.375 0,5.625 -3.9376,20.8125 h 0.5626 q 15.1874,-1.125 25.875,-1.125 h 6.75 q 1.125,-10.125 1.125,-25.3125 0,-29.25 -9.5626,-36.5625 -3.0937,-2.8125 -6.75,-2.8125 h -8.4374 q -15.1876,0 -38.8126,21.375 h -0.5624 l -3.9376,-2.8125 q 15.4688,-18.8438 32.0626,-25.875 8.7187,-3.375 18.5624,-4.5 z M 85.2188,267.1875 v 1.6875 q 0,23.625 5.0624,23.625 v 0.5625 q 27,-16.875 43.3126,-63 h -0.5626 q -12.6562,0 -45,11.8125 -2.8124,12.6562 -2.8124,25.3125 z"
         id="path3"
         inkscape:connector-curvature="0"
         style="stroke:none" />
    </g>
  </g>
</svg>
