<?xml version="1.0" encoding="UTF-8" standalone="no"?>
<svg
   xmlns:dc="http://purl.org/dc/elements/1.1/"
   xmlns:cc="http://creativecommons.org/ns#"
   xmlns:rdf="http://www.w3.org/1999/02/22-rdf-syntax-ns#"
   xmlns:svg="http://www.w3.org/2000/svg"
   xmlns="http://www.w3.org/2000/svg"
   xmlns:sodipodi="http://sodipodi.sourceforge.net/DTD/sodipodi-0.dtd"
   xmlns:inkscape="http://www.inkscape.org/namespaces/inkscape"
   fill-opacity="1"
   color-rendering="auto"
   color-interpolation="auto"
   text-rendering="auto"
   stroke="black"
   stroke-linecap="square"
   stroke-miterlimit="10"
   shape-rendering="auto"
   stroke-opacity="1"
   fill="black"
   stroke-dasharray="none"
   font-weight="normal"
   stroke-width="1"
   font-family="'Dialog'"
   font-style="normal"
   stroke-linejoin="miter"
   font-size="12"
   stroke-dashoffset="0"
   image-rendering="auto"
   version="1.1"
   id="svg9"
   sodipodi:docname="hentaigana_letter_yo1.svg"
   inkscape:version="0.92.4 (5da689c313, 2019-01-14)"
   width="100%"
   height="100%"
   viewBox="0 0 100 100"
   preserveAspectRatio="xMidYMid meet"
   >
  <metadata
     id="metadata13">
    <rdf:RDF>
      <cc:Work
         rdf:about="">
        <dc:format>image/svg+xml</dc:format>
        <dc:type
           rdf:resource="http://purl.org/dc/dcmitype/StillImage" />
      </cc:Work>
    </rdf:RDF>
  </metadata>
  <sodipodi:namedview
     pagecolor="#ffffff"
     bordercolor="#666666"
     borderopacity="1"
     objecttolerance="10"
     gridtolerance="10"
     guidetolerance="10"
     inkscape:pageopacity="0"
     inkscape:pageshadow="2"
     inkscape:window-width="1920"
     inkscape:window-height="986"
     id="namedview11"
     showgrid="false"
     inkscape:zoom="2.36"
     inkscape:cx="50"
     inkscape:cy="50"
     inkscape:window-x="-11"
     inkscape:window-y="-11"
     inkscape:window-maximized="1"
     inkscape:current-layer="svg9" />
  <!--Unicode Character 'HENTAIGANA LETTER YO-1' (U+1B0E7)-->
  <defs
     id="genericDefs" />
  <g
     id="g7"
     transform="matrix(0.45161637,0,0,0.44771328,-14.888691,-60.328662)">
    <g
       id="g5">
      <path
         d="m 150.1875,137.8125 h 2.25 q 3.9375,0 14.0625,9 Q 190.6875,162 203.625,162 q 11.25,3.9375 11.25,10.6875 v 1.6875 q -2.8125,6.4688 -14.0625,10.6875 Q 176.625,194.625 161.4375,207 v 0.5625 q 10.6875,40.2187 30.375,81.5625 9.8437,19.6875 26.4375,40.5 h 1.125 v -54 q 1.125,-1.4062 1.125,-1.6875 6.1875,0 6.1875,7.3125 3.9375,57.9375 8.4375,57.9375 3.9375,5.3437 3.9375,9 0,5.625 -9,6.75 -20.5313,0 -54.5625,-67.5 Q 159.75,250.875 147.9375,213.75 H 147.375 Q 99.2812,236.5312 78.75,289.6875 72,309.375 66.9375,331.875 q -3.6563,4.5 -7.3125,4.5 Q 49.5,331.5938 49.5,322.875 55.125,297 55.125,252.5625 v -10.125 q 0,-1.125 -1.125,-1.125 H 51.75 Q 44.7188,247.5 41.625,247.5 q -6.1875,-2.25 -6.1875,-9 0,-1.4062 9.5625,-11.8125 Q 76.5,185.625 81.5625,167.625 V 166.5 q 0,-5.625 -9,-11.25 2.8125,-4.5 4.5,-4.5 Q 99,156.0938 99,167.0625 q 0,10.9687 -42.75,64.125 v 1.125 q 12.9375,0 12.9375,25.875 0,19.9687 -1.6875,36.5625 1.125,-1.125 9.5625,-21.9375 9.8437,-20.8125 34.875,-47.25 16.0313,-13.7813 32.0625,-23.625 v -1.125 Q 136.6875,170.7188 136.6875,162 q 0,-15.75 9,-22.5 2.8125,-1.6875 4.5,-1.6875 z m 81.5625,6.75 q 19.6875,2.25 19.6875,11.25 1.125,0 1.125,4.5 0,15.1875 -19.6875,30.375 h -0.5625 q -3.375,-1.9687 -3.375,-2.8125 6.1875,-10.4062 6.1875,-23.0625 V 159.75 q 0,-7.0312 -7.3125,-10.125 0.8437,-2.5312 3.9375,-5.0625 z m -80.4375,6.75 v 6.75 q 0,16.875 6.75,36 h 1.125 Q 194.0625,174.375 195.75,172.125 v -0.5625 q 0,-0.8437 -20.25,-11.25 -19.125,-13.5 -20.8125,-13.5 H 153 q -1.6875,0.2813 -1.6875,4.5 z"
         id="path3"
         inkscape:connector-curvature="0"
         style="stroke:none" />
    </g>
  </g>
</svg>
