<?xml version="1.0" encoding="UTF-8" standalone="no"?>
<svg
   xmlns:dc="http://purl.org/dc/elements/1.1/"
   xmlns:cc="http://creativecommons.org/ns#"
   xmlns:rdf="http://www.w3.org/1999/02/22-rdf-syntax-ns#"
   xmlns:svg="http://www.w3.org/2000/svg"
   xmlns="http://www.w3.org/2000/svg"
   xmlns:sodipodi="http://sodipodi.sourceforge.net/DTD/sodipodi-0.dtd"
   xmlns:inkscape="http://www.inkscape.org/namespaces/inkscape"
   fill-opacity="1"
   color-rendering="auto"
   color-interpolation="auto"
   text-rendering="auto"
   stroke="black"
   stroke-linecap="square"
   stroke-miterlimit="10"
   shape-rendering="auto"
   stroke-opacity="1"
   fill="black"
   stroke-dasharray="none"
   font-weight="normal"
   stroke-width="1"
   font-family="'Dialog'"
   font-style="normal"
   stroke-linejoin="miter"
   font-size="12"
   stroke-dashoffset="0"
   image-rendering="auto"
   version="1.1"
   id="svg9"
   sodipodi:docname="hentaigana_letter_i1.svg"
   inkscape:version="0.92.4 (5da689c313, 2019-01-14)">
  <metadata
     id="metadata13">
    <rdf:RDF>
      <cc:Work
         rdf:about="">
        <dc:format>image/svg+xml</dc:format>
        <dc:type
           rdf:resource="http://purl.org/dc/dcmitype/StillImage" />
      </cc:Work>
    </rdf:RDF>
  </metadata>
  <sodipodi:namedview
     pagecolor="#ffffff"
     bordercolor="#666666"
     borderopacity="1"
     objecttolerance="10"
     gridtolerance="10"
     guidetolerance="10"
     inkscape:pageopacity="0"
     inkscape:pageshadow="2"
     inkscape:window-width="1920"
     inkscape:window-height="986"
     id="namedview11"
     showgrid="false"
     inkscape:zoom="2.36"
     inkscape:cx="50"
     inkscape:cy="50"
     inkscape:window-x="-11"
     inkscape:window-y="-11"
     inkscape:window-maximized="1"
     inkscape:current-layer="svg9" />
  <!--Unicode Character 'HENTAIGANA LETTER I-4' (U+1B009)-->
  <defs
     id="genericDefs" />
  <g
     id="g7"
     transform="matrix(0.45430525,0,0,0.44073504,-15.487752,-58.397534)">
    <g
       id="g5">
      <path
         d="m 73.4062,135 q 28.6876,6.4688 28.6876,20.25 -5.0626,12.0938 -10.125,91.125 h 1.6874 q 4.2188,-12.0938 68.0626,-76.5 23.0624,-21.9375 37.6874,-21.9375 12.375,3.375 12.375,12.375 0.5626,0.8437 0.5626,3.9375 0,9.5625 -14.625,35.4375 -2.8126,7.3125 -2.8126,9.5625 0,4.5 20.25,10.125 36,18.2812 36,54 0,43.5938 -42.1874,65.8125 -16.5938,6.75 -29.25,6.75 -23.625,0 -35.4376,-24.1875 h -0.5624 q -13.5,3.375 -19.125,3.375 -16.3126,-1.9688 -16.3126,-15.1875 0,-13.2187 24.1876,-32.0625 5.625,-1.9688 5.625,-9.5625 7.875,-38.8125 29.25,-38.8125 12.9374,0 18,14.625 1.6874,7.875 1.6874,12.9375 -1.125,10.4063 -1.125,14.0625 28.6876,10.4062 28.6876,23.0625 -1.6876,6.75 -6.75,6.75 -4.2188,0 -22.5,-15.1875 l -3.9376,-1.125 q -9.2812,16.5938 -27.5624,30.375 -0.8438,0 -2.25,2.25 7.3124,17.4375 29.25,17.4375 h 2.8124 q 27.8438,0 44.4376,-33.1875 5.0624,-13.2188 5.0624,-27.5625 0,-35.4375 -22.5,-46.125 -5.0624,-4.2187 -22.5,-8.4375 -3.9374,-1.4062 -3.9374,-6.75 l 9.5624,-41.0625 v -8.4375 q 0,-3.0938 -2.25,-3.9375 h -0.5624 q -16.0313,0 -81,82.125 -18.5626,24.1875 -18.5626,29.8125 -0.5624,12.375 -0.5624,18.5625 0,19.9687 2.25,45 0,13.7813 -11.8126,22.5 l -1.125,0.5625 q -5.0624,-2.5312 -5.0624,-7.3125 1.125,-12.0937 1.6874,-28.6875 -0.5624,-25.3125 -1.125,-38.25 h -1.125 q -3.6562,3.375 -15.75,31.5 -5.0624,5.0625 -8.4374,5.0625 -11.5313,0 -13.5,-27.5625 0,-46.6875 15.75,-57.9375 3.375,-1.6875 5.625,-1.6875 10.9687,0 19.6874,28.6875 h 1.125 q 0.8438,0 1.6876,-1.6875 3.9374,-67.5 3.9374,-99.5625 0,-14.9063 -14.625,-20.25 0,-3.6563 3.375,-5.0625 z m 72,135.5625 h 0.5626 q 11.5312,-2.25 20.25,-2.8125 0.8437,0.5625 2.8124,0.5625 2.25,-4.2187 2.25,-12.375 v -9 q -0.8437,-7.875 -6.1874,-7.875 h -3.9376 q -10.125,0 -15.75,30.9375 z m -94.5,12.9375 v 3.9375 q 0,11.25 2.8126,11.25 h 1.125 q 2.25,-1.125 16.875,-27.5625 Q 63,244.6875 57.6562,244.6875 q -5.9062,0 -6.75,38.8125 z m 94.5,-1.125 v 7.875 q 0,7.0312 2.25,16.875 h 1.6876 q 15.75,-17.4375 15.75,-25.3125 0,-1.125 -1.125,-1.125 h -6.1876 q -5.625,0 -12.375,1.6875 z m -29.25,25.3125 v 3.375 q 0,5.0625 6.1876,5.0625 h 2.8124 q 11.8126,0 14.625,-4.5 -3.375,-15.1875 -3.375,-26.4375 -10.4062,3.0937 -19.125,16.875 -1.125,4.5 -1.125,5.625 z"
         id="path3"
         inkscape:connector-curvature="0"
         style="stroke:none" />
    </g>
  </g>
</svg>
