<?xml version="1.0"?>

<!DOCTYPE svg PUBLIC '-//W3C//DTD SVG 1.0//EN' 'http://www.w3.org/TR/2001/REC-SVG-20010904/DTD/svg10.dtd'>
<svg fill-opacity="1" xmlns:xlink="http://www.w3.org/1999/xlink" color-rendering="auto" color-interpolation="auto" text-rendering="auto" stroke="black" stroke-linecap="square" stroke-miterlimit="10" shape-rendering="auto" stroke-opacity="1" fill="black" stroke-dasharray="none" font-weight="normal" stroke-width="1" xmlns="http://www.w3.org/2000/svg" font-family="&apos;Dialog&apos;" font-style="normal" stroke-linejoin="miter" font-size="12" stroke-dashoffset="0" image-rendering="auto">
  <!--Unicode Character 'HENTAIGANA LETTER TI-6' (U+1B067)-->
  <defs id="genericDefs" />
  <g>
    <g>
      <path d="M70.5938 142.5938 Q73.4062 143.7188 74.5312 143.7188 Q73.9688 149.3438 73.9688 152.1562 L73.9688 153.2812 Q73.9688 162.2812 86.9062 165.6562 L96.4688 165.6562 Q99.5625 165.6562 112.2188 161.7188 Q122.9062 165.0938 122.9062 171.2812 Q122.9062 174.0938 106.0312 182.5312 Q88.5938 196.5938 88.5938 205.0312 Q88.5938 208.125 100.9688 221.3438 Q105.4688 228.9375 105.4688 237.6562 Q104.9062 255.9375 102.6562 275.9062 L103.2188 275.9062 Q160.5938 198.8438 177.4688 178.0312 Q198.2812 154.9688 207.8438 154.9688 Q214.5938 154.9688 216.2812 163.9688 Q216.2812 172.9688 203.9062 198.2812 L203.9062 199.4062 Q203.9062 202.7812 215.1562 208.4062 Q226.9688 217.9688 226.9688 231.4688 L226.9688 237.0938 Q226.9688 259.875 212.9062 292.7812 Q246.0938 322.5938 246.0938 337.2188 Q246.0938 343.125 240.4688 346.7812 Q235.125 346.2188 219.0938 319.7812 Q207.2812 305.7188 204.4688 304.5938 Q187.0312 319.2188 166.7812 319.2188 Q143.1562 317.8125 137.5312 304.5938 L136.9688 301.2188 L136.9688 300.6562 Q136.9688 286.5938 157.2188 279.8438 Q163.6875 278.1562 170.1562 278.1562 Q183.0938 278.1562 199.9688 284.3438 Q208.125 270 211.7812 238.7812 Q212.3438 231.75 212.3438 230.3438 Q212.3438 212.0625 197.1562 204.4688 Q193.7812 200.5312 193.7812 199.4062 Q199.4062 184.5 199.4062 170.1562 Q199.4062 169.0312 198.2812 169.0312 L197.1562 169.0312 Q188.1562 172.125 166.2188 202.7812 Q86.9062 315.2812 61.0312 349.0312 L59.3438 350.1562 L56.5312 350.1562 Q53.1562 350.1562 49.2188 337.7812 Q49.2188 334.125 67.7812 318.0938 Q71.7188 313.3125 71.7188 311.3438 L71.1562 311.3438 Q41.9062 309.375 41.9062 297.2812 Q41.9062 286.875 66.0938 266.9062 Q77.0625 260.1562 81.8438 260.1562 Q84.9375 260.1562 89.1562 263.5312 L90.2812 263.5312 Q91.4062 251.7188 91.4062 234.8438 L91.4062 233.7188 Q91.4062 226.125 81.2812 209.5312 Q80.1562 206.7188 80.1562 205.5938 Q80.1562 201.6562 91.9688 182.5312 Q92.5312 181.4062 92.5312 180.2812 L92.5312 179.7188 L89.1562 179.7188 Q72.2812 179.7188 66.0938 167.3438 Q64.4062 164.5312 64.4062 160.0312 L64.4062 158.3438 Q64.4062 148.7812 70.5938 142.5938 ZM58.2188 293.9062 Q58.2188 299.5312 72.2812 302.3438 L76.7812 302.3438 Q84.9375 302.3438 89.1562 280.9688 L89.1562 278.7188 Q89.1562 273.375 85.2188 271.4062 L81.2812 271.4062 Q71.1562 271.4062 58.2188 291.0938 L58.2188 293.9062 ZM144.8438 297.8438 L144.8438 300.6562 Q146.8125 310.7812 158.3438 310.7812 Q158.3438 311.3438 162.2812 311.3438 L166.7812 311.3438 Q185.3438 311.3438 193.7812 295.5938 L193.7812 295.0312 Q183.0938 286.5938 167.9062 286.5938 Q144.8438 286.5938 144.8438 297.8438 Z" stroke="none" />
    </g>
  </g>
</svg>
