<?xml version="1.0"?>

<!DOCTYPE svg PUBLIC '-//W3C//DTD SVG 1.0//EN' 'http://www.w3.org/TR/2001/REC-SVG-20010904/DTD/svg10.dtd'>
<svg fill-opacity="1" xmlns:xlink="http://www.w3.org/1999/xlink" color-rendering="auto" color-interpolation="auto" text-rendering="auto" stroke="black" stroke-linecap="square" stroke-miterlimit="10" shape-rendering="auto" stroke-opacity="1" fill="black" stroke-dasharray="none" font-weight="normal" stroke-width="1" xmlns="http://www.w3.org/2000/svg" font-family="&apos;Dialog&apos;" font-style="normal" stroke-linejoin="miter" font-size="12" stroke-dashoffset="0" image-rendering="auto">
  <!--Unicode Character 'HENTAIGANA LETTER TE-2' (U+1B06F)-->
  <defs id="genericDefs" />
  <g>
    <g>
      <path d="M84.6562 139.2188 L85.7812 139.2188 Q102.6562 150.75 102.6562 167.3438 L103.2188 167.3438 Q103.2188 182.5312 57.6562 229.7812 L57.6562 231.4688 Q57.6562 236.25 68.3438 244.4062 Q77.3438 258.1875 77.3438 285.4688 L77.3438 286.5938 Q77.3438 287.7188 77.9062 288.8438 Q77.3438 289.6875 77.3438 291.0938 Q77.3438 302.9062 76.2188 315.2812 Q77.625 315.2812 88.0312 287.7188 Q88.875 287.4375 94.2188 275.3438 L95.3438 275.3438 Q99.8438 278.4375 99.8438 279.8438 Q80.7188 324.5625 79.0312 347.3438 Q76.5 353.5312 71.1562 353.5312 Q64.125 353.5312 61.5938 338.9062 Q63.8438 308.8125 64.4062 280.9688 Q64.4062 253.4062 59.3438 247.2188 Q46.9688 236.5312 46.9688 230.9062 Q46.9688 224.4375 66.0938 202.7812 Q86.9062 174.375 86.9062 160.0312 L86.9062 156.6562 Q86.9062 150.75 80.1562 143.1562 L84.6562 139.2188 ZM196.0312 151.0312 Q210.0938 156.375 210.0938 162.8438 Q209.5312 166.5 196.5938 175.7812 Q171.5625 204.75 149.9062 238.2188 L149.9062 238.7812 L150.4688 238.7812 Q175.2188 215.1562 197.1562 215.1562 L202.2188 215.1562 Q221.625 215.1562 229.7812 234.8438 Q230.9062 238.7812 230.9062 241.0312 Q230.9062 265.5 184.7812 302.3438 Q161.7188 321.75 156.0938 328.7812 L156.0938 330.4688 Q160.0312 334.4062 183.0938 334.4062 Q213.1875 334.4062 229.7812 328.2188 Q241.0312 331.0312 241.0312 335.5312 Q241.0312 345.6562 208.9688 347.9062 Q200.8125 349.0312 187.0312 349.0312 L183.6562 349.0312 Q138.6562 349.0312 138.6562 334.4062 Q138.6562 329.0625 153.8438 318.0938 Q212.9062 263.8125 212.9062 246.0938 Q213.4688 243 213.4688 239.9062 Q211.2188 223.5938 197.7188 223.5938 Q171.8438 223.5938 146.5312 258.4688 Q144.5625 259.5938 143.1562 259.5938 L142.0312 259.5938 Q131.3438 255.375 131.3438 246.6562 Q131.3438 244.6875 147.0938 227.5312 Q173.25 190.4062 181.4062 172.9688 Q167.625 176.9062 154.4062 178.5938 Q134.1562 176.3438 134.1562 167.9062 Q136.4062 163.9688 136.9688 163.9688 Q142.0312 167.3438 144.2812 167.3438 Q170.1562 167.3438 193.2188 151.0312 L196.0312 151.0312 Z" stroke="none" />
    </g>
  </g>
</svg>
