<?xml version="1.0" encoding="UTF-8" standalone="no"?>
<svg
   xmlns:dc="http://purl.org/dc/elements/1.1/"
   xmlns:cc="http://creativecommons.org/ns#"
   xmlns:rdf="http://www.w3.org/1999/02/22-rdf-syntax-ns#"
   xmlns:svg="http://www.w3.org/2000/svg"
   xmlns="http://www.w3.org/2000/svg"
   xmlns:sodipodi="http://sodipodi.sourceforge.net/DTD/sodipodi-0.dtd"
   xmlns:inkscape="http://www.inkscape.org/namespaces/inkscape"
   fill-opacity="1"
   color-rendering="auto"
   color-interpolation="auto"
   text-rendering="auto"
   stroke="black"
   stroke-linecap="square"
   stroke-miterlimit="10"
   shape-rendering="auto"
   stroke-opacity="1"
   fill="black"
   stroke-dasharray="none"
   font-weight="normal"
   stroke-width="1"
   font-family="'Dialog'"
   font-style="normal"
   stroke-linejoin="miter"
   font-size="12"
   stroke-dashoffset="0"
   image-rendering="auto"
   version="1.1"
   id="svg9"
   sodipodi:docname="hentaigana_letter_wo1.svg"
   inkscape:version="0.92.4 (5da689c313, 2019-01-14)">
  <metadata
     id="metadata13">
    <rdf:RDF>
      <cc:Work
         rdf:about="">
        <dc:format>image/svg+xml</dc:format>
        <dc:type
           rdf:resource="http://purl.org/dc/dcmitype/StillImage" />
      </cc:Work>
    </rdf:RDF>
  </metadata>
  <sodipodi:namedview
     pagecolor="#ffffff"
     bordercolor="#666666"
     borderopacity="1"
     objecttolerance="10"
     gridtolerance="10"
     guidetolerance="10"
     inkscape:pageopacity="0"
     inkscape:pageshadow="2"
     inkscape:window-width="1920"
     inkscape:window-height="986"
     id="namedview11"
     showgrid="false"
     inkscape:zoom="2.36"
     inkscape:cx="50"
     inkscape:cy="50"
     inkscape:window-x="-11"
     inkscape:window-y="-11"
     inkscape:window-maximized="1"
     inkscape:current-layer="svg9" />
  <!--Unicode Character 'HENTAIGANA LETTER WO-1' (U+1B116)-->
  <defs
     id="genericDefs" />
  <g
     id="g7"
     transform="matrix(0.50637251,0,0,0.43359819,-22.137979,-56.427335)">
    <g
       id="g5">
      <path
         d="m 152.1562,135.2812 h 0.5626 q 21.9374,8.1563 21.9374,19.6876 0,5.0624 -32.0624,13.5 -0.5626,0.5624 -29.8126,10.6874 -3.375,-4.7812 -3.375,-6.1874 46.125,-20.25 46.125,-26.4376 v -0.5624 q 0,-0.8438 -6.75,-7.3126 v -1.125 q 1.125,0 3.375,-2.25 z m 43.875,55.6876 1.125,0.5624 h 3.375 q 18.8438,0 25.3126,10.6876 0,1.125 0.5624,2.25 0,11.5312 -69.75,25.875 -5.0624,1.6874 -5.0624,5.625 v 44.4374 q 45.5624,0 55.125,17.4376 0.5624,2.25 0.5624,3.9374 -1.9687,4.5 -5.0624,4.5 -27.5626,-11.8124 -36.5626,-11.8124 -5.625,-1.125 -11.25,-1.125 h -2.8124 q 0,9 1.125,36.5624 -3.0938,27.5626 -12.9376,27.5626 -2.25,0 -23.625,-27 -10.9687,-9.2813 -23.0624,-16.875 -2.25,-3.375 -2.25,-6.1876 v -0.5624 q 0,-7.3126 16.875,-16.875 24.1874,-9 30.375,-9 v -28.6876 q 0,-31.5 5.625,-31.5 0,-0.8437 3.375,-1.6874 6.4687,3.9374 7.3124,3.9374 9,0 48.9376,-17.4374 l 1.125,-1.6876 v -0.5624 q 0,-2.25 -12.9376,-2.8126 -39.375,2.25 -90.5624,27 -12.9376,9.2813 -25.875,21.9376 h -2.25 q -11.25,0 -11.25,-15.75 v -2.25 q 0,-16.875 20.8124,-37.125 h 0.5626 l 4.5,3.9374 q -11.25,16.5938 -11.25,25.875 v 2.8126 h 1.125 l 26.4374,-12.9376 q 57.9376,-22.5 89.4376,-22.5 h 2.25 q 0.5624,0 0.5624,-0.5624 z m -92.8124,118.125 v 0.5624 q 21.375,15.75 33.75,27 h 0.5624 q 1.125,-1.9687 1.125,-4.5 v -34.3124 l -0.5624,-3.9376 h -0.5626 q -34.3124,7.5938 -34.3124,15.1876 z"
         id="path3"
         inkscape:connector-curvature="0"
         style="stroke:none" />
    </g>
  </g>
</svg>
