<?xml version="1.0"?>

<!DOCTYPE svg PUBLIC '-//W3C//DTD SVG 1.0//EN' 'http://www.w3.org/TR/2001/REC-SVG-20010904/DTD/svg10.dtd'>
<svg fill-opacity="1" xmlns:xlink="http://www.w3.org/1999/xlink" color-rendering="auto" color-interpolation="auto" text-rendering="auto" stroke="black" stroke-linecap="square" stroke-miterlimit="10" shape-rendering="auto" stroke-opacity="1" fill="black" stroke-dasharray="none" font-weight="normal" stroke-width="1" xmlns="http://www.w3.org/2000/svg" font-family="&apos;Dialog&apos;" font-style="normal" stroke-linejoin="miter" font-size="12" stroke-dashoffset="0" image-rendering="auto">
  <!--Unicode Character 'HENTAIGANA LETTER KA-11' (U+1B021)-->
  <defs id="genericDefs" />
  <g>
    <g>
      <path d="M91.6875 131.3438 Q113.3438 131.3438 115.875 140.9062 L116.4375 142.0312 L110.25 157.7812 L110.25 158.3438 Q111.9375 158.3438 121.5 156.6562 Q141.75 156.6562 141.75 176.3438 Q141.75 199.9688 123.1875 222.4688 Q112.5 233.1562 105.75 233.1562 Q101.25 233.1562 96.1875 221.9062 Q88.3125 214.3125 84.375 211.7812 L83.25 211.7812 Q71.1562 233.7188 64.6875 233.7188 Q60.75 233.7188 59.0625 226.4062 Q59.0625 220.2188 74.8125 201.0938 Q87.1875 182.5312 87.1875 176.9062 Q68.3438 183.6562 65.8125 183.6562 Q54.8438 183.6562 47.25 161.7188 Q50.9062 158.9062 52.875 158.9062 Q60.4688 169.0312 66.375 169.0312 L72 169.0312 Q95.625 163.4062 95.625 160.0312 Q100.125 149.625 100.125 145.9688 Q100.125 139.7812 86.625 136.9688 L86.625 136.4062 Q87.75 131.3438 91.6875 131.3438 ZM216.5625 151.0312 L218.25 151.0312 Q240.75 154.4062 240.75 170.1562 Q240.75 187.5938 213.1875 198.8438 Q173.8125 220.5 152.4375 237.6562 Q151.3125 239.625 151.3125 241.0312 Q151.3125 243.8438 173.8125 247.7812 Q178.875 251.7188 178.875 256.7812 Q178.875 259.5938 163.125 277.0312 L162.5625 279.8438 Q162.8438 280.9688 163.6875 280.9688 L182.25 279.2812 Q211.2188 279.2812 223.3125 300.6562 Q226.125 306.2812 226.125 313.0312 Q226.125 350.7188 172.6875 359.7188 Q160.0312 361.4062 148.5 361.4062 Q98.7188 361.4062 88.3125 340.5938 Q87.1875 338.3438 87.1875 334.4062 L87.1875 332.7188 Q87.1875 318.9375 110.8125 314.1562 Q113.625 313.5938 117.5625 313.5938 Q146.25 313.5938 164.8125 350.1562 Q187.3125 346.7812 200.8125 334.4062 Q207.5625 325.125 207.5625 317.5312 L207.5625 309.6562 Q207.5625 295.3125 193.5 289.4062 Q189.2812 288.2812 185.625 288.2812 L177.1875 288.2812 Q173.25 288.2812 160.875 291.6562 Q153 291.6562 151.3125 280.9688 Q151.875 273.6562 159.1875 262.4062 L159.1875 260.7188 Q158.3438 259.3125 141.75 252.8438 Q137.8125 248.625 137.8125 244.4062 Q137.8125 236.25 190.125 202.2188 Q223.3125 183.375 223.3125 175.2188 L223.875 169.5938 Q223.875 161.4375 218.25 158.3438 L213.1875 158.3438 Q199.9688 158.3438 185.625 184.2188 Q181.6875 191.5312 177.75 191.5312 Q171 191.5312 165.375 166.2188 Q163.125 163.9688 160.875 163.9688 L156.9375 165.0938 L154.125 161.7188 L154.125 161.1562 Q155.25 158.3438 164.25 155.5312 Q173.5312 155.5312 181.125 170.1562 Q200.5312 151.0312 216.5625 151.0312 ZM86.0625 205.5938 Q102.9375 215.1562 106.875 215.1562 L107.4375 215.1562 Q115.875 215.1562 126 184.7812 Q127.125 180.2812 127.125 173.5312 Q127.125 167.3438 123.1875 165.6562 L118.125 165.6562 Q104.625 165.6562 101.25 175.2188 L86.0625 205.5938 ZM97.875 333.2812 L97.875 336.0938 Q97.875 346.5 131.0625 351.8438 Q133.875 351.8438 142.3125 352.4062 Q148.2188 351.8438 151.875 351.8438 L151.875 350.1562 Q136.125 325.9688 118.6875 325.9688 L109.6875 325.9688 Q97.875 325.9688 97.875 333.2812 Z" stroke="none" />
    </g>
  </g>
</svg>
