<?xml version="1.0"?>

<!DOCTYPE svg PUBLIC '-//W3C//DTD SVG 1.0//EN' 'http://www.w3.org/TR/2001/REC-SVG-20010904/DTD/svg10.dtd'>
<svg fill-opacity="1" xmlns:xlink="http://www.w3.org/1999/xlink" color-rendering="auto" color-interpolation="auto" text-rendering="auto" stroke="black" stroke-linecap="square" stroke-miterlimit="10" shape-rendering="auto" stroke-opacity="1" fill="black" stroke-dasharray="none" font-weight="normal" stroke-width="1" xmlns="http://www.w3.org/2000/svg" font-family="&apos;Dialog&apos;" font-style="normal" stroke-linejoin="miter" font-size="12" stroke-dashoffset="0" image-rendering="auto">
  <!--Unicode Character 'HENTAIGANA LETTER KU-7' (U+1B031)-->
  <defs id="genericDefs" />
  <g>
    <g>
      <path d="M141.1875 135 Q170.4375 140.0625 170.4375 150.75 Q170.4375 166.2188 110.25 196.3125 Q108.5625 237.6562 108.5625 252.5625 L109.6875 252.5625 Q153.2812 214.875 179.4375 214.875 Q198.8438 214.875 214.3125 229.5 Q227.25 246.375 227.25 270 Q227.25 287.7188 217.125 309.375 Q248.9062 329.625 251.4375 342 Q251.4375 348.75 243 349.875 L242.4375 349.875 L218.8125 326.8125 Q210.375 320.625 209.25 320.625 Q189 340.875 165.9375 340.875 L165.375 340.875 Q142.3125 340.875 134.4375 324 Q134.1562 319.5 133.3125 319.5 Q133.3125 302.625 150.1875 295.875 Q158.3438 293.0625 165.9375 293.0625 Q180.8438 293.0625 204.75 302.625 Q210.9375 289.125 210.9375 270.5625 Q210.9375 237.375 192.375 226.6875 Q185.625 224.4375 182.25 224.4375 L176.625 224.4375 Q149.3438 224.4375 108 267.1875 L106.875 321.1875 Q108 336.0938 108 338.625 Q103.7812 357.75 93.9375 357.75 Q89.7188 357.75 84.9375 341.4375 Q79.875 330.4688 64.125 317.25 Q61.875 318.0938 48.375 337.5 Q45.5625 337.5 45.5625 338.625 Q38.5312 338.625 36.5625 322.875 L36.5625 322.3125 Q36.5625 316.9688 46.125 304.875 Q69.1875 261.5625 69.1875 245.25 Q69.1875 234 52.875 234 L52.875 233.4375 Q54.2812 227.8125 57.9375 227.8125 L61.875 227.8125 Q84.9375 227.8125 84.9375 240.75 L84.9375 241.875 Q83.25 257.625 52.875 311.0625 Q53.7188 311.0625 95.625 264.9375 L97.3125 201.9375 L96.75 201.9375 Q74.25 208.125 64.6875 208.125 Q50.3438 208.125 47.25 195.75 Q47.25 189.5625 70.3125 171 Q86.0625 154.6875 91.6875 154.6875 Q99.2812 154.6875 108 176.625 Q109.6875 182.8125 109.6875 184.5 L110.25 184.5 Q120.9375 182.25 147.375 158.0625 Q147.375 157.2188 150.1875 153.5625 L150.1875 149.625 Q149.0625 145.6875 136.125 140.625 Q138.6562 135.5625 141.1875 135 ZM59.0625 193.5 L59.0625 195.75 Q59.0625 197.7188 65.25 198.5625 L68.0625 198.5625 Q75.9375 198.5625 97.3125 190.6875 Q95.625 164.8125 88.875 164.8125 L87.75 164.8125 Q86.625 164.8125 59.0625 193.5 ZM200.8125 169.875 L201.375 169.875 Q234 180.8438 245.8125 203.0625 L247.5 210.375 Q245.25 220.5 239.0625 220.5 Q234.2812 220.5 225.5625 199.6875 Q211.5 181.125 197.4375 176.0625 L197.4375 175.5 Q197.4375 172.4062 200.8125 169.875 ZM68.625 311.625 L92.8125 332.4375 L93.9375 332.4375 Q93.9375 326.8125 95.0625 281.8125 L93.9375 281.8125 Q68.625 309.0938 68.625 311.625 ZM145.125 315.5625 L145.125 321.1875 Q145.125 329.625 162.5625 330.75 L164.8125 330.75 Q184.2188 330.75 197.4375 314.4375 L197.4375 313.3125 Q181.6875 303.1875 164.25 303.1875 Q145.125 303.1875 145.125 315.5625 Z" stroke="none" />
    </g>
  </g>
</svg>
