<?xml version="1.0"?>

<!DOCTYPE svg PUBLIC '-//W3C//DTD SVG 1.0//EN' 'http://www.w3.org/TR/2001/REC-SVG-20010904/DTD/svg10.dtd'>
<svg fill-opacity="1" xmlns:xlink="http://www.w3.org/1999/xlink" color-rendering="auto" color-interpolation="auto" text-rendering="auto" stroke="black" stroke-linecap="square" stroke-miterlimit="10" shape-rendering="auto" stroke-opacity="1" fill="black" stroke-dasharray="none" font-weight="normal" stroke-width="1" xmlns="http://www.w3.org/2000/svg" font-family="&apos;Dialog&apos;" font-style="normal" stroke-linejoin="miter" font-size="12" stroke-dashoffset="0" image-rendering="auto">
  <!--Unicode Character 'HENTAIGANA LETTER HA-4' (U+1B0A1)-->
  <defs id="genericDefs" />
  <g>
    <g>
      <path d="M157.7812 138.375 Q171 138.375 183.6562 149.0625 Q185.9062 151.5938 187.0312 158.625 Q186.1875 169.0312 185.3438 169.3125 Q185.9062 170.4375 185.9062 171 Q199.4062 168.75 201.6562 168.75 Q232.5938 172.4062 232.5938 195.1875 Q232.5938 215.1562 208.4062 223.3125 Q201.9375 225 192.6562 225.5625 Q188.1562 225.5625 177.4688 222.75 L177.4688 223.3125 Q176.3438 226.9688 175.2188 240.75 Q175.2188 244.6875 190.9688 254.25 Q204.4688 267.1875 204.4688 285.1875 L204.4688 286.875 Q204.4688 295.875 201.6562 304.3125 Q201.6562 305.7188 215.1562 312.1875 Q248.9062 334.6875 248.9062 346.5 Q248.9062 353.25 240.4688 354.375 Q235.4062 354.375 219.6562 334.125 Q208.4062 324 197.7188 317.25 L196.0312 317.25 Q181.125 336.9375 155.5312 336.9375 L153.8438 336.9375 Q121.7812 336.9375 116.7188 316.6875 Q116.7188 297.5625 152.7188 294.1875 Q155.8125 293.625 158.9062 293.625 Q171 293.625 188.1562 298.6875 L188.1562 298.125 Q189.2812 295.3125 189.8438 283.5 Q189.8438 259.0312 170.1562 249.75 Q165.0938 244.4062 165.0938 237.9375 Q170.1562 193.5 170.1562 188.4375 L169.5938 188.4375 Q139.5 209.8125 126.2812 245.25 Q121.5 273.375 117.2812 273.375 Q116.4375 273.9375 115.0312 273.9375 L114.4688 273.9375 Q108.2812 273.9375 106.5938 261.5625 Q112.2188 232.875 112.2188 229.5 L112.2188 213.75 Q112.2188 199.6875 106.0312 191.25 L106.0312 190.6875 Q108.5625 187.0312 111.6562 186.75 Q122.9062 199.6875 122.9062 222.1875 L124.0312 222.75 Q143.4375 192.9375 171.2812 176.625 L171.2812 162.5625 Q171.2812 149.3438 159.4688 145.125 Q155.5312 143.7188 155.5312 142.875 Q156.0938 138.6562 157.7812 138.375 ZM50.3438 141.1875 Q75.6562 157.2188 75.6562 174.9375 Q75.6562 184.5 58.2188 234.5625 Q52.0312 260.4375 52.0312 284.625 Q54 321.1875 56.5312 321.1875 Q65.5312 297.5625 77.3438 277.875 L77.9062 277.875 Q79.5938 278.4375 82.4062 281.25 Q69.1875 305.7188 63.8438 347.0625 Q61.3125 352.6875 57.6562 352.6875 Q46.6875 352.6875 43.0312 330.1875 Q39.0938 309.6562 39.0938 290.8125 Q39.0938 257.3438 55.4062 194.0625 Q58.2188 178.5938 58.2188 170.4375 L58.2188 165.375 Q58.2188 156.375 45.8438 145.125 L50.3438 141.1875 ZM178.5938 215.4375 Q182.8125 217.6875 187.5938 217.6875 L193.7812 217.6875 Q208.9688 217.6875 215.1562 200.8125 L215.1562 191.25 Q213.1875 177.1875 199.9688 177.1875 Q182.5312 177.1875 182.5312 186.1875 L178.5938 215.4375 ZM128.5312 313.875 L128.5312 317.25 Q128.5312 328.5 155.5312 328.5 Q174.9375 328.5 183.6562 310.5 L183.6562 309.9375 Q172.125 304.875 161.1562 304.875 L152.7188 304.875 Q134.7188 304.875 128.5312 313.875 Z" stroke="none" />
    </g>
  </g>
</svg>
