<?xml version="1.0" encoding="UTF-8" standalone="no"?>
<svg
   xmlns:dc="http://purl.org/dc/elements/1.1/"
   xmlns:cc="http://creativecommons.org/ns#"
   xmlns:rdf="http://www.w3.org/1999/02/22-rdf-syntax-ns#"
   xmlns:svg="http://www.w3.org/2000/svg"
   xmlns="http://www.w3.org/2000/svg"
   xmlns:sodipodi="http://sodipodi.sourceforge.net/DTD/sodipodi-0.dtd"
   xmlns:inkscape="http://www.inkscape.org/namespaces/inkscape"
   fill-opacity="1"
   color-rendering="auto"
   color-interpolation="auto"
   text-rendering="auto"
   stroke="black"
   stroke-linecap="square"
   stroke-miterlimit="10"
   shape-rendering="auto"
   stroke-opacity="1"
   fill="black"
   stroke-dasharray="none"
   font-weight="normal"
   stroke-width="1"
   font-family="'Dialog'"
   font-style="normal"
   stroke-linejoin="miter"
   font-size="12"
   stroke-dashoffset="0"
   image-rendering="auto"
   version="1.1"
   id="svg9"
   sodipodi:docname="hentaigana_letter_wa1.svg"
   inkscape:version="0.92.4 (5da689c313, 2019-01-14)">
  <metadata
     id="metadata13">
    <rdf:RDF>
      <cc:Work
         rdf:about="">
        <dc:format>image/svg+xml</dc:format>
        <dc:type
           rdf:resource="http://purl.org/dc/dcmitype/StillImage" />
      </cc:Work>
    </rdf:RDF>
  </metadata>
  <sodipodi:namedview
     pagecolor="#ffffff"
     bordercolor="#666666"
     borderopacity="1"
     objecttolerance="10"
     gridtolerance="10"
     guidetolerance="10"
     inkscape:pageopacity="0"
     inkscape:pageshadow="2"
     inkscape:window-width="1920"
     inkscape:window-height="986"
     id="namedview11"
     showgrid="false"
     inkscape:zoom="2.36"
     inkscape:cx="50"
     inkscape:cy="50"
     inkscape:window-x="-11"
     inkscape:window-y="-11"
     inkscape:window-maximized="1"
     inkscape:current-layer="svg9" />
  <!--Unicode Character 'HENTAIGANA LETTER WA-1' (U+1B108)-->
  <defs
     id="genericDefs" />
  <g
     id="g7"
     transform="matrix(0.44046516,0,0,0.43691149,-13.282915,-57.667378)">
    <g
       id="g5">
      <path
         d="m 171.8438,133.875 q 20.8124,5.9062 20.8124,12.9375 v 0.5625 q 0,6.4688 -38.25,21.9375 -1.6874,1.4063 -1.6874,2.8125 13.7812,10.6875 14.625,10.6875 22.5,-6.1875 32.625,-6.1875 15.1874,2.5312 15.1874,10.125 0,8.4375 -39.9374,25.3125 v 0.5625 q 0,3.0938 0.5624,10.6875 l -0.5624,5.625 24.75,-5.625 q 6.1874,1.9687 6.1874,6.1875 v 1.125 q 0,5.625 -28.6874,10.6875 -2.8126,0 -4.5,11.25 -1.6876,2.25 -3.9376,2.8125 -1.6874,-0.2812 -6.75,-4.5 h -1.125 q -8.4374,16.0312 -9.5624,26.4375 v 1.125 h 0.5624 Q 163.9688,274.5 180.8438,270 v -1.125 q -1.6876,-5.3438 -1.6876,-5.625 3.6563,-1.6875 5.0626,-1.6875 l 4.5,6.75 12.9374,-1.125 q 33.1876,0 45.5626,18.5625 3.9374,7.0312 3.9374,14.625 v 1.6875 q 0,30.0937 -60.1874,50.625 -22.7813,6.1875 -26.4376,6.1875 -2.25,-3.375 -2.25,-4.5 71.4376,-21.9375 71.4376,-50.625 v -5.0625 q 0,-16.5937 -23.0626,-21.9375 -3.375,-0.5625 -7.875,-0.5625 h -5.625 q -7.875,0 -7.875,3.9375 -1.6874,15.1875 -16.875,32.625 l -10.6874,9.5625 q 0,3.375 9,6.75 h 1.6874 q 5.0626,-2.8125 7.875,-13.5 h 0.5626 q 1.6874,0.5625 3.9374,3.375 -5.3437,20.8125 -15.75,20.8125 -6.75,0 -19.125,-9.5625 h -1.125 q -21.0937,14.3437 -29.25,14.625 -4.7812,0 -11.8124,-8.4375 -17.4376,-12.375 -17.4376,-18 0,-13.7812 47.8126,-34.3125 5.9062,-23.3437 19.6874,-39.375 v -1.125 h -11.25 q -21.0937,0 -27,-9 l -1.125,-2.8125 q 0,-4.7812 25.3126,-14.625 18,-8.4375 18,-10.125 -0.8438,-10.6875 -2.8126,-10.6875 -50.0624,17.1563 -50.0624,24.1875 v 2.25 l 1.6874,2.25 q 0,0.8438 -1.6874,1.6875 -9.5626,-2.5313 -9.5626,-9 0,-10.4063 51.1876,-28.6875 5.0624,-1.9688 5.0624,-2.8125 v -0.5625 q 0,-1.4062 -12.9374,-12.375 v -1.125 q 0,-3.6562 19.125,-15.75 10.125,-8.7188 10.125,-11.8125 v -2.25 q -2.8126,-3.9375 -5.0626,-3.9375 v -1.125 q 3.0938,-3.375 5.0626,-3.375 z m -96.1876,6.75 h 0.5626 q 8.4374,0 20.8124,13.5 l 0.5626,3.9375 Q 97.0312,168.75 47.5312,226.125 v 2.25 q 0,2.5312 10.125,10.125 3.9376,7.3125 3.9376,11.8125 -1.6876,25.5937 -1.6876,43.875 v 15.75 q 0,2.8125 0.5626,8.4375 h 1.125 q 13.7812,-37.125 15.1874,-38.25 3.9376,1.6875 3.9376,3.375 -14.625,49.5 -14.625,56.25 -0.8438,10.125 -6.75,10.125 h -0.5626 q -12.375,0 -12.375,-43.3125 v -3.375 q 0,-23.625 2.8126,-55.6875 0,-10.4062 -10.125,-13.5 -2.25,-1.125 -2.25,-3.375 0,-3.0938 15.75,-24.1875 24.1874,-40.2187 26.4374,-51.1875 v -1.125 q 0,-4.7812 -7.3124,-10.6875 z m 96.1876,52.875 q 2.25,9 2.25,10.125 h 1.125 q 24.1874,-9.8438 24.1874,-14.0625 -1.6874,-1.125 -3.9374,-1.125 -21.9376,1.6875 -23.625,5.0625 z m -41.625,36.5625 q 0,2.25 10.6874,2.25 h 19.6876 q 1.6874,0 1.6874,-11.8125 V 216 l -31.5,12.9375 z m 18,72.5625 q 1.4062,12.375 6.75,12.375 19.125,-13.7812 24.75,-34.3125 V 279 q -1.125,0 -1.125,-0.5625 -29.25,8.7187 -29.25,13.5 -1.125,9.5625 -1.125,10.6875 z m -43.3126,16.3125 v 3.375 q 10.125,12.375 17.4376,12.375 6.1874,0 19.6874,-11.25 -6.75,-8.4375 -6.75,-16.3125 0,-2.25 0.5626,-10.125 h -0.5626 q -10.125,2.5312 -29.25,20.25 z"
         id="path3"
         inkscape:connector-curvature="0"
         style="stroke:none" />
    </g>
  </g>
</svg>
