<?xml version="1.0"?>

<!DOCTYPE svg PUBLIC '-//W3C//DTD SVG 1.0//EN' 'http://www.w3.org/TR/2001/REC-SVG-20010904/DTD/svg10.dtd'>
<svg fill-opacity="1" xmlns:xlink="http://www.w3.org/1999/xlink" color-rendering="auto" color-interpolation="auto" text-rendering="auto" stroke="black" stroke-linecap="square" stroke-miterlimit="10" shape-rendering="auto" stroke-opacity="1" fill="black" stroke-dasharray="none" font-weight="normal" stroke-width="1" xmlns="http://www.w3.org/2000/svg" font-family="&apos;Dialog&apos;" font-style="normal" stroke-linejoin="miter" font-size="12" stroke-dashoffset="0" image-rendering="auto">
  <!--Unicode Character 'HENTAIGANA LETTER SI-5' (U+1B048)-->
  <defs id="genericDefs" />
  <g>
    <g>
      <path d="M125.4375 139.7812 Q150.1875 144.5625 150.1875 148.7812 Q152.1562 149.0625 154.125 156.6562 Q154.125 163.125 145.125 189.2812 L145.6875 189.2812 Q162.2812 189.2812 188.4375 177.4688 L192.375 177.4688 Q200.8125 178.3125 200.8125 185.3438 Q200.8125 197.1562 137.8125 203.9062 L114.75 240.4688 L114.75 241.5938 Q115.0312 242.7188 115.875 242.7188 Q131.0625 242.7188 171 237.0938 Q189 239.9062 189 251.1562 Q189 257.3438 168.75 260.7188 Q93.0938 289.125 63.5625 315.2812 Q52.875 324.2812 52.875 325.9688 L52.875 327.0938 L54.5625 327.0938 Q88.3125 304.5938 110.8125 304.5938 Q126.2812 304.5938 149.0625 326.5312 L149.625 326.5312 Q153.2812 326.5312 174.9375 302.3438 Q189 291.0938 201.375 291.0938 Q222.1875 291.0938 248.625 327.0938 Q252.5625 333 254.25 340.5938 Q252 352.4062 244.125 352.4062 Q238.2188 352.4062 227.8125 327.6562 Q210.6562 300.6562 200.25 300.6562 L196.875 300.6562 Q185.0625 300.6562 162 338.3438 Q155.8125 345.6562 151.875 345.6562 Q142.5938 345.6562 129.9375 328.2188 Q118.6875 314.7188 111.375 314.7188 L107.4375 314.7188 Q84.0938 314.7188 45 351.8438 Q42.75 352.9688 41.0625 352.9688 Q33.75 349.875 33.75 340.5938 Q33.75 314.7188 118.6875 270.2812 Q144.5625 257.625 159.75 252.2812 L159.75 250.5938 L159.1875 250.5938 Q112.7812 256.2188 109.6875 256.2188 Q100.125 256.2188 98.4375 244.4062 Q98.4375 241.875 115.3125 217.9688 Q122.625 205.875 122.625 203.9062 L122.625 203.3438 Q99.2812 203.3438 79.3125 186.4688 L79.3125 185.9062 Q81.2812 181.6875 82.6875 181.4062 Q101.5312 190.9688 127.6875 190.9688 Q136.125 172.4062 136.125 157.2188 Q136.125 151.0312 120.9375 145.9688 L120.9375 145.4062 Q124.0312 139.7812 125.4375 139.7812 Z" stroke="none" />
    </g>
  </g>
</svg>
