<?xml version="1.0"?>

<!DOCTYPE svg PUBLIC '-//W3C//DTD SVG 1.0//EN' 'http://www.w3.org/TR/2001/REC-SVG-20010904/DTD/svg10.dtd'>
<svg fill-opacity="1" xmlns:xlink="http://www.w3.org/1999/xlink" color-rendering="auto" color-interpolation="auto" text-rendering="auto" stroke="black" stroke-linecap="square" stroke-miterlimit="10" shape-rendering="auto" stroke-opacity="1" fill="black" stroke-dasharray="none" font-weight="normal" stroke-width="1" xmlns="http://www.w3.org/2000/svg" font-family="&apos;Dialog&apos;" font-style="normal" stroke-linejoin="miter" font-size="12" stroke-dashoffset="0" image-rendering="auto">
  <!--Unicode Character 'HENTAIGANA LETTER SA-3' (U+1B03E)-->
  <defs id="genericDefs" />
  <g>
    <g>
      <path d="M138.6562 137.25 Q153 137.25 166.2188 148.5 Q168.4688 151.875 169.5938 156.375 Q164.5312 176.3438 164.5312 186.1875 L165.0938 186.1875 Q180 186.1875 207.8438 173.8125 L210.6562 173.8125 Q220.2188 173.8125 221.9062 180 Q221.9062 192.9375 163.9688 198 L163.4062 198 L163.4062 198.5625 L158.3438 263.25 L158.9062 263.25 Q181.125 243 204.4688 243 Q228.9375 243 241.0312 271.125 Q243.2812 278.4375 243.2812 284.625 Q243.2812 334.9688 148.2188 355.5 Q147.6562 355.5 144.8438 350.4375 Q226.4062 323.4375 226.4062 287.4375 L226.4062 280.125 Q226.4062 261 211.7812 253.6875 Q207.8438 252.5625 205.0312 252.5625 L199.9688 252.5625 Q181.125 252.5625 165.6562 275.0625 Q162.2812 280.125 160.0312 304.875 Q155.5312 310.5 152.7188 310.5 Q143.1562 304.875 143.1562 294.75 L143.1562 294.1875 Q149.9062 218.25 149.9062 199.125 Q148.7812 198.5625 148.2188 198.5625 Q124.875 198.5625 108.8438 186.1875 L108.8438 185.625 Q110.5312 182.8125 110.5312 181.6875 L111.6562 181.6875 Q126.5625 187.3125 140.3438 187.3125 L150.4688 187.3125 L151.0312 184.5 L151.0312 183.9375 Q151.0312 176.0625 151.5938 172.125 Q151.5938 147.375 145.4062 147.375 Q145.4062 146.5312 135.2812 141.75 L135.2812 141.1875 Q136.9688 137.5312 138.6562 137.25 ZM52.5938 144.5625 Q75.6562 153.2812 75.6562 171 Q75.6562 174.0938 61.0312 230.625 Q56.5312 253.4062 56.5312 271.125 L56.5312 282.375 Q57.6562 305.4375 60.4688 306.5625 Q68.9062 291.6562 86.3438 247.5 L86.9062 247.5 Q87.75 247.5 91.4062 252 Q71.1562 307.9688 71.1562 326.8125 Q71.1562 339.1875 65.5312 339.1875 Q65.5312 339.75 63.2812 339.75 Q50.3438 339.75 45.2812 281.8125 Q45.2812 279 44.7188 273.375 Q44.7188 243.2812 58.2188 170.4375 L58.2188 167.625 Q58.2188 156.375 48.6562 147.9375 L52.5938 144.5625 Z" stroke="none" />
    </g>
  </g>
</svg>
