<?xml version="1.0"?>

<!DOCTYPE svg PUBLIC '-//W3C//DTD SVG 1.0//EN' 'http://www.w3.org/TR/2001/REC-SVG-20010904/DTD/svg10.dtd'>
<svg fill-opacity="1" xmlns:xlink="http://www.w3.org/1999/xlink" color-rendering="auto" color-interpolation="auto" text-rendering="auto" stroke="black" stroke-linecap="square" stroke-miterlimit="10" shape-rendering="auto" stroke-opacity="1" fill="black" stroke-dasharray="none" font-weight="normal" stroke-width="1" xmlns="http://www.w3.org/2000/svg" font-family="&apos;Dialog&apos;" font-style="normal" stroke-linejoin="miter" font-size="12" stroke-dashoffset="0" image-rendering="auto">
  <!--Unicode Character 'HENTAIGANA LETTER HI-6' (U+1B0AE)-->
  <defs id="genericDefs" />
  <g>
    <g>
      <path d="M144.8438 141.4688 Q155.5312 144.8438 155.5312 151.0312 Q149.9062 176.3438 149.9062 180.8438 L150.4688 180.8438 Q168.75 155.5312 188.7188 155.5312 Q208.9688 157.7812 208.9688 169.5938 Q208.9688 184.7812 163.4062 199.9688 Q149.3438 205.3125 149.3438 207.2812 Q149.3438 219.6562 144.2812 219.6562 L143.7188 219.6562 Q133.5938 217.125 133.5938 211.7812 Q118.4062 215.1562 90.2812 232.5938 Q84.6562 236.5312 84.6562 239.9062 L84.6562 241.0312 Q84.6562 246.0938 93.0938 257.9062 L93.6562 257.9062 Q137.5312 228.0938 154.9688 228.0938 Q167.9062 230.0625 167.9062 241.0312 Q168.4688 241.0312 168.4688 244.4062 Q161.7188 296.1562 161.7188 318.6562 Q161.7188 330.1875 171.8438 332.1562 Q180.8438 334.4062 194.9062 334.4062 Q230.9062 332.4375 230.9062 318.6562 Q230.9062 305.7188 214.0312 290.5312 L213.4688 290.5312 Q204.75 296.4375 194.9062 302.3438 L193.7812 302.3438 Q192.9375 302.3438 189.8438 298.4062 L189.8438 297.8438 Q196.875 295.0312 207.8438 284.9062 L207.8438 284.3438 Q190.9688 263.8125 190.9688 253.4062 Q190.9688 242.7188 203.9062 237.6562 Q210.375 235.9688 216.2812 235.4062 Q232.875 235.4062 238.7812 247.7812 Q239.9062 250.0312 239.9062 253.9688 Q239.9062 267.4688 219.6562 284.9062 Q235.9688 303.1875 244.4062 313.5938 Q247.5 318.0938 247.7812 322.5938 Q247.7812 338.9062 212.3438 347.3438 Q201.6562 349.0312 193.7812 349.0312 Q158.9062 349.0312 148.7812 333.8438 Q146.5312 327.0938 145.9688 318.6562 Q147.6562 290.8125 153.2812 242.7188 Q153.2812 239.625 149.9062 237.6562 L145.4062 237.6562 Q131.625 238.2188 97.5938 268.0312 Q100.9688 286.3125 100.9688 294.4688 L100.9688 299.5312 Q100.125 337.7812 79.5938 350.1562 Q74.5312 351.2812 73.4062 351.2812 Q66.6562 351.2812 55.4062 338.9062 Q40.2188 327.375 40.2188 318.0938 Q40.2188 303.75 82.9688 265.2188 L83.5312 264.0938 Q76.2188 248.625 76.2188 243.8438 Q76.2188 227.25 132.4688 203.9062 L138.6562 157.7812 L137.5312 157.2188 Q111.9375 170.1562 110.5312 170.1562 Q102.9375 172.9688 99.2812 172.9688 Q87.4688 172.9688 75.6562 151.5938 Q76.5 149.0625 79.0312 147.6562 Q89.1562 158.3438 99.2812 158.3438 Q113.9062 158.3438 143.1562 141.4688 L144.8438 141.4688 ZM152.1562 196.0312 L153.2812 196.0312 Q190.9688 181.4062 190.9688 170.7188 L190.9688 170.1562 Q190.9688 164.5312 183.0938 163.4062 Q165.375 163.4062 152.1562 196.0312 ZM198.2812 253.9688 L198.2812 256.2188 Q198.2812 264.6562 212.9062 279.2812 Q220.7812 273.0938 224.7188 259.5938 L224.7188 250.5938 Q224.7188 244.125 215.7188 242.7188 L214.5938 242.7188 Q198.2812 242.7188 198.2812 253.9688 ZM54.2812 320.9062 L54.2812 324.8438 Q54.2812 331.5938 68.3438 338.9062 L71.1562 339.4688 Q84.9375 339.4688 87.4688 293.3438 L87.4688 286.5938 Q87.4688 283.5 86.9062 277.0312 L85.7812 277.0312 Q68.3438 293.3438 59.9062 307.4062 Q54.2812 316.6875 54.2812 320.9062 Z" stroke="none" />
    </g>
  </g>
</svg>
