<?xml version="1.0"?>

<!DOCTYPE svg PUBLIC '-//W3C//DTD SVG 1.0//EN' 'http://www.w3.org/TR/2001/REC-SVG-20010904/DTD/svg10.dtd'>
<svg fill-opacity="1" xmlns:xlink="http://www.w3.org/1999/xlink" color-rendering="auto" color-interpolation="auto" text-rendering="auto" stroke="black" stroke-linecap="square" stroke-miterlimit="10" shape-rendering="auto" stroke-opacity="1" fill="black" stroke-dasharray="none" font-weight="normal" stroke-width="1" xmlns="http://www.w3.org/2000/svg" font-family="&apos;Dialog&apos;" font-style="normal" stroke-linejoin="miter" font-size="12" stroke-dashoffset="0" image-rendering="auto">
  <!--Unicode Character 'HENTAIGANA LETTER HO-8' (U+1B0C1)-->
  <defs id="genericDefs" />
  <g>
    <g>
      <path d="M137.5312 128.25 Q162.8438 133.875 162.8438 144.5625 Q159.4688 159.75 159.4688 165.9375 L159.4688 167.625 Q165.6562 173.5312 165.6562 174.375 L165.6562 175.5 Q158.9062 190.4062 158.9062 192.375 L158.9062 192.9375 L163.9688 192.9375 Q169.3125 192.9375 170.7188 197.4375 Q170.7188 202.5 158.3438 208.6875 Q157.7812 213.1875 157.7812 219.375 Q208.4062 198 214.5938 196.3125 Q215.7188 195.75 216.8438 195.75 Q227.8125 195.75 233.7188 217.6875 L233.7188 218.25 Q233.7188 229.5 201.6562 244.125 Q167.0625 264.375 148.2188 277.875 L148.2188 278.4375 Q150.75 280.4062 167.9062 284.0625 Q169.875 286.5938 170.7188 289.6875 Q170.7188 293.0625 155.5312 298.6875 Q149.625 301.7812 148.7812 303.75 Q148.7812 308.8125 169.0312 312.1875 Q172.4062 315.5625 172.4062 319.5 Q172.4062 325.125 149.3438 330.75 Q131.0625 338.625 129.6562 342.5625 L129.6562 344.8125 Q129.6562 348.75 156.6562 349.875 Q164.5312 349.875 186.4688 345.9375 Q200.5312 347.3438 200.5312 354.9375 Q197.7188 364.5 170.7188 364.5 L157.7812 364.5 Q117.8438 361.9688 117.8438 348.1875 Q117.8438 336.0938 145.9688 320.625 L145.9688 320.0625 Q135.2812 314.7188 135.2812 307.6875 Q135.2812 302.9062 149.3438 293.625 L149.3438 292.5 Q135.8438 289.4062 135.8438 281.8125 Q135.8438 274.2188 178.0312 246.375 Q207.8438 228.375 215.7188 220.5 Q216.8438 216.8438 216.8438 215.4375 L216.8438 214.3125 Q216.8438 207 213.4688 205.3125 L212.9062 205.3125 Q207 205.3125 94.7812 260.4375 Q76.5 271.6875 70.5938 271.6875 Q57.0938 271.6875 54.8438 247.5 Q54.2812 243.5625 54.2812 241.3125 Q54.2812 197.1562 99.2812 167.0625 Q101.5312 169.5938 103.2188 172.125 Q70.0312 199.4062 70.0312 231.1875 L70.0312 235.6875 Q70.0312 252.5625 73.9688 252.5625 L76.2188 252.5625 Q77.9062 252.5625 130.7812 231.1875 L130.7812 230.0625 Q111.6562 219.375 111.6562 207.5625 Q111.6562 189.5625 147.0938 170.4375 L147.6562 170.4375 L147.6562 155.25 Q147.6562 138.9375 136.4062 135 Q133.5938 134.7188 133.5938 133.3125 Q134.7188 130.5 137.5312 128.25 ZM121.7812 210.375 Q121.7812 217.125 141.4688 224.4375 L142.5938 224.4375 Q147.6562 222.75 147.6562 204.75 Q144.8438 200.5312 144.8438 199.125 Q145.9688 193.7812 147.6562 188.4375 L147.6562 185.0625 Q124.5938 196.3125 121.7812 207.5625 L121.7812 210.375 Z" stroke="none" />
    </g>
  </g>
</svg>
