<?xml version="1.0"?>

<!DOCTYPE svg PUBLIC '-//W3C//DTD SVG 1.0//EN' 'http://www.w3.org/TR/2001/REC-SVG-20010904/DTD/svg10.dtd'>
<svg fill-opacity="1" xmlns:xlink="http://www.w3.org/1999/xlink" color-rendering="auto" color-interpolation="auto" text-rendering="auto" stroke="black" stroke-linecap="square" stroke-miterlimit="10" shape-rendering="auto" stroke-opacity="1" fill="black" stroke-dasharray="none" font-weight="normal" stroke-width="1" xmlns="http://www.w3.org/2000/svg" font-family="&apos;Dialog&apos;" font-style="normal" stroke-linejoin="miter" font-size="12" stroke-dashoffset="0" image-rendering="auto">
  <!--Unicode Character 'HENTAIGANA LETTER NA-4' (U+1B081)-->
  <defs id="genericDefs" />
  <g>
    <g>
      <path d="M122.9062 136.6875 L126.8438 136.6875 Q152.1562 138.0938 152.1562 148.5 Q152.1562 151.875 139.7812 168.1875 L139.7812 169.3125 Q155.5312 169.3125 178.5938 159.75 L179.7188 159.75 Q188.1562 161.7188 188.1562 165.9375 Q188.1562 178.875 138.0938 182.8125 L130.2188 182.8125 Q118.125 199.9688 108.2812 212.625 L108.2812 213.75 Q108.5625 213.75 115.5938 213.1875 Q144.8438 213.1875 165.0938 234.5625 Q177.4688 252.5625 177.4688 276.1875 L177.4688 281.8125 Q177.4688 330.1875 137.5312 353.8125 Q129.6562 356.0625 127.9688 356.0625 Q109.9688 356.0625 79.5938 321.1875 L78.4688 321.1875 Q59.0625 340.875 53.1562 340.875 L52.5938 340.875 Q41.3438 340.875 39.6562 321.75 Q39.6562 315.5625 46.9688 301.5 L47.5312 301.5 Q52.5938 302.625 52.5938 304.3125 Q50.9062 307.9688 50.9062 313.3125 L50.9062 316.6875 Q50.9062 320.0625 54.2812 320.0625 L55.9688 320.0625 Q66.0938 320.0625 108.2812 284.625 Q110.5312 288.5625 110.5312 290.25 L110.5312 290.8125 Q92.8125 306.8438 84.0938 316.125 L84.0938 316.6875 Q108.8438 338.625 125.1562 338.625 L130.2188 338.625 Q145.125 338.625 157.2188 306.5625 Q160.5938 294.1875 160.5938 283.5 L160.5938 275.0625 Q160.5938 232.5938 132.4688 224.4375 Q127.9688 223.3125 122.9062 223.3125 L117.2812 223.3125 Q111.0938 223.3125 97.0312 227.25 Q90.8438 223.3125 90.8438 217.6875 Q90.8438 216.2812 104.9062 199.6875 Q116.7188 184.2188 116.7188 181.125 L116.7188 180.5625 Q99.2812 180.5625 79.0312 165.375 L79.0312 164.8125 Q79.0312 160.875 81.8438 160.3125 Q98.7188 169.3125 122.9062 169.3125 Q131.3438 156.0938 131.3438 149.625 Q131.3438 144 118.4062 142.3125 L118.4062 141.75 Q118.4062 136.6875 122.9062 136.6875 ZM195.4688 254.25 Q225 262.4062 237.0938 279.5625 Q246.6562 290.25 248.3438 300.9375 Q246.9375 312.75 239.3438 312.75 Q232.5938 312.75 227.5312 294.1875 Q215.1562 268.3125 196.0312 261.5625 Q193.7812 260.4375 192.6562 260.4375 L192.6562 259.875 Q193.7812 254.5312 195.4688 254.25 Z" stroke="none" />
    </g>
  </g>
</svg>
