<?xml version="1.0" encoding="UTF-8" standalone="no"?>
<svg
   xmlns:dc="http://purl.org/dc/elements/1.1/"
   xmlns:cc="http://creativecommons.org/ns#"
   xmlns:rdf="http://www.w3.org/1999/02/22-rdf-syntax-ns#"
   xmlns:svg="http://www.w3.org/2000/svg"
   xmlns="http://www.w3.org/2000/svg"
   xmlns:sodipodi="http://sodipodi.sourceforge.net/DTD/sodipodi-0.dtd"
   xmlns:inkscape="http://www.inkscape.org/namespaces/inkscape"
   fill-opacity="1"
   color-rendering="auto"
   color-interpolation="auto"
   text-rendering="auto"
   stroke="black"
   stroke-linecap="square"
   stroke-miterlimit="10"
   shape-rendering="auto"
   stroke-opacity="1"
   fill="black"
   stroke-dasharray="none"
   font-weight="normal"
   stroke-width="1"
   font-family="'Dialog'"
   font-style="normal"
   stroke-linejoin="miter"
   font-size="12"
   stroke-dashoffset="0"
   image-rendering="auto"
   version="1.1"
   id="svg9"
   sodipodi:docname="hentaigana_letter_ko1.svg"
   inkscape:version="0.92.4 (5da689c313, 2019-01-14)">
  <metadata
     id="metadata13">
    <rdf:RDF>
      <cc:Work
         rdf:about="">
        <dc:format>image/svg+xml</dc:format>
        <dc:type
           rdf:resource="http://purl.org/dc/dcmitype/StillImage" />
      </cc:Work>
    </rdf:RDF>
  </metadata>
  <sodipodi:namedview
     pagecolor="#ffffff"
     bordercolor="#666666"
     borderopacity="1"
     objecttolerance="10"
     gridtolerance="10"
     guidetolerance="10"
     inkscape:pageopacity="0"
     inkscape:pageshadow="2"
     inkscape:window-width="1920"
     inkscape:window-height="986"
     id="namedview11"
     showgrid="false"
     inkscape:zoom="2.36"
     inkscape:cx="50"
     inkscape:cy="50"
     inkscape:window-x="-11"
     inkscape:window-y="-11"
     inkscape:window-maximized="1"
     inkscape:current-layer="svg9" />
  <!--Unicode Character 'HENTAIGANA LETTER KO-1' (U+1B038)-->
  <defs
     id="genericDefs" />
  <g
     id="g7"
     transform="matrix(0.47027604,0,0,0.44706967,-17.999411,-60.170096)">
    <g
       id="g5">
      <path
         d="m 123.75,136.4062 q 30.9375,4.7813 30.9375,18 -2.25,10.125 -3.375,34.875 10.4063,0 35.4375,-11.8124 0.8438,-0.5626 2.8125,-0.5626 10.125,1.4063 10.125,6.75 v 1.125 q 0,10.9688 -48.9375,18 v 14.625 q 0,17.4376 1.6875,31.5 0,14.625 -13.5,21.375 H 137.25 q -2.8125,0 -21.9375,-11.8124 -12.6563,-6.1876 -26.4375,-6.1876 -28.6875,0 -37.6875,30.9376 -1.125,2.5312 -1.125,9 v 1.125 q 0,23.9062 24.75,38.25 4.5,2.25 7.3125,2.25 h 2.8125 q 3.6563,0 19.125,-18.5626 13.5,-14.3437 16.875,-16.3124 H 121.5 q 0.8438,0 4.5,4.5 v 0.5624 q -27,30.6563 -27,47.8126 -2.5312,4.5 -8.4375,4.5 -18.2813,0 -41.625,-28.6876 -10.125,-16.5937 -10.125,-33.1874 v -1.125 q 0,-32.9063 34.3125,-47.8126 10.6875,-2.8124 16.875,-2.8124 19.9688,0 44.4375,9.5624 h 1.6875 q 1.6875,-0.5624 1.6875,-3.375 v -45.5624 q -28.6875,0 -50.0625,-19.125 v -0.5626 q 2.8125,-4.2187 2.8125,-5.0624 h 1.125 q 17.1563,11.25 45.5625,11.25 v -27 q 0,-16.3126 -16.875,-19.6876 0,-5.0624 3.375,-6.75 z m 75.9375,122.0626 q 49.5,10.4062 49.5,47.8124 v 2.8126 q -3.0937,23.0624 -14.0625,23.0624 l -10.6875,-6.1874 q -7.0313,-1.6876 -12.375,-1.6876 -12.6563,1.125 -16.875,1.125 -1.125,-5.0624 -1.6875,-5.0624 0,-3.375 36,-8.4376 2.25,-2.25 2.25,-5.625 v -0.5624 q 0,-27 -27,-38.25 -7.875,-1.9688 -7.875,-3.9376 0.2812,-3.0937 2.8125,-5.0624 z"
         id="path3"
         inkscape:connector-curvature="0"
         style="stroke:none" />
    </g>
  </g>
</svg>
