<?xml version="1.0" encoding="UTF-8" standalone="no"?>
<svg
   xmlns:dc="http://purl.org/dc/elements/1.1/"
   xmlns:cc="http://creativecommons.org/ns#"
   xmlns:rdf="http://www.w3.org/1999/02/22-rdf-syntax-ns#"
   xmlns:svg="http://www.w3.org/2000/svg"
   xmlns="http://www.w3.org/2000/svg"
   xmlns:sodipodi="http://sodipodi.sourceforge.net/DTD/sodipodi-0.dtd"
   xmlns:inkscape="http://www.inkscape.org/namespaces/inkscape"
   fill-opacity="1"
   color-rendering="auto"
   color-interpolation="auto"
   text-rendering="auto"
   stroke="black"
   stroke-linecap="square"
   stroke-miterlimit="10"
   shape-rendering="auto"
   stroke-opacity="1"
   fill="black"
   stroke-dasharray="none"
   font-weight="normal"
   stroke-width="1"
   font-family="'Dialog'"
   font-style="normal"
   stroke-linejoin="miter"
   font-size="12"
   stroke-dashoffset="0"
   image-rendering="auto"
   version="1.1"
   id="svg9"
   sodipodi:docname="hentaigana_letter_we1.svg"
   inkscape:version="0.92.4 (5da689c313, 2019-01-14)">
  <metadata
     id="metadata13">
    <rdf:RDF>
      <cc:Work
         rdf:about="">
        <dc:format>image/svg+xml</dc:format>
        <dc:type
           rdf:resource="http://purl.org/dc/dcmitype/StillImage" />
      </cc:Work>
    </rdf:RDF>
  </metadata>
  <sodipodi:namedview
     pagecolor="#ffffff"
     bordercolor="#666666"
     borderopacity="1"
     objecttolerance="10"
     gridtolerance="10"
     guidetolerance="10"
     inkscape:pageopacity="0"
     inkscape:pageshadow="2"
     inkscape:window-width="1920"
     inkscape:window-height="986"
     id="namedview11"
     showgrid="false"
     inkscape:zoom="2.36"
     inkscape:cx="50"
     inkscape:cy="50"
     inkscape:window-x="-11"
     inkscape:window-y="-11"
     inkscape:window-maximized="1"
     inkscape:current-layer="svg9" />
  <!--Unicode Character 'HENTAIGANA LETTER WE-1' (U+1B112)-->
  <defs
     id="genericDefs" />
  <g
     id="g7"
     transform="matrix(0.43502825,0,0,0.43410054,-12.711864,-56.551097)">
    <g
       id="g5">
      <path
         d="m 130.5,132.1875 h 9 q 14.625,0 16.875,10.125 v 0.5625 q 0,4.7812 -12.375,18.5625 v 1.125 h 0.5625 q 6.75,0 37.125,-10.125 h 1.6875 q 9.5625,0.8437 9.5625,7.3125 0,11.25 -57.375,15.75 -5.9063,0 -12.375,10.6875 -2.8125,1.9687 -10.6875,12.9375 v 0.5625 h 0.5625 q 30.6563,-12.375 52.875,-12.375 33.1875,0 46.6875,29.25 2.25,8.4375 2.25,12.9375 v 3.9375 q 0,41.625 -43.875,57.375 -14.9062,4.5 -29.8125,4.5 -9.2813,-1.125 -12.9375,-1.125 -29.5312,17.1563 -29.8125,18 v 0.5625 q 5.9063,-1.6875 10.6875,-1.6875 14.625,0 32.0625,23.625 1.125,0.5625 2.25,0.5625 22.7813,-33.1875 53.4375,-33.1875 30.375,0 51.75,36.5625 3.375,9.8438 3.375,11.8125 0,7.3125 -7.875,10.125 -9.2812,0 -14.0625,-19.6875 -14.3437,-29.8125 -33.1875,-29.8125 -30.0938,0 -41.625,37.6875 -3.0938,8.4375 -9.5625,8.4375 h -0.5625 q -12.6562,0 -21.375,-22.5 -9.8438,-14.625 -17.4375,-14.625 h -4.5 q -13.2187,0 -51.75,34.875 -3.0937,1.4063 -8.4375,2.25 -5.625,0 -5.625,-5.625 v -1.6875 q 0,-13.7812 23.0625,-21.375 33.4687,-19.9688 58.5,-37.6875 V 290.25 L 105.75,281.8125 q -18.5625,9 -29.25,9 -13.5,0 -13.5,-12.375 0,-17.1563 33.75,-34.3125 7.0312,-19.4062 21.375,-26.4375 7.3125,-3.375 12.9375,-3.375 12.9375,0 15.1875,15.75 -0.5625,5.0625 -0.5625,6.1875 23.0625,2.25 23.0625,18 0,14.9062 -27.5625,32.0625 v 0.5625 h 3.9375 q 34.875,0 50.0625,-35.4375 2.25,-7.3125 2.25,-14.0625 v -8.4375 q 0,-24.1875 -28.6875,-32.0625 -2.8125,-0.5625 -6.75,-0.5625 h -5.625 q -25.875,0 -53.4375,23.625 -1.9687,1.125 -4.5,1.125 -5.9063,0 -8.4375,-10.6875 0,-3.6562 15.75,-19.6875 10.6875,-13.5 10.6875,-14.0625 V 175.5 h -0.5625 q -20.5312,0 -34.3125,-11.8125 3.0937,-5.0625 3.9375,-5.0625 14.0625,6.1875 28.6875,6.1875 h 10.6875 q 9.8438,-12.9375 11.25,-19.6875 v -2.25 Q 135,140.0625 130.5,140.0625 h -3.9375 q -1.125,0 -1.125,-1.6875 0.8437,-6.1875 5.0625,-6.1875 z m -23.0625,108 H 108 q 23.0625,-3.9375 23.0625,-5.0625 V 229.5 q 0,-5.0625 -6.75,-5.0625 -9.2813,0 -16.875,15.75 z m -3.375,12.9375 q 0.8437,14.0625 3.9375,16.3125 h 1.125 q 15.1875,-12.6563 18,-23.0625 v -0.5625 q -22.2188,1.6875 -23.0625,7.3125 z m 11.25,23.625 v 1.125 q 5.0625,5.0625 10.125,6.1875 17.1563,-7.875 25.3125,-22.5 1.125,-1.9687 1.125,-4.5 v -3.375 q 0,-5.3437 -8.4375,-7.3125 h -0.5625 q -8.1562,12.0938 -13.5,18 z M 74.25,278.4375 q 0,3.375 6.75,3.375 8.4375,0 19.125,-6.75 v -1.125 q -5.0625,-9 -5.0625,-17.4375 H 93.375 Q 74.25,269.7188 74.25,278.4375 Z"
         id="path3"
         inkscape:connector-curvature="0"
         style="stroke:none" />
    </g>
  </g>
</svg>
