<?xml version="1.0" encoding="UTF-8" standalone="no"?>
<svg
   xmlns:dc="http://purl.org/dc/elements/1.1/"
   xmlns:cc="http://creativecommons.org/ns#"
   xmlns:rdf="http://www.w3.org/1999/02/22-rdf-syntax-ns#"
   xmlns:svg="http://www.w3.org/2000/svg"
   xmlns="http://www.w3.org/2000/svg"
   xmlns:sodipodi="http://sodipodi.sourceforge.net/DTD/sodipodi-0.dtd"
   xmlns:inkscape="http://www.inkscape.org/namespaces/inkscape"
   fill-opacity="1"
   color-rendering="auto"
   color-interpolation="auto"
   text-rendering="auto"
   stroke="black"
   stroke-linecap="square"
   stroke-miterlimit="10"
   shape-rendering="auto"
   stroke-opacity="1"
   fill="black"
   stroke-dasharray="none"
   font-weight="normal"
   stroke-width="1"
   font-family="'Dialog'"
   font-style="normal"
   stroke-linejoin="miter"
   font-size="12"
   stroke-dashoffset="0"
   image-rendering="auto"
   version="1.1"
   id="svg9"
   sodipodi:docname="hentaigana_letter_ki1.svg"
   inkscape:version="0.92.4 (5da689c313, 2019-01-14)"
   width="100%"
   height="100%"
   viewBox="0 0 100 100"
   preserveAspectRatio="xMidYMid meet"
   >
  <metadata
     id="metadata13">
    <rdf:RDF>
      <cc:Work
         rdf:about="">
        <dc:format>image/svg+xml</dc:format>
        <dc:type
           rdf:resource="http://purl.org/dc/dcmitype/StillImage" />
      </cc:Work>
    </rdf:RDF>
  </metadata>
  <sodipodi:namedview
     pagecolor="#ffffff"
     bordercolor="#666666"
     borderopacity="1"
     objecttolerance="10"
     gridtolerance="10"
     guidetolerance="10"
     inkscape:pageopacity="0"
     inkscape:pageshadow="2"
     inkscape:window-width="1920"
     inkscape:window-height="986"
     id="namedview11"
     showgrid="false"
     inkscape:zoom="2.36"
     inkscape:cx="50"
     inkscape:cy="50"
     inkscape:window-x="-11"
     inkscape:window-y="-11"
     inkscape:window-maximized="1"
     inkscape:current-layer="svg9" />
  <!--Unicode Character 'HENTAIGANA LETTER KI-1' (U+1B023)-->
  <defs
     id="genericDefs" />
  <g
     id="g7"
     transform="matrix(0.46683605,0,0,0.44363188,-17.292189,-59.323109)">
    <g
       id="g5">
      <path
         d="m 120.0938,135.5625 q 22.5,2.8125 22.5,7.3125 3.375,1.6875 3.375,7.3125 -2.8126,10.6875 -2.8126,20.8125 0.5626,0 0.5626,0.5625 24.4687,-3.9375 35.4374,-10.125 1.4063,-1.9687 10.125,-3.9375 11.5313,0 14.0626,7.3125 0,9.8437 -60.75,19.6875 l -0.5626,1.125 v 11.8125 q 0,9.5625 15.1876,9.5625 h 6.1874 q 5.0626,0 15.1876,-1.6875 11.8124,3.0937 11.8124,10.6875 0,5.0625 -24.75,8.4375 -28.9687,9.8437 -48.375,21.375 12.9376,10.9687 12.9376,16.3125 v 0.5625 q 0,12.6563 -42.1876,27.5625 -3.375,0 -3.375,20.8125 v 2.25 q 0,16.875 3.9376,16.875 h 0.5624 q 2.8126,0 30.9376,-24.1875 l 36.5624,-25.3125 q 0,-32.9063 15.1876,-45.5625 Q 175.5,234 176.9062,234 h 0.5626 q 3.6562,0 32.0624,10.125 18.5626,2.5312 18.5626,8.4375 v 0.5625 q 0,6.1875 -24.1876,12.375 -24.4687,11.25 -33.1874,18 v 8.4375 q 0,27.2813 8.4374,34.3125 7.875,6.75 28.6876,6.75 15.75,0 30.375,-4.5 10.6874,1.6875 10.6874,10.125 -3.9374,9 -34.875,9 h -9 q -31.5,0 -42.1874,-18.5625 -6.1876,-11.5313 -6.1876,-33.75 v -2.25 h -1.6874 q -18.2813,10.9687 -47.25,39.9375 -12.9376,22.2188 -16.875,23.625 -0.5626,0 -1.6876,0.5625 -13.2187,0 -18.5624,-33.1875 0,-4.7812 -0.5626,-10.125 l 1.125,-19.125 q -9.8437,1.6875 -14.0624,1.6875 h -2.8126 q -15.1874,-1.125 -15.1874,-11.8125 0,-8.7188 7.875,-15.75 h 0.5624 q 4.2188,0.5625 4.5,2.25 -2.25,3.9375 -2.25,6.75 V 279 q 0,3.9375 4.5,3.9375 19.6876,0 19.6876,-5.0625 2.25,-17.1562 15.1874,-35.4375 7.0313,-7.3125 11.8126,-7.3125 4.2187,0 10.125,5.0625 1.125,0 38.8124,-20.25 v -0.5625 q -20.8124,-3.9375 -20.8124,-12.9375 -1.6876,-4.2187 -1.6876,-11.25 v -3.375 l 0.5626,-5.625 q -0.8438,0 -7.875,0.5625 -28.9688,0 -41.625,-16.875 2.5312,-4.5 3.9374,-5.0625 12.6563,9 32.625,9 h 9 l 3.9376,-0.5625 q 0.5624,-8.4375 0.5624,-12.375 v -7.3125 q 0,-9 -13.5,-11.8125 0,-5.3438 5.0626,-6.1875 z m 51.1874,136.125 q 1.125,0 33.1876,-17.4375 -3.0938,-4.2188 -19.6876,-10.125 h -3.9374 q -9.5626,8.1562 -9.5626,27.5625 z m -82.6874,4.5 q 28.6874,-9.2813 28.6874,-16.875 v -1.125 Q 112.5,246.375 104.3438,246.375 q -7.5938,0 -15.75,29.8125 z"
         id="path3"
         inkscape:connector-curvature="0"
         style="stroke:none" />
    </g>
  </g>
</svg>
