<?xml version="1.0"?>

<!DOCTYPE svg PUBLIC '-//W3C//DTD SVG 1.0//EN' 'http://www.w3.org/TR/2001/REC-SVG-20010904/DTD/svg10.dtd'>
<svg fill-opacity="1" xmlns:xlink="http://www.w3.org/1999/xlink" color-rendering="auto" color-interpolation="auto" text-rendering="auto" stroke="black" stroke-linecap="square" stroke-miterlimit="10" shape-rendering="auto" stroke-opacity="1" fill="black" stroke-dasharray="none" font-weight="normal" stroke-width="1" xmlns="http://www.w3.org/2000/svg" font-family="&apos;Dialog&apos;" font-style="normal" stroke-linejoin="miter" font-size="12" stroke-dashoffset="0" image-rendering="auto">
  <!--Unicode Character 'HENTAIGANA LETTER SA-6' (U+1B041)-->
  <defs id="genericDefs" />
  <g>
    <g>
      <path d="M142.0312 138.0938 Q148.5 138.0938 152.1562 149.9062 L143.7188 179.7188 L143.7188 180.8438 L144.2812 180.8438 Q162.2812 171.8438 163.4062 171.8438 Q174.6562 174.375 174.6562 179.1562 Q174.6562 186.1875 140.3438 196.5938 L127.9688 233.7188 L128.5312 233.7188 Q154.4062 222.4688 172.4062 222.4688 L174.0938 222.4688 Q212.3438 222.4688 225.2812 253.4062 Q228.0938 261.8438 228.0938 270.8438 L228.0938 274.7812 Q228.0938 293.9062 214.0312 314.7188 L214.0312 315.8438 Q245.5312 334.4062 245.5312 343.9688 Q246.0938 345.0938 246.0938 345.6562 Q246.0938 351 239.9062 354.6562 L238.7812 354.6562 Q231.75 354.6562 223.5938 341.7188 Q216.5625 334.6875 207.2812 328.2188 L206.1562 328.2188 Q185.9062 350.7188 158.9062 350.7188 Q123.4688 346.5 123.4688 329.3438 Q123.4688 315.2812 153.8438 306.2812 Q165.9375 304.5938 169.5938 304.5938 Q180 304.5938 201.0938 309.6562 Q210.6562 295.3125 210.6562 278.1562 L210.6562 269.1562 Q210.6562 241.5938 189.2812 233.7188 Q181.125 231.4688 173.5312 231.4688 Q151.0312 231.4688 125.1562 246.6562 Q114.1875 281.5312 100.4062 306.2812 Q75.9375 347.9062 63.2812 347.9062 Q49.2188 347.9062 41.9062 307.4062 L41.9062 305.1562 Q41.9062 280.4062 112.2188 239.9062 Q117.8438 228.9375 124.5938 201.6562 L124.0312 201.6562 Q95.3438 211.7812 79.0312 211.7812 Q63 211.7812 53.1562 196.5938 Q53.1562 193.5 55.9688 192.0938 L56.5312 192.0938 Q64.4062 198.8438 78.4688 198.8438 L79.5938 198.8438 Q97.875 198.8438 127.9688 187.0312 Q134.7188 157.5 134.7188 149.3438 Q134.7188 148.2188 133.5938 148.2188 L131.9062 148.2188 Q115.5938 151.875 95.3438 174.6562 Q90.8438 184.2188 85.2188 184.2188 Q71.4375 184.2188 68.9062 157.7812 L68.9062 154.9688 Q70.5938 151.0312 74.5312 151.0312 Q78.4688 162.5625 84.0938 166.2188 L85.7812 166.2188 Q87.1875 166.2188 113.3438 149.3438 Q133.0312 138.0938 142.0312 138.0938 ZM53.7188 309.6562 L53.7188 312.4688 Q53.7188 328.2188 62.7188 336.0938 L64.9688 336.0938 Q77.625 324.2812 86.9062 306.8438 Q98.1562 285.4688 108.8438 254.5312 L107.1562 254.5312 Q75.6562 271.9688 55.9688 301.7812 Q53.7188 307.125 53.7188 309.6562 ZM134.1562 328.7812 Q134.1562 337.7812 156.6562 339.4688 L160.0312 339.4688 Q180.8438 339.4688 193.7812 321.4688 L193.7812 320.3438 Q183.9375 314.1562 171.8438 314.1562 L165.6562 314.1562 Q140.9062 314.1562 134.1562 326.5312 L134.1562 328.7812 Z" stroke="none" />
    </g>
  </g>
</svg>
