<?xml version="1.0"?>

<!DOCTYPE svg PUBLIC '-//W3C//DTD SVG 1.0//EN' 'http://www.w3.org/TR/2001/REC-SVG-20010904/DTD/svg10.dtd'>
<svg fill-opacity="1" xmlns:xlink="http://www.w3.org/1999/xlink" color-rendering="auto" color-interpolation="auto" text-rendering="auto" stroke="black" stroke-linecap="square" stroke-miterlimit="10" shape-rendering="auto" stroke-opacity="1" fill="black" stroke-dasharray="none" font-weight="normal" stroke-width="1" xmlns="http://www.w3.org/2000/svg" font-family="&apos;Dialog&apos;" font-style="normal" stroke-linejoin="miter" font-size="12" stroke-dashoffset="0" image-rendering="auto">
  <!--Unicode Character 'HENTAIGANA LETTER NA-9' (U+1B086)-->
  <defs id="genericDefs" />
  <g>
    <g>
      <path d="M130.7812 135 Q144.2812 136.6875 144.2812 145.125 Q144.2812 155.8125 113.9062 173.25 Q84.9375 192.375 64.9688 209.25 L64.9688 209.8125 Q103.7812 199.4062 118.4062 189.5625 Q125.1562 183.9375 129.6562 183.9375 Q140.3438 187.0312 140.3438 192.9375 Q140.3438 198.5625 117.8438 209.25 Q100.9688 219.0938 76.2188 244.6875 Q63.8438 261.2812 63.8438 267.75 L63.8438 270.5625 Q63.8438 271.4062 65.5312 272.25 L66.0938 272.25 Q91.9688 268.875 91.9688 262.125 Q95.3438 249.1875 101.5312 249.1875 Q104.0625 249.1875 116.1562 260.4375 L116.1562 261.5625 Q116.1562 265.5 104.9062 272.25 L104.3438 273.375 L104.3438 291.9375 L105.4688 291.9375 Q120.6562 277.0312 131.9062 261 Q163.125 215.1562 178.5938 180.5625 Q184.5 171.5625 193.2188 171.5625 Q200.5312 171.5625 205.0312 182.25 Q201.0938 196.875 176.9062 237.375 L176.9062 238.5 L177.4688 238.5 Q201.0938 236.8125 201.0938 232.3125 Q205.5938 217.125 212.9062 217.125 Q215.4375 217.125 222.4688 226.125 Q228.0938 229.5 228.0938 232.875 Q228.0938 237.6562 213.4688 242.4375 L213.4688 263.8125 Q222.4688 269.4375 222.4688 273.9375 Q222.4688 277.875 213.4688 291.375 L213.4688 303.1875 Q212.0625 315 205.5938 315 Q204.4688 315 196.0312 307.6875 L194.9062 307.6875 Q181.9688 316.4062 181.9688 321.1875 L181.9688 322.3125 Q181.9688 327.0938 201.0938 327.9375 L205.0312 327.9375 Q223.3125 327.9375 238.2188 324 Q246.0938 325.6875 246.0938 333 Q246.0938 340.3125 207.2812 341.4375 L206.1562 341.4375 Q176.625 341.4375 171.2812 331.3125 Q171.2812 330.1875 170.1562 327.375 Q170.1562 318.9375 185.9062 302.0625 Q183.6562 300.0938 169.5938 294.75 Q166.2188 291.6562 166.2188 288 Q166.2188 273.9375 188.7188 265.5 Q201.0938 263.25 201.0938 262.125 L201.0938 245.25 L200.5312 245.25 Q176.9062 252 171.8438 252 Q167.3438 252 163.9688 243 Q163.9688 241.5938 171.8438 231.1875 Q188.4375 192.0938 188.7188 182.8125 Q188.1562 181.6875 188.1562 181.125 L187.0312 181.125 Q185.9062 181.6875 163.4062 225 Q142.5938 264.9375 106.0312 307.6875 Q103.7812 308.5312 103.7812 312.1875 Q103.7812 352.6875 99.2812 352.6875 Q94.5 357.75 91.4062 357.75 Q86.9062 357.75 83.5312 347.625 Q74.8125 338.0625 70.5938 335.25 Q55.125 347.625 54.8438 347.625 L53.7188 347.625 Q49.7812 344.8125 49.7812 339.1875 L49.7812 338.625 Q49.7812 334.125 61.0312 322.875 Q74.25 304.0312 79.0312 290.8125 L80.1562 290.8125 L84.0938 291.9375 L84.0938 293.625 Q80.7188 303.75 72.2812 320.625 L72.8438 320.625 Q86.0625 311.3438 90.2812 306.5625 Q90.8438 291.6562 90.8438 281.8125 L90.8438 279 Q72 285.75 64.9688 285.75 Q53.7188 285.75 53.7188 275.0625 L53.7188 273.9375 Q53.7188 252.2812 98.7188 213.1875 Q106.5938 206.4375 107.7188 206.4375 L107.7188 204.75 Q102.375 204.75 54.2812 229.5 L51.4688 230.0625 Q41.9062 225 41.9062 218.8125 Q44.4375 214.5938 62.1562 203.625 Q90 184.7812 124.0312 149.0625 L124.5938 146.25 L124.5938 145.6875 Q124.5938 144.2812 122.3438 144 Q97.5938 144 71.7188 172.125 Q64.125 184.5 59.3438 184.5 Q48.6562 179.1562 48.6562 171 Q47.5312 171 47.5312 163.6875 Q51.1875 142.875 55.9688 142.875 Q59.3438 143.4375 59.3438 144.5625 L58.2188 154.6875 Q58.7812 159.1875 58.7812 163.6875 L59.9062 164.25 Q61.0312 164.25 82.9688 150.1875 Q113.0625 135 130.7812 135 ZM179.7188 286.3125 L179.7188 288 Q179.7188 293.625 190.9688 295.875 Q198.8438 290.8125 201.0938 283.5 L201.0938 275.625 L200.5312 275.625 Q179.7188 277.875 179.7188 286.3125 ZM76.2188 330.75 L76.2188 331.3125 Q76.2188 333.2812 89.7188 338.0625 L89.7188 337.5 Q90.2812 327.9375 90.2812 322.875 L90.2812 320.0625 Q87.4688 320.0625 76.2188 330.75 Z" stroke="none" />
    </g>
  </g>
</svg>
