<?xml version="1.0"?>

<!DOCTYPE svg PUBLIC '-//W3C//DTD SVG 1.0//EN' 'http://www.w3.org/TR/2001/REC-SVG-20010904/DTD/svg10.dtd'>
<svg fill-opacity="1" xmlns:xlink="http://www.w3.org/1999/xlink" color-rendering="auto" color-interpolation="auto" text-rendering="auto" stroke="black" stroke-linecap="square" stroke-miterlimit="10" shape-rendering="auto" stroke-opacity="1" fill="black" stroke-dasharray="none" font-weight="normal" stroke-width="1" xmlns="http://www.w3.org/2000/svg" font-family="&apos;Dialog&apos;" font-style="normal" stroke-linejoin="miter" font-size="12" stroke-dashoffset="0" image-rendering="auto">
  <!--Unicode Character 'HENTAIGANA LETTER A-WO' (U+1B005)-->
  <defs id="genericDefs" />
  <g>
    <g>
      <path d="M127.125 134.7188 L128.8125 134.7188 Q135.2812 146.8125 151.3125 152.7188 Q170.4375 157.2188 173.25 159.4688 Q177.75 163.4062 177.75 168.4688 Q177.75 174.0938 160.875 174.0938 Q150.4688 174.0938 129.375 180.8438 Q126.5625 177.1875 126.5625 175.2188 Q135.2812 171.2812 147.375 166.7812 L147.375 165.0938 Q135 160.875 125.4375 145.9688 Q122.0625 139.7812 122.0625 138.0938 L127.125 134.7188 ZM98.4375 189.2812 L99 189.2812 Q99 190.4062 101.25 193.2188 L101.25 194.3438 Q91.125 198.5625 91.125 206.7188 Q91.125 214.0312 104.625 214.0312 L106.3125 214.0312 Q118.4062 214.0312 131.0625 206.1562 L132.75 206.1562 Q145.6875 210.375 145.6875 216.2812 L145.6875 216.8438 Q145.6875 219.6562 132.75 230.3438 Q129.9375 233.4375 129.9375 235.9688 L129.9375 238.2188 Q129.9375 241.5938 144 243.2812 Q154.6875 242.7188 157.5 242.1562 Q166.2188 242.1562 171 257.9062 Q171 266.625 148.5 271.4062 Q117.5625 284.3438 81.5625 308.5312 Q69.75 316.4062 61.3125 323.7188 L62.4375 323.7188 Q88.3125 309.0938 102.9375 309.0938 Q121.5 309.0938 140.625 324.8438 L143.4375 324.8438 Q168.4688 298.9688 194.0625 298.9688 L194.625 298.9688 Q222.1875 298.9688 247.5 332.7188 Q253.125 340.875 253.125 347.9062 Q252 358.0312 245.8125 358.0312 L244.6875 358.0312 Q239.625 358.0312 228.9375 335.5312 Q210.9375 307.4062 194.625 307.4062 Q166.5 307.4062 146.25 346.2188 Q143.4375 347.9062 140.625 347.9062 Q135 347.9062 124.875 329.9062 Q114.4688 317.5312 100.125 317.5312 Q80.7188 317.5312 44.4375 355.7812 Q42.1875 356.3438 42.1875 356.9062 Q35.7188 356.9062 34.875 341.1562 Q34.875 332.4375 54.5625 319.7812 Q99.2812 284.625 149.0625 256.7812 L149.0625 255.6562 Q122.625 254.25 119.25 241.5938 Q118.6875 237.6562 118.6875 237.0938 Q118.6875 234.2812 122.625 223.5938 L122.625 223.0312 L122.0625 223.0312 Q106.875 226.9688 100.125 226.9688 L96.75 226.9688 Q76.5 224.4375 76.5 211.2188 Q76.5 198 98.4375 189.2812 Z" stroke="none" />
    </g>
  </g>
</svg>
