<?xml version="1.0" encoding="UTF-8" standalone="no"?>
<svg
   xmlns:dc="http://purl.org/dc/elements/1.1/"
   xmlns:cc="http://creativecommons.org/ns#"
   xmlns:rdf="http://www.w3.org/1999/02/22-rdf-syntax-ns#"
   xmlns:svg="http://www.w3.org/2000/svg"
   xmlns="http://www.w3.org/2000/svg"
   xmlns:sodipodi="http://sodipodi.sourceforge.net/DTD/sodipodi-0.dtd"
   xmlns:inkscape="http://www.inkscape.org/namespaces/inkscape"
   fill-opacity="1"
   color-rendering="auto"
   color-interpolation="auto"
   text-rendering="auto"
   stroke="black"
   stroke-linecap="square"
   stroke-miterlimit="10"
   shape-rendering="auto"
   stroke-opacity="1"
   fill="black"
   stroke-dasharray="none"
   font-weight="normal"
   stroke-width="1"
   font-family="'Dialog'"
   font-style="normal"
   stroke-linejoin="miter"
   font-size="12"
   stroke-dashoffset="0"
   image-rendering="auto"
   version="1.1"
   id="svg9"
   sodipodi:docname="hentaigana_letter_ri1.svg"
   inkscape:version="0.92.4 (5da689c313, 2019-01-14)">
  <metadata
     id="metadata13">
    <rdf:RDF>
      <cc:Work
         rdf:about="">
        <dc:format>image/svg+xml</dc:format>
        <dc:type
           rdf:resource="http://purl.org/dc/dcmitype/StillImage" />
      </cc:Work>
    </rdf:RDF>
  </metadata>
  <sodipodi:namedview
     pagecolor="#ffffff"
     bordercolor="#666666"
     borderopacity="1"
     objecttolerance="10"
     gridtolerance="10"
     guidetolerance="10"
     inkscape:pageopacity="0"
     inkscape:pageshadow="2"
     inkscape:window-width="1920"
     inkscape:window-height="986"
     id="namedview11"
     showgrid="false"
     inkscape:zoom="2.36"
     inkscape:cx="50"
     inkscape:cy="50"
     inkscape:window-x="-11"
     inkscape:window-y="-11"
     inkscape:window-maximized="1"
     inkscape:current-layer="svg9" />
  <!--Unicode Character 'HENTAIGANA LETTER RI-1' (U+1B0F1)-->
  <defs
     id="genericDefs" />
  <g
     id="g7"
     transform="matrix(0.43985735,0,0,0.42340306,-14.042847,-54.551096)">
    <g
       id="g5">
      <path
         d="m 96.4688,132.4688 q 29.25,5.0624 29.25,15.1874 0,7.0313 -41.0626,30.9376 -5.0624,3.0937 -6.1874,5.625 v 2.8124 q 5.625,12.9376 8.4374,12.9376 1.9688,-1.125 7.3126,-2.25 5.625,0.8437 5.625,5.625 0,2.5312 -3.9376,15.1874 5.625,17.1563 5.625,18 h 1.125 q 42.75,-50.625 57.9376,-50.625 7.875,0 14.625,11.8126 15.1874,-45.5626 35.4374,-45.5626 h 0.5626 q 23.625,0 30.375,51.75 1.125,12.0938 1.125,21.9376 v 13.5 q 0,70.3124 -52.3126,120.9374 -3.0937,-1.9687 -4.5,-3.9374 22.5,-30.375 27.5626,-46.6876 11.8124,-27.2812 11.8124,-64.125 v -14.0624 q 0,-48.9376 -14.625,-69.75 l -2.25,-1.6876 h -4.5 q -6.4687,1.4063 -16.3124,26.4376 -4.5,15.75 -6.1876,43.875 0.5626,8.7187 0.5626,18 -0.8438,10.6874 -6.1876,10.6874 -11.8124,-2.8124 -11.8124,-15.1874 1.6874,-13.5 1.6874,-21.375 v -2.25 q 0,-18.8438 -4.5,-24.1876 l -2.8124,-1.6874 h -1.6876 q -11.8124,0 -51.1874,57.9374 3.375,25.875 3.375,37.6876 0,43.3124 -19.6876,54 -3.6562,0 -9,-18.5626 -7.0312,-14.0624 -12.9374,-20.25 h -1.125 q -7.875,16.3126 -11.8126,16.3126 -5.9062,0 -7.3124,-15.1876 0,-5.625 20.8124,-27.5624 13.7813,-17.1563 22.5,-29.25 v -1.125 q 0,-8.7188 -6.1874,-28.6876 h -1.6876 q -21.9374,18.8438 -32.625,34.3126 -3.9374,0 -4.5,-2.8126 10.6876,-20.5312 30.375,-41.625 2.25,-2.5312 2.25,-3.9374 -9,-15.75 -9,-18.5626 0,-5.3437 23.625,-23.625 12.375,-12.6562 12.375,-18 0,-3.0937 -11.8124,-9 0.5624,-1.6874 3.375,-3.9374 z m -5.0626,134.4374 q -18.5624,26.1563 -20.8124,31.5 16.0312,19.6876 16.3124,20.25 1.125,0.5626 2.25,0.5626 h 0.5626 q 5.0624,-5.9063 5.0624,-20.8126 v -7.3124 q 0,-12.375 -1.6874,-24.1876 z"
         id="path3"
         inkscape:connector-curvature="0"
         style="stroke:none" />
    </g>
  </g>
</svg>
