<?xml version="1.0"?>

<!DOCTYPE svg PUBLIC '-//W3C//DTD SVG 1.0//EN' 'http://www.w3.org/TR/2001/REC-SVG-20010904/DTD/svg10.dtd'>
<svg fill-opacity="1" xmlns:xlink="http://www.w3.org/1999/xlink" color-rendering="auto" color-interpolation="auto" text-rendering="auto" stroke="black" stroke-linecap="square" stroke-miterlimit="10" shape-rendering="auto" stroke-opacity="1" fill="black" stroke-dasharray="none" font-weight="normal" stroke-width="1" xmlns="http://www.w3.org/2000/svg" font-family="&apos;Dialog&apos;" font-style="normal" stroke-linejoin="miter" font-size="12" stroke-dashoffset="0" image-rendering="auto">
  <!--Unicode Character 'HENTAIGANA LETTER MI-2' (U+1B0CA)-->
  <defs id="genericDefs" />
  <g>
    <g>
      <path d="M118.125 137.5312 Q145.6875 142.0312 145.6875 155.5312 Q142.3125 174.0938 142.3125 184.2188 L142.3125 184.7812 L142.875 184.7812 Q144.5625 184.7812 157.5 176.9062 Q158.3438 176.3438 160.3125 176.3438 Q169.875 176.3438 169.875 182.5312 Q169.875 190.9688 141.1875 199.9688 Q140.625 209.25 140.625 214.0312 L140.625 233.7188 Q153 236.8125 153 244.9688 Q153 250.0312 141.75 271.9688 L141.75 289.4062 L142.3125 289.4062 Q161.7188 266.9062 179.4375 236.5312 L179.4375 235.4062 L180.5625 235.4062 Q184.5 237.375 184.5 239.3438 Q174.375 263.5312 141.1875 308.5312 Q142.3125 318.0938 142.3125 319.2188 Q142.3125 330.75 133.3125 333.2812 Q129.9375 333.2812 124.3125 321.4688 L123.75 321.4688 Q122.625 321.4688 110.8125 335.5312 Q105.75 338.9062 104.0625 338.9062 L102.9375 338.9062 Q96.75 333.2812 96.75 324.8438 Q96.75 320.9062 111.375 307.4062 Q114.75 303.4688 114.75 301.2188 Q114.75 299.5312 100.6875 283.2188 Q99.5625 280.9688 99 276.4688 Q99 258.1875 129.9375 236.5312 L129.9375 202.7812 Q117.5625 205.0312 109.6875 205.0312 Q100.9688 205.0312 97.3125 197.1562 Q102.375 185.625 104.0625 179.7188 L104.625 179.7188 L109.125 180.8438 L109.125 188.1562 Q109.125 191.5312 112.5 191.5312 L114.1875 191.5312 Q130.5 191.5312 130.5 188.1562 Q130.5 151.0312 126 151.0312 Q124.875 149.0625 115.875 143.1562 Q115.875 139.5 118.125 137.5312 ZM56.8125 149.3438 Q81 154.125 81 161.7188 Q82.125 161.7188 83.25 167.9062 Q83.25 174.9375 69.75 190.4062 L69.75 190.9688 L69.1875 190.9688 Q65.25 190.9688 64.125 189.2812 L65.8125 173.5312 Q65.8125 160.5938 53.4375 154.4062 L53.4375 153.8438 Q53.4375 153.2812 56.8125 149.3438 ZM212.0625 175.2188 Q222.75 177.1875 222.75 185.3438 L222.75 187.5938 Q222.75 191.8125 210.9375 229.2188 L210.9375 230.3438 Q210.9375 235.4062 230.0625 245.5312 Q246.375 258.4688 246.375 277.5938 L246.375 279.2812 Q246.375 324.2812 176.625 350.1562 Q171 352.4062 158.625 355.2188 Q156.6562 355.2188 153.5625 350.1562 L153.5625 349.5938 Q203.3438 335.25 222.75 305.1562 Q230.0625 290.5312 230.0625 279.8438 L230.0625 272.5312 Q230.0625 247.7812 204.1875 239.3438 L201.9375 235.4062 Q205.875 207.2812 205.875 195.4688 Q205.3125 192.0938 204.1875 192.0938 Q202.5 192.0938 195.1875 201.6562 Q192.6562 200.5312 192.375 199.4062 L192.375 198.8438 Q201.9375 175.2188 212.0625 175.2188 ZM61.3125 204.4688 L61.875 204.4688 Q66.0938 205.0312 66.375 206.7188 Q55.6875 251.7188 55.6875 292.2188 Q56.25 310.7812 57.375 316.9688 Q60.75 314.4375 74.8125 273.6562 Q78.1875 263.5312 78.1875 262.9688 L79.3125 262.9688 Q83.25 265.5 83.25 266.3438 Q77.625 289.125 64.125 334.4062 Q64.125 350.1562 55.6875 350.1562 Q43.5938 350.1562 41.625 301.7812 L41.625 290.5312 Q41.625 248.0625 57.9375 210.0938 Q60.4688 204.4688 61.3125 204.4688 ZM111.375 276.4688 L111.375 278.1562 Q111.375 282.6562 119.8125 294.4688 L120.375 294.4688 Q126.5625 287.7188 129.9375 274.2188 L129.9375 252.2812 L128.8125 252.2812 Q111.375 267.1875 111.375 276.4688 Z" stroke="none" />
    </g>
  </g>
</svg>
