<?xml version="1.0" encoding="UTF-8" standalone="no"?>
<svg
   xmlns:dc="http://purl.org/dc/elements/1.1/"
   xmlns:cc="http://creativecommons.org/ns#"
   xmlns:rdf="http://www.w3.org/1999/02/22-rdf-syntax-ns#"
   xmlns:svg="http://www.w3.org/2000/svg"
   xmlns="http://www.w3.org/2000/svg"
   xmlns:sodipodi="http://sodipodi.sourceforge.net/DTD/sodipodi-0.dtd"
   xmlns:inkscape="http://www.inkscape.org/namespaces/inkscape"
   fill-opacity="1"
   color-rendering="auto"
   color-interpolation="auto"
   text-rendering="auto"
   stroke="black"
   stroke-linecap="square"
   stroke-miterlimit="10"
   shape-rendering="auto"
   stroke-opacity="1"
   fill="black"
   stroke-dasharray="none"
   font-weight="normal"
   stroke-width="1"
   font-family="'Dialog'"
   font-style="normal"
   stroke-linejoin="miter"
   font-size="12"
   stroke-dashoffset="0"
   image-rendering="auto"
   version="1.1"
   id="svg9"
   sodipodi:docname="hentaigana_letter_mu1.svg"
   inkscape:version="0.92.4 (5da689c313, 2019-01-14)">
  <metadata
     id="metadata13">
    <rdf:RDF>
      <cc:Work
         rdf:about="">
        <dc:format>image/svg+xml</dc:format>
        <dc:type
           rdf:resource="http://purl.org/dc/dcmitype/StillImage" />
      </cc:Work>
    </rdf:RDF>
  </metadata>
  <sodipodi:namedview
     pagecolor="#ffffff"
     bordercolor="#666666"
     borderopacity="1"
     objecttolerance="10"
     gridtolerance="10"
     guidetolerance="10"
     inkscape:pageopacity="0"
     inkscape:pageshadow="2"
     inkscape:window-width="1920"
     inkscape:window-height="986"
     id="namedview11"
     showgrid="false"
     inkscape:zoom="2.36"
     inkscape:cx="50"
     inkscape:cy="50"
     inkscape:window-x="-11"
     inkscape:window-y="-11"
     inkscape:window-maximized="1"
     inkscape:current-layer="svg9" />
  <!--Unicode Character 'HENTAIGANA LETTER MU-1' (U+1B0D0)-->
  <defs
     id="genericDefs" />
  <g
     id="g7"
     transform="matrix(0.45993882,0,0,0.45144623,-16.510851,-61.036507)">
    <g
       id="g5">
      <path
         d="m 80.4375,136.6875 q 22.2187,1.9687 27,13.5 L 108,155.25 q -5.625,29.5312 -5.625,31.5 h 0.5625 q 11.8125,-2.5312 32.625,-12.9375 3.0937,-0.5625 5.0625,-0.5625 h 1.125 q 7.5938,0 10.6875,5.0625 V 180 q 0,10.6875 -51.75,21.375 0,2.25 -2.25,27.5625 1.125,0 1.125,0.5625 1.125,-0.5625 1.6875,-0.5625 3.0938,0 9.5625,-0.5625 19.6875,0 25.875,14.625 l 0.5625,5.625 Q 137.25,265.5 94.5,292.5 81,303.1875 81,316.125 v 5.625 q 0,19.125 54.5625,19.125 h 2.25 q 39.6563,0 61.875,-17.4375 1.6875,-2.25 1.6875,-5.0625 -6.75,-24.1875 -12.375,-50.625 0,-1.9688 7.3125,-3.375 8.1563,25.875 13.5,38.25 3.0937,6.4688 12.375,17.4375 0,0.5625 0.5625,1.6875 0,10.125 -22.5,22.5 -29.5312,11.8125 -63,11.8125 -66.9375,0 -66.9375,-34.3125 0,-7.5938 3.9375,-19.125 h -0.5625 q -9,4.5 -14.0625,4.5 -4.5,0 -14.625,-18.5625 -7.3125,-7.5937 -7.3125,-12.375 0,-14.0625 26.4375,-34.3125 9.8438,-6.1875 20.8125,-10.125 1.6875,-9.8438 1.6875,-28.6875 -33.75,0 -47.25,-19.6875 1.4062,-2.8125 5.0625,-5.625 15.75,13.5 30.375,13.5 h 7.3125 q 6.75,0 6.75,-2.25 1.125,-21.375 1.6875,-26.4375 -0.8437,-16.875 -7.3125,-16.875 l -7.3125,-3.375 q 1.9687,-5.625 4.5,-5.625 z M 196.875,169.875 q 36.5625,20.25 48.9375,48.9375 4.5,13.5 4.5,19.125 -1.9687,15.75 -10.125,15.75 -2.8125,0 -15.1875,-11.8125 -8.1562,-5.0625 -31.5,-7.3125 -1.125,0 -1.125,-1.125 v -1.125 q 0,-5.0625 6.1875,-5.0625 h 1.125 q 9.2813,0 29.25,2.25 h 1.125 q 1.125,0 1.125,-1.125 v -2.8125 Q 229.5,212.0625 209.25,189 l -17.4375,-13.5 q 3.375,-5.625 5.0625,-5.625 z M 84.375,290.8125 H 85.5 q 33.75,-24.4687 33.75,-37.6875 v -6.75 Q 117.8438,236.25 109.125,236.25 h -2.8125 q -9,0 -9,2.25 -3.9375,30.0938 -12.9375,52.3125 z m -32.0625,-15.75 v 4.5 q 0,9 10.125,12.375 H 65.25 q 10.6875,0 18.5625,-48.375 -0.5625,-1.125 -0.5625,-1.6875 -15.1875,5.0625 -27,23.625 -3.9375,5.9062 -3.9375,9.5625 z"
         id="path3"
         inkscape:connector-curvature="0"
         style="stroke:none" />
    </g>
  </g>
</svg>
