<?xml version="1.0" encoding="UTF-8" standalone="no"?>
<svg
   xmlns:dc="http://purl.org/dc/elements/1.1/"
   xmlns:cc="http://creativecommons.org/ns#"
   xmlns:rdf="http://www.w3.org/1999/02/22-rdf-syntax-ns#"
   xmlns:svg="http://www.w3.org/2000/svg"
   xmlns="http://www.w3.org/2000/svg"
   xmlns:sodipodi="http://sodipodi.sourceforge.net/DTD/sodipodi-0.dtd"
   xmlns:inkscape="http://www.inkscape.org/namespaces/inkscape"
   fill-opacity="1"
   color-rendering="auto"
   color-interpolation="auto"
   text-rendering="auto"
   stroke="black"
   stroke-linecap="square"
   stroke-miterlimit="10"
   shape-rendering="auto"
   stroke-opacity="1"
   fill="black"
   stroke-dasharray="none"
   font-weight="normal"
   stroke-width="1"
   font-family="'Dialog'"
   font-style="normal"
   stroke-linejoin="miter"
   font-size="12"
   stroke-dashoffset="0"
   image-rendering="auto"
   version="1.1"
   id="svg9"
   sodipodi:docname="hentaigana_letter_se1.svg"
   inkscape:version="0.92.4 (5da689c313, 2019-01-14)"
   width="100%"
   height="100%"
   viewBox="0 0 100 100"
   preserveAspectRatio="xMidYMid meet"
   >
  <metadata
     id="metadata13">
    <rdf:RDF>
      <cc:Work
         rdf:about="">
        <dc:format>image/svg+xml</dc:format>
        <dc:type
           rdf:resource="http://purl.org/dc/dcmitype/StillImage" />
      </cc:Work>
    </rdf:RDF>
  </metadata>
  <sodipodi:namedview
     pagecolor="#ffffff"
     bordercolor="#666666"
     borderopacity="1"
     objecttolerance="10"
     gridtolerance="10"
     guidetolerance="10"
     inkscape:pageopacity="0"
     inkscape:pageshadow="2"
     inkscape:window-width="1920"
     inkscape:window-height="986"
     id="namedview11"
     showgrid="false"
     inkscape:zoom="2.36"
     inkscape:cx="50"
     inkscape:cy="50"
     inkscape:window-x="-11"
     inkscape:window-y="-11"
     inkscape:window-maximized="1"
     inkscape:current-layer="svg9" />
  <!--Unicode Character 'HENTAIGANA LETTER SE-1' (U+1B052)-->
  <defs
     id="genericDefs" />
  <g
     id="g7"
     transform="matrix(0.47848761,0,0,0.48315548,-18.546284,-68.636998)">
    <g
       id="g5">
      <path
         d="m 108.5625,145.125 h 0.5625 q 4.7812,0 27.5625,10.125 22.5,9 48.375,14.0625 5.0625,3.6563 5.0625,7.3125 0,12.375 -59.625,32.0625 v 0.5625 q 10.125,24.75 20.25,41.0625 h 0.5625 q 28.9687,-20.5313 69.75,-45.5625 1.6875,-3.375 1.6875,-4.5 v -0.5625 q 0,-5.3437 -9,-8.4375 0,-3.0938 3.9375,-5.625 18,4.7812 26.4375,15.1875 2.25,5.0625 2.25,5.625 0,5.625 -20.25,12.375 -31.2188,15.4687 -66.375,39.9375 -2.8125,2.25 -2.8125,2.8125 v 0.5625 q 15.75,19.6875 15.75,21.9375 0,3.9375 -7.3125,5.625 Q 154.6875,286.875 150.1875,279 146.25,271.4062 144.5625,270.5625 106.875,301.2188 106.875,315 v 2.8125 q 0,13.5 33.75,15.75 14.3438,0 33.1875,-4.5 13.5,1.9687 13.5,9 v 1.6875 q -3.375,7.3125 -29.25,7.3125 -3.375,0 -10.125,0.5625 -39.0937,0 -51.1875,-17.4375 -2.25,-7.3125 -2.25,-11.25 0,-21.0937 44.4375,-59.625 Q 126,235.125 116.4375,212.625 h -0.5625 q -18.2812,3.9375 -32.0625,3.9375 -30.375,0 -42.1875,-12.9375 2.25,-5.625 3.9375,-5.625 11.5313,6.1875 27.5625,6.1875 h 8.4375 q 12.9375,0 29.25,-2.8125 v -0.5625 L 99,165.375 q -0.5625,-3.9375 -0.5625,-6.1875 v -0.5625 q 1.6875,-13.5 10.125,-13.5 z m 5.0625,12.9375 v 3.375 q 0,9.2813 11.8125,35.4375 h 1.125 Q 166.5,183.6562 166.5,178.3125 q 0,-2.25 -23.625,-10.125 -23.625,-11.8125 -27.5625,-11.8125 -0.8437,0 -1.6875,1.6875 z"
         id="path3"
         inkscape:connector-curvature="0"
         style="stroke:none" />
    </g>
  </g>
</svg>
