<?xml version="1.0"?>

<!DOCTYPE svg PUBLIC '-//W3C//DTD SVG 1.0//EN' 'http://www.w3.org/TR/2001/REC-SVG-20010904/DTD/svg10.dtd'>
<svg fill-opacity="1" xmlns:xlink="http://www.w3.org/1999/xlink" color-rendering="auto" color-interpolation="auto" text-rendering="auto" stroke="black" stroke-linecap="square" stroke-miterlimit="10" shape-rendering="auto" stroke-opacity="1" fill="black" stroke-dasharray="none" font-weight="normal" stroke-width="1" xmlns="http://www.w3.org/2000/svg" font-family="&apos;Dialog&apos;" font-style="normal" stroke-linejoin="miter" font-size="12" stroke-dashoffset="0" image-rendering="auto">
  <!--Unicode Character 'HENTAIGANA LETTER TU-TO' (U+1B06D)-->
  <defs id="genericDefs" />
  <g>
    <g>
      <path d="M162.5625 137.25 Q190.125 141.4688 190.125 153 L182.8125 179.4375 L183.375 179.4375 Q185.3438 179.4375 207.5625 167.0625 L209.8125 167.0625 Q218.8125 167.9062 218.8125 173.25 L218.8125 174.375 Q218.8125 183.375 176.625 195.1875 L154.6875 244.6875 L155.8125 245.25 Q211.5 233.4375 211.5 228.375 Q215.4375 224.4375 219.9375 224.4375 Q232.3125 228.9375 232.3125 235.125 Q232.3125 237.6562 221.0625 243 Q203.3438 254.25 194.0625 286.3125 Q190.6875 295.0312 190.6875 309.375 Q190.6875 329.9062 219.375 341.4375 Q222.1875 344.5312 222.1875 348.1875 L222.1875 348.75 Q222.1875 355.5 215.4375 355.5 L214.875 355.5 Q198.5625 355.5 185.0625 331.3125 Q180.5625 321.75 180.5625 308.25 L180.5625 306 Q180.5625 280.9688 203.0625 243.5625 L203.0625 243 L202.5 243 Q188.4375 244.4062 145.125 265.5 L143.4375 265.5 Q138.0938 265.5 136.125 253.6875 Q136.6875 251.4375 144.5625 240.1875 Q162 203.3438 162 197.4375 L162 196.875 L161.4375 196.875 Q136.6875 196.875 125.4375 181.6875 L125.4375 181.125 Q127.4062 177.75 128.8125 177.75 Q141.4688 184.5 154.125 184.5 Q167.625 184.5 167.625 180.5625 Q172.125 165.6562 172.125 154.125 Q172.125 148.2188 159.1875 143.4375 L159.1875 142.875 Q160.5938 137.25 162.5625 137.25 ZM66.9375 147.375 Q73.9688 147.375 87.1875 167.625 Q88.3125 170.1562 88.3125 172.6875 Q88.3125 175.2188 74.25 220.5 Q67.5 250.0312 67.5 278.4375 Q67.5 298.4062 72.5625 317.8125 L74.25 317.8125 Q75.0938 309.375 95.625 268.875 Q100.6875 271.9688 100.6875 272.8125 Q85.5 311.3438 85.5 341.4375 Q85.5 347.3438 77.625 348.75 L77.0625 348.75 Q64.4062 348.75 56.8125 298.6875 Q55.6875 295.5938 55.6875 282.9375 L55.6875 268.3125 Q55.6875 241.5938 69.75 178.3125 Q70.3125 174.9375 70.3125 169.875 Q70.3125 159.4688 63.5625 151.3125 L63.5625 150.75 Q63.5625 149.9062 66.9375 147.375 Z" stroke="none" />
    </g>
  </g>
</svg>
