<?xml version="1.0"?>

<!DOCTYPE svg PUBLIC '-//W3C//DTD SVG 1.0//EN' 'http://www.w3.org/TR/2001/REC-SVG-20010904/DTD/svg10.dtd'>
<svg fill-opacity="1" xmlns:xlink="http://www.w3.org/1999/xlink" color-rendering="auto" color-interpolation="auto" text-rendering="auto" stroke="black" stroke-linecap="square" stroke-miterlimit="10" shape-rendering="auto" stroke-opacity="1" fill="black" stroke-dasharray="none" font-weight="normal" stroke-width="1" xmlns="http://www.w3.org/2000/svg" font-family="&apos;Dialog&apos;" font-style="normal" stroke-linejoin="miter" font-size="12" stroke-dashoffset="0" image-rendering="auto">
  <!--Unicode Character 'HENTAIGANA LETTER KU-6' (U+1B030)-->
  <defs id="genericDefs" />
  <g>
    <g>
      <path d="M111.375 138.9375 L111.9375 138.9375 Q132.75 146.5312 132.75 155.8125 Q132.75 161.7188 119.25 194.0625 L119.8125 194.0625 Q152.7188 165.9375 176.0625 165.9375 L177.1875 165.9375 Q201.0938 165.9375 209.25 187.3125 Q210.9375 193.5 210.9375 198 Q210.9375 239.625 170.4375 256.5 Q155.8125 259.0312 155.8125 264.9375 Q150.4688 274.7812 136.6875 294.1875 L136.6875 295.3125 Q137.8125 296.7188 156.375 302.0625 Q158.625 304.5938 158.625 307.125 Q157.7812 311.0625 147.375 316.125 Q141.75 322.3125 141.75 329.0625 Q141.75 336.6562 166.5 338.0625 L188.4375 338.0625 Q198.2812 338.0625 200.25 344.25 Q196.875 353.8125 185.625 353.8125 L182.25 353.8125 Q150.4688 353.8125 131.625 338.0625 Q129.375 333.8438 129.375 331.3125 Q129.375 323.1562 142.3125 311.0625 L142.3125 310.5 Q142.3125 309.6562 128.8125 306 Q126 303.1875 126 299.8125 L126 299.25 Q126 296.7188 135.5625 281.25 Q143.4375 265.7812 143.4375 262.125 L143.4375 261.5625 Q119.8125 258.75 119.8125 249.75 L119.8125 248.625 Q119.8125 235.125 144.5625 219.375 Q148.5 217.6875 150.75 217.6875 L151.3125 217.6875 Q157.5 217.6875 160.3125 224.4375 Q163.125 231.4688 163.125 239.0625 Q163.125 240.1875 161.4375 250.875 L162 250.875 Q171.2812 250.875 185.0625 232.875 Q191.8125 220.5 191.8125 207.5625 L191.8125 198 Q191.8125 174.9375 171.5625 174.9375 Q144 174.9375 105.75 219.9375 Q102.0938 223.875 93.9375 244.6875 Q85.7812 254.25 81.5625 254.25 Q77.3438 254.25 77.0625 246.375 Q77.0625 229.5 95.625 214.3125 Q111.375 191.25 118.6875 162.5625 Q119.25 162.5625 119.25 158.625 L119.25 156.9375 Q119.25 149.9062 108 143.4375 Q110.5312 138.9375 111.375 138.9375 ZM133.3125 245.8125 L133.3125 249.75 Q135.8438 253.6875 140.625 253.6875 L147.375 253.6875 Q150.75 243.5625 150.75 232.3125 Q150.1875 226.6875 148.5 226.6875 Q140.0625 229.7812 133.875 242.4375 L133.3125 245.8125 Z" stroke="none" />
    </g>
  </g>
</svg>
