<?xml version="1.0" encoding="UTF-8" standalone="no"?>
<svg
   xmlns:dc="http://purl.org/dc/elements/1.1/"
   xmlns:cc="http://creativecommons.org/ns#"
   xmlns:rdf="http://www.w3.org/1999/02/22-rdf-syntax-ns#"
   xmlns:svg="http://www.w3.org/2000/svg"
   xmlns="http://www.w3.org/2000/svg"
   xmlns:sodipodi="http://sodipodi.sourceforge.net/DTD/sodipodi-0.dtd"
   xmlns:inkscape="http://www.inkscape.org/namespaces/inkscape"
   fill-opacity="1"
   color-rendering="auto"
   color-interpolation="auto"
   text-rendering="auto"
   stroke="black"
   stroke-linecap="square"
   stroke-miterlimit="10"
   shape-rendering="auto"
   stroke-opacity="1"
   fill="black"
   stroke-dasharray="none"
   font-weight="normal"
   stroke-width="1"
   font-family="'Dialog'"
   font-style="normal"
   stroke-linejoin="miter"
   font-size="12"
   stroke-dashoffset="0"
   image-rendering="auto"
   version="1.1"
   id="svg9"
   sodipodi:docname="hentaigana_letter_ta1.svg"
   inkscape:version="0.92.4 (5da689c313, 2019-01-14)"
   width="100%"
   height="100%"
   viewBox="0 0 100 100"
   preserveAspectRatio="xMidYMid meet"
   >
  <metadata
     id="metadata13">
    <rdf:RDF>
      <cc:Work
         rdf:about="">
        <dc:format>image/svg+xml</dc:format>
        <dc:type
           rdf:resource="http://purl.org/dc/dcmitype/StillImage" />
      </cc:Work>
    </rdf:RDF>
  </metadata>
  <sodipodi:namedview
     pagecolor="#ffffff"
     bordercolor="#666666"
     borderopacity="1"
     objecttolerance="10"
     gridtolerance="10"
     guidetolerance="10"
     inkscape:pageopacity="0"
     inkscape:pageshadow="2"
     inkscape:window-width="1920"
     inkscape:window-height="986"
     id="namedview11"
     showgrid="false"
     inkscape:zoom="2.36"
     inkscape:cx="50"
     inkscape:cy="50"
     inkscape:window-x="-11"
     inkscape:window-y="-11"
     inkscape:window-maximized="1"
     inkscape:current-layer="svg9" />
  <!--Unicode Character 'HENTAIGANA LETTER TA-1' (U+1B05E)-->
  <defs
     id="genericDefs" />
  <g
     id="g7"
     transform="matrix(0.39779484,0,0,0.43596519,-6.2909374,-57.434226)">
    <g
       id="g5">
      <path
         d="m 132.4688,133.3125 q 22.5,2.5313 22.5,14.625 0.5624,3.375 0.5624,7.875 v 14.625 q 0,29.8125 -12.375,29.8125 h -0.5624 q -1.4063,-0.2812 -6.1876,-7.3125 l -18,-9 Q 118.6875,180 119.5312,180 q 9.5626,2.25 19.6876,3.9375 1.6874,-3.375 1.6874,-11.8125 v -22.5 q 0,-8.1562 -12.375,-11.25 v -1.125 q 1.6876,-3.9375 3.9376,-3.9375 z M 192.6562,148.5 h 2.25 q 16.875,1.6875 16.875,11.8125 v 0.5625 q 0,14.9062 -52.875,40.5 v 0.5625 h 1.6876 q 34.3124,-9.5625 51.1874,-9.5625 h 3.375 q 21.9376,0 27,19.125 0,17.1562 -36,20.8125 -51.75,11.5313 -51.75,22.5 -1.6874,4.5 -1.6874,15.75 V 279 q 0,1.4062 5.625,9 3.375,5.9062 3.375,12.375 0,17.4375 -34.875,32.0625 -9,4.7813 -9,8.4375 0,4.5 28.6874,4.5 h 2.8126 q 14.0624,0 34.875,-6.75 l 3.375,-0.5625 q 9,1.9687 9,6.75 0,10.6875 -42.1876,14.0625 -1.9687,0 -11.8124,0.5625 -38.8126,0 -38.8126,-15.1875 0,-6.75 22.5,-20.8125 l 0.5626,-1.125 V 321.75 q -7.0313,0 -18.5626,-16.3125 -3.375,-8.1563 -3.375,-12.375 0,-14.9063 21.375,-17.4375 9.8438,1.125 14.0626,1.125 0,-27.8438 14.625,-36 19.9687,-9 63.5624,-20.8125 4.5,-3.375 4.5,-7.875 0,-10.125 -15.1874,-10.125 h -1.125 q -50.0626,0 -137.25,43.3125 -8.4376,7.3125 -14.625,7.3125 -9,-2.5313 -9,-12.375 0,-10.125 9.5624,-24.1875 3.375,1.125 5.0626,2.25 -1.125,4.5 -1.125,9.5625 0,0.8437 2.25,2.25 h 1.6874 q 13.7813,-2.8125 75.9376,-23.625 51.75,-28.4063 51.75,-40.5 V 162 q -2.8126,-5.0625 -8.4376,-5.0625 h -6.1874 q -1.6876,-3.9375 -1.6876,-5.0625 10.6876,-3.375 18,-3.375 z m -99,12.375 h 1.125 l 2.8126,0.5625 v 1.125 q -1.6876,5.3437 -1.6876,9.5625 v 2.25 q 0,1.6875 2.25,1.6875 2.25,0 23.0626,-7.3125 h 1.125 v 1.6875 l -30.9376,24.75 h -1.125 q -5.625,0 -5.625,-10.125 v -1.6875 q 0,-10.4062 9,-22.5 z m 22.5,133.875 v 3.9375 q 3.375,15.1875 14.625,15.1875 h 0.5626 q 9,0 9,-11.8125 v -3.375 q 0,-11.25 -11.25,-11.25 h -1.6876 q -11.25,0.8437 -11.25,7.3125 z"
         id="path3"
         inkscape:connector-curvature="0"
         style="stroke:none" />
    </g>
  </g>
</svg>
