<?xml version="1.0"?>

<!DOCTYPE svg PUBLIC '-//W3C//DTD SVG 1.0//EN' 'http://www.w3.org/TR/2001/REC-SVG-20010904/DTD/svg10.dtd'>
<svg fill-opacity="1" xmlns:xlink="http://www.w3.org/1999/xlink" color-rendering="auto" color-interpolation="auto" text-rendering="auto" stroke="black" stroke-linecap="square" stroke-miterlimit="10" shape-rendering="auto" stroke-opacity="1" fill="black" stroke-dasharray="none" font-weight="normal" stroke-width="1" xmlns="http://www.w3.org/2000/svg" font-family="&apos;Dialog&apos;" font-style="normal" stroke-linejoin="miter" font-size="12" stroke-dashoffset="0" image-rendering="auto">
  <!--Unicode Character 'HENTAIGANA LETTER KO-KI' (U+1B03B)-->
  <defs id="genericDefs" />
  <g>
    <g>
      <path d="M81.8438 144 Q82.6875 144.8438 88.0312 156.375 Q103.5 171.5625 116.7188 171.5625 Q127.4062 176.3438 127.4062 186.1875 Q125.7188 191.25 113.3438 191.25 Q105.75 191.25 79.0312 203.0625 L78.4688 203.0625 Q78.4688 201.9375 76.2188 199.125 L76.2188 198.5625 Q95.9062 186.1875 95.9062 183.375 L95.9062 182.8125 Q95.9062 181.6875 86.9062 174.375 Q76.7812 162 76.7812 145.6875 Q80.4375 144 81.8438 144 ZM195.4688 154.6875 Q205.5938 155.8125 205.5938 164.8125 Q206.1562 164.8125 206.1562 165.375 Q206.1562 176.625 192.0938 215.4375 L192.0938 216 Q209.8125 211.5 216.8438 211.5 Q238.5 211.5 247.2188 228.9375 Q250.5938 236.8125 250.5938 244.6875 Q250.5938 275.9062 201.6562 316.125 Q192.6562 325.4062 192.6562 328.5 L192.6562 329.0625 Q192.6562 334.6875 207.2812 334.6875 Q216.2812 334.6875 229.2188 331.3125 Q236.25 331.3125 239.9062 340.3125 Q239.9062 347.625 220.2188 347.625 Q220.2188 348.1875 210.0938 348.75 Q188.4375 348.75 181.4062 337.5 Q180.2812 334.9688 180.2812 332.4375 Q180.2812 327.6562 204.4688 304.3125 Q231.4688 277.0312 231.4688 245.8125 L231.4688 245.25 Q231.4688 227.5312 224.1562 222.75 Q220.2188 220.5 214.0312 220.5 L210.6562 220.5 Q200.5312 220.5 181.9688 232.3125 Q179.4375 232.3125 176.9062 225 Q188.1562 202.7812 188.1562 177.1875 L188.1562 171.5625 Q188.1562 170.7188 185.9062 169.3125 L182.5312 169.3125 Q178.3125 169.3125 168.4688 180.5625 Q165.0938 178.5938 165.0938 177.75 L165.0938 177.1875 Q180.8438 154.6875 195.4688 154.6875 ZM106.5938 227.25 Q110.5312 227.25 121.7812 238.5 L121.7812 241.3125 Q118.125 246.6562 100.9688 257.0625 Q95.9062 279.8438 95.9062 302.625 L95.9062 305.4375 Q96.1875 306.5625 97.0312 306.5625 Q99.5625 305.1562 108.2812 286.3125 Q120.9375 262.6875 123.4688 262.125 Q126 263.8125 126.8438 263.8125 L126.8438 264.375 Q103.7812 310.7812 102.0938 329.625 Q100.125 339.75 93.0938 339.75 Q83.8125 339.75 80.7188 318.375 L80.7188 311.625 Q80.7188 296.7188 84.0938 264.375 L83.5312 264.375 Q70.5938 267.1875 61.5938 267.1875 Q43.0312 267.1875 38.5312 255.375 Q37.4062 251.1562 37.4062 249.75 Q37.4062 242.7188 44.7188 236.8125 L45.2812 236.8125 Q49.2188 237.0938 49.2188 237.9375 Q47.5312 243 47.5312 244.6875 Q47.5312 251.4375 58.2188 253.125 L67.2188 253.125 Q88.875 253.125 91.9688 240.1875 Q101.5312 227.25 106.5938 227.25 Z" stroke="none" />
    </g>
  </g>
</svg>
