<?xml version="1.0"?>

<!DOCTYPE svg PUBLIC '-//W3C//DTD SVG 1.0//EN' 'http://www.w3.org/TR/2001/REC-SVG-20010904/DTD/svg10.dtd'>
<svg fill-opacity="1" xmlns:xlink="http://www.w3.org/1999/xlink" color-rendering="auto" color-interpolation="auto" text-rendering="auto" stroke="black" stroke-linecap="square" stroke-miterlimit="10" shape-rendering="auto" stroke-opacity="1" fill="black" stroke-dasharray="none" font-weight="normal" stroke-width="1" xmlns="http://www.w3.org/2000/svg" font-family="&apos;Dialog&apos;" font-style="normal" stroke-linejoin="miter" font-size="12" stroke-dashoffset="0" image-rendering="auto">
  <!--Unicode Character 'HENTAIGANA LETTER SO-6' (U+1B05C)-->
  <defs id="genericDefs" />
  <g>
    <g>
      <path d="M176.625 130.2188 L177.1875 130.2188 Q192.375 131.9062 192.375 143.7188 L192.375 144.8438 Q192.375 158.9062 151.3125 175.7812 Q136.6875 183.375 101.25 198.8438 L101.25 199.4062 L102.9375 199.4062 Q121.7812 199.4062 194.625 179.7188 Q215.4375 170.7188 219.9375 170.7188 Q233.4375 172.9688 233.4375 178.0312 Q233.4375 187.0312 201.375 191.5312 Q173.25 198.2812 113.625 210.0938 Q89.4375 223.875 89.4375 255.6562 L89.4375 259.5938 L88.875 265.2188 L90 265.2188 Q138.9375 222.4688 174.375 209.5312 L186.75 207.2812 Q200.8125 208.9688 200.8125 219.6562 Q202.5 219.6562 202.5 235.9688 L202.5 239.9062 Q217.125 242.1562 217.125 252.2812 Q217.125 259.0312 203.0625 273.6562 L203.0625 305.7188 Q203.625 306.8438 228.9375 315.8438 Q245.8125 323.1562 245.8125 332.1562 Q243.5625 339.4688 239.0625 339.4688 Q235.6875 338.9062 217.125 325.9688 L204.75 319.2188 L203.0625 319.2188 Q204.1875 338.3438 204.1875 340.5938 Q204.1875 352.125 192.9375 361.9688 Q191.8125 362.5312 191.25 362.5312 Q187.3125 362.5312 171 345.6562 L133.875 314.1562 Q129.375 308.8125 128.8125 301.2188 Q128.8125 267.75 189.5625 242.7188 Q190.125 241.5938 190.125 241.0312 Q190.125 215.7188 186.75 215.7188 Q183.6562 215.1562 182.25 215.1562 Q158.0625 216.8438 102.9375 266.3438 Q89.4375 280.4062 89.4375 283.2188 L89.4375 286.5938 Q89.4375 307.125 90.5625 332.7188 L91.125 333.8438 Q86.9062 352.9688 79.3125 352.9688 Q76.2188 352.9688 52.3125 329.3438 Q42.1875 322.875 42.1875 318.0938 Q44.7188 305.1562 76.5 274.7812 Q77.0625 273.6562 77.0625 272.5312 L77.0625 263.5312 Q77.0625 231.1875 97.3125 214.0312 L97.3125 212.9062 L88.3125 213.4688 Q66.9375 213.4688 54 190.9688 L54 190.4062 Q56.25 187.0312 58.5 187.0312 Q71.4375 198.2812 79.3125 198.2812 L84.9375 198.2812 Q97.3125 198.2812 167.0625 157.2188 Q173.8125 151.875 173.8125 146.5312 L173.8125 145.4062 Q172.9688 139.7812 168.1875 139.7812 Q154.6875 139.7812 101.8125 175.2188 Q101.25 175.2188 97.3125 175.7812 Q85.5 172.125 85.5 158.9062 L85.5 156.6562 Q85.5 147.0938 92.25 136.4062 Q96.4688 136.9688 96.75 138.6562 Q95.0625 146.25 95.0625 149.3438 L95.0625 149.9062 Q95.9062 157.2188 100.6875 157.2188 L106.875 157.2188 Q109.9688 157.2188 159.75 134.1562 Q171 130.2188 176.625 130.2188 ZM140.0625 298.4062 Q140.0625 312.1875 153 318.6562 Q182.25 338.9062 186.1875 338.9062 L188.4375 338.9062 Q190.125 338.625 190.125 334.4062 L190.125 319.2188 Q190.125 312.1875 183.9375 310.2188 Q161.4375 302.9062 161.4375 296.1562 Q161.4375 289.4062 190.125 266.3438 L190.125 252.2812 Q140.0625 273.9375 140.0625 298.4062 ZM172.6875 295.0312 Q172.6875 297.5625 189.5625 301.7812 L189.5625 301.2188 Q189.5625 296.7188 190.125 280.9688 L189 280.9688 Q172.6875 291.6562 172.6875 295.0312 ZM56.25 323.1562 Q56.25 327.0938 73.6875 336.6562 L75.375 336.6562 Q77.0625 334.6875 77.0625 332.7188 L77.0625 293.9062 L75.9375 293.9062 Q57.375 313.0312 56.25 323.1562 Z" stroke="none" />
    </g>
  </g>
</svg>
