<?xml version="1.0"?>

<!DOCTYPE svg PUBLIC '-//W3C//DTD SVG 1.0//EN' 'http://www.w3.org/TR/2001/REC-SVG-20010904/DTD/svg10.dtd'>
<svg fill-opacity="1" xmlns:xlink="http://www.w3.org/1999/xlink" color-rendering="auto" color-interpolation="auto" text-rendering="auto" stroke="black" stroke-linecap="square" stroke-miterlimit="10" shape-rendering="auto" stroke-opacity="1" fill="black" stroke-dasharray="none" font-weight="normal" stroke-width="1" xmlns="http://www.w3.org/2000/svg" font-family="&apos;Dialog&apos;" font-style="normal" stroke-linejoin="miter" font-size="12" stroke-dashoffset="0" image-rendering="auto">
  <!--Unicode Character 'HENTAIGANA LETTER NA-3' (U+1B080)-->
  <defs id="genericDefs" />
  <g>
    <g>
      <path d="M160.875 133.0312 Q166.2188 133.0312 180 148.2188 Q196.875 156.9375 198.5625 158.9062 Q199.125 162 199.125 163.4062 Q199.125 177.1875 155.25 188.7188 Q135 191.5312 121.5 191.5312 Q91.6875 231.4688 58.5 288.8438 Q54.8438 291.375 54 291.6562 Q49.2188 291.6562 46.6875 278.7188 Q48.9375 270.8438 86.625 219.6562 Q89.7188 214.3125 105.75 191.5312 L105.75 189.8438 Q89.7188 189.8438 74.8125 171.2812 L74.8125 170.7188 Q75.6562 170.7188 78.1875 167.3438 Q91.125 176.9062 111.9375 176.9062 L112.5 176.9062 Q115.5938 176.9062 122.625 166.2188 Q151.0312 133.0312 160.875 133.0312 ZM130.5 178.0312 L131.0625 178.0312 Q169.0312 178.0312 183.9375 163.9688 L183.9375 161.7188 Q166.7812 143.1562 165.9375 143.1562 L163.6875 143.1562 Q156.6562 143.1562 130.5 176.9062 L130.5 178.0312 ZM167.625 206.1562 Q194.625 206.1562 216.5625 221.3438 Q221.625 226.6875 221.625 230.9062 Q221.625 237.375 210.9375 238.2188 Q197.7188 234.8438 192.375 234.8438 L191.8125 234.8438 Q176.0625 234.8438 146.8125 250.0312 L146.25 252.8438 L146.25 253.9688 Q149.625 257.625 165.375 265.2188 Q168.75 268.5938 168.75 272.5312 Q168.75 279.2812 150.1875 282.0938 L147.375 285.4688 L147.375 286.5938 L155.8125 303.4688 Q159.75 317.8125 159.75 328.2188 Q159.75 352.125 143.4375 359.7188 L142.3125 359.7188 Q137.8125 359.7188 133.875 351.2812 Q114.75 340.5938 101.25 330.4688 L100.125 330.4688 Q73.9688 350.7188 65.8125 350.7188 Q53.4375 350.7188 51.1875 332.7188 Q51.1875 319.7812 75.375 304.5938 L76.5 304.5938 Q78.1875 308.5312 78.1875 309.6562 Q67.5 316.6875 67.5 327.0938 L67.5 327.6562 Q67.5 330.75 69.75 331.5938 L71.4375 331.5938 Q79.5938 331.5938 118.6875 307.4062 L119.8125 307.4062 Q121.5 310.7812 121.5 311.3438 Q105.75 325.6875 105.75 326.5312 Q113.9062 333 133.875 338.9062 L138.375 338.9062 Q145.125 338.9062 145.125 322.0312 L145.125 320.3438 Q145.125 305.7188 138.375 288.8438 L138.375 287.7188 Q138.375 283.2188 148.5 275.3438 L148.5 273.6562 Q148.5 271.6875 136.6875 261.2812 L135 256.2188 Q135 244.9688 185.0625 224.1562 L185.0625 223.0312 Q176.9062 215.7188 162.5625 215.7188 L145.125 215.7188 Q143.7188 215.7188 142.875 210.6562 Q142.875 208.4062 167.625 206.1562 ZM201.375 302.9062 L203.625 302.9062 Q229.7812 302.9062 240.75 325.4062 Q240.75 326.8125 241.3125 329.9062 Q239.3438 341.7188 231.75 341.7188 Q226.125 341.7188 219.375 325.9688 Q206.7188 309.0938 189.5625 309.0938 Q188.4375 306.2812 188.4375 305.1562 Q191.5312 302.9062 201.375 302.9062 Z" stroke="none" />
    </g>
  </g>
</svg>
