<?xml version="1.0"?>

<!DOCTYPE svg PUBLIC '-//W3C//DTD SVG 1.0//EN' 'http://www.w3.org/TR/2001/REC-SVG-20010904/DTD/svg10.dtd'>
<svg fill-opacity="1" xmlns:xlink="http://www.w3.org/1999/xlink" color-rendering="auto" color-interpolation="auto" text-rendering="auto" stroke="black" stroke-linecap="square" stroke-miterlimit="10" shape-rendering="auto" stroke-opacity="1" fill="black" stroke-dasharray="none" font-weight="normal" stroke-width="1" xmlns="http://www.w3.org/2000/svg" font-family="&apos;Dialog&apos;" font-style="normal" stroke-linejoin="miter" font-size="12" stroke-dashoffset="0" image-rendering="auto">
  <!--Unicode Character 'HENTAIGANA LETTER HO-7' (U+1B0C0)-->
  <defs id="genericDefs" />
  <g>
    <g>
      <path d="M129.6562 138.6562 Q140.9062 138.6562 143.7188 154.4062 Q143.7188 171.8438 103.2188 181.9688 Q71.1562 240.75 71.1562 255.6562 Q71.1562 259.0312 74.5312 260.7188 L77.9062 260.7188 Q93.0938 260.7188 134.7188 243.8438 Q140.3438 208.9688 151.0312 208.9688 Q154.125 208.9688 171.8438 229.7812 L171.8438 230.9062 Q170.7188 238.5 147.0938 250.5938 Q145.9688 276.4688 145.9688 300.6562 L145.9688 324.8438 Q145.9688 332.1562 146.5312 343.9688 Q144.5625 354.0938 139.2188 354.0938 Q131.625 354.0938 130.2188 341.7188 L130.2188 333.2812 Q130.2188 298.6875 133.5938 257.3438 L133.0312 257.3438 Q83.25 277.0312 68.9062 277.0312 Q53.7188 277.0312 53.7188 262.9688 Q55.125 239.9062 88.5938 184.2188 L88.5938 182.5312 Q67.5 182.5312 45.2812 161.7188 Q44.7188 159.75 44.7188 159.4688 L49.2188 155.5312 Q67.7812 169.0312 85.7812 169.0312 L97.5938 169.0312 Q110.25 152.4375 120.0938 142.0312 Q126.8438 138.6562 129.6562 138.6562 ZM113.3438 166.2188 L114.4688 166.7812 Q130.7812 161.7188 130.7812 153.8438 L130.7812 152.7188 Q130.7812 147.6562 127.9688 147.6562 Q122.9062 147.6562 113.3438 166.2188 ZM192.0938 193.7812 Q212.9062 201.6562 230.9062 218.5312 Q242.7188 231.75 243.2812 243.2812 Q241.875 253.9688 234.8438 253.9688 Q228.375 253.9688 221.9062 233.7188 Q208.125 209.8125 187.5938 200.5312 L187.5938 198.8438 Q190.4062 193.7812 192.0938 193.7812 ZM148.2188 236.5312 L148.7812 236.5312 Q152.7188 236.5312 157.7812 229.7812 L157.7812 228.6562 Q157.7812 225.2812 152.7188 221.3438 Q149.625 221.3438 148.2188 236.5312 Z" stroke="none" />
    </g>
  </g>
</svg>
