<?xml version="1.0"?>

<!DOCTYPE svg PUBLIC '-//W3C//DTD SVG 1.0//EN' 'http://www.w3.org/TR/2001/REC-SVG-20010904/DTD/svg10.dtd'>
<svg fill-opacity="1" xmlns:xlink="http://www.w3.org/1999/xlink" color-rendering="auto" color-interpolation="auto" text-rendering="auto" stroke="black" stroke-linecap="square" stroke-miterlimit="10" shape-rendering="auto" stroke-opacity="1" fill="black" stroke-dasharray="none" font-weight="normal" stroke-width="1" xmlns="http://www.w3.org/2000/svg" font-family="&apos;Dialog&apos;" font-style="normal" stroke-linejoin="miter" font-size="12" stroke-dashoffset="0" image-rendering="auto">
  <!--Unicode Character 'HENTAIGANA LETTER KA-3' (U+1B019)-->
  <defs id="genericDefs" />
  <g>
    <g>
      <path d="M99.2812 134.1562 Q131.0625 165.0938 172.9688 165.0938 L178.0312 165.0938 Q189.5625 165.0938 194.3438 173.5312 L194.3438 175.7812 Q192.9375 182.5312 183.0938 182.5312 Q140.3438 182.5312 106.5938 152.7188 Q97.3125 143.7188 94.7812 139.2188 L94.7812 138.6562 Q94.7812 137.8125 99.2812 134.1562 ZM172.9688 223.5938 L173.5312 223.5938 Q207.5625 223.5938 220.2188 252.8438 Q222.4688 261.8438 222.4688 265.7812 L222.4688 269.7188 Q222.4688 316.4062 149.9062 352.9688 Q137.8125 358.5938 135.2812 358.5938 Q131.3438 354.9375 131.3438 351.8438 Q179.7188 330.1875 197.1562 299.5312 Q204.4688 282.375 204.4688 271.9688 L204.4688 262.9688 Q204.4688 240.4688 179.7188 233.1562 Q174.9375 232.5938 171.2812 232.5938 L166.2188 232.5938 Q139.7812 232.5938 139.7812 237.6562 Q139.7812 252.8438 125.7188 277.0312 Q102.9375 305.1562 87.4688 305.1562 Q81.8438 305.1562 69.4688 283.2188 Q65.5312 279.2812 65.5312 273.0938 L65.5312 272.5312 Q65.5312 255.6562 118.4062 232.5938 Q144.2812 223.5938 172.9688 223.5938 ZM81.8438 276.4688 L81.8438 280.9688 Q82.6875 289.4062 90.2812 289.4062 Q102.9375 289.4062 122.9062 259.0312 Q129.6562 243.5625 129.6562 239.9062 L129.6562 238.7812 Q81.8438 256.7812 81.8438 276.4688 Z" stroke="none" />
    </g>
  </g>
</svg>
