<?xml version="1.0"?>

<!DOCTYPE svg PUBLIC '-//W3C//DTD SVG 1.0//EN' 'http://www.w3.org/TR/2001/REC-SVG-20010904/DTD/svg10.dtd'>
<svg fill-opacity="1" xmlns:xlink="http://www.w3.org/1999/xlink" color-rendering="auto" color-interpolation="auto" text-rendering="auto" stroke="black" stroke-linecap="square" stroke-miterlimit="10" shape-rendering="auto" stroke-opacity="1" fill="black" stroke-dasharray="none" font-weight="normal" stroke-width="1" xmlns="http://www.w3.org/2000/svg" font-family="&apos;Dialog&apos;" font-style="normal" stroke-linejoin="miter" font-size="12" stroke-dashoffset="0" image-rendering="auto">
  <!--Unicode Character 'HENTAIGANA LETTER KE-2' (U+1B033)-->
  <defs id="genericDefs" />
  <g>
    <g>
      <path d="M121.7812 140.625 L122.9062 140.625 Q148.7812 149.625 148.7812 162.5625 Q148.7812 166.7812 126.8438 208.6875 Q126.5625 208.9688 119.5312 220.5 L120.0938 220.5 Q157.2188 190.6875 187.5938 186.75 L189.2812 186.75 Q211.7812 186.75 225.8438 205.875 Q228.0938 210.375 229.2188 217.125 Q229.2188 233.7188 197.1562 266.0625 L172.4062 293.0625 L172.4062 294.1875 L172.9688 294.1875 Q185.0625 291.9375 190.9688 291.9375 L194.9062 291.9375 Q214.3125 291.9375 221.9062 306 L223.0312 311.625 Q223.0312 333 161.1562 351.5625 Q160.3125 352.125 158.3438 352.125 L157.7812 352.125 Q157.7812 351.2812 153.8438 345.9375 Q154.9688 344.8125 177.4688 336.375 Q203.9062 323.1562 203.9062 311.0625 L203.9062 310.5 Q203.9062 302.625 193.7812 302.625 Q174.0938 302.625 153.8438 314.4375 L153.2812 314.4375 Q149.3438 314.4375 148.2188 303.1875 Q148.2188 300.375 163.4062 288.5625 Q207.8438 237.9375 208.4062 225 Q209.5312 220.2188 209.5312 216.5625 Q209.5312 202.5 194.3438 197.4375 Q189.8438 196.3125 187.0312 196.3125 Q155.25 196.3125 100.4062 255.9375 Q86.0625 272.8125 72.2812 294.75 Q67.5 299.5312 64.9688 299.8125 Q58.7812 298.125 58.7812 288.5625 L58.7812 286.875 Q58.7812 278.4375 70.5938 269.4375 Q95.625 241.5938 106.5938 221.625 Q130.7812 172.9688 130.7812 160.875 Q130.7812 151.5938 118.4062 146.25 Q121.2188 142.0312 121.7812 140.625 Z" stroke="none" />
    </g>
  </g>
</svg>
