<?xml version="1.0" encoding="UTF-8" standalone="no"?>
<svg
   xmlns:dc="http://purl.org/dc/elements/1.1/"
   xmlns:cc="http://creativecommons.org/ns#"
   xmlns:rdf="http://www.w3.org/1999/02/22-rdf-syntax-ns#"
   xmlns:svg="http://www.w3.org/2000/svg"
   xmlns="http://www.w3.org/2000/svg"
   xmlns:sodipodi="http://sodipodi.sourceforge.net/DTD/sodipodi-0.dtd"
   xmlns:inkscape="http://www.inkscape.org/namespaces/inkscape"
   fill-opacity="1"
   color-rendering="auto"
   color-interpolation="auto"
   text-rendering="auto"
   stroke="black"
   stroke-linecap="square"
   stroke-miterlimit="10"
   shape-rendering="auto"
   stroke-opacity="1"
   fill="black"
   stroke-dasharray="none"
   font-weight="normal"
   stroke-width="1"
   font-family="'Dialog'"
   font-style="normal"
   stroke-linejoin="miter"
   font-size="12"
   stroke-dashoffset="0"
   image-rendering="auto"
   version="1.1"
   id="svg9"
   sodipodi:docname="hentaigana_letter_ma1.svg"
   inkscape:version="0.92.4 (5da689c313, 2019-01-14)"
   width="100%"
   height="100%"
   viewBox="0 0 100 100"
   preserveAspectRatio="xMidYMid meet"
   >
  <metadata
     id="metadata13">
    <rdf:RDF>
      <cc:Work
         rdf:about="">
        <dc:format>image/svg+xml</dc:format>
        <dc:type
           rdf:resource="http://purl.org/dc/dcmitype/StillImage" />
      </cc:Work>
    </rdf:RDF>
  </metadata>
  <sodipodi:namedview
     pagecolor="#ffffff"
     bordercolor="#666666"
     borderopacity="1"
     objecttolerance="10"
     gridtolerance="10"
     guidetolerance="10"
     inkscape:pageopacity="0"
     inkscape:pageshadow="2"
     inkscape:window-width="1920"
     inkscape:window-height="986"
     id="namedview11"
     showgrid="false"
     inkscape:zoom="2.36"
     inkscape:cx="50"
     inkscape:cy="50"
     inkscape:window-x="-11"
     inkscape:window-y="-11"
     inkscape:window-maximized="1"
     inkscape:current-layer="svg9" />
  <!--Unicode Character 'HENTAIGANA LETTER MA-1' (U+1B0C2)-->
  <defs
     id="genericDefs" />
  <g
     id="g7"
     transform="matrix(0.53211449,0,0,0.56814345,-26.268555,-90.211517)">
    <g
       id="g5">
      <path
         d="m 58.5,160.0312 q 13.7812,16.875 34.875,16.875 25.0312,0 121.5,-15.1874 h 1.6875 q 15.4687,0 18,10.125 0,6.1874 -16.3125,8.4374 -32.9062,15.1876 -40.5,37.6876 v 1.6874 q 0,3.6563 20.25,18 14.625,14.3438 14.625,32.0626 v 4.5 q 0,28.4062 -32.625,41.0624 -9.2812,2.25 -16.875,2.25 -28.125,0 -48.9375,-31.5 -29.5313,33.75 -43.3125,42.1876 -0.8438,0 -7.3125,4.5 h -1.125 q -5.0625,-3.6563 -5.625,-5.0626 v -0.5624 q 46.4063,-34.0313 65.25,-86.625 2.25,-7.875 2.25,-9 v -5.0626 q 0,-5.0624 -6.75,-5.625 h -3.9375 q -1.125,0 -1.125,-1.6874 1.4062,-5.625 2.8125,-5.625 h 7.3125 q 19.125,1.9687 19.125,14.0624 v 1.6876 q -2.8125,17.4374 -21.9375,47.8124 v 2.25 q 16.3125,25.3126 39.9375,25.3126 h 6.75 q 19.4062,0 27,-24.75 0.5625,-1.9688 0.5625,-5.0626 v -5.0624 q 0,-21.375 -22.5,-42.1876 -3.375,-5.9062 -3.375,-11.25 0,-12.6562 32.625,-40.5 v -0.5624 H 200.25 q -19.9688,0 -106.875,18 H 87.75 q -17.4375,0 -34.3125,-29.25 z"
         id="path3"
         inkscape:connector-curvature="0"
         style="stroke:none" />
    </g>
  </g>
</svg>
