<?xml version="1.0"?>

<!DOCTYPE svg PUBLIC '-//W3C//DTD SVG 1.0//EN' 'http://www.w3.org/TR/2001/REC-SVG-20010904/DTD/svg10.dtd'>
<svg fill-opacity="1" xmlns:xlink="http://www.w3.org/1999/xlink" color-rendering="auto" color-interpolation="auto" text-rendering="auto" stroke="black" stroke-linecap="square" stroke-miterlimit="10" shape-rendering="auto" stroke-opacity="1" fill="blackzz" stroke-dasharray="none" font-weight="normal" stroke-width="1" xmlns="http://www.w3.org/2000/svg" font-family="&apos;Dialog&apos;" font-style="normal" stroke-linejoin="miter" font-size="12" stroke-dashoffset="0" image-rendering="auto">
  <!--Unicode Character 'HENTAIGANA LETTER I-1' (U+1B006)-->
  <defs id="genericDefs" />
  <g>
    <g>
      <path d="M196.3125 156.9375 Q209.8125 156.9375 213.1875 174.9375 Q213.1875 195.75 204.75 256.5 Q205.5938 258.75 206.4375 258.75 L216 258.75 Q241.0312 258.75 248.0625 275.0625 Q249.1875 277.3125 249.1875 281.25 L249.1875 281.8125 Q249.1875 313.875 146.8125 335.8125 Q144.2812 335.8125 142.875 328.5 Q231.1875 303.1875 231.1875 282.375 L231.1875 278.4375 Q229.5 267.1875 219.375 267.1875 L214.3125 267.1875 Q208.4062 267.1875 195.1875 273.375 Q187.875 270.8438 187.875 263.25 Q196.875 208.4062 196.875 181.6875 L196.875 172.6875 Q196.875 169.3125 193.5 167.625 L190.6875 167.625 Q170.1562 167.625 133.875 234 Q114.75 269.4375 114.75 283.5 Q114.75 293.0625 105.1875 293.0625 Q95.9062 293.0625 83.25 261 Q81.8438 252.5625 79.875 252.5625 L79.3125 252.5625 Q67.7812 262.4062 59.625 280.125 Q55.9688 284.0625 51.75 284.0625 Q42.75 284.0625 38.8125 263.8125 L39.375 262.6875 L39.375 262.125 Q39.375 236.8125 63.5625 211.5 Q68.0625 213.75 68.0625 215.4375 Q54.5625 235.4062 54.5625 251.4375 L54.5625 258.1875 Q54.8438 261.5625 56.25 261.5625 L57.375 261.5625 Q75.0938 241.875 83.25 240.75 Q90.8438 240.75 97.3125 259.875 Q102.9375 266.9062 103.5 267.1875 Q105.4688 267.1875 116.4375 242.4375 Q130.7812 214.0312 156.9375 182.8125 Q181.6875 156.9375 196.3125 156.9375 Z" stroke="none" />
    </g>
  </g>
</svg>
