<?xml version="1.0" encoding="UTF-8" standalone="no"?>
<svg
   xmlns:dc="http://purl.org/dc/elements/1.1/"
   xmlns:cc="http://creativecommons.org/ns#"
   xmlns:rdf="http://www.w3.org/1999/02/22-rdf-syntax-ns#"
   xmlns:svg="http://www.w3.org/2000/svg"
   xmlns="http://www.w3.org/2000/svg"
   xmlns:sodipodi="http://sodipodi.sourceforge.net/DTD/sodipodi-0.dtd"
   xmlns:inkscape="http://www.inkscape.org/namespaces/inkscape"
   fill-opacity="1"
   color-rendering="auto"
   color-interpolation="auto"
   text-rendering="auto"
   stroke="black"
   stroke-linecap="square"
   stroke-miterlimit="10"
   shape-rendering="auto"
   stroke-opacity="1"
   fill="black"
   stroke-dasharray="none"
   font-weight="normal"
   stroke-width="1"
   font-family="'Dialog'"
   font-style="normal"
   stroke-linejoin="miter"
   font-size="12"
   stroke-dashoffset="0"
   image-rendering="auto"
   version="1.1"
   id="svg9"
   sodipodi:docname="hentaigana_letter_n.svg"
   inkscape:version="0.92.4 (5da689c313, 2019-01-14)"
   width="100%"
   height="100%"
   viewBox="0 0 100 100"
   preserveAspectRatio="xMidYMid meet"
   >
  <metadata
     id="metadata13">
    <rdf:RDF>
      <cc:Work
         rdf:about="">
        <dc:format>image/svg+xml</dc:format>
        <dc:type
           rdf:resource="http://purl.org/dc/dcmitype/StillImage" />
      </cc:Work>
    </rdf:RDF>
  </metadata>
  <sodipodi:namedview
     pagecolor="#ffffff"
     bordercolor="#666666"
     borderopacity="1"
     objecttolerance="10"
     gridtolerance="10"
     guidetolerance="10"
     inkscape:pageopacity="0"
     inkscape:pageshadow="2"
     inkscape:window-width="1920"
     inkscape:window-height="986"
     id="namedview11"
     showgrid="false"
     inkscape:zoom="2.36"
     inkscape:cx="50"
     inkscape:cy="50"
     inkscape:window-x="-11"
     inkscape:window-y="-11"
     inkscape:window-maximized="1"
     inkscape:current-layer="svg9" />
  <!--Unicode Character 'HENTAIGANA LETTER N-MU-MO-2' (U+1B11E)-->
  <defs
     id="genericDefs" />
  <g
     id="g7"
     transform="matrix(0.45937645,0,0,0.48184911,-16.218,-68.738878)">
    <g
       id="g5">
      <path
         d="m 103.7812,144.5625 q 4.7813,9.5625 27,9.5625 15.4688,0 37.125,-5.625 h 0.5626 q 5.9062,0 9,7.875 0,2.8125 -15.1876,14.0625 -20.8124,19.6875 -20.8124,31.5 v 2.25 q 0.8437,2.25 4.5,2.25 6.1874,0 18.5624,-2.25 10.6876,2.5313 10.6876,9 0,5.625 -15.1876,15.1875 Q 135,246.9375 93.6562,290.25 v 0.5625 h 0.5626 q 15.4687,-6.75 21.9374,-6.75 17.1563,0 27,24.1875 6.1876,12.375 18.5626,21.9375 3.6562,2.25 11.8124,2.25 34.5938,0 73.125,-51.75 l 3.9376,4.5 q -23.3438,44.4375 -60.1876,60.1875 -12.6562,2.8125 -19.125,2.8125 -30.6562,0 -48.9374,-46.125 -4.7813,-6.75 -12.9376,-6.75 -18.8437,0 -63,48.375 -0.8437,0 -2.25,1.125 h -2.8124 q -2.25,0 -3.9376,-9.5625 0,-15.1875 19.6876,-25.875 29.25,-25.0312 91.6874,-89.4375 v -1.125 l -5.625,0.5625 q -12.375,0 -12.375,-11.8125 V 207 q 0,-14.9062 17.4376,-39.375 V 166.5 h -0.5626 q -12.9374,2.25 -16.875,2.25 -22.5,0 -30.9374,-18 l -0.5626,-3.375 v -0.5625 q 0,-1.4063 4.5,-2.25 z"
         id="path3"
         inkscape:connector-curvature="0"
         style="stroke:none" />
    </g>
  </g>
</svg>
