<?xml version="1.0"?>

<!DOCTYPE svg PUBLIC '-//W3C//DTD SVG 1.0//EN' 'http://www.w3.org/TR/2001/REC-SVG-20010904/DTD/svg10.dtd'>
<svg fill-opacity="1" xmlns:xlink="http://www.w3.org/1999/xlink" color-rendering="auto" color-interpolation="auto" text-rendering="auto" stroke="black" stroke-linecap="square" stroke-miterlimit="10" shape-rendering="auto" stroke-opacity="1" fill="black" stroke-dasharray="none" font-weight="normal" stroke-width="1" xmlns="http://www.w3.org/2000/svg" font-family="&apos;Dialog&apos;" font-style="normal" stroke-linejoin="miter" font-size="12" stroke-dashoffset="0" image-rendering="auto">
  <!--Unicode Character 'HENTAIGANA LETTER HE-7' (U+1B0B9)-->
  <defs id="genericDefs" />
  <g>
    <g>
      <path d="M126.2812 179.7188 Q142.0312 179.7188 155.5312 210.0938 Q178.3125 255.375 179.1562 256.2188 Q183.375 259.875 188.1562 260.1562 Q215.4375 256.7812 226.9688 256.7812 Q249.75 256.7812 256.2188 272.5312 Q256.5 277.5938 257.3438 277.5938 Q257.3438 296.4375 216.2812 313.0312 L215.1562 313.0312 Q210.6562 309.9375 210.6562 306.8438 Q240.4688 292.7812 240.4688 279.2812 L240.4688 277.0312 Q239.0625 266.9062 231.4688 266.9062 L223.0312 266.9062 Q213.1875 266.9062 184.2188 275.9062 L180.8438 275.9062 Q166.2188 275.9062 159.4688 252.2812 Q133.5938 192.0938 126.2812 192.0938 L124.0312 192.0938 Q115.5938 192.0938 92.5312 224.1562 Q81 238.2188 66.6562 260.7188 Q61.0312 266.9062 54.8438 266.9062 Q41.9062 266.9062 30.6562 235.9688 Q30.6562 234.5625 35.7188 230.3438 Q43.0312 244.4062 48.6562 244.4062 L49.7812 244.4062 Q57.9375 244.4062 79.5938 216.8438 Q111.9375 179.7188 126.2812 179.7188 Z" stroke="none" />
    </g>
  </g>
</svg>
