<?xml version="1.0"?>

<!DOCTYPE svg PUBLIC '-//W3C//DTD SVG 1.0//EN' 'http://www.w3.org/TR/2001/REC-SVG-20010904/DTD/svg10.dtd'>
<svg fill-opacity="1" xmlns:xlink="http://www.w3.org/1999/xlink" color-rendering="auto" color-interpolation="auto" text-rendering="auto" stroke="black" stroke-linecap="square" stroke-miterlimit="10" shape-rendering="auto" stroke-opacity="1" fill="black" stroke-dasharray="none" font-weight="normal" stroke-width="1" xmlns="http://www.w3.org/2000/svg" font-family="&apos;Dialog&apos;" font-style="normal" stroke-linejoin="miter" font-size="12" stroke-dashoffset="0" image-rendering="auto">
  <!--Unicode Character 'HENTAIGANA LETTER NO-2' (U+1B09A)-->
  <defs id="genericDefs" />
  <g>
    <g>
      <path d="M198 132.4688 Q210.375 134.4375 210.375 143.7188 L210.9375 143.7188 Q210.9375 148.7812 194.0625 171.8438 L194.0625 172.4062 Q194.625 172.4062 194.625 172.9688 Q222.4688 167.3438 226.6875 167.3438 Q241.5938 167.3438 243.5625 176.9062 Q243.5625 181.4062 234.5625 181.9688 Q222.75 180.8438 220.5 180.8438 L218.25 180.8438 Q188.4375 182.8125 188.4375 185.9062 Q180 198.5625 158.0625 221.9062 L158.0625 223.0312 L158.625 223.0312 Q169.3125 219.375 186.1875 211.2188 L186.75 211.2188 Q197.4375 214.3125 197.4375 221.9062 Q173.8125 246.0938 155.8125 270.8438 L155.8125 271.9688 Q169.875 271.9688 169.875 295.0312 L169.875 313.5938 L170.4375 313.5938 L198 300.0938 Q212.3438 295.0312 218.25 295.0312 Q245.25 298.125 245.25 317.5312 Q245.25 342 189 358.0312 Q178.875 360.2812 176.625 360.2812 Q176.0625 360.2812 173.25 355.2188 Q174.375 354.0938 196.875 346.7812 Q227.8125 332.4375 227.8125 319.2188 L227.8125 315.2812 Q225.8438 304.0312 217.6875 304.0312 L213.1875 304.0312 Q195.1875 304.0312 172.6875 328.7812 Q169.3125 340.5938 164.25 340.5938 Q157.7812 340.5938 154.125 328.2188 Q156.375 311.9062 156.375 291.6562 L156.375 287.7188 Q156.375 282.375 152.4375 280.4062 L150.75 280.4062 Q148.7812 280.4062 128.25 310.2188 Q119.25 328.2188 111.375 328.2188 L110.8125 328.2188 Q107.7188 328.2188 106.875 319.2188 L106.875 316.9688 Q106.875 311.625 120.375 300.6562 Q152.1562 260.1562 173.8125 226.4062 L172.125 226.4062 Q160.5938 232.875 149.625 242.1562 L146.8125 242.7188 Q140.0625 239.9062 140.0625 232.0312 Q140.0625 229.7812 151.875 217.9688 Q172.125 191.25 172.125 187.5938 Q155.8125 189.8438 111.375 217.9688 Q111.375 218.25 104.625 223.0312 L104.0625 223.0312 Q100.6875 220.5 100.125 217.4062 Q138.375 185.9062 179.4375 174.0938 Q191.8125 153.5625 191.8125 148.2188 L191.8125 145.9688 Q190.9688 143.7188 186.75 143.7188 Q180.5625 144.8438 180 144.8438 Q178.3125 142.0312 178.3125 140.9062 Q190.4062 132.4688 198 132.4688 ZM51.75 140.3438 Q66.6562 145.9688 74.8125 160.0312 Q77.625 165.375 77.625 170.7188 Q77.625 180.8438 64.125 215.7188 Q54.5625 248.3438 54.5625 271.9688 Q54.5625 303.4688 60.1875 320.9062 L60.75 320.9062 Q62.4375 318.0938 69.1875 291.6562 Q76.2188 273.375 79.3125 268.5938 Q81.8438 269.4375 83.8125 272.5312 Q71.4375 305.4375 71.4375 340.0312 Q70.0312 351.2812 62.4375 351.2812 Q46.9688 351.2812 42.75 291.6562 L42.75 280.4062 Q42.75 251.7188 57.375 190.4062 Q59.0625 177.75 59.0625 171.8438 L59.0625 165.6562 Q59.0625 153.2812 48.375 144.8438 L48.375 144.2812 Q50.625 140.3438 51.75 140.3438 ZM138.375 142.0312 Q141.75 143.4375 141.75 144.2812 Q140.0625 151.875 140.0625 154.9688 L140.0625 163.4062 Q141.1875 165.6562 142.875 165.6562 Q147.0938 165.6562 163.125 148.2188 L164.25 148.2188 Q165.9375 152.1562 165.9375 153.2812 Q147.6562 180.8438 138.9375 180.8438 Q129.9375 180.8438 128.25 167.3438 Q128.25 154.6875 138.375 142.0312 Z" stroke="none" />
    </g>
  </g>
</svg>
