<?xml version="1.0"?>

<!DOCTYPE svg PUBLIC '-//W3C//DTD SVG 1.0//EN' 'http://www.w3.org/TR/2001/REC-SVG-20010904/DTD/svg10.dtd'>
<svg fill-opacity="1" xmlns:xlink="http://www.w3.org/1999/xlink" color-rendering="auto" color-interpolation="auto" text-rendering="auto" stroke="black" stroke-linecap="square" stroke-miterlimit="10" shape-rendering="auto" stroke-opacity="1" fill="black" stroke-dasharray="none" font-weight="normal" stroke-width="1" xmlns="http://www.w3.org/2000/svg" font-family="&apos;Dialog&apos;" font-style="normal" stroke-linejoin="miter" font-size="12" stroke-dashoffset="0" image-rendering="auto">
  <!--Unicode Character 'HENTAIGANA LETTER SA-2' (U+1B03D)-->
  <defs id="genericDefs" />
  <g>
    <g>
      <path d="M74.8125 135 Q95.0625 144.2812 95.0625 156.375 Q95.0625 170.1562 51.75 218.25 L51.75 219.9375 Q61.875 223.875 66.9375 234 Q70.3125 243.2812 70.3125 253.125 L70.3125 274.5 Q70.3125 299.25 68.625 323.4375 L69.1875 323.4375 Q74.25 316.125 95.625 272.25 L96.1875 272.25 Q98.1562 272.25 101.25 277.3125 Q74.8125 331.875 74.8125 351.5625 Q71.7188 357.75 68.0625 357.75 Q57.0938 357.75 53.4375 332.4375 Q57.375 254.25 57.375 246.375 Q57.375 230.3438 42.1875 223.3125 L41.0625 220.5 Q41.0625 219.0938 54 202.5 Q78.1875 163.4062 78.1875 151.875 Q78.1875 143.4375 70.875 140.0625 L70.875 138.9375 Q70.875 138.0938 74.8125 135 ZM185.625 142.3125 Q196.3125 142.3125 205.875 151.875 Q202.7812 156.9375 201.9375 156.9375 Q196.0312 152.4375 192.375 152.4375 L189.5625 152.4375 Q181.125 152.4375 181.125 181.125 L181.125 185.625 L181.6875 185.625 Q198.5625 185.625 234.5625 173.25 L235.125 173.25 Q246.9375 175.2188 246.9375 181.125 Q246.9375 189 209.8125 194.625 L182.25 198 Q182.25 217.125 187.3125 217.125 L212.0625 224.4375 Q216.5625 227.5312 216.5625 232.3125 Q216.5625 239.9062 193.5 243 Q182.5312 248.0625 172.6875 254.8125 L172.125 254.8125 Q169.5938 253.4062 168.75 250.875 Q183.6562 237.9375 194.0625 234.5625 L194.0625 232.875 Q170.4375 228.0938 170.4375 216.5625 Q168.75 208.6875 168.1875 199.125 L158.625 199.125 Q134.4375 199.125 113.625 187.3125 L113.625 186.75 Q113.9062 183.0938 117 180 Q131.9062 187.3125 151.875 187.3125 L167.0625 187.3125 L167.0625 186.75 Q167.0625 180.2812 166.5 171.5625 Q166.5 142.3125 185.625 142.3125 ZM158.625 262.6875 Q163.125 264.6562 163.125 266.625 Q160.875 270.2812 160.875 273.9375 Q160.875 280.4062 189.5625 281.25 Q193.5 284.3438 194.0625 288 Q194.0625 291.6562 177.1875 303.1875 Q171 310.2188 171 315.5625 L171 318.375 Q171 329.625 194.0625 332.4375 L199.6875 333 L221.0625 331.3125 Q232.3125 333.2812 232.3125 339.1875 L232.3125 341.4375 Q228.6562 348.75 204.75 348.75 Q174.375 348.75 163.125 326.8125 Q161.4375 323.1562 161.4375 318.9375 L161.4375 316.6875 Q161.4375 305.4375 170.4375 295.3125 L170.4375 294.1875 Q151.875 289.4062 151.875 277.3125 Q151.875 268.5938 158.625 262.6875 Z" stroke="none" />
    </g>
  </g>
</svg>
