<?xml version="1.0"?>

<!DOCTYPE svg PUBLIC '-//W3C//DTD SVG 1.0//EN' 'http://www.w3.org/TR/2001/REC-SVG-20010904/DTD/svg10.dtd'>
<svg fill-opacity="1" xmlns:xlink="http://www.w3.org/1999/xlink" color-rendering="auto" color-interpolation="auto" text-rendering="auto" stroke="black" stroke-linecap="square" stroke-miterlimit="10" shape-rendering="auto" stroke-opacity="1" fill="black" stroke-dasharray="none" font-weight="normal" stroke-width="1" xmlns="http://www.w3.org/2000/svg" font-family="&apos;Dialog&apos;" font-style="normal" stroke-linejoin="miter" font-size="12" stroke-dashoffset="0" image-rendering="auto">
  <!--Unicode Character 'HENTAIGANA LETTER MA-7' (U+1B0C8)-->
  <defs id="genericDefs" />
  <g>
    <g>
      <path d="M122.3438 131.3438 Q131.0625 144.8438 156.0938 144.8438 Q175.2188 147.6562 175.2188 156.6562 Q175.2188 165.6562 152.1562 165.6562 Q130.7812 167.3438 117.2812 170.7188 Q115.0312 167.3438 115.0312 166.2188 Q131.625 160.0312 143.7188 156.6562 L143.7188 155.5312 Q128.5312 148.2188 121.7812 140.9062 Q117.2812 134.7188 117.2812 134.1562 Q120.0938 131.3438 122.3438 131.3438 ZM210.0938 164.5312 Q221.0625 164.5312 226.4062 171.8438 L226.4062 174.6562 Q226.4062 178.3125 194.3438 180.8438 Q135 194.3438 123.4688 205.5938 Q118.9688 210.0938 118.9688 211.7812 Q134.7188 217.9688 134.7188 242.1562 L134.7188 243.2812 Q136.4062 243.2812 182.5312 224.7188 Q183.6562 224.7188 183.6562 221.9062 L183.6562 207.2812 Q183.6562 202.7812 180.8438 201.6562 L179.1562 201.6562 Q176.625 201.6562 170.7188 206.1562 L170.1562 206.1562 L169.5938 203.3438 L169.5938 202.2188 Q180.5625 190.9688 188.1562 190.9688 Q196.0312 190.9688 196.0312 205.5938 L196.0312 214.0312 L195.4688 220.7812 L196.0312 220.7812 Q216.8438 213.4688 222.4688 213.4688 Q233.1562 216.5625 233.1562 223.0312 Q233.1562 232.5938 202.2188 248.3438 Q195.1875 252.2812 194.3438 253.4062 L194.3438 280.9688 Q194.3438 283.7812 194.9062 289.4062 Q231.75 295.3125 248.9062 309.0938 Q255.375 315.5625 257.3438 321.4688 Q257.3438 325.9688 250.5938 328.7812 Q246.375 327.9375 225.2812 311.3438 Q205.3125 300.6562 194.9062 300.6562 L194.9062 301.2188 Q194.9062 321.75 197.1562 341.1562 Q193.7812 361.4062 183.6562 361.4062 Q176.9062 361.4062 164.5312 342.8438 L133.5938 310.2188 L132.4688 310.2188 Q133.0312 330.1875 134.1562 339.4688 Q134.1562 351.5625 125.7188 355.2188 Q119.5312 355.2188 118.4062 343.4062 L118.9688 342.2812 Q119.5312 324.5625 120.6562 313.0312 L120.0938 313.0312 Q98.7188 321.75 72.8438 337.2188 L70.0312 337.2188 Q66.6562 335.5312 66.6562 329.9062 Q66.6562 316.4062 87.4688 307.9688 Q118.9688 287.7188 122.3438 283.7812 L122.3438 283.2188 Q122.3438 277.5938 122.9062 260.1562 Q107.1562 266.3438 101.5312 266.3438 Q92.5312 266.3438 84.0938 253.9688 L83.5312 253.9688 Q49.7812 300.9375 44.7188 332.7188 Q41.625 352.4062 37.9688 352.4062 L36.2812 352.4062 Q30.6562 348.75 30.6562 338.9062 L30.6562 334.4062 Q30.6562 304.875 87.4688 233.1562 Q108.8438 210.0938 108.8438 208.4062 L108.2812 208.4062 Q83.8125 219.6562 72.8438 219.6562 Q57.9375 219.6562 44.7188 201.6562 L44.7188 200.5312 Q44.7188 199.6875 48.0938 197.1562 Q60.4688 206.7188 71.1562 206.7188 Q90.8438 206.7188 199.9688 166.2188 Q208.125 164.5312 210.0938 164.5312 ZM88.0312 247.2188 Q91.9688 252.8438 99.8438 252.8438 Q124.0312 250.5938 124.0312 244.9688 L124.0312 243.8438 Q124.0312 217.4062 115.0312 215.7188 Q101.25 228.375 88.0312 247.2188 ZM194.9062 231.4688 L194.9062 242.1562 Q208.125 236.8125 217.9688 227.5312 Q217.9688 226.6875 216.2812 225.8438 Q209.25 226.9688 194.9062 231.4688 ZM134.1562 255.6562 L134.1562 265.7812 Q134.1562 269.4375 133.5938 277.0312 Q136.9688 276.1875 182.5312 248.9062 L183.0938 246.0938 L183.0938 234.8438 L182.5312 234.8438 Q145.4062 248.3438 134.1562 255.6562 ZM133.0312 288.8438 L133.0312 296.7188 Q152.7188 291.0938 181.9688 288.8438 L181.9688 278.7188 Q181.9688 272.25 182.5312 259.0312 L181.9688 259.0312 Q178.5938 259.0312 133.5938 286.0312 L133.0312 288.8438 ZM97.0312 310.2188 Q97.5938 310.2188 97.5938 310.7812 Q120.375 301.2188 121.2188 300.0938 L121.2188 294.4688 Q113.9062 296.7188 97.0312 310.2188 ZM137.5312 305.7188 Q161.7188 330.4688 178.5938 341.1562 L180.2812 341.1562 Q181.125 341.1562 182.5312 337.7812 Q181.9688 331.0312 181.9688 328.2188 L181.9688 298.9688 L180.2812 298.9688 Q149.9062 298.9688 137.5312 305.7188 Z" stroke="none" />
    </g>
  </g>
</svg>
