<?xml version="1.0" encoding="UTF-8" standalone="no"?>
<svg
   xmlns:dc="http://purl.org/dc/elements/1.1/"
   xmlns:cc="http://creativecommons.org/ns#"
   xmlns:rdf="http://www.w3.org/1999/02/22-rdf-syntax-ns#"
   xmlns:svg="http://www.w3.org/2000/svg"
   xmlns="http://www.w3.org/2000/svg"
   xmlns:sodipodi="http://sodipodi.sourceforge.net/DTD/sodipodi-0.dtd"
   xmlns:inkscape="http://www.inkscape.org/namespaces/inkscape"
   fill-opacity="1"
   color-rendering="auto"
   color-interpolation="auto"
   text-rendering="auto"
   stroke="black"
   stroke-linecap="square"
   stroke-miterlimit="10"
   shape-rendering="auto"
   stroke-opacity="1"
   fill="black"
   stroke-dasharray="none"
   font-weight="normal"
   stroke-width="1"
   font-family="'Dialog'"
   font-style="normal"
   stroke-linejoin="miter"
   font-size="12"
   stroke-dashoffset="0"
   image-rendering="auto"
   version="1.1"
   id="svg9"
   sodipodi:docname="hentaigana_letter_na1.svg"
   inkscape:version="0.92.4 (5da689c313, 2019-01-14)"
   width="100%"
   height="100%"
   viewBox="0 0 100 100"
   preserveAspectRatio="xMidYMid meet"
   >
  <metadata
     id="metadata13">
    <rdf:RDF>
      <cc:Work
         rdf:about="">
        <dc:format>image/svg+xml</dc:format>
        <dc:type
           rdf:resource="http://purl.org/dc/dcmitype/StillImage" />
      </cc:Work>
    </rdf:RDF>
  </metadata>
  <sodipodi:namedview
     pagecolor="#ffffff"
     bordercolor="#666666"
     borderopacity="1"
     objecttolerance="10"
     gridtolerance="10"
     guidetolerance="10"
     inkscape:pageopacity="0"
     inkscape:pageshadow="2"
     inkscape:window-width="1920"
     inkscape:window-height="986"
     id="namedview11"
     showgrid="false"
     inkscape:zoom="2.36"
     inkscape:cx="50"
     inkscape:cy="50"
     inkscape:window-x="-11"
     inkscape:window-y="-11"
     inkscape:window-maximized="1"
     inkscape:current-layer="svg9" />
  <!--Unicode Character 'HENTAIGANA LETTER NA-1' (U+1B07E)-->
  <defs
     id="genericDefs" />
  <g
     id="g7"
     transform="matrix(0.42456581,0,0,0.41715834,-11.205274,-53.436285)">
    <g
       id="g5">
      <path
         d="m 119.25,130.7812 q 16.875,0 16.875,11.25 0,1.9688 -7.875,20.8126 h 0.5625 q 11.25,0 34.3125,-7.875 h 1.6875 q 10.125,1.4062 10.125,6.75 0,10.9687 -53.4375,14.625 -1.6875,1.125 -19.6875,34.3124 h 0.5625 q 34.3125,-15.75 60.1875,-15.75 41.3437,0 57.375,37.125 Q 225,246.6562 225,259.5938 v 1.6874 q 0,57.6563 -47.25,79.875 -11.25,2.8126 -17.4375,2.8126 h -3.9375 q -19.6875,0 -40.5,-16.875 h -1.6875 q -5.0625,26.1562 -10.125,34.875 h -1.125 q -1.4063,0 -3.9375,-1.6876 2.8125,-31.2187 2.8125,-44.4374 l -5.625,0.5624 h -3.375 q -15.1875,0 -25.875,-6.1874 -3.9375,-4.5 -3.9375,-7.875 0,-11.8126 39.375,-29.25 v -0.5626 q 0.5625,-10.125 0.5625,-16.3124 v -1.125 h -0.5625 q -10.9688,1.125 -27,15.1874 -0.8438,0 -3.9375,-3.9374 15.1875,-16.0313 31.5,-23.625 0,-9.8438 10.125,-15.75 5.0625,1.6874 5.0625,12.9374 h 0.5625 q 3.9375,0 6.75,-0.5624 24.1875,2.8124 24.1875,12.9374 0,11.25 -32.0625,23.625 v 0.5626 q 0,8.7187 -1.125,22.5 H 117 q 9.5625,0 32.625,-12.9376 l 5.625,-1.125 q 9,1.9688 9,6.1876 0,12.0937 -48.375,22.5 v 5.0624 q 16.0312,14.625 41.0625,14.625 h 3.375 q 27,0 42.1875,-41.625 3.9375,-12.9374 3.9375,-30.9374 v -2.25 q 0,-42.75 -27.5625,-52.875 -6.1875,-2.25 -12.9375,-2.25 H 157.5 q -24.1875,0 -61.3125,25.3124 h -2.25 q -6.75,-5.3437 -6.75,-11.8124 0,-2.25 13.5,-28.125 4.5,-10.6876 4.5,-11.8126 v -0.5624 q -23.0625,0 -37.6875,-14.0626 1.4062,-3.375 3.375,-3.375 12.9375,5.625 39.9375,5.625 5.625,-10.6874 5.625,-17.4374 v -3.375 q 0,-5.625 -11.25,-5.625 -0.5625,-1.125 -0.5625,-1.6876 0,-5.0624 9,-5.0624 2.8125,0 5.625,-0.5626 z m -0.5625,120.9376 v 0.5624 q -0.5625,5.625 -0.5625,9 v 6.1876 q 9.5625,-2.8126 14.625,-9.5626 v -2.8124 q 0,-3.0938 -14.0625,-3.375 z m -43.875,45.5624 v 1.125 q 0,3.9376 23.625,3.9376 H 99 q 2.8125,0 2.8125,-1.125 0,-2.8126 0.5625,-19.6876 h -1.125 q -13.5,3.9376 -25.3125,14.0626 z"
         id="path3"
         inkscape:connector-curvature="0"
         style="stroke:none" />
    </g>
  </g>
</svg>
