<?xml version="1.0"?>

<!DOCTYPE svg PUBLIC '-//W3C//DTD SVG 1.0//EN' 'http://www.w3.org/TR/2001/REC-SVG-20010904/DTD/svg10.dtd'>
<svg fill-opacity="1" xmlns:xlink="http://www.w3.org/1999/xlink" color-rendering="auto" color-interpolation="auto" text-rendering="auto" stroke="black" stroke-linecap="square" stroke-miterlimit="10" shape-rendering="auto" stroke-opacity="1" fill="black" stroke-dasharray="none" font-weight="normal" stroke-width="1" xmlns="http://www.w3.org/2000/svg" font-family="&apos;Dialog&apos;" font-style="normal" stroke-linejoin="miter" font-size="12" stroke-dashoffset="0" image-rendering="auto">
  <!--Unicode Character 'HENTAIGANA LETTER TU-4' (U+1B06C)-->
  <defs id="genericDefs" />
  <g>
    <g>
      <path d="M97.0312 136.125 Q124.0312 136.125 124.0312 149.0625 Q120.0938 167.9062 120.0938 171 L122.3438 171 Q133.875 163.125 136.4062 163.125 Q146.5312 165.0938 146.5312 170.4375 Q146.5312 178.0312 117.2812 187.3125 Q117.2812 202.7812 98.1562 225.5625 L98.7188 225.5625 Q101.8125 225.5625 121.7812 212.625 Q123.4688 212.625 123.4688 212.0625 Q140.3438 214.875 140.3438 221.625 Q140.3438 226.6875 125.1562 237.375 Q102.375 263.8125 86.9062 290.8125 Q76.7812 308.25 76.7812 312.1875 Q155.5312 236.8125 181.9688 221.625 Q201.375 209.25 212.3438 209.25 L212.9062 209.25 Q229.2188 211.5 229.2188 225 L229.2188 225.5625 Q229.2188 237.0938 206.7188 258.1875 Q206.7188 259.5938 225.2812 262.125 Q242.1562 267.75 242.1562 281.8125 L242.1562 282.9375 Q242.1562 303.75 192.0938 323.4375 L189.8438 326.25 L189.8438 329.0625 Q198.2812 340.875 225.8438 340.875 L225.8438 340.3125 Q235.9688 342 235.9688 349.875 Q235.9688 355.7812 225.2812 356.625 Q197.1562 352.4062 197.1562 349.3125 Q179.7188 341.1562 179.7188 329.625 Q179.7188 321.1875 206.7188 308.25 Q224.1562 297.2812 224.1562 280.6875 Q224.1562 271.4062 200.5312 265.5 Q198.2812 263.25 197.7188 260.4375 Q197.7188 259.0312 206.1562 245.8125 Q211.2188 233.7188 211.2188 225 Q211.2188 219.9375 207.2812 219.9375 L204.4688 219.9375 Q190.9688 219.9375 133.0312 270.5625 Q89.4375 316.4062 71.7188 343.6875 Q69.75 344.8125 68.3438 344.8125 L67.7812 344.8125 Q62.1562 344.8125 57.0938 330.1875 Q58.5 325.9688 95.9062 259.875 Q108 241.5938 117.2812 228.9375 L117.2812 228.375 L116.7188 228.375 Q104.0625 232.5938 71.7188 252 Q67.2188 254.25 63.8438 254.25 Q52.875 254.25 45.8438 233.4375 Q45.8438 232.0312 50.3438 228.375 Q56.8125 237.375 61.0312 237.375 L64.4062 237.375 Q86.3438 232.875 86.3438 227.8125 Q102.0938 206.1562 102.0938 190.6875 L102.0938 189.5625 L99.8438 189.5625 Q79.875 189.5625 73.4062 178.3125 Q73.4062 174.375 76.2188 173.8125 Q81.8438 177.1875 87.4688 177.1875 L95.3438 177.1875 Q100.4062 177.1875 104.9062 176.0625 Q106.5938 162.2812 106.5938 155.8125 L106.5938 150.75 Q106.5938 144.8438 93.6562 142.3125 L93.6562 141.75 Q94.7812 136.125 97.0312 136.125 Z" stroke="none" />
    </g>
  </g>
</svg>
