<?xml version="1.0"?>

<!DOCTYPE svg PUBLIC '-//W3C//DTD SVG 1.0//EN' 'http://www.w3.org/TR/2001/REC-SVG-20010904/DTD/svg10.dtd'>
<svg fill-opacity="1" xmlns:xlink="http://www.w3.org/1999/xlink" color-rendering="auto" color-interpolation="auto" text-rendering="auto" stroke="black" stroke-linecap="square" stroke-miterlimit="10" shape-rendering="auto" stroke-opacity="1" fill="black" stroke-dasharray="none" font-weight="normal" stroke-width="1" xmlns="http://www.w3.org/2000/svg" font-family="&apos;Dialog&apos;" font-style="normal" stroke-linejoin="miter" font-size="12" stroke-dashoffset="0" image-rendering="auto">
  <!--Unicode Character 'HENTAIGANA LETTER SE-2' (U+1B053)-->
  <defs id="genericDefs" />
  <g>
    <g>
      <path d="M107.7188 137.5312 Q134.1562 137.5312 142.0312 151.0312 Q148.7812 177.1875 157.7812 197.1562 Q158.3438 197.1562 158.3438 197.7188 Q184.7812 188.4375 197.1562 175.2188 Q201.0938 169.5938 206.7188 169.5938 L208.9688 169.5938 Q219.0938 169.5938 219.0938 176.9062 Q218.25 183.375 194.3438 196.0312 Q184.2188 202.7812 162.8438 210.0938 L162.8438 210.6562 Q162.8438 212.625 178.5938 250.5938 L180.2812 250.5938 Q203.3438 232.875 203.3438 226.9688 L203.3438 224.1562 Q203.3438 219.6562 193.7812 216.8438 L193.7812 216.2812 Q194.9062 210.9375 196.5938 210.6562 Q220.7812 216.2812 220.7812 226.9688 Q220.7812 236.5312 196.0312 253.9688 Q184.7812 263.25 184.7812 264.0938 Q184.7812 269.1562 219.0938 334.9688 Q223.0312 346.2188 223.0312 348.4688 Q223.0312 352.9688 218.5312 355.2188 Q209.8125 355.2188 198.8438 336.6562 Q198.8438 331.0312 174.0938 273.0938 L172.4062 273.0938 L75.6562 351.8438 Q71.4375 353.5312 68.9062 353.5312 Q64.9688 352.125 64.9688 347.9062 Q64.9688 335.8125 81.2812 328.2188 Q108.2812 311.3438 168.4688 260.1562 L168.4688 259.5938 L149.9062 214.0312 L149.3438 214.0312 Q127.125 218.5312 113.9062 218.5312 L109.9688 218.5312 Q83.8125 218.5312 67.7812 205.5938 L67.7812 205.0312 Q70.875 198.8438 71.7188 198.8438 Q84.9375 206.7188 107.1562 206.7188 Q125.7188 206.7188 144.2812 201.6562 L144.2812 201.0938 Q124.875 147.0938 112.7812 147.0938 Q111.375 145.9688 102.6562 145.4062 L102.6562 144.2812 Q102.6562 138.375 107.7188 137.5312 Z" stroke="none" />
    </g>
  </g>
</svg>
