<?xml version="1.0" encoding="UTF-8" standalone="no"?>
<svg
   xmlns:dc="http://purl.org/dc/elements/1.1/"
   xmlns:cc="http://creativecommons.org/ns#"
   xmlns:rdf="http://www.w3.org/1999/02/22-rdf-syntax-ns#"
   xmlns:svg="http://www.w3.org/2000/svg"
   xmlns="http://www.w3.org/2000/svg"
   xmlns:sodipodi="http://sodipodi.sourceforge.net/DTD/sodipodi-0.dtd"
   xmlns:inkscape="http://www.inkscape.org/namespaces/inkscape"
   fill-opacity="1"
   color-rendering="auto"
   color-interpolation="auto"
   text-rendering="auto"
   stroke="black"
   stroke-linecap="square"
   stroke-miterlimit="10"
   shape-rendering="auto"
   stroke-opacity="1"
   fill="black"
   stroke-dasharray="none"
   font-weight="normal"
   stroke-width="1"
   font-family="'Dialog'"
   font-style="normal"
   stroke-linejoin="miter"
   font-size="12"
   stroke-dashoffset="0"
   image-rendering="auto"
   version="1.1"
   id="svg9"
   sodipodi:docname="hentaigana_letter_u1.svg"
   inkscape:version="0.92.4 (5da689c313, 2019-01-14)">
  <metadata
     id="metadata13">
    <rdf:RDF>
      <cc:Work
         rdf:about="">
        <dc:format>image/svg+xml</dc:format>
        <dc:type
           rdf:resource="http://purl.org/dc/dcmitype/StillImage" />
      </cc:Work>
    </rdf:RDF>
  </metadata>
  <sodipodi:namedview
     pagecolor="#ffffff"
     bordercolor="#666666"
     borderopacity="1"
     objecttolerance="10"
     gridtolerance="10"
     guidetolerance="10"
     inkscape:pageopacity="0"
     inkscape:pageshadow="2"
     inkscape:window-width="1920"
     inkscape:window-height="986"
     id="namedview11"
     showgrid="false"
     inkscape:zoom="2.36"
     inkscape:cx="50"
     inkscape:cy="50"
     inkscape:window-x="-11"
     inkscape:window-y="-11"
     inkscape:window-maximized="1"
     inkscape:current-layer="svg9" />
  <!--Unicode Character 'HENTAIGANA LETTER U-1' (U+1B00A)-->
  <defs
     id="genericDefs" />
  <g
     id="g7"
     transform="matrix(0.48400159,0,0,0.42815536,-19.870726,-55.298215)">
    <g
       id="g5">
      <path
         d="m 124.875,130.7812 q 14.9062,8.4376 35.4375,8.4376 16.3125,3.9374 16.3125,11.25 0,7.3124 -16.875,7.3124 -13.5,2.25 -29.25,6.1876 -2.25,-1.9688 -2.25,-4.5 20.8125,-7.3126 20.8125,-8.4376 -19.125,-5.3437 -27.5625,-16.3124 v -0.5626 q 0,-0.8437 3.375,-3.375 z m 74.8125,38.8126 H 202.5 q 25.875,0 25.875,14.0624 0,15.75 -86.0625,50.0626 v 1.125 q 14.3437,7.0312 17.4375,10.125 1.125,2.25 1.125,3.9374 -1.6875,14.0626 -1.6875,30.9376 v 15.75 q 47.25,3.0937 48.9375,11.8124 1.6875,2.25 1.6875,5.0626 v 1.6874 q -1.4063,3.9376 -7.3125,3.9376 -24.75,-7.3126 -43.3125,-7.3126 0,6.1876 0.5625,35.4376 -2.5312,15.75 -10.6875,15.75 -3.6563,0 -12.375,-11.25 -20.25,-14.0626 -39.375,-21.375 -3.6563,-3.9376 -5.0625,-7.875 0,-11.5313 33.75,-21.375 9.8438,-2.8126 20.25,-3.9376 l 0.5625,-1.125 v -18 q 0,-8.4374 0.5625,-23.0624 0,-2.8126 -16.875,-11.8126 l -1.6875,-2.25 v -1.6874 q 0,-5.9063 19.6875,-12.9376 58.5,-29.5312 58.5,-40.5 v -2.8124 q -1.6875,-3.9376 -10.6875,-3.9376 h -4.5 q -36,0 -86.0625,32.0626 -32.9062,25.3124 -34.3125,25.3124 -2.8125,0.5626 -3.375,0.5626 -8.4375,-2.8126 -8.4375,-12.9376 v -1.6874 q 0,-19.4063 14.0625,-32.625 H 74.25 q 3.375,1.6874 3.375,3.375 -5.0625,11.25 -5.0625,20.25 l 1.125,0.5624 H 74.25 q 1.4062,0 53.4375,-25.3124 41.0625,-18 72,-18 z m -92.8125,153 q 0,5.3437 30.9375,16.3124 4.5,2.8126 7.3125,2.8126 l 0.5625,-1.125 v -29.8126 h -2.25 Q 108,313.875 106.875,322.5938 Z"
         id="path3"
         inkscape:connector-curvature="0"
         style="stroke:none" />
    </g>
  </g>
</svg>
