<?xml version="1.0"?>

<!DOCTYPE svg PUBLIC '-//W3C//DTD SVG 1.0//EN' 'http://www.w3.org/TR/2001/REC-SVG-20010904/DTD/svg10.dtd'>
<svg fill-opacity="1" xmlns:xlink="http://www.w3.org/1999/xlink" color-rendering="auto" color-interpolation="auto" text-rendering="auto" stroke="black" stroke-linecap="square" stroke-miterlimit="10" shape-rendering="auto" stroke-opacity="1" fill="black" stroke-dasharray="none" font-weight="normal" stroke-width="1" xmlns="http://www.w3.org/2000/svg" font-family="&apos;Dialog&apos;" font-style="normal" stroke-linejoin="miter" font-size="12" stroke-dashoffset="0" image-rendering="auto">
  <!--Unicode Character 'HENTAIGANA LETTER HA-7' (U+1B0A4)-->
  <defs id="genericDefs" />
  <g>
    <g>
      <path d="M165.375 139.7812 Q195.1875 143.4375 195.1875 154.4062 L195.1875 156.0938 Q195.1875 159.1875 192.9375 181.4062 L194.0625 181.4062 Q203.9062 175.2188 213.1875 175.2188 L216.5625 175.2188 Q241.875 178.0312 241.875 197.7188 L241.875 198.2812 Q241.875 215.7188 219.9375 223.0312 Q214.3125 224.1562 209.8125 224.1562 L207.5625 224.1562 Q199.6875 224.1562 190.6875 218.5312 L189.5625 218.5312 Q186.75 238.5 186.75 243.8438 Q186.75 244.9688 201.9375 252.8438 Q218.8125 265.2188 218.8125 289.9688 L218.8125 291.0938 Q218.8125 295.875 218.25 306.2812 Q244.6875 321.4688 253.6875 341.7188 L254.25 345.6562 Q254.25 350.4375 250.3125 352.9688 L248.0625 352.9688 Q242.4375 352.9688 232.875 336.0938 Q223.875 324.2812 216 319.7812 L214.875 319.7812 Q199.6875 343.9688 173.8125 343.9688 Q154.6875 343.9688 147.9375 331.5938 Q147.375 328.5 147.375 326.5312 Q147.375 306.5625 182.8125 299.5312 Q185.0625 299.5312 187.3125 298.9688 Q187.5938 298.9688 203.0625 300.6562 L203.0625 300.0938 Q203.625 295.3125 203.625 292.2188 L203.625 286.5938 Q203.625 261 183.375 252.2812 Q177.1875 249.4688 177.1875 245.5312 Q180 228.9375 181.125 200.5312 L180 200.5312 Q158.9062 219.6562 153 235.9688 Q149.0625 247.5 135.5625 324.8438 Q131.9062 333.8438 129.375 333.8438 L127.125 333.8438 Q120.375 329.3438 120.375 323.1562 Q120.375 320.9062 131.0625 288.8438 Q141.75 246.9375 141.75 225.2812 L141.75 222.4688 Q141.75 219.6562 140.0625 219.0938 L138.375 219.0938 Q123.1875 232.5938 118.125 249.4688 Q104.625 286.3125 104.625 305.1562 Q102.6562 314.1562 96.75 314.1562 Q87.1875 314.1562 82.6875 291.6562 Q77.0625 278.4375 73.125 276.4688 L70.3125 276.4688 Q61.0312 276.4688 50.0625 319.7812 Q45.2812 333.8438 42.1875 333.8438 L41.0625 333.8438 Q33.75 332.1562 33.75 319.7812 L33.75 317.5312 Q33.75 311.3438 45.5625 293.3438 Q95.0625 189.5625 95.0625 184.7812 L95.0625 183.6562 Q70.875 195.4688 64.6875 195.4688 Q48.0938 195.4688 42.75 170.1562 L42.75 169.5938 Q45.2812 167.3438 46.6875 167.3438 Q52.875 179.7188 60.75 179.7188 L66.375 179.7188 Q78.1875 179.7188 100.125 169.0312 L104.0625 167.9062 Q115.875 170.7188 115.875 174.0938 L115.875 176.3438 Q115.875 177.4688 105.75 194.9062 Q68.625 261.8438 68.625 266.9062 L68.625 267.4688 L76.5 265.2188 Q87.75 265.2188 95.625 287.1562 L96.1875 287.1562 Q106.5938 243.5625 132.75 214.5938 Q140.3438 208.4062 146.8125 208.4062 Q153.5625 208.4062 153.5625 219.0938 L153.5625 219.6562 L154.125 219.6562 Q160.5938 209.5312 174.375 194.9062 Q181.125 191.25 181.125 184.2188 Q181.125 183.0938 181.6875 178.0312 Q181.6875 155.25 174.9375 150.4688 L163.125 145.4062 Q163.125 141.1875 165.375 139.7812 ZM191.25 192.6562 Q190.125 209.5312 190.125 211.7812 Q196.5938 216.8438 209.8125 216.8438 Q225 213.75 225 197.7188 Q225 185.9062 214.3125 184.2188 L210.9375 184.2188 Q199.4062 184.2188 191.25 192.6562 ZM154.125 325.4062 L154.125 326.5312 Q154.125 336.0938 173.8125 336.0938 Q189.8438 336.0938 199.6875 316.9688 Q200.8125 314.7188 200.8125 313.0312 Q194.3438 309.6562 183.9375 309.6562 L181.125 309.6562 Q158.0625 309.6562 154.125 325.4062 Z" stroke="none" />
    </g>
  </g>
</svg>
