<?xml version="1.0"?>

<!DOCTYPE svg PUBLIC '-//W3C//DTD SVG 1.0//EN' 'http://www.w3.org/TR/2001/REC-SVG-20010904/DTD/svg10.dtd'>
<svg fill-opacity="1" xmlns:xlink="http://www.w3.org/1999/xlink" color-rendering="auto" color-interpolation="auto" text-rendering="auto" stroke="black" stroke-linecap="square" stroke-miterlimit="10" shape-rendering="auto" stroke-opacity="1" fill="black" stroke-dasharray="none" font-weight="normal" stroke-width="1" xmlns="http://www.w3.org/2000/svg" font-family="&apos;Dialog&apos;" font-style="normal" stroke-linejoin="miter" font-size="12" stroke-dashoffset="0" image-rendering="auto">
  <!--Unicode Character 'HENTAIGANA LETTER WO-6' (U+1B11B)-->
  <defs id="genericDefs" />
  <g>
    <g>
      <path d="M127.4062 135.2812 L134.1562 135.2812 Q150.75 135.2812 153.2812 145.4062 L153.2812 147.6562 Q153.2812 153.2812 147.0938 166.7812 L147.6562 166.7812 Q152.4375 166.7812 172.4062 157.2188 L173.5312 157.2188 Q184.7812 159.4688 184.7812 163.9688 Q184.7812 173.8125 139.2188 181.9688 Q133.3125 193.5 94.2188 230.3438 L93.6562 231.4688 Q94.2188 231.4688 94.2188 232.0312 Q138.0938 215.7188 183.0938 197.7188 Q186.1875 197.1562 187.5938 197.1562 Q205.5938 201.6562 205.5938 206.7188 Q206.4375 207 207.8438 210.6562 Q207.8438 215.4375 173.5312 238.2188 Q138.0938 264.6562 138.0938 265.2188 L138.0938 265.7812 Q154.4062 269.7188 165.0938 282.6562 Q201.375 268.5938 225.2812 250.5938 L225.8438 249.4688 L225.8438 248.3438 Q225.8438 244.6875 217.4062 240.4688 L217.4062 239.9062 Q217.4062 237.9375 221.3438 235.9688 Q246.0938 241.5938 246.0938 252.8438 Q246.0938 264.6562 197.7188 280.9688 L170.1562 292.7812 Q174.0938 307.125 174.0938 314.7188 Q172.6875 326.5312 165.0938 326.5312 Q157.7812 326.5312 157.7812 304.0312 Q156.9375 299.5312 154.9688 299.5312 Q116.7188 317.5312 116.7188 329.3438 L116.7188 330.4688 Q116.7188 338.625 131.3438 341.7188 Q143.1562 343.4062 161.7188 343.4062 Q183.6562 343.4062 206.1562 337.2188 Q214.875 337.2188 217.4062 346.2188 Q217.4062 357.4688 164.5312 357.4688 L163.4062 357.4688 Q120.6562 357.4688 108.2812 341.7188 Q104.9062 337.2188 104.9062 331.0312 Q104.9062 313.0312 152.1562 288.8438 L152.1562 287.7188 Q143.4375 275.3438 126.8438 275.3438 L118.9688 275.3438 Q115.875 275.3438 114.4688 271.9688 Q114.4688 263.25 130.2188 260.7188 Q149.625 247.7812 184.7812 211.2188 L185.3438 210.0938 L185.3438 209.5312 Q185.3438 208.4062 184.2188 208.4062 Q173.5312 208.4062 93.0938 244.9688 Q72.2812 255.0938 64.4062 255.0938 Q53.1562 255.0938 41.9062 238.7812 L41.9062 237.6562 Q41.9062 236.8125 46.4062 233.7188 Q54.2812 239.3438 58.7812 239.3438 L66.0938 239.3438 Q73.125 239.3438 81.2812 230.3438 Q118.9688 194.0625 122.3438 182.5312 L114.4688 182.5312 Q98.1562 182.5312 86.3438 170.1562 Q88.0312 165.6562 89.7188 165.6562 Q100.9688 171.2812 118.4062 171.2812 Q124.3125 170.7188 127.9688 170.7188 Q135.2812 158.9062 135.2812 153.2812 L135.2812 147.6562 Q135.2812 144.8438 122.3438 140.9062 Q124.3125 135.2812 127.4062 135.2812 Z" stroke="none" />
    </g>
  </g>
</svg>
