<?xml version="1.0"?>

<!DOCTYPE svg PUBLIC '-//W3C//DTD SVG 1.0//EN' 'http://www.w3.org/TR/2001/REC-SVG-20010904/DTD/svg10.dtd'>
<svg fill-opacity="1" xmlns:xlink="http://www.w3.org/1999/xlink" color-rendering="auto" color-interpolation="auto" text-rendering="auto" stroke="black" stroke-linecap="square" stroke-miterlimit="10" shape-rendering="auto" stroke-opacity="1" fill="black" stroke-dasharray="none" font-weight="normal" stroke-width="1" xmlns="http://www.w3.org/2000/svg" font-family="&apos;Dialog&apos;" font-style="normal" stroke-linejoin="miter" font-size="12" stroke-dashoffset="0" image-rendering="auto">
  <!--Unicode Character 'HENTAIGANA LETTER KI-7' (U+1B029)-->
  <defs id="genericDefs" />
  <g>
    <g>
      <path d="M145.4062 138.0938 Q153.2812 138.0938 156.0938 148.7812 Q147.0938 196.5938 147.0938 199.9688 L147.6562 199.9688 Q161.4375 193.7812 182.5312 175.2188 Q184.2188 172.4062 184.2188 169.5938 L184.2188 169.0312 Q184.2188 163.4062 172.4062 161.7188 L172.4062 161.1562 Q172.4062 157.5 174.6562 154.9688 Q203.9062 157.7812 203.9062 169.0312 Q203.9062 177.75 183.0938 189.8438 L183.0938 190.9688 Q206.7188 209.5312 230.3438 213.4688 Q237.0938 217.9688 237.0938 221.3438 Q237.0938 228.6562 217.9688 228.6562 Q184.7812 228.6562 139.2188 244.4062 L138.6562 248.3438 L138.6562 256.7812 Q138.6562 261 168.4688 265.2188 Q175.7812 268.3125 175.7812 276.4688 Q175.7812 281.8125 161.1562 300.0938 Q147.0938 321.1875 147.0938 328.2188 L147.0938 329.3438 Q147.0938 338.3438 182.5312 338.3438 Q191.8125 338.3438 212.3438 335.5312 Q223.0312 338.0625 223.0312 344.5312 L223.0312 345.0938 Q223.0312 354.6562 183.6562 354.6562 Q134.7188 354.6562 134.7188 334.4062 Q134.7188 319.7812 156.0938 282.6562 L156.0938 279.8438 Q156.0938 277.875 135.8438 274.2188 Q125.7188 269.7188 125.7188 259.5938 Q126.8438 250.5938 126.8438 249.4688 Q125.1562 249.4688 81.2812 266.9062 Q68.0625 270.8438 60.4688 270.8438 Q50.9062 270 50.9062 262.9688 Q50.9062 253.6875 67.2188 238.7812 Q70.3125 240.1875 71.7188 241.5938 Q67.2188 248.0625 67.2188 250.0312 L67.2188 251.7188 Q67.2188 252.5625 69.4688 253.9688 L73.4062 253.9688 Q87.1875 253.9688 127.9688 238.7812 L138.0938 154.9688 L138.0938 153.8438 Q136.9688 151.0312 134.1562 151.0312 L131.9062 151.0312 Q128.8125 151.0312 122.9062 154.4062 L122.3438 154.4062 Q118.9688 152.1562 118.9688 149.9062 Q134.7188 138.0938 145.4062 138.0938 ZM85.2188 171.2812 L85.7812 171.2812 Q88.5938 171.2812 91.4062 174.0938 Q89.1562 181.125 88.5938 194.3438 Q89.1562 199.4062 90.8438 199.4062 L93.6562 199.4062 Q104.0625 193.5 114.4688 185.3438 Q117.8438 188.4375 117.8438 190.9688 Q98.7188 207 93.6562 217.9688 Q90.5625 220.2188 88.0312 220.2188 Q76.2188 216.5625 76.2188 202.7812 Q76.2188 189 85.2188 171.2812 ZM140.9062 234.2812 L141.4688 234.2812 Q174.375 225.2812 206.7188 219.0938 L206.7188 217.4062 Q195.75 210.6562 176.3438 194.3438 L175.2188 194.3438 L144.8438 210.0938 L140.9062 234.2812 Z" stroke="none" />
    </g>
  </g>
</svg>
