<?xml version="1.0" encoding="UTF-8" standalone="no"?>
<svg
   xmlns:dc="http://purl.org/dc/elements/1.1/"
   xmlns:cc="http://creativecommons.org/ns#"
   xmlns:rdf="http://www.w3.org/1999/02/22-rdf-syntax-ns#"
   xmlns:svg="http://www.w3.org/2000/svg"
   xmlns="http://www.w3.org/2000/svg"
   xmlns:sodipodi="http://sodipodi.sourceforge.net/DTD/sodipodi-0.dtd"
   xmlns:inkscape="http://www.inkscape.org/namespaces/inkscape"
   fill-opacity="1"
   color-rendering="auto"
   color-interpolation="auto"
   text-rendering="auto"
   stroke="black"
   stroke-linecap="square"
   stroke-miterlimit="10"
   shape-rendering="auto"
   stroke-opacity="1"
   fill="black"
   stroke-dasharray="none"
   font-weight="normal"
   stroke-width="1"
   font-family="'Dialog'"
   font-style="normal"
   stroke-linejoin="miter"
   font-size="12"
   stroke-dashoffset="0"
   image-rendering="auto"
   version="1.1"
   id="svg9"
   sodipodi:docname="hentaigana_letter_me1.svg"
   inkscape:version="0.92.4 (5da689c313, 2019-01-14)"
   width="100%"
   height="100%"
   viewBox="0 0 100 100"
   preserveAspectRatio="xMidYMid meet"
   >
  <metadata
     id="metadata13">
    <rdf:RDF>
      <cc:Work
         rdf:about="">
        <dc:format>image/svg+xml</dc:format>
        <dc:type
           rdf:resource="http://purl.org/dc/dcmitype/StillImage" />
      </cc:Work>
    </rdf:RDF>
  </metadata>
  <sodipodi:namedview
     pagecolor="#ffffff"
     bordercolor="#666666"
     borderopacity="1"
     objecttolerance="10"
     gridtolerance="10"
     guidetolerance="10"
     inkscape:pageopacity="0"
     inkscape:pageshadow="2"
     inkscape:window-width="1920"
     inkscape:window-height="986"
     id="namedview11"
     showgrid="false"
     inkscape:zoom="2.36"
     inkscape:cx="50"
     inkscape:cy="50"
     inkscape:window-x="-11"
     inkscape:window-y="-11"
     inkscape:window-maximized="1"
     inkscape:current-layer="svg9" />
  <!--Unicode Character 'HENTAIGANA LETTER ME-1' (U+1B0D4)-->
  <defs
     id="genericDefs" />
  <g
     id="g7"
     transform="matrix(0.42793169,0,0,0.43738845,-11.266226,-57.996745)">
    <g
       id="g5">
      <path
         d="m 108.2812,134.1562 h 1.125 q 10.125,5.625 10.125,12.375 0,7.5938 -28.125,36.5626 h 0.5626 q 4.5,0 28.125,-18 4.7812,-2.25 5.0624,-2.25 6.1876,0 12.9376,8.4374 v 2.25 q -1.4063,7.3126 -41.625,57.375 v 0.5626 q 1.125,0 24.1874,-14.625 27.2813,-14.3438 27.5626,-15.1876 13.5,-33.1874 13.5,-38.25 v -3.9374 q 0,-2.5313 -11.8126,-8.4376 v -0.5624 q 1.9688,-4.5 3.375,-4.5 26.4376,3.9374 26.4376,14.625 -1.6876,8.4374 -11.8126,32.625 v 1.125 q 11.25,-3.375 18,-3.375 24.1876,0 32.625,20.25 1.6876,7.0312 1.6876,10.6874 0,27 -33.75,41.0626 -10.4063,2.8124 -19.125,2.8124 -13.5,0 -27.5626,-13.5 h -1.125 q -11.8124,20.8126 -34.875,54 -18.5624,24.4688 -42.75,47.8126 -5.3437,1.6874 -6.75,1.6874 -7.3124,-1.125 -7.3124,-7.3124 6.1874,-11.5313 8.4374,-27 3.6563,-1.125 5.0626,-1.125 l 0.5624,1.125 v 2.25 q 0,10.125 1.6876,10.125 h 0.5624 q 45.5626,-48.0938 70.3126,-102.375 7.875,-14.0626 7.875,-16.3126 -24.75,9.8438 -63.5626,43.875 -0.5624,1.6876 -3.9374,2.8126 -5.625,0 -7.3126,-11.8126 0,-5.9062 15.1876,-14.625 16.3124,-16.3124 29.8124,-41.0624 6.75,-12.0938 6.75,-15.1876 v -0.5624 h -0.5624 q -3.0938,0 -39.9376,26.4374 -1.9687,0.5626 -2.25,0.5626 -4.5,0 -4.5,-11.25 v -1.6876 q 0,-9.5624 13.5,-17.4374 24.1876,-22.7813 24.1876,-29.25 0,-3.9376 -4.5,-8.4376 0,-0.5624 3.9374,-3.375 z m 34.3126,110.25 q 8.4374,11.25 25.3124,11.25 21.375,0 33.1876,-22.5 1.6874,-6.75 1.6874,-11.8124 0,-18 -15.1874,-21.375 h -6.75 q -18.8438,0 -21.375,9.5624 -16.875,34.0313 -16.875,34.875 z m -8.4376,46.6876 q 12.9376,0 12.9376,27 2.8124,20.5312 7.3124,22.5 0,2.8124 27.5626,3.375 20.8124,0 48.375,-5.625 10.6874,1.6874 10.6874,8.4374 0,9 -38.25,11.25 -8.4374,0 -15.75,0.5626 -42.75,0 -48.9374,-11.25 -3.375,-4.5 -7.3126,-41.0626 0,-4.2187 -2.25,-5.0624 h -0.5624 q -1.6876,0 -9,2.8124 -1.6876,-2.8124 -1.6876,-3.9374 9,-9 16.875,-9 z"
         id="path3"
         inkscape:connector-curvature="0"
         style="stroke:none" />
    </g>
  </g>
</svg>
