<?xml version="1.0"?>

<!DOCTYPE svg PUBLIC '-//W3C//DTD SVG 1.0//EN' 'http://www.w3.org/TR/2001/REC-SVG-20010904/DTD/svg10.dtd'>
<svg fill-opacity="1" xmlns:xlink="http://www.w3.org/1999/xlink" color-rendering="auto" color-interpolation="auto" text-rendering="auto" stroke="black" stroke-linecap="square" stroke-miterlimit="10" shape-rendering="auto" stroke-opacity="1" fill="black" stroke-dasharray="none" font-weight="normal" stroke-width="1" xmlns="http://www.w3.org/2000/svg" font-family="&apos;Dialog&apos;" font-style="normal" stroke-linejoin="miter" font-size="12" stroke-dashoffset="0" image-rendering="auto">
  <!--Unicode Character 'HENTAIGANA LETTER RI-7' (U+1B0F7)-->
  <defs id="genericDefs" />
  <g>
    <g>
      <path d="M78.75 138.6562 Q97.875 143.4375 97.875 152.7188 Q97.0312 160.875 78.75 180.8438 Q79.3125 180.8438 79.3125 181.4062 Q108.8438 172.125 117.5625 166.2188 Q118.6875 166.2188 118.6875 165.6562 Q124.875 168.1875 124.875 173.5312 Q124.875 176.9062 99 198.2812 Q72 225.2812 69.75 229.2188 L69.75 232.0312 Q70.0312 233.1562 70.875 233.1562 L73.125 233.1562 Q96.1875 230.9062 96.1875 225.8438 Q109.6875 197.7188 118.125 197.7188 Q132.1875 201.0938 139.5 213.4688 Q139.5 215.4375 140.0625 216.2812 Q140.0625 225.5625 99 239.3438 L82.6875 276.4688 L82.6875 277.0312 L83.25 277.0312 Q97.0312 265.2188 113.0625 265.2188 L114.1875 265.2188 Q125.1562 249.4688 131.0625 242.7188 Q134.4375 244.9688 135.5625 244.9688 L135.5625 246.0938 Q124.875 260.7188 122.0625 268.0312 Q137.25 278.1562 137.25 300.6562 Q137.25 333.2812 113.0625 342.8438 Q101.8125 345.0938 100.125 345.0938 Q82.6875 343.4062 82.6875 333.2812 Q83.25 319.2188 109.125 274.7812 L109.125 273.0938 L106.875 273.0938 Q92.5312 273.0938 76.5 296.7188 Q69.75 308.5312 55.125 347.9062 Q51.1875 352.6875 48.375 354.0938 Q43.3125 354.0938 42.1875 338.3438 Q42.1875 332.7188 54.5625 312.4688 Q68.625 278.4375 87.1875 242.7188 L86.625 242.7188 Q70.875 247.2188 63.5625 247.2188 L62.4375 247.2188 Q55.125 247.2188 55.125 240.4688 Q55.125 232.875 79.3125 206.7188 Q93.9375 189.8438 96.75 185.9062 L96.1875 185.9062 Q67.7812 198 61.875 199.4062 L60.75 199.4062 Q56.25 196.0312 56.25 192.0938 Q56.25 187.875 68.0625 177.4688 Q80.4375 162 81.5625 152.7188 L81.5625 148.7812 Q81.5625 147.375 74.8125 142.5938 L74.8125 141.4688 Q75.9375 141.4688 78.75 138.6562 ZM180 143.1562 Q196.3125 143.1562 196.3125 152.7188 Q195.1875 167.0625 173.25 202.7812 L173.25 203.9062 L173.8125 203.9062 Q205.875 193.7812 205.875 186.4688 Q211.5 169.5938 218.25 169.5938 Q221.3438 169.5938 232.875 182.5312 L232.875 183.6562 Q232.875 188.4375 218.25 196.5938 Q217.125 205.875 217.125 222.4688 L217.125 234.8438 L216.5625 238.7812 Q225.5625 245.8125 225.5625 253.4062 Q225.5625 259.5938 216.5625 274.2188 L216.5625 277.5938 Q216.5625 294.4688 217.6875 306.2812 Q217.6875 313.3125 208.125 315.8438 Q206.1562 315.8438 194.0625 305.1562 Q189.8438 301.7812 188.4375 301.7812 Q169.3125 319.2188 169.3125 323.7188 L169.3125 324.2812 Q169.3125 330.4688 187.3125 332.1562 L201.9375 333.2812 Q218.8125 333.2812 235.6875 328.2188 Q243.2812 328.2188 245.8125 337.2188 Q245.8125 347.3438 205.875 347.3438 L201.375 347.3438 Q165.6562 347.3438 158.0625 333.8438 Q158.0625 332.1562 156.9375 329.3438 Q156.9375 323.4375 170.4375 310.7812 Q179.4375 300.6562 181.6875 296.7188 Q162 276.75 162 273.6562 L162 270.8438 Q166.7812 254.5312 204.1875 237.0938 Q204.1875 221.625 205.3125 202.7812 Q184.7812 211.5 162 225.2812 Q159.75 226.4062 158.625 226.4062 Q154.4062 226.4062 150.75 218.5312 Q152.4375 214.0312 170.4375 185.9062 Q181.6875 162.5625 181.6875 156.6562 Q181.6875 151.3125 171.5625 149.3438 L171.5625 148.7812 Q173.25 143.1562 178.3125 143.1562 L180 143.1562 ZM106.3125 225.2812 L106.3125 225.8438 Q120.0938 222.75 125.4375 216.8438 L125.4375 211.7812 Q122.9062 207.8438 120.375 206.7188 L119.25 206.7188 Q114.1875 206.7188 106.3125 225.2812 ZM171.5625 274.7812 L171.5625 275.9062 Q171.5625 280.125 186.1875 291.0938 Q199.6875 278.4375 204.1875 268.5938 L204.1875 252.8438 L201.375 252.8438 Q191.25 254.5312 173.8125 270.2812 Q171.5625 272.5312 171.5625 274.7812 ZM95.0625 326.5312 Q95.9062 331.0312 100.125 331.0312 L101.8125 331.0312 Q126 331.0312 126 291.6562 Q126 279.8438 118.6875 275.3438 L118.125 275.3438 Q116.1562 275.3438 97.3125 316.9688 Q95.0625 323.7188 95.0625 326.5312 ZM194.0625 296.1562 Q201.6562 300.0938 204.1875 300.0938 L204.1875 286.0312 L203.0625 286.0312 Q194.0625 293.625 194.0625 296.1562 Z" stroke="none" />
    </g>
  </g>
</svg>
