<?xml version="1.0"?>

<!DOCTYPE svg PUBLIC '-//W3C//DTD SVG 1.0//EN' 'http://www.w3.org/TR/2001/REC-SVG-20010904/DTD/svg10.dtd'>
<svg fill-opacity="1" xmlns:xlink="http://www.w3.org/1999/xlink" color-rendering="auto" color-interpolation="auto" text-rendering="auto" stroke="black" stroke-linecap="square" stroke-miterlimit="10" shape-rendering="auto" stroke-opacity="1" fill="black" stroke-dasharray="none" font-weight="normal" stroke-width="1" xmlns="http://www.w3.org/2000/svg" font-family="&apos;Dialog&apos;" font-style="normal" stroke-linejoin="miter" font-size="12" stroke-dashoffset="0" image-rendering="auto">
  <!--Unicode Character 'HENTAIGANA LETTER HO-5' (U+1B0BE)-->
  <defs id="genericDefs" />
  <g>
    <g>
      <path d="M114.75 128.8125 Q124.875 136.6875 159.75 140.625 Q171.5625 140.625 174.9375 149.0625 Q174.9375 154.6875 166.5 156.375 Q153 155.8125 145.125 155.8125 Q132.1875 155.8125 112.5 161.4375 Q110.8125 157.5 110.8125 156.9375 Q123.4688 151.0312 138.375 148.5 L138.375 146.8125 Q125.7188 145.125 111.375 132.1875 Q111.375 131.3438 114.75 128.8125 ZM203.0625 164.25 Q236.5312 164.25 243.5625 179.4375 L244.125 182.8125 L244.125 183.9375 Q244.125 200.25 198 208.125 Q191.25 225.8438 191.25 236.25 L191.25 238.5 Q191.25 240.75 212.625 245.8125 Q219.375 249.4688 219.375 253.125 L219.375 255.375 Q219.375 261.8438 137.8125 285.75 Q108 297.2812 108 303.75 Q108 308.8125 126.5625 308.8125 Q129.0938 308.8125 138.9375 297.5625 Q150.75 285.75 159.1875 285.75 Q164.25 285.75 183.375 300.375 Q183.9375 300.375 185.0625 302.625 L185.0625 304.875 Q185.0625 315.8438 141.75 320.0625 Q132.75 320.0625 128.25 326.8125 L128.25 327.375 Q141.1875 326.8125 141.1875 326.25 Q184.2188 329.3438 217.125 349.3125 Q221.9062 354.0938 223.3125 357.1875 Q223.3125 361.9688 215.4375 363.9375 Q206.7188 363.9375 191.25 352.125 Q159.1875 335.8125 136.6875 335.8125 L135 335.8125 Q120.375 335.8125 86.625 357.75 Q74.8125 363.6562 69.75 363.9375 Q66.375 363.9375 65.25 358.875 Q65.25 345.9375 91.125 340.3125 Q103.7812 335.8125 118.6875 321.1875 L118.6875 320.0625 Q101.25 320.0625 97.875 306 L97.875 305.4375 Q97.875 291.375 164.8125 268.875 Q198 255.375 198 252.5625 L198 251.4375 Q195.4688 250.0312 179.4375 247.5 Q175.5 243 175.5 239.625 Q177.75 224.4375 181.125 210.375 L180 209.8125 L179.4375 209.8125 Q84.6562 299.8125 74.25 299.8125 L73.125 299.8125 Q70.3125 298.9688 70.3125 295.875 Q71.7188 279.5625 78.1875 279.5625 Q97.3125 270.2812 106.3125 262.6875 Q106.3125 261.5625 105.75 261.5625 Q79.3125 256.2188 79.3125 252.5625 L79.3125 250.875 Q79.3125 241.5938 109.125 228.9375 Q111.9375 228.9375 112.5 227.25 L112.5 222.1875 Q112.5 221.3438 110.8125 220.5 L109.6875 220.5 Q99 223.3125 96.1875 223.3125 Q83.25 221.9062 83.25 210.375 Q86.0625 208.6875 87.75 208.6875 L88.3125 208.6875 Q88.3125 211.5 92.8125 212.0625 L93.9375 212.0625 L114.75 207.5625 Q123.1875 207.5625 124.3125 218.8125 L124.3125 228.375 Q127.125 228.375 129.9375 232.3125 L129.9375 233.4375 Q129.9375 235.4062 123.75 247.5 Q123.1875 248.3438 123.1875 250.3125 L123.75 250.3125 Q180 198.5625 183.375 198.5625 L186.75 198 Q188.1562 198 195.75 202.5 Q223.875 194.9062 223.875 183.375 L223.875 182.25 Q223.875 172.125 198.5625 172.125 L195.75 172.125 Q155.5312 172.125 62.4375 209.8125 Q57.6562 210.375 55.125 210.375 Q44.4375 210.375 43.875 198.5625 Q43.875 188.1562 52.3125 179.4375 L56.25 180.5625 L56.25 181.6875 Q54.5625 187.0312 54.5625 188.4375 L54.5625 191.25 Q54.5625 194.0625 63 194.625 Q69.4688 194.625 104.0625 183.375 Q172.125 164.25 203.0625 164.25 ZM95.0625 248.0625 L95.0625 249.75 Q100.9688 254.8125 106.875 254.8125 L109.125 254.8125 Q113.0625 254.8125 113.0625 237.9375 L112.5 237.9375 Q103.5 237.9375 95.0625 248.0625 ZM144 307.6875 Q144.5625 307.6875 144.5625 308.25 Q169.3125 306.2812 169.3125 300.375 Q164.25 294.1875 160.875 294.1875 L158.0625 294.1875 Q146.5312 302.625 144 307.6875 Z" stroke="none" />
    </g>
  </g>
</svg>
