<?xml version="1.0"?>

<!DOCTYPE svg PUBLIC '-//W3C//DTD SVG 1.0//EN' 'http://www.w3.org/TR/2001/REC-SVG-20010904/DTD/svg10.dtd'>
<svg fill-opacity="1" xmlns:xlink="http://www.w3.org/1999/xlink" color-rendering="auto" color-interpolation="auto" text-rendering="auto" stroke="black" stroke-linecap="square" stroke-miterlimit="10" shape-rendering="auto" stroke-opacity="1" fill="black" stroke-dasharray="none" font-weight="normal" stroke-width="1" xmlns="http://www.w3.org/2000/svg" font-family="&apos;Dialog&apos;" font-style="normal" stroke-linejoin="miter" font-size="12" stroke-dashoffset="0" image-rendering="auto">
  <!--Unicode Character 'HENTAIGANA LETTER KU-4' (U+1B02E)-->
  <defs id="genericDefs" />
  <g>
    <g>
      <path d="M204.75 136.9688 Q219.9375 139.2188 219.9375 150.4688 Q219.9375 159.4688 204.1875 186.4688 L204.1875 188.1562 Q212.9062 187.0312 221.0625 187.0312 L224.4375 187.0312 Q240.4688 187.0312 246.9375 198.8438 L246.9375 199.9688 Q246.9375 204.75 240.1875 205.5938 L239.0625 205.5938 Q210.6562 200.5312 196.875 200.5312 Q193.5 202.5 166.5 235.4062 L166.5 236.5312 L168.75 236.5312 Q176.9062 236.5312 190.125 234.2812 Q203.0625 238.2188 203.0625 244.4062 Q203.0625 246.9375 189.5625 266.3438 Q167.0625 304.5938 165.375 321.4688 L165.375 324.8438 Q166.2188 327.0938 170.4375 327.0938 Q232.875 327.0938 232.875 343.9688 Q232.875 347.9062 225.5625 349.5938 Q201.0938 341.1562 199.6875 341.1562 Q194.3438 339.4688 162.5625 337.7812 Q154.6875 334.125 154.6875 327.0938 Q154.6875 313.5938 183.9375 248.3438 L183.9375 247.2188 L182.8125 246.6562 L182.25 246.6562 Q163.4062 250.0312 158.625 250.0312 Q149.0625 250.0312 149.0625 241.0312 Q149.0625 237.9375 162.5625 228.0938 Q180.5625 204.4688 180.5625 201.6562 Q157.5 201.6562 117.5625 219.6562 L114.1875 215.1562 L114.1875 214.5938 Q122.0625 207.5625 146.8125 198.2812 L146.8125 197.7188 Q133.3125 187.5938 133.3125 171.2812 Q133.3125 156.0938 145.125 140.9062 Q148.5 141.1875 148.5 142.5938 L148.5 143.1562 Q145.6875 154.4062 145.6875 163.4062 Q146.8125 178.0312 150.75 178.0312 Q151.875 178.0312 168.1875 160.0312 Q171 161.4375 171 164.5312 Q161.7188 173.8125 156.375 193.2188 Q154.4062 194.3438 153.5625 196.5938 Q154.125 196.5938 154.125 197.1562 Q165.375 193.7812 187.3125 190.4062 Q200.8125 169.875 200.8125 153.8438 L200.8125 149.3438 Q199.9688 147.0938 196.875 147.0938 L195.75 147.0938 Q191.5312 147.0938 186.75 151.5938 L185.625 151.5938 Q185.625 151.0312 183.9375 147.6562 Q191.25 136.9688 204.75 136.9688 ZM56.8125 141.4688 Q77.0625 156.375 77.0625 169.5938 L77.0625 170.7188 Q77.0625 173.5312 63 218.5312 Q52.875 268.0312 52.875 298.4062 Q54 319.7812 56.25 319.7812 Q70.0312 280.6875 81.5625 258.4688 Q82.4062 258.4688 86.625 263.5312 Q65.8125 316.9688 65.8125 347.9062 Q65.8125 352.4062 58.5 355.7812 Q48.6562 355.7812 44.4375 325.4062 Q41.0625 311.0625 41.0625 293.3438 Q41.0625 246.0938 59.0625 178.5938 Q60.1875 174.0938 60.1875 167.9062 L60.1875 162.2812 Q60.1875 154.6875 52.875 145.4062 L52.875 144.8438 Q53.1562 144.8438 56.8125 141.4688 Z" stroke="none" />
    </g>
  </g>
</svg>
