<?xml version="1.0"?>

<!DOCTYPE svg PUBLIC '-//W3C//DTD SVG 1.0//EN' 'http://www.w3.org/TR/2001/REC-SVG-20010904/DTD/svg10.dtd'>
<svg fill-opacity="1" xmlns:xlink="http://www.w3.org/1999/xlink" color-rendering="auto" color-interpolation="auto" text-rendering="auto" stroke="black" stroke-linecap="square" stroke-miterlimit="10" shape-rendering="auto" stroke-opacity="1" fill="black" stroke-dasharray="none" font-weight="normal" stroke-width="1" xmlns="http://www.w3.org/2000/svg" font-family="&apos;Dialog&apos;" font-style="normal" stroke-linejoin="miter" font-size="12" stroke-dashoffset="0" image-rendering="auto">
  <!--Unicode Character 'HENTAIGANA LETTER HE-4' (U+1B0B6)-->
  <defs id="genericDefs" />
  <g>
    <g>
      <path d="M112.2188 136.9688 Q119.5312 147.6562 133.5938 147.6562 L138.0938 147.6562 Q153.8438 147.6562 164.5312 139.7812 Q167.625 139.2188 169.0312 139.2188 Q184.2188 142.875 184.2188 151.0312 Q184.2188 156.0938 162.8438 166.7812 Q113.0625 201.0938 73.9688 257.3438 Q65.5312 271.6875 65.5312 273.0938 L65.5312 273.6562 Q148.5 192.6562 174.0938 192.6562 Q189.2812 192.6562 189.2812 218.5312 Q189.2812 221.625 195.4688 222.4688 L203.3438 222.4688 Q232.3125 222.4688 242.7188 251.1562 Q244.4062 258.75 244.4062 262.4062 Q244.4062 289.4062 216.8438 307.4062 Q201.6562 315.8438 180.8438 315.8438 Q163.9688 315.8438 153.2812 305.7188 Q135.8438 319.2188 115.5938 319.2188 Q113.3438 315.2812 113.3438 313.5938 Q113.3438 312.75 126.2812 310.7812 Q145.6875 304.0312 154.4062 287.7188 Q160.5938 273.6562 160.5938 268.5938 L160.0312 268.5938 Q147.375 268.5938 122.9062 276.4688 Q122.9062 288.8438 127.4062 288.8438 Q132.1875 288.8438 137.5312 275.9062 L138.6562 275.9062 Q139.5 275.9062 141.4688 278.7188 Q132.1875 304.0312 122.3438 304.0312 Q111.9375 304.0312 110.5312 283.7812 L110.5312 283.2188 L109.9688 283.2188 Q106.875 283.2188 94.7812 292.2188 L94.2188 292.2188 Q89.4375 288.8438 89.1562 287.7188 Q99.5625 278.1562 110.5312 271.9688 Q112.5 242.1562 125.1562 242.1562 Q125.1562 241.5938 126.8438 241.5938 Q131.0625 241.5938 134.7188 244.9688 L134.7188 245.5312 Q133.5938 246.9375 133.5938 247.7812 L127.9688 247.7812 Q123.75 247.7812 122.9062 262.4062 L122.9062 266.3438 Q146.25 260.1562 161.1562 257.9062 L161.1562 253.9688 Q161.1562 238.7812 157.2188 238.7812 L154.9688 238.7812 L150.4688 242.1562 Q149.625 242.1562 147.6562 239.3438 Q154.6875 228.0938 162.8438 228.0938 L162.8438 227.5312 Q175.2188 230.3438 175.2188 252.2812 L175.2188 256.2188 Q183.6562 255.6562 187.0312 255.6562 Q208.4062 257.3438 208.4062 266.3438 L208.4062 266.9062 Q208.4062 270 202.2188 270.8438 Q188.7188 267.4688 180.8438 267.4688 L174.0938 267.4688 Q174.0938 279.2812 160.5938 298.4062 Q159.1875 298.4062 158.9062 301.2188 Q167.9062 306.2812 179.7188 306.2812 L182.5312 306.2812 Q210.6562 306.2812 225.8438 275.3438 Q228.0938 268.5938 228.0938 260.7188 Q228.0938 234.5625 199.9688 230.3438 L196.5938 230.3438 Q191.5312 230.3438 183.0938 232.0312 Q172.9688 232.0312 172.9688 208.4062 Q170.7188 204.1875 169.0312 203.9062 L166.2188 203.9062 Q149.9062 206.4375 106.0312 247.2188 Q63.8438 292.2188 63.8438 302.9062 Q59.9062 309.0938 55.9688 309.0938 Q51.75 309.0938 45.2812 298.4062 L43.5938 292.2188 Q50.625 273.9375 87.4688 226.4062 Q103.5 205.5938 153.2812 158.9062 L153.2812 158.3438 L152.1562 158.3438 Q144 160.0312 140.9062 160.0312 L136.9688 160.0312 Q117.2812 160.0312 107.1562 141.4688 L107.1562 140.3438 Q110.25 136.9688 112.2188 136.9688 ZM94.7812 316.9688 Q94.7812 318.0938 97.0312 320.9062 Q94.2188 324.2812 94.2188 327.6562 Q94.2188 342.2812 154.4062 342.2812 L155.5312 342.2812 Q178.875 342.2812 207.2812 332.1562 L210.6562 332.1562 Q220.2188 333.5625 220.2188 340.0312 Q220.2188 353.25 153.8438 355.7812 Q95.9062 355.7812 84.6562 337.2188 Q83.5312 333.5625 83.5312 332.1562 L83.5312 331.5938 Q83.5312 320.9062 94.2188 316.9688 L94.7812 316.9688 Z" stroke="none" />
    </g>
  </g>
</svg>
