<?xml version="1.0" encoding="UTF-8" standalone="no"?>
<svg
   xmlns:dc="http://purl.org/dc/elements/1.1/"
   xmlns:cc="http://creativecommons.org/ns#"
   xmlns:rdf="http://www.w3.org/1999/02/22-rdf-syntax-ns#"
   xmlns:svg="http://www.w3.org/2000/svg"
   xmlns="http://www.w3.org/2000/svg"
   xmlns:sodipodi="http://sodipodi.sourceforge.net/DTD/sodipodi-0.dtd"
   xmlns:inkscape="http://www.inkscape.org/namespaces/inkscape"
   fill-opacity="1"
   color-rendering="auto"
   color-interpolation="auto"
   text-rendering="auto"
   stroke="black"
   stroke-linecap="square"
   stroke-miterlimit="10"
   shape-rendering="auto"
   stroke-opacity="1"
   fill="black"
   stroke-dasharray="none"
   font-weight="normal"
   stroke-width="1"
   font-family="'Dialog'"
   font-style="normal"
   stroke-linejoin="miter"
   font-size="12"
   stroke-dashoffset="0"
   image-rendering="auto"
   version="1.1"
   id="svg9"
   sodipodi:docname="hentaigana_letter_so1.svg"
   inkscape:version="0.92.4 (5da689c313, 2019-01-14)">
  <metadata
     id="metadata13">
    <rdf:RDF>
      <cc:Work
         rdf:about="">
        <dc:format>image/svg+xml</dc:format>
        <dc:type
           rdf:resource="http://purl.org/dc/dcmitype/StillImage" />
      </cc:Work>
    </rdf:RDF>
  </metadata>
  <sodipodi:namedview
     pagecolor="#ffffff"
     bordercolor="#666666"
     borderopacity="1"
     objecttolerance="10"
     gridtolerance="10"
     guidetolerance="10"
     inkscape:pageopacity="0"
     inkscape:pageshadow="2"
     inkscape:window-width="1920"
     inkscape:window-height="986"
     id="namedview11"
     showgrid="false"
     inkscape:zoom="2.36"
     inkscape:cx="50"
     inkscape:cy="50"
     inkscape:window-x="-11"
     inkscape:window-y="-11"
     inkscape:window-maximized="1"
     inkscape:current-layer="svg9" />
  <!--Unicode Character 'HENTAIGANA LETTER SO-1' (U+1B057)-->
  <defs
     id="genericDefs" />
  <g
     id="g7"
     transform="matrix(0.45794598,0,0,0.4601381,-16.012016,-63.177969)">
    <g
       id="g5">
      <path
         d="m 152.4375,145.125 q 7.0313,0 11.8125,6.75 V 153 q 0,6.4688 -13.5,11.25 -16.3125,9.5625 -16.3125,44.4375 v 48.9375 q 0,29.8125 1.125,74.8125 0,11.25 -10.6875,15.1875 h -0.5625 q -4.5,0 -10.6875,-14.0625 -11.25,-14.625 -27.5625,-24.1875 v -0.5625 q 1.6875,-3.9375 1.6875,-4.5 l 32.625,15.75 h 0.5625 q -0.5625,-88.3125 -1.125,-102.375 0,-37.6875 14.0625,-49.5 l 1.6875,-2.8125 q -0.5625,0 -0.5625,-0.5625 -18.5625,7.3125 -34.875,7.3125 -21.0938,0 -28.6875,-16.875 v -0.5625 l 3.375,-2.8125 q 0,3.0938 19.125,7.3125 H 96.75 q 28.4062,0 52.3125,-13.5 3.0937,-0.5625 3.375,-0.5625 z m 18,81 q 9.8437,0 18.5625,16.875 26.1562,-12.375 38.25,-12.375 13.5,0 21.375,15.75 1.6875,6.4688 1.6875,10.125 0,30.9375 -63.5625,59.0625 h -1.125 q -3.375,-3.0937 -3.375,-5.625 31.7812,-14.3437 47.25,-39.375 2.25,-5.9063 2.25,-14.0625 0,-16.3125 -10.125,-16.3125 -14.0625,0 -28.6875,16.3125 -4.7813,12.6562 -7.3125,12.9375 L 182.8125,270 q -8.1563,0 -10.6875,-25.875 -2.25,-7.3125 -7.3125,-7.3125 h -1.125 q -2.5313,0 -7.875,2.25 l -2.25,-3.9375 q 7.0313,-9 16.875,-9 z M 52.875,251.4375 q 0.8438,0 3.375,3.375 -4.5,11.5313 -4.5,17.4375 v 3.375 q 0,3.0938 2.25,3.9375 h 1.6875 q 11.25,-1.4063 42.1875,-24.1875 H 99 q 1.6875,3.0938 1.6875,4.5 -19.4063,20.25 -41.0625,37.6875 -6.4688,2.8125 -8.4375,2.8125 -13.5,-2.8125 -13.5,-19.125 v -3.375 q 0,-15.4688 15.1875,-26.4375 z"
         id="path3"
         inkscape:connector-curvature="0"
         style="stroke:none" />
    </g>
  </g>
</svg>
