<?xml version="1.0"?>

<!DOCTYPE svg PUBLIC '-//W3C//DTD SVG 1.0//EN' 'http://www.w3.org/TR/2001/REC-SVG-20010904/DTD/svg10.dtd'>
<svg fill-opacity="1" xmlns:xlink="http://www.w3.org/1999/xlink" color-rendering="auto" color-interpolation="auto" text-rendering="auto" stroke="black" stroke-linecap="square" stroke-miterlimit="10" shape-rendering="auto" stroke-opacity="1" fill="black" stroke-dasharray="none" font-weight="normal" stroke-width="1" xmlns="http://www.w3.org/2000/svg" font-family="&apos;Dialog&apos;" font-style="normal" stroke-linejoin="miter" font-size="12" stroke-dashoffset="0" image-rendering="auto">
  <!--Unicode Character 'HENTAIGANA LETTER RE-4' (U+1B101)-->
  <defs id="genericDefs" />
  <g>
    <g>
      <path d="M171.2812 129.6562 Q179.7188 131.625 179.7188 137.5312 Q179.7188 142.875 157.2188 149.9062 Q143.7188 156.9375 135.2812 176.9062 Q133.0312 181.4062 130.7812 189.2812 Q131.3438 189.2812 131.3438 189.8438 Q150.75 184.2188 166.7812 180.2812 L166.7812 179.7188 Q166.7812 165.6562 156.6562 165.6562 L156.6562 164.5312 Q156.6562 159.4688 165.6562 159.4688 Q180.2812 159.4688 180.2812 172.9688 L180.2812 177.4688 Q181.4062 177.4688 181.4062 178.0312 Q190.9688 175.7812 200.5312 175.7812 L202.7812 175.7812 Q220.7812 177.1875 220.7812 187.5938 L220.7812 188.1562 Q220.7812 200.25 180.2812 216.2812 Q172.9688 216.2812 166.7812 230.3438 Q160.5938 238.7812 154.4062 245.5312 L154.4062 246.6562 L154.9688 246.6562 Q187.875 233.1562 199.9688 233.1562 Q212.3438 235.125 212.3438 242.1562 Q212.3438 248.9062 189.8438 254.5312 Q169.0312 263.25 118.4062 301.7812 Q115.0312 304.3125 115.0312 306.8438 L115.0312 320.3438 Q115.0312 325.125 115.5938 334.4062 L117.2812 334.4062 Q125.7188 328.2188 141.4688 313.0312 Q142.3125 313.0312 144.2812 316.4062 L144.2812 316.9688 Q120.6562 347.0625 120.6562 354.0938 Q116.7188 360.8438 112.7812 360.8438 Q102.9375 360.8438 102.0938 337.2188 Q101.5312 322.3125 101.5312 315.2812 L100.4062 315.2812 Q51.1875 357.4688 46.9688 357.4688 Q46.9688 358.5938 40.2188 359.7188 Q37.125 359.7188 34.5938 355.2188 L34.5938 352.9688 Q34.5938 351.8438 43.0312 338.9062 Q44.4375 331.0312 46.4062 331.0312 L49.2188 332.7188 L48.6562 333.8438 L48.6562 335.5312 Q48.6562 341.7188 50.3438 341.7188 Q84.9375 317.25 100.9688 304.0312 Q97.875 298.9688 90.8438 298.9688 L90.8438 298.4062 Q90.8438 293.625 95.9062 292.7812 Q101.8125 292.7812 112.2188 295.5938 Q145.4062 270.8438 182.5312 246.0938 L182.5312 245.5312 L181.9688 245.5312 Q138.375 257.625 109.4062 271.9688 Q98.1562 277.5938 89.7188 277.5938 Q74.5312 277.5938 68.3438 254.5312 L68.3438 253.4062 Q72.2812 251.1562 73.4062 251.1562 Q79.875 261.2812 86.3438 261.2812 L91.4062 261.2812 Q108.2812 261.2812 144.2812 248.9062 Q165.6562 222.4688 165.6562 188.1562 Q157.2188 188.1562 128.5312 198.8438 Q127.4062 207.5625 127.4062 220.7812 Q127.4062 221.625 127.9688 228.6562 L129.6562 228.6562 Q132.1875 226.9688 142.0312 212.3438 Q143.1562 212.3438 145.4062 215.1562 Q134.1562 247.7812 124.5938 247.7812 L123.4688 247.7812 Q115.5938 243.2812 115.5938 229.7812 L115.5938 223.0312 Q116.1562 210.0938 116.1562 203.3438 Q109.4062 203.9062 90.8438 220.2188 Q88.5938 221.3438 86.9062 221.3438 Q81 221.3438 77.9062 205.5938 Q77.9062 192.6562 82.9688 190.9688 L84.0938 190.9688 Q85.5 190.9688 86.9062 200.5312 L89.7188 202.7812 L91.4062 202.7812 Q120.0938 194.3438 120.0938 189.8438 Q129.9375 165.375 137.5312 153.8438 L137.5312 152.7188 Q131.9062 153.2812 129.0938 153.2812 L127.9688 153.2812 Q112.5 153.2812 104.9062 143.1562 Q106.3125 139.7812 108.2812 139.7812 Q113.3438 142.5938 118.4062 142.5938 L123.4688 142.5938 Q142.0312 142.5938 168.4688 129.6562 L171.2812 129.6562 ZM179.7188 185.9062 Q178.5938 201.0938 175.2188 210.6562 L176.3438 211.2188 Q199.9688 199.4062 199.9688 190.4062 L199.9688 188.7188 Q199.9688 184.2188 193.2188 184.2188 Q184.5 184.7812 179.7188 185.9062 ZM189.8438 278.1562 Q199.9688 280.4062 199.9688 295.0312 Q199.9688 298.125 198.2812 319.7812 L198.2812 320.9062 Q198.8438 325.4062 201.6562 325.4062 Q229.2188 323.1562 231.4688 323.1562 Q253.4062 323.1562 253.4062 333.2812 Q253.4062 349.5938 172.4062 363.0938 Q168.4688 361.4062 168.4688 357.4688 Q210.0938 348.4688 228.6562 338.9062 Q231.4688 335.8125 231.4688 335.5312 L231.4688 334.4062 Q231.4688 333.5625 229.2188 332.1562 L224.1562 332.1562 Q219.6562 332.1562 194.3438 337.2188 Q183.0938 337.2188 183.0938 321.4688 Q184.7812 306 184.7812 301.2188 L184.7812 295.0312 Q183.9375 288.8438 181.9688 288.8438 L181.4062 288.8438 Q173.25 290.8125 166.7812 299.5312 L166.2188 299.5312 Q163.9688 295.3125 163.9688 293.9062 Q180.8438 278.1562 189.8438 278.1562 Z" stroke="none" />
    </g>
  </g>
</svg>
