<?xml version="1.0"?>

<!DOCTYPE svg PUBLIC '-//W3C//DTD SVG 1.0//EN' 'http://www.w3.org/TR/2001/REC-SVG-20010904/DTD/svg10.dtd'>
<svg fill-opacity="1" xmlns:xlink="http://www.w3.org/1999/xlink" color-rendering="auto" color-interpolation="auto" text-rendering="auto" stroke="black" stroke-linecap="square" stroke-miterlimit="10" shape-rendering="auto" stroke-opacity="1" fill="black" stroke-dasharray="none" font-weight="normal" stroke-width="1" xmlns="http://www.w3.org/2000/svg" font-family="&apos;Dialog&apos;" font-style="normal" stroke-linejoin="miter" font-size="12" stroke-dashoffset="0" image-rendering="auto">
  <!--Unicode Character 'HENTAIGANA LETTER MA-4' (U+1B0C5)-->
  <defs id="genericDefs" />
  <g>
    <g>
      <path d="M48.375 141.1875 Q75.9375 154.6875 75.9375 172.125 Q75.9375 179.1562 58.5 223.875 Q48.9375 259.5938 48.9375 289.6875 Q48.9375 310.2188 54.5625 320.0625 Q55.9688 318.0938 61.3125 299.25 L73.6875 268.875 Q75.0938 268.875 79.875 271.6875 L79.875 272.8125 Q65.8125 306.8438 65.8125 343.6875 Q63.5625 351.5625 57.9375 351.5625 Q47.25 351.5625 39.9375 313.875 Q37.6875 301.2188 37.6875 288.5625 Q37.6875 255.6562 56.8125 185.0625 Q58.5 173.8125 58.5 169.3125 L58.5 165.375 Q58.5 155.5312 44.4375 146.8125 Q45.8438 141.1875 48.375 141.1875 ZM173.25 146.25 Q178.5938 146.25 194.0625 159.75 Q200.5312 164.8125 213.1875 171 Q215.4375 173.5312 215.4375 176.0625 Q215.4375 184.5 186.75 184.5 Q156.9375 187.0312 156.9375 190.125 Q152.4375 209.8125 152.4375 217.125 L153 217.125 Q169.0312 211.5 181.125 211.5 Q229.5 211.5 229.5 271.125 Q229.5 282.9375 223.3125 302.625 Q223.3125 303.75 237.375 315 Q250.3125 327.0938 250.3125 336.9375 Q250.3125 342 244.125 344.8125 Q239.3438 344.8125 226.125 324.5625 Q217.6875 316.125 216 316.125 Q195.4688 345.375 165.9375 345.375 Q152.7188 345.375 137.8125 335.8125 L136.6875 335.8125 Q130.5 339.75 114.1875 342 Q92.25 338.625 92.25 321.75 Q91.6875 321.75 91.6875 320.625 Q91.6875 301.5 119.8125 285.1875 Q119.8125 252.5625 144.5625 240.75 Q149.625 239.625 150.75 239.625 Q171 239.625 177.1875 259.3125 Q178.3125 263.8125 178.875 269.4375 Q178.0312 279.5625 177.1875 279.5625 Q177.1875 282.0938 192.375 285.75 L210.375 294.1875 Q214.3125 283.7812 214.3125 269.4375 Q214.3125 220.5 185.0625 220.5 Q165.9375 220.5 147.375 231.75 L146.25 232.3125 Q137.25 228.375 137.25 221.0625 Q137.25 217.4062 141.75 194.0625 L141.75 193.5 L141.1875 193.5 Q123.75 199.6875 105.1875 215.4375 L101.25 210.9375 Q122.3438 188.7188 144 182.25 Q146.25 182.25 152.4375 164.25 Q162 146.25 173.25 146.25 ZM161.4375 176.625 L162 176.625 Q185.9062 172.6875 193.5 172.6875 L193.5 171 Q179.7188 154.125 175.5 154.125 L173.8125 154.125 Q168.4688 154.125 161.4375 176.625 ZM128.8125 281.8125 L129.375 281.8125 Q144.8438 278.4375 151.875 278.4375 L162.5625 278.4375 L163.125 275.625 L163.125 264.375 Q163.125 248.0625 149.0625 248.0625 Q136.4062 248.0625 129.375 273.9375 Q128.8125 277.3125 128.8125 281.8125 ZM129.375 293.625 Q129.375 305.1562 139.5 322.3125 Q140.625 322.3125 140.625 322.875 Q153.8438 312.4688 159.75 290.25 L159.75 289.6875 L153 289.125 L151.875 289.125 Q135.8438 289.125 129.375 293.625 ZM147.9375 329.625 Q154.4062 334.125 162.5625 334.125 L165.375 334.125 Q189.5625 334.125 204.75 307.125 L204.75 306.5625 Q186.75 295.0312 174.375 293.0625 L166.5 308.25 Q161.7188 315.8438 147.9375 329.625 ZM101.8125 318.375 L101.8125 322.3125 Q101.8125 333 118.125 333 Q127.4062 333 131.625 329.0625 L131.625 327.9375 Q122.3438 313.875 120.375 297.5625 Q109.6875 301.5 102.9375 313.3125 Q101.8125 316.9688 101.8125 318.375 Z" stroke="none" />
    </g>
  </g>
</svg>
