<?xml version="1.0"?>

<!DOCTYPE svg PUBLIC '-//W3C//DTD SVG 1.0//EN' 'http://www.w3.org/TR/2001/REC-SVG-20010904/DTD/svg10.dtd'>
<svg fill-opacity="1" xmlns:xlink="http://www.w3.org/1999/xlink" color-rendering="auto" color-interpolation="auto" text-rendering="auto" stroke="black" stroke-linecap="square" stroke-miterlimit="10" shape-rendering="auto" stroke-opacity="1" fill="black" stroke-dasharray="none" font-weight="normal" stroke-width="1" xmlns="http://www.w3.org/2000/svg" font-family="&apos;Dialog&apos;" font-style="normal" stroke-linejoin="miter" font-size="12" stroke-dashoffset="0" image-rendering="auto">
  <!--Unicode Character 'HENTAIGANA LETTER WI-5' (U+1B111)-->
  <defs id="genericDefs" />
  <g>
    <g>
      <path d="M130.5 135.2812 L132.75 135.2812 Q156.9375 135.2812 156.9375 151.5938 Q154.6875 179.1562 154.6875 196.0312 L155.8125 196.0312 Q178.3125 180.2812 178.3125 171.2812 L178.3125 169.5938 Q178.3125 164.25 169.875 160.0312 Q171.5625 156.0938 173.25 156.0938 Q197.4375 161.7188 197.4375 172.9688 Q197.4375 184.2188 168.1875 197.7188 L154.125 207.2812 Q153.5625 221.3438 153.5625 229.7812 L153.5625 234.2812 Q154.6875 234.2812 154.6875 234.8438 Q190.6875 225 190.6875 218.5312 L190.6875 216.2812 Q182.25 205.875 182.25 203.3438 Q185.625 200.5312 186.1875 200.5312 Q198 211.7812 205.875 215.1562 Q207.5625 217.125 207.5625 219.0938 L207.5625 219.6562 Q207.5625 232.0312 153.5625 247.7812 L153.5625 254.5312 Q153.5625 258.75 164.8125 260.7188 Q168.1875 264.375 168.1875 269.1562 L165.9375 281.5312 Q166.7812 283.7812 167.625 283.7812 L182.8125 283.7812 Q205.3125 283.7812 205.3125 297.8438 Q205.3125 305.4375 188.4375 314.7188 Q169.5938 320.3438 154.6875 320.3438 Q135 320.3438 118.6875 309.6562 L118.6875 309.0938 Q119.5312 302.9062 121.5 302.9062 Q135.5625 309.0938 153 309.0938 L155.25 309.0938 Q176.625 309.0938 185.625 298.4062 Q186.1875 297.2812 186.1875 296.1562 L186.1875 294.4688 Q183.6562 290.5312 178.875 290.5312 Q168.75 291.0938 160.875 292.7812 Q151.3125 289.9688 151.3125 286.5938 Q152.4375 280.9688 152.4375 269.7188 Q152.4375 267.1875 142.875 263.5312 Q141.1875 261.5625 141.1875 256.7812 L141.1875 252.2812 Q140.0625 252.2812 140.0625 251.7188 Q103.5 262.4062 94.5 262.4062 Q88.5938 262.4062 86.625 252.8438 Q87.4688 246.375 113.625 229.7812 Q138.0938 211.2188 141.1875 207.2812 L141.1875 203.3438 Q141.1875 199.4062 141.75 190.9688 L141.1875 190.9688 Q117.2812 210.0938 113.0625 210.0938 Q111.9375 210.0938 110.8125 210.6562 Q102.0938 210.6562 100.125 196.0312 L100.125 194.3438 Q100.125 183.0938 108 172.9688 L108.5625 172.9688 Q111.9375 174.375 111.9375 175.2188 L111.9375 187.5938 Q111.9375 191.8125 114.1875 192.6562 L117.5625 192.6562 Q126 191.25 141.75 181.9688 L141.75 175.7812 Q141.75 143.7188 135.5625 143.7188 Q126 141.1875 126 140.3438 Q126 135.2812 130.5 135.2812 ZM106.3125 244.4062 Q106.5938 245.5312 107.4375 245.5312 Q114.75 245.5312 141.1875 238.7812 L141.1875 217.9688 L140.625 217.9688 Q107.1562 243 106.3125 244.4062 ZM79.875 293.3438 Q81.5625 297.8438 81.5625 298.9688 Q73.6875 302.625 73.6875 309.0938 L73.6875 313.5938 Q73.6875 331.3125 123.1875 341.1562 Q132.75 342.2812 142.875 342.2812 L150.75 342.2812 Q186.1875 342.2812 211.5 333.8438 Q213.75 333.8438 213.75 333.2812 Q227.25 336.375 227.25 343.4062 Q227.25 354.375 160.3125 357.4688 L147.9375 357.4688 Q84.6562 357.4688 63.5625 325.4062 Q60.75 318.0938 60.75 313.5938 Q60.75 299.8125 79.3125 293.3438 L79.875 293.3438 Z" stroke="none" />
    </g>
  </g>
</svg>
