<?xml version="1.0"?>

<!DOCTYPE svg PUBLIC '-//W3C//DTD SVG 1.0//EN' 'http://www.w3.org/TR/2001/REC-SVG-20010904/DTD/svg10.dtd'>
<svg fill-opacity="1" xmlns:xlink="http://www.w3.org/1999/xlink" color-rendering="auto" color-interpolation="auto" text-rendering="auto" stroke="black" stroke-linecap="square" stroke-miterlimit="10" shape-rendering="auto" stroke-opacity="1" fill="black" stroke-dasharray="none" font-weight="normal" stroke-width="1" xmlns="http://www.w3.org/2000/svg" font-family="&apos;Dialog&apos;" font-style="normal" stroke-linejoin="miter" font-size="12" stroke-dashoffset="0" image-rendering="auto">
  <!--Unicode Character 'HENTAIGANA LETTER YA-3' (U+1B0DF)-->
  <defs id="genericDefs" />
  <g>
    <g>
      <path d="M154.125 139.2188 Q166.5 140.9062 166.5 148.7812 Q166.5 153 147.9375 158.9062 Q128.5312 174.375 121.5 189.8438 Q103.2188 219.375 97.3125 234.8438 L98.4375 234.8438 Q140.0625 201.9375 158.0625 196.0312 Q168.1875 189.2812 171.5625 189.2812 Q179.4375 189.2812 183.9375 201.6562 L183.9375 203.3438 Q178.0312 210.6562 147.375 237.0938 L147.375 239.3438 Q149.0625 240.75 167.0625 245.5312 Q178.3125 252 178.3125 259.0312 Q177.4688 267.4688 169.875 279.2812 L169.875 280.9688 Q174.9375 286.0312 174.9375 289.9688 Q174.9375 303.4688 129.375 331.0312 Q128.25 333 128.25 334.4062 Q133.0312 339.4688 151.3125 339.4688 L165.9375 339.4688 Q196.875 339.4688 196.875 328.7812 Q198.8438 277.0312 200.8125 277.0312 L201.375 277.0312 Q205.875 277.0312 205.875 288.2812 Q205.875 319.7812 212.625 326.5312 Q214.5938 326.5312 216.5625 333.2812 Q216.5625 343.6875 195.1875 349.0312 Q175.2188 353.5312 160.875 353.5312 Q113.0625 353.5312 113.0625 340.0312 Q113.0625 333.5625 128.25 324.8438 Q140.625 314.4375 140.625 313.5938 L140.625 312.4688 L140.0625 312.4688 Q118.6875 312.4688 113.0625 294.4688 Q113.0625 289.125 124.875 282.6562 Q137.25 277.5938 147.375 277.5938 L156.9375 277.5938 Q160.875 273.375 160.875 261.8438 Q160.875 252.8438 137.25 249.4688 Q134.4375 246.6562 134.4375 243.2812 Q134.4375 241.0312 148.5 225.2812 Q161.4375 208.9688 161.4375 205.5938 L160.875 205.5938 Q132.1875 215.1562 99.5625 242.7188 Q79.875 266.9062 52.875 349.0312 Q50.0625 351.2812 48.375 351.2812 Q42.75 349.3125 37.6875 339.4688 L37.6875 338.3438 Q44.1562 321.1875 92.25 226.4062 Q107.7188 193.5 126 162.8438 L126 161.1562 L120.375 161.1562 Q103.5 161.1562 96.75 148.7812 L96.75 148.2188 L100.125 145.4062 Q107.1562 148.2188 117.5625 148.2188 Q131.9062 148.2188 151.3125 139.7812 Q152.1562 139.2188 154.125 139.2188 ZM222.75 202.2188 L223.3125 202.2188 Q241.5938 202.2188 249.75 224.7188 Q249.75 225.2812 250.3125 229.2188 Q250.3125 237.0938 242.4375 239.9062 Q235.125 239.9062 230.625 218.5312 Q225.5625 209.5312 218.8125 209.5312 L215.4375 209.5312 Q214.3125 209.5312 213.1875 210.0938 Q210.9375 209.5312 209.8125 206.1562 Q216.2812 202.2188 222.75 202.2188 ZM123.75 296.7188 Q123.75 302.0625 132.75 304.5938 L137.25 304.5938 Q149.0625 304.5938 154.6875 288.2812 L154.6875 287.7188 Q150.1875 286.5938 144 286.5938 L140.0625 286.5938 Q123.75 289.125 123.75 296.7188 Z" stroke="none" />
    </g>
  </g>
</svg>
