<?xml version="1.0"?>

<!DOCTYPE svg PUBLIC '-//W3C//DTD SVG 1.0//EN' 'http://www.w3.org/TR/2001/REC-SVG-20010904/DTD/svg10.dtd'>
<svg fill-opacity="1" xmlns:xlink="http://www.w3.org/1999/xlink" color-rendering="auto" color-interpolation="auto" text-rendering="auto" stroke="black" stroke-linecap="square" stroke-miterlimit="10" shape-rendering="auto" stroke-opacity="1" fill="black" stroke-dasharray="none" font-weight="normal" stroke-width="1" xmlns="http://www.w3.org/2000/svg" font-family="&apos;Dialog&apos;" font-style="normal" stroke-linejoin="miter" font-size="12" stroke-dashoffset="0" image-rendering="auto">
  <!--Unicode Character 'HENTAIGANA LETTER YA-4' (U+1B0E0)-->
  <defs id="genericDefs" />
  <g>
    <g>
      <path d="M69.75 130.5 Q88.3125 147.9375 109.6875 147.9375 L116.4375 147.9375 Q127.6875 149.0625 127.6875 156.375 Q126 163.6875 114.75 163.6875 Q98.4375 163.6875 77.0625 148.5 Q65.25 137.5312 65.25 133.875 L69.75 130.5 ZM214.3125 155.8125 Q231.75 155.8125 238.5 169.3125 Q239.0625 172.4062 239.0625 174.375 Q239.0625 192.375 213.1875 218.8125 L211.5 221.0625 L211.5 225 Q232.3125 244.6875 236.25 254.25 Q240.75 266.3438 240.75 275.0625 L240.75 278.4375 Q240.75 307.6875 213.75 318.9375 Q207 320.0625 205.3125 320.0625 Q200.5312 320.0625 189 316.6875 Q189 335.25 173.8125 362.25 Q167.625 360.5625 167.625 358.875 Q175.5 336.6562 175.5 311.625 L175.5 310.5 Q135.5625 283.5 135.5625 257.0625 L135.5625 255.375 Q135.5625 230.0625 164.8125 210.375 Q171 208.6875 173.8125 208.6875 Q184.2188 208.6875 188.4375 221.0625 Q190.6875 242.7188 190.6875 266.625 Q190.6875 273.9375 190.125 303.75 Q194.0625 306 200.25 306 L207 306 Q219.375 306 223.875 285.75 Q224.4375 282.0938 224.4375 277.875 L224.4375 271.6875 Q224.4375 246.375 205.3125 229.5 L203.625 223.875 Q203.625 221.0625 214.3125 203.625 Q222.1875 187.3125 222.1875 178.875 L222.1875 173.8125 Q222.1875 164.25 210.375 164.25 Q176.0625 164.25 108 235.125 L107.4375 236.25 Q117.5625 265.7812 117.5625 282.375 L117.5625 283.5 Q117.5625 315 78.75 330.75 L68.625 332.4375 Q49.7812 332.4375 47.25 309.375 Q47.25 282.6562 95.0625 231.1875 L95.0625 230.625 Q93.375 222.1875 91.6875 201.9375 Q88.875 198.8438 74.8125 192.9375 Q62.4375 185.3438 62.4375 177.75 L62.4375 176.625 Q62.4375 170.4375 64.6875 170.4375 Q70.3125 170.4375 70.3125 177.75 Q75.0938 183.9375 86.625 186.75 Q105.75 189 105.75 199.125 L105.75 199.6875 Q104.0625 207.8438 104.0625 216 L104.0625 221.625 L105.1875 221.625 Q154.6875 176.625 178.3125 167.625 Q200.25 155.8125 214.3125 155.8125 ZM145.125 253.6875 L145.125 257.0625 Q145.125 276.1875 174.375 296.4375 L176.0625 296.4375 L176.0625 264.9375 Q176.0625 217.125 172.6875 217.125 Q171.8438 216.5625 170.4375 216.5625 L169.875 216.5625 Q160.875 216.5625 149.625 235.6875 Q145.125 243.5625 145.125 253.6875 ZM64.125 303.1875 L64.125 311.625 Q64.125 323.4375 71.4375 323.4375 L74.8125 323.4375 Q94.7812 323.4375 102.9375 294.1875 Q103.5 287.4375 103.5 284.0625 Q103.5 266.625 99 246.9375 L97.3125 246.9375 Q64.125 285.75 64.125 303.1875 Z" stroke="none" />
    </g>
  </g>
</svg>
