<?xml version="1.0"?>

<!DOCTYPE svg PUBLIC '-//W3C//DTD SVG 1.0//EN' 'http://www.w3.org/TR/2001/REC-SVG-20010904/DTD/svg10.dtd'>
<svg fill-opacity="1" xmlns:xlink="http://www.w3.org/1999/xlink" color-rendering="auto" color-interpolation="auto" text-rendering="auto" stroke="black" stroke-linecap="square" stroke-miterlimit="10" shape-rendering="auto" stroke-opacity="1" fill="black" stroke-dasharray="none" font-weight="normal" stroke-width="1" xmlns="http://www.w3.org/2000/svg" font-family="&apos;Dialog&apos;" font-style="normal" stroke-linejoin="miter" font-size="12" stroke-dashoffset="0" image-rendering="auto">
  <!--Unicode Character 'HENTAIGANA LETTER WO-7' (U+1B11C)-->
  <defs id="genericDefs" />
  <g>
    <g>
      <path d="M88.0312 149.3438 Q89.7188 149.3438 101.5312 160.5938 Q109.4062 163.6875 109.4062 166.2188 Q108 171.5625 95.3438 178.0312 L95.3438 178.5938 Q111.9375 205.0312 150.4688 246.0938 Q154.125 249.4688 155.5312 249.4688 Q162.2812 246.6562 211.2188 196.5938 Q230.9062 173.8125 230.9062 169.5938 L230.9062 168.4688 Q230.9062 167.3438 229.7812 167.3438 L224.7188 167.3438 Q217.4062 167.3438 212.9062 169.0312 Q208.9688 167.625 208.9688 163.9688 Q223.0312 157.2188 234.8438 157.2188 L235.9688 157.2188 Q248.9062 157.2188 248.9062 170.1562 L248.9062 171.2812 Q248.9062 184.2188 218.5312 206.7188 Q184.2188 237.375 170.1562 252.8438 Q169.0312 257.3438 169.0312 258.4688 L171.2812 268.0312 Q169.0312 272.5312 166.2188 272.5312 Q160.3125 271.4062 152.1562 265.2188 Q104.9062 297.2812 104.9062 312.4688 L104.9062 314.1562 Q104.9062 327.6562 144.2812 327.6562 L144.8438 327.6562 Q153.5625 327.6562 175.2188 324.8438 Q187.5938 327.375 187.5938 333.2812 Q187.5938 343.4062 153.2812 343.4062 Q103.7812 343.4062 94.2188 322.5938 Q93.0938 320.3438 93.0938 316.4062 L93.0938 315.2812 Q93.0938 297.2812 144.2812 257.3438 L144.2812 256.7812 Q107.7188 216.2812 86.3438 186.4688 Q83.8125 179.7188 75.6562 179.7188 Q51.75 179.7188 39.0938 155.5312 Q41.0625 152.1562 44.7188 152.1562 Q55.4062 167.9062 71.1562 167.9062 L75.6562 167.9062 Q76.5 167.9062 80.1562 157.2188 Q85.2188 149.9062 88.0312 149.3438 Z" stroke="none" />
    </g>
  </g>
</svg>
