<?xml version="1.0" encoding="UTF-8" standalone="no"?>
<svg
   xmlns:dc="http://purl.org/dc/elements/1.1/"
   xmlns:cc="http://creativecommons.org/ns#"
   xmlns:rdf="http://www.w3.org/1999/02/22-rdf-syntax-ns#"
   xmlns:svg="http://www.w3.org/2000/svg"
   xmlns="http://www.w3.org/2000/svg"
   xmlns:sodipodi="http://sodipodi.sourceforge.net/DTD/sodipodi-0.dtd"
   xmlns:inkscape="http://www.inkscape.org/namespaces/inkscape"
   fill-opacity="1"
   color-rendering="auto"
   color-interpolation="auto"
   text-rendering="auto"
   stroke="black"
   stroke-linecap="square"
   stroke-miterlimit="10"
   shape-rendering="auto"
   stroke-opacity="1"
   fill="black"
   stroke-dasharray="none"
   font-weight="normal"
   stroke-width="1"
   font-family="'Dialog'"
   font-style="normal"
   stroke-linejoin="miter"
   font-size="12"
   stroke-dashoffset="0"
   image-rendering="auto"
   version="1.1"
   id="svg9"
   sodipodi:docname="hentaigana_letter_o1.svg"
   inkscape:version="0.92.4 (5da689c313, 2019-01-14)">
  <metadata
     id="metadata13">
    <rdf:RDF>
      <cc:Work
         rdf:about="">
        <dc:format>image/svg+xml</dc:format>
        <dc:type
           rdf:resource="http://purl.org/dc/dcmitype/StillImage" />
      </cc:Work>
    </rdf:RDF>
  </metadata>
  <sodipodi:namedview
     pagecolor="#ffffff"
     bordercolor="#666666"
     borderopacity="1"
     objecttolerance="10"
     gridtolerance="10"
     guidetolerance="10"
     inkscape:pageopacity="0"
     inkscape:pageshadow="2"
     inkscape:window-width="1920"
     inkscape:window-height="986"
     id="namedview11"
     showgrid="false"
     inkscape:zoom="2.36"
     inkscape:cx="50"
     inkscape:cy="50"
     inkscape:window-x="-11"
     inkscape:window-y="-11"
     inkscape:window-maximized="1"
     inkscape:current-layer="svg9" />
  <!--Unicode Character 'HENTAIGANA LETTER O-1' (U+1B014)-->
  <defs
     id="genericDefs" />
  <g
     id="g7"
     transform="matrix(0.44171996,0,0,0.44809932,-13.251741,-60.423772)">
    <g
       id="g5">
      <path
         d="M 78.75,136.9688 H 81 q 20.25,0 28.6875,12.375 1.125,3.9374 1.125,6.1874 -3.375,23.625 -4.5,41.0626 L 123.75,188.1562 H 126 q 11.25,0.8438 11.25,6.75 0,7.0313 -31.5,16.875 v 0.5626 q -0.5625,22.5 -0.5625,25.875 h 1.125 l 16.875,-16.3126 q 0.5625,0 2.8125,3.9376 -20.8125,24.4687 -20.8125,24.75 v 47.25 q 0,6.4687 1.125,38.25 -3.375,18 -13.5,18 -3.9375,0 -16.3125,-27.5626 -8.4375,-13.2187 -18,-22.5 h -0.5625 q -10.125,16.3126 -14.0625,16.3126 h -0.5625 q -7.5937,0 -10.125,-16.3126 0,-9.5624 6.75,-20.25 1.6875,0 4.5,1.125 l -0.5625,3.9376 v 5.0624 q 0,0.8438 1.6875,1.6876 4.2187,0 42.75,-39.375 5.0625,-3.6563 5.0625,-6.75 v -12.375 q 0,-8.4376 0.5625,-22.5 H 93.375 l -19.125,2.25 q -21.0938,0 -30.375,-16.875 0.8438,-2.25 2.8125,-3.375 9,7.875 21.9375,7.875 h 4.5 q 20.5312,-0.8438 21.375,-3.9376 0,-5.3437 0.5625,-27.5624 0,-23.3438 -8.4375,-25.875 l -9.5625,-5.0626 Q 78.75,137.25 78.75,136.9688 Z m 109.125,1.6874 q 12.9375,0 12.9375,10.125 h 0.5625 q -0.2812,14.625 -36.5625,54.5626 v 1.125 q 11.8125,0 61.875,-10.6876 H 229.5 q 19.125,0 25.3125,11.8126 v 0.5624 q 0,3.9376 -8.4375,6.1876 -11.25,-1.6876 -27.5625,-2.25 -37.125,0 -66.9375,6.75 -3.375,0 -3.9375,-4.5 0,-3.9376 13.5,-15.75 18,-24.1876 21.9375,-39.9376 v -2.25 q 0,-0.8437 -2.25,-2.25 h -4.5 q -4.2188,0 -12.9375,5.625 l -2.8125,-3.9374 q 13.2188,-15.1876 27,-15.1876 z m -4.5,104.625 q 2.25,2.5313 2.25,2.8126 v 0.5624 q -3.375,3.9376 -3.375,7.3126 v 3.9374 q 0,2.5313 18.5625,7.3126 6.1875,5.3437 6.1875,8.4374 0,5.625 -21.9375,19.6876 -11.8125,9.8437 -11.8125,12.9374 3.0938,3.0938 33.1875,15.75 25.3125,13.5 25.3125,25.875 -0.5625,7.875 -7.3125,7.875 -2.25,0 -21.9375,-18.5624 -18.5625,-12.9376 -35.4375,-22.5 -2.8125,-3.0938 -2.8125,-5.0626 0,-7.5937 24.75,-30.375 v -0.5624 q 0,-0.5626 -13.5,-7.875 -3.6562,-3.6563 -4.5,-10.125 0,-10.125 11.8125,-17.4376 z M 63,297.8438 q 2.5312,3.9374 27.5625,28.6874 h 1.125 q 0,-27.8437 1.125,-61.3124 H 92.25 Q 64.6875,293.3438 63,297.8438 Z"
         id="path3"
         inkscape:connector-curvature="0"
         style="stroke:none" />
    </g>
  </g>
</svg>
