<?xml version="1.0"?>

<!DOCTYPE svg PUBLIC '-//W3C//DTD SVG 1.0//EN' 'http://www.w3.org/TR/2001/REC-SVG-20010904/DTD/svg10.dtd'>
<svg fill-opacity="1" xmlns:xlink="http://www.w3.org/1999/xlink" color-rendering="auto" color-interpolation="auto" text-rendering="auto" stroke="black" stroke-linecap="square" stroke-miterlimit="10" shape-rendering="auto" stroke-opacity="1" fill="black" stroke-dasharray="none" font-weight="normal" stroke-width="1" xmlns="http://www.w3.org/2000/svg" font-family="&apos;Dialog&apos;" font-style="normal" stroke-linejoin="miter" font-size="12" stroke-dashoffset="0" image-rendering="auto">
  <!--Unicode Character 'HENTAIGANA LETTER YO-4' (U+1B0EA)-->
  <defs id="genericDefs" />
  <g>
    <g>
      <path d="M109.6875 142.875 Q137.25 151.5938 137.25 164.25 Q137.25 167.3438 124.875 191.25 Q109.6875 226.4062 109.6875 246.9375 L109.6875 248.0625 L111.9375 248.0625 Q135.2812 241.3125 148.5 241.3125 L155.25 241.3125 Q186.1875 241.3125 198 265.5 Q200.8125 272.25 200.8125 278.4375 L200.8125 281.8125 Q200.8125 321.75 149.625 344.8125 Q134.1562 349.875 119.25 349.875 L112.5 349.875 Q92.5312 349.875 84.375 338.0625 Q82.125 334.125 82.125 330.1875 Q82.125 314.7188 109.6875 310.5 L114.75 309.9375 Q135 309.9375 155.8125 329.0625 Q168.1875 323.4375 178.3125 303.75 Q182.8125 293.3438 182.8125 278.4375 Q182.8125 257.3438 163.125 251.4375 Q157.5 250.3125 153 250.3125 L150.1875 250.3125 Q132.1875 250.3125 109.125 264.375 Q108.2812 264.9375 106.3125 264.9375 L105.75 264.9375 Q95.0625 260.4375 95.0625 253.125 Q104.625 210.0938 118.125 168.1875 Q118.125 167.625 118.6875 163.6875 Q118.6875 154.9688 105.75 147.375 Q108.2812 142.875 109.6875 142.875 ZM196.875 186.1875 Q205.875 187.5938 205.875 194.625 Q205.875 203.625 179.4375 205.875 Q154.4062 205.875 136.125 194.0625 Q137.25 191.5312 140.0625 189.5625 Q147.9375 192.375 153 192.375 L163.125 192.375 Q178.0312 192.375 196.875 186.1875 ZM97.3125 331.3125 L97.3125 332.4375 Q97.3125 342 113.625 342 L120.9375 342 Q133.5938 342 149.0625 335.25 L149.0625 334.125 Q134.4375 321.1875 118.125 321.1875 L111.9375 321.1875 Q97.3125 322.3125 97.3125 331.3125 Z" stroke="none" />
    </g>
  </g>
</svg>
