<?xml version="1.0"?>

<!DOCTYPE svg PUBLIC '-//W3C//DTD SVG 1.0//EN' 'http://www.w3.org/TR/2001/REC-SVG-20010904/DTD/svg10.dtd'>
<svg fill-opacity="1" xmlns:xlink="http://www.w3.org/1999/xlink" color-rendering="auto" color-interpolation="auto" text-rendering="auto" stroke="black" stroke-linecap="square" stroke-miterlimit="10" shape-rendering="auto" stroke-opacity="1" fill="black" stroke-dasharray="none" font-weight="normal" stroke-width="1" xmlns="http://www.w3.org/2000/svg" font-family="&apos;Dialog&apos;" font-style="normal" stroke-linejoin="miter" font-size="12" stroke-dashoffset="0" image-rendering="auto">
  <!--Unicode Character 'HENTAIGANA LETTER SI-4' (U+1B047)-->
  <defs id="genericDefs" />
  <g>
    <g>
      <path d="M198.2812 169.0312 L202.2188 169.0312 Q231.1875 169.0312 240.4688 190.4062 Q241.5938 196.0312 241.5938 197.1562 Q241.5938 234 166.7812 256.7812 Q163.9688 257.625 163.9688 258.4688 Q166.2188 260.7188 188.7188 261.8438 Q196.5938 265.5 196.5938 270.2812 Q196.5938 278.1562 175.7812 278.1562 Q156.0938 278.1562 135.8438 292.7812 Q133.0312 297.2812 133.0312 298.9688 L133.0312 301.7812 Q137.8125 310.2188 157.2188 310.2188 L158.3438 310.2188 Q175.2188 310.2188 195.4688 304.5938 L196.5938 304.5938 Q208.4062 306 208.4062 312.4688 L208.4062 313.0312 Q208.4062 321.4688 174.6562 323.1562 Q171.2812 323.7188 161.1562 323.7188 L160.0312 323.7188 Q132.4688 323.7188 122.3438 309.6562 Q120.6562 305.7188 120.6562 302.3438 Q120.6562 285.1875 158.9062 270.8438 L158.9062 269.1562 Q143.1562 262.125 143.1562 246.6562 Q145.4062 236.5312 147.6562 235.4062 Q150.4688 235.4062 153.2812 238.2188 L153.2812 243.2812 Q154.4062 251.7188 158.9062 251.7188 Q198.5625 239.9062 216.2812 216.2812 Q223.0312 207.2812 223.0312 199.4062 L223.0312 197.1562 Q223.0312 178.0312 198.2812 178.0312 L197.1562 178.0312 Q158.9062 178.0312 105.4688 215.1562 Q102.9375 216.2812 99.8438 216.2812 Q91.4062 216.2812 84.6562 191.5312 L84.6562 190.4062 Q84.6562 189 90.2812 187.5938 Q96.1875 197.7188 100.9688 197.7188 L103.2188 197.7188 Q105.1875 197.7188 135.2812 183.6562 Q174.6562 169.0312 198.2812 169.0312 ZM54.8438 190.9688 Q61.0312 192.0938 61.0312 194.3438 Q58.7812 212.0625 58.7812 229.2188 L58.7812 229.7812 Q58.7812 272.5312 78.4688 304.0312 Q79.0312 307.125 79.0312 309.0938 Q79.0312 313.875 72.2812 314.7188 Q54.2812 314.7188 46.4062 253.4062 L46.4062 242.7188 Q46.4062 211.5 54.2812 190.9688 L54.8438 190.9688 Z" stroke="none" />
    </g>
  </g>
</svg>
