<?xml version="1.0" encoding="UTF-8" standalone="no"?>
<svg
   xmlns:dc="http://purl.org/dc/elements/1.1/"
   xmlns:cc="http://creativecommons.org/ns#"
   xmlns:rdf="http://www.w3.org/1999/02/22-rdf-syntax-ns#"
   xmlns:svg="http://www.w3.org/2000/svg"
   xmlns="http://www.w3.org/2000/svg"
   xmlns:sodipodi="http://sodipodi.sourceforge.net/DTD/sodipodi-0.dtd"
   xmlns:inkscape="http://www.inkscape.org/namespaces/inkscape"
   fill-opacity="1"
   color-rendering="auto"
   color-interpolation="auto"
   text-rendering="auto"
   stroke="black"
   stroke-linecap="square"
   stroke-miterlimit="10"
   shape-rendering="auto"
   stroke-opacity="1"
   fill="black"
   stroke-dasharray="none"
   font-weight="normal"
   stroke-width="1"
   font-family="'Dialog'"
   font-style="normal"
   stroke-linejoin="miter"
   font-size="12"
   stroke-dashoffset="0"
   image-rendering="auto"
   version="1.1"
   id="svg9"
   sodipodi:docname="hentaigana_letter_ke1.svg"
   inkscape:version="0.92.4 (5da689c313, 2019-01-14)"
   width="100%"
   height="100%"
   viewBox="0 0 100 100"
   preserveAspectRatio="xMidYMid meet"
   >
  <metadata
     id="metadata13">
    <rdf:RDF>
      <cc:Work
         rdf:about="">
        <dc:format>image/svg+xml</dc:format>
        <dc:type
           rdf:resource="http://purl.org/dc/dcmitype/StillImage" />
      </cc:Work>
    </rdf:RDF>
  </metadata>
  <sodipodi:namedview
     pagecolor="#ffffff"
     bordercolor="#666666"
     borderopacity="1"
     objecttolerance="10"
     gridtolerance="10"
     guidetolerance="10"
     inkscape:pageopacity="0"
     inkscape:pageshadow="2"
     inkscape:window-width="1920"
     inkscape:window-height="986"
     id="namedview11"
     showgrid="false"
     inkscape:zoom="2.36"
     inkscape:cx="50"
     inkscape:cy="50"
     inkscape:window-x="-11"
     inkscape:window-y="-11"
     inkscape:window-maximized="1"
     inkscape:current-layer="svg9" />
  <!--Unicode Character 'HENTAIGANA LETTER KE-1' (U+1B032)-->
  <defs
     id="genericDefs" />
  <g
     id="g7"
     transform="matrix(0.46379269,0,0,0.41831821,-16.218347,-52.874587)">
    <g
       id="g5">
      <path
         d="m 115.0312,129.0938 h 0.5626 q 24.1874,0 28.6874,7.3124 1.125,3.375 1.125,5.625 0,5.3438 -16.3124,41.0626 h 1.125 q 29.8124,-8.4376 50.625,-8.4376 h 0.5624 q 40.5,0 58.5,19.125 1.6876,4.7813 1.6876,6.1876 0,11.25 -24.75,11.25 -35.7188,6.75 -54.5626,14.625 -36.5624,17.1562 -47.25,45.5624 -3.375,10.6876 -3.375,18 v 6.75 h 1.6876 q 19.125,-33.4687 45.5624,-45.5624 5.0626,-1.6876 11.25,-2.8126 17.1563,0 21.375,27 1.125,5.625 1.125,12.375 0,44.7188 -54,76.5 h -1.125 q -0.8437,0 -4.5,-5.0624 31.7813,-23.9063 39.375,-45.5626 3.375,-10.9687 3.375,-19.6874 v -7.3126 q 0,-23.9062 -8.4374,-28.125 h -4.5 q -20.8126,7.5938 -37.6876,40.5 -3.9374,10.6876 -6.75,21.375 -2.5312,3.9376 -8.4374,3.9376 -12.375,-4.5 -12.375,-20.8126 0,-43.3124 47.25,-75.375 17.4374,-10.6874 48.375,-20.8124 21.375,-5.625 25.3124,-7.3126 v -1.6874 q 0,-5.0626 -28.125,-11.25 -5.0624,-1.125 -19.6874,-1.6876 -27,0 -48.375,10.6876 -18.8438,38.5312 -48.9376,81 -9.2812,11.25 -17.4374,11.25 -9.5626,0 -9.5626,-18 0,-23.9063 29.25,-54.5626 13.7813,-12.0937 34.3126,-23.625 11.8124,-26.4374 16.875,-45 v -4.5 q 0,-3.6562 -16.875,-6.75 v -0.5624 q 1.9687,-5.625 5.0624,-5.625 z M 58.2188,264.6562 v 5.0626 q 0.2812,1.125 1.125,1.125 h 0.5624 q 6.4688,0 27.5626,-36.5626 12.6562,-21.9374 15.1874,-29.25 -26.7187,12.375 -39.9374,41.625 -4.5,11.8126 -4.5,18 z"
         id="path3"
         inkscape:connector-curvature="0"
         style="stroke:none" />
    </g>
  </g>
</svg>
