<?xml version="1.0"?>

<!DOCTYPE svg PUBLIC '-//W3C//DTD SVG 1.0//EN' 'http://www.w3.org/TR/2001/REC-SVG-20010904/DTD/svg10.dtd'>
<svg fill-opacity="1" xmlns:xlink="http://www.w3.org/1999/xlink" color-rendering="auto" color-interpolation="auto" text-rendering="auto" stroke="black" stroke-linecap="square" stroke-miterlimit="10" shape-rendering="auto" stroke-opacity="1" fill="black" stroke-dasharray="none" font-weight="normal" stroke-width="1" xmlns="http://www.w3.org/2000/svg" font-family="&apos;Dialog&apos;" font-style="normal" stroke-linejoin="miter" font-size="12" stroke-dashoffset="0" image-rendering="auto">
  <!--Unicode Character 'HENTAIGANA LETTER RO-6' (U+1B107)-->
  <defs id="genericDefs" />
  <g>
    <g>
      <path d="M102.0938 132.75 L103.2188 132.75 Q111.0938 138.9375 127.4062 138.9375 Q134.4375 138.9375 150.4688 133.3125 Q156.6562 135.5625 156.6562 140.0625 Q156.6562 148.5 127.4062 151.875 Q109.125 151.875 99.8438 136.125 L99.8438 135.5625 Q101.25 132.75 102.0938 132.75 ZM205.5938 146.25 Q227.8125 146.25 234.8438 164.25 Q235.4062 169.3125 235.9688 170.4375 Q235.9688 187.5938 214.0312 195.1875 Q204.4688 197.4375 195.4688 197.4375 Q177.75 197.4375 163.9688 187.3125 L163.9688 186.75 Q163.9688 183.375 166.2188 183.375 Q178.875 189 190.4062 189 L196.5938 189 Q211.2188 189 217.4062 176.0625 Q218.5312 173.8125 218.5312 169.875 Q218.5312 153 201.0938 153 Q180.8438 153 129.6562 175.5 L129.0938 184.5 Q129.375 197.4375 131.9062 197.4375 L134.7188 197.4375 Q150.4688 197.4375 150.4688 204.75 Q150.4688 214.5938 104.9062 225.5625 L104.3438 225.5625 L102.6562 222.75 L102.6562 221.625 Q131.3438 212.9062 131.3438 207 L131.3438 206.4375 L124.5938 206.4375 Q122.625 206.4375 119.5312 207 Q115.875 207 115.0312 196.3125 L115.0312 181.6875 Q71.1562 196.875 67.2188 196.875 L63.2812 197.4375 Q49.7812 197.4375 43.5938 174.375 L47.5312 171.5625 Q54.5625 181.6875 64.4062 181.6875 Q84.375 181.6875 115.5938 171.5625 Q118.6875 158.625 124.5938 158.625 Q126.5625 158.625 134.1562 164.8125 L135.2812 164.8125 Q183.6562 146.25 205.5938 146.25 ZM160.5938 204.75 L161.1562 204.75 Q174.6562 208.125 174.6562 216 Q173.5312 222.4688 162.8438 239.0625 L163.4062 239.0625 L179.7188 237.375 Q192.0938 242.4375 192.0938 250.875 Q190.9688 256.2188 187.0312 266.0625 L187.0312 266.625 Q195.4688 265.5 198.8438 265.5 Q211.7812 265.5 216.2812 274.5 L216.8438 277.875 L216.8438 279 Q216.8438 288.5625 210.0938 308.25 L210.0938 308.8125 L210.6562 308.8125 L226.9688 307.125 Q250.0312 310.5 250.0312 325.125 Q250.0312 347.0625 176.9062 360 Q174.6562 360 172.4062 353.25 Q233.1562 339.75 233.1562 324 Q232.3125 315.5625 226.9688 315.5625 L221.9062 315.5625 Q216.2812 315.5625 204.4688 320.0625 Q199.9688 320.0625 196.5938 315 L196.5938 314.4375 Q200.5312 294.1875 200.5312 281.8125 L200.5312 280.6875 Q200.5312 276.1875 197.1562 274.5 L192.0938 274.5 Q179.7188 274.5 176.3438 286.875 Q152.1562 327.375 126.2812 334.6875 L122.3438 335.25 Q108.2812 333 108.2812 321.1875 Q108.2812 304.0312 138.6562 284.0625 Q147.375 278.7188 171.2812 269.4375 Q175.7812 259.875 175.7812 252 L175.7812 250.875 Q175.7812 250.0312 173.5312 248.625 L170.1562 248.625 Q165.375 248.625 151.5938 254.25 L149.3438 254.25 Q147.0938 253.4062 143.7188 246.375 Q143.7188 244.125 157.2188 228.375 Q162.2812 218.8125 162.2812 216 L162.2812 213.75 Q162.2812 209.8125 157.7812 208.125 L157.7812 207.5625 Q157.7812 206.7188 160.5938 204.75 ZM71.7188 231.1875 Q77.3438 235.6875 84.6562 235.6875 L91.4062 235.125 Q99.2812 237.375 99.2812 245.25 Q99.2812 250.0312 84.0938 252 Q78.75 254.8125 75.6562 254.8125 L75.0938 254.8125 Q74.25 254.8125 72.8438 252.5625 L72.8438 252 Q80.7188 248.9062 80.7188 247.5 L80.7188 246.375 Q68.9062 240.75 68.9062 233.4375 L71.7188 231.1875 ZM42.4688 266.625 Q46.4062 273.375 48.0938 273.375 L49.7812 273.375 Q56.25 273.375 71.1562 267.75 Q81.2812 270.5625 81.2812 276.75 Q81.2812 278.1562 71.1562 294.1875 Q63.8438 310.5 63.8438 319.5 L63.8438 326.25 L64.9688 326.25 Q68.3438 323.7188 90.8438 294.1875 Q92.25 294.4688 94.2188 298.6875 Q67.5 334.6875 66.6562 347.625 Q63.2812 351 60.4688 351 Q53.7188 351 52.5938 331.3125 Q52.5938 315.5625 63.8438 281.8125 L63.2812 281.8125 Q61.0312 281.8125 47.5312 287.4375 Q37.9688 284.0625 37.9688 269.4375 Q39.0938 266.625 42.4688 266.625 ZM125.1562 316.125 L125.1562 321.75 Q125.1562 322.5938 126.8438 323.4375 L129.0938 323.4375 Q140.0625 323.4375 165.0938 282.375 Q165.6562 281.25 165.6562 280.125 L165.0938 280.125 Q154.9688 281.8125 130.2188 304.3125 Q125.1562 311.3438 125.1562 316.125 Z" stroke="none" />
    </g>
  </g>
</svg>
