<?xml version="1.0"?>

<!DOCTYPE svg PUBLIC '-//W3C//DTD SVG 1.0//EN' 'http://www.w3.org/TR/2001/REC-SVG-20010904/DTD/svg10.dtd'>
<svg fill-opacity="1" xmlns:xlink="http://www.w3.org/1999/xlink" color-rendering="auto" color-interpolation="auto" text-rendering="auto" stroke="black" stroke-linecap="square" stroke-miterlimit="10" shape-rendering="auto" stroke-opacity="1" fill="black" stroke-dasharray="none" font-weight="normal" stroke-width="1" xmlns="http://www.w3.org/2000/svg" font-family="&apos;Dialog&apos;" font-style="normal" stroke-linejoin="miter" font-size="12" stroke-dashoffset="0" image-rendering="auto">
  <!--Unicode Character 'HENTAIGANA LETTER SU-2' (U+1B04B)-->
  <defs id="genericDefs" />
  <g>
    <g>
      <path d="M129.375 128.5312 Q156.375 131.3438 156.375 143.7188 L154.6875 161.7188 L155.8125 161.7188 Q159.1875 161.7188 176.0625 151.5938 Q178.875 150.4688 180 150.4688 Q185.9062 150.4688 190.125 156.0938 L190.125 159.4688 Q190.125 163.9688 164.25 172.4062 Q154.125 174.6562 154.125 175.7812 L154.125 188.1562 Q154.125 188.7188 165.9375 190.9688 Q173.25 194.9062 173.25 203.3438 Q173.25 212.625 154.6875 228.0938 Q154.6875 245.5312 146.8125 245.5312 L138.375 239.3438 L137.8125 239.3438 Q136.125 239.3438 111.375 256.7812 Q93.375 267.75 75.9375 277.0312 L75.9375 277.5938 L77.0625 277.5938 Q147.6562 254.5312 195.1875 239.9062 Q205.875 234.8438 212.625 234.8438 Q235.125 236.5312 235.125 244.9688 Q235.125 252.2812 213.1875 252.2812 Q198.2812 257.0625 181.6875 273.6562 L178.875 277.0312 L178.875 278.1562 Q211.5 285.1875 211.5 309.0938 Q211.5 351.5625 114.1875 364.2188 Q111.375 360 111.375 358.5938 Q140.625 353.5312 164.8125 343.4062 Q187.875 332.1562 192.9375 318.6562 Q194.625 314.7188 194.625 312.4688 L194.625 304.5938 Q194.625 288.2812 174.9375 286.0312 Q136.6875 333.5625 116.4375 338.3438 Q113.625 338.3438 103.5 323.7188 Q92.8125 317.25 92.8125 311.9062 Q92.8125 296.1562 146.25 280.9688 Q169.3125 277.3125 169.3125 273.0938 Q188.4375 252.8438 190.125 252.8438 L190.125 251.1562 Q151.0312 258.75 112.5 275.3438 Q81 289.6875 59.625 301.2188 Q59.0625 301.2188 57.9375 301.7812 Q52.875 301.7812 52.875 289.9688 Q52.875 280.4062 68.0625 276.4688 Q87.1875 269.1562 127.6875 234.8438 L127.6875 233.1562 Q106.3125 225 106.3125 215.1562 Q106.3125 202.2188 141.75 189.8438 L141.75 177.4688 L132.75 177.4688 Q132.1875 177.4688 132.1875 178.0312 L131.0625 177.4688 L128.8125 177.4688 Q113.9062 177.4688 104.0625 161.1562 L104.0625 159.4688 Q104.0625 158.625 106.3125 157.2188 Q114.75 165.6562 131.0625 165.6562 L136.125 165.6562 L141.75 165.0938 L141.75 157.2188 Q141.75 138.6562 128.25 134.1562 Q126.2812 133.5938 126 133.5938 L126 132.4688 Q127.6875 128.5312 129.375 128.5312 ZM154.6875 202.2188 L154.6875 214.0312 L155.25 214.0312 Q160.875 209.5312 160.875 205.0312 L160.875 203.9062 Q160.875 202.2188 156.375 201.6562 Q155.25 202.2188 154.6875 202.2188 ZM118.125 217.9688 L118.125 221.3438 Q118.125 224.7188 135 229.2188 Q141.75 226.125 141.75 222.4688 L141.75 203.9062 Q140.625 203.9062 140.625 203.3438 Q125.4375 207 119.25 215.7188 Q119.25 216.5625 118.125 217.9688 ZM106.3125 314.1562 L106.3125 315.8438 Q114.1875 325.4062 120.9375 325.4062 Q139.7812 318.6562 160.875 286.5938 L160.875 285.4688 L159.75 285.4688 Q130.7812 291.0938 108.5625 309.6562 Q106.3125 311.9062 106.3125 314.1562 Z" stroke="none" />
    </g>
  </g>
</svg>
