<?xml version="1.0"?>

<!DOCTYPE svg PUBLIC '-//W3C//DTD SVG 1.0//EN' 'http://www.w3.org/TR/2001/REC-SVG-20010904/DTD/svg10.dtd'>
<svg fill-opacity="1" xmlns:xlink="http://www.w3.org/1999/xlink" color-rendering="auto" color-interpolation="auto" text-rendering="auto" stroke="black" stroke-linecap="square" stroke-miterlimit="10" shape-rendering="auto" stroke-opacity="1" fill="black" stroke-dasharray="none" font-weight="normal" stroke-width="1" xmlns="http://www.w3.org/2000/svg" font-family="&apos;Dialog&apos;" font-style="normal" stroke-linejoin="miter" font-size="12" stroke-dashoffset="0" image-rendering="auto">
  <!--Unicode Character 'HENTAIGANA LETTER HO-4' (U+1B0BD)-->
  <defs id="genericDefs" />
  <g>
    <g>
      <path d="M185.3438 131.0625 Q199.9688 131.0625 206.1562 143.4375 Q206.1562 144.5625 207.2812 147.375 Q207.2812 171.2812 138.0938 178.3125 L133.0312 178.3125 Q97.875 214.3125 95.9062 227.25 L95.9062 228.375 Q95.9062 231.75 121.2188 231.75 Q144.8438 231.4688 144.8438 229.5 Q147.0938 197.4375 163.9688 190.6875 Q165.9375 190.6875 166.7812 190.125 Q172.6875 190.125 181.4062 203.0625 Q188.4375 209.25 194.9062 210.9375 Q198.8438 214.875 198.8438 217.125 Q198.8438 228.6562 159.4688 239.0625 L159.4688 252 L161.7188 252 Q186.4688 252 186.4688 265.5 Q186.4688 271.4062 159.4688 295.875 L159.4688 303.1875 L163.4062 303.75 Q174.6562 303.75 192.0938 300.9375 Q201.6562 302.3438 201.6562 308.8125 Q201.6562 314.4375 181.4062 316.125 Q175.5 316.125 171.8438 316.6875 Q167.9062 316.125 161.7188 316.125 L159.4688 316.125 Q160.0312 338.9062 160.0312 346.5 Q160.0312 356.9062 148.2188 361.6875 Q145.4062 361.6875 132.4688 345.9375 Q119.25 333.2812 86.9062 305.4375 Q83.8125 299.8125 82.9688 295.875 Q82.9688 282.0938 126.2812 261.5625 Q136.6875 257.0625 145.4062 254.25 L145.4062 241.875 Q131.9062 244.125 120.0938 244.125 L116.1562 244.125 Q80.7188 244.125 80.7188 231.1875 L80.7188 230.625 Q80.7188 215.1562 115.0312 180 L115.0312 178.3125 Q95.3438 178.3125 81.8438 155.8125 Q84.0938 152.4375 85.7812 152.4375 Q99 164.8125 122.3438 164.8125 L126.2812 164.8125 Q159.1875 131.0625 185.3438 131.0625 ZM142.0312 164.8125 L142.0312 165.9375 Q197.7188 163.6875 197.7188 148.5 L197.7188 146.8125 Q197.7188 139.7812 189.2812 138.9375 L185.3438 138.9375 Q170.4375 138.9375 142.0312 164.8125 ZM158.9062 227.8125 Q180.8438 222.4688 180.8438 217.6875 L180.8438 214.875 Q170.1562 199.125 169.0312 199.125 L166.2188 199.125 Q159.4688 201.9375 159.4688 222.75 Q158.9062 225.8438 158.9062 227.8125 ZM159.4688 265.5 L159.4688 284.0625 L160.0312 284.0625 Q171.8438 274.2188 171.8438 268.875 L171.8438 268.3125 Q169.875 264.375 165.0938 264.375 L160.5938 264.375 Q159.4688 264.6562 159.4688 265.5 ZM97.0312 299.8125 Q99 310.2188 133.0312 333 Q142.5938 339.1875 144.2812 339.1875 L144.8438 339.1875 L145.9688 338.625 Q145.4062 327.375 145.4062 321.75 L145.4062 315 Q144.8438 314.1562 134.1562 310.5 Q131.9062 307.9688 131.9062 307.6875 L131.9062 307.125 Q131.9062 301.2188 144.8438 294.75 L145.4062 291.9375 L145.4062 267.1875 L144.8438 267.1875 Q125.1562 270.2812 100.4062 291.375 Q97.0312 296.1562 97.0312 299.8125 Z" stroke="none" />
    </g>
  </g>
</svg>
