<?xml version="1.0"?>

<!DOCTYPE svg PUBLIC '-//W3C//DTD SVG 1.0//EN' 'http://www.w3.org/TR/2001/REC-SVG-20010904/DTD/svg10.dtd'>
<svg fill-opacity="1" xmlns:xlink="http://www.w3.org/1999/xlink" color-rendering="auto" color-interpolation="auto" text-rendering="auto" stroke="black" stroke-linecap="square" stroke-miterlimit="10" shape-rendering="auto" stroke-opacity="1" fill="black" stroke-dasharray="none" font-weight="normal" stroke-width="1" xmlns="http://www.w3.org/2000/svg" font-family="&apos;Dialog&apos;" font-style="normal" stroke-linejoin="miter" font-size="12" stroke-dashoffset="0" image-rendering="auto">
  <!--Unicode Character 'HENTAIGANA LETTER SO-2' (U+1B058)-->
  <defs id="genericDefs" />
  <g>
    <g>
      <path d="M55.6875 139.5 L56.25 139.5 Q77.0625 153.8438 77.0625 167.625 Q77.0625 170.7188 63.5625 213.1875 Q53.4375 254.5312 53.4375 277.875 L53.4375 288.5625 Q53.7188 312.75 56.25 312.75 Q63 290.25 75.9375 268.3125 Q77.625 268.875 80.4375 271.6875 Q65.25 311.0625 65.25 340.3125 Q65.25 346.7812 56.25 348.75 Q45.2812 348.75 40.5 291.375 L40.5 282.375 Q40.5 249.1875 59.625 172.125 Q60.1875 166.2188 60.1875 162.5625 Q60.1875 151.3125 52.3125 143.4375 L52.3125 142.875 Q52.3125 142.0312 55.6875 139.5 ZM223.3125 163.125 Q229.7812 163.125 239.0625 175.5 Q239.0625 176.0625 239.625 177.1875 Q239.625 181.4062 224.4375 186.75 Q185.9062 219.6562 154.6875 257.625 Q123.75 297 123.75 299.25 Q145.9688 279.8438 152.4375 278.4375 L155.8125 277.875 Q167.625 277.875 178.3125 300.375 Q179.7188 302.0625 181.6875 302.0625 L183.375 302.0625 Q208.125 278.4375 225.5625 278.4375 Q240.4688 278.4375 246.375 293.0625 L247.5 297.5625 Q247.5 321.4688 192.375 351 Q188.4375 353.25 186.75 353.25 L183.375 349.3125 Q196.5938 340.5938 210.375 329.625 Q229.5 311.0625 229.5 298.6875 L229.5 294.1875 Q229.5 285.75 221.625 285.75 Q209.5312 285.75 192.375 307.125 Q181.4062 320.625 175.5 320.625 L174.375 320.625 Q167.3438 320.625 160.875 299.8125 Q154.125 288 151.875 288 L150.1875 288 Q144.2812 288 116.4375 321.1875 Q107.1562 330.75 102.9375 330.75 Q98.4375 328.7812 98.4375 323.4375 L98.4375 321.1875 Q98.4375 307.6875 114.75 295.3125 Q141.1875 256.5 211.5 178.875 L211.5 177.75 L210.9375 177.75 Q169.0312 189 156.375 189 Q131.625 189 117 174.375 Q119.5312 169.875 120.375 169.875 Q129.0938 175.5 150.1875 175.5 L155.8125 175.5 Q188.1562 175.5 223.3125 163.125 Z" stroke="none" />
    </g>
  </g>
</svg>
