<?xml version="1.0"?>

<!DOCTYPE svg PUBLIC '-//W3C//DTD SVG 1.0//EN' 'http://www.w3.org/TR/2001/REC-SVG-20010904/DTD/svg10.dtd'>
<svg fill-opacity="1" xmlns:xlink="http://www.w3.org/1999/xlink" color-rendering="auto" color-interpolation="auto" text-rendering="auto" stroke="black" stroke-linecap="square" stroke-miterlimit="10" shape-rendering="auto" stroke-opacity="1" fill="black" stroke-dasharray="none" font-weight="normal" stroke-width="1" xmlns="http://www.w3.org/2000/svg" font-family="&apos;Dialog&apos;" font-style="normal" stroke-linejoin="miter" font-size="12" stroke-dashoffset="0" image-rendering="auto">
  <!--Unicode Character 'HENTAIGANA LETTER MO-3' (U+1B0D9)-->
  <defs id="genericDefs" />
  <g>
    <g>
      <path d="M97.3125 139.5 Q109.4062 151.3125 128.25 151.3125 L129.9375 151.3125 Q135.8438 151.3125 150.1875 148.5 Q155.8125 148.5 156.9375 155.8125 Q156.9375 163.9688 131.0625 165.9375 L127.6875 165.9375 Q105.4688 165.9375 93.9375 144 L93.9375 143.4375 Q96.1875 139.5 97.3125 139.5 ZM75.375 188.4375 Q81.8438 199.6875 92.25 199.6875 Q92.25 200.8125 103.5 200.8125 L107.4375 200.8125 Q117 200.8125 124.875 198.5625 Q131.3438 198.5625 134.4375 207.5625 L134.4375 209.25 Q134.4375 212.625 109.6875 221.625 Q66.375 250.0312 66.375 262.125 L66.375 262.6875 Q66.375 270.5625 103.5 270.5625 Q122.0625 234 132.75 234 Q138.0938 234 147.9375 248.625 Q158.625 257.625 158.625 262.125 Q158.625 276.1875 116.4375 284.0625 Q113.0625 293.0625 113.0625 309.375 L113.0625 312.1875 Q113.0625 328.7812 128.25 335.8125 Q134.7188 338.0625 139.5 338.0625 L144.5625 338.0625 Q193.5 338.0625 227.8125 277.875 L228.9375 277.875 Q233.4375 280.9688 233.4375 281.8125 Q213.1875 328.7812 171 347.625 Q156.0938 353.25 142.875 353.25 L140.625 353.25 Q107.1562 353.25 98.4375 322.3125 Q97.3125 315.5625 97.3125 311.625 Q97.3125 293.625 100.125 286.875 Q99.5625 285.75 99.5625 285.1875 Q54.5625 285.1875 54.5625 268.3125 Q54.5625 252 100.125 215.4375 L100.125 214.875 L96.75 214.875 Q77.9062 214.875 69.75 192.375 L69.75 191.25 Q74.25 188.4375 75.375 188.4375 ZM134.4375 244.6875 Q121.5 258.1875 119.8125 269.4375 L120.375 269.4375 Q143.4375 265.2188 143.4375 258.75 Q138.6562 244.6875 134.4375 244.6875 Z" stroke="none" />
    </g>
  </g>
</svg>
