<?xml version="1.0"?>

<!DOCTYPE svg PUBLIC '-//W3C//DTD SVG 1.0//EN' 'http://www.w3.org/TR/2001/REC-SVG-20010904/DTD/svg10.dtd'>
<svg fill-opacity="1" xmlns:xlink="http://www.w3.org/1999/xlink" color-rendering="auto" color-interpolation="auto" text-rendering="auto" stroke="black" stroke-linecap="square" stroke-miterlimit="10" shape-rendering="auto" stroke-opacity="1" fill="black" stroke-dasharray="none" font-weight="normal" stroke-width="1" xmlns="http://www.w3.org/2000/svg" font-family="&apos;Dialog&apos;" font-style="normal" stroke-linejoin="miter" font-size="12" stroke-dashoffset="0" image-rendering="auto">
  <!--Unicode Character 'HENTAIGANA LETTER WO-3' (U+1B118)-->
  <defs id="genericDefs" />
  <g>
    <g>
      <path d="M160.3125 143.7188 Q165.0938 143.7188 170.4375 152.7188 Q170.4375 154.9688 152.4375 176.3438 Q109.9688 238.5 74.25 297.8438 Q53.1562 340.875 47.8125 341.7188 L45 342.2812 Q39.9375 342.2812 38.25 334.4062 Q42.1875 322.0312 42.1875 310.7812 Q42.1875 310.2188 41.625 306.2812 Q41.9062 304.5938 46.6875 301.7812 Q47.8125 301.7812 48.9375 313.5938 L49.5 313.5938 Q113.3438 219.9375 148.5 161.1562 L148.5 159.4688 L147.9375 159.4688 Q121.2188 171.8438 114.75 171.8438 Q104.625 171.8438 96.75 153.8438 L96.75 153.2812 Q96.75 152.1562 100.6875 149.9062 Q106.0312 156.6562 110.8125 156.6562 L111.9375 156.6562 Q130.5 156.6562 159.1875 143.7188 L160.3125 143.7188 ZM163.6875 191.5312 Q183.9375 196.5938 183.9375 205.5938 Q183.0938 214.875 151.3125 234.2812 Q141.75 239.9062 141.75 241.0312 Q141.75 243.2812 155.8125 243.2812 Q161.4375 235.4062 165.9375 235.4062 Q169.875 235.4062 169.875 241.0312 L171.5625 241.0312 L182.25 238.2188 Q191.25 239.3438 191.25 246.0938 Q191.25 252.2812 170.4375 257.9062 Q164.8125 259.875 164.8125 274.2188 Q163.6875 274.2188 163.125 288.8438 L163.6875 288.8438 Q187.0312 286.5938 189 280.9688 Q177.1875 268.0312 177.1875 266.9062 Q180 265.2188 181.6875 265.2188 Q190.4062 273.0938 203.625 280.4062 L204.75 283.2188 Q204.75 296.7188 160.875 302.9062 Q160.3125 311.3438 160.3125 315.2812 L160.3125 317.5312 Q161.1562 332.1562 169.875 332.1562 Q175.5 334.9688 188.4375 334.9688 L193.5 334.9688 Q226.4062 334.9688 234 321.4688 Q237.375 314.7188 237.375 303.4688 Q237.375 295.875 234.5625 279.2812 L235.125 279.2812 Q238.7812 278.1562 239.625 278.1562 Q249.75 299.5312 249.75 316.4062 Q249.75 337.5 228.375 344.5312 Q209.25 349.0312 191.8125 349.0312 Q162.5625 349.0312 154.125 340.5938 Q146.8125 332.1562 146.8125 319.2188 L146.8125 310.2188 L147.375 303.4688 L142.875 303.4688 Q114.1875 303.4688 106.3125 293.3438 Q106.3125 292.5 104.625 287.7188 Q104.625 271.9688 149.625 255.6562 L150.1875 254.5312 L149.0625 254.5312 Q128.8125 254.5312 128.8125 246.6562 Q128.8125 241.875 146.25 228.0938 Q165.9375 207.2812 165.9375 203.3438 L165.9375 201.0938 Q165.6562 199.4062 160.3125 195.4688 Q161.1562 192.9375 163.6875 191.5312 ZM114.75 284.3438 Q114.75 290.5312 146.25 290.5312 L147.9375 290.5312 Q148.5 289.125 151.875 264.0938 L150.75 263.5312 Q114.75 275.9062 114.75 284.3438 Z" stroke="none" />
    </g>
  </g>
</svg>
