<?xml version="1.0"?>

<!DOCTYPE svg PUBLIC '-//W3C//DTD SVG 1.0//EN' 'http://www.w3.org/TR/2001/REC-SVG-20010904/DTD/svg10.dtd'>
<svg fill-opacity="1" xmlns:xlink="http://www.w3.org/1999/xlink" color-rendering="auto" color-interpolation="auto" text-rendering="auto" stroke="black" stroke-linecap="square" stroke-miterlimit="10" shape-rendering="auto" stroke-opacity="1" fill="black" stroke-dasharray="none" font-weight="normal" stroke-width="1" xmlns="http://www.w3.org/2000/svg" font-family="&apos;Dialog&apos;" font-style="normal" stroke-linejoin="miter" font-size="12" stroke-dashoffset="0" image-rendering="auto">
  <!--Unicode Character 'HENTAIGANA LETTER KO-3' (U+1B03A)-->
  <defs id="genericDefs" />
  <g>
    <g>
      <path d="M160.0312 131.3438 Q174.0938 136.4062 174.0938 144.8438 Q174.0938 148.5 162.2812 176.3438 L162.2812 176.9062 L162.8438 176.9062 Q170.4375 175.2188 198.2812 156.6562 Q203.3438 155.5312 203.9062 155.5312 Q215.1562 157.2188 215.1562 163.9688 Q215.1562 167.3438 205.0312 173.5312 Q192.0938 184.7812 192.0938 194.9062 Q191.5312 255.0938 190.9688 265.7812 Q234.8438 268.875 239.9062 282.0938 Q241.0312 282.0938 241.0312 286.0312 Q241.0312 291.0938 233.7188 292.2188 Q211.2188 279.8438 191.5312 279.8438 L191.5312 291.0938 Q191.5312 321.4688 193.7812 344.5312 Q190.4062 361.4062 181.9688 361.4062 Q176.0625 361.4062 166.7812 341.7188 Q154.9688 323.7188 125.7188 293.9062 Q124.5938 291.6562 124.5938 289.9688 Q124.5938 278.4375 172.9688 267.4688 Q175.2188 267.4688 179.1562 266.3438 Q179.1562 247.7812 180.2812 191.5312 Q180.2812 189 185.3438 177.4688 Q178.3125 179.4375 152.1562 200.5312 Q151.5938 200.5312 150.4688 201.0938 Q139.7812 195.1875 139.7812 189.2812 L139.7812 188.7188 Q139.7812 187.3125 149.9062 173.5312 Q162.2812 149.9062 162.2812 142.5938 Q162.2812 139.7812 156.6562 135.2812 Q158.9062 131.3438 160.0312 131.3438 ZM55.4062 146.5312 Q77.9062 156.6562 77.9062 173.5312 Q77.9062 176.0625 63.8438 231.4688 Q58.7812 254.5312 58.7812 275.3438 L58.7812 284.9062 Q59.9062 308.25 62.7188 309.0938 Q75.6562 284.0625 89.1562 249.4688 L90.2812 249.4688 Q93.6562 252.8438 94.2188 254.5312 Q73.4062 308.8125 73.4062 332.1562 Q73.4062 342.2812 66.0938 342.2812 Q51.4688 342.2812 46.9688 275.9062 L46.9688 275.3438 Q46.9688 244.125 60.4688 173.5312 L60.4688 169.0312 Q60.4688 159.1875 50.9062 150.4688 L55.4062 146.5312 ZM134.1562 292.2188 L134.1562 292.7812 Q134.1562 296.1562 156.0938 316.4062 Q170.4375 332.4375 177.4688 338.9062 L178.5938 338.9062 L178.5938 279.8438 L175.2188 279.8438 Q134.1562 283.5 134.1562 292.2188 Z" stroke="none" />
    </g>
  </g>
</svg>
