<?xml version="1.0"?>

<!DOCTYPE svg PUBLIC '-//W3C//DTD SVG 1.0//EN' 'http://www.w3.org/TR/2001/REC-SVG-20010904/DTD/svg10.dtd'>
<svg fill-opacity="1" xmlns:xlink="http://www.w3.org/1999/xlink" color-rendering="auto" color-interpolation="auto" text-rendering="auto" stroke="black" stroke-linecap="square" stroke-miterlimit="10" shape-rendering="auto" stroke-opacity="1" fill="black" stroke-dasharray="none" font-weight="normal" stroke-width="1" xmlns="http://www.w3.org/2000/svg" font-family="&apos;Dialog&apos;" font-style="normal" stroke-linejoin="miter" font-size="12" stroke-dashoffset="0" image-rendering="auto">
  <!--Unicode Character 'HENTAIGANA LETTER TU-3' (U+1B06B)-->
  <defs id="genericDefs" />
  <g>
    <g>
      <path d="M155.5312 133.875 Q185.3438 137.25 185.3438 150.1875 Q182.5312 163.9688 182.5312 176.0625 L183.0938 176.0625 Q205.0312 166.5 215.7188 166.5 L217.9688 166.5 Q237.375 166.5 241.0312 186.75 L241.5938 191.8125 Q241.5938 212.625 218.5312 220.5 Q211.7812 221.625 207.8438 221.625 L207.2812 221.625 Q194.625 221.625 183.6562 214.875 L182.5312 214.875 L182.5312 240.1875 Q195.4688 247.5 195.4688 252.5625 L195.4688 253.125 Q195.4688 257.625 182.5312 271.6875 L182.5312 286.875 Q182.5312 290.5312 219.6562 292.5 Q227.5312 295.0312 227.5312 300.9375 L228.0938 300.9375 Q228.0938 306.5625 218.5312 307.125 L216.2812 307.125 Q202.5 307.125 182.5312 300.9375 L182.5312 301.5 Q182.5312 316.9688 183.6562 340.875 Q178.5938 358.875 169.0312 358.875 Q163.9688 358.875 152.1562 335.25 Q121.7812 291.9375 121.7812 281.25 Q121.7812 263.5312 169.5938 243.5625 L169.5938 191.8125 Q163.9688 193.7812 134.7188 208.6875 Q130.2188 209.25 129.0938 209.8125 Q118.4062 209.8125 109.9688 191.25 L113.3438 188.4375 Q120.375 194.625 125.1562 194.625 L126.2812 194.625 Q140.625 194.625 169.5938 180.5625 L169.5938 178.875 Q169.5938 146.8125 165.6562 146.8125 Q163.6875 143.7188 151.5938 139.5 L151.5938 138.9375 Q153.8438 133.875 155.5312 133.875 ZM59.3438 145.6875 Q79.5938 159.75 79.5938 174.9375 L79.5938 177.75 Q79.5938 182.5312 64.9688 226.125 Q58.2188 254.8125 58.2188 284.0625 L58.2188 289.125 Q58.2188 305.1562 62.1562 316.125 L63.8438 316.125 Q75.0938 284.3438 84.6562 267.75 Q89.7188 270.2812 89.7188 271.125 Q79.5938 299.8125 75.6562 316.6875 Q73.9688 328.7812 73.9688 337.5 L73.9688 343.125 Q73.9688 352.125 67.7812 352.125 Q51.1875 352.125 46.9688 296.4375 Q46.4062 293.625 46.4062 280.125 Q46.4062 258.4688 61.5938 178.3125 L61.5938 163.6875 Q61.5938 157.2188 54.2812 149.625 Q58.5 145.6875 59.3438 145.6875 ZM182.5312 186.1875 L182.5312 206.4375 Q190.125 213.75 206.7188 213.75 Q221.625 213.75 224.1562 192.9375 L224.1562 191.25 Q224.1562 176.0625 215.7188 176.0625 L210.0938 176.0625 Q194.0625 178.3125 182.5312 186.1875 ZM131.3438 280.125 L131.3438 284.625 Q132.75 298.9688 166.2188 334.6875 L167.9062 335.8125 L168.4688 335.8125 Q169.5938 335.8125 169.5938 334.6875 L169.5938 298.125 Q157.2188 291.0938 157.2188 284.625 Q157.2188 283.2188 169.5938 270 L169.5938 255.9375 L167.9062 255.9375 Q131.3438 266.9062 131.3438 280.125 Z" stroke="none" />
    </g>
  </g>
</svg>
