<?xml version="1.0"?>

<!DOCTYPE svg PUBLIC '-//W3C//DTD SVG 1.0//EN' 'http://www.w3.org/TR/2001/REC-SVG-20010904/DTD/svg10.dtd'>
<svg fill-opacity="1" xmlns:xlink="http://www.w3.org/1999/xlink" color-rendering="auto" color-interpolation="auto" text-rendering="auto" stroke="black" stroke-linecap="square" stroke-miterlimit="10" shape-rendering="auto" stroke-opacity="1" fill="black" stroke-dasharray="none" font-weight="normal" stroke-width="1" xmlns="http://www.w3.org/2000/svg" font-family="&apos;Dialog&apos;" font-style="normal" stroke-linejoin="miter" font-size="12" stroke-dashoffset="0" image-rendering="auto">
  <!--Unicode Character 'HENTAIGANA LETTER SE-3' (U+1B054)-->
  <defs id="genericDefs" />
  <g>
    <g>
      <path d="M121.7812 139.5 L122.3438 139.5 Q149.9062 139.5 149.9062 159.1875 Q147.6562 188.1562 147.6562 217.6875 Q189.2812 214.0312 189.2812 212.0625 Q192.0938 191.8125 192.0938 175.5 L192.0938 171 Q192.0938 164.8125 187.5938 164.8125 Q185.3438 164.8125 179.7188 168.75 Q175.7812 166.2188 175.7812 163.125 Q185.3438 153.8438 194.3438 153.5625 Q205.5938 153.5625 208.9688 170.4375 L208.4062 171.5625 L208.4062 172.125 Q208.4062 190.6875 205.0312 212.0625 Q212.9062 212.0625 242.1562 208.125 L242.7188 208.125 Q260.1562 210.9375 260.1562 218.8125 L260.1562 221.0625 Q258.1875 224.4375 254.5312 224.4375 Q233.7188 223.3125 224.7188 223.3125 Q218.8125 223.3125 202.2188 223.875 Q189 274.2188 156.6562 298.6875 Q151.3125 303.4688 130.2188 317.25 Q124.5938 322.875 124.5938 327.375 Q124.5938 334.4062 143.7188 337.5 Q145.4062 337.5 154.4062 338.0625 Q169.875 338.0625 189.8438 334.125 Q201.0938 336.0938 201.0938 342 Q201.0938 353.25 157.2188 353.25 Q122.625 351.2812 116.1562 335.8125 Q114.4688 329.9062 114.4688 327.375 Q114.4688 317.8125 142.5938 298.6875 Q171.5625 273.375 179.1562 247.5 Q185.9062 231.1875 185.9062 225 Q171 225.5625 146.5312 228.9375 L146.5312 250.875 Q146.5312 258.4688 147.0938 271.125 Q144.5625 281.25 138.6562 281.25 Q132.75 281.25 131.9062 266.625 Q131.9062 248.9062 133.5938 230.625 L133.0312 230.625 Q86.9062 235.9688 86.9062 239.0625 Q91.125 263.8125 95.9062 263.8125 Q99 263.8125 106.0312 245.8125 L107.1562 245.8125 Q108 245.8125 111.6562 250.3125 Q104.3438 266.9062 104.3438 282.375 Q101.8125 286.3125 98.1562 286.3125 Q88.5938 286.3125 76.2188 255.9375 L73.9688 243 Q58.7812 248.625 52.0312 248.625 Q39.9375 248.625 27.8438 228.375 L27.8438 227.8125 Q28.6875 227.8125 31.7812 223.3125 Q44.1562 232.3125 50.3438 232.3125 L58.7812 232.3125 Q64.9688 232.3125 73.4062 230.625 Q76.2188 186.1875 82.4062 182.25 Q86.0625 182.25 88.0312 184.5 Q85.7812 195.75 85.7812 208.6875 L85.7812 227.8125 L133.5938 219.9375 Q134.1562 208.6875 134.1562 203.0625 L134.1562 183.375 Q134.1562 150.75 128.5312 150.75 Q128.5312 148.7812 116.7188 145.6875 Q118.4062 139.5 121.7812 139.5 Z" stroke="none" />
    </g>
  </g>
</svg>
