<?xml version="1.0"?>

<!DOCTYPE svg PUBLIC '-//W3C//DTD SVG 1.0//EN' 'http://www.w3.org/TR/2001/REC-SVG-20010904/DTD/svg10.dtd'>
<svg fill-opacity="1" xmlns:xlink="http://www.w3.org/1999/xlink" color-rendering="auto" color-interpolation="auto" text-rendering="auto" stroke="black" stroke-linecap="square" stroke-miterlimit="10" shape-rendering="auto" stroke-opacity="1" fill="black" stroke-dasharray="none" font-weight="normal" stroke-width="1" xmlns="http://www.w3.org/2000/svg" font-family="&apos;Dialog&apos;" font-style="normal" stroke-linejoin="miter" font-size="12" stroke-dashoffset="0" image-rendering="auto">
  <!--Unicode Character 'HENTAIGANA LETTER YO-2' (U+1B0E8)-->
  <defs id="genericDefs" />
  <g>
    <g>
      <path d="M118.9688 134.1562 Q144.2812 137.8125 144.2812 147.6562 Q144.2812 155.5312 113.3438 184.2188 Q104.9062 192.9375 104.9062 193.7812 Q105.4688 193.7812 105.4688 194.3438 Q128.5312 187.0312 177.4688 167.3438 Q183.6562 165.0938 192.6562 163.4062 Q205.3125 163.4062 207.2812 171.8438 Q207.2812 178.3125 185.3438 183.0938 Q162.2812 193.2188 162.2812 214.0312 L162.2812 225.8438 Q170.1562 230.625 170.1562 234.8438 Q170.1562 239.0625 162.2812 251.7188 Q161.7188 262.125 161.7188 270.2812 L161.7188 289.9688 L164.5312 290.5312 L169.0312 290.5312 Q181.6875 290.5312 199.9688 288.2812 Q207.2812 288.2812 207.8438 296.7188 Q207.8438 304.0312 176.9062 304.0312 L162.2812 304.0312 L162.2812 306.2812 Q162.2812 312.75 163.4062 344.5312 Q163.4062 354.6562 152.1562 358.5938 Q146.25 358.5938 141.4688 343.9688 Q117.5625 316.9688 94.2188 299.5312 Q81.2812 291.6562 81.2812 280.9688 Q81.2812 264.0938 126.8438 238.2188 Q136.125 233.1562 147.6562 229.2188 L147.6562 226.9688 Q147.6562 198 169.0312 182.5312 L169.0312 181.9688 L168.4688 181.9688 Q161.1562 181.9688 88.5938 216.2812 L86.3438 216.2812 Q82.9688 216.2812 80.1562 205.0312 Q80.1562 200.25 94.2188 189.8438 Q124.0312 157.5 124.0312 148.7812 L124.0312 144.8438 Q119.8125 139.7812 115.5938 139.7812 L115.5938 138.0938 Q115.5938 137.5312 118.9688 134.1562 ZM90.8438 279.8438 L90.8438 282.6562 Q90.8438 291.375 111.0938 302.9062 Q133.0312 319.2188 147.6562 331.0312 L148.7812 331.0312 Q148.2188 324.2812 148.2188 321.4688 L148.2188 311.3438 Q148.2188 308.5312 147.6562 302.9062 Q133.3125 302.9062 121.2188 290.5312 Q118.4062 286.5938 118.4062 284.3438 L118.4062 283.7812 Q118.4062 277.875 130.2188 269.7188 Q147.6562 251.4375 147.6562 246.6562 L147.6562 242.1562 Q127.4062 244.9688 95.3438 270.2812 Q90.8438 276.1875 90.8438 279.8438 ZM127.9688 282.0938 Q130.5 289.4062 146.5312 289.4062 L147.6562 289.4062 L147.6562 263.5312 L146.5312 263.5312 Q127.9688 279 127.9688 280.9688 L127.9688 282.0938 Z" stroke="none" />
    </g>
  </g>
</svg>
