<?xml version="1.0"?>

<!DOCTYPE svg PUBLIC '-//W3C//DTD SVG 1.0//EN' 'http://www.w3.org/TR/2001/REC-SVG-20010904/DTD/svg10.dtd'>
<svg fill-opacity="1" xmlns:xlink="http://www.w3.org/1999/xlink" color-rendering="auto" color-interpolation="auto" text-rendering="auto" stroke="black" stroke-linecap="square" stroke-miterlimit="10" shape-rendering="auto" stroke-opacity="1" fill="black" stroke-dasharray="none" font-weight="normal" stroke-width="1" xmlns="http://www.w3.org/2000/svg" font-family="&apos;Dialog&apos;" font-style="normal" stroke-linejoin="miter" font-size="12" stroke-dashoffset="0" image-rendering="auto">
  <!--Unicode Character 'HENTAIGANA LETTER TO-RA' (U+1B07D)-->
  <defs id="genericDefs" />
  <g>
    <g>
      <path d="M121.5 139.5 L122.0625 139.5 Q136.125 139.5 138.9375 149.625 Q142.875 174.9375 145.6875 189.5625 Q152.4375 189.5625 173.8125 172.6875 Q176.3438 171.5625 180 171 Q186.75 171 190.125 178.3125 Q190.125 187.0312 147.9375 203.0625 L147.9375 203.625 Q163.125 284.0625 174.9375 323.4375 Q176.0625 325.4062 176.625 337.5 Q173.5312 353.25 166.5 353.25 Q158.3438 353.25 155.25 338.625 Q148.7812 329.625 121.5 306.5625 L121.5 306 Q121.7812 300.9375 123.1875 300.9375 Q149.625 318.6562 157.5 321.75 L158.0625 321.75 Q147.375 262.4062 135 208.125 Q119.5312 211.5 102.375 212.625 Q83.5312 212.625 67.5 196.875 Q68.0625 195.1875 70.875 192.375 Q86.0625 200.25 96.75 200.25 L100.6875 200.25 Q118.125 200.25 131.625 194.625 Q124.3125 148.5 115.875 148.5 Q105.75 147.0938 104.0625 146.25 Q104.0625 140.0625 110.8125 140.0625 Q113.9062 139.5 121.5 139.5 ZM219.375 163.6875 Q243.5625 169.0312 243.5625 182.8125 Q243.5625 201.375 208.6875 232.875 Q200.25 239.0625 191.8125 244.6875 Q187.875 242.4375 187.875 241.3125 Q226.125 205.5938 226.125 178.875 Q226.125 173.8125 214.875 168.1875 Q214.875 166.2188 219.375 163.6875 ZM50.0625 258.75 L54 261 L53.4375 263.8125 L53.4375 271.6875 Q53.4375 286.5938 65.25 307.125 Q67.2188 308.25 68.625 308.25 L69.75 308.25 Q70.5938 308.25 95.0625 274.5 L95.625 274.5 Q98.4375 277.0312 98.4375 279 Q86.0625 299.5312 75.375 330.1875 Q72.8438 335.25 69.1875 335.25 Q53.4375 335.25 45 286.3125 Q44.4375 280.125 44.4375 275.625 Q45.8438 258.75 50.0625 258.75 Z" stroke="none" />
    </g>
  </g>
</svg>
