<?xml version="1.0"?>

<!DOCTYPE svg PUBLIC '-//W3C//DTD SVG 1.0//EN' 'http://www.w3.org/TR/2001/REC-SVG-20010904/DTD/svg10.dtd'>
<svg fill-opacity="1" xmlns:xlink="http://www.w3.org/1999/xlink" color-rendering="auto" color-interpolation="auto" text-rendering="auto" stroke="black" stroke-linecap="square" stroke-miterlimit="10" shape-rendering="auto" stroke-opacity="1" fill="black" stroke-dasharray="none" font-weight="normal" stroke-width="1" xmlns="http://www.w3.org/2000/svg" font-family="&apos;Dialog&apos;" font-style="normal" stroke-linejoin="miter" font-size="12" stroke-dashoffset="0" image-rendering="auto">
  <!--Unicode Character 'HENTAIGANA LETTER MI-4' (U+1B0CC)-->
  <defs id="genericDefs" />
  <g>
    <g>
      <path d="M178.5938 132.75 Q195.4688 132.75 199.9688 144 Q199.9688 144.5625 200.5312 145.6875 Q200.5312 156.9375 154.9688 179.4375 Q127.6875 194.9062 125.1562 198 L125.1562 199.6875 Q129.0938 206.4375 142.5938 206.4375 L145.9688 206.4375 Q146.5312 206.4375 146.5312 205.875 Q153.5625 205.875 159.4688 218.8125 Q158.0625 227.5312 139.7812 263.25 L139.7812 264.375 Q162.8438 263.25 170.7188 263.25 Q182.25 263.25 211.7812 264.9375 Q218.8125 254.25 224.1562 254.25 L225.2812 254.25 L243.2812 274.5 L243.2812 276.75 Q240.1875 281.8125 234.2812 281.8125 L226.4062 281.25 Q216 302.9062 194.9062 322.875 Q162.2812 351.2812 133.5938 360 L133.0312 360 Q129.6562 357.75 129.6562 354.375 Q186.75 328.2188 207.8438 279.5625 Q207.8438 275.625 160.5938 274.5 Q146.5312 275.0625 138.0938 275.0625 Q134.4375 275.0625 126.8438 290.25 Q119.25 304.875 99.2812 323.4375 Q82.9688 336.6562 73.4062 337.5 Q72 337.5 56.5312 321.1875 Q44.7188 313.5938 44.7188 306.5625 Q44.7188 288.8438 104.3438 270 L125.1562 264.9375 Q140.9062 228.6562 140.9062 220.5 Q140.9062 217.9688 124.5938 214.875 Q115.0312 210.0938 115.0312 203.0625 Q115.0312 193.2188 137.5312 182.25 Q165.6562 163.4062 176.9062 151.875 Q179.7188 148.5 179.7188 146.25 L179.7188 144 Q179.7188 140.625 167.3438 140.0625 Q166.2188 138.0938 166.2188 135.5625 Q170.1562 133.875 178.5938 132.75 ZM90.8438 140.0625 Q95.3438 158.0625 99.2812 158.0625 L102.0938 158.0625 Q106.5938 158.0625 131.9062 149.0625 Q133.0312 151.0312 133.0312 153.5625 Q105.4688 167.3438 105.4688 173.25 Q105.4688 177.4688 98.7188 178.3125 Q92.8125 178.3125 86.3438 165.9375 Q84.0938 159.4688 84.0938 152.4375 L84.0938 151.3125 Q84.0938 140.625 88.5938 140.625 Q89.7188 140.0625 90.8438 140.0625 ZM61.0312 308.25 L61.0312 309.375 Q61.0312 315.2812 74.5312 325.125 L75.6562 325.125 Q100.9688 313.875 118.4062 277.875 L118.4062 276.75 L117.8438 276.75 Q84.0938 284.3438 63.2812 303.1875 Q61.0312 306.8438 61.0312 308.25 Z" stroke="none" />
    </g>
  </g>
</svg>
