<?xml version="1.0"?>

<!DOCTYPE svg PUBLIC '-//W3C//DTD SVG 1.0//EN' 'http://www.w3.org/TR/2001/REC-SVG-20010904/DTD/svg10.dtd'>
<svg fill-opacity="1" xmlns:xlink="http://www.w3.org/1999/xlink" color-rendering="auto" color-interpolation="auto" text-rendering="auto" stroke="black" stroke-linecap="square" stroke-miterlimit="10" shape-rendering="auto" stroke-opacity="1" fill="black" stroke-dasharray="none" font-weight="normal" stroke-width="1" xmlns="http://www.w3.org/2000/svg" font-family="&apos;Dialog&apos;" font-style="normal" stroke-linejoin="miter" font-size="12" stroke-dashoffset="0" image-rendering="auto">
  <!--Unicode Character 'HENTAIGANA LETTER HI-4' (U+1B0AC)-->
  <defs id="genericDefs" />
  <g>
    <g>
      <path d="M124.5938 138.9375 Q135.8438 143.7188 135.8438 148.5 Q135.8438 150.75 121.2188 167.625 Q81.2812 230.625 81.2812 232.875 L81.8438 232.875 Q92.25 223.5938 116.1562 219.375 Q121.2188 219.375 125.7188 209.8125 Q183.0938 139.5 201.6562 139.5 Q213.75 139.5 216.2812 155.8125 Q216.2812 169.3125 215.1562 187.875 Q222.4688 193.7812 222.4688 200.25 Q222.4688 202.7812 212.9062 213.75 Q212.3438 225 212.3438 230.625 L212.3438 238.5 Q212.3438 241.3125 211.7812 248.0625 Q216.2812 252.5625 234.2812 257.625 Q237.0938 260.4375 237.0938 263.25 Q237.0938 270.5625 226.4062 270.5625 Q220.5 269.4375 212.9062 266.0625 L212.9062 266.625 Q212.9062 273.0938 214.0312 300.375 Q211.7812 319.5 202.7812 319.5 Q199.4062 319.5 165.6562 282.9375 Q149.9062 271.4062 149.9062 253.6875 Q149.9062 220.7812 201.0938 190.6875 L201.0938 165.375 Q201.0938 159.75 201.6562 151.875 Q200.8125 149.0625 199.9688 149.0625 L197.7188 149.0625 Q188.7188 149.0625 147.0938 198 Q131.9062 219.375 131.9062 221.625 Q141.4688 229.5 141.4688 241.3125 L141.4688 243.5625 Q141.4688 278.4375 106.5938 297 Q100.9688 298.6875 96.4688 299.25 Q83.5312 297.2812 83.5312 286.3125 Q83.5312 266.3438 112.7812 230.0625 L112.7812 228.9375 L111.6562 228.9375 Q94.2188 228.9375 74.5312 250.875 Q69.75 258.75 61.5938 281.25 Q58.5 284.0625 55.9688 284.0625 Q49.5 284.0625 47.5312 273.9375 Q47.5312 267.4688 67.7812 237.375 Q93.375 193.7812 111.0938 161.4375 L111.0938 159.75 Q92.8125 167.625 84.0938 167.625 Q75.6562 167.625 66.0938 155.25 Q68.625 150.75 70.0312 150.1875 Q76.5 154.6875 84.0938 154.6875 L88.0312 154.6875 Q101.8125 154.6875 122.9062 138.9375 L124.5938 138.9375 ZM158.9062 252 L158.9062 254.8125 Q158.9062 273.0938 196.5938 296.4375 L198.2812 296.4375 Q199.9688 296.1562 199.9688 292.5 Q199.9688 284.0625 200.5312 278.4375 Q199.9688 272.5312 199.9688 262.6875 L199.9688 262.125 Q188.7188 251.4375 188.7188 246.375 Q188.7188 240.4688 198.2812 225.5625 Q200.5312 220.7812 200.5312 219.375 L200.5312 206.4375 L199.9688 206.4375 Q158.9062 223.3125 158.9062 252 ZM98.7188 279 L98.7188 284.625 Q98.7188 285.4688 100.4062 286.3125 L104.3438 286.3125 Q117.8438 286.3125 126.8438 252.5625 L126.8438 243 Q126.8438 235.6875 123.4688 233.4375 Q105.4688 252.5625 98.7188 279 ZM59.3438 294.1875 Q61.0312 294.75 63.8438 297.5625 L63.8438 298.125 Q60.4688 302.3438 60.4688 306 L60.4688 311.0625 Q60.4688 325.125 98.1562 335.25 Q126.5625 339.75 148.7812 339.75 Q195.1875 339.75 224.7188 330.75 Q240.4688 333 240.4688 340.875 Q240.4688 353.8125 157.7812 353.8125 Q95.9062 353.8125 64.4062 336.9375 Q50.3438 325.4062 50.3438 312.1875 L50.3438 310.5 Q50.3438 300.0938 59.3438 294.1875 Z" stroke="none" />
    </g>
  </g>
</svg>
