<?xml version="1.0"?>

<!DOCTYPE svg PUBLIC '-//W3C//DTD SVG 1.0//EN' 'http://www.w3.org/TR/2001/REC-SVG-20010904/DTD/svg10.dtd'>
<svg fill-opacity="1" xmlns:xlink="http://www.w3.org/1999/xlink" color-rendering="auto" color-interpolation="auto" text-rendering="auto" stroke="black" stroke-linecap="square" stroke-miterlimit="10" shape-rendering="auto" stroke-opacity="1" fill="black" stroke-dasharray="none" font-weight="normal" stroke-width="1" xmlns="http://www.w3.org/2000/svg" font-family="&apos;Dialog&apos;" font-style="normal" stroke-linejoin="miter" font-size="12" stroke-dashoffset="0" image-rendering="auto">
  <!--Unicode Character 'HENTAIGANA LETTER TI-2' (U+1B063)-->
  <defs id="genericDefs" />
  <g>
    <g>
      <path d="M155.5312 150.4688 L157.7812 150.4688 Q182.5312 150.4688 182.5312 165.0938 Q179.7188 187.875 178.5938 205.5938 Q179.7188 205.5938 196.5938 195.4688 Q208.125 190.9688 216.8438 190.9688 Q237.6562 190.9688 244.9688 212.9062 Q245.5312 213.4688 246.0938 219.6562 Q246.0938 250.3125 208.9688 265.2188 Q198.8438 268.0312 191.5312 268.0312 Q189.2812 268.0312 176.3438 266.3438 L176.3438 278.1562 Q176.3438 321.4688 184.7812 321.4688 Q189.8438 324.2812 198.8438 324.2812 L211.7812 324.2812 Q226.4062 324.2812 241.0312 320.3438 Q247.5 320.3438 251.1562 329.9062 Q251.1562 338.9062 218.5312 338.9062 L209.5312 338.9062 Q175.7812 338.9062 167.3438 323.7188 Q162.2812 314.4375 162.2812 287.1562 L162.2812 273.6562 Q162.2812 269.1562 161.7188 266.3438 Q162.2812 262.6875 162.2812 258.4688 L162.2812 251.1562 Q162.2812 242.7188 162.8438 228.6562 Q155.25 228.6562 110.5312 282.0938 Q82.9688 315.5625 80.1562 337.7812 Q77.0625 342.2812 72.2812 342.2812 Q61.5938 340.3125 61.5938 298.4062 Q61.5938 277.0312 64.4062 241.5938 Q44.7188 241.5938 36.8438 225.2812 Q40.5 221.9062 40.7812 221.9062 Q48.375 228.6562 54.8438 228.6562 L63.8438 228.6562 Q64.6875 228.6562 67.7812 205.0312 Q73.6875 178.0312 86.9062 178.0312 L87.4688 178.0312 Q91.125 178.0312 107.7188 193.2188 Q122.3438 201.0938 122.3438 209.5312 Q122.3438 221.9062 98.1562 233.7188 Q80.4375 239.0625 78.4688 240.4688 Q76.2188 264.375 76.2188 295.5938 L76.2188 308.5312 L76.7812 308.5312 Q97.3125 282.9375 118.9688 258.4688 Q149.3438 227.25 163.9688 216.2812 Q164.5312 214.3125 164.5312 214.0312 Q164.5312 201.375 166.2188 167.9062 Q164.25 156.6562 151.5938 156.6562 L150.4688 155.5312 Q152.1562 150.4688 155.5312 150.4688 ZM78.4688 226.9688 Q108.8438 220.2188 108.8438 210.6562 L108.8438 207.8438 Q108.8438 204.4688 91.9688 187.5938 L89.7188 187.5938 Q83.5312 187.5938 79.0312 219.0938 Q79.0312 219.9375 78.4688 226.9688 ZM177.4688 219.6562 Q176.3438 242.7188 176.3438 258.4688 Q180.5625 259.5938 184.2188 259.5938 L185.9062 259.5938 Q219.0938 259.5938 228.0938 230.3438 Q229.2188 226.4062 229.2188 223.5938 L229.2188 216.8438 Q229.2188 204.4688 211.7812 201.6562 L210.0938 201.6562 Q194.625 202.5 177.4688 218.5312 L177.4688 219.6562 Z" stroke="none" />
    </g>
  </g>
</svg>
