<?xml version="1.0"?>

<!DOCTYPE svg PUBLIC '-//W3C//DTD SVG 1.0//EN' 'http://www.w3.org/TR/2001/REC-SVG-20010904/DTD/svg10.dtd'>
<svg fill-opacity="1" xmlns:xlink="http://www.w3.org/1999/xlink" color-rendering="auto" color-interpolation="auto" text-rendering="auto" stroke="black" stroke-linecap="square" stroke-miterlimit="10" shape-rendering="auto" stroke-opacity="1" fill="black" stroke-dasharray="none" font-weight="normal" stroke-width="1" xmlns="http://www.w3.org/2000/svg" font-family="&apos;Dialog&apos;" font-style="normal" stroke-linejoin="miter" font-size="12" stroke-dashoffset="0" image-rendering="auto">
  <!--Unicode Character 'HENTAIGANA LETTER HA-2' (U+1B09F)-->
  <defs id="genericDefs" />
  <g>
    <g>
      <path d="M124.3125 132.75 Q153.2812 135.5625 154.6875 147.9375 Q155.25 148.7812 155.25 150.1875 Q149.625 196.0312 149.625 228.9375 L151.3125 228.9375 Q161.4375 228.9375 161.4375 236.25 Q161.4375 242.1562 150.75 260.4375 L150.75 280.6875 Q150.75 288.5625 157.5 288.5625 Q176.3438 290.8125 191.8125 291.9375 Q194.9062 295.0312 196.3125 299.25 Q196.3125 307.125 185.0625 307.125 Q171.5625 307.125 151.875 300.9375 L151.875 303.75 Q151.875 318.375 152.4375 341.4375 Q152.4375 354.6562 138.9375 360 Q133.875 360 129.375 345.375 Q111.6562 321.75 79.3125 297 Q74.8125 292.5 73.6875 288.5625 Q79.3125 271.125 116.4375 243.5625 Q127.125 236.8125 137.8125 231.1875 Q138.375 205.3125 138.375 191.8125 L138.375 169.875 Q138.375 145.125 131.625 142.3125 Q128.8125 140.625 120.9375 138.375 Q122.0625 132.75 124.3125 132.75 ZM205.3125 158.625 Q225 160.875 225 177.75 Q225 194.625 206.4375 201.375 Q203.3438 201.9375 201.375 201.9375 L200.8125 201.9375 Q189 201.9375 173.8125 186.1875 Q175.5 181.125 176.625 181.125 Q188.4375 190.6875 198.5625 190.6875 Q206.4375 190.6875 208.125 180 L208.125 176.0625 Q208.125 168.1875 200.25 168.1875 L199.125 168.1875 Q197.1562 168.1875 194.0625 170.4375 Q190.6875 166.7812 190.6875 166.5 Q196.875 158.625 205.3125 158.625 ZM74.25 176.625 Q78.75 177.1875 78.75 179.4375 Q77.0625 189.2812 77.0625 194.625 Q77.9062 199.6875 82.125 199.6875 Q93.375 199.6875 115.3125 182.8125 Q115.875 182.8125 118.125 186.75 L118.125 187.875 Q89.1562 214.3125 72.5625 214.3125 Q63 214.3125 63 203.0625 L63 201.9375 Q63 191.25 74.25 176.625 ZM85.5 286.3125 L85.5 289.125 Q86.3438 295.3125 122.625 323.4375 Q134.1562 331.875 136.125 331.875 L136.6875 331.875 L136.6875 318.9375 Q136.6875 310.2188 137.25 295.3125 Q121.5 289.125 121.5 283.5 Q125.4375 277.875 134.4375 267.1875 Q137.25 261.8438 137.25 260.4375 L137.25 246.375 L136.125 246.375 Q121.2188 248.0625 95.0625 271.6875 Q85.5 283.2188 85.5 286.3125 Z" stroke="none" />
    </g>
  </g>
</svg>
