<?xml version="1.0"?>

<!DOCTYPE svg PUBLIC '-//W3C//DTD SVG 1.0//EN' 'http://www.w3.org/TR/2001/REC-SVG-20010904/DTD/svg10.dtd'>
<svg fill-opacity="1" xmlns:xlink="http://www.w3.org/1999/xlink" color-rendering="auto" color-interpolation="auto" text-rendering="auto" stroke="black" stroke-linecap="square" stroke-miterlimit="10" shape-rendering="auto" stroke-opacity="1" fill="black" stroke-dasharray="none" font-weight="normal" stroke-width="1" xmlns="http://www.w3.org/2000/svg" font-family="&apos;Dialog&apos;" font-style="normal" stroke-linejoin="miter" font-size="12" stroke-dashoffset="0" image-rendering="auto">
  <!--Unicode Character 'HENTAIGANA LETTER KE-3' (U+1B034)-->
  <defs id="genericDefs" />
  <g>
    <g>
      <path d="M123.4688 127.4062 Q133.875 127.4062 140.9062 148.2188 Q145.4062 155.5312 145.9688 155.5312 Q149.625 155.5312 170.7188 140.9062 Q172.9688 140.3438 175.2188 140.3438 L175.7812 140.3438 Q187.5938 141.4688 187.5938 145.9688 Q187.5938 153.5625 154.4062 166.7812 L154.4062 168.4688 Q161.1562 177.4688 165.0938 181.4062 Q179.7188 169.0312 185.3438 169.0312 Q195.75 169.0312 197.7188 195.4688 Q199.4062 202.7812 204.4688 215.7188 Q204.4688 222.4688 196.0312 223.5938 Q185.3438 223.5938 163.4062 199.9688 Q156.375 204.1875 140.9062 219.0938 L140.9062 220.2188 Q154.125 220.2188 162.2812 231.4688 L165.6562 239.9062 Q179.4375 236.5312 187.5938 236.5312 Q217.6875 236.5312 224.7188 262.4062 Q225.2812 267.1875 225.2812 269.7188 Q225.2812 297.8438 197.7188 307.9688 Q189.5625 310.2188 184.2188 310.2188 Q174.375 310.2188 162.2812 305.1562 L161.7188 305.1562 Q161.7188 327.0938 147.6562 365.3438 L147.0938 365.3438 Q144 365.3438 140.9062 363.0938 Q149.9062 326.5312 149.9062 268.5938 Q149.3438 258.1875 149.3438 253.4062 L148.2188 253.4062 Q120.9375 262.4062 80.7188 298.9688 Q74.8125 305.7188 71.1562 305.7188 Q62.7188 301.5 62.7188 293.3438 Q62.7188 288 80.7188 270.2812 Q80.7188 270 154.4062 190.9688 L154.4062 190.4062 Q140.625 171.8438 139.2188 171.8438 Q121.7812 176.3438 112.7812 176.3438 L108.2812 176.3438 Q90.8438 176.3438 80.7188 162.8438 Q82.4062 160.0312 82.4062 158.9062 L83.5312 158.9062 Q93.0938 165.0938 104.9062 165.0938 Q129.6562 163.4062 132.4688 160.0312 Q122.3438 137.5312 113.9062 137.5312 L103.7812 137.5312 Q103.7812 133.5938 102.6562 133.5938 Q102.6562 129.6562 123.4688 127.4062 ZM176.3438 192.0938 Q187.0312 204.4688 190.9688 204.4688 L191.5312 204.4688 L191.5312 202.2188 Q189 181.9688 187.0312 181.9688 Q176.3438 187.875 176.3438 192.0938 ZM87.4688 276.4688 Q117.5625 257.3438 141.4688 247.2188 Q148.7812 244.9688 148.7812 243.8438 L148.7812 239.3438 Q148.7812 228.0938 136.9688 225.2812 L136.4062 225.2812 Q132.75 225.2812 109.9688 250.5938 Q86.9062 274.2188 86.9062 276.4688 L87.4688 276.4688 ZM165.0938 249.4688 L165.0938 263.5312 Q165.0938 281.8125 163.4062 296.1562 Q169.875 300.6562 180.2812 300.6562 L185.9062 300.6562 Q195.1875 300.6562 205.0312 285.4688 Q207.8438 277.5938 207.8438 270.2812 L207.8438 266.3438 Q207.8438 248.625 189.8438 244.9688 L179.1562 244.9688 Q166.2188 245.8125 165.0938 249.4688 Z" stroke="none" />
    </g>
  </g>
</svg>
