<?xml version="1.0"?>

<!DOCTYPE svg PUBLIC '-//W3C//DTD SVG 1.0//EN' 'http://www.w3.org/TR/2001/REC-SVG-20010904/DTD/svg10.dtd'>
<svg fill-opacity="1" xmlns:xlink="http://www.w3.org/1999/xlink" color-rendering="auto" color-interpolation="auto" text-rendering="auto" stroke="black" stroke-linecap="square" stroke-miterlimit="10" shape-rendering="auto" stroke-opacity="1" fill="black" stroke-dasharray="none" font-weight="normal" stroke-width="1" xmlns="http://www.w3.org/2000/svg" font-family="&apos;Dialog&apos;" font-style="normal" stroke-linejoin="miter" font-size="12" stroke-dashoffset="0" image-rendering="auto">
  <!--Unicode Character 'HENTAIGANA LETTER SI-3' (U+1B046)-->
  <defs id="genericDefs" />
  <g>
    <g>
      <path d="M114.4688 129.375 L116.7188 129.375 Q120.9375 137.8125 147.6562 137.8125 Q152.4375 137.8125 159.4688 136.6875 Q165.9375 136.6875 169.5938 146.8125 Q169.5938 148.5 156.0938 160.3125 Q136.9688 181.4062 136.9688 186.75 Q136.9688 187.875 138.6562 187.875 Q190.4062 187.875 203.9062 210.9375 Q211.2188 224.1562 211.2188 237.375 Q211.2188 278.7188 156.6562 297 Q156.6562 328.2188 140.9062 347.0625 Q123.75 361.6875 110.5312 363.375 L109.9688 363.375 Q107.1562 360.8438 107.1562 358.875 Q142.5938 346.7812 142.5938 299.25 Q135 299.8125 131.3438 299.8125 L128.5312 299.8125 Q127.4062 299.8125 126.2812 300.375 Q125.4375 299.8125 124.0312 299.8125 L122.3438 299.8125 Q93.6562 299.8125 77.3438 280.6875 Q77.3438 279.2812 76.7812 278.4375 Q77.3438 272.25 101.5312 256.5 Q108.2812 251.7188 131.9062 226.6875 Q139.2188 224.4375 140.9062 224.4375 Q153 224.4375 154.9688 244.125 Q156.0938 258.4688 156.6562 285.1875 Q194.3438 270 194.3438 238.5 L194.3438 237.375 Q194.3438 211.5 174.0938 202.5 Q167.9062 200.25 149.3438 199.125 L134.1562 200.25 Q126.8438 196.5938 126.8438 191.25 Q126.8438 184.2188 144.8438 154.6875 L144.8438 153 Q144.8438 152.1562 143.1562 151.3125 L142.0312 151.3125 Q118.4062 151.3125 113.9062 135.5625 Q113.625 131.625 112.7812 131.625 Q113.625 129.375 114.4688 129.375 ZM91.9688 278.4375 Q95.3438 288.2812 116.1562 290.25 L126.8438 290.25 Q136.125 290.25 142.5938 289.125 L142.5938 273.375 Q142.5938 233.4375 136.9688 233.4375 L136.4062 233.4375 Q132.4688 233.7188 107.1562 263.8125 Q101.5312 269.4375 91.9688 277.3125 L91.9688 278.4375 Z" stroke="none" />
    </g>
  </g>
</svg>
