<?xml version="1.0"?>

<!DOCTYPE svg PUBLIC '-//W3C//DTD SVG 1.0//EN' 'http://www.w3.org/TR/2001/REC-SVG-20010904/DTD/svg10.dtd'>
<svg fill-opacity="1" xmlns:xlink="http://www.w3.org/1999/xlink" color-rendering="auto" color-interpolation="auto" text-rendering="auto" stroke="black" stroke-linecap="square" stroke-miterlimit="10" shape-rendering="auto" stroke-opacity="1" fill="black" stroke-dasharray="none" font-weight="normal" stroke-width="1" xmlns="http://www.w3.org/2000/svg" font-family="&apos;Dialog&apos;" font-style="normal" stroke-linejoin="miter" font-size="12" stroke-dashoffset="0" image-rendering="auto">
  <!--Unicode Character 'HENTAIGANA LETTER I-3' (U+1B008)-->
  <defs id="genericDefs" />
  <g>
    <g>
      <path d="M118.125 132.1875 L118.6875 132.1875 Q129.375 143.4375 155.25 143.4375 L160.3125 143.4375 Q162.5625 143.4375 166.5 142.875 Q178.875 146.5312 178.875 154.6875 Q178.875 162.2812 145.125 164.25 Q121.2188 168.1875 120.375 169.3125 Q118.9688 169.3125 116.4375 164.8125 Q122.9062 161.1562 147.9375 155.25 L147.9375 154.6875 Q130.5 151.5938 123.1875 145.125 Q116.4375 138.0938 115.3125 136.125 L115.3125 135 Q115.3125 134.1562 118.125 132.1875 ZM96.75 172.125 L98.4375 174.9375 L98.4375 175.5 Q94.5 179.7188 94.5 182.25 L94.5 185.625 Q97.0312 191.8125 114.1875 191.8125 L124.3125 191.8125 Q153.2812 191.8125 190.6875 173.8125 Q192.6562 173.8125 193.5 173.25 Q205.3125 176.3438 205.3125 179.4375 L205.3125 182.8125 Q205.3125 189.5625 168.1875 198.5625 Q138.0938 205.3125 120.9375 205.3125 L120.375 205.3125 Q90 205.3125 83.8125 192.375 Q82.6875 190.4062 82.6875 187.875 L82.6875 187.3125 Q82.6875 176.625 95.625 172.125 L96.75 172.125 ZM121.5 215.4375 Q124.5938 215.4375 125.4375 217.6875 Q120.9375 222.1875 120.9375 225.5625 Q120.9375 230.0625 130.5 230.625 L131.0625 230.625 Q142.5938 230.625 159.1875 225 L159.75 225 Q164.8125 225 167.625 231.1875 Q167.3438 235.125 153.5625 241.875 Q142.875 249.4688 142.875 257.0625 Q142.875 261.8438 174.375 268.3125 Q193.5 275.0625 193.5 283.5 Q191.8125 294.1875 185.0625 294.1875 Q171.5625 291.9375 157.5 291.9375 Q112.2188 291.9375 83.25 317.25 Q78.1875 322.5938 78.1875 326.8125 L78.1875 329.0625 Q78.1875 342.2812 138.375 344.8125 Q174.0938 344.8125 209.8125 336.375 L211.5 336.375 Q218.25 336.375 220.5 341.4375 Q220.5 360.5625 141.75 360.5625 Q86.9062 360.5625 70.3125 339.75 Q67.5 334.4062 67.5 327.9375 Q67.5 311.0625 109.6875 291.375 Q145.4062 280.125 159.75 280.125 L164.25 280.125 L165.375 279.5625 Q165.375 276.4688 140.0625 268.3125 Q130.5 262.4062 130.5 257.0625 Q132.1875 248.9062 135 245.8125 L135 244.6875 L134.4375 244.6875 Q114.1875 244.6875 110.8125 237.9375 Q109.125 234 109.125 233.4375 Q109.125 223.875 121.5 215.4375 Z" stroke="none" />
    </g>
  </g>
</svg>
