<?xml version="1.0"?>

<!DOCTYPE svg PUBLIC '-//W3C//DTD SVG 1.0//EN' 'http://www.w3.org/TR/2001/REC-SVG-20010904/DTD/svg10.dtd'>
<svg fill-opacity="1" xmlns:xlink="http://www.w3.org/1999/xlink" color-rendering="auto" color-interpolation="auto" text-rendering="auto" stroke="black" stroke-linecap="square" stroke-miterlimit="10" shape-rendering="auto" stroke-opacity="1" fill="black" stroke-dasharray="none" font-weight="normal" stroke-width="1" xmlns="http://www.w3.org/2000/svg" font-family="&apos;Dialog&apos;" font-style="normal" stroke-linejoin="miter" font-size="12" stroke-dashoffset="0" image-rendering="auto">
  <!--Unicode Character 'HENTAIGANA LETTER SO-7' (U+1B05D)-->
  <defs id="genericDefs" />
  <g>
    <g>
      <path d="M170.4375 138.9375 Q188.4375 142.3125 188.4375 151.875 Q188.4375 161.1562 159.1875 164.25 Q157.5 164.25 135.5625 172.125 L132.75 168.1875 L132.75 167.0625 L158.0625 156.375 L158.0625 155.25 Q147.6562 156.375 137.8125 156.375 Q113.9062 156.375 96.75 145.125 Q96.75 144 98.4375 140.0625 L99 140.0625 Q113.625 144 128.25 144 L136.125 144 Q148.7812 144 170.4375 138.9375 ZM115.3125 169.875 Q128.25 174.9375 133.3125 185.0625 Q133.3125 186.75 135 186.75 Q171.5625 174.9375 195.75 174.9375 L201.9375 174.9375 Q239.9062 174.9375 248.625 198 Q249.75 201.9375 249.75 204.75 L249.75 206.4375 Q249.75 228.0938 216 233.4375 L212.0625 233.4375 Q192.375 233.4375 181.125 226.125 Q182.25 221.625 182.8125 221.625 Q196.3125 223.3125 199.6875 223.3125 L211.5 223.3125 Q231.1875 221.625 231.1875 208.6875 L231.1875 203.625 Q231.1875 190.6875 209.25 185.0625 Q205.5938 184.5 201.9375 184.5 L193.5 184.5 Q167.0625 184.5 134.4375 195.1875 L134.4375 200.8125 Q134.4375 213.1875 131.0625 239.0625 L131.0625 239.625 Q142.5938 236.25 150.75 236.25 Q182.8125 240.1875 182.8125 268.3125 Q182.8125 280.125 172.125 300.9375 Q211.5 315.5625 227.8125 329.0625 Q242.4375 338.9062 242.4375 345.9375 Q242.4375 353.8125 234.5625 353.8125 Q228.375 353.8125 211.5 338.0625 Q188.4375 320.625 169.3125 313.3125 Q165.375 311.0625 163.125 311.0625 Q146.25 324.8438 131.625 330.75 Q105.75 340.3125 88.875 340.3125 L87.1875 340.3125 Q86.625 340.3125 86.625 340.875 L85.5 340.3125 L83.25 340.3125 Q55.125 340.3125 46.125 321.1875 Q45 315 45 314.4375 Q45 294.4688 84.9375 289.125 Q97.3125 288 105.1875 288 Q120.6562 288 156.375 295.3125 Q166.5 282.6562 166.5 266.0625 L166.5 262.6875 Q166.5 250.5938 158.0625 246.9375 L154.6875 246.375 L150.1875 246.375 Q137.25 246.375 120.9375 255.9375 L118.125 256.5 Q114.1875 256.5 112.5 246.375 Q121.5 220.5 121.5 200.25 L120.9375 200.25 Q96.4688 209.5312 63.5625 226.125 Q54.5625 227.8125 53.4375 227.8125 Q38.25 227.8125 38.25 214.3125 Q38.25 203.3438 50.0625 190.6875 Q54.5625 193.2188 54.5625 194.0625 Q51.1875 199.9688 51.1875 203.0625 L51.1875 205.875 Q51.1875 209.25 54.5625 210.9375 L58.5 210.9375 Q73.4062 208.125 120.9375 191.8125 L120.9375 187.3125 Q120.9375 180.5625 111.9375 173.8125 L111.9375 173.25 Q111.9375 172.4062 115.3125 169.875 ZM54.5625 315.5625 L54.5625 318.375 Q54.5625 330.75 78.75 330.75 Q117.8438 330.75 146.25 306.5625 Q146.25 305.4375 145.6875 305.4375 Q119.25 298.125 97.3125 298.125 Q60.4688 298.125 55.125 312.1875 L54.5625 315.5625 Z" stroke="none" />
    </g>
  </g>
</svg>
