<?xml version="1.0"?>

<!DOCTYPE svg PUBLIC '-//W3C//DTD SVG 1.0//EN' 'http://www.w3.org/TR/2001/REC-SVG-20010904/DTD/svg10.dtd'>
<svg fill-opacity="1" xmlns:xlink="http://www.w3.org/1999/xlink" color-rendering="auto" color-interpolation="auto" text-rendering="auto" stroke="black" stroke-linecap="square" stroke-miterlimit="10" shape-rendering="auto" stroke-opacity="1" fill="black" stroke-dasharray="none" font-weight="normal" stroke-width="1" xmlns="http://www.w3.org/2000/svg" font-family="&apos;Dialog&apos;" font-style="normal" stroke-linejoin="miter" font-size="12" stroke-dashoffset="0" image-rendering="auto">
  <!--Unicode Character 'HENTAIGANA LETTER NI-TE' (U+1B08E)-->
  <defs id="genericDefs" />
  <g>
    <g>
      <path d="M161.4375 141.4688 Q180 145.4062 180 150.4688 Q180.5625 150.4688 181.6875 153.8438 Q181.6875 157.5 165.9375 167.9062 Q131.9062 198.2812 104.0625 226.9688 L105.1875 226.9688 Q149.9062 212.3438 177.75 212.3438 Q227.5312 212.3438 240.1875 247.2188 Q241.3125 253.9688 241.3125 257.9062 L241.3125 259.5938 Q241.3125 288.5625 211.5 307.9688 Q196.3125 316.4062 172.125 316.4062 Q160.875 316.4062 146.8125 312.4688 Q137.25 335.8125 126.5625 351.2812 Q122.625 349.0312 122.0625 349.0312 L122.0625 348.4688 Q140.0625 304.5938 140.0625 266.3438 L140.0625 258.4688 Q140.0625 252 136.6875 250.5938 L135.5625 250.5938 Q120.6562 250.5938 103.5 308.5312 Q99.8438 313.0312 96.75 313.0312 Q88.0312 313.0312 83.8125 298.4062 Q85.5 287.7188 85.5 276.4688 L85.5 269.7188 Q84.6562 256.7812 79.3125 256.7812 Q73.9688 260.7188 61.3125 277.5938 Q55.6875 282.6562 55.125 282.6562 L54.5625 282.6562 Q48.6562 282.6562 46.6875 267.4688 Q46.6875 261.5625 68.625 246.6562 Q97.3125 224.4375 146.8125 167.9062 Q154.125 157.7812 154.125 157.2188 L153 156.6562 Q105.75 175.7812 92.8125 175.7812 Q79.0312 175.7812 70.875 149.9062 L70.875 148.7812 Q73.6875 145.9688 76.5 145.9688 Q83.25 158.9062 92.25 158.9062 L100.125 158.9062 Q118.125 158.9062 157.5 142.5938 Q161.4375 142.0312 161.4375 141.4688 ZM84.375 250.5938 L84.375 251.1562 Q99 251.1562 99 272.5312 L99.5625 281.5312 Q99 284.3438 99 287.1562 L99.5625 287.1562 L111.9375 263.5312 Q127.125 241.5938 138.375 241.5938 Q155.25 241.5938 155.25 264.6562 Q155.25 277.875 149.625 304.5938 Q158.625 308.5312 173.8125 308.5312 Q207 308.5312 219.9375 277.5938 Q222.1875 269.1562 222.1875 262.9688 L222.1875 254.5312 Q222.1875 233.4375 193.5 224.1562 Q186.4688 222.4688 177.75 222.4688 Q116.1562 222.4688 84.375 250.5938 Z" stroke="none" />
    </g>
  </g>
</svg>
