<?xml version="1.0"?>

<!DOCTYPE svg PUBLIC '-//W3C//DTD SVG 1.0//EN' 'http://www.w3.org/TR/2001/REC-SVG-20010904/DTD/svg10.dtd'>
<svg fill-opacity="1" xmlns:xlink="http://www.w3.org/1999/xlink" color-rendering="auto" color-interpolation="auto" text-rendering="auto" stroke="black" stroke-linecap="square" stroke-miterlimit="10" shape-rendering="auto" stroke-opacity="1" fill="black" stroke-dasharray="none" font-weight="normal" stroke-width="1" xmlns="http://www.w3.org/2000/svg" font-family="&apos;Dialog&apos;" font-style="normal" stroke-linejoin="miter" font-size="12" stroke-dashoffset="0" image-rendering="auto">
  <!--Unicode Character 'HENTAIGANA LETTER I-2' (U+1B007)-->
  <defs id="genericDefs" />
  <g>
    <g>
      <path d="M204.75 137.25 Q226.125 139.7812 226.125 150.1875 Q226.125 155.8125 214.875 155.8125 Q206.1562 158.0625 186.1875 171 L185.0625 171 Q184.2188 171 181.6875 167.625 Q189.5625 162.8438 197.4375 154.125 L197.4375 153 Q197.4375 151.3125 191.25 150.75 Q177.75 150.75 154.6875 162 Q151.875 158.9062 151.875 157.5 Q179.4375 137.25 204.75 137.25 ZM93.9375 141.1875 Q97.3125 149.625 97.3125 158.625 Q97.3125 185.625 61.3125 231.1875 Q60.75 233.4375 60.75 235.125 Q60.75 236.25 71.4375 246.9375 Q78.75 255.9375 78.75 271.6875 Q77.625 298.9688 77.625 303.1875 L79.3125 303.1875 Q84.9375 290.25 99.5625 266.625 L100.125 266.625 Q102.9375 268.0312 102.9375 269.4375 Q80.4375 319.5 80.4375 331.3125 Q80.4375 342 73.125 342 Q64.9688 342 62.4375 326.8125 Q65.25 296.1562 65.25 272.8125 Q65.25 243.2812 55.6875 239.0625 Q48.375 232.0312 47.8125 227.25 Q47.8125 220.7812 70.3125 195.1875 Q89.4375 168.75 89.4375 142.3125 Q92.25 141.1875 93.9375 141.1875 ZM195.1875 185.0625 Q209.8125 187.0312 209.8125 194.625 Q209.8125 199.125 195.1875 207 Q161.4375 244.4062 161.4375 255.375 Q161.4375 256.2188 163.125 257.0625 L168.75 257.0625 Q180 257.0625 191.8125 251.4375 L191.8125 250.875 Q191.8125 225 200.8125 218.25 Q203.625 216.2812 208.6875 214.875 Q213.1875 214.875 226.6875 225.5625 Q240.1875 228.6562 240.1875 235.125 Q240.1875 246.9375 208.6875 258.75 Q206.4375 259.5938 206.4375 260.4375 L206.4375 261 Q206.4375 322.875 165.9375 347.625 Q165.9375 348.4688 154.125 355.5 L150.1875 351 Q177.4688 332.1562 186.75 304.3125 Q191.25 284.0625 191.25 265.5 L190.6875 265.5 Q168.75 271.6875 161.4375 271.6875 Q151.3125 271.125 151.3125 262.125 Q151.5938 246.6562 189 201.375 L189 200.25 Q168.75 209.8125 155.8125 209.8125 L155.25 209.8125 Q136.6875 208.4062 133.3125 199.125 L133.3125 198.5625 Q134.7188 195.75 136.125 195.75 Q140.9062 199.125 154.125 199.125 Q167.625 199.125 186.75 186.75 Q191.25 185.0625 195.1875 185.0625 ZM207 244.125 L207 246.375 L207.5625 246.375 Q216 244.6875 226.6875 234 L226.6875 231.75 Q216.5625 222.75 211.5 222.75 Q207 222.75 207 244.125 Z" stroke="none" />
    </g>
  </g>
</svg>
