<?xml version="1.0" encoding="UTF-8" standalone="no"?>
<svg
   xmlns:dc="http://purl.org/dc/elements/1.1/"
   xmlns:cc="http://creativecommons.org/ns#"
   xmlns:rdf="http://www.w3.org/1999/02/22-rdf-syntax-ns#"
   xmlns:svg="http://www.w3.org/2000/svg"
   xmlns="http://www.w3.org/2000/svg"
   xmlns:sodipodi="http://sodipodi.sourceforge.net/DTD/sodipodi-0.dtd"
   xmlns:inkscape="http://www.inkscape.org/namespaces/inkscape"
   fill-opacity="1"
   color-rendering="auto"
   color-interpolation="auto"
   text-rendering="auto"
   stroke="black"
   stroke-linecap="square"
   stroke-miterlimit="10"
   shape-rendering="auto"
   stroke-opacity="1"
   fill="black"
   stroke-dasharray="none"
   font-weight="normal"
   stroke-width="1"
   font-family="'Dialog'"
   font-style="normal"
   stroke-linejoin="miter"
   font-size="12"
   stroke-dashoffset="0"
   image-rendering="auto"
   version="1.1"
   id="svg9"
   sodipodi:docname="hentaigana_letter_su1.svg"
   inkscape:version="0.92.4 (5da689c313, 2019-01-14)"
   width="100%"
   height="100%"
   viewBox="0 0 100 100"
   preserveAspectRatio="xMidYMid meet"
   >
  <metadata
     id="metadata13">
    <rdf:RDF>
      <cc:Work
         rdf:about="">
        <dc:format>image/svg+xml</dc:format>
        <dc:type
           rdf:resource="http://purl.org/dc/dcmitype/StillImage" />
      </cc:Work>
    </rdf:RDF>
  </metadata>
  <sodipodi:namedview
     pagecolor="#ffffff"
     bordercolor="#666666"
     borderopacity="1"
     objecttolerance="10"
     gridtolerance="10"
     guidetolerance="10"
     inkscape:pageopacity="0"
     inkscape:pageshadow="2"
     inkscape:window-width="1920"
     inkscape:window-height="986"
     id="namedview11"
     showgrid="false"
     inkscape:zoom="2.36"
     inkscape:cx="50"
     inkscape:cy="50"
     inkscape:window-x="-11"
     inkscape:window-y="-11"
     inkscape:window-maximized="1"
     inkscape:current-layer="svg9" />
  <!--Unicode Character 'HENTAIGANA LETTER SU-1' (U+1B04A)-->
  <defs
     id="genericDefs" />
  <g
     id="g7"
     transform="matrix(0.44911314,0,0,0.4460495,-14.740089,-59.918751)">
    <g
       id="g5">
      <path
         d="m 90.2812,135.8438 q 25.875,12.0937 25.875,24.1874 0,11.5313 -32.625,33.1876 -4.7812,4.2187 -29.25,21.375 l -0.5624,1.125 q 0,2.5312 11.25,11.8124 15.1874,19.4063 15.1874,43.3126 -5.3437,41.9062 -17.4374,65.25 -7.3126,12.0937 -12.9376,13.5 h -1.125 q -3.9374,-3.0938 -3.9374,-10.6876 0,-9.8437 7.875,-16.875 12.375,-26.4374 12.375,-56.25 0,-30.375 -12.9376,-39.375 -7.5937,-4.2187 -9.5624,-8.4374 0,-4.5 18.5624,-16.875 36,-28.9688 36,-43.3126 v -1.125 q 0,-10.4062 -11.8124,-16.3124 3.375,-4.5 5.0624,-4.5 z m 95.625,32.0624 h 0.5626 q 30.375,13.5 30.375,42.1876 -9,45.8437 -9,61.3124 v 14.625 q 0,37.125 37.6874,65.25 v 0.5626 q -1.4062,3.6562 -3.375,5.0624 h -0.5624 q -15.4688,-7.3124 -33.75,-29.25 -15.75,-23.625 -15.75,-48.375 0,-9.8437 9,-66.9374 v -3.375 q 0,-23.9063 -18,-37.125 v -1.125 q 0,-0.8438 2.8124,-2.8126 z m -66.375,42.75 q 20.8126,16.875 20.8126,56.8126 v 6.75 q 0,36.2812 -14.0626,41.625 h -3.375 q -3.375,-1.9688 -3.375,-6.75 5.0626,-19.125 5.0626,-45 v -3.375 q 0,-34.3126 -10.125,-47.25 2.8124,-2.8126 5.0624,-2.8126 z"
         id="path3"
         inkscape:connector-curvature="0"
         style="stroke:none" />
    </g>
  </g>
</svg>
