<?xml version="1.0"?>

<!DOCTYPE svg PUBLIC '-//W3C//DTD SVG 1.0//EN' 'http://www.w3.org/TR/2001/REC-SVG-20010904/DTD/svg10.dtd'>
<svg fill-opacity="1" xmlns:xlink="http://www.w3.org/1999/xlink" color-rendering="auto" color-interpolation="auto" text-rendering="auto" stroke="black" stroke-linecap="square" stroke-miterlimit="10" shape-rendering="auto" stroke-opacity="1" fill="black" stroke-dasharray="none" font-weight="normal" stroke-width="1" xmlns="http://www.w3.org/2000/svg" font-family="&apos;Dialog&apos;" font-style="normal" stroke-linejoin="miter" font-size="12" stroke-dashoffset="0" image-rendering="auto">
  <!--Unicode Character 'HENTAIGANA LETTER RU-5' (U+1B0FC)-->
  <defs id="genericDefs" />
  <g>
    <g>
      <path d="M164.25 138.6562 L166.5 138.6562 Q194.0625 138.6562 201.9375 158.3438 Q203.625 166.7812 203.625 167.3438 Q203.625 202.2188 147.375 216.8438 Q141.1875 225 141.1875 230.9062 Q141.1875 235.9688 158.0625 244.4062 Q185.0625 262.4062 185.0625 287.1562 L185.0625 288.8438 Q185.0625 332.7188 146.8125 350.7188 Q136.9688 354.0938 128.8125 354.0938 Q104.9062 354.0938 89.4375 325.9688 L89.4375 325.4062 Q89.7188 324.2812 94.5 320.9062 L95.0625 320.9062 Q108.5625 340.5938 124.3125 340.5938 L128.8125 340.5938 Q160.5938 340.5938 167.625 296.7188 Q168.1875 289.6875 168.1875 288.2812 Q168.1875 256.7812 137.25 243.2812 Q130.5 236.8125 130.5 232.0312 Q131.3438 225.5625 135 216.2812 L135 215.7188 Q126 215.1562 126 211.2188 Q126 205.0312 144.5625 194.3438 L146.25 194.3438 Q150.75 197.7188 150.75 205.5938 L150.75 206.1562 Q151.875 206.1562 151.875 206.7188 Q185.625 193.5 185.625 167.9062 Q185.625 147.0938 165.9375 147.0938 Q142.3125 147.0938 105.75 175.7812 Q101.5312 177.4688 97.875 177.4688 L97.3125 177.4688 Q84.9375 177.4688 78.1875 150.4688 Q78.1875 148.2188 83.8125 146.5312 Q88.0312 158.3438 95.625 158.3438 Q102.9375 158.3438 129.9375 145.9688 Q151.5938 138.6562 164.25 138.6562 ZM208.6875 270.8438 L209.8125 270.8438 Q236.25 279.5625 248.625 300.6562 Q250.3125 303.4688 251.4375 309.0938 Q251.4375 317.8125 241.875 322.0312 Q235.125 322.0312 231.1875 304.5938 Q221.9062 284.9062 204.75 276.4688 Q207.8438 270.8438 208.6875 270.8438 ZM52.3125 279.2812 Q56.5312 281.25 56.8125 282.6562 L56.8125 283.2188 Q51.4688 291.9375 50.625 301.2188 L50.625 307.9688 Q50.625 308.8125 52.875 310.2188 L53.4375 310.2188 Q82.4062 295.3125 112.5 285.4688 Q126.5625 280.9688 128.25 280.9688 Q129.9375 284.9062 129.9375 287.1562 Q129.6562 288 108 296.1562 Q79.0312 308.8125 62.4375 323.7188 Q55.125 335.5312 54 335.5312 Q54 336.375 50.625 336.6562 Q39.6562 336.6562 36.5625 311.9062 Q36.5625 295.3125 52.3125 279.2812 Z" stroke="none" />
    </g>
  </g>
</svg>
