<?xml version="1.0"?>

<!DOCTYPE svg PUBLIC '-//W3C//DTD SVG 1.0//EN' 'http://www.w3.org/TR/2001/REC-SVG-20010904/DTD/svg10.dtd'>
<svg fill-opacity="1" xmlns:xlink="http://www.w3.org/1999/xlink" color-rendering="auto" color-interpolation="auto" text-rendering="auto" stroke="black" stroke-linecap="square" stroke-miterlimit="10" shape-rendering="auto" stroke-opacity="1" fill="black" stroke-dasharray="none" font-weight="normal" stroke-width="1" xmlns="http://www.w3.org/2000/svg" font-family="&apos;Dialog&apos;" font-style="normal" stroke-linejoin="miter" font-size="12" stroke-dashoffset="0" image-rendering="auto">
  <!--Unicode Character 'HENTAIGANA LETTER RI-4' (U+1B0F4)-->
  <defs id="genericDefs" />
  <g>
    <g>
      <path d="M110.5312 130.5 Q133.5938 134.7188 133.5938 144 Q133.5938 149.625 102.6562 166.5 Q102.0938 167.3438 102.0938 168.75 Q102.0938 171.5625 105.4688 175.5 Q109.4062 174.9375 109.9688 174.9375 Q115.0312 174.9375 117.8438 178.875 L117.8438 180 Q117.8438 182.5312 109.4062 191.8125 Q111.9375 205.5938 112.7812 207 Q144 184.5 151.0312 184.5 Q158.0625 184.5 164.5312 197.4375 L165.0938 197.4375 Q166.7812 197.4375 187.0312 182.25 Q199.6875 176.0625 209.5312 176.0625 Q230.9062 179.4375 230.9062 197.4375 Q230.9062 226.6875 158.9062 258.1875 L158.9062 277.875 L159.4688 277.875 Q167.625 276.1875 180.2812 270 Q181.6875 270 182.5312 269.4375 Q190.4062 271.125 190.4062 276.75 Q190.4062 286.5938 158.3438 291.9375 L158.3438 300.9375 Q158.3438 317.8125 158.9062 345.9375 Q155.25 362.25 144.8438 362.25 Q142.0312 362.25 135.8438 352.125 Q124.3125 340.875 116.1562 337.5 Q117.8438 332.1562 117.8438 331.875 Q140.3438 341.4375 143.7188 341.4375 L144.8438 341.4375 L144.8438 292.5 Q125.1562 292.5 115.0312 279 Q116.7188 274.2188 116.7188 273.9375 Q127.9688 279 141.4688 279 L144.2812 279 L144.2812 262.6875 Q144.2812 255.9375 138.6562 254.8125 Q133.5938 255.375 132.4688 255.375 Q130.7812 252.5625 130.7812 250.875 L130.7812 249.75 Q136.9688 246.6562 144.8438 245.8125 Q151.3125 245.8125 157.2188 251.4375 Q214.0312 222.75 214.0312 200.25 L214.0312 195.1875 Q214.0312 184.5 206.7188 184.5 L202.7812 184.5 Q192.9375 184.5 174.0938 206.4375 Q169.3125 216.5625 162.8438 216.5625 Q155.5312 216.5625 151.0312 198 Q147.9375 195.1875 147.6562 195.1875 L145.9688 195.1875 Q140.0625 195.1875 113.3438 217.125 Q113.3438 217.6875 113.9062 230.625 Q113.9062 282.375 97.5938 289.125 L95.9062 289.125 Q91.125 289.125 82.9688 269.4375 Q75.0938 257.0625 72.2812 257.0625 Q66.9375 264.375 63.8438 264.375 Q54.2812 256.7812 54.2812 249.75 Q54.2812 247.5 98.1562 190.6875 L98.1562 189.5625 Q98.1562 188.4375 97.0312 188.4375 Q88.0312 188.7188 63.8438 205.3125 Q61.5938 202.7812 59.9062 200.25 L59.9062 199.6875 Q77.0625 186.1875 94.2188 178.3125 L94.2188 177.75 Q90.8438 171.5625 90.2812 168.75 Q90.2812 163.9688 103.2188 156.9375 Q114.4688 147.6562 114.4688 142.3125 L114.4688 140.625 Q113.9062 138.6562 106.0312 135 Q106.0312 132.75 110.5312 130.5 ZM98.1562 202.5 Q79.3125 225.2812 68.9062 240.1875 L68.9062 241.3125 Q72 239.9062 100.4062 216 L100.4062 212.0625 Q100.4062 208.9688 99.8438 202.5 L98.1562 202.5 ZM76.7812 252.5625 Q93.375 267.1875 94.2188 267.1875 L94.7812 267.1875 Q100.4062 261.5625 100.4062 235.125 L100.4062 229.5 L99.2812 229.5 Q80.7188 244.9688 76.7812 252.5625 ZM187.5938 310.5 Q210.0938 310.5 228.6562 326.8125 Q233.7188 331.875 233.7188 339.1875 Q232.5938 347.0625 225.8438 347.0625 Q221.0625 347.0625 211.2188 331.875 Q195.4688 318.375 184.2188 316.6875 L184.2188 315.5625 Q186.1875 310.5 187.5938 310.5 ZM118.9688 313.3125 L119.5312 313.3125 Q120.6562 317.8125 120.6562 318.9375 L120.6562 320.0625 Q108 325.125 81.8438 349.875 Q78.75 353.25 75.0938 353.25 Q65.25 353.25 62.7188 338.0625 Q62.7188 326.5312 76.2188 314.4375 Q80.1562 316.6875 80.1562 317.8125 Q77.3438 323.1562 77.3438 326.25 L77.3438 332.4375 Q77.3438 333.2812 79.0312 334.125 L80.1562 334.125 Q81 334.125 113.3438 315.5625 Q117.2812 313.3125 118.9688 313.3125 Z" stroke="none" />
    </g>
  </g>
</svg>
