<?xml version="1.0"?>

<!DOCTYPE svg PUBLIC '-//W3C//DTD SVG 1.0//EN' 'http://www.w3.org/TR/2001/REC-SVG-20010904/DTD/svg10.dtd'>
<svg fill-opacity="1" xmlns:xlink="http://www.w3.org/1999/xlink" color-rendering="auto" color-interpolation="auto" text-rendering="auto" stroke="black" stroke-linecap="square" stroke-miterlimit="10" shape-rendering="auto" stroke-opacity="1" fill="black" stroke-dasharray="none" font-weight="normal" stroke-width="1" xmlns="http://www.w3.org/2000/svg" font-family="&apos;Dialog&apos;" font-style="normal" stroke-linejoin="miter" font-size="12" stroke-dashoffset="0" image-rendering="auto">
  <!--Unicode Character 'HENTAIGANA LETTER ME-MA' (U+1B0D6)-->
  <defs id="genericDefs" />
  <g>
    <g>
      <path d="M221.0625 143.4375 Q237.6562 143.4375 241.875 154.6875 L241.875 155.25 Q240.1875 161.4375 233.4375 161.4375 Q207.8438 158.0625 192.375 158.0625 Q136.4062 158.0625 65.8125 176.0625 Q55.4062 176.0625 46.125 150.1875 Q46.125 149.0625 50.0625 146.8125 L51.1875 146.8125 Q58.5 157.5 68.625 157.5 L75.375 157.5 L221.0625 143.4375 ZM131.0625 196.875 Q138.6562 207 145.6875 207 L153.5625 207 Q167.0625 207 186.75 196.875 L189 196.875 Q194.3438 196.875 201.375 206.4375 L201.375 209.8125 L183.375 226.125 Q175.5 235.125 175.5 238.5 Q175.5 241.875 195.75 246.9375 Q222.75 259.5938 222.75 286.3125 L222.75 289.125 Q222.75 329.3438 163.125 347.0625 Q151.3125 349.3125 141.1875 349.3125 Q96.75 349.3125 84.375 325.125 Q82.125 316.125 82.125 315 Q82.125 298.125 104.0625 294.75 Q125.1562 294.75 133.3125 328.5 Q133.3125 339.75 136.6875 339.75 L138.9375 339.75 Q181.6875 339.75 201.9375 303.1875 Q204.1875 296.7188 204.75 289.6875 Q204.75 262.4062 190.125 254.25 Q183.9375 251.4375 168.75 246.375 Q165.9375 243.2812 165.9375 241.3125 Q165.9375 237.0938 177.1875 215.4375 L176.625 215.4375 Q153 221.625 145.125 221.625 Q133.875 221.625 125.4375 199.6875 Q125.4375 198.2812 131.0625 196.875 ZM96.1875 315 Q96.1875 331.0312 116.4375 336.9375 Q117.8438 337.5 123.75 337.5 Q123.75 336.9375 124.3125 336.9375 Q118.4062 307.6875 106.3125 307.6875 L102.375 307.6875 Q97.5938 307.6875 96.1875 315 Z" stroke="none" />
    </g>
  </g>
</svg>
