<?xml version="1.0"?>

<!DOCTYPE svg PUBLIC '-//W3C//DTD SVG 1.0//EN' 'http://www.w3.org/TR/2001/REC-SVG-20010904/DTD/svg10.dtd'>
<svg fill-opacity="1" xmlns:xlink="http://www.w3.org/1999/xlink" color-rendering="auto" color-interpolation="auto" text-rendering="auto" stroke="black" stroke-linecap="square" stroke-miterlimit="10" shape-rendering="auto" stroke-opacity="1" fill="black" stroke-dasharray="none" font-weight="normal" stroke-width="1" xmlns="http://www.w3.org/2000/svg" font-family="&apos;Dialog&apos;" font-style="normal" stroke-linejoin="miter" font-size="12" stroke-dashoffset="0" image-rendering="auto">
  <!--Unicode Character 'HENTAIGANA LETTER TI-3' (U+1B064)-->
  <defs id="genericDefs" />
  <g>
    <g>
      <path d="M115.0312 136.6875 Q126.8438 136.6875 144.8438 159.1875 Q146.5312 163.4062 146.5312 167.0625 Q146.5312 181.9688 92.5312 189 Q90.8438 192.9375 90.8438 203.0625 L90.8438 203.625 Q90.8438 205.3125 93.0938 205.3125 Q102.6562 204.1875 103.7812 204.1875 Q119.5312 205.3125 119.5312 213.75 Q119.5312 221.9062 95.9062 253.125 L95.9062 253.6875 Q114.75 241.5938 171.8438 186.75 Q171.8438 185.625 178.5938 183.375 Q182.8125 183.375 190.4062 192.9375 Q192.375 194.0625 193.7812 194.0625 Q195.4688 194.0625 210.0938 181.125 Q218.8125 175.5 226.4062 175.5 Q244.125 175.5 247.2188 189.5625 Q247.2188 190.125 247.7812 191.25 Q247.7812 206.4375 215.7188 222.75 Q167.3438 253.6875 155.5312 263.25 L155.5312 263.8125 L156.0938 263.8125 Q173.25 257.625 189.2812 257.625 Q218.8125 257.625 230.3438 282.375 Q232.0312 289.9688 232.0312 293.0625 Q232.0312 324.8438 201.0938 344.8125 Q181.125 356.0625 159.4688 356.0625 L156.0938 356.0625 Q131.3438 356.0625 117.8438 329.625 Q117.2812 326.5312 117.2812 324.5625 Q117.2812 309.6562 144.2812 305.4375 Q148.2188 304.875 150.4688 304.875 Q180.2812 308.25 180.2812 323.4375 Q180.2812 327.0938 174.6562 328.5 L173.5312 328.5 Q172.125 328.5 161.1562 321.75 Q151.5938 317.8125 143.1562 317.8125 L140.3438 317.8125 Q126.2812 319.2188 126.2812 326.8125 L126.2812 327.9375 Q126.2812 340.875 148.2188 345.9375 Q150.1875 346.5 154.4062 346.5 L161.7188 346.5 Q185.3438 346.5 205.5938 322.875 Q214.0312 308.25 214.0312 292.5 L214.0312 288.5625 Q214.0312 269.7188 186.4688 266.0625 L178.0312 266.0625 Q154.4062 269.1562 133.0312 284.625 Q110.8125 305.1562 94.2188 329.625 Q94.2188 331.3125 87.4688 336.375 Q81.8438 336.375 78.4688 324 Q78.4688 316.9688 119.5312 283.5 Q151.875 255.6562 216.8438 210.375 Q229.2188 200.8125 229.2188 193.5 L229.2188 190.6875 Q228.375 182.8125 222.4688 182.8125 Q210.375 182.8125 198.2812 208.125 Q194.3438 212.625 193.7812 212.625 L192.6562 212.625 Q185.3438 212.625 174.6562 196.875 L173.5312 196.3125 L172.4062 196.3125 Q169.0312 196.3125 141.4688 224.4375 Q124.3125 241.0312 81.8438 280.125 Q81.8438 281.25 79.0312 281.25 Q74.5312 281.25 72.8438 268.875 Q72.8438 262.6875 86.9062 253.125 Q102.6562 228.0938 102.6562 221.0625 L102.6562 219.375 Q102.6562 216 99.2812 216 L97.0312 216 Q93.6562 216 84.6562 218.8125 Q76.2188 218.8125 75.0938 207.5625 Q75.0938 203.3438 77.3438 188.4375 L76.7812 188.4375 Q54 188.4375 40.2188 171 L43.5938 167.625 Q57.0938 176.625 77.3438 176.625 Q81.2812 176.625 84.6562 164.8125 Q101.5312 136.6875 115.0312 136.6875 ZM95.3438 176.625 Q133.0312 171.5625 133.0312 163.125 L133.0312 162 Q133.0312 151.5938 118.4062 146.25 L116.7188 146.25 Q108 146.25 97.5938 168.75 Q95.3438 174.0938 95.3438 176.625 Z" stroke="none" />
    </g>
  </g>
</svg>
