<?xml version="1.0"?>

<!DOCTYPE svg PUBLIC '-//W3C//DTD SVG 1.0//EN' 'http://www.w3.org/TR/2001/REC-SVG-20010904/DTD/svg10.dtd'>
<svg fill-opacity="1" xmlns:xlink="http://www.w3.org/1999/xlink" color-rendering="auto" color-interpolation="auto" text-rendering="auto" stroke="black" stroke-linecap="square" stroke-miterlimit="10" shape-rendering="auto" stroke-opacity="1" fill="black" stroke-dasharray="none" font-weight="normal" stroke-width="1" xmlns="http://www.w3.org/2000/svg" font-family="&apos;Dialog&apos;" font-style="normal" stroke-linejoin="miter" font-size="12" stroke-dashoffset="0" image-rendering="auto">
  <!--Unicode Character 'HENTAIGANA LETTER RU-3' (U+1B0FA)-->
  <defs id="genericDefs" />
  <g>
    <g>
      <path d="M198.8438 145.9688 L201.0938 145.9688 Q221.3438 148.5 221.3438 159.4688 Q221.3438 167.9062 194.3438 182.5312 Q142.875 220.5 93.6562 260.7188 L93.6562 261.2812 L94.2188 261.2812 Q135.5625 234.8438 176.3438 234.8438 Q212.9062 234.8438 226.9688 265.7812 L229.2188 278.7188 Q229.2188 324 173.5312 342.2812 Q158.3438 346.7812 137.5312 346.7812 Q104.3438 346.7812 95.9062 323.1562 Q94.7812 320.9062 94.7812 316.9688 L94.7812 315.2812 Q94.7812 295.875 120.6562 292.2188 Q144.8438 292.2188 166.2188 315.2812 L176.3438 329.9062 Q210.6562 313.5938 210.6562 279.8438 L210.6562 278.1562 Q210.6562 256.7812 191.5312 248.3438 Q184.2188 244.9688 171.8438 244.9688 Q125.4375 244.9688 66.0938 289.9688 Q64.9688 289.9688 63.8438 290.5312 Q60.1875 290.5312 58.7812 283.2188 Q58.7812 267.75 75.6562 261.8438 Q135 220.5 194.3438 166.7812 Q197.7188 162 197.7188 160.0312 L197.7188 157.7812 Q196.875 155.5312 192.6562 155.5312 L189.8438 155.5312 Q169.875 155.5312 152.1562 174.0938 Q146.25 178.5938 142.0312 178.5938 L140.9062 178.5938 Q133.875 178.5938 130.2188 159.4688 L126.8438 156.6562 L122.3438 156.6562 Q121.5 156.6562 116.1562 157.7812 Q113.9062 154.9688 113.9062 154.4062 Q122.625 148.5 131.3438 147.0938 Q139.2188 147.0938 146.5312 161.7188 L150.4688 162.8438 Q152.1562 162.8438 176.3438 150.4688 Q190.4062 145.9688 198.8438 145.9688 ZM66.0938 151.0312 Q70.0312 179.1562 75.6562 179.1562 L76.2188 179.1562 Q79.5938 178.3125 99.8438 163.9688 Q100.6875 163.9688 103.2188 167.3438 Q86.625 182.5312 80.7188 194.9062 Q79.875 197.1562 76.2188 197.1562 Q61.0312 197.1562 58.7812 161.7188 Q58.7812 151.0312 62.1562 151.0312 L66.0938 151.0312 ZM103.7812 316.4062 L103.7812 318.6562 Q103.7812 332.7188 129.0938 337.2188 Q131.9062 337.7812 136.4062 337.7812 L139.2188 337.7812 Q160.0312 337.7812 160.0312 333.8438 Q144 302.3438 118.9688 302.3438 Q103.7812 302.3438 103.7812 316.4062 Z" stroke="none" />
    </g>
  </g>
</svg>
