<?xml version="1.0"?>

<!DOCTYPE svg PUBLIC '-//W3C//DTD SVG 1.0//EN' 'http://www.w3.org/TR/2001/REC-SVG-20010904/DTD/svg10.dtd'>
<svg fill-opacity="1" xmlns:xlink="http://www.w3.org/1999/xlink" color-rendering="auto" color-interpolation="auto" text-rendering="auto" stroke="black" stroke-linecap="square" stroke-miterlimit="10" shape-rendering="auto" stroke-opacity="1" fill="black" stroke-dasharray="none" font-weight="normal" stroke-width="1" xmlns="http://www.w3.org/2000/svg" font-family="&apos;Dialog&apos;" font-style="normal" stroke-linejoin="miter" font-size="12" stroke-dashoffset="0" image-rendering="auto">
  <!--Unicode Character 'HENTAIGANA LETTER WI-3' (U+1B10F)-->
  <defs id="genericDefs" />
  <g>
    <g>
      <path d="M179.1562 139.5 Q184.5 139.5 194.3438 153 Q194.9062 154.125 194.9062 154.6875 Q194.9062 157.7812 171.2812 179.4375 Q129.375 223.5938 115.0312 244.125 L115.0312 244.6875 L115.5938 244.6875 Q136.4062 235.6875 170.1562 227.8125 Q170.1562 222.75 187.5938 200.25 L188.1562 200.25 Q192.375 202.2188 192.6562 203.625 L192.6562 204.1875 Q184.5 216.2812 183.0938 225.5625 Q207.8438 221.625 217.4062 221.625 Q230.3438 221.625 232.5938 232.3125 Q232.5938 235.6875 227.5312 236.8125 Q217.4062 235.125 210.0938 235.125 Q178.5938 235.125 178.5938 238.5 Q174.0938 261 174.0938 275.625 L174.0938 279 Q174.0938 280.6875 176.3438 280.6875 Q191.25 274.5 203.3438 274.5 L207.8438 274.5 Q228.375 274.5 235.9688 294.75 L237.0938 301.5 Q237.0938 329.9062 176.9062 347.0625 Q151.0312 353.25 145.9688 353.25 Q143.1562 348.1875 143.1562 346.5 L143.1562 345.9375 Q218.5312 330.75 218.5312 298.125 Q216.2812 283.5 206.1562 283.5 L197.7188 283.5 Q189.2812 283.5 171.8438 293.625 Q171 294.1875 169.5938 294.1875 Q158.9062 291.0938 158.9062 276.1875 Q158.9062 266.0625 165.0938 240.1875 L165.0938 239.0625 Q136.6875 244.125 113.9062 255.9375 Q92.8125 272.25 82.4062 294.75 Q72.5625 312.1875 63.8438 333.5625 Q59.0625 338.625 58.2188 338.625 Q52.3125 338.625 50.9062 327.375 Q50.9062 314.7188 64.9688 298.125 Q117.8438 222.75 171.8438 155.8125 L172.9688 153.5625 Q172.4062 153.5625 172.4062 153 Q138.0938 162.5625 121.2188 172.6875 Q119.5312 173.8125 111.0938 175.5 Q97.5938 175.5 89.7188 147.375 Q89.7188 146.8125 90.2812 146.8125 Q93.375 144.5625 95.3438 144.5625 L95.9062 144.5625 Q103.2188 158.625 113.9062 158.625 Q124.875 158.625 178.0312 139.5 L179.1562 139.5 Z" stroke="none" />
    </g>
  </g>
</svg>
