<?xml version="1.0"?>

<!DOCTYPE svg PUBLIC '-//W3C//DTD SVG 1.0//EN' 'http://www.w3.org/TR/2001/REC-SVG-20010904/DTD/svg10.dtd'>
<svg fill-opacity="1" xmlns:xlink="http://www.w3.org/1999/xlink" color-rendering="auto" color-interpolation="auto" text-rendering="auto" stroke="black" stroke-linecap="square" stroke-miterlimit="10" shape-rendering="auto" stroke-opacity="1" fill="black" stroke-dasharray="none" font-weight="normal" stroke-width="1" xmlns="http://www.w3.org/2000/svg" font-family="&apos;Dialog&apos;" font-style="normal" stroke-linejoin="miter" font-size="12" stroke-dashoffset="0" image-rendering="auto">
  <!--Unicode Character 'HENTAIGANA LETTER TE-6' (U+1B073)-->
  <defs id="genericDefs" />
  <g>
    <g>
      <path d="M173.25 135.2812 Q181.9688 135.2812 187.3125 145.9688 Q187.3125 149.625 165.375 158.9062 Q151.3125 165.9375 137.8125 176.9062 Q135 180.2812 135 184.2188 Q135 190.4062 151.3125 190.4062 L155.8125 190.4062 Q178.0312 189.2812 180 189.2812 Q187.875 189.2812 191.8125 199.4062 L191.8125 199.9688 Q191.8125 206.7188 170.4375 217.9688 Q161.4375 224.1562 90 266.9062 L90 268.0312 Q91.4062 270.8438 128.25 284.9062 Q166.7812 302.9062 201.9375 329.3438 Q210.9375 338.625 210.9375 347.9062 Q210.9375 354.9375 205.875 357.4688 L204.1875 357.4688 Q200.8125 357.4688 186.75 342.8438 Q123.4688 288.5625 84.9375 280.4062 Q77.625 280.4062 77.0625 271.4062 Q77.0625 262.9688 95.0625 254.5312 Q144.8438 223.3125 167.0625 204.4688 L167.0625 203.3438 L160.3125 203.9062 L158.625 203.9062 Q120.9375 203.9062 120.9375 189.8438 L120.9375 189.2812 Q120.9375 179.4375 154.6875 153.2812 Q154.125 153.2812 154.125 152.7188 Q129.9375 159.75 109.125 168.4688 Q106.0312 169.0312 104.0625 169.0312 Q90.2812 169.0312 86.625 138.6562 Q88.875 136.9688 92.8125 136.9688 Q97.5938 151.5938 106.3125 151.5938 L109.6875 151.5938 Q121.2188 151.5938 171 135.8438 Q172.4062 135.8438 173.25 135.2812 Z" stroke="none" />
    </g>
  </g>
</svg>
