<?xml version="1.0"?>

<!DOCTYPE svg PUBLIC '-//W3C//DTD SVG 1.0//EN' 'http://www.w3.org/TR/2001/REC-SVG-20010904/DTD/svg10.dtd'>
<svg fill-opacity="1" xmlns:xlink="http://www.w3.org/1999/xlink" color-rendering="auto" color-interpolation="auto" text-rendering="auto" stroke="black" stroke-linecap="square" stroke-miterlimit="10" shape-rendering="auto" stroke-opacity="1" fill="black" stroke-dasharray="none" font-weight="normal" stroke-width="1" xmlns="http://www.w3.org/2000/svg" font-family="&apos;Dialog&apos;" font-style="normal" stroke-linejoin="miter" font-size="12" stroke-dashoffset="0" image-rendering="auto">
  <!--Unicode Character 'HENTAIGANA LETTER NI-6' (U+1B08C)-->
  <defs id="genericDefs" />
  <g>
    <g>
      <path d="M145.125 145.4062 Q151.0312 145.4062 158.625 156.6562 L158.625 157.7812 Q151.875 203.3438 151.875 278.7188 Q180 284.625 202.5 304.5938 Q208.125 312.1875 208.125 316.9688 Q206.7188 322.5938 202.5 322.5938 L201.9375 322.5938 Q197.4375 322.5938 186.1875 311.3438 Q166.5 296.7188 152.4375 294.4688 L152.4375 297.2812 Q152.4375 332.4375 133.3125 343.4062 Q128.8125 347.3438 123.75 347.3438 Q119.5312 347.3438 104.0625 330.4688 Q80.4375 312.75 80.4375 309.0938 Q80.4375 307.4062 79.875 305.1562 Q79.875 296.4375 99 286.0312 Q118.4062 277.5938 133.875 277.5938 L137.8125 277.5938 L137.8125 266.9062 Q137.8125 219.6562 141.1875 158.9062 L139.5 157.7812 L138.375 157.7812 Q133.5938 157.7812 103.5 178.0312 Q100.4062 178.5938 98.4375 178.5938 Q87.4688 178.5938 85.5 150.4688 L85.5 149.3438 Q85.5 147.375 91.6875 145.9688 Q95.9062 161.7188 102.375 161.7188 L104.625 161.7188 Q109.4062 161.7188 141.75 145.9688 Q142.5938 145.4062 145.125 145.4062 ZM93.375 307.4062 Q93.375 314.1562 118.125 328.7812 L121.5 329.3438 L126 329.3438 Q135.5625 329.3438 137.25 304.5938 L137.25 298.4062 L137.8125 292.7812 L127.125 292.7812 Q106.875 292.7812 93.375 305.7188 L93.375 307.4062 Z" stroke="none" />
    </g>
  </g>
</svg>
