<?xml version="1.0"?>

<!DOCTYPE svg PUBLIC '-//W3C//DTD SVG 1.0//EN' 'http://www.w3.org/TR/2001/REC-SVG-20010904/DTD/svg10.dtd'>
<svg fill-opacity="1" xmlns:xlink="http://www.w3.org/1999/xlink" color-rendering="auto" color-interpolation="auto" text-rendering="auto" stroke="black" stroke-linecap="square" stroke-miterlimit="10" shape-rendering="auto" stroke-opacity="1" fill="black" stroke-dasharray="none" font-weight="normal" stroke-width="1" xmlns="http://www.w3.org/2000/svg" font-family="&apos;Dialog&apos;" font-style="normal" stroke-linejoin="miter" font-size="12" stroke-dashoffset="0" image-rendering="auto">
  <!--Unicode Character 'HENTAIGANA LETTER NI-4' (U+1B08A)-->
  <defs id="genericDefs" />
  <g>
    <g>
      <path d="M162 139.2188 Q189 139.2188 189 151.5938 Q189 156.6562 177.75 174.0938 L177.75 175.7812 Q187.875 174.6562 189.5625 174.6562 Q211.5 174.6562 219.375 190.9688 Q220.5 196.0312 220.5 198.2812 L220.5 200.5312 Q220.5 224.7188 179.4375 231.4688 L171 231.4688 Q163.6875 231.4688 146.8125 226.4062 L146.25 226.4062 Q137.8125 240.4688 117 266.9062 L117 268.0312 L117.5625 268.0312 Q119.25 268.0312 126 266.3438 Q143.4375 266.3438 161.4375 315.2812 Q170.7188 338.3438 182.8125 338.3438 L192.375 338.3438 Q210.375 338.3438 232.3125 331.5938 Q244.6875 334.4062 244.6875 342.2812 Q244.6875 352.125 196.3125 353.5312 Q159.4688 353.5312 150.75 328.7812 Q132.1875 277.0312 122.625 277.0312 L119.8125 277.0312 Q106.5938 277.0312 86.0625 309.6562 Q59.9062 346.5 55.125 351.2812 L52.3125 351.8438 L51.75 351.8438 Q43.3125 349.0312 43.3125 338.9062 Q43.3125 334.6875 60.75 319.2188 Q139.5 225.2812 155.25 189.8438 L154.125 189.8438 Q138.9375 194.0625 112.5 219.0938 Q108 224.4375 103.5 225.2812 Q100.4062 225.2812 97.3125 216.2812 L105.1875 202.7812 Q109.6875 189.8438 109.6875 185.9062 L109.6875 181.4062 Q109.6875 180.5625 108 179.7188 L107.4375 179.7188 Q103.7812 179.7188 99.5625 183.6562 Q98.7188 183.6562 96.75 180.8438 L96.75 180.2812 Q103.2188 171.8438 111.9375 171.8438 Q123.1875 174.375 123.1875 184.2188 L123.1875 184.7812 Q123.1875 188.4375 119.8125 199.4062 L120.375 199.4062 Q148.2188 182.25 159.1875 180.2812 Q171 159.4688 171 153.8438 L171 151.5938 Q171 148.2188 156.375 144.8438 L156.375 144.2812 Q157.7812 139.2188 162 139.2188 ZM65.8125 179.1562 Q70.3125 179.1562 70.3125 181.4062 Q63.5625 194.625 63.5625 207.2812 Q64.125 210.375 64.125 211.7812 L65.8125 211.7812 L83.25 194.3438 Q84.0938 194.3438 86.0625 197.1562 L86.0625 197.7188 Q69.4688 220.5 68.0625 230.3438 Q63.8438 234.2812 61.3125 234.2812 Q53.1562 234.2812 51.1875 219.6562 Q51.1875 199.4062 65.8125 179.1562 ZM152.4375 219.0938 Q153.8438 222.4688 173.25 223.0312 Q195.75 223.0312 202.5 206.1562 Q203.0625 203.0625 203.0625 201.0938 L203.0625 198.8438 Q201.375 183.0938 188.4375 183.0938 L187.3125 183.0938 Q169.875 183.0938 169.875 189.8438 Q152.4375 217.125 152.4375 219.0938 Z" stroke="none" />
    </g>
  </g>
</svg>
