<?xml version="1.0"?>

<!DOCTYPE svg PUBLIC '-//W3C//DTD SVG 1.0//EN' 'http://www.w3.org/TR/2001/REC-SVG-20010904/DTD/svg10.dtd'>
<svg fill-opacity="1" xmlns:xlink="http://www.w3.org/1999/xlink" color-rendering="auto" color-interpolation="auto" text-rendering="auto" stroke="black" stroke-linecap="square" stroke-miterlimit="10" shape-rendering="auto" stroke-opacity="1" fill="black" stroke-dasharray="none" font-weight="normal" stroke-width="1" xmlns="http://www.w3.org/2000/svg" font-family="&apos;Dialog&apos;" font-style="normal" stroke-linejoin="miter" font-size="12" stroke-dashoffset="0" image-rendering="auto">
  <!--Unicode Character 'HENTAIGANA LETTER HO-2' (U+1B0BB)-->
  <defs id="genericDefs" />
  <g>
    <g>
      <path d="M51.75 138.6562 Q80.4375 150.1875 80.4375 166.7812 Q80.4375 172.9688 64.125 213.4688 Q54.5625 247.5 54.5625 280.9688 Q54.5625 308.25 61.875 320.9062 Q73.9688 256.7812 100.6875 202.7812 Q111.375 179.1562 128.8125 161.7188 Q149.0625 145.9688 183.9375 145.9688 Q195.1875 145.9688 200.25 155.5312 L202.5 164.5312 Q201.9375 178.875 200.8125 282.6562 L207 282.6562 Q217.6875 282.6562 234.5625 279.2812 Q242.1562 279.2812 245.25 286.0312 Q245.25 297.2812 207.5625 297.2812 L201.375 297.2812 Q201.9375 324 201.9375 328.2188 Q202.5 331.0312 202.5 331.5938 Q202.5 343.6875 189 352.9688 L188.4375 352.9688 Q184.2188 352.9688 175.5 342.8438 Q154.125 332.1562 131.625 309.0938 Q122.0625 297 122.0625 289.9688 Q122.0625 275.3438 153.5625 241.0312 Q170.1562 224.7188 179.4375 224.7188 Q182.8125 224.7188 186.75 228.6562 L187.3125 228.6562 Q187.875 217.4062 187.875 211.7812 Q187.875 194.0625 188.4375 163.9688 Q188.4375 156.0938 180.5625 156.0938 L172.6875 156.0938 Q135.5625 156.0938 123.1875 182.5312 Q105.4688 207 90.5625 249.4688 Q75.375 296.1562 75.375 323.7188 L75.375 337.2188 Q75.375 354.0938 65.25 354.0938 Q50.0625 354.0938 43.3125 298.4062 Q42.75 291.0938 42.75 280.4062 Q42.75 245.5312 61.3125 179.7188 Q62.4375 176.625 62.4375 168.4688 Q62.4375 153.2812 47.25 144.2812 L47.25 143.7188 Q48.6562 140.9062 51.75 138.6562 ZM168.75 273.0938 L168.75 273.6562 Q175.7812 282.0938 186.75 282.0938 L186.75 270.8438 Q186.75 260.1562 187.3125 239.9062 Q180.2812 253.9688 174.375 263.5312 Q168.75 270.2812 168.75 273.0938 ZM131.625 288.8438 L131.625 293.3438 Q135 305.1562 145.125 311.9062 Q168.75 327.0938 183.375 329.3438 L184.5 329.3438 Q187.3125 327.9375 187.3125 323.7188 L187.3125 296.7188 Q186.75 295.5938 174.375 291.6562 Q158.0625 283.2188 158.0625 274.7812 L166.5 257.9062 Q169.3125 252.5625 171.5625 244.4062 Q171 243.2812 171 242.7188 L169.875 242.7188 Q152.4375 249.75 133.3125 280.4062 Q131.625 285.4688 131.625 288.8438 Z" stroke="none" />
    </g>
  </g>
</svg>
