<?xml version="1.0"?>

<!DOCTYPE svg PUBLIC '-//W3C//DTD SVG 1.0//EN' 'http://www.w3.org/TR/2001/REC-SVG-20010904/DTD/svg10.dtd'>
<svg fill-opacity="1" xmlns:xlink="http://www.w3.org/1999/xlink" color-rendering="auto" color-interpolation="auto" text-rendering="auto" stroke="black" stroke-linecap="square" stroke-miterlimit="10" shape-rendering="auto" stroke-opacity="1" fill="black" stroke-dasharray="none" font-weight="normal" stroke-width="1" xmlns="http://www.w3.org/2000/svg" font-family="&apos;Dialog&apos;" font-style="normal" stroke-linejoin="miter" font-size="12" stroke-dashoffset="0" image-rendering="auto">
  <!--Unicode Character 'HENTAIGANA LETTER HI-2' (U+1B0AA)-->
  <defs id="genericDefs" />
  <g>
    <g>
      <path d="M82.125 162.8438 Q97.875 179.4375 97.875 211.7812 L97.875 215.1562 Q97.875 234.5625 96.75 243.2812 L97.3125 243.2812 Q149.625 162.8438 176.0625 162.8438 L178.3125 162.8438 Q196.5938 162.8438 205.3125 186.4688 Q210.9375 212.3438 210.9375 238.7812 Q210.9375 311.3438 179.4375 325.9688 Q170.4375 329.9062 162 329.9062 Q143.1562 329.9062 126.5625 305.7188 Q120.9375 297 120.9375 288.2812 Q120.9375 269.4375 146.25 264.0938 L151.875 263.5312 Q169.0312 263.5312 176.0625 278.1562 L176.0625 280.9688 Q176.0625 285.4688 169.3125 287.1562 Q167.3438 287.1562 154.125 279.2812 Q152.1562 278.1562 149.625 278.1562 L148.5 278.1562 Q130.5 278.1562 130.5 289.9688 L130.5 293.9062 Q130.5 305.4375 150.1875 315.2812 Q154.9688 317.5312 162.5625 317.5312 L164.25 317.5312 Q184.5 317.5312 190.6875 277.0312 Q192.9375 258.75 192.9375 244.4062 Q192.9375 190.125 186.75 176.9062 Q182.8125 171.2812 179.4375 171.2812 L173.8125 171.2812 Q151.5938 171.2812 106.875 252.2812 Q97.3125 270.8438 97.3125 275.9062 L97.3125 288.8438 Q97.3125 294.75 100.125 316.9688 Q100.125 324.8438 94.5 327.6562 Q82.9688 327.6562 79.3125 293.9062 Q84.9375 255.6562 84.9375 208.4062 Q84.9375 180.5625 77.0625 165.6562 Q81 162.8438 82.125 162.8438 Z" stroke="none" />
    </g>
  </g>
</svg>
