<?xml version="1.0"?>

<!DOCTYPE svg PUBLIC '-//W3C//DTD SVG 1.0//EN' 'http://www.w3.org/TR/2001/REC-SVG-20010904/DTD/svg10.dtd'>
<svg fill-opacity="1" xmlns:xlink="http://www.w3.org/1999/xlink" color-rendering="auto" color-interpolation="auto" text-rendering="auto" stroke="black" stroke-linecap="square" stroke-miterlimit="10" shape-rendering="auto" stroke-opacity="1" fill="black" stroke-dasharray="none" font-weight="normal" stroke-width="1" xmlns="http://www.w3.org/2000/svg" font-family="&apos;Dialog&apos;" font-style="normal" stroke-linejoin="miter" font-size="12" stroke-dashoffset="0" image-rendering="auto">
  <!--Unicode Character 'HENTAIGANA LETTER TE-7' (U+1B074)-->
  <defs id="genericDefs" />
  <g>
    <g>
      <path d="M118.4062 126.8438 Q138.9375 135.8438 153.2812 135.8438 L169.0312 135.8438 Q182.5312 137.8125 182.5312 146.5312 Q182.5312 154.4062 164.5312 154.4062 Q133.5938 157.2188 111.0938 161.7188 Q110.5312 161.7188 110.5312 156.0938 Q124.3125 152.1562 152.1562 146.5312 L152.1562 145.4062 Q131.625 142.3125 118.4062 132.4688 L116.1562 130.2188 L116.1562 129.0938 Q116.1562 128.25 118.4062 126.8438 ZM218.5312 152.1562 Q236.5312 156.6562 236.5312 163.9688 Q236.5312 169.875 204.4688 176.9062 Q183.6562 182.8125 181.9688 185.9062 L181.9688 187.0312 Q181.9688 188.4375 194.3438 192.6562 L196.5938 196.0312 L189.2812 211.7812 L189.2812 212.3438 L189.8438 212.3438 Q197.4375 211.2188 199.4062 211.2188 Q227.8125 211.2188 237.0938 237.0938 Q238.7812 241.0312 238.7812 248.3438 L238.7812 248.9062 Q238.7812 282.375 207.2812 303.4688 Q192.6562 311.0625 191.5312 313.5938 Q183.375 339.4688 145.9688 358.0312 Q129.0938 365.9062 124.5938 365.9062 Q121.2188 363.6562 121.2188 360.2812 Q141.75 354.6562 166.2188 331.5938 Q175.2188 320.9062 175.2188 316.4062 Q174.0938 316.4062 174.0938 315.8438 Q161.1562 318.6562 146.5312 318.6562 L144.2812 318.6562 Q142.875 318.6562 130.7812 327.6562 Q111.9375 337.7812 97.0312 337.7812 L94.7812 337.7812 Q73.6875 337.7812 66.0938 322.5938 Q64.9688 317.5312 64.9688 315.2812 L64.9688 314.1562 Q64.9688 294.75 99.2812 271.9688 Q99.2812 257.3438 112.2188 239.9062 Q123.75 228.6562 136.4062 228.6562 Q155.25 228.6562 160.5938 257.3438 Q177.1875 257.3438 189.2812 277.0312 Q194.3438 288.8438 194.3438 298.4062 L195.4688 298.4062 Q221.3438 280.4062 221.3438 247.7812 Q221.3438 225.8438 205.0312 220.2188 Q201.0938 219.0938 198.2812 219.0938 L193.7812 219.0938 Q189.2812 219.0938 179.7188 223.0312 Q172.9688 220.5 172.9688 214.0312 Q172.9688 212.625 179.7188 202.2188 Q181.4062 199.125 181.4062 197.1562 Q181.4062 194.9062 170.7188 192.0938 Q169.0312 190.125 169.0312 188.1562 Q169.0312 182.25 192.0938 174.0938 L207.2812 166.7812 L207.2812 166.2188 L205.0312 166.2188 Q143.7188 178.0312 105.4688 192.0938 Q88.875 199.4062 79.5938 199.4062 Q62.4375 199.4062 49.2188 175.7812 L52.5938 172.9688 Q64.125 183.0938 78.4688 183.0938 L79.5938 183.0938 Q97.5938 183.0938 183.0938 161.1562 Q213.75 152.1562 218.5312 152.1562 ZM108.2812 267.4688 L108.8438 267.4688 Q134.1562 257.3438 145.4062 257.3438 Q145.4062 243 135.8438 239.3438 L130.2188 239.3438 Q116.7188 239.3438 108.8438 260.7188 Q108.2812 266.625 108.2812 267.4688 ZM108.2812 279.8438 Q108.2812 298.9688 134.1562 306.8438 L134.7188 306.8438 Q144.2812 290.8125 144.2812 269.1562 Q127.4062 269.1562 108.2812 279.2812 L108.2812 279.8438 ZM149.3438 309.0938 L155.5312 309.0938 Q178.0312 307.4062 178.0312 304.0312 L178.0312 297.8438 Q178.0312 276.1875 161.7188 269.7188 Q159.4688 269.7188 157.7812 285.4688 Q155.5312 294.4688 149.3438 309.0938 ZM73.4062 312.4688 L73.4062 317.5312 Q73.4062 328.7812 95.3438 328.7812 Q113.9062 328.7812 128.5312 316.4062 L128.5312 315.8438 Q113.9062 308.8125 111.6562 304.5938 Q100.4062 292.7812 100.4062 283.7812 L99.8438 283.7812 Q80.7188 292.7812 74.5312 307.9688 Q73.4062 309.9375 73.4062 312.4688 Z" stroke="none" />
    </g>
  </g>
</svg>
