<?xml version="1.0"?>

<!DOCTYPE svg PUBLIC '-//W3C//DTD SVG 1.0//EN' 'http://www.w3.org/TR/2001/REC-SVG-20010904/DTD/svg10.dtd'>
<svg fill-opacity="1" xmlns:xlink="http://www.w3.org/1999/xlink" color-rendering="auto" color-interpolation="auto" text-rendering="auto" stroke="black" stroke-linecap="square" stroke-miterlimit="10" shape-rendering="auto" stroke-opacity="1" fill="black" stroke-dasharray="none" font-weight="normal" stroke-width="1" xmlns="http://www.w3.org/2000/svg" font-family="&apos;Dialog&apos;" font-style="normal" stroke-linejoin="miter" font-size="12" stroke-dashoffset="0" image-rendering="auto">
  <!--Unicode Character 'HENTAIGANA LETTER TO-4' (U+1B07A)-->
  <defs id="genericDefs" />
  <g>
    <g>
      <path d="M115.0312 128.8125 Q142.5938 130.5 142.5938 139.5 L142.5938 140.0625 Q142.5938 148.5 111.6562 168.75 Q93.9375 181.125 93.6562 182.25 Q104.3438 191.5312 108.8438 198 Q155.5312 169.5938 174.6562 168.1875 Q192.0938 172.125 192.0938 183.375 Q192.0938 189.5625 186.4688 212.0625 L186.4688 213.1875 Q187.3125 215.4375 190.4062 215.4375 L214.0312 215.4375 Q236.5312 215.4375 242.1562 225 L242.7188 227.8125 Q242.7188 237.375 167.3438 258.1875 Q130.7812 270.8438 130.7812 276.75 Q133.5938 282.6562 164.5312 287.4375 Q170.7188 291.6562 170.7188 298.125 Q170.7188 303.1875 148.2188 304.875 Q126.2812 309.0938 126.2812 311.625 Q126.2812 315 153.8438 320.625 Q157.2188 323.7188 157.2188 328.5 Q157.2188 333.2812 133.5938 338.625 Q130.2188 340.875 130.2188 342 Q136.6875 347.625 160.0312 347.625 L168.4688 347.625 Q174.6562 347.625 184.7812 347.0625 Q192.375 347.0625 195.4688 354.9375 Q195.4688 362.5312 174.0938 363.9375 Q124.5938 363.9375 115.0312 348.1875 L114.4688 345.375 Q114.4688 340.5938 135.2812 330.1875 L135.2812 329.625 Q115.0312 323.4375 115.0312 314.4375 Q115.0312 306.8438 145.4062 297.5625 L145.4062 297 Q118.4062 291.9375 118.4062 279.5625 Q118.4062 266.625 193.2188 240.75 Q216.8438 230.0625 220.7812 226.6875 L220.7812 225.5625 Q214.5938 224.4375 207.8438 224.4375 L182.5312 226.125 Q174.6562 226.125 172.9688 214.875 L172.9688 214.3125 Q175.7812 199.4062 175.7812 190.125 L175.7812 180.5625 Q175.7812 179.7188 172.9688 177.75 L170.7188 177.75 Q154.9688 177.75 113.3438 208.125 L113.3438 209.8125 Q115.0312 224.4375 115.0312 227.8125 Q115.0312 264.375 86.3438 276.75 Q72.2812 280.125 62.7188 280.125 Q45.2812 280.125 45.2812 266.0625 Q45.2812 246.375 94.7812 206.4375 Q98.1562 204.75 98.1562 203.0625 Q96.4688 196.0312 84.0938 185.625 Q83.5312 185.625 82.9688 183.375 Q83.25 180.2812 104.3438 164.25 Q123.4688 145.9688 123.4688 139.5 L123.4688 138.9375 Q123.4688 135.5625 112.2188 133.3125 L112.2188 132.75 Q112.2188 129.6562 115.0312 128.8125 ZM61.0312 263.25 L61.0312 266.0625 Q61.0312 271.125 66.0938 271.125 Q94.2188 271.125 99.8438 241.3125 Q100.9688 231.75 100.9688 228.375 L100.9688 217.125 Q90.5625 220.5 64.4062 254.25 Q61.0312 260.4375 61.0312 263.25 Z" stroke="none" />
    </g>
  </g>
</svg>
