<?xml version="1.0"?>

<!DOCTYPE svg PUBLIC '-//W3C//DTD SVG 1.0//EN' 'http://www.w3.org/TR/2001/REC-SVG-20010904/DTD/svg10.dtd'>
<svg fill-opacity="1" xmlns:xlink="http://www.w3.org/1999/xlink" color-rendering="auto" color-interpolation="auto" text-rendering="auto" stroke="black" stroke-linecap="square" stroke-miterlimit="10" shape-rendering="auto" stroke-opacity="1" fill="black" stroke-dasharray="none" font-weight="normal" stroke-width="1" xmlns="http://www.w3.org/2000/svg" font-family="&apos;Dialog&apos;" font-style="normal" stroke-linejoin="miter" font-size="12" stroke-dashoffset="0" image-rendering="auto">
  <!--Unicode Character 'HENTAIGANA LETTER HA-6' (U+1B0A3)-->
  <defs id="genericDefs" />
  <g>
    <g>
      <path d="M127.4062 135 Q136.4062 135 150.4688 155.25 Q155.5312 166.7812 155.5312 182.25 L156.0938 182.25 Q167.625 179.4375 173.5312 179.4375 Q189.8438 181.6875 189.8438 192.9375 Q189.8438 204.4688 169.5938 219.9375 Q153.2812 234.5625 153.2812 237.375 Q153.2812 250.0312 145.9688 255.375 L144.2812 255.375 Q142.3125 255.375 133.0312 251.4375 Q131.3438 251.4375 93.6562 286.3125 Q81.2812 295.5938 79.0312 299.25 L79.5938 299.25 L125.1562 276.75 Q170.4375 259.3125 203.3438 259.3125 Q238.7812 262.125 238.7812 277.3125 Q238.7812 291.9375 193.7812 308.8125 Q146.5312 328.7812 140.3438 332.4375 L140.3438 334.125 Q140.3438 340.3125 181.9688 341.4375 Q190.9688 344.8125 190.9688 351 Q190.9688 357.75 170.7188 357.75 Q126.8438 353.25 126.8438 336.9375 Q126.8438 328.7812 148.2188 321.1875 Q216.8438 290.8125 216.8438 281.8125 Q217.9688 279.8438 217.9688 277.3125 L217.9688 276.1875 Q217.9688 266.625 196.5938 266.625 L195.4688 266.625 Q157.7812 266.625 97.5938 300.375 Q81.2812 311.0625 58.2188 327.9375 Q54.8438 328.2188 54.8438 329.0625 Q49.2188 329.0625 49.2188 316.6875 Q49.2188 307.4062 64.9688 298.6875 Q103.2188 267.75 124.5938 248.625 L124.5938 247.5 Q124.3125 246.375 104.3438 237.375 Q99.8438 231.75 99.8438 228.375 Q99.8438 211.7812 140.3438 187.3125 L140.3438 180.5625 Q140.3438 146.8125 124.0312 138.9375 L124.0312 138.375 Q125.7188 135 127.4062 135 ZM154.9688 192.9375 Q154.9688 196.3125 153.8438 222.75 L155.5312 222.75 Q172.9688 199.6875 172.9688 192.375 L172.9688 189.5625 Q172.9688 188.7188 171.2812 187.875 L167.9062 187.875 Q159.4688 187.875 154.9688 192.9375 ZM118.4062 226.6875 L118.4062 231.1875 Q122.3438 237.9375 132.4688 240.75 Q133.5938 240.75 139.7812 235.125 Q140.3438 220.2188 140.3438 211.5 L140.3438 203.0625 L138.6562 203.0625 Q118.4062 217.4062 118.4062 226.6875 Z" stroke="none" />
    </g>
  </g>
</svg>
