<?xml version="1.0"?>

<!DOCTYPE svg PUBLIC '-//W3C//DTD SVG 1.0//EN' 'http://www.w3.org/TR/2001/REC-SVG-20010904/DTD/svg10.dtd'>
<svg fill-opacity="1" xmlns:xlink="http://www.w3.org/1999/xlink" color-rendering="auto" color-interpolation="auto" text-rendering="auto" stroke="black" stroke-linecap="square" stroke-miterlimit="10" shape-rendering="auto" stroke-opacity="1" fill="black" stroke-dasharray="none" font-weight="normal" stroke-width="1" xmlns="http://www.w3.org/2000/svg" font-family="&apos;Dialog&apos;" font-style="normal" stroke-linejoin="miter" font-size="12" stroke-dashoffset="0" image-rendering="auto">
  <!--Unicode Character 'HENTAIGANA LETTER U-2' (U+1B00B)-->
  <defs id="genericDefs" />
  <g>
    <g>
      <path d="M118.9688 129.375 Q127.4062 135.5625 145.9688 135.5625 L147.0938 135.5625 Q156.0938 135.5625 173.5312 133.875 Q186.4688 136.125 186.4688 145.6875 Q186.4688 153.5625 160.5938 153.5625 Q144 156.9375 117.2812 164.25 L116.7188 164.25 Q115.875 164.25 114.4688 161.4375 L114.4688 159.75 Q131.3438 153.5625 145.9688 149.0625 L145.9688 147.375 Q128.25 147.375 115.5938 133.3125 Q116.4375 130.7812 118.9688 129.375 ZM200.5312 172.6875 Q225.8438 172.6875 230.9062 187.875 L230.9062 189 Q230.9062 198 215.1562 199.6875 Q198.2812 199.6875 145.4062 224.4375 Q142.5938 226.6875 142.5938 228.9375 L142.5938 229.5 Q142.5938 231.4688 165.0938 239.0625 Q169.5938 242.1562 169.5938 246.9375 Q169.5938 253.4062 151.0312 259.875 Q135.8438 268.5938 134.7188 271.6875 L134.7188 272.8125 Q134.7188 278.1562 157.7812 282.9375 Q180.2812 291.0938 180.2812 306.5625 Q180.2812 329.625 133.0312 360.5625 Q128.8125 363.375 126.8438 363.375 Q123.4688 359.4375 123.4688 358.875 Q161.7188 329.9062 161.7188 309.9375 L161.7188 305.4375 Q161.7188 297 135.8438 289.6875 Q125.1562 285.1875 125.1562 275.625 Q125.1562 266.3438 149.3438 249.75 L149.3438 248.625 Q149.3438 247.2188 135.2812 240.1875 Q130.2188 235.6875 130.2188 231.75 Q130.2188 221.9062 160.0312 208.6875 Q178.3125 198.5625 206.7188 186.75 L207.8438 185.0625 L207.8438 184.5 Q207.8438 181.9688 198.8438 181.6875 L190.4062 181.6875 Q150.75 181.6875 99.8438 215.4375 Q84.9375 223.3125 73.9688 223.3125 Q57.0938 220.7812 57.0938 206.4375 L57.0938 205.875 Q57.0938 189.2812 80.7188 177.75 Q80.7188 178.0312 82.9688 180.5625 L82.9688 182.25 Q73.4062 188.4375 73.4062 196.875 L73.4062 201.9375 Q74.25 204.75 80.7188 204.75 L82.4062 204.75 Q95.9062 204.75 144.2812 182.8125 Q176.625 172.6875 200.5312 172.6875 Z" stroke="none" />
    </g>
  </g>
</svg>
