<?xml version="1.0"?>

<!DOCTYPE svg PUBLIC '-//W3C//DTD SVG 1.0//EN' 'http://www.w3.org/TR/2001/REC-SVG-20010904/DTD/svg10.dtd'>
<svg fill-opacity="1" xmlns:xlink="http://www.w3.org/1999/xlink" color-rendering="auto" color-interpolation="auto" text-rendering="auto" stroke="black" stroke-linecap="square" stroke-miterlimit="10" shape-rendering="auto" stroke-opacity="1" fill="black" stroke-dasharray="none" font-weight="normal" stroke-width="1" xmlns="http://www.w3.org/2000/svg" font-family="&apos;Dialog&apos;" font-style="normal" stroke-linejoin="miter" font-size="12" stroke-dashoffset="0" image-rendering="auto">
  <!--Unicode Character 'HENTAIGANA LETTER MU-4' (U+1B0D3)-->
  <defs id="genericDefs" />
  <g>
    <g>
      <path d="M165.6562 129.6562 Q183.0938 135 183.0938 141.4688 Q183.0938 144 158.9062 167.9062 L158.3438 169.0312 L158.3438 170.1562 L158.9062 170.1562 L229.7812 158.3438 Q244.4062 162 244.4062 169.5938 Q244.4062 174.0938 236.5312 175.7812 Q225.2812 175.2188 219.6562 175.2188 L203.9062 175.2188 Q143.7188 177.4688 143.7188 183.6562 Q102.0938 225 102.0938 233.1562 L102.0938 233.7188 Q109.125 250.5938 110.5312 251.7188 L111.0938 251.7188 Q143.4375 229.2188 176.9062 214.0312 L180.8438 212.9062 Q180.8438 185.3438 188.7188 185.3438 L189.2812 185.3438 Q195.75 185.3438 203.9062 196.0312 L203.9062 197.7188 Q202.5 200.5312 201.6562 200.5312 Q198 197.7188 196.0312 197.7188 L195.4688 197.7188 Q193.2188 197.7188 193.2188 204.4688 L193.2188 210.6562 Q202.2188 211.7812 202.2188 218.5312 Q202.2188 223.3125 192.6562 234.2812 L192.6562 235.4062 Q192.6562 244.125 192.0938 259.0312 L193.2188 259.0312 Q223.0312 248.3438 223.0312 239.3438 L223.0312 237.6562 Q223.0312 235.6875 219.6562 226.9688 Q220.2188 226.9688 223.0312 224.7188 L223.5938 224.7188 Q235.4062 234 235.4062 243.2812 Q235.4062 257.625 192.0938 273.0938 Q192.0938 293.0625 194.3438 346.2188 Q190.4062 363.0938 182.5312 363.0938 Q177.1875 363.0938 169.0312 342.2812 Q162 332.4375 156.6562 326.5312 L156.6562 325.9688 Q158.625 322.5938 160.5938 321.4688 Q163.125 323.1562 178.5938 338.3438 L179.7188 338.3438 Q178.5938 309.375 178.5938 287.7188 Q179.1562 278.7188 179.1562 277.0312 L178.5938 277.0312 Q167.625 279.2812 158.3438 280.4062 Q143.7188 280.4062 143.7188 271.4062 Q143.7188 264.375 163.9688 250.5938 Q179.7188 236.25 179.7188 231.4688 Q180.2812 228.9375 180.2812 223.0312 L180.2812 220.7812 L179.7188 220.7812 Q161.4375 226.6875 124.0312 252.2812 Q113.3438 259.875 113.3438 261.8438 L113.3438 262.4062 Q115.5938 275.625 115.5938 282.6562 L115.5938 283.7812 Q115.5938 284.3438 116.1562 284.3438 L115.5938 285.4688 L115.5938 288.8438 Q115.5938 323.4375 85.7812 342.8438 Q73.6875 347.9062 64.4062 347.9062 Q47.5312 344.5312 47.5312 331.0312 Q47.5312 302.625 91.4062 267.4688 Q99.8438 260.4375 99.8438 259.0312 Q98.1562 250.875 91.9688 232.5938 L91.9688 230.9062 Q91.9688 226.9688 111.0938 208.4062 Q129.9375 188.4375 131.9062 184.2188 Q131.3438 184.2188 131.3438 183.6562 Q97.5938 193.7812 62.1562 207.8438 Q61.3125 208.4062 59.3438 208.4062 Q47.25 208.4062 39.6562 185.3438 L43.5938 182.5312 Q51.4688 190.9688 57.6562 190.9688 L62.1562 190.9688 Q70.875 190.9688 141.4688 173.5312 Q157.5 151.3125 163.4062 139.2188 L161.7188 139.2188 Q125.7188 149.3438 111.6562 169.0312 Q108 172.4062 104.9062 172.4062 Q94.2188 166.2188 94.2188 153.8438 Q95.9062 138.0938 99.2812 135.8438 Q104.9062 135.8438 104.9062 140.9062 Q104.9062 151.0312 111.0938 151.0312 Q113.0625 151.0312 151.0312 134.7188 Q163.125 129.6562 165.6562 129.6562 ZM157.7812 265.7812 L157.7812 266.3438 L158.3438 266.3438 Q167.0625 266.3438 179.1562 263.5312 L179.1562 248.3438 L178.0312 248.3438 L157.7812 265.7812 ZM62.1562 329.9062 L62.1562 330.4688 Q63 338.3438 68.3438 338.3438 L71.7188 338.3438 Q86.9062 338.3438 98.7188 307.9688 Q102.0938 295.0312 102.0938 277.5938 Q101.5312 272.5312 101.5312 271.4062 Q96.4688 271.4062 69.4688 301.7812 Q62.1562 314.7188 62.1562 329.9062 ZM216.8438 271.9688 Q231.1875 276.4688 243.8438 293.3438 Q248.3438 301.5 248.3438 307.4062 Q248.3438 319.7812 238.7812 319.7812 Q234.5625 319.7812 231.4688 301.7812 Q226.9688 287.4375 212.9062 276.4688 Q216 271.9688 216.8438 271.9688 Z" stroke="none" />
    </g>
  </g>
</svg>
