<?xml version="1.0"?>

<!DOCTYPE svg PUBLIC '-//W3C//DTD SVG 1.0//EN' 'http://www.w3.org/TR/2001/REC-SVG-20010904/DTD/svg10.dtd'>
<svg fill-opacity="1" xmlns:xlink="http://www.w3.org/1999/xlink" color-rendering="auto" color-interpolation="auto" text-rendering="auto" stroke="black" stroke-linecap="square" stroke-miterlimit="10" shape-rendering="auto" stroke-opacity="1" fill="black" stroke-dasharray="none" font-weight="normal" stroke-width="1" xmlns="http://www.w3.org/2000/svg" font-family="&apos;Dialog&apos;" font-style="normal" stroke-linejoin="miter" font-size="12" stroke-dashoffset="0" image-rendering="auto">
  <!--Unicode Character 'HENTAIGANA LETTER KA-5' (U+1B01B)-->
  <defs id="genericDefs" />
  <g>
    <g>
      <path d="M121.2188 136.9688 Q151.5938 141.4688 151.5938 153.2812 L151.5938 153.8438 Q149.3438 166.2188 149.3438 173.5312 Q160.5938 173.5312 203.9062 160.0312 L205.0312 160.0312 Q213.4688 160.0312 216.2812 167.9062 Q216.2812 178.5938 147.6562 187.0312 Q147.0938 197.4375 147.0938 202.2188 L147.0938 211.2188 Q147.0938 216.2812 176.9062 217.4062 Q184.7812 221.0625 184.7812 228.0938 Q184.7812 233.4375 146.5312 241.5938 Q115.0312 251.7188 108.8438 255.6562 L103.7812 268.0312 L104.3438 268.0312 Q115.875 265.7812 122.3438 265.2188 Q139.5 265.2188 144.8438 281.5312 Q145.9688 287.1562 146.5312 292.2188 Q146.5312 327.6562 115.0312 350.1562 Q107.7188 354.0938 99.8438 355.7812 Q92.5312 355.7812 79.5938 336.6562 Q73.6875 329.9062 72.2812 329.9062 Q62.4375 346.7812 55.4062 353.5312 L52.5938 355.2188 L49.2188 355.2188 Q44.7188 351.5625 44.7188 346.7812 Q44.7188 340.0312 63.2812 321.4688 Q75.0938 304.5938 82.4062 286.0312 L82.4062 285.4688 L81.8438 285.4688 Q66.6562 292.2188 46.9688 304.0312 Q44.1562 304.5938 44.1562 305.1562 Q37.4062 305.1562 37.4062 294.4688 L37.4062 292.2188 Q37.4062 279 47.5312 268.5938 Q48.6562 268.5938 52.5938 270.2812 L52.5938 270.8438 Q49.7812 278.4375 49.7812 280.4062 L49.7812 283.7812 Q49.7812 284.625 51.4688 285.4688 L54.2812 285.4688 Q88.5938 273.6562 88.5938 271.9688 Q92.5312 262.4062 92.5312 256.7812 Q92.5312 248.625 77.3438 246.6562 Q78.4688 239.9062 82.4062 239.9062 L86.3438 239.9062 Q104.9062 239.9062 109.9688 247.7812 L110.5312 247.7812 Q124.875 241.5938 155.5312 230.3438 L155.5312 229.7812 Q155.5312 228.6562 154.4062 228.6562 L152.1562 228.6562 Q131.9062 228.6562 131.9062 209.5312 L131.9062 208.4062 Q132.4688 193.7812 132.4688 188.7188 L131.9062 188.7188 Q123.4688 189.8438 112.2188 189.8438 Q89.4375 189.8438 76.2188 171.8438 L76.2188 171.2812 Q76.2188 169.875 80.7188 166.2188 Q91.4062 177.4688 104.3438 177.4688 L113.3438 177.4688 Q123.75 177.4688 133.0312 175.7812 L133.0312 158.9062 Q133.0312 148.2188 122.9062 144.8438 Q118.9688 143.7188 116.7188 142.5938 Q119.8125 136.9688 121.2188 136.9688 ZM222.4688 270.8438 Q246.375 270.8438 250.0312 290.5312 Q250.5938 292.5 250.5938 295.5938 Q250.5938 333 166.7812 353.5312 Q163.4062 348.75 163.4062 346.7812 L163.4062 346.2188 Q233.1562 325.4062 233.1562 297.8438 L233.1562 292.7812 Q231.4688 279.8438 220.2188 279.8438 L219.6562 279.8438 Q202.7812 279.8438 188.1562 306.8438 Q184.2188 310.7812 181.9688 310.7812 Q169.5938 310.7812 163.4062 284.3438 Q162.8438 279 162.8438 274.2188 Q166.7812 271.9688 168.4688 271.9688 L175.7812 286.5938 L179.7188 289.9688 L183.0938 289.9688 Q205.5938 270.8438 222.4688 270.8438 ZM76.2188 323.7188 Q93.0938 338.9062 99.8438 338.9062 L101.5312 338.9062 Q112.7812 338.9062 126.2812 315.2812 Q131.3438 304.3125 131.3438 290.5312 Q131.3438 273.6562 121.7812 273.6562 L118.9688 273.6562 Q99.8438 276.1875 97.5938 280.4062 L76.2188 323.7188 Z" stroke="none" />
    </g>
  </g>
</svg>
