<?xml version="1.0"?>

<!DOCTYPE svg PUBLIC '-//W3C//DTD SVG 1.0//EN' 'http://www.w3.org/TR/2001/REC-SVG-20010904/DTD/svg10.dtd'>
<svg fill-opacity="1" xmlns:xlink="http://www.w3.org/1999/xlink" color-rendering="auto" color-interpolation="auto" text-rendering="auto" stroke="black" stroke-linecap="square" stroke-miterlimit="10" shape-rendering="auto" stroke-opacity="1" fill="black" stroke-dasharray="none" font-weight="normal" stroke-width="1" xmlns="http://www.w3.org/2000/svg" font-family="&apos;Dialog&apos;" font-style="normal" stroke-linejoin="miter" font-size="12" stroke-dashoffset="0" image-rendering="auto">
  <!--Unicode Character 'HENTAIGANA LETTER SU-6' (U+1B04F)-->
  <defs id="genericDefs" />
  <g>
    <g>
      <path d="M132.75 134.4375 Q157.5 134.4375 161.4375 146.8125 Q162 147.6562 162 149.0625 Q160.3125 157.7812 160.3125 174.9375 Q175.7812 172.9688 194.625 161.4375 Q196.875 160.875 198.5625 160.875 Q207 162.8438 207 168.75 Q207 181.125 159.75 189 L159.75 205.875 Q159.75 236.25 162 255.9375 Q161.4375 265.5 155.25 278.4375 L155.8125 278.4375 Q178.3125 270.5625 178.3125 266.0625 Q195.1875 243 196.875 243 Q199.125 241.875 200.25 241.875 Q203.3438 242.4375 225.5625 252 Q227.25 254.5312 227.25 255.9375 Q227.25 261.8438 194.625 269.4375 Q146.8125 309.0938 146.8125 327.9375 L146.8125 333 Q146.8125 341.7188 167.625 343.125 L169.875 343.125 Q172.6875 343.125 188.4375 339.75 Q201.0938 339.75 204.1875 345.375 L204.1875 348.75 Q197.7188 358.3125 177.1875 358.3125 Q148.2188 358.3125 137.8125 342.5625 Q136.6875 341.1562 135 331.875 Q135 315 160.3125 285.75 L159.75 285.75 Q106.3125 312.1875 90.5625 312.1875 Q65.5312 312.1875 60.75 280.6875 Q60.75 259.3125 78.75 235.6875 Q92.8125 221.0625 105.1875 221.0625 L109.125 221.0625 Q131.625 221.0625 146.8125 253.125 L147.375 253.125 Q146.25 234.8438 145.6875 191.8125 L145.125 191.8125 L127.6875 193.5 Q100.6875 193.5 84.375 181.125 L84.375 180.5625 Q84.375 177.4688 86.0625 176.0625 Q100.125 180.5625 113.625 180.5625 L125.4375 180.5625 Q136.6875 180.5625 145.125 178.3125 L145.125 153.5625 Q145.125 144 129.375 138.9375 L129.375 137.8125 Q129.375 134.4375 132.75 134.4375 ZM77.625 270 L77.625 280.125 Q77.625 294.4688 93.9375 297 L98.4375 297 Q109.9688 297 142.3125 284.625 L142.3125 282.9375 Q140.9062 282.9375 139.5 264.375 Q128.25 228.9375 109.6875 228.9375 L105.75 228.9375 Q93.0938 228.9375 83.25 248.0625 Q77.625 260.4375 77.625 270 Z" stroke="none" />
    </g>
  </g>
</svg>
