<?xml version="1.0" encoding="UTF-8" standalone="no"?>
<svg
   xmlns:dc="http://purl.org/dc/elements/1.1/"
   xmlns:cc="http://creativecommons.org/ns#"
   xmlns:rdf="http://www.w3.org/1999/02/22-rdf-syntax-ns#"
   xmlns:svg="http://www.w3.org/2000/svg"
   xmlns="http://www.w3.org/2000/svg"
   xmlns:sodipodi="http://sodipodi.sourceforge.net/DTD/sodipodi-0.dtd"
   xmlns:inkscape="http://www.inkscape.org/namespaces/inkscape"
   fill-opacity="1"
   color-rendering="auto"
   color-interpolation="auto"
   text-rendering="auto"
   stroke="black"
   stroke-linecap="square"
   stroke-miterlimit="10"
   shape-rendering="auto"
   stroke-opacity="1"
   fill="black"
   stroke-dasharray="none"
   font-weight="normal"
   stroke-width="1"
   font-family="'Dialog'"
   font-style="normal"
   stroke-linejoin="miter"
   font-size="12"
   stroke-dashoffset="0"
   image-rendering="auto"
   version="1.1"
   id="svg9"
   sodipodi:docname="hentaigana_letter_ro1.svg"
   inkscape:version="0.92.4 (5da689c313, 2019-01-14)"
   width="100%"
   height="100%"
   viewBox="0 0 100 100"
   preserveAspectRatio="xMidYMid meet"
   >
  <metadata
     id="metadata13">
    <rdf:RDF>
      <cc:Work
         rdf:about="">
        <dc:format>image/svg+xml</dc:format>
        <dc:type
           rdf:resource="http://purl.org/dc/dcmitype/StillImage" />
      </cc:Work>
    </rdf:RDF>
  </metadata>
  <sodipodi:namedview
     pagecolor="#ffffff"
     bordercolor="#666666"
     borderopacity="1"
     objecttolerance="10"
     gridtolerance="10"
     guidetolerance="10"
     inkscape:pageopacity="0"
     inkscape:pageshadow="2"
     inkscape:window-width="1920"
     inkscape:window-height="986"
     id="namedview11"
     showgrid="false"
     inkscape:zoom="2.36"
     inkscape:cx="50"
     inkscape:cy="50"
     inkscape:window-x="-11"
     inkscape:window-y="-11"
     inkscape:window-maximized="1"
     inkscape:current-layer="svg9" />
  <!--Unicode Character 'HENTAIGANA LETTER RO-1' (U+1B102)-->
  <defs
     id="genericDefs" />
  <g
     id="g7"
     transform="matrix(0.48505178,0,0,0.47310467,-19.27966,-66.796331)">
    <g
       id="g5">
      <path
         d="m 173.8125,143.4375 q 25.875,2.5313 25.875,21.9375 0,19.6875 -39.9375,45 -36.8438,23.0625 -65.25,47.25 -9,10.125 -9,20.8125 0,7.5937 2.8125,18 h 0.5625 q 3.0938,0 11.25,-11.25 39.6562,-45 75.9375,-45 30.6563,0 38.8125,23.0625 1.125,2.5312 1.125,7.875 0,22.2188 -40.5,46.125 -17.1562,7.875 -17.4375,9.5625 v 1.125 q 0,5.0625 34.3125,6.1875 0.2812,0 7.3125,-0.5625 5.0625,0 6.1875,7.3125 0,8.4375 -20.25,8.4375 -30.0938,0 -44.4375,-13.5 l -0.5625,-3.375 q 0,-5.625 24.75,-19.125 30.9375,-24.4687 30.9375,-42.1875 v -3.375 q 0,-11.25 -10.6875,-16.3125 Q 180,249.75 175.5,249.75 q -42.4688,0 -74.25,59.0625 -3.9375,16.3125 -10.6875,16.3125 -9.2813,0 -17.4375,-30.9375 L 72,284.0625 q 0,-25.0313 41.625,-52.3125 44.7188,-31.7812 57.375,-43.3125 10.6875,-12.0937 10.6875,-23.0625 0,-11.5312 -10.6875,-12.9375 h -2.25 q -21.375,2.25 -52.875,32.0625 -10.9688,18.2812 -14.0625,18.5625 -0.8437,0.5625 -2.25,0.5625 -16.875,-4.2188 -16.875,-30.375 0,-13.7812 11.8125,-28.6875 h 0.5625 q 3.9375,2.25 5.0625,2.25 v 0.5625 q -3.375,9.8438 -3.375,15.1875 v 6.1875 q 0.2812,9.5625 3.375,10.6875 2.25,0 16.875,-13.5 34.5938,-22.5 56.8125,-22.5 z"
         id="path3"
         inkscape:connector-curvature="0"
         style="stroke:none" />
    </g>
  </g>
</svg>
