<?xml version="1.0"?>

<!DOCTYPE svg PUBLIC '-//W3C//DTD SVG 1.0//EN' 'http://www.w3.org/TR/2001/REC-SVG-20010904/DTD/svg10.dtd'>
<svg fill-opacity="1" xmlns:xlink="http://www.w3.org/1999/xlink" color-rendering="auto" color-interpolation="auto" text-rendering="auto" stroke="black" stroke-linecap="square" stroke-miterlimit="10" shape-rendering="auto" stroke-opacity="1" fill="black" stroke-dasharray="none" font-weight="normal" stroke-width="1" xmlns="http://www.w3.org/2000/svg" font-family="&apos;Dialog&apos;" font-style="normal" stroke-linejoin="miter" font-size="12" stroke-dashoffset="0" image-rendering="auto">
  <!--Unicode Character 'HENTAIGANA LETTER E-3' (U+1B010)-->
  <defs id="genericDefs" />
  <g>
    <g>
      <path d="M204.4688 140.3438 Q221.9062 140.3438 228.0938 158.3438 Q228.0938 159.75 228.6562 162.8438 Q228.6562 187.875 201.0938 199.9688 Q188.1562 202.5 188.1562 203.9062 Q181.6875 214.3125 177.4688 219.6562 L177.4688 220.7812 Q177.4688 223.3125 185.9062 229.7812 Q185.9062 230.3438 194.3438 238.2188 Q217.4062 210.6562 233.7188 210.6562 Q248.9062 213.75 248.9062 225.8438 Q248.9062 247.2188 212.9062 274.2188 L212.9062 274.7812 Q226.9688 284.625 250.0312 309.6562 Q257.3438 318.9375 257.3438 328.2188 Q255.6562 338.3438 250.5938 338.3438 Q243.5625 338.3438 236.5312 318.0938 Q227.25 300.375 211.2188 285.4688 L210.0938 285.4688 Q209.25 338.9062 180.8438 351.8438 L175.2188 352.4062 Q162.2812 352.4062 146.5312 330.4688 L145.9688 330.4688 Q138.9375 341.7188 135.2812 344.5312 L133.0312 344.5312 Q127.4062 339.4688 127.4062 330.4688 Q127.4062 326.25 137.5312 317.5312 Q152.7188 296.1562 152.7188 287.1562 L152.7188 285.4688 Q152.7188 284.3438 151.5938 284.3438 Q150.1875 284.3438 144.2812 288.2812 Q141.75 288.2812 139.2188 283.7812 L139.2188 282.0938 Q147.0938 261.8438 147.0938 251.1562 Q145.6875 250.0312 145.4062 250.0312 Q141.75 250.0312 130.2188 268.5938 L128.5312 271.9688 Q124.5938 270 124.5938 269.1562 L124.5938 268.5938 Q138.0938 234.2812 151.5938 234.2812 Q161.1562 234.2812 161.1562 247.2188 Q160.0312 255.375 156.0938 268.0312 Q165.6562 269.4375 165.6562 276.4688 L165.0938 277.5938 L165.0938 279.8438 L165.6562 279.8438 L187.0312 249.4688 Q184.2188 239.9062 166.7812 221.3438 Q166.7812 219.6562 176.9062 206.1562 Q178.0312 202.5 178.0312 201.0938 Q175.2188 201.0938 171.8438 194.9062 Q176.3438 181.4062 183.0938 181.4062 Q189.8438 181.4062 189.8438 194.9062 Q200.5312 194.9062 209.5312 176.3438 Q210.6562 169.3125 210.6562 164.5312 L210.6562 160.5938 Q210.6562 148.7812 201.0938 148.7812 Q170.7188 148.7812 100.9688 232.0312 Q92.5312 242.1562 92.5312 243.8438 Q108.8438 270.2812 108.8438 297.8438 Q108.8438 321.1875 87.4688 341.1562 Q72.5625 351.8438 57.6562 351.8438 L57.0938 351.8438 Q36 351.8438 33.4688 327.0938 Q33.4688 300.6562 75.6562 247.2188 Q77.9062 246.0938 77.9062 243.8438 L64.4062 221.9062 L63.8438 219.6562 Q63.8438 215.7188 79.0312 199.4062 Q95.3438 172.125 95.3438 166.2188 L95.3438 165.0938 Q95.3438 163.9688 94.2188 163.9688 Q86.0625 163.9688 53.7188 194.3438 Q52.0312 194.3438 49.2188 195.4688 Q38.8125 195.4688 32.3438 178.5938 Q31.2188 173.8125 30.6562 168.4688 Q30.6562 166.2188 36.2812 163.9688 Q42.1875 175.7812 47.5312 175.7812 L52.5938 175.7812 Q58.2188 175.7812 86.3438 157.2188 Q97.875 150.4688 103.7812 150.4688 Q109.4062 150.4688 115.5938 162.2812 Q115.5938 163.4062 116.1562 164.5312 Q116.1562 169.5938 92.5312 196.5938 Q75.0938 217.125 75.0938 219.6562 L75.0938 221.9062 Q75.0938 222.4688 86.3438 234.8438 Q151.0312 162.2812 179.7188 147.6562 Q195.1875 140.3438 204.4688 140.3438 ZM198.2812 244.9688 Q205.0312 255.6562 207.8438 265.7812 L209.5312 265.7812 Q232.5938 245.25 232.5938 228.6562 L232.5938 224.1562 Q232.5938 223.3125 230.3438 221.9062 L226.4062 221.9062 Q215.4375 223.0312 198.2812 244.9688 ZM47.5312 325.4062 L47.5312 332.7188 Q47.5312 341.4375 57.0938 342.8438 L61.0312 342.8438 Q73.9688 342.8438 87.4688 321.4688 Q91.9688 311.9062 91.9688 301.2188 L91.9688 289.9688 Q91.9688 266.9062 84.0938 254.5312 L82.9688 254.5312 Q47.5312 299.5312 47.5312 325.4062 ZM150.4688 323.1562 Q158.9062 336.0938 174.6562 336.0938 Q185.9062 336.0938 193.2188 305.1562 Q194.9062 289.4062 194.9062 278.7188 Q194.9062 266.9062 190.9688 257.3438 Q185.0625 262.125 169.0312 288.2812 Q151.0312 320.625 150.4688 323.1562 Z" stroke="none" />
    </g>
  </g>
</svg>
