<?xml version="1.0"?>

<!DOCTYPE svg PUBLIC '-//W3C//DTD SVG 1.0//EN' 'http://www.w3.org/TR/2001/REC-SVG-20010904/DTD/svg10.dtd'>
<svg fill-opacity="1" xmlns:xlink="http://www.w3.org/1999/xlink" color-rendering="auto" color-interpolation="auto" text-rendering="auto" stroke="black" stroke-linecap="square" stroke-miterlimit="10" shape-rendering="auto" stroke-opacity="1" fill="black" stroke-dasharray="none" font-weight="normal" stroke-width="1" xmlns="http://www.w3.org/2000/svg" font-family="&apos;Dialog&apos;" font-style="normal" stroke-linejoin="miter" font-size="12" stroke-dashoffset="0" image-rendering="auto">
  <!--Unicode Character 'HENTAIGANA LETTER NA-6' (U+1B083)-->
  <defs id="genericDefs" />
  <g>
    <g>
      <path d="M183.9375 128.25 Q198 129.375 198 141.1875 Q198 144.8438 195.75 153.5625 L202.5 153.5625 Q210.6562 153.5625 221.0625 153 Q238.5 156.6562 238.5 165.9375 Q238.5 170.4375 232.3125 170.4375 L231.1875 170.4375 Q202.5 164.8125 190.6875 164.8125 Q174.0938 179.7188 151.875 192.375 L151.875 193.5 Q155.8125 197.1562 155.8125 201.375 Q155.8125 206.1562 128.25 214.3125 Q128.25 214.875 114.1875 221.0625 Q111.6562 220.2188 110.25 217.6875 L110.25 217.125 Q134.4375 202.5 134.4375 196.875 Q131.625 190.6875 127.125 190.6875 L127.125 190.125 Q127.125 187.0312 129.9375 186.1875 Q131.625 186.1875 145.125 189.5625 L145.6875 189.5625 Q160.5938 180.2812 171.5625 165.375 L171.5625 164.25 Q149.3438 164.25 115.3125 172.125 L115.3125 172.6875 Q119.8125 181.4062 119.8125 183.375 Q119.8125 190.125 110.25 192.375 Q101.25 187.875 101.25 182.25 Q99.8438 178.5938 99 177.75 Q82.125 186.75 75.9375 186.75 Q64.125 186.75 49.5 171.5625 Q51.4688 168.1875 52.3125 168.1875 Q59.9062 171.5625 69.75 171.5625 L73.6875 171.5625 Q98.4375 169.3125 98.4375 164.8125 Q102.9375 132.1875 109.125 132.1875 Q112.5 132.75 112.5 133.875 Q110.8125 142.875 110.8125 151.3125 L110.8125 158.625 Q110.8125 161.7188 112.5 163.125 Q135.8438 158.0625 177.75 154.125 Q180 149.0625 180 142.3125 Q180 139.5 177.1875 137.8125 L172.125 137.8125 Q164.25 140.0625 162 140.0625 Q160.875 138.0938 160.875 136.6875 Q173.5312 128.25 183.9375 128.25 ZM185.0625 204.75 Q213.1875 208.125 213.1875 218.8125 L213.1875 219.375 Q213.1875 224.1562 190.6875 236.25 Q168.4688 251.4375 165.375 252 Q162 249.75 162 249.1875 L162 248.625 Q190.6875 225.5625 191.25 216.5625 L191.25 214.875 Q191.25 212.0625 182.25 209.8125 Q182.25 204.75 185.0625 204.75 ZM150.75 218.25 L151.875 218.25 Q158.625 218.5312 168.1875 229.5 Q166.5 231.75 166.5 232.875 Q159.1875 230.0625 157.5 230.0625 Q154.125 230.0625 154.125 254.25 L154.125 267.75 L154.6875 267.75 Q162.2812 267.75 193.5 255.375 L194.625 255.375 Q203.0625 256.7812 203.0625 262.6875 Q203.0625 272.8125 154.125 282.375 L154.125 304.3125 L154.6875 304.3125 Q193.5 304.3125 227.25 329.625 Q232.3125 334.9688 232.3125 339.1875 Q231.1875 345.9375 225.5625 345.9375 Q220.2188 345.9375 204.75 331.3125 Q181.125 314.4375 154.6875 314.4375 L154.6875 315 Q155.8125 328.2188 155.8125 340.875 Q153 364.5 144 364.5 Q140.3438 364.5 125.4375 347.0625 Q103.2188 329.0625 99 329.0625 Q72.5625 347.625 69.1875 347.625 Q66.375 347.625 65.25 343.125 Q65.25 328.7812 79.3125 322.875 Q110.8125 297.2812 116.4375 282.9375 Q116.4375 281.25 104.0625 277.875 Q95.3438 273.375 91.125 268.3125 L91.125 267.75 Q91.125 263.5312 92.8125 263.25 Q106.3125 270.5625 121.5 270.5625 L133.875 270.5625 L140.625 270 L140.625 239.0625 Q140.625 218.25 150.75 218.25 ZM96.75 226.6875 L99.5625 229.5 Q95.0625 233.1562 95.0625 237.9375 L95.0625 238.5 Q95.0625 239.3438 97.3125 240.75 L99.5625 240.75 Q107.4375 240.75 125.4375 232.875 L126.5625 236.8125 Q106.5938 252.8438 95.0625 254.8125 Q85.5 254.8125 84.375 242.4375 L84.375 241.875 Q84.375 233.4375 96.1875 226.6875 L96.75 226.6875 ZM123.75 282.9375 Q123.75 295.875 99.5625 317.25 L99.5625 317.8125 L100.125 317.8125 Q120.0938 309.6562 140.625 306 L140.625 283.5 L138.9375 283.5 Q136.9688 283.5 136.125 284.0625 L123.75 282.9375 ZM106.875 325.125 Q137.25 342.5625 138.9375 342.5625 Q139.7812 342.5625 140.625 340.875 L140.625 315.5625 L139.5 315.5625 Q124.3125 315.5625 106.875 324.5625 L106.875 325.125 Z" stroke="none" />
    </g>
  </g>
</svg>
