<?xml version="1.0"?>

<!DOCTYPE svg PUBLIC '-//W3C//DTD SVG 1.0//EN' 'http://www.w3.org/TR/2001/REC-SVG-20010904/DTD/svg10.dtd'>
<svg fill-opacity="1" xmlns:xlink="http://www.w3.org/1999/xlink" color-rendering="auto" color-interpolation="auto" text-rendering="auto" stroke="black" stroke-linecap="square" stroke-miterlimit="10" shape-rendering="auto" stroke-opacity="1" fill="black" stroke-dasharray="none" font-weight="normal" stroke-width="1" xmlns="http://www.w3.org/2000/svg" font-family="&apos;Dialog&apos;" font-style="normal" stroke-linejoin="miter" font-size="12" stroke-dashoffset="0" image-rendering="auto">
  <!--Unicode Character 'HENTAIGANA LETTER KI-3' (U+1B025)-->
  <defs id="genericDefs" />
  <g>
    <g>
      <path d="M104.3438 128.8125 Q117.2812 128.8125 126.8438 152.4375 L127.9688 153 Q151.0312 139.5 163.4062 139.5 Q178.875 139.5 181.4062 152.4375 L181.4062 153.5625 Q181.4062 164.25 150.4688 186.75 L146.5312 190.6875 Q146.5312 194.0625 159.4688 214.875 Q174.0938 210.375 198.8438 204.75 L198.8438 204.1875 Q184.5 192.375 181.9688 189 Q184.7812 185.0625 187.0312 185.0625 Q203.0625 199.6875 221.3438 199.6875 Q226.4062 199.6875 229.7812 206.4375 Q229.7812 215.1562 205.5938 216.5625 Q181.6875 216.5625 163.9688 222.75 L163.9688 223.3125 Q170.7188 239.0625 173.5312 239.0625 Q186.75 234 193.2188 234 Q212.9062 234 212.9062 249.1875 Q212.9062 259.0312 195.4688 278.4375 Q209.25 302.9062 240.4688 345.9375 Q242.7188 350.1562 242.7188 352.6875 Q242.7188 358.875 234.8438 363.9375 Q231.4688 363.9375 218.5312 350.4375 Q194.0625 335.5312 147.6562 318.9375 L147.0938 318.9375 Q115.875 341.1562 90.8438 355.5 L89.7188 355.5 Q88.5938 355.2188 84.6562 348.75 Q117.2812 329.9062 154.4062 299.8125 Q175.5 281.25 180.8438 274.5 Q169.5938 254.25 166.2188 250.875 L165.6562 250.875 Q145.4062 261 113.3438 295.3125 Q101.25 309.375 96.4688 325.6875 Q91.6875 331.3125 88.5938 331.3125 L88.0312 331.3125 Q83.8125 331.3125 80.7188 323.4375 L81.2812 317.8125 L81.2812 311.625 Q81.2812 289.6875 73.9688 276.75 Q78.1875 273.375 79.5938 273.375 Q87.75 283.2188 91.9688 300.375 L93.0938 300.375 Q123.75 268.0312 139.7812 257.625 L162.2812 243.5625 Q154.125 226.6875 151.5938 226.6875 Q115.5938 240.4688 77.3438 263.8125 Q76.7812 263.8125 52.5938 282.9375 L49.7812 283.5 Q45.2812 282.375 45.2812 276.75 L45.2812 275.0625 Q45.2812 260.1562 64.4062 252 Q131.3438 189.2812 131.3438 188.4375 L131.3438 187.3125 Q130.2188 187.0312 120.6562 168.75 L120.0938 168.75 Q116.4375 168.75 89.1562 194.0625 Q84.9375 195.1875 84.0938 195.1875 Q70.875 195.1875 68.9062 169.875 L68.9062 167.0625 Q68.9062 162.8438 74.5312 162 Q79.0312 176.0625 82.4062 176.0625 L86.3438 176.0625 Q88.5938 176.0625 114.4688 160.3125 L115.0312 159.1875 L115.0312 158.625 Q106.0312 138.375 92.5312 138.375 L88.0312 138.375 L85.2188 138.9375 L84.0938 137.25 L84.0938 131.625 Q93.375 129.375 104.3438 128.8125 ZM131.3438 160.3125 Q131.3438 162.8438 140.9062 180 Q161.7188 163.6875 161.7188 155.25 L161.7188 152.4375 Q161.7188 148.5 157.7812 148.5 L153.8438 148.5 Q147.0938 148.5 131.3438 160.3125 ZM78.4688 249.1875 L79.0312 249.1875 Q114.1875 231.4688 148.2188 219.375 L148.2188 218.25 Q138.6562 199.9688 136.4062 198.5625 Q107.4375 221.3438 78.4688 248.625 L78.4688 249.1875 ZM176.9062 245.25 L176.9062 246.375 Q176.9062 249.75 188.1562 265.5 Q194.625 258.1875 195.4688 250.875 L195.4688 245.8125 Q193.7812 242.4375 190.4062 242.4375 L189.2812 242.4375 Q184.2188 242.4375 176.9062 245.25 ZM156.0938 312.1875 L156.0938 313.3125 Q173.8125 318.9375 215.7188 334.6875 L216.2812 334.6875 Q215.4375 331.0312 188.1562 286.875 L186.4688 286.875 L156.0938 312.1875 Z" stroke="none" />
    </g>
  </g>
</svg>
