<?xml version="1.0"?>

<!DOCTYPE svg PUBLIC '-//W3C//DTD SVG 1.0//EN' 'http://www.w3.org/TR/2001/REC-SVG-20010904/DTD/svg10.dtd'>
<svg fill-opacity="1" xmlns:xlink="http://www.w3.org/1999/xlink" color-rendering="auto" color-interpolation="auto" text-rendering="auto" stroke="black" stroke-linecap="square" stroke-miterlimit="10" shape-rendering="auto" stroke-opacity="1" fill="black" stroke-dasharray="none" font-weight="normal" stroke-width="1" xmlns="http://www.w3.org/2000/svg" font-family="&apos;Dialog&apos;" font-style="normal" stroke-linejoin="miter" font-size="12" stroke-dashoffset="0" image-rendering="auto">
  <!--Unicode Character 'HENTAIGANA LETTER NO-4' (U+1B09C)-->
  <defs id="genericDefs" />
  <g>
    <g>
      <path d="M73.9688 147.9375 L74.5312 147.9375 Q90.2812 164.5312 98.7188 210.375 Q99.8438 210.375 100.9688 230.625 L102.0938 231.1875 L103.2188 231.1875 Q129.0938 216 176.3438 192.375 L176.3438 187.875 Q178.0312 153.5625 193.2188 153.5625 L194.3438 153 Q199.4062 153 225.2812 173.25 Q226.6875 173.25 227.5312 178.3125 Q227.5312 184.2188 198.8438 193.5 Q189.8438 196.5938 189.8438 200.8125 L189.8438 226.125 Q189.8438 293.0625 196.5938 303.1875 Q208.125 322.3125 232.0312 322.3125 L234.2812 322.3125 Q244.125 322.3125 254.5312 321.1875 Q255.9375 327.375 256.2188 327.375 Q256.2188 331.5938 230.3438 333 Q190.4062 333 179.1562 297.5625 Q174.6562 280.125 174.6562 248.0625 Q174.6562 239.3438 175.2188 208.6875 Q175.7812 206.4375 175.7812 204.75 L174.6562 204.75 Q145.4062 217.125 102.0938 245.8125 L102.0938 246.9375 Q102.0938 322.875 76.2188 342.5625 Q70.875 344.8125 68.9062 344.8125 Q58.7812 344.8125 46.9688 322.3125 Q31.7812 305.7188 31.7812 299.25 Q31.7812 285.1875 58.2188 263.8125 Q68.9062 254.25 87.4688 240.75 L87.4688 234.5625 Q87.4688 189.2812 69.4688 150.75 L73.9688 147.9375 ZM190.9688 185.0625 L191.5312 185.0625 Q207.2812 180.2812 207.2812 175.5 Q201.375 163.6875 196.0312 163.6875 L195.4688 163.6875 Q190.9688 163.6875 190.9688 185.0625 ZM48.0938 301.5 L48.0938 302.625 Q48.0938 315.5625 65.5312 325.125 Q66.6562 325.6875 67.7812 325.6875 L70.5938 325.6875 Q84.375 317.25 87.4688 256.5 L85.7812 256.5 Q48.0938 282.0938 48.0938 301.5 Z" stroke="none" />
    </g>
  </g>
</svg>
