<?xml version="1.0"?>

<!DOCTYPE svg PUBLIC '-//W3C//DTD SVG 1.0//EN' 'http://www.w3.org/TR/2001/REC-SVG-20010904/DTD/svg10.dtd'>
<svg fill-opacity="1" xmlns:xlink="http://www.w3.org/1999/xlink" color-rendering="auto" color-interpolation="auto" text-rendering="auto" stroke="black" stroke-linecap="square" stroke-miterlimit="10" shape-rendering="auto" stroke-opacity="1" fill="black" stroke-dasharray="none" font-weight="normal" stroke-width="1" xmlns="http://www.w3.org/2000/svg" font-family="&apos;Dialog&apos;" font-style="normal" stroke-linejoin="miter" font-size="12" stroke-dashoffset="0" image-rendering="auto">
  <!--Unicode Character 'HENTAIGANA LETTER KI-6' (U+1B028)-->
  <defs id="genericDefs" />
  <g>
    <g>
      <path d="M83.5312 135.8438 Q95.3438 151.0312 121.7812 158.9062 Q134.1562 161.4375 134.1562 171.2812 Q132.1875 180.8438 125.1562 180.8438 Q113.625 178.0312 106.5938 178.0312 L100.4062 178.0312 Q86.3438 178.0312 86.3438 179.1562 Q85.2188 179.1562 82.9688 175.2188 Q82.9688 174.0938 108.2812 168.4688 L108.2812 167.9062 Q96.75 162.5625 86.9062 151.5938 Q82.9688 146.5312 79.5938 139.7812 Q79.875 138.375 83.5312 135.8438 ZM200.5312 163.9688 Q212.9062 163.9688 219.0938 180.2812 L219.0938 181.9688 Q219.0938 187.875 202.2188 222.4688 L202.2188 223.5938 Q202.2188 224.4375 215.7188 228.6562 Q243.8438 240.75 243.8438 267.4688 Q243.8438 315.5625 145.9688 356.3438 L142.5938 356.9062 L142.0312 356.9062 Q138.6562 354.6562 138.6562 351.2812 Q225.8438 313.5938 225.8438 267.4688 Q225.8438 241.0312 203.9062 232.5938 Q192.0938 230.0625 192.0938 224.7188 Q201.0938 198.2812 201.0938 187.0312 L201.0938 181.9688 Q201.0938 175.7812 196.0312 175.7812 L195.4688 175.7812 Q183.375 175.7812 125.1562 235.9688 Q116.1562 246.0938 110.5312 253.4062 Q111.0938 295.5938 112.2188 311.9062 Q112.2188 326.25 99.2812 336.6562 Q96.1875 337.2188 94.2188 337.2188 Q92.5312 337.2188 75.0938 327.0938 Q45.2812 313.3125 44.7188 310.2188 Q44.1562 309.0938 44.1562 308.5312 Q44.1562 300.0938 97.0312 250.0312 L97.0312 222.4688 Q97.0312 221.0625 94.2188 220.7812 Q76.5 226.9688 66.6562 226.9688 Q47.5312 224.7188 47.5312 211.7812 L47.5312 210.6562 Q47.5312 200.8125 58.2188 194.9062 L59.3438 194.9062 Q60.75 196.0312 61.5938 196.0312 L61.5938 197.7188 Q58.7812 201.0938 58.7812 205.0312 L58.7812 210.0938 Q58.7812 213.75 71.1562 214.0312 L71.7188 214.0312 Q81.8438 214.0312 100.9688 203.3438 L102.0938 203.3438 Q108.8438 203.3438 114.4688 212.9062 Q110.5312 222.4688 110.5312 238.2188 L111.6562 238.2188 Q178.875 169.875 196.0312 165.0938 Q198.8438 163.9688 200.5312 163.9688 ZM62.1562 307.4062 L62.1562 310.2188 Q62.1562 314.7188 91.4062 320.3438 L93.6562 320.3438 Q97.0312 318.6562 97.0312 315.2812 L97.0312 265.7812 L96.4688 265.7812 Q66.9375 294.75 62.1562 307.4062 Z" stroke="none" />
    </g>
  </g>
</svg>
