<?xml version="1.0"?>

<!DOCTYPE svg PUBLIC '-//W3C//DTD SVG 1.0//EN' 'http://www.w3.org/TR/2001/REC-SVG-20010904/DTD/svg10.dtd'>
<svg fill-opacity="1" xmlns:xlink="http://www.w3.org/1999/xlink" color-rendering="auto" color-interpolation="auto" text-rendering="auto" stroke="black" stroke-linecap="square" stroke-miterlimit="10" shape-rendering="auto" stroke-opacity="1" fill="black" stroke-dasharray="none" font-weight="normal" stroke-width="1" xmlns="http://www.w3.org/2000/svg" font-family="&apos;Dialog&apos;" font-style="normal" stroke-linejoin="miter" font-size="12" stroke-dashoffset="0" image-rendering="auto">
  <!--Unicode Character 'HENTAIGANA LETTER WA-4' (U+1B10B)-->
  <defs id="genericDefs" />
  <g>
    <g>
      <path d="M163.125 156.9375 Q177.4688 156.9375 178.875 176.0625 L178.875 194.0625 Q178.875 264.0938 154.6875 280.125 Q151.0312 282.9375 142.3125 297 Q126 311.625 126 315 Q133.3125 320.625 151.3125 320.625 L153.5625 320.625 Q165.0938 320.625 178.3125 316.6875 Q189.5625 318.9375 189.5625 325.6875 Q189.5625 335.8125 155.25 335.8125 L151.3125 335.8125 Q113.0625 333 113.0625 318.375 Q113.0625 313.0312 127.6875 300.9375 Q135.5625 291.0938 135.5625 288.5625 L135 288.5625 Q129.9375 290.25 126.5625 290.25 Q117.8438 290.25 114.1875 278.4375 Q98.4375 254.8125 98.4375 253.125 L98.4375 251.4375 Q98.4375 242.4375 118.125 231.75 Q122.3438 229.5 135.5625 227.25 Q149.9062 227.25 153 254.8125 Q152.4375 257.0625 151.3125 268.875 L151.875 268.875 Q163.125 250.3125 163.125 205.3125 L163.125 188.4375 Q163.125 170.4375 159.75 170.4375 L155.25 170.4375 Q148.7812 170.4375 119.25 187.3125 L116.4375 187.875 Q111.375 187.875 105.1875 176.625 Q103.2188 171 101.8125 162.5625 Q101.8125 161.1562 106.3125 158.625 L108 158.625 Q111.0938 168.1875 118.125 168.1875 L119.25 168.1875 Q127.4062 168.1875 157.5 158.0625 Q162 157.5 163.125 156.9375 ZM111.9375 255.375 Q111.9375 267.4688 124.3125 280.6875 L128.25 281.8125 L131.0625 281.8125 Q139.5 281.8125 139.5 271.125 Q139.5 268.875 140.0625 261 Q139.5 243.2812 133.875 240.75 L131.625 240.75 Q111.9375 245.25 111.9375 255.375 Z" stroke="none" />
    </g>
  </g>
</svg>
