<?xml version="1.0" encoding="UTF-8" standalone="no"?>
<svg
   xmlns:dc="http://purl.org/dc/elements/1.1/"
   xmlns:cc="http://creativecommons.org/ns#"
   xmlns:rdf="http://www.w3.org/1999/02/22-rdf-syntax-ns#"
   xmlns:svg="http://www.w3.org/2000/svg"
   xmlns="http://www.w3.org/2000/svg"
   xmlns:sodipodi="http://sodipodi.sourceforge.net/DTD/sodipodi-0.dtd"
   xmlns:inkscape="http://www.inkscape.org/namespaces/inkscape"
   fill-opacity="1"
   color-rendering="auto"
   color-interpolation="auto"
   text-rendering="auto"
   stroke="black"
   stroke-linecap="square"
   stroke-miterlimit="10"
   shape-rendering="auto"
   stroke-opacity="1"
   fill="black"
   stroke-dasharray="none"
   font-weight="normal"
   stroke-width="1"
   font-family="'Dialog'"
   font-style="normal"
   stroke-linejoin="miter"
   font-size="12"
   stroke-dashoffset="0"
   image-rendering="auto"
   version="1.1"
   id="svg9"
   sodipodi:docname="hentaigana_letter_no1.svg"
   inkscape:version="0.92.4 (5da689c313, 2019-01-14)">
  <metadata
     id="metadata13">
    <rdf:RDF>
      <cc:Work
         rdf:about="">
        <dc:format>image/svg+xml</dc:format>
        <dc:type
           rdf:resource="http://purl.org/dc/dcmitype/StillImage" />
      </cc:Work>
    </rdf:RDF>
  </metadata>
  <sodipodi:namedview
     pagecolor="#ffffff"
     bordercolor="#666666"
     borderopacity="1"
     objecttolerance="10"
     gridtolerance="10"
     guidetolerance="10"
     inkscape:pageopacity="0"
     inkscape:pageshadow="2"
     inkscape:window-width="1920"
     inkscape:window-height="986"
     id="namedview11"
     showgrid="false"
     inkscape:zoom="2.36"
     inkscape:cx="50"
     inkscape:cy="50"
     inkscape:window-x="-11"
     inkscape:window-y="-11"
     inkscape:window-maximized="1"
     inkscape:current-layer="svg9" />
  <!--Unicode Character 'HENTAIGANA LETTER NO-1' (U+1B099)-->
  <defs
     id="genericDefs" />
  <g
     id="g7"
     transform="matrix(0.52823879,0,0,0.47187423,-25.710454,-66.493181)">
    <g
       id="g5">
      <path
         d="m 179.1562,142.875 q 19.6876,5.9062 19.6876,16.3125 0,3.375 -14.0626,29.8125 -5.625,12.6562 -5.625,15.1875 v 1.125 q 0,5.0625 17.4376,9.5625 30.9374,12.0938 30.9374,48.375 0,63.5625 -75.375,86.625 h -1.125 q -2.8124,-5.0625 -2.8124,-6.75 60.75,-22.2188 60.75,-77.0625 v -8.4375 q 0,-33.75 -30.9376,-39.375 -10.125,-3.9375 -10.125,-12.9375 L 178.5938,159.75 q -1.125,-2.25 -3.375,-2.25 -9,1.125 -36,7.875 v 1.125 q 5.0624,6.1875 5.0624,12.9375 0,12.375 -23.625,57.375 l -39.9374,90 q -4.5,4.5 -7.875,4.5 -6.1876,0 -7.3126,-25.875 l -5.0624,-16.875 4.5,-3.9375 q 8.7187,16.0312 11.25,18.5625 49.5,-101.25 49.5,-112.5 3.9374,-8.7187 3.9374,-22.5 h -0.5624 q -29.5313,6.75 -33.75,6.75 -13.7813,0 -23.0626,-23.625 V 150.75 q 2.5313,-2.25 5.0626,-3.375 8.4374,11.8125 22.5,11.8125 h 8.4374 q 23.625,0 70.875,-16.3125 z"
         id="path3"
         inkscape:connector-curvature="0"
         style="stroke:none" />
    </g>
  </g>
</svg>
