<?xml version="1.0"?>

<!DOCTYPE svg PUBLIC '-//W3C//DTD SVG 1.0//EN' 'http://www.w3.org/TR/2001/REC-SVG-20010904/DTD/svg10.dtd'>
<svg fill-opacity="1" xmlns:xlink="http://www.w3.org/1999/xlink" color-rendering="auto" color-interpolation="auto" text-rendering="auto" stroke="black" stroke-linecap="square" stroke-miterlimit="10" shape-rendering="auto" stroke-opacity="1" fill="black" stroke-dasharray="none" font-weight="normal" stroke-width="1" xmlns="http://www.w3.org/2000/svg" font-family="&apos;Dialog&apos;" font-style="normal" stroke-linejoin="miter" font-size="12" stroke-dashoffset="0" image-rendering="auto">
  <!--Unicode Character 'HENTAIGANA LETTER RO-3' (U+1B104)-->
  <defs id="genericDefs" />
  <g>
    <g>
      <path d="M124.0312 129.375 Q149.9062 131.9062 149.9062 145.6875 Q142.5938 184.5 142.5938 195.1875 L144.2812 195.1875 Q163.6875 182.8125 183.6562 162 L183.6562 160.3125 Q183.6562 159.4688 181.9688 158.625 L176.9062 158.625 Q173.8125 158.625 168.4688 159.75 Q166.7812 156.9375 166.7812 155.25 Q179.7188 147.9375 188.7188 147.9375 L189.2812 147.9375 Q203.3438 149.625 203.3438 159.75 L203.3438 160.3125 Q203.3438 171.2812 148.7812 200.25 Q140.3438 203.625 140.3438 210.375 Q140.3438 211.7812 139.7812 218.8125 L140.3438 218.8125 Q150.1875 218.8125 179.7188 204.1875 Q187.0312 197.4375 193.7812 197.4375 Q205.0312 199.125 205.0312 204.1875 Q202.7812 216.5625 138.6562 230.625 Q138.0938 243.8438 138.0938 250.3125 L138.0938 253.125 Q154.9688 250.3125 172.9688 248.625 L172.9688 244.125 Q172.9688 243.5625 171.8438 237.9375 Q173.8125 236.8125 176.3438 236.8125 Q181.4062 243 181.4062 248.625 Q227.8125 249.1875 239.9062 277.875 Q242.7188 285.4688 242.7188 293.625 Q242.7188 338.0625 158.9062 361.6875 Q151.5938 363.375 148.7812 363.375 L145.9688 358.875 L145.9688 357.1875 Q168.1875 352.125 188.1562 342 Q225.2812 319.7812 225.2812 293.0625 Q225.2812 268.3125 206.1562 261.5625 Q193.5 257.0625 181.4062 257.0625 Q181.4062 266.0625 154.9688 291.375 Q142.0312 302.0625 142.0312 303.75 Q142.0312 311.625 147.6562 317.8125 Q152.1562 310.5 157.2188 297 L157.7812 297 Q161.7188 299.5312 161.7188 300.375 Q155.5312 319.2188 153.2812 335.8125 Q150.4688 338.625 147.6562 338.625 Q136.6875 338.625 130.2188 312.1875 L129.0938 312.1875 Q90.2812 340.3125 78.4688 340.875 Q70.0312 340.875 57.0938 319.5 Q45.2812 306.8438 45.2812 300.9375 Q45.2812 281.8125 119.5312 257.625 Q125.1562 257.0625 125.1562 255.375 L125.1562 248.0625 Q125.1562 243.2812 125.7188 232.875 Q113.0625 234 109.9688 234 Q85.5 234 74.5312 214.875 L79.0312 210.9375 Q90 222.75 103.7812 222.75 L115.5938 222.75 Q119.5312 222.75 126.2812 221.625 Q129.0938 180.2812 133.0312 146.25 Q133.0312 138.6562 120.6562 135.5625 L120.6562 133.875 Q122.3438 130.7812 124.0312 129.375 ZM90.2812 160.875 L93.6562 162.5625 L93.0938 168.1875 L93.0938 169.875 Q93.0938 180.5625 97.5938 180.5625 Q105.4688 179.1562 118.4062 173.25 L118.9688 177.1875 Q102.0938 193.5 90.8438 196.3125 Q80.7188 194.0625 80.7188 181.6875 Q80.7188 171.2812 89.7188 160.875 L90.2812 160.875 ZM137.5312 264.375 Q137.5312 280.9688 138.6562 290.25 Q146.5312 288.5625 168.4688 263.8125 Q170.7188 259.875 170.7188 258.1875 L170.7188 257.625 Q137.5312 261 137.5312 264.375 ZM58.2188 306.5625 L58.2188 307.125 Q58.2188 311.3438 70.0312 323.4375 Q73.9688 325.125 75.0938 325.125 L79.5938 325.125 Q93.9375 323.7188 127.4062 298.125 Q125.1562 286.875 125.1562 268.3125 L125.1562 267.1875 L124.5938 267.1875 Q104.625 271.125 72.2812 290.8125 Q58.2188 301.5 58.2188 306.5625 Z" stroke="none" />
    </g>
  </g>
</svg>
