<?xml version="1.0"?>

<!DOCTYPE svg PUBLIC '-//W3C//DTD SVG 1.0//EN' 'http://www.w3.org/TR/2001/REC-SVG-20010904/DTD/svg10.dtd'>
<svg fill-opacity="1" xmlns:xlink="http://www.w3.org/1999/xlink" color-rendering="auto" color-interpolation="auto" text-rendering="auto" stroke="black" stroke-linecap="square" stroke-miterlimit="10" shape-rendering="auto" stroke-opacity="1" fill="black" stroke-dasharray="none" font-weight="normal" stroke-width="1" xmlns="http://www.w3.org/2000/svg" font-family="&apos;Dialog&apos;" font-style="normal" stroke-linejoin="miter" font-size="12" stroke-dashoffset="0" image-rendering="auto">
  <!--Unicode Character 'HENTAIGANA LETTER TO-5' (U+1B07B)-->
  <defs id="genericDefs" />
  <g>
    <g>
      <path d="M97.3125 131.9062 Q124.875 137.25 124.875 149.9062 L124.875 150.4688 Q124.875 156.375 121.5 184.2188 Q141.1875 174.0938 144.5625 174.0938 L153.5625 172.4062 Q161.7188 172.4062 173.8125 181.9688 Q191.8125 166.2188 209.8125 166.2188 Q230.0625 167.625 234.5625 180.8438 Q235.125 183.0938 235.125 185.3438 Q235.125 199.4062 202.5 217.4062 Q145.6875 255.375 141.75 273.6562 L141.75 274.2188 Q143.4375 278.4375 176.0625 285.4688 Q180.5625 289.9688 180.5625 293.3438 Q180.5625 300.0938 163.125 301.2188 Q136.6875 306.2812 136.6875 309.6562 Q142.0312 312.75 160.875 316.9688 Q167.625 320.9062 167.625 324.8438 Q167.625 331.0312 145.6875 333.2812 Q132.1875 335.5312 132.1875 338.3438 Q132.1875 343.6875 166.5 345.0938 L169.3125 345.0938 Q176.9062 345.0938 189.5625 344.5312 Q193.7812 344.5312 197.4375 351.2812 Q197.4375 360.8438 177.75 360.8438 Q124.5938 360.8438 116.4375 343.9688 L116.4375 342.2812 Q116.4375 334.4062 144 327.0938 L144 326.5312 L128.8125 319.2188 Q124.875 315.5625 124.875 311.9062 Q124.875 301.5 154.6875 294.4688 L154.6875 293.3438 Q129.9375 289.125 129.9375 277.5938 Q129.9375 259.3125 196.3125 209.5312 Q218.8125 195.1875 218.8125 184.2188 L218.8125 181.9688 Q218.8125 173.5312 208.125 173.5312 Q188.7188 173.5312 182.25 194.3438 Q181.6875 203.9062 174.375 203.9062 Q170.4375 203.9062 158.625 184.7812 Q154.6875 181.4062 151.875 181.4062 Q138.6562 181.4062 120.375 197.1562 L120.375 198.8438 Q120.375 205.0312 119.8125 208.9688 Q121.5 239.9062 121.5 248.3438 L121.5 249.4688 Q118.4062 268.0312 108.5625 268.0312 Q101.8125 268.0312 97.3125 244.4062 Q91.125 228.6562 90.5625 228.6562 L90 228.6562 Q84.0938 235.9688 74.8125 255.0938 Q70.3125 260.1562 66.375 260.1562 L65.8125 260.1562 Q52.875 255.375 52.875 234.2812 Q52.875 198.8438 73.6875 185.3438 Q74.8125 184.7812 75.9375 184.7812 L78.1875 184.7812 Q81.5625 184.7812 91.125 210.0938 L92.8125 210.0938 L109.6875 192.6562 L109.6875 165.6562 Q109.6875 144.8438 99.5625 139.7812 Q93.9375 138.0938 93.9375 136.9688 Q95.625 133.0312 97.3125 131.9062 ZM63.5625 234.2812 Q64.4062 241.0312 65.8125 241.0312 L66.9375 241.0312 Q67.7812 241.0312 86.0625 217.9688 L86.0625 217.4062 Q78.4688 197.4375 74.8125 196.5938 L74.25 196.5938 Q63.5625 203.3438 63.5625 234.2812 ZM96.1875 220.2188 Q97.3125 225.2812 107.4375 242.7188 L108.5625 242.7188 Q109.125 220.2188 109.125 211.7812 Q109.125 210.9375 109.6875 206.1562 L108.5625 206.1562 Q99.8438 214.0312 96.1875 220.2188 Z" stroke="none" />
    </g>
  </g>
</svg>
