<?xml version="1.0"?>

<!DOCTYPE svg PUBLIC '-//W3C//DTD SVG 1.0//EN' 'http://www.w3.org/TR/2001/REC-SVG-20010904/DTD/svg10.dtd'>
<svg fill-opacity="1" xmlns:xlink="http://www.w3.org/1999/xlink" color-rendering="auto" color-interpolation="auto" text-rendering="auto" stroke="black" stroke-linecap="square" stroke-miterlimit="10" shape-rendering="auto" stroke-opacity="1" fill="black" stroke-dasharray="none" font-weight="normal" stroke-width="1" xmlns="http://www.w3.org/2000/svg" font-family="&apos;Dialog&apos;" font-style="normal" stroke-linejoin="miter" font-size="12" stroke-dashoffset="0" image-rendering="auto">
  <!--Unicode Character 'HENTAIGANA LETTER KI-2' (U+1B024)-->
  <defs id="genericDefs" />
  <g>
    <g>
      <path d="M181.6875 126.5625 Q190.9688 126.5625 195.1875 140.625 Q195.1875 145.125 179.4375 161.4375 L176.625 165.375 L176.625 167.625 Q179.4375 167.625 194.0625 157.5 Q195.75 157.5 195.75 156.9375 Q209.8125 159.75 209.8125 167.0625 Q209.8125 175.2188 173.25 197.4375 Q134.1562 223.875 131.0625 223.875 Q131.0625 223.3125 127.6875 219.375 Q160.5938 197.1562 190.6875 172.6875 Q191.8125 170.7188 191.8125 169.875 L190.6875 169.875 Q187.3125 169.875 166.5 178.3125 L165.9375 178.3125 Q163.9688 177.4688 162.5625 173.8125 Q162.5625 172.4062 173.25 155.8125 Q178.875 143.4375 178.875 140.625 L178.875 139.5 L178.3125 139.5 Q168.75 142.875 153.5625 156.375 L149.625 151.875 Q173.8125 126.5625 181.6875 126.5625 ZM91.6875 133.3125 Q102.9375 142.0312 102.9375 149.0625 Q102.9375 157.7812 89.4375 178.875 L89.4375 180 L90 180 Q96.75 178.0312 109.6875 169.3125 Q110.8125 168.75 111.375 168.75 Q113.9062 168.75 118.6875 175.5 L118.6875 177.1875 Q118.6875 180 102.375 195.75 Q83.25 218.25 80.4375 223.3125 L81.5625 223.3125 Q85.2188 220.7812 118.125 194.0625 L118.6875 194.0625 Q118.6875 194.9062 121.5 198.5625 L121.5 199.125 Q117.2812 202.7812 77.0625 241.875 Q76.5 241.875 75.375 242.4375 Q68.625 242.4375 64.125 232.875 Q64.125 228.6562 84.9375 203.625 Q95.625 188.4375 95.625 186.75 L95.0625 186.75 Q91.6875 186.75 69.1875 201.9375 L66.375 202.5 Q62.4375 201.375 62.4375 193.5 Q62.4375 188.4375 73.6875 181.6875 Q91.125 160.3125 91.125 144.5625 Q91.125 141.4688 87.1875 137.25 Q87.1875 136.4062 91.6875 133.3125 ZM165.9375 214.3125 Q182.8125 221.9062 183.9375 223.3125 Q183.9375 224.4375 184.5 224.4375 Q184.5 229.7812 169.3125 239.625 Q169.3125 273.0938 170.4375 332.4375 Q167.625 366.1875 154.125 366.1875 Q149.3438 366.1875 138.375 347.625 Q118.125 327.375 117 327.375 Q107.4375 335.5312 86.0625 354.9375 L84.375 354.9375 Q73.125 350.7188 73.125 342.5625 Q73.125 339.4688 86.625 326.25 Q108.2812 300.375 108.5625 293.625 L108.5625 293.0625 L108 293.0625 Q103.5 293.0625 76.5 314.4375 L74.25 314.4375 Q71.4375 314.4375 69.1875 303.1875 Q69.1875 297.2812 82.6875 291.9375 Q100.6875 273.0938 100.6875 267.75 Q72.2812 277.875 64.125 277.875 L61.875 277.875 Q46.4062 277.875 38.8125 259.3125 L38.8125 258.75 Q38.8125 257.625 42.75 255.375 L43.3125 255.375 Q49.2188 263.25 58.5 263.25 L63.5625 263.25 Q91.125 263.25 155.8125 232.3125 Q160.3125 214.3125 165.9375 214.3125 ZM95.625 290.8125 Q112.7812 279 115.3125 279 Q122.625 279 127.125 287.4375 Q127.125 289.4062 113.625 304.3125 Q93.375 329.3438 93.375 331.875 L93.9375 331.875 Q95.3438 331.875 132.75 301.5 Q154.125 286.3125 156.375 283.5 L156.375 244.125 L155.8125 244.125 Q110.8125 262.9688 110.8125 264.9375 Q107.4375 272.5312 95.625 290.25 L95.625 290.8125 ZM205.875 278.4375 Q222.4688 278.4375 243 302.0625 Q249.1875 310.5 249.1875 320.0625 Q246.6562 333 240.1875 333 L239.0625 333 Q232.3125 333 230.0625 316.125 Q224.4375 297.2812 210.375 288 L201.375 284.0625 Q204.1875 278.4375 205.875 278.4375 ZM122.625 322.3125 L122.625 324 Q145.9688 341.4375 153 341.4375 L154.125 341.4375 Q155.25 341.4375 155.8125 337.5 Q156.375 314.7188 156.375 300.9375 L156.375 293.625 L155.25 293.625 Q125.7188 318.6562 122.625 322.3125 Z" stroke="none" />
    </g>
  </g>
</svg>
