<?xml version="1.0"?>

<!DOCTYPE svg PUBLIC '-//W3C//DTD SVG 1.0//EN' 'http://www.w3.org/TR/2001/REC-SVG-20010904/DTD/svg10.dtd'>
<svg fill-opacity="1" xmlns:xlink="http://www.w3.org/1999/xlink" color-rendering="auto" color-interpolation="auto" text-rendering="auto" stroke="black" stroke-linecap="square" stroke-miterlimit="10" shape-rendering="auto" stroke-opacity="1" fill="black" stroke-dasharray="none" font-weight="normal" stroke-width="1" xmlns="http://www.w3.org/2000/svg" font-family="&apos;Dialog&apos;" font-style="normal" stroke-linejoin="miter" font-size="12" stroke-dashoffset="0" image-rendering="auto">
  <!--Unicode Character 'HENTAIGANA LETTER TA-2' (U+1B05F)-->
  <defs id="genericDefs" />
  <g>
    <g>
      <path d="M118.4062 130.7812 Q135.2812 137.5312 135.2812 149.3438 Q135.2812 158.0625 110.5312 189.8438 Q111.0938 189.8438 111.0938 190.4062 Q136.4062 181.125 157.2188 170.7188 L158.9062 170.7188 Q167.3438 170.7188 174.6562 181.4062 L174.6562 184.2188 Q172.6875 187.3125 154.4062 196.5938 Q118.6875 221.3438 91.9688 244.9688 L92.5312 244.9688 Q129.9375 229.7812 156.0938 229.7812 Q187.0312 229.7812 198.8438 261.2812 Q202.2188 271.6875 202.2188 283.2188 L202.2188 283.7812 Q202.2188 296.7188 197.1562 314.1562 Q245.5312 340.0312 245.5312 350.7188 Q243.2812 359.7188 238.2188 359.7188 L237.0938 359.7188 Q234.2812 359.7188 215.1562 343.4062 Q207.8438 337.5 191.5312 327.6562 L190.4062 327.6562 Q165.0938 361.9688 128.5312 361.9688 Q112.7812 361.9688 96.4688 347.3438 L95.3438 347.3438 Q82.125 353.5312 68.9062 353.5312 L68.3438 353.5312 Q50.0625 353.5312 43.5938 339.4688 Q43.5938 337.2188 42.4688 333.8438 Q42.4688 318.375 82.4062 301.7812 Q88.875 301.7812 90.2812 292.7812 Q108.5625 261.8438 130.2188 261.8438 Q147.6562 261.8438 149.3438 282.0938 L149.3438 283.2188 Q147.6562 293.9062 147.6562 297.2812 Q163.9688 300.6562 181.9688 306.8438 L181.9688 306.2812 Q185.9062 296.1562 185.9062 285.4688 L185.9062 278.1562 Q185.9062 249.75 163.4062 241.5938 Q158.625 239.9062 152.1562 239.9062 Q119.8125 239.9062 70.0312 269.1562 Q63 277.5938 58.2188 277.5938 Q54.5625 277.5938 53.1562 271.4062 Q55.6875 258.1875 61.0312 253.4062 Q71.4375 248.625 111.0938 216.2812 Q141.75 192.9375 145.4062 189.2812 Q144.8438 189.2812 144.8438 188.7188 Q117.5625 196.875 90.8438 211.7812 Q86.0625 211.7812 84.6562 201.6562 Q84.6562 197.7188 100.4062 183.0938 Q123.4688 157.5 123.4688 146.5312 Q123.4688 140.9062 115.0312 134.7188 L115.0312 134.1562 Q115.0312 133.3125 118.4062 130.7812 ZM98.1562 297.8438 L98.7188 297.8438 Q119.8125 295.5938 130.2188 295.5938 Q132.4688 291.375 132.4688 286.5938 L132.4688 277.5938 Q132.4688 271.4062 127.4062 271.4062 L124.5938 271.4062 Q112.7812 271.4062 98.1562 295.5938 L98.1562 297.8438 ZM95.3438 309.6562 L95.3438 314.1562 Q95.3438 325.4062 100.4062 332.1562 L101.5312 332.1562 Q123.1875 313.875 124.5938 306.2812 Q109.9688 306.2812 95.3438 309.6562 ZM141.4688 307.9688 Q129.9375 325.6875 107.7188 341.7188 Q114.4688 350.1562 127.4062 350.1562 Q154.4062 350.1562 167.9062 331.0312 Q175.2188 323.1562 175.2188 319.7812 Q162.8438 312.75 143.1562 307.9688 L141.4688 307.9688 ZM55.9688 334.9688 L55.9688 337.2188 Q55.9688 344.25 64.4062 345.0938 L67.2188 345.0938 Q87.75 343.4062 90.2812 337.7812 Q85.2188 327.6562 85.2188 316.4062 L85.2188 313.0312 L84.6562 313.0312 Q64.6875 319.5 57.0938 331.0312 L55.9688 334.9688 Z" stroke="none" />
    </g>
  </g>
</svg>
