<?xml version="1.0"?>

<!DOCTYPE svg PUBLIC '-//W3C//DTD SVG 1.0//EN' 'http://www.w3.org/TR/2001/REC-SVG-20010904/DTD/svg10.dtd'>
<svg fill-opacity="1" xmlns:xlink="http://www.w3.org/1999/xlink" color-rendering="auto" color-interpolation="auto" text-rendering="auto" stroke="black" stroke-linecap="square" stroke-miterlimit="10" shape-rendering="auto" stroke-opacity="1" fill="black" stroke-dasharray="none" font-weight="normal" stroke-width="1" xmlns="http://www.w3.org/2000/svg" font-family="&apos;Dialog&apos;" font-style="normal" stroke-linejoin="miter" font-size="12" stroke-dashoffset="0" image-rendering="auto">
  <!--Unicode Character 'HENTAIGANA LETTER NU-2' (U+1B090)-->
  <defs id="genericDefs" />
  <g>
    <g>
      <path d="M135.2812 133.875 Q155.25 133.875 161.7188 146.25 Q163.4062 152.1562 163.4062 156.375 L163.4062 156.9375 Q163.4062 164.8125 160.5938 181.125 L161.1562 181.125 Q166.5 181.125 171.8438 180.5625 Q212.0625 180.5625 233.1562 212.625 Q241.5938 227.5312 241.5938 243.5625 Q241.5938 265.5 231.4688 289.6875 Q248.9062 302.9062 248.9062 316.6875 Q248.9062 344.5312 201.6562 358.875 Q201.0938 358.875 197.1562 353.25 Q218.5312 343.125 223.0312 337.5 Q232.5938 328.5 232.5938 315.5625 Q232.5938 308.8125 225.2812 302.0625 L224.1562 302.0625 Q204.1875 327.375 176.9062 327.375 Q153.8438 327.375 145.9688 309.375 Q144.8438 304.3125 144.8438 302.0625 Q144.8438 280.6875 179.1562 275.625 L184.7812 275.625 Q199.4062 275.625 217.4062 281.8125 Q224.1562 264.0938 224.1562 240.75 Q224.1562 207.5625 188.7188 192.375 Q180.8438 190.125 171.2812 190.125 Q157.7812 190.125 157.7812 192.9375 Q156.6562 209.8125 136.4062 257.625 L118.4062 289.6875 Q128.25 302.9062 128.5312 307.125 Q128.5312 312.1875 120.6562 313.3125 Q115.875 312.4688 107.7188 304.3125 Q84.9375 325.6875 73.4062 325.6875 Q73.4062 326.8125 63.2812 327.375 Q47.25 327.375 41.3438 309.9375 Q39.0938 302.3438 39.0938 295.875 L39.0938 288.5625 Q39.0938 261.5625 67.7812 227.25 Q72.8438 223.3125 72.8438 221.0625 Q54.8438 177.1875 45.8438 177.1875 Q41.3438 174.9375 41.3438 174.375 Q43.3125 170.7188 45.2812 169.3125 Q53.7188 170.1562 65.5312 181.6875 Q82.125 211.5 83.5312 213.1875 Q117.5625 189 143.1562 184.5 Q145.125 184.5 146.5312 155.25 Q146.5312 142.5938 131.3438 140.625 Q130.7812 140.625 130.7812 139.5 Q132.75 133.875 135.2812 133.875 ZM88.0312 224.4375 Q104.0625 263.8125 111.6562 276.75 Q120.375 264.0938 132.4688 231.75 Q142.0312 202.5 142.0312 194.0625 L141.4688 194.0625 Q108 203.3438 88.0312 224.4375 ZM54.8438 288 L54.8438 291.375 Q54.8438 312.1875 67.2188 312.1875 Q88.0312 312.1875 100.9688 294.1875 L100.9688 293.0625 Q89.7188 269.4375 78.4688 234.5625 L76.7812 234.5625 Q54.8438 261.8438 54.8438 288 ZM156.0938 300.375 L156.0938 303.75 Q158.3438 316.6875 172.9688 316.6875 L179.7188 316.6875 Q198 316.6875 211.7812 293.0625 L211.7812 292.5 Q196.875 285.75 181.9688 285.75 Q157.2188 288 157.2188 296.4375 Q156.375 296.4375 156.0938 300.375 Z" stroke="none" />
    </g>
  </g>
</svg>
