<?xml version="1.0"?>

<!DOCTYPE svg PUBLIC '-//W3C//DTD SVG 1.0//EN' 'http://www.w3.org/TR/2001/REC-SVG-20010904/DTD/svg10.dtd'>
<svg fill-opacity="1" xmlns:xlink="http://www.w3.org/1999/xlink" color-rendering="auto" color-interpolation="auto" text-rendering="auto" stroke="black" stroke-linecap="square" stroke-miterlimit="10" shape-rendering="auto" stroke-opacity="1" fill="black" stroke-dasharray="none" font-weight="normal" stroke-width="1" xmlns="http://www.w3.org/2000/svg" font-family="&apos;Dialog&apos;" font-style="normal" stroke-linejoin="miter" font-size="12" stroke-dashoffset="0" image-rendering="auto">
  <!--Unicode Character 'HENTAIGANA LETTER RI-6' (U+1B0F6)-->
  <defs id="genericDefs" />
  <g>
    <g>
      <path d="M185.9062 146.5312 L188.1562 146.5312 Q215.1562 146.5312 223.5938 169.5938 Q224.1562 172.6875 224.1562 174.6562 Q224.1562 210.0938 169.5938 228.6562 Q158.9062 230.0625 158.9062 232.5938 Q158.9062 239.0625 158.3438 257.9062 L158.9062 257.9062 Q162 257.3438 162.2812 257.3438 Q169.5938 257.3438 171.8438 268.0312 Q171.8438 271.4062 157.2188 287.7188 L157.2188 300.6562 Q157.2188 301.2188 157.7812 301.2188 Q157.7812 308.5312 148.2188 313.0312 L135.8438 305.7188 L109.9688 323.1562 L109.4062 325.4062 Q109.4062 331.5938 139.2188 331.5938 L147.6562 331.5938 Q164.8125 331.5938 194.3438 324.2812 Q205.0312 325.6875 205.0312 332.1562 Q205.0312 341.7188 168.4688 345.0938 Q160.875 346.2188 145.9688 346.2188 L143.7188 346.2188 Q98.1562 346.2188 98.1562 329.3438 Q98.1562 322.0312 113.3438 313.5938 Q126.5625 302.9062 127.4062 302.9062 L127.4062 300.6562 Q111.0938 293.625 106.5938 291.0938 Q103.7812 288 103.7812 284.3438 Q103.7812 275.625 144.8438 259.5938 L144.8438 259.0312 Q145.4062 243.2812 145.4062 233.1562 L145.4062 232.0312 L140.3438 232.0312 Q121.7812 232.0312 121.7812 221.9062 Q121.7812 214.875 142.0312 201.6562 Q147.6562 198.8438 152.7188 198.8438 Q158.0625 198.8438 160.5938 208.4062 L159.4688 223.0312 Q174.9375 223.0312 196.0312 202.2188 Q205.5938 189.2812 205.5938 179.1562 L205.5938 170.7188 Q203.3438 154.9688 187.5938 154.9688 L186.4688 154.9688 Q162.2812 154.9688 100.4062 185.9062 Q88.5938 190.9688 84.0938 190.9688 Q72 190.9688 63.8438 169.5938 L63.8438 169.0312 Q63.8438 168.1875 67.7812 165.0938 L68.3438 165.0938 Q75.375 173.5312 81.8438 173.5312 L85.2188 173.5312 Q95.0625 173.5312 146.5312 154.4062 Q169.3125 146.5312 185.9062 146.5312 ZM136.4062 220.7812 L136.4062 221.9062 Q137.25 224.1562 140.3438 224.1562 L145.9688 224.1562 Q146.5312 216.5625 146.5312 212.9062 L146.5312 209.5312 Q146.5312 208.4062 145.4062 208.4062 Q140.3438 210.6562 136.4062 220.7812 ZM117.2812 287.7188 Q120.375 292.5 134.1562 295.5938 Q140.0625 292.2188 144.2812 286.0312 L144.2812 272.5312 L143.7188 272.5312 Q123.75 278.4375 117.2812 287.1562 L117.2812 287.7188 Z" stroke="none" />
    </g>
  </g>
</svg>
