<?xml version="1.0"?>

<!DOCTYPE svg PUBLIC '-//W3C//DTD SVG 1.0//EN' 'http://www.w3.org/TR/2001/REC-SVG-20010904/DTD/svg10.dtd'>
<svg fill-opacity="1" xmlns:xlink="http://www.w3.org/1999/xlink" color-rendering="auto" color-interpolation="auto" text-rendering="auto" stroke="black" stroke-linecap="square" stroke-miterlimit="10" shape-rendering="auto" stroke-opacity="1" fill="black" stroke-dasharray="none" font-weight="normal" stroke-width="1" xmlns="http://www.w3.org/2000/svg" font-family="&apos;Dialog&apos;" font-style="normal" stroke-linejoin="miter" font-size="12" stroke-dashoffset="0" image-rendering="auto">
  <!--Unicode Character 'HENTAIGANA LETTER N-MU-MO-2' (U+1B11E)-->
  <defs id="genericDefs" />
  <g>
    <g>
      <path d="M103.7812 144.5625 Q108.5625 154.125 130.7812 154.125 Q146.25 154.125 167.9062 148.5 L168.4688 148.5 Q174.375 148.5 177.4688 156.375 Q177.4688 159.1875 162.2812 170.4375 Q141.4688 190.125 141.4688 201.9375 L141.4688 204.1875 Q142.3125 206.4375 145.9688 206.4375 Q152.1562 206.4375 164.5312 204.1875 Q175.2188 206.7188 175.2188 213.1875 Q175.2188 218.8125 160.0312 228.375 Q135 246.9375 93.6562 290.25 L93.6562 290.8125 L94.2188 290.8125 Q109.6875 284.0625 116.1562 284.0625 Q133.3125 284.0625 143.1562 308.25 Q149.3438 320.625 161.7188 330.1875 Q165.375 332.4375 173.5312 332.4375 Q208.125 332.4375 246.6562 280.6875 L250.5938 285.1875 Q227.25 329.625 190.4062 345.375 Q177.75 348.1875 171.2812 348.1875 Q140.625 348.1875 122.3438 302.0625 Q117.5625 295.3125 109.4062 295.3125 Q90.5625 295.3125 46.4062 343.6875 Q45.5625 343.6875 44.1562 344.8125 L41.3438 344.8125 Q39.0938 344.8125 37.4062 335.25 Q37.4062 320.0625 57.0938 309.375 Q86.3438 284.3438 148.7812 219.9375 L148.7812 218.8125 L143.1562 219.375 Q130.7812 219.375 130.7812 207.5625 L130.7812 207 Q130.7812 192.0938 148.2188 167.625 L148.2188 166.5 L147.6562 166.5 Q134.7188 168.75 130.7812 168.75 Q108.2812 168.75 99.8438 150.75 L99.2812 147.375 L99.2812 146.8125 Q99.2812 145.4062 103.7812 144.5625 Z" stroke="none" />
    </g>
  </g>
</svg>
