<?xml version="1.0"?>

<!DOCTYPE svg PUBLIC '-//W3C//DTD SVG 1.0//EN' 'http://www.w3.org/TR/2001/REC-SVG-20010904/DTD/svg10.dtd'>
<svg fill-opacity="1" xmlns:xlink="http://www.w3.org/1999/xlink" color-rendering="auto" color-interpolation="auto" text-rendering="auto" stroke="black" stroke-linecap="square" stroke-miterlimit="10" shape-rendering="auto" stroke-opacity="1" fill="black" stroke-dasharray="none" font-weight="normal" stroke-width="1" xmlns="http://www.w3.org/2000/svg" font-family="&apos;Dialog&apos;" font-style="normal" stroke-linejoin="miter" font-size="12" stroke-dashoffset="0" image-rendering="auto">
  <!--Unicode Character 'HENTAIGANA LETTER NE-2' (U+1B093)-->
  <defs id="genericDefs" />
  <g>
    <g>
      <path d="M160.3125 130.7812 Q195.75 135.2812 195.75 147.6562 Q195.75 155.25 169.875 168.4688 Q155.25 178.3125 155.25 185.9062 Q155.5312 189.5625 163.125 199.4062 Q177.4688 196.0312 189 196.0312 Q210.0938 196.0312 217.125 207.8438 Q217.6875 210.9375 217.6875 212.9062 Q217.6875 229.2188 185.0625 266.9062 Q187.3125 284.0625 187.3125 294.4688 L187.3125 296.7188 Q187.3125 298.6875 212.0625 301.2188 Q219.375 305.7188 219.375 310.7812 Q219.375 316.125 210.375 317.5312 Q203.0625 316.4062 185.625 311.9062 Q183.375 327.9375 169.875 344.5312 Q152.7188 361.9688 139.5 361.9688 Q129.375 361.9688 110.25 329.3438 Q72 280.6875 72 277.5938 Q70.3125 277.5938 68.625 265.7812 Q68.625 233.7188 142.3125 205.5938 Q151.875 202.2188 152.4375 202.2188 L152.4375 201.0938 Q146.25 187.875 146.25 185.9062 Q146.25 178.3125 171.5625 154.4062 Q173.8125 151.0312 173.8125 148.2188 L173.8125 147.6562 Q173.8125 141.1875 156.9375 136.4062 L156.9375 135.2812 Q158.625 130.7812 160.3125 130.7812 ZM168.75 210.6562 L168.75 211.2188 Q182.8125 246.375 182.8125 253.4062 L183.9375 253.4062 Q201.375 230.625 201.375 216.8438 Q201.375 208.9688 189.5625 208.9688 L185.0625 208.9688 Q175.2188 208.9688 168.75 210.6562 ZM79.875 264.6562 L79.875 268.0312 Q79.875 281.8125 101.25 302.3438 Q112.5 316.4062 137.25 341.7188 Q139.2188 343.4062 141.1875 343.4062 L143.4375 343.4062 Q151.875 343.4062 164.8125 323.1562 Q170.4375 310.5 170.4375 303.4688 L170.4375 301.7812 Q162 293.0625 162 287.1562 Q162 282.9375 169.3125 270.8438 L169.3125 270.2812 Q169.3125 249.4688 158.0625 214.0312 L156.9375 214.0312 Q117.5625 222.75 87.75 248.9062 Q79.875 259.3125 79.875 264.6562 Z" stroke="none" />
    </g>
  </g>
</svg>
