<?xml version="1.0"?>

<!DOCTYPE svg PUBLIC '-//W3C//DTD SVG 1.0//EN' 'http://www.w3.org/TR/2001/REC-SVG-20010904/DTD/svg10.dtd'>
<svg fill-opacity="1" xmlns:xlink="http://www.w3.org/1999/xlink" color-rendering="auto" color-interpolation="auto" text-rendering="auto" stroke="black" stroke-linecap="square" stroke-miterlimit="10" shape-rendering="auto" stroke-opacity="1" fill="black" stroke-dasharray="none" font-weight="normal" stroke-width="1" xmlns="http://www.w3.org/2000/svg" font-family="&apos;Dialog&apos;" font-style="normal" stroke-linejoin="miter" font-size="12" stroke-dashoffset="0" image-rendering="auto">
  <!--Unicode Character 'HENTAIGANA LETTER KO-2' (U+1B039)-->
  <defs id="genericDefs" />
  <g>
    <g>
      <path d="M84.6562 135.2812 Q113.3438 140.0625 113.3438 149.9062 L102.0938 183.6562 L102.6562 183.6562 Q109.6875 183.6562 130.7812 168.4688 L136.4062 167.9062 Q146.5312 168.75 146.5312 174.6562 Q146.5312 183.6562 97.0312 199.4062 Q84.6562 239.9062 77.3438 272.5312 L79.0312 272.5312 Q107.4375 234.2812 126.2812 234.2812 Q133.3125 234.2812 140.9062 241.0312 L142.0312 241.0312 Q171.2812 218.25 187.0312 216.8438 Q198.5625 216.8438 202.7812 225.8438 Q205.0312 232.875 205.0312 233.7188 L198.2812 274.2188 L198.8438 274.2188 Q210.375 271.4062 219.6562 271.4062 Q245.5312 274.5 245.5312 297.2812 Q245.5312 336.0938 169.0312 357.4688 L167.9062 357.4688 Q165.0938 353.8125 165.0938 351.2812 Q211.7812 336.9375 224.7188 314.7188 Q228.0938 306.8438 228.0938 297.8438 Q228.0938 279.2812 217.9688 279.2812 L215.1562 279.2812 Q210.0938 279.2812 197.1562 288.2812 Q196.5938 288.2812 195.4688 288.8438 Q185.9062 286.875 185.9062 280.4062 Q187.5938 258.75 187.5938 248.3438 L187.5938 238.2188 Q187.0312 228.0938 183.6562 228.0938 L179.1562 228.0938 Q170.7188 228.0938 146.5312 248.3438 Q146.5312 249.4688 145.9688 249.4688 Q154.9688 265.7812 154.9688 284.3438 Q154.9688 319.7812 120.6562 344.5312 Q112.2188 349.5938 103.2188 349.5938 L102.6562 349.5938 Q90 349.5938 84.6562 336.6562 Q82.4062 330.1875 82.4062 323.1562 Q82.4062 297.5625 121.7812 258.4688 Q129.6562 252 129.6562 251.7188 L129.6562 250.5938 Q126.2812 246.0938 121.2188 246.0938 L120.0938 246.0938 Q104.0625 246.0938 73.4062 293.3438 Q63 337.2188 57.0938 345.0938 Q55.6875 346.2188 52.5938 347.3438 Q46.9688 347.3438 42.4688 331.5938 Q42.4688 328.7812 57.6562 296.7188 Q83.5312 216.8438 83.5312 201.6562 Q82.9688 201.6562 82.9688 201.0938 Q82.4062 201.0938 82.4062 201.6562 Q53.7188 201.6562 46.4062 186.4688 Q48.0938 183.9375 48.0938 183.0938 L49.7812 183.0938 Q57.6562 189.8438 70.5938 189.8438 Q88.5938 189.8438 88.5938 185.3438 Q94.7812 160.0312 94.7812 156.0938 L94.7812 154.9688 Q94.7812 146.25 81.2812 141.4688 L81.2812 140.3438 Q82.6875 136.6875 84.6562 135.2812 ZM97.5938 321.4688 L97.5938 327.6562 Q97.5938 340.0312 106.0312 340.0312 Q120.9375 340.0312 134.7188 311.9062 Q139.7812 297.5625 139.7812 286.0312 Q139.7812 268.3125 134.1562 257.9062 Q116.1562 275.0625 106.5938 292.2188 Q97.5938 309.9375 97.5938 321.4688 Z" stroke="none" />
    </g>
  </g>
</svg>
