<?xml version="1.0" encoding="UTF-8" standalone="no"?>
<svg
   xmlns:dc="http://purl.org/dc/elements/1.1/"
   xmlns:cc="http://creativecommons.org/ns#"
   xmlns:rdf="http://www.w3.org/1999/02/22-rdf-syntax-ns#"
   xmlns:svg="http://www.w3.org/2000/svg"
   xmlns="http://www.w3.org/2000/svg"
   xmlns:sodipodi="http://sodipodi.sourceforge.net/DTD/sodipodi-0.dtd"
   xmlns:inkscape="http://www.inkscape.org/namespaces/inkscape"
   fill-opacity="1"
   color-rendering="auto"
   color-interpolation="auto"
   text-rendering="auto"
   stroke="black"
   stroke-linecap="square"
   stroke-miterlimit="10"
   shape-rendering="auto"
   stroke-opacity="1"
   fill="black"
   stroke-dasharray="none"
   font-weight="normal"
   stroke-width="1"
   font-family="'Dialog'"
   font-style="normal"
   stroke-linejoin="miter"
   font-size="12"
   stroke-dashoffset="0"
   image-rendering="auto"
   version="1.1"
   id="svg9"
   sodipodi:docname="hentaigana_letter_hi1.svg"
   inkscape:version="0.92.4 (5da689c313, 2019-01-14)"
   width="100%"
   height="100%"
   viewBox="0 0 100 100"
   preserveAspectRatio="xMidYMid meet"
   >
  <metadata
     id="metadata13">
    <rdf:RDF>
      <cc:Work
         rdf:about="">
        <dc:format>image/svg+xml</dc:format>
        <dc:type
           rdf:resource="http://purl.org/dc/dcmitype/StillImage" />
      </cc:Work>
    </rdf:RDF>
  </metadata>
  <sodipodi:namedview
     pagecolor="#ffffff"
     bordercolor="#666666"
     borderopacity="1"
     objecttolerance="10"
     gridtolerance="10"
     guidetolerance="10"
     inkscape:pageopacity="0"
     inkscape:pageshadow="2"
     inkscape:window-width="1920"
     inkscape:window-height="986"
     id="namedview11"
     showgrid="false"
     inkscape:zoom="2.36"
     inkscape:cx="50"
     inkscape:cy="50"
     inkscape:window-x="-11"
     inkscape:window-y="-11"
     inkscape:window-maximized="1"
     inkscape:current-layer="svg9">
    <inkscape:grid
       type="xygrid"
       id="grid15" />
  </sodipodi:namedview>
  <!--Unicode Character 'HENTAIGANA LETTER HI-1' (U+1B0A9)-->
  <defs
     id="genericDefs" />
  <g
     id="g7"
     transform="matrix(0.50819027,0,0,0.45232796,-23.035622,-61.336627)">
    <g
       id="g5">
      <path
         d="m 120.0938,137.25 q 5.625,2.25 5.625,3.9375 -9,36 -9,62.4375 h 0.5624 q 19.4063,-9 28.6876,-9 h 0.5624 q 15.1876,0 27.5626,20.25 25.0312,-17.4375 42.1874,-17.4375 14.0626,0 24.75,20.25 1.125,4.7813 1.125,5.625 0,9.5625 -29.25,28.125 -63.5624,46.125 -108,84.9375 v 0.5625 h 0.5626 q 33.1874,-7.3125 51.1874,-7.3125 68.0626,0 68.0626,18.5625 -1.9688,4.5 -6.75,4.5 -35.7188,-9 -63.5626,-9 h -1.125 q -34.0312,0 -64.6874,11.8125 h -2.25 q -4.5,0 -7.3126,-9 0.5626,-5.9062 36,-31.5 47.25,-35.4375 104.625,-85.5 4.5,-5.3438 4.5,-9.5625 v -3.375 q -2.25,-11.25 -8.4374,-11.25 h -3.9376 q -10.4062,0 -27,19.6875 -4.5,10.125 -10.6874,10.125 -7.3126,0 -14.0626,-20.8125 -6.75,-12.375 -14.625,-12.375 -10.9687,0 -29.8124,14.0625 v 0.5625 q 0,21.9375 2.25,68.0625 -2.25,13.5 -9.5626,13.5 -4.5,0 -12.9374,-21.9375 -4.2188,-8.4375 -17.4376,-22.5 h -1.125 q -4.5,5.9063 -10.125,21.375 Q 63,278.4375 60.4688,279 47.8125,279 45.8438,241.875 v -0.5625 q 0,-25.3125 12.9374,-47.8125 5.0626,1.9688 5.0626,3.9375 -5.0626,21.6563 -5.0626,37.125 l 1.125,16.875 h 1.125 q 25.875,-30.375 43.3126,-39.9375 5.0624,-45.2812 9.5624,-56.8125 3.6563,-17.4375 6.1876,-17.4375 z m -38.8126,109.6875 21.375,22.5 h 1.125 q -0.5624,-14.3437 -0.5624,-20.8125 v -6.1875 q 0,-5.625 0.5624,-16.875 h -1.125 q -14.3437,11.8125 -21.375,21.375 z"
         id="path3"
         inkscape:connector-curvature="0"
         style="stroke:none" />
    </g>
  </g>
</svg>
