<?xml version="1.0" encoding="UTF-8" standalone="no"?>
<svg
   xmlns:dc="http://purl.org/dc/elements/1.1/"
   xmlns:cc="http://creativecommons.org/ns#"
   xmlns:rdf="http://www.w3.org/1999/02/22-rdf-syntax-ns#"
   xmlns:svg="http://www.w3.org/2000/svg"
   xmlns="http://www.w3.org/2000/svg"
   xmlns:sodipodi="http://sodipodi.sourceforge.net/DTD/sodipodi-0.dtd"
   xmlns:inkscape="http://www.inkscape.org/namespaces/inkscape"
   fill-opacity="1"
   color-rendering="auto"
   color-interpolation="auto"
   text-rendering="auto"
   stroke="black"
   stroke-linecap="square"
   stroke-miterlimit="10"
   shape-rendering="auto"
   stroke-opacity="1"
   fill="black"
   stroke-dasharray="none"
   font-weight="normal"
   stroke-width="1"
   font-family="'Dialog'"
   font-style="normal"
   stroke-linejoin="miter"
   font-size="12"
   stroke-dashoffset="0"
   image-rendering="auto"
   version="1.1"
   id="svg9"
   sodipodi:docname="hentaigana_letter_si1.svg"
   inkscape:version="0.92.4 (5da689c313, 2019-01-14)">
  <metadata
     id="metadata13">
    <rdf:RDF>
      <cc:Work
         rdf:about="">
        <dc:format>image/svg+xml</dc:format>
        <dc:type
           rdf:resource="http://purl.org/dc/dcmitype/StillImage" />
      </cc:Work>
    </rdf:RDF>
  </metadata>
  <sodipodi:namedview
     pagecolor="#ffffff"
     bordercolor="#666666"
     borderopacity="1"
     objecttolerance="10"
     gridtolerance="10"
     guidetolerance="10"
     inkscape:pageopacity="0"
     inkscape:pageshadow="2"
     inkscape:window-width="1920"
     inkscape:window-height="986"
     id="namedview11"
     showgrid="false"
     inkscape:zoom="2.36"
     inkscape:cx="50"
     inkscape:cy="50"
     inkscape:window-x="-11"
     inkscape:window-y="-11"
     inkscape:window-maximized="1"
     inkscape:current-layer="svg9" />
  <!--Unicode Character 'HENTAIGANA LETTER SI-1' (U+1B044)-->
  <defs
     id="genericDefs" />
  <g
     id="g7"
     transform="matrix(0.49618839,0,0,0.44024605,-21.095196,-58.48892)">
    <g
       id="g5">
      <path
         d="m 103.7812,134.7188 h 0.5626 q 14.0624,15.75 23.625,15.75 1.6874,1.4062 27,2.25 9,3.6562 9,10.6874 0,8.4376 -24.75,8.4376 -15.1876,0 -33.75,20.25 -4.5,8.1562 -4.5,11.8124 v 2.25 q 0,2.25 7.875,2.8126 13.7812,0 52.3124,-6.75 h 0.5626 q 10.125,0 16.3124,19.6874 0,7.0313 -30.375,20.8126 -51.75,28.4062 -77.625,46.6874 -0.5624,0.8438 -0.5624,2.25 0,1.9688 29.25,3.9376 41.3437,7.3124 73.6874,17.4374 59.0626,20.5313 59.0626,37.6876 0,7.0312 -7.875,7.3124 -1.9688,0 -20.25,-13.5 -29.8126,-17.1562 -77.625,-31.5 -37.9688,-8.4374 -56.8126,-8.4374 h -5.0624 q -7.3126,0 -7.3126,-11.25 0,-8.4376 25.875,-22.5 50.3438,-31.5 75.375,-52.3126 v -1.6874 q 0,-0.8438 -1.6874,-1.6876 h -1.125 q -10.125,0 -56.25,12.9376 -6.75,0 -9.5626,-11.25 0,-29.5313 37.125,-52.3126 h 1.125 v -0.5624 l -13.5,-6.75 q -11.25,-8.4376 -14.0624,-19.125 0,-0.8438 3.9374,-3.375 z"
         id="path3"
         inkscape:connector-curvature="0"
         style="stroke:none" />
    </g>
  </g>
</svg>
