<?xml version="1.0"?>

<!DOCTYPE svg PUBLIC '-//W3C//DTD SVG 1.0//EN' 'http://www.w3.org/TR/2001/REC-SVG-20010904/DTD/svg10.dtd'>
<svg fill-opacity="1" xmlns:xlink="http://www.w3.org/1999/xlink" color-rendering="auto" color-interpolation="auto" text-rendering="auto" stroke="black" stroke-linecap="square" stroke-miterlimit="10" shape-rendering="auto" stroke-opacity="1" fill="black" stroke-dasharray="none" font-weight="normal" stroke-width="1" xmlns="http://www.w3.org/2000/svg" font-family="&apos;Dialog&apos;" font-style="normal" stroke-linejoin="miter" font-size="12" stroke-dashoffset="0" image-rendering="auto">
  <!--Unicode Character 'HENTAIGANA LETTER HA-10' (U+1B0A7)-->
  <defs id="genericDefs" />
  <g>
    <g>
      <path d="M170.1562 126.5625 Q179.1562 127.9688 179.1562 133.3125 Q179.1562 144.8438 127.4062 174.375 Q126.8438 176.0625 124.0312 176.0625 Q124.0312 175.7812 120.6562 172.6875 Q139.5 160.875 159.4688 139.5 L159.4688 138.375 Q159.4688 137.25 158.3438 137.25 L153.2812 137.25 Q152.7188 137.25 147.0938 138.375 Q145.4062 137.8125 145.4062 135 Q145.4062 131.0625 170.1562 126.5625 ZM98.1562 133.875 Q102.6562 134.7188 102.6562 136.6875 Q99.8438 144 99.8438 147.9375 L99.8438 150.75 Q99.8438 154.125 103.2188 154.125 L103.7812 154.125 Q111.0938 152.7188 131.3438 140.0625 Q133.0312 143.1562 133.0312 145.125 Q103.5 170.4375 97.0312 170.4375 L95.9062 170.4375 Q89.7188 166.2188 89.7188 157.5 L89.7188 156.9375 Q89.7188 144.2812 98.1562 133.875 ZM163.4062 167.625 Q170.4375 167.625 177.4688 173.8125 L177.4688 174.375 Q177.4688 181.6875 145.9688 194.625 Q99.2812 229.7812 79.0312 248.625 Q79.5938 248.625 79.5938 249.1875 Q86.0625 249.1875 151.0312 219.375 L152.1562 217.6875 Q150.4688 210.375 150.4688 208.125 Q150.4688 203.0625 157.7812 203.0625 Q170.7188 204.1875 170.7188 211.5 Q170.7188 212.0625 166.7812 219.375 Q173.25 232.5938 175.7812 234 L176.3438 234 Q208.9688 214.875 208.9688 204.1875 Q208.9688 200.5312 199.9688 198 L199.9688 197.4375 Q199.9688 192.9375 202.2188 192.9375 Q224.7188 195.4688 224.7188 205.875 Q224.7188 212.3438 207.8438 225.5625 Q214.0312 247.2188 234.2812 273.375 Q234.2812 275.0625 234.8438 275.0625 Q234.8438 284.0625 222.4688 285.75 L220.2188 285.75 Q204.75 285.75 168.4688 248.0625 L167.9062 248.0625 Q127.4062 265.5 98.7188 284.0625 Q95.3438 287.7188 95.3438 291.375 Q95.3438 296.1562 108.8438 297.5625 L117.2812 297.5625 Q126 297.5625 134.7188 295.875 Q134.7188 273.0938 142.0312 269.4375 Q145.4062 267.75 147.6562 267.75 Q158.3438 267.75 173.5312 283.5 Q174.6562 285.4688 174.6562 288 Q174.6562 298.4062 148.2188 306 L147.6562 312.75 Q147.6562 318.0938 148.7812 352.125 Q148.7812 361.6875 137.5312 366.1875 Q136.125 366.1875 121.7812 352.125 Q100.4062 338.0625 94.7812 338.0625 Q65.5312 356.0625 64.4062 356.0625 L61.5938 356.0625 Q53.1562 353.8125 53.1562 343.6875 Q53.1562 332.7188 64.9688 319.5 Q67.7812 321.4688 67.7812 322.875 Q63.8438 330.75 63.8438 336.375 Q64.6875 339.75 67.7812 339.75 L69.4688 339.75 Q71.1562 339.75 110.5312 323.4375 Q110.8125 323.4375 112.7812 322.875 Q114.4688 325.125 114.4688 327.9375 L114.4688 328.5 Q113.3438 328.5 102.6562 333.5625 L102.6562 334.6875 Q131.3438 348.1875 133.0312 348.1875 Q134.1562 346.2188 134.1562 344.8125 L134.1562 308.25 Q133.0312 308.25 133.0312 307.6875 Q128.5312 309.375 117.2812 309.375 L111.6562 309.375 Q91.9688 309.375 85.7812 298.6875 Q85.7812 297.5625 84.6562 294.75 Q84.6562 278.1562 154.9688 245.8125 Q163.9688 241.0312 163.9688 239.625 Q156.9375 225 154.9688 225 Q129.9375 238.5 68.3438 268.3125 Q68.3438 269.1562 62.1562 270.5625 Q58.5 270.5625 57.6562 265.5 L57.6562 262.6875 Q57.6562 253.4062 67.2188 249.1875 Q99 223.5938 121.7812 203.0625 L122.3438 201.9375 L121.2188 201.9375 Q82.125 214.3125 73.9688 214.3125 Q61.5938 212.9062 61.5938 201.9375 Q61.5938 195.1875 67.7812 189 Q71.1562 189.8438 71.1562 190.6875 L70.0312 197.4375 Q71.1562 200.8125 74.5312 200.8125 L75.0938 200.8125 Q127.9688 193.2188 145.4062 180 Q158.625 167.625 163.4062 167.625 ZM180.8438 241.3125 L180.8438 241.875 Q198.2812 262.9688 217.9688 270 L219.0938 270 Q219.0938 268.0312 208.4062 245.25 Q202.5 229.5 201.6562 229.5 Q199.9688 229.5 180.8438 241.3125 ZM148.2188 292.5 L148.2188 293.0625 L148.7812 293.0625 Q162.2812 289.9688 162.2812 286.3125 L162.2812 282.375 Q162.2812 279.2812 153.2812 275.625 Q148.2188 275.625 148.2188 292.5 ZM168.4688 313.875 Q195.1875 313.875 223.0312 330.1875 Q228.9375 336.6562 229.2188 342.5625 Q227.8125 348.1875 223.0312 348.1875 Q218.25 348.1875 200.5312 332.4375 Q184.2188 323.1562 167.3438 318.9375 L167.3438 315.5625 Q168.4688 314.1562 168.4688 313.875 Z" stroke="none" />
    </g>
  </g>
</svg>
