<?xml version="1.0"?>

<!DOCTYPE svg PUBLIC '-//W3C//DTD SVG 1.0//EN' 'http://www.w3.org/TR/2001/REC-SVG-20010904/DTD/svg10.dtd'>
<svg fill-opacity="1" xmlns:xlink="http://www.w3.org/1999/xlink" color-rendering="auto" color-interpolation="auto" text-rendering="auto" stroke="black" stroke-linecap="square" stroke-miterlimit="10" shape-rendering="auto" stroke-opacity="1" fill="black" stroke-dasharray="none" font-weight="normal" stroke-width="1" xmlns="http://www.w3.org/2000/svg" font-family="&apos;Dialog&apos;" font-style="normal" stroke-linejoin="miter" font-size="12" stroke-dashoffset="0" image-rendering="auto">
  <!--Unicode Character 'HENTAIGANA LETTER E-4' (U+1B011)-->
  <defs id="genericDefs" />
  <g>
    <g>
      <path d="M118.6875 136.125 Q127.125 142.3125 133.875 142.875 L137.25 142.875 Q148.2188 142.875 153.5625 141.75 Q167.625 144.2812 167.625 151.875 Q167.625 158.625 147.9375 160.875 L118.6875 172.6875 Q114.1875 169.5938 114.1875 168.75 L114.1875 168.1875 Q127.125 162.8438 135.5625 155.8125 L135.5625 155.25 Q124.875 155.25 115.875 141.75 Q115.3125 140.625 115.3125 139.5 L115.3125 138.9375 Q117 136.125 118.6875 136.125 ZM166.5 181.6875 Q173.5312 181.6875 179.4375 194.625 L179.4375 195.75 Q179.4375 199.4062 164.8125 208.125 Q107.7188 259.5938 92.25 275.625 Q92.8125 275.625 92.8125 276.1875 Q95.9062 275.0625 102.375 274.5 Q118.9688 274.5 123.75 306.5625 Q124.5938 306.5625 128.25 329.0625 L129.9375 329.0625 Q180.2812 278.4375 200.8125 278.4375 Q216.8438 278.4375 231.75 299.8125 Q235.6875 306.2812 237.375 317.25 Q237.375 333.8438 205.875 336.375 Q198.2812 336.9375 195.1875 336.9375 Q192.9375 332.7188 192.9375 331.3125 Q218.8125 327.0938 218.8125 318.375 L218.8125 317.8125 Q218.8125 298.125 201.9375 287.4375 L198.5625 286.875 Q179.7188 286.875 136.125 343.125 Q133.0312 356.625 126.5625 356.625 Q112.5 356.625 112.5 326.25 Q107.7188 284.625 100.6875 284.625 L99 284.625 Q89.7188 284.625 68.0625 308.25 Q62.7188 314.7188 57.9375 316.6875 Q50.625 313.3125 50.625 303.75 L50.625 302.625 Q50.625 295.0312 69.75 283.5 Q115.875 241.0312 152.4375 200.25 L152.4375 199.125 L151.875 199.125 Q137.25 203.0625 106.3125 215.4375 Q103.2188 216 101.25 216 Q89.7188 216 83.25 192.9375 Q85.5 189 88.875 189 Q93.6562 200.25 106.3125 200.25 Q121.7812 200.25 166.5 181.6875 Z" stroke="none" />
    </g>
  </g>
</svg>
