<?xml version="1.0"?>

<!DOCTYPE svg PUBLIC '-//W3C//DTD SVG 1.0//EN' 'http://www.w3.org/TR/2001/REC-SVG-20010904/DTD/svg10.dtd'>
<svg fill-opacity="1" xmlns:xlink="http://www.w3.org/1999/xlink" color-rendering="auto" color-interpolation="auto" text-rendering="auto" stroke="black" stroke-linecap="square" stroke-miterlimit="10" shape-rendering="auto" stroke-opacity="1" fill="black" stroke-dasharray="none" font-weight="normal" stroke-width="1" xmlns="http://www.w3.org/2000/svg" font-family="&apos;Dialog&apos;" font-style="normal" stroke-linejoin="miter" font-size="12" stroke-dashoffset="0" image-rendering="auto">
  <!--Unicode Character 'HENTAIGANA LETTER WA-2' (U+1B109)-->
  <defs id="genericDefs" />
  <g>
    <g>
      <path d="M118.4062 137.8125 Q148.7812 142.5938 148.7812 155.8125 Q148.7812 162.2812 113.9062 176.0625 Q99.2812 184.2188 99.2812 191.25 L99.2812 192.375 Q99.2812 196.5938 101.5312 201.9375 L107.1562 201.375 Q116.7188 203.3438 116.7188 210.9375 Q115.0312 217.9688 109.9688 228.375 Q115.0312 251.1562 115.0312 257.0625 L115.5938 257.0625 Q117 257.0625 138.0938 244.6875 Q160.0312 232.875 168.4688 232.875 Q177.4688 232.875 187.5938 249.1875 L188.7188 249.1875 Q190.4062 249.1875 204.4688 238.5 Q215.4375 231.4688 226.9688 230.625 Q248.0625 230.625 251.7188 252 Q252.2812 254.25 252.2812 256.5 Q252.2812 289.6875 195.4688 326.8125 Q194.625 326.8125 190.4062 321.75 Q234.2812 285.4688 234.2812 257.625 L234.2812 254.25 Q234.2812 240.75 224.7188 240.75 Q208.9688 240.75 189.2812 270 Q187.0312 271.6875 184.2188 271.6875 Q176.9062 271.6875 169.0312 245.8125 Q166.7812 243.5625 163.4062 243.5625 L161.1562 243.5625 Q149.625 244.6875 116.7188 267.75 L116.7188 268.3125 Q117.8438 286.875 117.8438 296.4375 Q117.8438 344.25 91.9688 354.9375 L91.4062 354.9375 Q86.625 354.9375 76.7812 336.9375 Q70.5938 328.7812 61.0312 312.1875 L59.9062 312.1875 Q47.25 325.6875 43.5938 325.6875 Q37.125 325.6875 35.7188 313.3125 Q35.7188 303.75 53.7188 285.1875 Q84.6562 245.25 97.0312 226.125 Q95.625 217.125 94.2188 217.125 L93.6562 217.125 Q80.4375 219.375 52.5938 250.3125 Q52.5938 252 50.3438 253.125 Q45.8438 249.75 45.8438 248.625 Q59.3438 224.1562 91.4062 205.3125 Q89.1562 197.7188 88.5938 192.9375 Q88.5938 181.6875 122.3438 156.375 Q125.1562 152.4375 125.1562 150.75 Q125.1562 147.375 114.4688 142.875 L114.4688 141.1875 Q116.1562 137.8125 118.4062 137.8125 ZM51.4688 302.0625 L52.0312 302.0625 Q72.2812 286.875 101.5312 266.625 L102.0938 265.5 L102.0938 264.9375 Q102.0938 256.5 99.8438 241.875 L98.7188 241.875 Q57.0938 291.375 51.4688 301.5 L51.4688 302.0625 ZM66.6562 306 Q84.375 332.4375 93.0938 332.4375 Q101.25 332.4375 102.6562 292.5 L102.6562 279 Q102.6562 277.875 101.5312 277.875 L100.9688 277.875 Q83.5312 289.6875 66.6562 305.4375 L66.6562 306 Z" stroke="none" />
    </g>
  </g>
</svg>
