<?xml version="1.0"?>

<!DOCTYPE svg PUBLIC '-//W3C//DTD SVG 1.0//EN' 'http://www.w3.org/TR/2001/REC-SVG-20010904/DTD/svg10.dtd'>
<svg fill-opacity="1" xmlns:xlink="http://www.w3.org/1999/xlink" color-rendering="auto" color-interpolation="auto" text-rendering="auto" stroke="black" stroke-linecap="square" stroke-miterlimit="10" shape-rendering="auto" stroke-opacity="1" fill="black" stroke-dasharray="none" font-weight="normal" stroke-width="1" xmlns="http://www.w3.org/2000/svg" font-family="&apos;Dialog&apos;" font-style="normal" stroke-linejoin="miter" font-size="12" stroke-dashoffset="0" image-rendering="auto">
  <!--Unicode Character 'HENTAIGANA LETTER WI-2' (U+1B10E)-->
  <defs id="genericDefs" />
  <g>
    <g>
      <path d="M190.125 136.9688 Q200.5312 136.9688 216.5625 161.1562 Q243.8438 197.4375 247.5 214.5938 Q245.8125 223.5938 235.125 223.5938 Q226.125 223.5938 205.875 223.0312 Q195.75 223.5938 189.5625 223.5938 Q188.4375 224.1562 187.875 224.1562 Q189 259.875 189 272.5312 Q189 325.6875 172.6875 355.7812 Q167.625 354.9375 167.625 352.9688 Q174.375 326.5312 174.375 289.4062 L174.375 264.6562 Q174.375 251.1562 173.8125 225.2812 Q160.875 225.2812 118.6875 238.7812 L118.6875 239.3438 Q118.6875 298.6875 82.6875 317.5312 Q82.125 317.5312 78.1875 318.0938 Q70.875 318.0938 49.5 290.5312 Q40.5 282.375 40.5 275.3438 Q40.5 259.3125 99 235.4062 Q103.2188 233.7188 104.0625 233.7188 L104.0625 231.4688 Q104.0625 215.4375 101.8125 203.3438 L82.6875 212.9062 Q76.7812 214.5938 70.875 215.7188 Q60.75 215.7188 60.75 207.2812 Q60.75 201.0938 66.9375 195.4688 L67.5 195.4688 Q68.3438 195.4688 70.3125 198.2812 L70.3125 198.8438 Q68.625 200.8125 68.625 202.7812 L68.625 204.4688 Q68.625 205.3125 70.3125 206.1562 L73.6875 206.1562 Q82.4062 206.1562 98.4375 191.5312 Q99 190.4062 99 189.2812 Q97.3125 181.4062 92.25 181.4062 L91.125 181.4062 Q88.0312 181.4062 79.875 185.9062 L76.5 181.9688 Q85.2188 172.9688 94.5 172.9688 Q103.2188 172.9688 109.6875 180.8438 Q114.1875 180.8438 129.375 160.5938 Q130.5 156.9375 130.5 155.5312 Q130.5 152.1562 120.375 149.9062 L120.375 149.3438 Q121.2188 147.0938 124.3125 144.2812 Q149.0625 146.5312 149.0625 154.9688 L149.0625 155.5312 Q149.0625 165.0938 115.3125 193.2188 L114.75 194.3438 Q117.5625 206.7188 118.6875 228.0938 Q162.5625 216.8438 173.25 216.8438 Q172.125 184.2188 172.125 170.1562 L172.125 160.5938 Q172.125 142.875 187.3125 138.0938 Q187.3125 137.5312 190.125 136.9688 ZM186.75 149.9062 L186.75 175.7812 Q186.75 201.6562 187.875 215.1562 Q232.875 212.3438 232.875 210.6562 L233.4375 209.5312 L233.4375 207.8438 Q231.4688 188.1562 195.75 146.5312 Q192.375 144.8438 191.25 144.8438 Q186.75 144.8438 186.75 149.9062 ZM54.5625 279.2812 L54.5625 283.2188 Q61.5938 299.25 77.0625 307.4062 L79.3125 307.4062 Q88.5938 307.4062 100.6875 280.9688 Q104.0625 266.9062 104.0625 251.1562 L104.0625 245.5312 L102.9375 245.5312 Q80.7188 252.8438 57.375 273.6562 Q54.5625 276.75 54.5625 279.2812 Z" stroke="none" />
    </g>
  </g>
</svg>
