<?xml version="1.0"?>

<!DOCTYPE svg PUBLIC '-//W3C//DTD SVG 1.0//EN' 'http://www.w3.org/TR/2001/REC-SVG-20010904/DTD/svg10.dtd'>
<svg fill-opacity="1" xmlns:xlink="http://www.w3.org/1999/xlink" color-rendering="auto" color-interpolation="auto" text-rendering="auto" stroke="black" stroke-linecap="square" stroke-miterlimit="10" shape-rendering="auto" stroke-opacity="1" fill="black" stroke-dasharray="none" font-weight="normal" stroke-width="1" xmlns="http://www.w3.org/2000/svg" font-family="&apos;Dialog&apos;" font-style="normal" stroke-linejoin="miter" font-size="12" stroke-dashoffset="0" image-rendering="auto">
  <!--Unicode Character 'HENTAIGANA LETTER TI-7' (U+1B068)-->
  <defs id="genericDefs" />
  <g>
    <g>
      <path d="M170.1562 140.0625 Q185.3438 143.1562 185.3438 150.1875 Q185.3438 154.6875 165.6562 162.5625 Q147.375 172.125 107.7188 211.5 Q103.7812 216.2812 103.7812 218.8125 L103.7812 221.0625 Q104.625 223.3125 107.7188 223.3125 L108.2812 223.3125 Q122.9062 223.3125 154.4062 211.5 Q157.5 177.1875 170.1562 177.1875 Q174.0938 177.1875 197.7188 196.3125 Q198.8438 198.2812 198.8438 199.6875 L198.8438 200.25 Q198.8438 207.5625 167.3438 218.8125 L167.3438 233.4375 L170.1562 233.4375 Q183.0938 233.4375 183.0938 239.625 Q183.0938 245.5312 167.9062 257.625 L167.9062 274.5 L170.7188 274.5 Q180.2812 274.5 196.5938 272.8125 Q206.7188 275.0625 206.7188 280.6875 Q206.7188 288 180.2812 288 L168.4688 288 L168.4688 311.625 Q168.4688 324.5625 158.3438 326.8125 L157.7812 326.8125 Q151.3125 326.8125 137.5312 307.6875 Q111.6562 282.6562 111.6562 279 Q114.1875 262.9688 154.4062 238.5 L154.4062 224.4375 Q127.125 233.4375 107.7188 236.8125 Q95.9062 236.8125 90.8438 225 L90.8438 224.4375 Q90.8438 210.0938 150.4688 159.75 L151.0312 159.75 L151.0312 158.0625 Q140.3438 159.75 135.2812 159.75 L130.7812 159.75 Q118.6875 159.75 101.5312 153.5625 L101.5312 153 Q101.5312 150.4688 103.7812 147.375 Q115.0312 149.0625 122.9062 149.0625 Q145.125 149.0625 170.1562 140.0625 ZM168.4688 205.3125 L168.4688 205.875 L169.0312 205.875 Q183.6562 201.0938 183.6562 196.875 L183.6562 195.75 Q178.5938 188.4375 174.0938 188.4375 L172.4062 188.4375 Q168.4688 189.5625 168.4688 205.3125 ZM123.4688 279 L123.4688 281.25 Q123.4688 285.4688 141.4688 298.125 Q151.3125 307.6875 153.8438 307.6875 L154.4062 306.5625 L154.4062 285.75 Q144.2812 282.6562 144.2812 276.1875 Q144.2812 272.8125 154.4062 259.875 L154.4062 252 Q131.9062 262.125 124.0312 276.1875 Q123.4688 277.0312 123.4688 279 ZM76.2188 288.5625 L77.3438 288.5625 Q79.0312 292.5 79.0312 293.0625 Q61.5938 304.3125 61.5938 313.875 L61.5938 317.8125 Q61.5938 330.75 113.3438 336.375 Q126.8438 337.5 143.7188 337.5 L163.4062 337.5 Q190.9688 337.5 226.4062 329.625 L226.9688 329.625 Q240.4688 332.1562 240.4688 340.3125 Q240.4688 349.3125 181.9688 351.5625 Q181.9688 352.125 165.0938 352.125 Q162 352.125 161.1562 352.6875 Q158.0625 352.125 156.0938 352.125 L149.9062 352.125 Q63 352.125 48.6562 326.25 Q47.5312 321.1875 47.5312 318.9375 Q47.5312 300.0938 76.2188 288.5625 Z" stroke="none" />
    </g>
  </g>
</svg>
