<?xml version="1.0"?>

<!DOCTYPE svg PUBLIC '-//W3C//DTD SVG 1.0//EN' 'http://www.w3.org/TR/2001/REC-SVG-20010904/DTD/svg10.dtd'>
<svg fill-opacity="1" xmlns:xlink="http://www.w3.org/1999/xlink" color-rendering="auto" color-interpolation="auto" text-rendering="auto" stroke="black" stroke-linecap="square" stroke-miterlimit="10" shape-rendering="auto" stroke-opacity="1" fill="black" stroke-dasharray="none" font-weight="normal" stroke-width="1" xmlns="http://www.w3.org/2000/svg" font-family="&apos;Dialog&apos;" font-style="normal" stroke-linejoin="miter" font-size="12" stroke-dashoffset="0" image-rendering="auto">
  <!--Unicode Character 'HENTAIGANA LETTER U-5' (U+1B00E)-->
  <defs id="genericDefs" />
  <g>
    <g>
      <path d="M99 134.7188 L99.5625 134.7188 Q118.6875 143.1562 144.5625 143.1562 L145.125 143.1562 Q151.0312 143.1562 166.5 141.4688 Q176.625 141.4688 181.125 152.7188 Q181.125 161.1562 159.1875 161.1562 Q126 168.4688 97.875 179.1562 L95.0625 175.2188 L95.0625 173.5312 Q117 163.9688 144 154.9688 L144 154.4062 Q126.2812 154.4062 104.0625 144.2812 Q97.3125 139.7812 97.3125 138.6562 L97.3125 138.0938 Q99 135.8438 99 134.7188 ZM219.9375 166.2188 Q255.9375 170.4375 255.9375 194.9062 Q255.9375 216.2812 228.9375 225.2812 Q223.3125 226.9688 216.5625 226.9688 Q194.0625 226.9688 178.875 213.4688 Q180 208.4062 181.125 208.4062 Q192.6562 215.1562 203.625 215.1562 L210.375 215.1562 Q230.3438 215.1562 236.8125 199.9688 L236.8125 190.9688 Q236.8125 177.4688 215.4375 175.7812 L211.5 175.7812 Q178.3125 178.875 129.9375 205.0312 Q128.8125 207.8438 128.8125 215.1562 L128.8125 226.9688 Q128.8125 230.0625 156.9375 237.0938 Q161.1562 241.0312 161.4375 245.5312 Q161.4375 252.2812 128.8125 264.0938 Q109.6875 274.7812 109.6875 281.5312 L109.6875 282.0938 Q109.6875 290.8125 149.0625 293.9062 Q156.375 297.8438 156.375 302.9062 Q156.375 310.7812 134.4375 319.2188 Q116.4375 327.9375 116.4375 334.9688 Q116.4375 343.4062 156.375 343.4062 Q167.3438 343.4062 182.25 340.5938 Q186.4688 340.5938 189.5625 346.2188 Q189.5625 356.625 155.25 358.0312 L152.4375 358.0312 Q106.3125 354.9375 106.3125 337.2188 Q106.3125 325.9688 134.4375 309.0938 L136.125 306.8438 Q136.125 304.5938 117 301.7812 Q99.5625 296.1562 99.5625 284.3438 Q99.5625 271.9688 129.9375 253.4062 Q138.9375 250.0312 138.9375 247.7812 Q122.9062 241.5938 118.125 238.7812 Q114.1875 235.4062 114.1875 229.2188 L114.1875 226.9688 Q114.1875 222.1875 114.75 211.7812 L114.1875 211.7812 Q71.1562 233.7188 60.75 233.7188 L54 233.7188 Q32.0625 231.75 32.0625 215.1562 Q32.0625 205.5938 43.3125 195.4688 Q45.5625 196.3125 46.6875 198.2812 Q44.4375 201.9375 44.4375 211.2188 Q45.8438 217.9688 52.875 217.9688 L59.0625 217.9688 Q75.9375 217.9688 116.4375 199.4062 Q122.0625 185.625 132.75 180.2812 Q135.5625 181.125 135.5625 183.0938 Q131.0625 191.25 131.0625 194.3438 L131.625 194.3438 Q192.0938 166.2188 219.9375 166.2188 Z" stroke="none" />
    </g>
  </g>
</svg>
