<?xml version="1.0" encoding="UTF-8" standalone="no"?>
<svg
   xmlns:dc="http://purl.org/dc/elements/1.1/"
   xmlns:cc="http://creativecommons.org/ns#"
   xmlns:rdf="http://www.w3.org/1999/02/22-rdf-syntax-ns#"
   xmlns:svg="http://www.w3.org/2000/svg"
   xmlns="http://www.w3.org/2000/svg"
   xmlns:sodipodi="http://sodipodi.sourceforge.net/DTD/sodipodi-0.dtd"
   xmlns:inkscape="http://www.inkscape.org/namespaces/inkscape"
   fill-opacity="1"
   color-rendering="auto"
   color-interpolation="auto"
   text-rendering="auto"
   stroke="black"
   stroke-linecap="square"
   stroke-miterlimit="10"
   shape-rendering="auto"
   stroke-opacity="1"
   fill="black"
   stroke-dasharray="none"
   font-weight="normal"
   stroke-width="1"
   font-family="'Dialog'"
   font-style="normal"
   stroke-linejoin="miter"
   font-size="12"
   stroke-dashoffset="0"
   image-rendering="auto"
   version="1.1"
   id="svg9"
   sodipodi:docname="hentaigana_letter_mi1.svg"
   inkscape:version="0.92.4 (5da689c313, 2019-01-14)"
   width="100%"
   height="100%"
   viewBox="0 0 100 100"
   preserveAspectRatio="xMidYMid meet"
   >
  <metadata
     id="metadata13">
    <rdf:RDF>
      <cc:Work
         rdf:about="">
        <dc:format>image/svg+xml</dc:format>
        <dc:type
           rdf:resource="http://purl.org/dc/dcmitype/StillImage" />
      </cc:Work>
    </rdf:RDF>
  </metadata>
  <sodipodi:namedview
     pagecolor="#ffffff"
     bordercolor="#666666"
     borderopacity="1"
     objecttolerance="10"
     gridtolerance="10"
     guidetolerance="10"
     inkscape:pageopacity="0"
     inkscape:pageshadow="2"
     inkscape:window-width="1920"
     inkscape:window-height="986"
     id="namedview11"
     showgrid="false"
     inkscape:zoom="2.36"
     inkscape:cx="50"
     inkscape:cy="50"
     inkscape:window-x="-11"
     inkscape:window-y="-11"
     inkscape:window-maximized="1"
     inkscape:current-layer="svg9" />
  <!--Unicode Character 'HENTAIGANA LETTER MI-1' (U+1B0C9)-->
  <defs
     id="genericDefs" />
  <g
     id="g7"
     transform="matrix(0.51500182,0,0,0.47768726,-24.01619,-67.289769)">
    <g
       id="g5">
      <path
         d="M 104.3438,144.5625 Q 124.3125,162 156.0938,162 h 8.4374 q 6.4688,0 14.625,-1.6875 12.9376,2.5313 12.9376,9 0,7.875 -15.75,9 h -3.9376 q -48.9374,0 -72,-27.5625 v -1.125 q 3.0938,-5.0625 3.9376,-5.0625 z m -12.375,58.5 q 7.0312,14.0625 27,21.9375 32.0624,4.2188 32.0624,6.1875 6.75,3.9375 6.75,9 0,9.2813 -21.375,12.9375 -15.4687,5.0625 -27,15.1875 -16.3124,13.5 -16.3124,27 v 5.625 q 0,24.1875 66.375,29.8125 10.9687,0 11.8124,0.5625 1.9688,-0.5625 24.1876,-1.125 10.125,1.9687 10.125,9 0,8.1563 -19.6876,9 -80.4374,0 -99.5624,-33.1875 -3.9376,-8.4375 -3.9376,-17.4375 v -2.25 q 0,-22.7813 33.75,-45.5625 11.8126,-6.1875 14.625,-6.1875 v -2.25 q -17.4374,-2.5313 -29.25,-11.25 -14.625,-14.625 -15.75,-23.0625 3.0938,-3.9375 6.1876,-3.9375 z"
         id="path3"
         inkscape:connector-curvature="0"
         style="stroke:none" />
    </g>
  </g>
</svg>
