<?xml version="1.0"?>

<!DOCTYPE svg PUBLIC '-//W3C//DTD SVG 1.0//EN' 'http://www.w3.org/TR/2001/REC-SVG-20010904/DTD/svg10.dtd'>
<svg fill-opacity="1" xmlns:xlink="http://www.w3.org/1999/xlink" color-rendering="auto" color-interpolation="auto" text-rendering="auto" stroke="black" stroke-linecap="square" stroke-miterlimit="10" shape-rendering="auto" stroke-opacity="1" fill="black" stroke-dasharray="none" font-weight="normal" stroke-width="1" xmlns="http://www.w3.org/2000/svg" font-family="&apos;Dialog&apos;" font-style="normal" stroke-linejoin="miter" font-size="12" stroke-dashoffset="0" image-rendering="auto">
  <!--Unicode Character 'HENTAIGANA LETTER HO-3' (U+1B0BC)-->
  <defs id="genericDefs" />
  <g>
    <g>
      <path d="M79.0312 137.8125 Q95.3438 137.8125 106.0312 146.8125 Q108.8438 151.5938 108.8438 154.125 Q104.3438 184.5 104.3438 197.4375 L104.9062 197.4375 Q121.2188 189 124.5938 189 Q130.5 189 134.1562 194.0625 L134.1562 195.75 Q134.1562 203.0625 103.7812 212.0625 L103.2188 214.875 L103.2188 249.75 L104.3438 249.75 Q132.4688 230.0625 182.5312 183.375 Q200.25 171 212.3438 171 L215.7188 171 Q233.1562 171 240.4688 195.1875 Q241.0312 201.375 241.5938 201.375 Q241.5938 218.8125 233.7188 234.5625 Q222.1875 250.875 205.0312 250.875 Q195.1875 250.875 188.1562 241.3125 L188.1562 239.625 Q190.4062 235.6875 191.5312 235.6875 Q196.0312 241.3125 201.6562 241.3125 L205.0312 241.3125 Q221.3438 241.3125 225.2812 207.5625 L225.2812 203.0625 Q223.3125 182.8125 211.7812 182.8125 L205.0312 182.8125 Q189.2812 182.8125 148.2188 226.125 Q131.9062 240.1875 103.2188 263.8125 Q102.6562 264.6562 102.6562 266.0625 L102.6562 293.0625 Q102.6562 312.1875 104.3438 334.125 Q104.3438 348.1875 93.0938 354.375 Q92.5312 354.375 91.4062 354.9375 Q84.6562 354.9375 82.9688 338.0625 Q81 331.0312 62.1562 309.375 L62.1562 308.8125 L64.9688 306.5625 L65.5312 306.5625 L88.0312 327.375 L89.1562 327.375 L90.2812 274.5 L89.1562 274.5 Q61.875 295.3125 54.2812 295.3125 L53.7188 295.3125 Q45.5625 295.3125 37.4062 277.875 L41.3438 273.9375 L41.9062 273.9375 Q46.125 279.5625 50.9062 279.5625 L52.0312 279.5625 Q64.125 277.875 90.8438 258.75 Q91.4062 236.25 91.4062 225 L91.4062 215.4375 Q90.2812 215.4375 90.2812 214.875 Q82.4062 217.125 72.2812 217.125 L70.0312 217.125 Q50.625 217.125 41.9062 200.8125 L41.9062 200.25 Q43.0312 197.7188 44.1562 197.4375 Q53.7188 205.3125 69.4688 205.3125 Q91.9688 204.1875 91.9688 200.8125 Q92.5312 196.0312 92.5312 192.375 L92.5312 168.75 Q92.5312 150.1875 81.2812 145.6875 Q75.6562 144.5625 75.6562 142.3125 Q75.6562 138.375 79.0312 137.8125 ZM174.6562 216.5625 Q182.5312 216.5625 182.5312 227.25 Q171 352.6875 148.7812 352.6875 Q142.5938 352.6875 142.5938 343.125 Q142.5938 335.8125 138.0938 329.0625 Q139.5 325.6875 140.3438 325.6875 Q147.375 331.875 149.3438 331.875 L149.9062 331.875 Q157.7812 313.5938 163.9688 275.0625 Q167.9062 242.4375 167.9062 232.3125 Q167.0625 230.0625 166.2188 230.0625 L165.0938 230.0625 Q161.4375 231.1875 160.0312 231.1875 Q159.4688 230.0625 159.4688 228.9375 L159.4688 227.8125 Q170.1562 216.8438 174.6562 216.5625 ZM188.1562 291.375 L189.8438 291.375 Q211.5 297.2812 239.9062 322.875 Q250.5938 336.375 250.5938 344.8125 Q250.5938 351.5625 241.0312 353.8125 Q235.9688 353.8125 224.7188 330.75 Q202.5 305.7188 191.5312 299.8125 Q186.4688 297 186.4688 296.4375 Q186.4688 295.3125 188.1562 291.375 Z" stroke="none" />
    </g>
  </g>
</svg>
