<?xml version="1.0"?>

<!DOCTYPE svg PUBLIC '-//W3C//DTD SVG 1.0//EN' 'http://www.w3.org/TR/2001/REC-SVG-20010904/DTD/svg10.dtd'>
<svg fill-opacity="1" xmlns:xlink="http://www.w3.org/1999/xlink" color-rendering="auto" color-interpolation="auto" text-rendering="auto" stroke="black" stroke-linecap="square" stroke-miterlimit="10" shape-rendering="auto" stroke-opacity="1" fill="black" stroke-dasharray="none" font-weight="normal" stroke-width="1" xmlns="http://www.w3.org/2000/svg" font-family="&apos;Dialog&apos;" font-style="normal" stroke-linejoin="miter" font-size="12" stroke-dashoffset="0" image-rendering="auto">
  <!--Unicode Character 'HENTAIGANA LETTER SA-5' (U+1B040)-->
  <defs id="genericDefs" />
  <g>
    <g>
      <path d="M174.0938 130.2188 Q185.3438 132.4688 185.3438 140.3438 Q185.3438 149.9062 142.0312 176.9062 Q130.7812 184.5 130.2188 185.9062 L130.2188 186.4688 Q151.0312 179.7188 171.2812 171.8438 L174.6562 171.8438 Q182.5312 171.8438 185.3438 182.5312 Q185.3438 184.7812 168.4688 206.7188 L168.4688 207.8438 Q172.4062 213.1875 172.4062 216.8438 Q172.4062 230.9062 140.3438 239.9062 Q115.5938 255.9375 115.5938 257.3438 L116.7188 257.3438 Q127.9688 253.9688 166.7812 240.4688 Q186.75 235.9688 197.7188 235.9688 Q222.4688 235.9688 232.0312 250.0312 Q233.1562 252.2812 233.1562 256.2188 Q233.1562 270.2812 181.9688 278.7188 Q170.1562 279.8438 161.1562 279.8438 Q157.2188 279.8438 157.2188 274.7812 Q157.2188 273.6562 158.9062 273.6562 Q207 270 211.2188 254.5312 L211.2188 252.8438 Q211.2188 244.9688 194.3438 244.9688 Q164.5312 244.9688 91.9688 278.7188 Q88.875 279.2812 86.9062 279.2812 L84.6562 279.2812 Q70.5938 279.2812 54.8438 266.9062 L54.8438 266.3438 Q57.0938 261.8438 58.7812 261.8438 Q63.8438 264.6562 68.9062 264.6562 L76.7812 264.6562 Q98.4375 264.6562 124.0312 242.1562 L124.0312 241.0312 L113.3438 235.9688 Q109.4062 231.75 109.4062 227.5312 Q109.4062 212.625 144.8438 203.9062 L152.7188 203.3438 Q155.8125 203.9062 157.7812 203.9062 Q163.4062 191.25 163.4062 184.7812 L162.2812 184.2188 L161.1562 184.2188 Q157.2188 184.2188 91.4062 215.7188 Q89.1562 215.7188 89.1562 216.2812 Q86.0625 216.2812 84.6562 211.7812 Q84.6562 195.4688 98.1562 195.4688 Q114.1875 192.6562 138.0938 170.7188 Q162.2812 147.6562 162.2812 143.7188 Q162.2812 142.875 160.5938 142.0312 L159.4688 142.0312 Q154.125 142.0312 145.4062 144.2812 L144.8438 143.1562 L144.8438 140.9062 Q153 134.1562 174.0938 130.2188 ZM90.2812 134.1562 Q94.2188 135 94.2188 135.8438 Q93.0938 144.2812 93.0938 147.6562 Q93.0938 157.2188 99.2812 157.2188 L103.2188 157.2188 Q109.9688 157.2188 125.7188 145.9688 L126.8438 145.9688 L127.4062 149.9062 Q98.4375 174.0938 92.5312 174.0938 Q82.4062 172.6875 82.4062 160.0312 Q82.4062 145.4062 90.2812 134.1562 ZM125.1562 223.5938 L125.1562 227.5312 Q125.1562 230.625 135.8438 232.0312 Q152.1562 221.625 152.1562 214.5938 L152.1562 214.0312 L149.3438 213.4688 Q131.9062 213.4688 125.1562 223.5938 ZM129.0938 287.7188 Q144.8438 287.7188 149.3438 300.0938 Q149.3438 303.4688 136.9688 322.0312 Q132.4688 332.7188 132.4688 338.9062 Q132.4688 346.7812 153.2812 346.7812 L160.5938 346.7812 Q170.7188 346.7812 188.7188 340.5938 Q205.0312 344.25 205.0312 349.5938 Q205.0312 356.9062 190.4062 359.7188 Q178.0312 362.5312 166.7812 362.5312 Q122.9062 362.5312 122.9062 338.9062 Q126.8438 309.375 126.8438 302.3438 Q126.8438 299.8125 123.4688 297.8438 L118.9688 297.8438 Q113.0625 297.8438 98.1562 303.4688 Q97.3125 303.4688 94.7812 298.9688 Q113.0625 287.7188 129.0938 287.7188 Z" stroke="none" />
    </g>
  </g>
</svg>
