<?xml version="1.0"?>

<!DOCTYPE svg PUBLIC '-//W3C//DTD SVG 1.0//EN' 'http://www.w3.org/TR/2001/REC-SVG-20010904/DTD/svg10.dtd'>
<svg fill-opacity="1" xmlns:xlink="http://www.w3.org/1999/xlink" color-rendering="auto" color-interpolation="auto" text-rendering="auto" stroke="black" stroke-linecap="square" stroke-miterlimit="10" shape-rendering="auto" stroke-opacity="1" fill="black" stroke-dasharray="none" font-weight="normal" stroke-width="1" xmlns="http://www.w3.org/2000/svg" font-family="&apos;Dialog&apos;" font-style="normal" stroke-linejoin="miter" font-size="12" stroke-dashoffset="0" image-rendering="auto">
  <!--Unicode Character 'HENTAIGANA LETTER MO-6' (U+1B0DC)-->
  <defs id="genericDefs" />
  <g>
    <g>
      <path d="M145.125 129.9375 L146.25 129.9375 Q147.6562 129.9375 151.3125 131.0625 Q148.5 148.7812 148.5 157.5 Q181.4062 146.8125 186.75 146.8125 L188.4375 146.8125 Q199.6875 146.8125 204.1875 162 Q204.1875 167.0625 168.75 182.25 Q150.1875 192.375 149.625 193.5 L149.625 195.1875 L150.1875 195.1875 Q177.75 187.875 198.5625 187.875 Q226.125 190.6875 226.125 201.375 L226.125 201.9375 Q226.125 210.9375 210.375 212.625 Q173.5312 218.8125 141.75 235.125 Q137.8125 238.2188 137.8125 240.75 Q137.8125 242.7188 170.4375 244.6875 Q173.5312 244.6875 177.1875 251.4375 Q177.1875 259.0312 146.8125 277.875 L122.625 295.875 L122.625 297.5625 Q122.9062 297.5625 129.9375 297 Q141.4688 297 142.875 317.8125 Q143.4375 321.1875 143.4375 331.3125 L143.4375 335.25 L144.5625 335.25 Q176.0625 307.6875 207 307.6875 Q229.2188 307.6875 233.4375 324 L233.4375 326.8125 Q233.4375 347.9062 185.625 358.3125 L185.625 357.75 L182.25 352.6875 L201.375 343.6875 Q214.875 336.6562 214.875 329.625 L214.875 325.125 Q214.875 316.6875 204.1875 316.6875 Q178.0312 316.6875 153.5625 343.6875 Q143.1562 360.8438 140.625 362.25 L137.25 362.8125 Q131.0625 362.8125 128.8125 350.4375 Q130.5 335.8125 130.5 322.3125 L130.5 321.1875 Q130.5 307.6875 124.3125 307.6875 L120.9375 307.6875 Q107.7188 307.6875 65.8125 349.875 Q62.1562 352.6875 57.9375 352.6875 Q55.6875 352.6875 54.5625 347.625 Q54.5625 331.5938 81.5625 317.25 Q111.9375 296.4375 155.8125 258.1875 L155.8125 257.625 Q127.125 255.6562 127.125 245.25 L127.125 244.125 Q127.125 228.6562 196.3125 202.5 Q199.125 200.25 199.125 199.6875 L199.125 198.5625 Q199.125 196.5938 189 196.3125 Q153.8438 196.3125 95.0625 231.75 Q72 250.875 70.875 250.875 Q70.0312 251.4375 68.625 251.4375 Q65.5312 251.4375 64.6875 244.125 Q64.6875 229.2188 87.75 220.5 Q123.4688 200.25 126.5625 197.4375 L126.5625 196.875 Q110.8125 186.75 107.4375 186.75 Q93.375 193.5 90 193.5 Q79.875 193.5 77.625 179.4375 Q77.625 165.0938 87.1875 153.5625 Q91.6875 155.5312 91.6875 156.375 Q90 163.9688 90 168.75 L90 169.875 Q90 172.9688 92.25 173.8125 L95.625 173.8125 Q104.625 173.8125 137.25 162 Q140.0625 143.7188 145.125 129.9375 ZM148.5 178.3125 L149.0625 183.9375 Q168.4688 174.6562 183.375 162 L183.9375 159.1875 Q183.9375 156.6562 180.5625 154.6875 L178.3125 154.6875 Q170.7188 155.5312 148.5 166.5 L148.5 178.3125 ZM115.875 182.8125 Q134.4375 192.375 136.125 192.375 L136.6875 192.375 L136.6875 172.125 Q115.875 180.5625 115.875 182.8125 Z" stroke="none" />
    </g>
  </g>
</svg>
