<?xml version="1.0"?>

<!DOCTYPE svg PUBLIC '-//W3C//DTD SVG 1.0//EN' 'http://www.w3.org/TR/2001/REC-SVG-20010904/DTD/svg10.dtd'>
<svg fill-opacity="1" xmlns:xlink="http://www.w3.org/1999/xlink" color-rendering="auto" color-interpolation="auto" text-rendering="auto" stroke="black" stroke-linecap="square" stroke-miterlimit="10" shape-rendering="auto" stroke-opacity="1" fill="black" stroke-dasharray="none" font-weight="normal" stroke-width="1" xmlns="http://www.w3.org/2000/svg" font-family="&apos;Dialog&apos;" font-style="normal" stroke-linejoin="miter" font-size="12" stroke-dashoffset="0" image-rendering="auto">
  <!--Unicode Character 'HENTAIGANA LETTER KA-7' (U+1B01D)-->
  <defs id="genericDefs" />
  <g>
    <g>
      <path d="M198.8438 138.6562 Q211.2188 142.875 211.2188 149.9062 Q211.2188 154.9688 175.2188 201.6562 L173.5312 204.4688 L174.6562 204.4688 Q205.5938 183.6562 222.4688 183.6562 L226.9688 183.6562 Q252.2812 186.75 252.2812 203.9062 L252.2812 205.5938 Q252.2812 230.625 216.2812 240.4688 Q206.1562 241.5938 206.1562 242.1562 Q202.7812 271.6875 178.5938 309.6562 Q179.1562 309.6562 179.1562 310.2188 Q187.5938 306.8438 194.3438 306.8438 Q218.8125 306.8438 253.4062 336.0938 Q256.7812 342.2812 256.7812 346.7812 Q256.2188 354.0938 251.1562 354.0938 L250.5938 354.0938 Q243.8438 354.0938 230.9062 337.7812 Q207 314.1562 192.6562 314.1562 Q176.3438 314.1562 151.0312 342.2812 Q141.75 352.4062 136.9688 352.4062 L135.8438 352.4062 Q133.0312 351 133.0312 346.7812 Q133.0312 335.8125 147.6562 327.6562 Q167.0625 312.75 174.0938 294.4688 Q189.8438 263.5312 189.8438 237.6562 Q189.8438 234.8438 187.0312 233.1562 L184.2188 233.1562 L181.4062 233.7188 Q180.2812 231.75 180.2812 230.3438 L180.2812 229.2188 Q180.2812 226.4062 196.0312 224.1562 Q202.5 224.1562 207.2812 234.2812 Q222.1875 234.2812 232.5938 218.5312 Q234.8438 213.75 234.8438 206.1562 L234.8438 203.3438 Q234.8438 190.4062 222.4688 190.4062 Q197.1562 190.4062 154.9688 235.4062 Q148.7812 235.4062 148.7812 223.5938 Q148.7812 217.4062 160.0312 208.9688 Q182.8125 178.0312 189.2812 153.8438 Q189.2812 152.7188 188.1562 152.7188 L187.5938 152.7188 Q180.8438 152.7188 167.9062 162.2812 Q167.9062 161.7188 163.9688 158.9062 Q182.8125 138.6562 198.8438 138.6562 ZM105.4688 144.2812 Q121.5 144.2812 139.7812 171.8438 Q142.0312 178.5938 142.0312 181.4062 Q142.0312 194.0625 108.8438 197.1562 Q95.0625 197.1562 84.6562 189.8438 L82.9688 189.8438 Q77.3438 222.4688 77.3438 240.4688 Q77.3438 243 94.7812 244.4062 Q99 246.0938 102.6562 246.0938 Q119.25 230.625 132.4688 214.5938 Q133.3125 214.5938 135.8438 217.9688 L135.8438 219.0938 Q126.2812 233.7188 112.2188 251.7188 Q123.4688 262.9688 123.4688 265.2188 Q128.5312 276.75 128.5312 285.4688 L128.5312 292.7812 Q128.5312 325.6875 100.9688 344.5312 Q98.1562 345.6562 89.7188 347.3438 Q74.25 347.3438 59.3438 319.2188 Q45.8438 337.2188 43.5938 337.2188 L42.4688 337.2188 Q33.4688 337.2188 31.2188 320.9062 Q31.2188 306.5625 38.5312 293.9062 L40.2188 293.9062 L44.1562 295.0312 Q41.9062 303.75 41.9062 309.0938 L41.9062 309.6562 Q41.9062 310.5 43.5938 311.3438 L44.7188 311.3438 Q50.9062 311.3438 81.8438 273.0938 Q93.0938 260.7188 95.9062 256.7812 L95.9062 255.6562 Q95.9062 252.8438 66.6562 251.7188 Q62.1562 249.1875 62.1562 242.1562 Q62.1562 212.625 71.7188 180.2812 Q86.9062 144.2812 105.4688 144.2812 ZM85.7812 180.2812 Q85.7812 183.9375 101.5312 184.7812 L106.5938 184.7812 Q127.4062 184.7812 127.4062 177.4688 L127.4062 174.0938 Q127.4062 163.6875 112.2188 152.7188 Q110.25 151.5938 107.7188 151.5938 Q91.9688 151.5938 85.7812 179.1562 L85.7812 180.2812 ZM66.6562 311.9062 Q73.125 327.0938 84.6562 332.1562 L87.4688 332.1562 Q105.75 332.1562 111.6562 306.8438 Q112.7812 300.6562 112.7812 292.7812 L112.7812 288.2812 Q111.375 262.125 106.5938 260.7188 L105.4688 260.7188 Q66.6562 306.5625 66.6562 311.9062 Z" stroke="none" />
    </g>
  </g>
</svg>
