<?xml version="1.0"?>

<!DOCTYPE svg PUBLIC '-//W3C//DTD SVG 1.0//EN' 'http://www.w3.org/TR/2001/REC-SVG-20010904/DTD/svg10.dtd'>
<svg fill-opacity="1" xmlns:xlink="http://www.w3.org/1999/xlink" color-rendering="auto" color-interpolation="auto" text-rendering="auto" stroke="black" stroke-linecap="square" stroke-miterlimit="10" shape-rendering="auto" stroke-opacity="1" fill="black" stroke-dasharray="none" font-weight="normal" stroke-width="1" xmlns="http://www.w3.org/2000/svg" font-family="&apos;Dialog&apos;" font-style="normal" stroke-linejoin="miter" font-size="12" stroke-dashoffset="0" image-rendering="auto">
  <!--Unicode Character 'HENTAIGANA LETTER SA-7' (U+1B042)-->
  <defs id="genericDefs" />
  <g>
    <g>
      <path d="M199.4062 128.5312 Q209.8125 128.5312 216.2812 145.4062 Q215.1562 147.375 212.9062 148.2188 Q208.6875 143.1562 205.5938 143.1562 L203.3438 143.1562 Q202.5 143.1562 201.6562 145.4062 Q203.9062 196.0312 204.4688 236.5312 L205.0312 236.5312 Q221.0625 230.625 231.4688 223.0312 Q232.5938 221.625 232.5938 221.3438 L232.5938 219.0938 Q227.5312 203.0625 223.5938 187.0312 L223.5938 185.9062 L227.5312 184.7812 Q240.75 220.2188 246.6562 220.2188 Q249.4688 221.9062 250.0312 225.2812 Q250.0312 232.0312 215.7188 244.4062 Q205.0312 249.4688 204.4688 250.5938 Q204.4688 256.5 205.0312 259.0312 Q205.0312 332.1562 187.0312 364.2188 L184.7812 364.2188 Q181.9688 364.2188 181.9688 363.0938 Q189.8438 324 189.8438 279.8438 L189.8438 256.7812 L188.7188 256.7812 Q186.1875 256.7812 153.8438 277.5938 Q143.7188 273.9375 143.7188 267.4688 Q147.6562 240.1875 147.6562 228.6562 Q147.6562 225.5625 145.4062 224.7188 L144.8438 224.7188 Q126.8438 228.9375 99.2812 263.5312 L99.2812 300.0938 Q99.2812 303.1875 100.9688 323.7188 Q99 336.6562 90.8438 336.6562 Q88.3125 336.6562 77.9062 323.1562 Q71.1562 316.9688 62.7188 310.7812 L62.1562 310.7812 Q61.5938 310.7812 50.3438 330.4688 Q47.8125 332.1562 46.4062 332.1562 Q37.9688 327.375 37.9688 322.0312 Q37.9688 318.9375 49.7812 301.7812 L49.7812 301.2188 Q37.9688 289.4062 37.9688 278.7188 L37.9688 277.5938 Q37.9688 261.5625 59.3438 242.1562 Q68.3438 235.9688 74.5312 235.9688 Q79.5938 235.9688 84.6562 240.4688 L85.7812 240.4688 L85.7812 239.3438 Q85.7812 212.625 90.8438 194.9062 L89.7188 194.3438 Q75.9375 200.8125 51.4688 216.8438 Q49.5 217.4062 49.2188 217.4062 Q44.1562 217.4062 39.6562 205.0312 L39.6562 202.7812 Q67.2188 163.125 70.5938 149.3438 L70.5938 144.2812 Q70.5938 143.1562 66.0938 139.2188 Q66.0938 138.375 70.5938 134.7188 Q85.7812 140.3438 85.7812 148.7812 Q81 164.25 57.0938 197.1562 L57.0938 198.2812 Q70.3125 193.7812 100.4062 173.5312 Q102.6562 172.9688 104.3438 172.9688 Q109.125 172.9688 115.0312 181.4062 Q115.0312 183.0938 106.0312 190.9688 Q98.7188 194.625 98.7188 245.5312 L98.7188 247.7812 L99.8438 247.7812 Q136.9688 213.4688 152.1562 213.4688 Q162 213.4688 163.4062 225.2812 L163.4062 225.8438 Q162.2812 237.6562 158.3438 256.7812 L159.4688 256.7812 Q186.1875 245.8125 189.2812 241.5938 Q189.2812 210.375 187.0312 145.4062 L186.4688 143.1562 Q186.4688 133.3125 198.8438 128.5312 L199.4062 128.5312 ZM49.7812 278.7188 L49.7812 283.2188 Q49.7812 291.6562 54.8438 295.0312 Q82.4062 260.7188 82.4062 252.8438 L82.4062 248.9062 Q80.1562 244.4062 75.0938 244.4062 L73.4062 244.4062 Q64.6875 244.4062 52.0312 270.8438 Q49.7812 276.1875 49.7812 278.7188 ZM64.9688 303.4688 Q79.875 314.4375 86.3438 314.7188 L86.9062 314.7188 Q86.3438 284.3438 85.7812 276.4688 L84.6562 276.4688 Q70.5938 292.2188 64.9688 303.4688 Z" stroke="none" />
    </g>
  </g>
</svg>
