<?xml version="1.0"?>

<!DOCTYPE svg PUBLIC '-//W3C//DTD SVG 1.0//EN' 'http://www.w3.org/TR/2001/REC-SVG-20010904/DTD/svg10.dtd'>
<svg fill-opacity="1" xmlns:xlink="http://www.w3.org/1999/xlink" color-rendering="auto" color-interpolation="auto" text-rendering="auto" stroke="black" stroke-linecap="square" stroke-miterlimit="10" shape-rendering="auto" stroke-opacity="1" fill="black" stroke-dasharray="none" font-weight="normal" stroke-width="1" xmlns="http://www.w3.org/2000/svg" font-family="&apos;Dialog&apos;" font-style="normal" stroke-linejoin="miter" font-size="12" stroke-dashoffset="0" image-rendering="auto">
  <!--Unicode Character 'HENTAIGANA LETTER ME-2' (U+1B0D5)-->
  <defs id="genericDefs" />
  <g>
    <g>
      <path d="M151.875 143.4375 Q166.5 146.5312 166.5 153 Q166.5 158.3438 145.6875 165.375 Q132.1875 171.5625 99.5625 213.75 Q72.2812 249.4688 62.4375 267.75 L63.5625 267.75 Q91.4062 238.7812 106.3125 227.25 Q162.2812 187.3125 201.375 187.3125 Q231.75 187.3125 243.5625 214.875 Q245.25 223.0312 245.25 226.6875 Q245.25 262.9688 225 311.0625 Q208.6875 339.75 191.25 339.75 Q175.5 339.75 155.8125 307.6875 L155.25 307.6875 Q150.1875 317.8125 142.3125 325.6875 Q131.0625 334.125 131.0625 334.6875 L131.0625 335.25 L132.75 335.25 Q140.9062 335.25 154.125 333 Q162 335.5312 162 340.3125 L162 341.4375 Q157.2188 349.3125 131.625 349.3125 Q105.75 349.3125 105.75 342 L105.75 341.4375 Q105.75 336.0938 118.6875 334.125 Q138.6562 322.3125 142.3125 311.0625 L141.75 311.0625 Q133.5938 312.75 128.8125 312.75 Q118.125 312.75 118.125 303.1875 Q131.0625 255.375 143.4375 255.375 Q153.2812 255.375 157.5 281.8125 Q158.0625 286.875 159.1875 286.875 Q166.5 272.5312 166.5 248.0625 Q166.5 227.8125 155.8125 227.8125 L153 227.8125 Q148.5 227.8125 142.3125 232.875 Q140.9062 232.875 139.5 227.25 Q149.9062 217.6875 158.625 217.6875 Q181.6875 221.9062 181.6875 249.75 L181.6875 253.125 Q181.6875 280.4062 159.75 302.0625 Q177.1875 324 189.5625 324 L190.125 324 Q209.8125 324 225 257.0625 Q228.375 239.3438 228.375 225 Q228.375 201.0938 201.9375 196.3125 L201.375 196.3125 Q161.7188 196.3125 120.9375 228.9375 Q115.0312 237.375 110.25 256.5 Q108 268.875 108 276.75 L108 281.8125 Q108 291.0938 109.125 297.5625 Q106.3125 319.7812 98.4375 321.1875 L98.4375 321.75 Q93.9375 321.75 92.8125 309.9375 L92.8125 305.4375 Q92.8125 280.125 105.75 242.4375 L105.1875 242.4375 Q78.1875 265.7812 66.9375 282.9375 Q59.3438 296.4375 53.4375 297.5625 L51.75 297.5625 Q42.75 289.4062 42.75 280.125 Q42.75 278.4375 56.8125 260.4375 Q79.3125 224.4375 124.875 165.9375 L124.875 164.8125 Q116.7188 165.9375 112.5 165.9375 Q94.7812 165.9375 80.4375 155.25 Q83.25 149.625 84.9375 149.625 Q94.2188 153.5625 111.375 153.5625 L113.0625 153.5625 Q126.8438 153.5625 148.5 144 L151.875 143.4375 ZM140.0625 268.875 Q131.0625 284.3438 131.0625 301.5 Q133.3125 303.75 136.6875 303.75 L138.9375 303.75 Q147.9375 303.75 147.9375 298.125 L147.9375 292.5 Q146.8125 270.8438 140.0625 268.875 Z" stroke="none" />
    </g>
  </g>
</svg>
