<?xml version="1.0"?>

<!DOCTYPE svg PUBLIC '-//W3C//DTD SVG 1.0//EN' 'http://www.w3.org/TR/2001/REC-SVG-20010904/DTD/svg10.dtd'>
<svg fill-opacity="1" xmlns:xlink="http://www.w3.org/1999/xlink" color-rendering="auto" color-interpolation="auto" text-rendering="auto" stroke="black" stroke-linecap="square" stroke-miterlimit="10" shape-rendering="auto" stroke-opacity="1" fill="black" stroke-dasharray="none" font-weight="normal" stroke-width="1" xmlns="http://www.w3.org/2000/svg" font-family="&apos;Dialog&apos;" font-style="normal" stroke-linejoin="miter" font-size="12" stroke-dashoffset="0" image-rendering="auto">
  <!--Unicode Character 'HENTAIGANA LETTER SO-5' (U+1B05B)-->
  <defs id="genericDefs" />
  <g>
    <g>
      <path d="M86.3438 130.2188 Q97.875 131.0625 107.7188 138.0938 Q111.6562 141.75 111.6562 145.9688 L111.6562 147.0938 Q111.6562 149.3438 108.8438 165.6562 Q109.4062 165.6562 109.4062 166.2188 Q121.7812 158.3438 127.4062 157.2188 Q137.5312 158.3438 137.5312 163.9688 L137.5312 165.0938 Q137.5312 169.875 108.2812 180.2812 L108.2812 206.7188 L109.4062 206.7188 Q158.3438 177.75 159.4688 176.3438 Q154.9688 154.4062 154.9688 147.0938 Q154.9688 130.2188 165.0938 130.2188 Q168.1875 130.2188 197.1562 146.5312 Q209.5312 149.9062 209.5312 156.0938 Q209.5312 161.1562 183.6562 172.9688 Q175.2188 177.75 175.2188 178.5938 L175.2188 179.1562 Q177.75 189.5625 186.4688 211.7812 L188.1562 211.7812 Q221.9062 187.0312 229.7812 187.0312 Q237.0938 188.4375 237.0938 193.2188 Q223.5938 232.0312 223.5938 255.6562 L223.5938 260.7188 Q223.5938 265.2188 224.1562 271.4062 Q222.1875 278.1562 216.2812 278.1562 Q205.5938 278.1562 190.9688 250.0312 Q180.5625 230.9062 179.7188 230.9062 Q158.0625 244.4062 144.2812 257.9062 Q143.1562 259.875 143.1562 261.2812 L143.1562 261.8438 Q143.1562 267.4688 163.4062 275.9062 Q166.7812 279.5625 166.7812 282.0938 L166.7812 283.2188 Q166.7812 287.7188 147.0938 314.1562 Q139.7812 324.2812 139.7812 332.1562 L139.7812 336.6562 Q139.7812 347.3438 160.5938 347.3438 L162.8438 347.3438 Q169.5938 347.3438 175.7812 346.2188 Q185.3438 348.75 185.3438 355.2188 Q185.3438 361.125 169.5938 362.5312 L165.0938 362.5312 Q128.5312 360.2812 128.5312 344.5312 Q127.9688 343.6875 127.9688 341.7188 Q127.9688 326.5312 147.0938 292.2188 L147.6562 288.8438 L147.6562 286.5938 Q147.6562 284.0625 138.0938 277.0312 Q130.7812 270 130.7812 264.6562 Q130.7812 255.6562 160.0312 234.2812 Q175.7812 221.3438 175.7812 220.7812 Q167.9062 200.5312 162.8438 185.9062 L161.7188 185.9062 Q129.9375 205.3125 108.2812 220.2188 Q109.4062 267.75 109.4062 273.6562 Q106.3125 287.7188 99.8438 287.7188 Q97.0312 287.7188 85.7812 273.6562 Q70.3125 260.7188 54.2812 253.9688 Q51.75 251.1562 50.9062 248.3438 Q50.9062 239.3438 89.7188 217.9688 Q95.3438 214.3125 95.3438 213.4688 L95.3438 183.6562 L94.7812 183.6562 Q86.0625 184.7812 82.9688 184.7812 L79.5938 184.7812 Q63.2812 184.7812 53.7188 170.7188 L53.7188 169.5938 Q55.6875 166.2188 56.5312 166.2188 Q64.125 173.5312 78.4688 173.5312 Q86.0625 173.5312 96.4688 170.7188 L96.4688 161.1562 Q96.4688 143.7188 89.1562 138.6562 Q82.4062 136.4062 82.4062 134.7188 Q84.375 130.2188 86.3438 130.2188 ZM169.0312 148.2188 Q170.1562 160.3125 172.4062 168.4688 Q192.6562 159.1875 192.6562 156.0938 L192.6562 153.8438 Q192.6562 153 174.6562 142.0312 L171.2812 142.0312 Q169.5938 142.0312 169.0312 148.2188 ZM192.0938 223.0312 Q196.3125 235.125 210.6562 255.0938 Q211.7812 255.0938 216.2812 231.4688 Q223.0312 208.6875 223.0312 207.2812 L223.0312 206.1562 Q223.0312 205.0312 221.9062 205.0312 L221.3438 205.0312 Q205.3125 212.0625 192.0938 223.0312 ZM68.9062 252.2812 Q68.9062 253.6875 94.7812 265.2188 L95.3438 265.2188 L95.3438 228.0938 Q87.4688 230.0625 68.9062 249.4688 L68.9062 252.2812 Z" stroke="none" />
    </g>
  </g>
</svg>
