<?xml version="1.0"?>

<!DOCTYPE svg PUBLIC '-//W3C//DTD SVG 1.0//EN' 'http://www.w3.org/TR/2001/REC-SVG-20010904/DTD/svg10.dtd'>
<svg fill-opacity="1" xmlns:xlink="http://www.w3.org/1999/xlink" color-rendering="auto" color-interpolation="auto" text-rendering="auto" stroke="black" stroke-linecap="square" stroke-miterlimit="10" shape-rendering="auto" stroke-opacity="1" fill="black" stroke-dasharray="none" font-weight="normal" stroke-width="1" xmlns="http://www.w3.org/2000/svg" font-family="&apos;Dialog&apos;" font-style="normal" stroke-linejoin="miter" font-size="12" stroke-dashoffset="0" image-rendering="auto">
  <!--Unicode Character 'HENTAIGANA LETTER MO-2' (U+1B0D8)-->
  <defs id="genericDefs" />
  <g>
    <g>
      <path d="M126.8438 135 Q155.5312 147.375 155.5312 158.0625 Q155.5312 168.75 118.4062 177.1875 Q106.0312 181.6875 106.0312 185.625 L106.0312 186.1875 Q106.0312 189 117.8438 199.125 Q127.9688 211.7812 127.9688 222.1875 Q127.9688 223.875 118.4062 253.125 Q113.3438 275.0625 111.6562 287.4375 Q111.6562 288.2812 127.9688 289.125 Q136.125 289.125 148.7812 286.875 Q160.0312 288.5625 160.0312 293.625 Q160.0312 302.3438 134.1562 303.75 L129.0938 303.75 Q121.2188 303.75 109.9688 301.5 L109.9688 302.0625 Q108.8438 304.875 108.8438 313.875 L108.8438 315.5625 Q108.8438 345.9375 136.9688 345.9375 L140.9062 345.9375 Q167.3438 345.9375 194.3438 315.5625 Q203.9062 301.2188 203.9062 290.8125 L203.9062 284.0625 Q203.9062 256.7812 166.7812 228.375 L170.7188 223.875 Q218.5312 252.8438 218.5312 288 Q218.5312 331.0312 166.7812 352.6875 Q151.3125 357.75 136.4062 357.75 Q111.375 357.75 100.9688 335.8125 Q97.0312 322.3125 97.0312 309.9375 Q97.5938 300.0938 97.5938 298.125 Q73.4062 285.1875 73.4062 267.1875 Q73.4062 256.5 91.9688 245.25 Q69.4688 233.4375 69.4688 219.375 Q69.4688 208.125 80.7188 200.8125 Q82.9688 201.6562 84.0938 203.625 Q78.4688 210.6562 78.4688 214.875 Q78.4688 225 99.8438 231.75 L107.1562 236.25 L108.8438 236.25 Q111.0938 227.5312 111.0938 220.5 L111.0938 214.3125 Q111.0938 206.1562 99.2812 189.5625 Q99.2812 188.4375 98.1562 185.625 Q98.1562 177.4688 125.7188 165.375 Q136.4062 158.3438 136.4062 154.125 Q136.4062 147.375 121.7812 138.375 Q123.75 135 126.8438 135 ZM82.4062 269.4375 Q82.4062 279.8438 100.4062 284.625 L104.9062 255.9375 L104.3438 255.9375 Q82.4062 257.9062 82.4062 268.3125 L82.4062 269.4375 Z" stroke="none" />
    </g>
  </g>
</svg>
