<?xml version="1.0"?>

<!DOCTYPE svg PUBLIC '-//W3C//DTD SVG 1.0//EN' 'http://www.w3.org/TR/2001/REC-SVG-20010904/DTD/svg10.dtd'>
<svg fill-opacity="1" xmlns:xlink="http://www.w3.org/1999/xlink" color-rendering="auto" color-interpolation="auto" text-rendering="auto" stroke="black" stroke-linecap="square" stroke-miterlimit="10" shape-rendering="auto" stroke-opacity="1" fill="black" stroke-dasharray="none" font-weight="normal" stroke-width="1" xmlns="http://www.w3.org/2000/svg" font-family="&apos;Dialog&apos;" font-style="normal" stroke-linejoin="miter" font-size="12" stroke-dashoffset="0" image-rendering="auto">
  <!--Unicode Character 'HENTAIGANA LETTER SI-6' (U+1B049)-->
  <defs id="genericDefs" />
  <g>
    <g>
      <path d="M196.875 135 Q201.6562 135 214.3125 151.875 Q228.0938 165.9375 239.625 170.4375 Q245.8125 175.7812 245.8125 181.125 Q245.8125 189 216.5625 194.625 Q207.2812 198 187.3125 207 Q186.75 221.0625 186.75 229.5 L186.75 240.1875 Q187.0312 241.3125 187.875 241.3125 Q204.75 236.25 216 236.25 Q241.5938 236.25 250.3125 258.1875 Q252 267.1875 252 273.375 Q252 325.4062 156.375 357.75 L155.8125 357.75 Q152.4375 354.375 151.875 352.6875 Q235.125 320.3438 235.125 277.3125 L235.125 265.5 Q232.5938 246.375 222.75 246.375 Q222.75 245.25 216 245.25 L213.75 245.25 Q202.2188 245.25 181.125 254.25 L180.5625 254.25 Q172.125 254.25 172.125 244.125 L172.125 230.625 Q172.125 225 172.6875 213.75 Q152.1562 222.75 109.6875 257.0625 Q107.4375 259.3125 107.4375 261.5625 L107.4375 263.25 Q107.4375 289.4062 108.5625 313.875 Q105.4688 334.125 96.1875 334.125 Q92.5312 334.125 86.0625 323.4375 Q71.1562 313.5938 47.25 303.1875 Q44.7188 300.6562 43.875 296.4375 Q47.25 288 78.75 263.25 Q94.5 251.1562 94.5 250.3125 L94.5 218.8125 Q94.5 217.6875 93.375 217.6875 L92.8125 217.6875 Q83.8125 219.375 57.9375 238.5 Q57.375 238.5 53.4375 239.0625 Q44.4375 239.0625 36 221.625 L36 219.375 Q37.9688 216.5625 41.0625 216.5625 Q45.5625 223.3125 51.1875 223.3125 L52.875 223.3125 Q60.75 223.3125 96.75 201.9375 Q110.25 205.875 110.25 212.625 Q107.4375 225 107.4375 242.4375 L109.125 242.4375 Q145.4062 219.0938 173.25 204.75 Q180.2812 135 196.875 135 ZM187.875 197.4375 L227.8125 182.8125 L229.5 180.5625 L229.5 177.75 Q229.5 176.9062 217.6875 166.5 Q208.4062 156.6562 200.8125 145.6875 Q199.9688 145.125 198.5625 145.125 Q191.8125 145.125 187.875 197.4375 ZM83.8125 146.25 Q90.8438 155.8125 101.25 155.8125 Q120.375 156.9375 120.375 166.5 L120.375 168.1875 Q120.375 174.375 108 174.375 Q100.4062 174.375 87.1875 182.25 Q86.3438 182.25 83.8125 178.875 L83.8125 178.3125 Q90 172.9688 93.9375 171 L93.9375 168.75 Q85.2188 165.9375 78.75 149.625 Q78.75 147.375 83.8125 146.25 ZM61.3125 299.8125 L61.3125 301.5 Q61.3125 305.4375 90 311.0625 L94.5 311.0625 L94.5 267.75 L93.375 267.75 Q63.5625 291.9375 61.3125 299.8125 Z" stroke="none" />
    </g>
  </g>
</svg>
