<?xml version="1.0"?>

<!DOCTYPE svg PUBLIC '-//W3C//DTD SVG 1.0//EN' 'http://www.w3.org/TR/2001/REC-SVG-20010904/DTD/svg10.dtd'>
<svg fill-opacity="1" xmlns:xlink="http://www.w3.org/1999/xlink" color-rendering="auto" color-interpolation="auto" text-rendering="auto" stroke="black" stroke-linecap="square" stroke-miterlimit="10" shape-rendering="auto" stroke-opacity="1" fill="black" stroke-dasharray="none" font-weight="normal" stroke-width="1" xmlns="http://www.w3.org/2000/svg" font-family="&apos;Dialog&apos;" font-style="normal" stroke-linejoin="miter" font-size="12" stroke-dashoffset="0" image-rendering="auto">
  <!--Unicode Character 'HENTAIGANA LETTER NE-5' (U+1B096)-->
  <defs id="genericDefs" />
  <g>
    <g>
      <path d="M188.4375 141.4688 Q197.7188 141.4688 202.5 152.7188 Q194.625 182.25 194.625 193.2188 L194.625 199.9688 Q194.625 203.0625 222.75 206.1562 Q236.8125 210.9375 236.8125 219.0938 L237.375 219.0938 Q237.375 231.4688 212.0625 246.6562 Q177.75 268.5938 145.125 298.4062 Q127.6875 318.375 127.6875 323.1562 Q129.0938 324.2812 129.9375 324.2812 Q161.7188 321.4688 174.375 321.4688 Q243 324.8438 243 343.9688 Q243 350.7188 235.125 351.2812 Q233.1562 351.2812 207.5625 340.0312 Q188.1562 333.8438 169.3125 333.8438 L160.875 333.8438 Q151.5938 333.8438 123.1875 337.2188 Q118.125 337.2188 116.4375 328.2188 Q116.4375 306 212.0625 233.1562 Q217.125 225.8438 217.125 221.9062 L217.125 217.9688 Q217.125 213.4688 195.1875 213.4688 Q180.5625 213.4688 180.5625 199.4062 L180.5625 197.1562 Q180.5625 185.0625 183.9375 154.4062 L183.9375 153.2812 Q183.9375 152.1562 182.8125 152.1562 L181.6875 152.1562 Q161.7188 171.2812 144.5625 196.5938 Q117 237.9375 104.625 265.2188 Q104.625 265.5 105.1875 268.5938 Q104.0625 273.375 93.9375 289.9688 L93.9375 290.5312 Q93.9375 306.2812 95.625 326.5312 Q93.375 336.6562 87.1875 336.6562 Q84.9375 336.6562 76.5 324.8438 L74.8125 324.8438 Q61.0312 349.0312 55.125 349.0312 L54.5625 349.0312 Q51.75 349.0312 49.5 337.7812 Q49.5 333.5625 64.125 318.6562 Q64.125 317.8125 65.25 316.4062 L65.25 315.8438 Q46.125 299.25 46.125 297.2812 Q45 295.3125 45 292.7812 L45 292.2188 Q45 276.1875 75.9375 259.0312 Q82.6875 256.5 83.25 255.6562 Q83.25 240.75 90.5625 180.8438 L90 180.8438 Q82.6875 184.7812 72.5625 186.4688 Q57.6562 186.4688 52.875 160.0312 Q52.875 157.7812 58.5 156.6562 Q63.2812 171.8438 73.6875 171.8438 Q82.4062 171.8438 101.25 162.8438 Q102.375 162.2812 103.5 162.2812 Q111.375 163.9688 111.375 170.1562 Q111.375 171.8438 104.0625 189.2812 Q95.0625 239.3438 95.0625 255.6562 L96.1875 256.2188 L97.3125 256.2188 Q126.5625 208.4062 152.4375 174.6562 Q178.5938 141.4688 187.875 141.4688 L188.4375 141.4688 ZM57.9375 293.9062 Q57.9375 298.6875 69.75 306.8438 Q82.6875 294.75 82.6875 274.2188 L82.6875 268.5938 Q57.9375 278.4375 57.9375 293.9062 Z" stroke="none" />
    </g>
  </g>
</svg>
