<?xml version="1.0"?>

<!DOCTYPE svg PUBLIC '-//W3C//DTD SVG 1.0//EN' 'http://www.w3.org/TR/2001/REC-SVG-20010904/DTD/svg10.dtd'>
<svg fill-opacity="1" xmlns:xlink="http://www.w3.org/1999/xlink" color-rendering="auto" color-interpolation="auto" text-rendering="auto" stroke="black" stroke-linecap="square" stroke-miterlimit="10" shape-rendering="auto" stroke-opacity="1" fill="black" stroke-dasharray="none" font-weight="normal" stroke-width="1" xmlns="http://www.w3.org/2000/svg" font-family="&apos;Dialog&apos;" font-style="normal" stroke-linejoin="miter" font-size="12" stroke-dashoffset="0" image-rendering="auto">
  <!--Unicode Character 'HENTAIGANA LETTER YA-2' (U+1B0DE)-->
  <defs id="genericDefs" />
  <g>
    <g>
      <path d="M81.5625 151.875 Q91.125 151.875 113.0625 162.5625 L113.0625 163.125 Q111.6562 168.75 110.8125 168.75 Q108.8438 168.75 94.5 164.25 L92.8125 164.25 Q91.6875 164.5312 91.6875 165.375 L91.6875 165.9375 Q91.6875 171.2812 102.9375 200.8125 L103.5 200.8125 Q134.4375 187.3125 154.6875 181.125 Q182.8125 173.25 200.25 173.25 L203.625 173.25 Q230.0625 173.25 247.5 195.1875 Q254.8125 207 254.8125 217.6875 Q254.8125 250.3125 217.6875 263.8125 Q210.6562 265.5 201.9375 266.0625 Q175.7812 266.0625 155.25 248.625 L155.25 248.0625 Q155.25 247.7812 159.1875 242.4375 Q179.1562 253.6875 195.1875 253.6875 L196.875 253.6875 Q222.75 253.6875 235.125 230.0625 Q237.375 224.7188 237.375 217.125 L237.375 215.4375 Q237.375 193.2188 209.8125 184.5 Q200.8125 183.375 198 183.375 Q166.5 183.375 108.5625 214.3125 L108.5625 214.875 Q122.0625 250.5938 150.75 317.25 Q152.4375 324.2812 152.4375 329.625 Q150.75 340.875 144.5625 340.875 L144 340.875 Q135.5625 340.875 130.5 316.125 Q109.6875 246.6562 96.1875 220.5 Q64.4062 239.0625 61.3125 239.0625 L57.375 239.625 Q46.9688 239.625 33.1875 216.5625 L33.1875 215.4375 L38.25 210.375 Q45.2812 220.5 51.75 220.5 L57.375 220.5 Q64.125 220.5 90.5625 206.4375 Q72.5625 165.9375 72.5625 163.6875 L72.5625 162 Q74.25 151.875 81.5625 151.875 Z" stroke="none" />
    </g>
  </g>
</svg>
