<?xml version="1.0"?>

<!DOCTYPE svg PUBLIC '-//W3C//DTD SVG 1.0//EN' 'http://www.w3.org/TR/2001/REC-SVG-20010904/DTD/svg10.dtd'>
<svg fill-opacity="1" xmlns:xlink="http://www.w3.org/1999/xlink" color-rendering="auto" color-interpolation="auto" text-rendering="auto" stroke="black" stroke-linecap="square" stroke-miterlimit="10" shape-rendering="auto" stroke-opacity="1" fill="black" stroke-dasharray="none" font-weight="normal" stroke-width="1" xmlns="http://www.w3.org/2000/svg" font-family="&apos;Dialog&apos;" font-style="normal" stroke-linejoin="miter" font-size="12" stroke-dashoffset="0" image-rendering="auto">
  <!--Unicode Character 'HENTAIGANA LETTER O-2' (U+1B015)-->
  <defs id="genericDefs" />
  <g>
    <g>
      <path d="M86.0625 135.2812 Q106.875 135.2812 114.1875 147.0938 Q115.3125 149.3438 115.3125 153.2812 Q111.375 181.9688 111.375 195.4688 L111.9375 195.4688 Q113.3438 195.4688 135.5625 184.7812 L137.8125 184.7812 Q144.5625 185.625 144.5625 190.4062 Q144.5625 200.25 110.25 210.0938 L109.125 285.4688 L110.8125 338.9062 Q107.7188 357.4688 97.875 357.4688 Q91.6875 357.4688 88.875 338.9062 Q83.8125 327.375 64.6875 310.7812 L64.125 310.7812 Q53.4375 329.3438 49.5 330.4688 Q43.875 327.6562 43.875 322.0312 Q43.875 313.875 63.5625 287.1562 Q98.4375 230.9062 98.4375 225.8438 L98.4375 212.3438 Q88.875 213.4688 83.8125 213.4688 Q58.7812 213.4688 46.6875 188.7188 Q46.6875 187.875 50.625 184.7812 L51.75 184.7812 Q61.875 199.9688 83.25 199.9688 Q90.2812 199.9688 99 198.8438 L99 159.4688 Q99 145.9688 83.8125 142.0312 L82.125 142.0312 L82.125 141.4688 Q83.25 135.2812 86.0625 135.2812 ZM201.375 178.5938 Q226.9688 178.5938 241.875 197.7188 Q243 199.6875 244.125 204.4688 Q242.1562 212.3438 236.8125 212.3438 Q228.6562 208.9688 226.6875 208.9688 L222.75 208.9688 Q207.5625 212.625 201.375 216.8438 Q200.5312 216.8438 196.875 212.3438 Q215.4375 199.125 215.4375 196.5938 L215.4375 195.4688 Q212.3438 189.5625 193.5 188.7188 Q181.125 189.2812 181.125 190.4062 Q179.1562 190.4062 177.75 184.7812 Q189.8438 178.5938 201.375 178.5938 ZM68.625 304.0312 L94.5 325.4062 L95.625 325.4062 Q97.3125 275.3438 97.3125 252.2812 L96.75 252.2812 L68.625 303.4688 L68.625 304.0312 ZM168.1875 284.3438 Q172.125 285.1875 174.9375 287.1562 L174.375 288.2812 L174.375 292.2188 Q174.375 305.1562 185.625 309.6562 Q200.8125 315.2812 229.5 315.2812 Q237.375 318.0938 237.375 323.7188 Q237.375 331.0312 225 331.0312 L218.25 331.0312 Q181.6875 331.0312 168.75 310.7812 Q165.375 304.5938 165.375 297.2812 L165.375 295.0312 Q166.5 284.3438 168.1875 284.3438 Z" stroke="none" />
    </g>
  </g>
</svg>
