<?xml version="1.0" encoding="UTF-8" standalone="no"?>
<svg
   xmlns:dc="http://purl.org/dc/elements/1.1/"
   xmlns:cc="http://creativecommons.org/ns#"
   xmlns:rdf="http://www.w3.org/1999/02/22-rdf-syntax-ns#"
   xmlns:svg="http://www.w3.org/2000/svg"
   xmlns="http://www.w3.org/2000/svg"
   xmlns:sodipodi="http://sodipodi.sourceforge.net/DTD/sodipodi-0.dtd"
   xmlns:inkscape="http://www.inkscape.org/namespaces/inkscape"
   fill-opacity="1"
   color-rendering="auto"
   color-interpolation="auto"
   text-rendering="auto"
   stroke="black"
   stroke-linecap="square"
   stroke-miterlimit="10"
   shape-rendering="auto"
   stroke-opacity="1"
   fill="black"
   stroke-dasharray="none"
   font-weight="normal"
   stroke-width="1"
   font-family="'Dialog'"
   font-style="normal"
   stroke-linejoin="miter"
   font-size="12"
   stroke-dashoffset="0"
   image-rendering="auto"
   version="1.1"
   id="svg9"
   sodipodi:docname="hentaigana_letter_ti1.svg"
   inkscape:version="0.92.4 (5da689c313, 2019-01-14)"
   width="100%"
   height="100%"
   viewBox="0 0 100 100"
   preserveAspectRatio="xMidYMid meet"
   >
  <metadata
     id="metadata13">
    <rdf:RDF>
      <cc:Work
         rdf:about="">
        <dc:format>image/svg+xml</dc:format>
        <dc:type
           rdf:resource="http://purl.org/dc/dcmitype/StillImage" />
      </cc:Work>
    </rdf:RDF>
  </metadata>
  <sodipodi:namedview
     pagecolor="#ffffff"
     bordercolor="#666666"
     borderopacity="1"
     objecttolerance="10"
     gridtolerance="10"
     guidetolerance="10"
     inkscape:pageopacity="0"
     inkscape:pageshadow="2"
     inkscape:window-width="1920"
     inkscape:window-height="986"
     id="namedview11"
     showgrid="false"
     inkscape:zoom="2.36"
     inkscape:cx="50"
     inkscape:cy="50"
     inkscape:window-x="-11"
     inkscape:window-y="-11"
     inkscape:window-maximized="1"
     inkscape:current-layer="svg9" />
  <!--Unicode Character 'HENTAIGANA LETTER TI-1' (U+1B062)-->
  <defs
     id="genericDefs" />
  <g
     id="g7"
     transform="matrix(0.47768033,0,0,0.44524763,-17.370714,-60.144916)">
    <g
       id="g5">
      <path
         d="m 148.2188,137.5312 q 24.1874,8.1563 24.1874,18 0,9.8438 -42.75,35.4376 0,0.8437 -1.125,2.25 v 1.6874 q 18.5626,19.4063 23.0626,43.875 3.375,25.3126 3.375,25.875 h 15.75 q 24.1874,0 48.375,10.125 5.625,4.5 5.625,9.5626 0,4.2187 -7.3126,5.625 -26.7187,-7.875 -36.5624,-10.125 -10.6876,-1.6876 -26.4376,-2.25 v 14.625 q 0,63 -21.9374,63 -4.2188,0 -11.8126,-14.625 -16.875,-16.3126 -40.5,-29.25 -16.875,-7.3126 -16.875,-14.0626 0,-18.2812 75.375,-32.0624 v -5.625 q 0,-47.25 -18.5624,-63 0,-2.8126 -1.125,-2.8126 0,-3.6562 21.9374,-23.625 11.8126,-12.0937 11.8126,-18.5624 0,-5.0626 -8.4376,-9 v -0.5626 q 3.0938,-4.5 3.9376,-4.5 z m -72.5626,163.125 q 0,1.9688 19.6876,11.25 21.375,12.375 37.125,18 h 1.125 q 5.625,0 5.625,-48.9374 l -0.5626,-2.8126 q -27.5624,0 -61.875,19.6876 z"
         id="path3"
         inkscape:connector-curvature="0"
         style="stroke:none" />
    </g>
  </g>
</svg>
