<?xml version="1.0"?>

<!DOCTYPE svg PUBLIC '-//W3C//DTD SVG 1.0//EN' 'http://www.w3.org/TR/2001/REC-SVG-20010904/DTD/svg10.dtd'>
<svg fill-opacity="1" xmlns:xlink="http://www.w3.org/1999/xlink" color-rendering="auto" color-interpolation="auto" text-rendering="auto" stroke="black" stroke-linecap="square" stroke-miterlimit="10" shape-rendering="auto" stroke-opacity="1" fill="black" stroke-dasharray="none" font-weight="normal" stroke-width="1" xmlns="http://www.w3.org/2000/svg" font-family="&apos;Dialog&apos;" font-style="normal" stroke-linejoin="miter" font-size="12" stroke-dashoffset="0" image-rendering="auto">
  <!--Unicode Character 'HENTAIGANA LETTER N-MU-MO-1' (U+1B11D)-->
  <defs id="genericDefs" />
  <g>
    <g>
      <path d="M110.8125 141.4688 L111.375 141.4688 Q126 154.9688 144 154.9688 L151.3125 154.9688 Q155.25 154.9688 173.8125 149.3438 L174.375 149.3438 Q178.3125 149.3438 181.125 154.4062 L181.125 154.9688 Q181.125 166.7812 150.75 169.0312 Q123.75 169.0312 106.3125 146.5312 Q106.3125 145.125 110.8125 141.4688 ZM102.9375 183.6562 Q103.5 183.6562 108.5625 187.0312 L108 192.6562 L108 193.7812 Q108 198.8438 118.125 201.0938 Q122.0625 205.0312 122.625 207.8438 Q122.625 212.625 99.5625 229.7812 Q92.8125 237.375 92.8125 238.2188 L92.8125 240.4688 Q93.375 242.1562 96.1875 242.1562 L104.0625 242.1562 Q132.1875 242.1562 132.1875 235.9688 Q162.8438 191.5312 181.125 191.5312 Q195.75 191.5312 198 212.3438 Q198 239.3438 132.75 253.9688 Q119.8125 271.4062 101.8125 291.6562 L101.8125 292.7812 L102.375 292.7812 Q117 284.9062 126 283.7812 Q142.3125 283.7812 153.5625 315.2812 Q161.1562 334.9688 172.125 334.9688 Q177.4688 336.0938 191.25 336.6562 Q212.9062 336.6562 235.125 330.4688 Q245.8125 332.4375 245.8125 339.4688 Q245.8125 348.4688 227.8125 348.4688 Q215.7188 350.7188 195.75 350.7188 L190.125 350.7188 Q157.5 350.7188 149.0625 337.2188 Q138.375 311.625 134.4375 303.4688 Q128.5312 294.4688 124.3125 294.4688 L119.8125 294.4688 Q106.3125 295.875 85.5 315.8438 Q55.6875 348.4688 54.5625 348.4688 Q49.5 351.2812 47.8125 351.2812 L47.25 351.2812 Q42.1875 351.2812 42.1875 343.9688 Q42.1875 333 70.875 311.9062 Q98.1562 281.8125 117 256.7812 L117 255.6562 Q101.8125 256.7812 94.5 256.7812 Q81 255.375 81 246.0938 Q81 237.0938 103.5 213.4688 L103.5 211.2188 Q96.75 203.9062 96.75 198.2812 Q99 186.1875 102.9375 183.6562 ZM146.8125 236.5312 Q185.625 226.125 185.625 212.9062 L185.625 207.8438 Q185.625 200.5312 178.875 199.4062 Q167.9062 201.6562 146.8125 235.4062 L146.8125 236.5312 Z" stroke="none" />
    </g>
  </g>
</svg>
