<?xml version="1.0"?>

<!DOCTYPE svg PUBLIC '-//W3C//DTD SVG 1.0//EN' 'http://www.w3.org/TR/2001/REC-SVG-20010904/DTD/svg10.dtd'>
<svg fill-opacity="1" xmlns:xlink="http://www.w3.org/1999/xlink" color-rendering="auto" color-interpolation="auto" text-rendering="auto" stroke="black" stroke-linecap="square" stroke-miterlimit="10" shape-rendering="auto" stroke-opacity="1" fill="black" stroke-dasharray="none" font-weight="normal" stroke-width="1" xmlns="http://www.w3.org/2000/svg" font-family="&apos;Dialog&apos;" font-style="normal" stroke-linejoin="miter" font-size="12" stroke-dashoffset="0" image-rendering="auto">
  <!--Unicode Character 'HENTAIGANA LETTER KA-2' (U+1B018)-->
  <defs id="genericDefs" />
  <g>
    <g>
      <path d="M86.9062 149.0625 Q117.8438 153.8438 117.8438 166.5 Q117.8438 168.1875 105.4688 197.4375 Q104.9062 200.5312 104.9062 202.5 L105.4688 202.5 Q107.7188 200.5312 121.2188 198.5625 Q142.875 198.5625 146.5312 228.375 Q146.5312 297.8438 99.8438 337.5 Q88.875 343.6875 81.8438 343.6875 Q70.5938 343.6875 67.2188 327.375 Q66.6562 326.5312 66.0938 321.1875 Q66.0938 308.8125 70.0312 308.8125 L72.8438 308.25 L73.9688 309.9375 L73.9688 314.4375 Q73.9688 327.9375 82.9688 329.0625 Q101.8125 329.0625 121.7812 281.25 Q130.7812 255.9375 130.7812 234 L130.7812 222.75 Q130.7812 207.5625 121.7812 207.5625 L120.0938 207.5625 Q97.5938 211.5 97.5938 218.8125 Q87.4688 244.6875 73.9688 294.1875 Q71.4375 298.6875 67.7812 298.6875 Q59.9062 295.0312 59.9062 285.75 Q59.9062 280.6875 73.9688 248.625 Q84.6562 222.1875 84.6562 219.375 L84.0938 219.375 Q49.5 236.8125 47.5312 236.8125 Q36.2812 236.8125 27.8438 214.3125 Q27.8438 212.9062 32.3438 210.375 L33.4688 210.375 Q37.9688 219.9375 46.9688 219.9375 Q89.7188 208.125 89.7188 205.3125 Q98.7188 175.5 98.7188 169.875 L98.7188 166.5 Q98.7188 160.0312 82.4062 154.6875 L82.4062 154.125 Q84.9375 149.0625 86.9062 149.0625 ZM178.5938 208.125 L179.1562 208.125 Q189.5625 214.0312 193.7812 227.25 Q193.7812 228.6562 196.0312 236.25 L197.1562 236.25 Q217.9688 214.875 234.2812 214.875 Q250.5938 214.875 258.4688 233.4375 Q260.1562 239.3438 260.1562 244.6875 Q260.1562 277.3125 201.0938 313.875 Q200.25 313.875 196.0312 308.8125 Q228.9375 288 239.9062 262.125 Q242.7188 256.2188 242.7188 243 Q242.7188 229.7812 234.8438 225 L231.4688 224.4375 L229.2188 224.4375 Q218.8125 224.4375 202.2188 250.3125 Q200.8125 266.0625 195.4688 266.0625 Q194.625 266.625 192.0938 266.625 Q184.2188 266.625 181.4062 246.9375 Q181.4062 219.0938 175.2188 210.9375 L178.5938 208.125 Z" stroke="none" />
    </g>
  </g>
</svg>
