<?xml version="1.0"?>

<!DOCTYPE svg PUBLIC '-//W3C//DTD SVG 1.0//EN' 'http://www.w3.org/TR/2001/REC-SVG-20010904/DTD/svg10.dtd'>
<svg fill-opacity="1" xmlns:xlink="http://www.w3.org/1999/xlink" color-rendering="auto" color-interpolation="auto" text-rendering="auto" stroke="black" stroke-linecap="square" stroke-miterlimit="10" shape-rendering="auto" stroke-opacity="1" fill="black" stroke-dasharray="none" font-weight="normal" stroke-width="1" xmlns="http://www.w3.org/2000/svg" font-family="&apos;Dialog&apos;" font-style="normal" stroke-linejoin="miter" font-size="12" stroke-dashoffset="0" image-rendering="auto">
  <!--Unicode Character 'HENTAIGANA LETTER RO-4' (U+1B105)-->
  <defs id="genericDefs" />
  <g>
    <g>
      <path d="M155.8125 130.5 Q181.125 133.875 181.125 145.6875 Q173.25 186.4688 173.25 195.1875 L173.8125 195.1875 Q205.3125 178.875 205.3125 169.875 L205.3125 165.9375 Q204.4688 163.6875 201.375 163.6875 L199.6875 163.6875 L196.3125 164.25 Q194.0625 163.6875 194.0625 160.875 L194.0625 159.1875 Q205.0312 155.8125 209.8125 155.8125 Q222.75 158.9062 222.75 166.5 Q222.75 179.1562 172.125 204.1875 Q171.5625 205.5938 171 218.8125 L171.5625 218.8125 Q185.625 217.6875 208.6875 205.875 Q214.0312 199.125 219.9375 199.125 Q227.8125 200.8125 227.8125 205.3125 L227.8125 205.875 Q227.8125 218.8125 169.875 231.1875 L169.875 231.75 Q169.875 237.375 169.3125 254.8125 L169.875 254.8125 Q192.0938 250.3125 194.0625 250.3125 Q194.0625 245.8125 192.375 237.9375 Q194.3438 236.8125 196.875 236.8125 Q200.25 238.7812 203.0625 249.75 Q236.8125 249.75 250.875 278.4375 Q253.6875 288 253.6875 293.0625 Q253.6875 342.8438 170.4375 362.25 Q167.625 359.4375 167.625 356.625 Q236.8125 336.9375 236.8125 292.5 Q236.8125 258.75 203.0625 258.75 Q203.0625 272.25 171.5625 306.5625 L171.5625 307.6875 Q172.125 320.625 172.125 321.1875 Q172.125 327.375 165.9375 327.375 Q162.8438 326.25 158.625 319.5 L158.0625 319.5 Q137.5312 337.5 129.375 337.5 Q123.1875 337.5 113.0625 318.9375 Q102.9375 306.8438 101.8125 299.25 Q101.8125 281.8125 157.5 258.75 L157.5 258.1875 Q157.5 252.2812 158.625 232.3125 L153 232.875 L150.1875 232.875 Q127.9688 232.875 119.25 222.75 Q119.25 219.6562 122.0625 218.25 Q129.9375 222.1875 145.125 222.1875 L147.9375 222.1875 Q153.5625 222.1875 159.1875 221.0625 Q159.1875 215.7188 162 179.4375 L160.875 179.4375 Q140.9062 199.125 135.5625 199.125 Q128.25 199.125 127.6875 187.875 Q127.6875 178.3125 132.75 171.5625 L134.4375 171.5625 Q135.8438 171.5625 137.25 181.125 Q138.6562 182.8125 140.625 182.8125 Q145.4062 182.8125 162.5625 169.3125 Q163.6875 169.3125 165.375 148.5 L165.375 146.25 Q165.375 141.75 152.4375 135 Q154.4062 130.5 155.8125 130.5 ZM62.4375 140.625 Q88.875 143.7188 88.875 159.1875 Q83.8125 188.1562 83.8125 195.1875 L84.375 195.1875 Q89.1562 194.0625 103.5 187.3125 L104.625 187.3125 Q112.5 188.4375 112.5 193.5 Q112.5 201.0938 82.6875 209.25 Q81.5625 231.1875 81.5625 253.6875 L81.5625 262.125 L82.6875 262.125 Q94.7812 251.7188 106.875 239.625 Q108.5625 242.4375 108.5625 244.125 Q104.625 250.875 81 276.1875 Q81.5625 284.625 81.5625 288.5625 L81.5625 296.4375 Q81.5625 319.7812 82.6875 338.0625 Q78.75 357.75 68.0625 357.75 Q64.4062 357.75 60.75 339.1875 Q57.0938 330.75 51.1875 321.75 Q52.0312 319.5 54 318.375 L66.375 330.1875 L67.5 330.1875 Q68.0625 305.1562 69.1875 288 L68.0625 288 Q48.375 303.75 45 303.75 Q34.3125 298.9688 34.3125 292.5 Q42.1875 253.125 62.4375 226.125 L63 226.125 Q66.375 227.5312 66.375 229.5 Q48.9375 262.9688 48.9375 286.875 Q53.1562 286.875 69.75 272.25 Q69.75 266.3438 72 210.9375 Q61.5938 211.5 59.0625 211.5 Q43.5938 211.5 34.3125 199.6875 Q34.875 196.3125 36 196.3125 Q44.7188 199.6875 56.25 199.6875 L57.375 199.6875 Q72 199.6875 72 197.4375 Q72.5625 195.1875 72.5625 192.9375 Q72.5625 181.6875 73.125 163.125 Q73.125 152.7188 59.625 146.8125 L59.625 146.25 Q59.9062 140.625 62.4375 140.625 ZM169.875 283.5 L170.4375 290.25 L171.5625 290.25 Q190.6875 270.5625 192.9375 258.75 L192.375 258.75 Q181.9688 258.75 169.875 264.9375 L169.875 283.5 ZM114.75 303.1875 L114.75 306 Q117.8438 314.1562 128.25 322.875 L129.9375 322.875 Q136.4062 322.875 156.9375 304.3125 L157.5 303.1875 Q156.9375 288.5625 156.9375 280.125 L156.9375 270 L155.8125 270 Q141.1875 273.6562 117 296.4375 Q114.75 300.6562 114.75 303.1875 Z" stroke="none" />
    </g>
  </g>
</svg>
