<?xml version="1.0" encoding="UTF-8" standalone="no"?>
<svg
   xmlns:dc="http://purl.org/dc/elements/1.1/"
   xmlns:cc="http://creativecommons.org/ns#"
   xmlns:rdf="http://www.w3.org/1999/02/22-rdf-syntax-ns#"
   xmlns:svg="http://www.w3.org/2000/svg"
   xmlns="http://www.w3.org/2000/svg"
   xmlns:sodipodi="http://sodipodi.sourceforge.net/DTD/sodipodi-0.dtd"
   xmlns:inkscape="http://www.inkscape.org/namespaces/inkscape"
   fill-opacity="1"
   color-rendering="auto"
   color-interpolation="auto"
   text-rendering="auto"
   stroke="black"
   stroke-linecap="square"
   stroke-miterlimit="10"
   shape-rendering="auto"
   stroke-opacity="1"
   fill="black"
   stroke-dasharray="none"
   font-weight="normal"
   stroke-width="1"
   font-family="'Dialog'"
   font-style="normal"
   stroke-linejoin="miter"
   font-size="12"
   stroke-dashoffset="0"
   image-rendering="auto"
   version="1.1"
   id="svg9"
   sodipodi:docname="hentaigana_letter_a1.svg"
   inkscape:version="0.92.4 (5da689c313, 2019-01-14)">
  <metadata
     id="metadata13">
    <rdf:RDF>
      <cc:Work
         rdf:about="">
        <dc:format>image/svg+xml</dc:format>
        <dc:type
           rdf:resource="http://purl.org/dc/dcmitype/StillImage" />
      </cc:Work>
    </rdf:RDF>
  </metadata>
  <sodipodi:namedview
     pagecolor="#ffffff"
     bordercolor="#666666"
     borderopacity="1"
     objecttolerance="10"
     gridtolerance="10"
     guidetolerance="10"
     inkscape:pageopacity="0"
     inkscape:pageshadow="2"
     inkscape:window-width="1920"
     inkscape:window-height="986"
     id="namedview11"
     showgrid="false"
     inkscape:zoom="2.36"
     inkscape:cx="50"
     inkscape:cy="50"
     inkscape:window-x="-11"
     inkscape:window-y="-11"
     inkscape:window-maximized="1"
     inkscape:current-layer="svg9" />
  <!--Unicode Character 'HENTAIGANA LETTER A-1' (U+1B002)-->
  <defs
     id="genericDefs" />
  <g
     id="g7"
     transform="matrix(0.49141903,0,0,0.43931942,-21.044001,-58.472491)">
    <g
       id="g5">
      <path
         d="m 98.4375,135.2812 q 24.75,3.0938 24.75,6.75 2.8125,0 5.625,7.3126 l -6.75,20.25 h 0.5625 q 44.7188,-18 64.6875,-18 h 3.9375 q 27,3.6562 27,18 0.5625,0 0.5625,3.375 0,19.9687 -33.75,25.875 -3.0937,0.5624 -9,0.5624 -11.5313,0 -20.8125,-7.3124 v -0.5626 q 2.25,-5.0624 2.8125,-5.0624 7.0313,3.9374 14.0625,3.9374 28.6875,-2.8124 28.6875,-14.0624 v -5.0626 q 0,-10.6874 -14.0625,-10.6874 -25.0312,0 -68.625,21.375 -9,27.2812 -9,53.4374 h 0.5625 q 17.7187,-8.4374 40.5,-14.625 2.25,-9 4.5,-9 3.375,2.25 4.5,2.25 0,1.125 -1.125,5.625 h 0.5625 q 17.4375,-1.6874 18.5625,-1.6874 47.25,0 63,33.75 2.25,6.1874 3.375,18.5624 0,59.3438 -95.0625,87.1876 h -0.5625 q -0.5625,0 -3.9375,-5.625 v -0.5626 q 0,-0.5624 19.125,-7.875 31.2188,-14.9062 49.5,-34.3124 Q 225,293.0625 225,272.5312 v -5.0624 q 0,-29.8126 -37.125,-39.375 -8.4375,-1.125 -12.375,-1.125 -19.6875,0 -19.6875,3.375 -5.625,42.4687 -5.625,69.1874 v 13.5 q 0,3.0938 0.5625,7.875 -2.8125,12.375 -11.8125,12.375 h -0.5625 q -16.3125,0 -30.9375,-19.125 -25.3125,21.9376 -36,21.9376 H 69.75 q -6.75,0 -18.5625,-21.375 -6.75,-6.75 -6.75,-14.625 0,-16.0313 37.125,-46.125 14.625,-10.125 14.625,-12.375 1.6875,-24.75 6.1875,-51.75 v -0.5626 h -0.5625 q -12.9375,4.7813 -28.6875,19.125 -2.8125,1.125 -3.9375,1.125 -9.2813,0 -14.625,-14.625 Q 54,192.6562 54,190.4062 v -4.5 q 0,-9.8437 7.3125,-26.4374 2.5313,0 6.1875,2.8124 -2.8125,10.9688 -2.8125,20.25 0.8437,7.875 3.375,7.875 h 2.25 q 4.2187,0 35.4375,-15.1874 3.375,-17.1563 3.375,-20.25 v -2.25 q 0,-9 -14.0625,-10.6876 v -0.5624 q 1.6875,-6.1876 3.375,-6.1876 z m 9.5625,112.5 q 1.6875,28.9688 3.9375,40.5 H 112.5 q 13.2188,-16.3124 24.75,-39.375 7.3125,-15.4687 7.3125,-16.875 v -0.5624 q -9,0 -36.5625,15.75 z m 9,56.25 q 8.7188,14.0626 18,14.0626 h 0.5625 q 3.375,0 6.75,-37.125 0.5625,0 3.375,-25.875 -0.5625,0 -14.625,27 Q 117,302.625 117,304.0312 Z m -56.25,0 v 5.0626 q 1.4062,10.125 9.5625,10.125 h 4.5 q 9.8437,0 27,-18 v -0.5626 Q 96.75,280.9688 96.75,257.3438 v -1.6876 h -1.125 q -34.875,27 -34.875,48.375 z"
         id="path3"
         inkscape:connector-curvature="0"
         style="stroke:none" />
    </g>
  </g>
</svg>
