<?xml version="1.0"?>

<!DOCTYPE svg PUBLIC '-//W3C//DTD SVG 1.0//EN' 'http://www.w3.org/TR/2001/REC-SVG-20010904/DTD/svg10.dtd'>
<svg fill-opacity="1" xmlns:xlink="http://www.w3.org/1999/xlink" color-rendering="auto" color-interpolation="auto" text-rendering="auto" stroke="black" stroke-linecap="square" stroke-miterlimit="10" shape-rendering="auto" stroke-opacity="1" fill="black" stroke-dasharray="none" font-weight="normal" stroke-width="1" xmlns="http://www.w3.org/2000/svg" font-family="&apos;Dialog&apos;" font-style="normal" stroke-linejoin="miter" font-size="12" stroke-dashoffset="0" image-rendering="auto">
  <!--Unicode Character 'HENTAIGANA LETTER MA-6' (U+1B0C7)-->
  <defs id="genericDefs" />
  <g>
    <g>
      <path d="M182.25 134.4375 Q197.4375 134.4375 204.1875 150.1875 L204.75 152.4375 Q204.75 160.875 177.75 169.875 Q141.75 186.1875 117.5625 200.25 L117 201.375 L117.5625 201.375 Q155.5312 194.9062 179.4375 187.3125 Q187.3125 187.3125 195.1875 203.0625 Q195.1875 208.125 172.125 215.4375 Q117 241.0312 117 253.6875 Q117 256.7812 123.1875 257.625 L127.125 257.625 Q135.5625 257.625 137.25 251.4375 Q137.25 247.5 144 243 Q147.375 243 160.875 254.25 Q160.875 254.5312 161.4375 256.5 Q161.4375 260.7188 148.5 264.9375 Q147.9375 278.1562 147.9375 284.625 L147.9375 285.75 Q178.0312 279.5625 198.5625 279.5625 Q228.375 279.5625 236.8125 300.9375 L237.375 306.5625 L237.375 308.8125 Q237.375 340.0312 184.5 357.75 Q183.6562 358.3125 181.6875 358.3125 L180.5625 358.3125 Q180.5625 357.1875 177.75 353.25 L198 343.125 Q219.9375 327.375 219.9375 307.6875 Q219.9375 294.1875 204.1875 289.125 Q198.5625 288.5625 195.75 288.5625 Q169.3125 288.5625 147.9375 295.3125 L147.9375 295.875 Q147.9375 307.4062 149.0625 347.625 Q146.8125 358.3125 141.1875 358.3125 Q135.2812 358.3125 132.75 343.6875 Q134.4375 310.2188 134.4375 299.8125 Q92.5312 312.1875 68.0625 340.875 Q64.6875 342 62.4375 342 Q54.2812 342 50.625 323.4375 Q50.625 307.9688 59.625 294.75 Q63.8438 295.3125 64.125 297 Q62.4375 307.6875 62.4375 311.0625 Q63.2812 318.375 65.25 318.375 L66.375 318.375 Q68.625 318.375 110.25 298.6875 Q134.1562 290.25 135 289.125 L135 267.75 Q133.875 267.75 133.875 267.1875 Q131.0625 268.3125 123.75 268.3125 L120.9375 268.3125 Q106.3125 266.625 106.3125 257.0625 Q106.3125 237.0938 174.375 201.375 L174.375 200.8125 L173.25 200.8125 Q154.125 200.8125 99.5625 218.25 Q95.9062 218.25 95.625 209.8125 Q95.625 201.6562 118.125 191.8125 Q162.8438 166.2188 183.375 151.3125 L184.5 149.625 Q184.5 144.5625 176.625 143.4375 Q171.8438 143.4375 161.4375 146.8125 Q160.0312 146.8125 159.1875 142.3125 L159.1875 141.75 Q173.25 135 182.25 134.4375 ZM90.5625 139.5 Q91.9688 139.5 95.625 140.625 Q93.9375 149.0625 93.9375 151.3125 Q93.9375 164.8125 99 164.8125 Q102.0938 164.8125 138.9375 147.375 Q141.1875 151.5938 141.1875 153 Q127.9688 159.75 101.25 181.125 Q97.875 182.8125 95.625 182.8125 Q84.9375 182.8125 83.25 166.5 L83.25 159.75 Q83.25 148.7812 90.5625 139.5 Z" stroke="none" />
    </g>
  </g>
</svg>
