<?xml version="1.0"?>

<!DOCTYPE svg PUBLIC '-//W3C//DTD SVG 1.0//EN' 'http://www.w3.org/TR/2001/REC-SVG-20010904/DTD/svg10.dtd'>
<svg fill-opacity="1" xmlns:xlink="http://www.w3.org/1999/xlink" color-rendering="auto" color-interpolation="auto" text-rendering="auto" stroke="black" stroke-linecap="square" stroke-miterlimit="10" shape-rendering="auto" stroke-opacity="1" fill="black" stroke-dasharray="none" font-weight="normal" stroke-width="1" xmlns="http://www.w3.org/2000/svg" font-family="&apos;Dialog&apos;" font-style="normal" stroke-linejoin="miter" font-size="12" stroke-dashoffset="0" image-rendering="auto">
  <!--Unicode Character 'HENTAIGANA LETTER NI-5' (U+1B08B)-->
  <defs id="genericDefs" />
  <g>
    <g>
      <path d="M131.0625 138.375 L131.625 138.375 Q147.9375 142.5938 147.9375 150.75 Q147.9375 156.375 131.0625 195.75 L131.625 195.75 Q136.4062 192.9375 151.875 179.4375 L153.5625 179.4375 Q160.3125 179.4375 164.8125 187.875 Q154.125 205.875 154.125 219.9375 L154.125 265.5 Q154.125 297 155.25 340.3125 Q152.4375 354.375 144 354.375 Q139.7812 354.375 132.1875 338.0625 Q122.0625 325.9688 106.3125 316.125 L106.3125 315.5625 Q106.3125 311.625 109.125 311.0625 Q137.25 326.8125 140.625 326.8125 L141.1875 326.8125 Q140.625 321.1875 140.625 318.375 L140.625 220.5 Q140.625 212.0625 145.125 198.5625 L145.125 198 L144.5625 198 Q143.7188 198 120.9375 218.8125 L118.6875 218.8125 Q113.9062 216 111.375 207 L123.75 185.0625 Q132.4688 165.9375 135.5625 153 L135.5625 152.4375 Q135.5625 146.25 127.125 142.875 L127.125 142.3125 Q127.125 141.4688 131.0625 138.375 ZM217.125 265.5 Q239.3438 265.5 245.25 301.5 L245.25 305.4375 Q245.25 324 234 324 Q228.375 321.4688 228.375 317.8125 Q228.9375 303.4688 228.9375 300.9375 Q225.8438 274.5 213.1875 274.5 Q213.1875 273.9375 209.8125 273.9375 Q208.9688 273.9375 201.9375 274.5 Q200.25 271.6875 200.25 270 Q208.6875 266.0625 217.125 265.5 ZM113.625 279.5625 Q115.875 282.9375 115.875 284.625 Q101.8125 295.875 64.125 323.4375 Q59.9062 331.875 55.125 331.875 Q48.0938 331.875 43.3125 316.6875 Q42.75 315.8438 42.75 312.75 L42.75 309.375 Q42.75 290.5312 57.375 280.125 Q59.9062 281.8125 60.75 281.8125 Q56.8125 293.9062 56.8125 302.625 L56.8125 307.125 Q56.8125 307.9688 58.5 308.8125 Q64.4062 308.8125 113.625 279.5625 Z" stroke="none" />
    </g>
  </g>
</svg>
