<?xml version="1.0"?>

<!DOCTYPE svg PUBLIC '-//W3C//DTD SVG 1.0//EN' 'http://www.w3.org/TR/2001/REC-SVG-20010904/DTD/svg10.dtd'>
<svg fill-opacity="1" xmlns:xlink="http://www.w3.org/1999/xlink" color-rendering="auto" color-interpolation="auto" text-rendering="auto" stroke="black" stroke-linecap="square" stroke-miterlimit="10" shape-rendering="auto" stroke-opacity="1" fill="black" stroke-dasharray="none" font-weight="normal" stroke-width="1" xmlns="http://www.w3.org/2000/svg" font-family="&apos;Dialog&apos;" font-style="normal" stroke-linejoin="miter" font-size="12" stroke-dashoffset="0" image-rendering="auto">
  <!--Unicode Character 'HENTAIGANA LETTER SU-4' (U+1B04D)-->
  <defs id="genericDefs" />
  <g>
    <g>
      <path d="M133.5938 139.5 Q148.7812 149.9062 148.7812 153.5625 Q148.7812 161.1562 121.7812 167.625 Q102.0938 220.2188 102.0938 230.625 L102.6562 230.625 Q122.0625 217.9688 148.2188 210.9375 Q149.9062 210.9375 149.9062 209.25 Q147.0938 199.6875 143.1562 199.6875 L143.1562 199.125 Q147.375 195.1875 149.3438 195.1875 Q153.5625 195.75 163.4062 207.5625 Q166.7812 207.5625 185.3438 206.4375 Q215.7188 206.4375 221.3438 227.8125 Q221.3438 232.5938 206.7188 278.4375 Q205.5938 280.6875 205.5938 284.625 L205.5938 286.875 Q205.5938 288 207.2812 288 Q213.75 288 222.4688 287.4375 Q250.5938 289.6875 250.5938 306 L250.5938 307.125 Q250.5938 323.4375 221.3438 338.0625 Q203.3438 345.9375 167.3438 352.6875 Q163.4062 352.6875 162.8438 353.25 Q160.3125 353.25 158.3438 345.9375 L158.3438 345.375 Q193.2188 339.75 218.5312 326.25 Q231.4688 317.8125 231.4688 305.4375 Q229.7812 297.5625 222.4688 297.5625 L212.3438 297.5625 Q209.25 297.5625 203.3438 299.25 Q197.1562 299.25 193.2188 290.25 Q203.3438 243.2812 203.3438 228.375 Q203.3438 218.8125 188.7188 216 L174.6562 216 Q164.5312 216 164.5312 217.6875 L164.5312 220.5 Q164.5312 265.7812 108.8438 315 L108.8438 316.125 Q116.7188 329.3438 116.7188 331.3125 Q116.7188 336.375 108.8438 337.5 Q102.9375 337.5 95.3438 326.25 L94.7812 326.25 Q74.5312 342.5625 65.5312 342.5625 Q57.0938 342.5625 50.9062 324.5625 Q37.4062 302.9062 37.4062 298.125 Q37.4062 281.5312 79.5938 244.125 Q89.7188 238.2188 89.7188 233.4375 Q89.7188 220.2188 105.4688 172.6875 Q106.0312 172.6875 106.0312 171 L106.0312 170.4375 Q99 171.5625 94.2188 171.5625 L92.5312 171.5625 Q67.5 171.5625 57.0938 155.8125 Q58.5 153 61.5938 150.75 Q70.875 158.625 88.5938 158.625 Q113.9062 158.625 113.9062 151.875 Q126.2812 139.5 133.5938 139.5 ZM98.7188 269.4375 Q99.8438 302.625 103.7812 303.75 Q149.9062 264.9375 149.9062 219.9375 Q149.3438 219.9375 149.3438 219.375 Q115.875 230.0625 99.8438 246.9375 Q98.7188 257.3438 98.7188 269.4375 ZM52.5938 303.1875 L52.5938 305.4375 Q56.5312 325.6875 65.5312 325.6875 L70.5938 325.6875 Q79.0312 325.6875 90.8438 313.3125 Q85.2188 296.1562 85.2188 264.375 Q85.2188 262.4062 85.7812 254.8125 Q76.5 258.4688 61.0312 280.6875 Q52.5938 295.0312 52.5938 303.1875 Z" stroke="none" />
    </g>
  </g>
</svg>
