<?xml version="1.0"?>

<!DOCTYPE svg PUBLIC '-//W3C//DTD SVG 1.0//EN' 'http://www.w3.org/TR/2001/REC-SVG-20010904/DTD/svg10.dtd'>
<svg fill-opacity="1" xmlns:xlink="http://www.w3.org/1999/xlink" color-rendering="auto" color-interpolation="auto" text-rendering="auto" stroke="black" stroke-linecap="square" stroke-miterlimit="10" shape-rendering="auto" stroke-opacity="1" fill="black" stroke-dasharray="none" font-weight="normal" stroke-width="1" xmlns="http://www.w3.org/2000/svg" font-family="&apos;Dialog&apos;" font-style="normal" stroke-linejoin="miter" font-size="12" stroke-dashoffset="0" image-rendering="auto">
  <!--Unicode Character 'HENTAIGANA LETTER KA-9' (U+1B01F)-->
  <defs id="genericDefs" />
  <g>
    <g>
      <path d="M200.25 140.3438 Q223.5938 140.3438 232.875 151.0312 Q234.2812 152.7188 235.6875 158.9062 Q235.6875 174.375 191.8125 189.8438 Q180 192.6562 177.75 192.6562 L177.1875 192.6562 Q175.5 189.2812 175.5 188.1562 Q215.4375 174.6562 215.4375 161.1562 L215.4375 158.9062 Q213.75 148.7812 201.9375 148.7812 L195.75 148.7812 Q163.9688 148.7812 88.3125 189.2812 Q82.4062 190.9688 77.625 190.9688 Q61.5938 190.9688 50.0625 164.5312 Q50.0625 163.6875 53.4375 161.1562 L54 161.1562 Q64.9688 174.0938 78.1875 174.0938 Q90.8438 174.0938 136.6875 154.9688 Q181.6875 140.3438 200.25 140.3438 ZM148.5 198.2812 Q150.4688 198.2812 177.75 212.3438 Q194.0625 214.5938 194.0625 220.7812 L194.0625 222.4688 Q194.0625 238.5 156.375 252.2812 Q151.3125 253.4062 150.75 253.4062 L150.75 260.7188 Q150.75 301.2188 151.875 337.7812 Q150.4688 352.4062 139.5 352.4062 Q136.6875 352.4062 129.375 337.2188 Q118.125 324 102.375 314.1562 Q104.3438 309.0938 105.1875 309.0938 Q134.1562 325.4062 137.8125 325.4062 Q136.6875 305.4375 136.6875 261.8438 L136.6875 254.5312 Q135.2812 254.5312 132.1875 255.0938 Q100.6875 255.0938 90 234.2812 L90 233.7188 Q90 232.875 93.9375 229.7812 Q101.25 241.0312 120.9375 241.0312 L132.75 241.0312 Q137.25 241.0312 137.25 238.7812 Q137.25 207.2812 142.875 200.5312 Q146.25 198.2812 148.5 198.2812 ZM150.75 237.0938 L150.75 238.7812 L151.3125 238.7812 Q179.4375 232.3125 179.4375 224.1562 L179.4375 223.0312 Q179.4375 220.2188 156.9375 208.9688 L154.6875 208.9688 Q150.75 208.9688 150.75 237.0938 ZM189 283.7812 Q212.3438 288.2812 225 300.6562 Q237.9375 315.5625 237.9375 327.0938 Q237.9375 338.3438 228.9375 338.3438 Q222.4688 338.3438 218.8125 321.4688 Q208.4062 299.8125 187.875 289.9688 Q185.9062 289.4062 185.625 289.4062 Q185.625 286.5938 189 283.7812 ZM117 288.2812 Q118.125 290.25 118.125 292.7812 Q85.5 315 80.4375 321.4688 Q76.2188 332.1562 74.8125 333.8438 Q71.1562 334.9688 69.75 334.9688 Q58.5 334.9688 55.6875 315.8438 Q55.6875 300.375 67.5 290.5312 Q70.875 291.9375 70.875 292.7812 Q69.1875 296.4375 69.1875 301.7812 L69.1875 304.5938 Q69.1875 308.8125 72 310.2188 L73.125 310.2188 Q80.7188 308.25 116.4375 288.2812 L117 288.2812 Z" stroke="none" />
    </g>
  </g>
</svg>
