<?xml version="1.0" encoding="UTF-8" standalone="no"?>
<svg
   xmlns:dc="http://purl.org/dc/elements/1.1/"
   xmlns:cc="http://creativecommons.org/ns#"
   xmlns:rdf="http://www.w3.org/1999/02/22-rdf-syntax-ns#"
   xmlns:svg="http://www.w3.org/2000/svg"
   xmlns="http://www.w3.org/2000/svg"
   xmlns:sodipodi="http://sodipodi.sourceforge.net/DTD/sodipodi-0.dtd"
   xmlns:inkscape="http://www.inkscape.org/namespaces/inkscape"
   fill-opacity="1"
   color-rendering="auto"
   color-interpolation="auto"
   text-rendering="auto"
   stroke="black"
   stroke-linecap="square"
   stroke-miterlimit="10"
   shape-rendering="auto"
   stroke-opacity="1"
   fill="black"
   stroke-dasharray="none"
   font-weight="normal"
   stroke-width="1"
   font-family="'Dialog'"
   font-style="normal"
   stroke-linejoin="miter"
   font-size="12"
   stroke-dashoffset="0"
   image-rendering="auto"
   version="1.1"
   id="svg9"
   sodipodi:docname="hentaigana_letter_ni2.svg"
   inkscape:version="0.92.4 (5da689c313, 2019-01-14)"
   width="100%"
   height="100%"
   viewBox="0 0 100 100"
   preserveAspectRatio="xMidYMid meet"
   >
  <metadata
     id="metadata13">
    <rdf:RDF>
      <cc:Work
         rdf:about="">
        <dc:format>image/svg+xml</dc:format>
        <dc:type
           rdf:resource="http://purl.org/dc/dcmitype/StillImage" />
      </cc:Work>
    </rdf:RDF>
  </metadata>
  <sodipodi:namedview
     pagecolor="#ffffff"
     bordercolor="#666666"
     borderopacity="1"
     objecttolerance="10"
     gridtolerance="10"
     guidetolerance="10"
     inkscape:pageopacity="0"
     inkscape:pageshadow="2"
     inkscape:window-width="1920"
     inkscape:window-height="986"
     id="namedview11"
     showgrid="false"
     inkscape:zoom="2.36"
     inkscape:cx="50"
     inkscape:cy="50"
     inkscape:window-x="-11"
     inkscape:window-y="-11"
     inkscape:window-maximized="1"
     inkscape:current-layer="svg9" />
  <!--Unicode Character 'HENTAIGANA LETTER NI-2' (U+1B088)-->
  <defs
     id="genericDefs" />
  <g
     id="g7"
     transform="matrix(0.59617164,0,0,0.63576889,-35.916513,-106.87272)">
    <g
       id="g5">
      <path
         d="m 90.2812,169.5938 q 12.9376,9 31.5,9 h 3.375 q 29.8126,0 60.75,-8.4376 h 3.375 q 14.0626,2.25 14.0626,11.25 0,4.7813 -19.6876,10.125 -20.8124,13.5 -42.1874,29.25 h -0.5626 q -4.7812,-3.375 -5.0624,-4.5 l 30.375,-25.875 v -0.5624 q -18,2.25 -29.8126,2.25 -37.6874,0 -49.5,-18 1.9688,-4.2188 3.375,-4.5 z m -3.9374,111.9374 h 0.5624 q 4.5,3.0938 4.5,4.5 -10.125,13.7813 -10.125,17.4376 l 1.6876,1.125 q 41.9062,-9 75.375,-9 h 15.75 q 42.1874,0 51.1874,14.625 l 0.5626,2.8124 q 0,4.5 -7.3126,6.1876 -31.7812,-9 -58.5,-9 -43.3124,0 -86.0624,12.9374 h -1.125 q -10.6876,-4.5 -10.6876,-11.8124 1.125,-9 24.1876,-29.8126 z"
         id="path3"
         inkscape:connector-curvature="0"
         style="stroke:none" />
    </g>
  </g>
</svg>
