<?xml version="1.0"?>

<!DOCTYPE svg PUBLIC '-//W3C//DTD SVG 1.0//EN' 'http://www.w3.org/TR/2001/REC-SVG-20010904/DTD/svg10.dtd'>
<svg fill-opacity="1" xmlns:xlink="http://www.w3.org/1999/xlink" color-rendering="auto" color-interpolation="auto" text-rendering="auto" stroke="black" stroke-linecap="square" stroke-miterlimit="10" shape-rendering="auto" stroke-opacity="1" fill="black" stroke-dasharray="none" font-weight="normal" stroke-width="1" xmlns="http://www.w3.org/2000/svg" font-family="&apos;Dialog&apos;" font-style="normal" stroke-linejoin="miter" font-size="12" stroke-dashoffset="0" image-rendering="auto">
  <!--Unicode Character 'HENTAIGANA LETTER WE-2' (U+1B113)-->
  <defs id="genericDefs" />
  <g>
    <g>
      <path d="M127.125 135 Q150.1875 139.5 150.1875 149.625 Q147.375 164.5312 147.375 177.1875 Q150.75 177.1875 167.0625 165.9375 Q168.1875 165.9375 171 164.8125 Q175.2188 164.8125 177.75 169.875 Q177.75 180.8438 147.375 190.125 Q146.25 212.3438 146.25 225.5625 Q147.375 225.5625 147.375 226.125 L148.5 225.5625 Q154.6875 225.5625 158.0625 231.1875 L158.0625 232.3125 Q158.0625 234.2812 145.6875 259.875 Q145.125 268.3125 145.125 275.625 L145.125 277.3125 L145.6875 277.3125 Q173.25 249.75 198.5625 249.75 Q228.6562 249.75 240.1875 282.375 Q243 292.7812 243 300.9375 Q243 333 213.1875 351.5625 Q201.0938 357.1875 193.5 357.1875 L190.6875 357.1875 Q190.125 357.1875 190.125 357.75 Q171.8438 357.75 158.625 341.4375 Q154.125 333.5625 154.125 326.8125 Q155.5312 315.5625 157.5 315.5625 L158.0625 315.5625 Q163.6875 315.5625 163.6875 318.9375 L163.125 322.3125 Q163.125 345.9375 190.6875 345.9375 Q214.5938 345.9375 225.5625 311.0625 Q226.6875 304.0312 226.6875 300.9375 Q226.6875 267.1875 203.0625 259.3125 L196.875 259.3125 Q172.125 259.3125 146.8125 290.8125 Q145.125 292.7812 145.125 294.75 L145.125 299.25 Q144.2812 309.9375 140.0625 309.9375 Q136.6875 309.9375 129.9375 303.75 Q129.0938 303.75 110.25 322.3125 Q109.4062 322.875 108 322.875 L106.875 322.875 Q101.8125 319.7812 101.8125 313.3125 Q101.8125 309.375 111.9375 294.1875 Q112.5 293.0625 112.5 292.5 Q91.125 270.5625 91.125 268.875 L90.5625 264.9375 Q90.5625 253.6875 133.3125 230.0625 Q134.4375 206.4375 134.4375 191.25 L128.8125 191.25 Q115.875 191.25 102.375 182.8125 L101.25 181.125 L101.25 180.5625 L102.375 176.625 Q116.1562 180.5625 132.1875 180.5625 Q135 180.5625 135.5625 178.875 L135.5625 154.125 Q135.5625 146.5312 123.75 140.0625 L123.75 139.5 Q126.2812 135 127.125 135 ZM52.3125 147.375 L52.875 147.375 Q72.5625 163.4062 72.5625 172.6875 L60.1875 216.5625 Q51.1875 260.7188 51.1875 284.625 L51.1875 294.75 Q51.1875 307.9688 54 319.5 L54.5625 319.5 Q55.9688 318.6562 74.8125 275.625 L75.9375 275.625 Q79.875 278.4375 79.875 279 Q65.25 315 65.25 342.5625 Q64.125 354.375 57.9375 354.375 L57.375 354.375 Q44.4375 354.375 39.9375 291.9375 Q39.375 284.9062 39.375 283.5 Q39.375 254.25 55.125 174.9375 L55.125 171 Q55.125 159.1875 48.375 150.75 L52.3125 147.375 ZM212.0625 162 Q243.5625 162 248.625 187.875 Q246.9375 198 238.5 198 L234.5625 198 Q219.9375 198 219.9375 194.0625 Q219.375 192.0938 219.375 191.8125 Q232.3125 190.9688 232.3125 186.75 Q232.3125 178.0312 216 169.875 Q209.25 167.9062 209.25 167.0625 Q209.25 162 212.0625 162 ZM102.375 269.4375 Q108 279.2812 117 286.3125 L117.5625 286.3125 Q132.1875 264.6562 132.1875 259.3125 Q132.75 253.9688 132.75 244.6875 L132.75 242.4375 L131.625 242.4375 Q102.375 260.7188 102.375 268.875 L102.375 269.4375 ZM122.0625 291.9375 Q122.9062 294.75 126 294.75 Q132.1875 289.125 132.1875 286.3125 L132.1875 277.3125 L131.625 277.3125 Q129.6562 278.7188 122.0625 291.9375 Z" stroke="none" />
    </g>
  </g>
</svg>
