<?xml version="1.0"?>

<!DOCTYPE svg PUBLIC '-//W3C//DTD SVG 1.0//EN' 'http://www.w3.org/TR/2001/REC-SVG-20010904/DTD/svg10.dtd'>
<svg fill-opacity="1" xmlns:xlink="http://www.w3.org/1999/xlink" color-rendering="auto" color-interpolation="auto" text-rendering="auto" stroke="black" stroke-linecap="square" stroke-miterlimit="10" shape-rendering="auto" stroke-opacity="1" fill="black" stroke-dasharray="none" font-weight="normal" stroke-width="1" xmlns="http://www.w3.org/2000/svg" font-family="&apos;Dialog&apos;" font-style="normal" stroke-linejoin="miter" font-size="12" stroke-dashoffset="0" image-rendering="auto">
  <!--Unicode Character 'HENTAIGANA LETTER MA-3' (U+1B0C4)-->
  <defs id="genericDefs" />
  <g>
    <g>
      <path d="M124.875 142.3125 Q154.125 146.8125 154.125 151.3125 Q158.0625 153.5625 158.0625 160.875 L158.0625 162 Q158.0625 164.8125 154.125 190.125 Q175.7812 182.8125 185.625 182.8125 Q212.3438 182.8125 221.0625 203.0625 Q222.75 207.8438 223.3125 214.3125 Q223.3125 239.625 194.0625 252 Q183.375 254.25 177.1875 254.25 Q166.7812 254.25 151.3125 250.3125 L151.3125 250.875 Q151.3125 270.5625 153 293.625 Q178.0312 298.6875 217.6875 323.4375 Q226.6875 332.4375 226.6875 340.3125 Q225.8438 347.0625 221.0625 347.0625 Q216 347.0625 203.625 333.5625 Q183.9375 318.6562 158.0625 308.25 L154.125 307.6875 L154.125 313.875 Q154.125 350.4375 111.375 350.4375 Q77.9062 348.1875 69.1875 325.125 Q67.5 319.7812 66.9375 315.5625 Q66.9375 296.7188 100.125 289.6875 Q109.4062 288.5625 115.875 288.5625 Q122.9062 288.5625 139.5 290.8125 L139.5 290.25 L138.375 248.0625 Q138.6562 240.4688 139.5 208.125 L138.9375 208.125 Q137.8125 208.125 109.125 223.875 Q95.3438 230.0625 87.1875 230.0625 Q72.2812 230.0625 61.3125 207.5625 L61.3125 206.4375 Q64.4062 201.9375 65.25 201.9375 Q73.125 215.4375 89.4375 215.4375 Q108 215.4375 139.5 196.875 Q141.4688 196.875 141.75 166.5 Q141.75 154.6875 124.875 149.0625 Q121.5 148.7812 121.5 146.8125 Q123.4688 142.3125 124.875 142.3125 ZM151.875 238.5 Q151.3125 242.4375 151.3125 243 Q158.9062 246.9375 173.8125 246.9375 L177.1875 246.9375 Q205.875 246.9375 205.875 212.0625 Q205.875 198 192.375 192.9375 Q189.5625 191.8125 182.8125 191.25 Q169.5938 191.25 153.5625 199.6875 Q151.875 221.3438 151.875 238.5 ZM76.5 313.3125 L76.5 317.8125 Q76.5 331.5938 97.3125 338.625 Q99.8438 339.75 106.3125 339.75 L112.5 339.75 Q131.0625 339.75 137.25 324.5625 Q139.5 319.5 139.5 312.1875 L139.5 303.75 Q137.25 300.375 108.5625 299.25 L105.1875 299.25 Q83.25 299.25 77.0625 309.9375 L76.5 313.3125 Z" stroke="none" />
    </g>
  </g>
</svg>
