<?xml version="1.0"?>

<!DOCTYPE svg PUBLIC '-//W3C//DTD SVG 1.0//EN' 'http://www.w3.org/TR/2001/REC-SVG-20010904/DTD/svg10.dtd'>
<svg fill-opacity="1" xmlns:xlink="http://www.w3.org/1999/xlink" color-rendering="auto" color-interpolation="auto" text-rendering="auto" stroke="black" stroke-linecap="square" stroke-miterlimit="10" shape-rendering="auto" stroke-opacity="1" fill="black" stroke-dasharray="none" font-weight="normal" stroke-width="1" xmlns="http://www.w3.org/2000/svg" font-family="&apos;Dialog&apos;" font-style="normal" stroke-linejoin="miter" font-size="12" stroke-dashoffset="0" image-rendering="auto">
  <!--Unicode Character 'HENTAIGANA LETTER RI-3' (U+1B0F3)-->
  <defs id="genericDefs" />
  <g>
    <g>
      <path d="M126 128.8125 Q153 133.0312 153 145.6875 Q153 149.625 150.75 163.6875 Q151.875 163.6875 151.875 164.25 Q154.125 164.25 178.3125 152.4375 L181.125 152.4375 Q190.125 152.4375 192.375 159.75 Q192.375 167.9062 150.1875 177.75 L150.1875 197.4375 Q150.4688 201.375 151.3125 201.375 Q176.0625 195.75 191.25 195.75 Q224.7188 195.75 232.875 209.8125 Q233.4375 210.6562 233.4375 213.1875 Q233.4375 219.6562 205.3125 224.4375 Q175.7812 233.7188 151.875 246.375 Q138.9375 253.125 135 257.625 L135 258.75 L140.625 258.75 Q147.0938 258.75 157.5 256.5 Q165.375 261 165.375 265.5 L165.375 266.625 Q161.7188 271.4062 147.9375 280.125 Q147.375 281.25 147.375 281.8125 Q150.4688 284.625 156.375 293.0625 L167.0625 293.0625 Q194.0625 293.0625 216 301.5 Q220.5 306 220.5 309.375 Q220.5 315 213.1875 316.125 Q195.4688 309.6562 182.25 307.6875 Q172.125 306.5625 164.8125 306.5625 L159.75 306.5625 Q162 319.2188 162 326.25 L162 329.625 Q162 341.4375 154.6875 352.6875 Q145.6875 363.9375 134.4375 363.9375 L133.875 363.9375 Q127.9688 363.9375 124.3125 355.5 Q116.4375 348.4688 82.125 331.3125 Q76.7812 325.9688 75.9375 320.625 Q75.9375 303.75 141.75 293.625 L141.75 292.5 L137.8125 281.8125 Q137.8125 280.6875 145.6875 270 L145.6875 269.4375 L145.125 269.4375 Q139.5 269.4375 133.3125 271.125 Q122.0625 268.3125 122.0625 261 Q122.9062 257.0625 136.125 247.5 L136.125 246.375 Q124.875 233.4375 112.5 228.375 Q109.6875 226.6875 108 226.6875 Q90.5625 235.9688 63.5625 257.0625 L60.75 257.625 Q56.8125 257.625 54.5625 246.375 Q54.5625 240.4688 65.25 235.6875 Q84.6562 222.75 112.5 194.0625 Q113.625 192.6562 113.625 192.375 L113.625 188.4375 Q112.5 187.3125 112.5 185.0625 Q114.4688 183.9375 115.875 183.9375 Q123.75 189 123.75 194.625 Q123.75 198 93.375 225 L95.0625 225 Q113.3438 214.5938 138.375 205.3125 L138.375 180 L124.875 180 Q104.9062 180 96.1875 161.4375 Q96.1875 160.5938 99 158.625 Q109.6875 167.625 127.125 167.625 Q135.5625 167.0625 138.375 166.5 L138.375 160.875 Q138.375 140.625 125.4375 136.125 Q122.0625 135.5625 122.0625 134.4375 Q122.9062 128.8125 126 128.8125 ZM150.75 212.625 Q150.75 214.3125 151.875 238.5 L151.875 239.0625 Q182.5312 223.5938 207 214.875 Q209.8125 212.625 209.8125 210.375 Q207 207.5625 196.3125 207.5625 L187.875 207.5625 Q150.75 208.4062 150.75 212.625 ZM116.4375 223.3125 Q126 229.5 137.8125 232.875 L138.375 232.875 L138.375 214.875 L137.8125 214.875 Q132.4688 214.875 116.4375 223.3125 ZM87.75 320.625 L87.75 322.3125 Q87.75 330.1875 136.125 346.5 L140.0625 346.5 Q146.8125 341.7188 146.8125 326.25 Q145.9688 307.125 143.4375 307.125 Q111.375 307.125 88.875 318.9375 L87.75 320.625 Z" stroke="none" />
    </g>
  </g>
</svg>
