<?xml version="1.0"?>

<!DOCTYPE svg PUBLIC '-//W3C//DTD SVG 1.0//EN' 'http://www.w3.org/TR/2001/REC-SVG-20010904/DTD/svg10.dtd'>
<svg fill-opacity="1" xmlns:xlink="http://www.w3.org/1999/xlink" color-rendering="auto" color-interpolation="auto" text-rendering="auto" stroke="black" stroke-linecap="square" stroke-miterlimit="10" shape-rendering="auto" stroke-opacity="1" fill="black" stroke-dasharray="none" font-weight="normal" stroke-width="1" xmlns="http://www.w3.org/2000/svg" font-family="&apos;Dialog&apos;" font-style="normal" stroke-linejoin="miter" font-size="12" stroke-dashoffset="0" image-rendering="auto">
  <!--Unicode Character 'HENTAIGANA LETTER WE-3' (U+1B114)-->
  <defs id="genericDefs" />
  <g>
    <g>
      <path d="M111.375 129.375 Q141.1875 134.7188 141.1875 149.625 L141.1875 151.3125 Q133.875 202.7812 133.875 217.6875 Q133.3125 221.625 133.3125 230.625 L134.4375 230.625 Q172.9688 204.75 206.4375 204.75 L209.25 204.75 Q239.9062 204.75 246.375 230.625 L246.9375 234 Q246.9375 257.3438 217.6875 271.125 Q210.0938 273.9375 198.5625 275.0625 Q160.875 275.0625 133.3125 240.1875 Q131.625 240.4688 131.0625 242.4375 L129.9375 289.125 Q131.0625 324.5625 133.3125 345.9375 Q133.3125 356.0625 122.625 363.375 L121.5 363.375 Q116.7188 363.375 113.0625 349.3125 Q97.875 333.2812 82.6875 324 L80.4375 324 Q64.9688 334.4062 47.25 351 Q45 352.125 43.875 352.125 Q37.6875 350.7188 37.6875 343.125 Q37.6875 325.4062 56.8125 304.875 Q59.3438 306.5625 60.1875 306.5625 L60.1875 308.25 Q54 318.375 54 325.6875 Q54 326.5312 55.6875 327.375 L56.8125 327.375 Q59.9062 327.375 78.1875 315.5625 Q116.1562 295.3125 116.4375 295.3125 L117 291.9375 Q117 280.125 118.6875 249.1875 Q115.0312 249.1875 61.3125 291.375 Q46.6875 305.4375 43.3125 305.4375 L41.625 305.4375 Q38.25 303.75 38.25 299.25 Q38.25 287.1562 48.9375 280.6875 Q69.75 248.0625 85.5 228.375 L85.5 227.25 L84.9375 227.25 Q75.9375 228.9375 70.3125 228.9375 Q57.9375 228.0938 57.9375 216.5625 Q57.9375 208.6875 68.625 199.125 L72.5625 201.9375 Q69.75 206.1562 69.75 208.125 L69.75 211.5 Q72 216 77.0625 216 L84.9375 216 L102.375 210.375 Q110.25 212.3438 110.25 217.125 Q110.25 220.2188 93.375 233.4375 Q65.25 266.625 61.875 277.875 L62.4375 277.875 Q119.8125 237.9375 120.375 236.8125 Q124.875 182.8125 124.875 158.625 Q124.875 142.0312 107.4375 134.4375 Q109.6875 129.375 111.375 129.375 ZM67.5 156.375 Q80.4375 174.9375 99 174.9375 Q113.0625 176.3438 113.0625 185.625 Q110.8125 192.375 104.0625 192.375 Q78.4688 192.375 64.125 159.75 L64.125 159.1875 L67.5 156.375 ZM139.5 236.8125 Q159.75 263.8125 193.5 263.8125 L198 263.8125 Q217.6875 263.8125 227.25 242.4375 Q228.375 240.4688 228.375 237.9375 L228.375 231.1875 Q228.375 212.625 204.75 212.625 Q172.125 212.625 140.0625 235.6875 L139.5 236.8125 ZM165.9375 287.4375 L168.75 287.4375 Q180 287.4375 188.4375 298.6875 L191.25 298.6875 Q216.2812 289.6875 227.25 289.6875 Q243.5625 289.6875 249.75 303.1875 Q250.3125 305.4375 250.3125 307.125 Q250.3125 331.3125 168.75 351.5625 Q166.7812 351.2812 163.6875 345.375 Q212.9062 330.75 226.6875 317.25 Q231.1875 311.3438 231.1875 304.875 Q231.1875 299.5312 222.1875 298.125 L216 298.125 Q204.1875 298.125 185.0625 316.6875 Q183.0938 317.25 182.8125 317.25 Q179.4375 317.25 171 299.8125 Q164.8125 295.3125 160.875 295.3125 L156.375 295.3125 L149.625 295.875 Q148.5 293.9062 148.5 292.5 L148.5 291.9375 Q148.5 289.6875 165.9375 287.4375 ZM88.3125 320.0625 Q99.2812 324 116.4375 335.25 L117.5625 335.25 Q116.4375 325.125 116.4375 303.75 L115.875 303.75 Q112.2188 303.75 88.3125 318.375 L88.3125 320.0625 Z" stroke="none" />
    </g>
  </g>
</svg>
