<?xml version="1.0" encoding="UTF-8" standalone="no"?>
<svg
   xmlns:dc="http://purl.org/dc/elements/1.1/"
   xmlns:cc="http://creativecommons.org/ns#"
   xmlns:rdf="http://www.w3.org/1999/02/22-rdf-syntax-ns#"
   xmlns:svg="http://www.w3.org/2000/svg"
   xmlns="http://www.w3.org/2000/svg"
   xmlns:sodipodi="http://sodipodi.sourceforge.net/DTD/sodipodi-0.dtd"
   xmlns:inkscape="http://www.inkscape.org/namespaces/inkscape"
   fill-opacity="1"
   color-rendering="auto"
   color-interpolation="auto"
   text-rendering="auto"
   stroke="black"
   stroke-linecap="square"
   stroke-miterlimit="10"
   shape-rendering="auto"
   stroke-opacity="1"
   fill="black"
   stroke-dasharray="none"
   font-weight="normal"
   stroke-width="1"
   font-family="'Dialog'"
   font-style="normal"
   stroke-linejoin="miter"
   font-size="12"
   stroke-dashoffset="0"
   image-rendering="auto"
   version="1.1"
   id="svg9"
   sodipodi:docname="hentaigana_letter_te1.svg"
   inkscape:version="0.92.4 (5da689c313, 2019-01-14)"
   width="100%"
   height="100%"
   viewBox="0 0 100 100"
   preserveAspectRatio="xMidYMid meet"
   >
  <metadata
     id="metadata13">
    <rdf:RDF>
      <cc:Work
         rdf:about="">
        <dc:format>image/svg+xml</dc:format>
        <dc:type
           rdf:resource="http://purl.org/dc/dcmitype/StillImage" />
      </cc:Work>
    </rdf:RDF>
  </metadata>
  <sodipodi:namedview
     pagecolor="#ffffff"
     bordercolor="#666666"
     borderopacity="1"
     objecttolerance="10"
     gridtolerance="10"
     guidetolerance="10"
     inkscape:pageopacity="0"
     inkscape:pageshadow="2"
     inkscape:window-width="1920"
     inkscape:window-height="986"
     id="namedview11"
     showgrid="false"
     inkscape:zoom="2.36"
     inkscape:cx="50"
     inkscape:cy="50"
     inkscape:window-x="-11"
     inkscape:window-y="-11"
     inkscape:window-maximized="1"
     inkscape:current-layer="svg9" />
  <!--Unicode Character 'HENTAIGANA LETTER TE-1' (U+1B06E)-->
  <defs
     id="genericDefs" />
  <g
     id="g7"
     transform="matrix(0.39777147,0,0,0.4115429,-7.1350232,-51.205322)">
    <g
       id="g5">
      <path
         d="m 116.1562,126.8438 q 10.125,6.1874 20.25,6.1874 h 7.3126 q 4.2187,0 16.875,-3.375 7.3124,0 10.6874,9.5626 0,6.4687 -15.75,8.4374 -27.5624,11.25 -30.375,11.25 -2.8124,-1.6874 -2.8124,-3.9374 15.75,-7.875 15.75,-9.5626 v -0.5624 q -13.7813,0 -24.75,-14.0626 v -1.125 q 0,-0.8437 2.8124,-2.8124 z m 114.75,30.9374 q 12.0938,0 16.875,11.8126 v 1.125 q 0,5.3437 -9,6.1874 -22.7812,-3.9374 -45,-3.9374 -48.0937,0 -132.1874,28.125 -0.8438,0.5624 -2.25,0.5624 -12.375,0 -19.125,-23.0624 3.0937,-3.375 5.625,-3.375 3.0937,7.875 10.125,7.875 h 5.625 q 3.0937,0 104.0624,-16.3126 34.875,-5.625 65.25,-9 z m -110.25,36.5626 q 6.1876,3.9374 10.125,3.9374 h 6.1876 q 4.5,0 13.5,-2.8124 7.875,2.8124 7.875,9.5624 v 1.125 q -20.25,18.5626 -21.9376,25.875 v 0.5626 h 0.5626 q 17.7187,-3.375 30.375,-3.375 h 1.6874 q 23.625,0 30.9376,18 1.6874,7.5937 1.6874,10.125 0,28.125 -45,43.3124 v 1.6876 q 0,33.4687 -23.0624,50.625 -10.4063,9.2812 -21.375,12.9374 -3.375,-3.6562 -3.375,-5.0624 23.3437,-12.6563 28.125,-28.125 4.5,-10.125 4.5,-27.5626 h -0.5626 q -19.125,3.9376 -28.125,3.9376 -19.6874,0 -19.6874,-7.3126 0.2812,-4.2187 21.9374,-18.5624 19.4063,-19.6876 22.5,-19.6876 l 1.125,-0.5624 q 12.6563,0 17.4376,24.75 v 2.8124 h 1.125 q 8.4374,0 22.5,-15.75 4.5,-7.5937 4.5,-18 v -2.25 q 0,-14.0624 -14.0626,-16.875 h -4.5 q -13.7812,0 -28.125,8.4376 h -1.6874 q -7.3126,0 -14.0626,-12.9376 0,-0.8437 11.25,-16.3124 1.125,-3.6563 1.125,-5.0626 v -0.5624 q 0,-0.8438 -9.5624,-2.8126 -7.3126,-5.625 -7.3126,-11.8124 0,-1.125 3.375,-2.25 z m -9.5624,104.625 1.125,0.5624 h 1.6874 q 17.4376,0 27,-4.5 -1.6874,-20.8124 -6.1874,-20.8124 h -2.25 q -1.125,0 -12.9376,14.625 -8.4374,7.0312 -8.4374,10.125 z"
         id="path3"
         inkscape:connector-curvature="0"
         style="stroke:none" />
    </g>
  </g>
</svg>
