<?xml version="1.0"?>

<!DOCTYPE svg PUBLIC '-//W3C//DTD SVG 1.0//EN' 'http://www.w3.org/TR/2001/REC-SVG-20010904/DTD/svg10.dtd'>
<svg fill-opacity="1" xmlns:xlink="http://www.w3.org/1999/xlink" color-rendering="auto" color-interpolation="auto" text-rendering="auto" stroke="black" stroke-linecap="square" stroke-miterlimit="10" shape-rendering="auto" stroke-opacity="1" fill="black" stroke-dasharray="none" font-weight="normal" stroke-width="1" xmlns="http://www.w3.org/2000/svg" font-family="&apos;Dialog&apos;" font-style="normal" stroke-linejoin="miter" font-size="12" stroke-dashoffset="0" image-rendering="auto">
  <!--Unicode Character 'HENTAIGANA LETTER YU-4' (U+1B0E6)-->
  <defs id="genericDefs" />
  <g>
    <g>
      <path d="M84.375 134.1562 Q109.6875 139.5 109.6875 154.4062 Q109.6875 160.0312 107.4375 181.9688 L108 181.9688 Q122.0625 175.2188 123.75 175.2188 Q129.6562 175.2188 133.3125 180.2812 L133.3125 181.9688 Q133.3125 189 106.875 196.5938 L106.875 197.1562 Q106.3125 212.625 106.3125 223.0312 L106.3125 225.2812 Q109.125 225.2812 160.875 185.9062 Q194.0625 162.8438 203.0625 162.8438 Q211.5 162.8438 220.5 177.4688 L220.5 179.1562 Q220.5 183.6562 201.375 202.2188 Q187.3125 219.0938 187.3125 221.9062 L187.3125 224.7188 Q187.3125 227.25 195.75 238.2188 Q209.25 236.5312 218.8125 236.5312 L225.5625 236.5312 Q241.875 236.5312 241.875 244.9688 Q240.4688 250.5938 236.25 250.5938 Q221.3438 250.0312 211.5 250.0312 L199.6875 250.0312 L199.6875 250.5938 Q203.0625 265.5 203.0625 272.5312 Q201.6562 311.0625 184.5 319.7812 L181.6875 319.7812 Q179.1562 319.7812 163.125 302.9062 Q134.7188 284.3438 133.3125 282.0938 Q132.1875 280.6875 131.0625 277.5938 Q131.0625 266.9062 156.375 251.1562 Q179.7188 240.4688 184.5 240.4688 Q184.5 237.9375 177.75 224.7188 L177.75 224.1562 Q179.4375 217.6875 196.875 190.9688 Q202.5 180.5625 202.5 177.4688 L202.5 175.2188 Q201.0938 172.4062 198 172.4062 Q186.4688 172.4062 109.125 237.0938 L106.3125 240.4688 L106.3125 266.9062 Q106.3125 280.6875 106.875 306.2812 Q105.1875 323.7188 94.5 323.7188 L93.9375 323.7188 Q89.7188 323.7188 81 296.7188 Q71.1562 277.3125 69.1875 276.4688 Q63 281.5312 59.0625 281.5312 L57.9375 281.5312 Q47.8125 274.2188 47.8125 251.7188 Q47.8125 247.7812 54.5625 247.7812 Q54.5625 260.1562 61.875 260.1562 Q64.4062 260.1562 93.9375 235.4062 L93.9375 199.4062 Q86.625 200.5312 81 200.5312 Q65.8125 200.5312 57.375 185.3438 L57.375 184.7812 L60.1875 181.9688 Q67.7812 188.7188 79.875 188.7188 Q93.9375 188.1562 93.9375 186.4688 L93.9375 163.4062 Q93.9375 143.7188 82.6875 140.9062 L80.4375 140.3438 L80.4375 139.2188 Q83.5312 134.1562 84.375 134.1562 ZM143.4375 278.7188 L143.4375 280.9688 Q146.8125 284.625 175.5 299.5312 Q175.5 300.9375 180 301.7812 L181.6875 301.7812 Q186.75 298.9688 188.4375 274.2188 Q188.4375 252.2812 186.1875 252.2812 Q156.6562 259.3125 145.125 274.7812 Q143.4375 276.75 143.4375 278.7188 ZM73.125 272.5312 Q84.0938 285.75 92.8125 297.8438 L93.375 297.8438 L93.375 253.4062 L92.25 253.4062 Q73.125 270.8438 73.125 272.5312 ZM54.5625 302.9062 Q58.5 304.875 58.5 305.7188 Q56.25 314.7188 56.25 318.0938 L56.25 321.4688 Q56.25 337.7812 104.0625 342.2812 Q116.7188 343.125 138.375 343.9688 Q167.9062 343.9688 214.875 335.5312 L216.5625 335.5312 Q230.0625 336.9375 230.0625 343.9688 Q230.0625 352.9688 201.9375 355.2188 Q165.6562 358.5938 139.5 358.5938 L138.375 358.5938 Q64.6875 358.5938 48.9375 333.2812 Q46.125 325.6875 46.125 322.0312 Q46.125 310.5 54.5625 302.9062 Z" stroke="none" />
    </g>
  </g>
</svg>
