<?xml version="1.0"?>

<!DOCTYPE svg PUBLIC '-//W3C//DTD SVG 1.0//EN' 'http://www.w3.org/TR/2001/REC-SVG-20010904/DTD/svg10.dtd'>
<svg fill-opacity="1" xmlns:xlink="http://www.w3.org/1999/xlink" color-rendering="auto" color-interpolation="auto" text-rendering="auto" stroke="black" stroke-linecap="square" stroke-miterlimit="10" shape-rendering="auto" stroke-opacity="1" fill="black" stroke-dasharray="none" font-weight="normal" stroke-width="1" xmlns="http://www.w3.org/2000/svg" font-family="&apos;Dialog&apos;" font-style="normal" stroke-linejoin="miter" font-size="12" stroke-dashoffset="0" image-rendering="auto">
  <!--Unicode Character 'HENTAIGANA LETTER MA-5' (U+1B0C6)-->
  <defs id="genericDefs" />
  <g>
    <g>
      <path d="M88.3125 140.0625 Q113.625 148.7812 113.625 162 Q113.625 172.4062 90 213.75 L90.5625 213.75 Q130.5 183.9375 162.5625 183.9375 Q214.875 183.9375 214.875 247.5 Q214.875 261.8438 209.8125 285.1875 Q253.125 309.6562 253.125 327.9375 Q251.1562 334.6875 249.1875 334.6875 L247.5 334.6875 Q243.2812 334.6875 225.5625 313.3125 Q208.6875 299.25 204.75 299.25 L203.625 299.25 Q193.5 323.7188 164.8125 342 Q144.2812 352.6875 125.4375 352.6875 Q102.6562 352.6875 94.5 330.1875 Q93.0938 321.1875 91.6875 321.1875 L90.5625 321.75 L88.3125 321.75 Q70.875 321.75 64.6875 309.9375 Q63.5625 304.875 63.5625 303.1875 Q63.5625 282.9375 96.1875 270 Q100.9688 249.1875 108 239.625 Q122.3438 216 138.9375 216 Q153 216 159.1875 233.4375 Q160.875 241.0312 161.4375 247.5 Q161.4375 248.9062 158.625 268.875 Q180.8438 273.9375 193.5 278.4375 L194.0625 278.4375 Q198 264.9375 198 246.9375 Q198 206.7188 181.6875 196.875 Q172.6875 192.375 163.6875 192.375 L161.4375 192.375 Q120.6562 192.375 78.75 236.8125 Q70.5938 249.4688 51.75 282.375 Q42.4688 294.1875 38.8125 294.1875 L38.25 294.1875 Q36.2812 294.1875 34.875 286.3125 Q34.875 270.8438 61.875 245.25 Q73.4062 233.1562 96.1875 172.125 Q97.875 167.3438 97.875 162 Q97.875 151.875 85.5 144 Q87.4688 140.0625 88.3125 140.0625 ZM105.1875 265.5 Q105.75 266.625 105.75 267.1875 Q115.5938 265.5 126.5625 264.9375 Q130.5 264.9375 144 266.0625 Q146.8125 256.7812 146.8125 245.8125 L146.8125 243 Q146.8125 225.5625 138.375 225.5625 L134.4375 225.5625 Q118.9688 225.5625 105.1875 265.5 ZM100.6875 298.125 L100.6875 308.8125 Q100.9688 309.9375 101.8125 309.9375 Q124.875 302.3438 137.25 284.0625 Q140.0625 278.7188 140.0625 277.3125 L140.0625 276.75 Q129.375 275.625 120.9375 275.625 Q102.9375 275.9062 102.9375 278.4375 Q100.6875 288.8438 100.6875 298.125 ZM71.4375 303.1875 Q71.4375 313.3125 85.5 313.3125 Q91.4062 312.75 92.25 312.1875 L91.6875 308.25 Q91.6875 300.9375 93.375 280.125 L92.8125 280.125 Q71.4375 287.4375 71.4375 303.1875 ZM154.125 280.6875 Q142.875 304.0312 110.8125 317.25 Q109.9688 317.25 101.8125 319.5 L101.8125 321.1875 Q101.8125 336.375 114.1875 341.4375 Q117.8438 343.125 122.0625 343.125 L129.375 343.125 Q153.5625 343.125 180 310.5 Q183.9375 305.4375 189.5625 291.375 Q164.25 280.6875 154.125 280.6875 Z" stroke="none" />
    </g>
  </g>
</svg>
