<?xml version="1.0"?>

<!DOCTYPE svg PUBLIC '-//W3C//DTD SVG 1.0//EN' 'http://www.w3.org/TR/2001/REC-SVG-20010904/DTD/svg10.dtd'>
<svg fill-opacity="1" xmlns:xlink="http://www.w3.org/1999/xlink" color-rendering="auto" color-interpolation="auto" text-rendering="auto" stroke="black" stroke-linecap="square" stroke-miterlimit="10" shape-rendering="auto" stroke-opacity="1" fill="black" stroke-dasharray="none" font-weight="normal" stroke-width="1" xmlns="http://www.w3.org/2000/svg" font-family="&apos;Dialog&apos;" font-style="normal" stroke-linejoin="miter" font-size="12" stroke-dashoffset="0" image-rendering="auto">
  <!--Unicode Character 'HENTAIGANA LETTER YU-2' (U+1B0E4)-->
  <defs id="genericDefs" />
  <g>
    <g>
      <path d="M137.25 135 Q156.6562 135 164.8125 145.125 Q168.1875 151.0312 168.1875 167.625 L168.1875 173.25 Q184.7812 172.125 189.5625 172.125 Q226.4062 172.125 239.0625 201.9375 Q243.5625 215.1562 243.5625 228.9375 Q243.5625 280.125 196.3125 312.75 Q171.5625 325.6875 153.5625 325.6875 Q144.2812 351.2812 138.375 357.75 Q132.1875 355.7812 132.1875 353.8125 Q138.9375 334.125 141.1875 326.25 Q140.625 324.5625 140.0625 324.5625 Q124.0312 324.5625 106.875 310.5 Q93.375 296.7188 93.375 284.625 Q93.375 266.0625 126 255.375 Q132.4688 253.6875 150.75 250.3125 Q152.4375 219.9375 152.4375 188.4375 L152.4375 186.75 L151.3125 186.75 Q127.6875 189.5625 91.6875 221.0625 Q68.0625 246.6562 68.0625 282.9375 L68.0625 289.125 Q68.0625 289.6875 68.625 293.625 Q67.7812 304.875 60.1875 304.875 Q49.5 300.375 49.5 288 Q49.5 284.0625 58.5 222.1875 Q59.625 205.5938 59.625 196.3125 Q59.625 177.75 44.4375 169.3125 L44.4375 168.75 Q45 164.5312 46.6875 164.25 Q75.375 171.5625 75.375 188.4375 Q75.375 191.5312 68.625 227.25 L68.625 232.3125 L69.1875 232.3125 Q106.5938 191.5312 136.125 181.6875 Q150.1875 177.4688 151.875 176.625 Q151.875 145.6875 145.6875 145.6875 Q144.2812 143.7188 133.3125 141.75 L133.3125 141.1875 Q133.3125 135 137.25 135 ZM168.75 182.8125 L168.75 188.4375 Q168.75 209.5312 167.0625 247.5 L166.5 247.5 Q167.0625 248.625 167.0625 249.1875 L183.375 249.1875 Q200.25 250.5938 200.25 257.625 L200.25 259.875 Q200.25 262.9688 191.25 263.8125 L186.75 263.8125 Q180.2812 263.8125 165.9375 263.25 Q161.4375 298.6875 156.9375 315 L158.625 315 Q178.0312 315 201.9375 290.8125 Q225.5625 262.125 225.5625 228.375 Q225.5625 181.125 189 181.125 Q179.1562 181.125 168.75 182.8125 ZM104.625 285.75 L104.625 289.6875 Q104.625 302.3438 128.8125 313.3125 Q131.9062 315 143.4375 315.5625 Q149.0625 287.4375 149.0625 264.375 Q104.625 268.875 104.625 285.75 Z" stroke="none" />
    </g>
  </g>
</svg>
