<?xml version="1.0"?>

<!DOCTYPE svg PUBLIC '-//W3C//DTD SVG 1.0//EN' 'http://www.w3.org/TR/2001/REC-SVG-20010904/DTD/svg10.dtd'>
<svg fill-opacity="1" xmlns:xlink="http://www.w3.org/1999/xlink" color-rendering="auto" color-interpolation="auto" text-rendering="auto" stroke="black" stroke-linecap="square" stroke-miterlimit="10" shape-rendering="auto" stroke-opacity="1" fill="black" stroke-dasharray="none" font-weight="normal" stroke-width="1" xmlns="http://www.w3.org/2000/svg" font-family="&apos;Dialog&apos;" font-style="normal" stroke-linejoin="miter" font-size="12" stroke-dashoffset="0" image-rendering="auto">
  <!--Unicode Character 'HENTAIGANA LETTER E-6' (U+1B013)-->
  <defs id="genericDefs" />
  <g>
    <g>
      <path d="M160.875 135.2812 Q173.8125 138.0938 173.8125 144.8438 L173.8125 145.9688 Q173.8125 152.1562 154.6875 154.9688 L129.375 165.6562 Q126.5625 162.5625 126.5625 162.2812 L126.5625 161.7188 Q136.6875 155.8125 140.0625 152.7188 L140.0625 152.1562 L136.125 152.1562 Q134.1562 152.1562 133.3125 152.7188 Q113.3438 152.7188 101.8125 139.2188 Q101.8125 138.6562 104.0625 135.8438 Q114.1875 140.9062 126.5625 140.9062 L128.25 140.9062 Q137.8125 140.9062 160.875 135.2812 ZM108 170.1562 Q123.4688 170.1562 131.0625 179.7188 Q131.625 182.8125 131.625 184.2188 Q131.625 186.75 129.375 192.6562 L130.5 193.2188 Q160.3125 180.5625 182.25 179.7188 Q199.4062 179.7188 205.3125 191.5312 Q206.4375 194.3438 206.4375 196.0312 Q206.4375 214.0312 169.3125 217.9688 Q162.5625 219.0938 152.4375 219.0938 Q149.625 219.0938 149.625 214.0312 L149.625 213.4688 Q189 209.25 189 196.0312 L189 194.9062 Q189 187.0312 179.4375 187.0312 Q164.8125 187.0312 126 206.7188 Q117 237.0938 117 257.3438 L118.125 257.3438 Q138.375 250.5938 155.8125 247.2188 L155.8125 244.9688 Q155.8125 242.1562 154.125 239.9062 Q154.125 238.2188 160.3125 238.2188 Q164.5312 245.5312 165.375 245.5312 Q179.1562 244.9688 181.125 244.9688 Q223.875 244.9688 238.5 278.7188 Q240.1875 285.1875 240.1875 288.8438 Q240.1875 340.0312 145.6875 357.4688 Q144.2812 357.4688 141.1875 351.8438 Q141.4688 351 162.5625 346.2188 Q206.4375 330.75 217.6875 309.6562 Q222.1875 299.25 222.1875 288.2812 Q222.1875 262.9688 192.375 254.5312 Q183.6562 253.4062 175.5 253.4062 L171.5625 253.4062 Q164.25 253.4062 164.25 256.2188 Q163.125 260.7188 163.125 261.8438 Q167.0625 309.6562 174.375 309.6562 L176.0625 311.9062 L176.0625 312.4688 Q176.0625 321.75 156.9375 324.2812 L155.25 324.2812 Q136.9688 324.2812 124.3125 314.1562 L123.1875 314.1562 Q90.5625 339.4688 69.75 339.4688 Q61.3125 339.4688 59.625 325.4062 Q59.625 319.2188 48.375 304.0312 L47.8125 301.2188 Q47.8125 288 104.0625 262.4062 Q104.0625 250.875 111.9375 208.4062 L111.375 208.4062 Q97.5938 210.6562 95.0625 210.6562 Q75.375 210.6562 68.0625 191.5312 L68.0625 190.9688 Q68.0625 190.125 71.4375 188.1562 L72 188.1562 Q80.7188 198.2812 91.6875 198.2812 L97.3125 198.2812 Q115.3125 198.2812 115.3125 194.3438 Q115.875 189 115.875 184.2188 Q115.875 180.5625 104.625 174.0938 Q105.4688 171.5625 108 170.1562 ZM117 271.4062 Q117 284.9062 126.5625 295.5938 Q146.25 277.0312 154.125 259.0312 Q154.6875 257.9062 154.6875 256.7812 L154.6875 256.2188 Q143.4375 256.2188 117 268.0312 L117 271.4062 ZM133.875 304.5938 Q141.75 310.2188 153.5625 310.2188 Q158.0625 310.2188 158.0625 302.9062 L158.0625 282.6562 Q158.0625 279 157.5 271.4062 L156.9375 271.4062 Q147.9375 287.1562 133.875 304.0312 L133.875 304.5938 ZM61.3125 304.5938 L61.3125 307.4062 Q65.5312 323.1562 69.75 323.1562 Q69.75 323.7188 70.3125 323.7188 L75.375 323.7188 Q92.25 323.7188 115.875 305.7188 L115.875 304.5938 Q107.4375 293.9062 104.0625 274.2188 L102.9375 274.2188 Q61.3125 293.9062 61.3125 304.5938 Z" stroke="none" />
    </g>
  </g>
</svg>
