<?xml version="1.0"?>

<!DOCTYPE svg PUBLIC '-//W3C//DTD SVG 1.0//EN' 'http://www.w3.org/TR/2001/REC-SVG-20010904/DTD/svg10.dtd'>
<svg fill-opacity="1" xmlns:xlink="http://www.w3.org/1999/xlink" color-rendering="auto" color-interpolation="auto" text-rendering="auto" stroke="black" stroke-linecap="square" stroke-miterlimit="10" shape-rendering="auto" stroke-opacity="1" fill="black" stroke-dasharray="none" font-weight="normal" stroke-width="1" xmlns="http://www.w3.org/2000/svg" font-family="&apos;Dialog&apos;" font-style="normal" stroke-linejoin="miter" font-size="12" stroke-dashoffset="0" image-rendering="auto">
  <!--Unicode Character 'HENTAIGANA LETTER RE-3' (U+1B100)-->
  <defs id="genericDefs" />
  <g>
    <g>
      <path d="M163.125 134.1562 Q169.0312 134.1562 176.0625 156.0938 Q177.4688 156.0938 178.875 161.7188 Q176.625 164.5312 173.8125 164.5312 Q169.3125 155.8125 169.3125 155.5312 L167.625 155.5312 L167.0625 157.7812 Q165.375 207.8438 165.375 237.6562 Q165.9375 261.2812 165.9375 266.9062 Q199.125 262.4062 199.125 252.8438 L186.1875 201.6562 Q186.1875 198.8438 192.375 198.8438 Q205.0312 241.5938 218.25 255.0938 Q218.25 256.7812 218.8125 256.7812 Q218.8125 270.5625 165.9375 279.8438 L167.0625 314.1562 Q164.5312 332.1562 154.6875 332.1562 Q150.75 332.1562 139.5 319.7812 Q116.1562 304.0312 98.4375 304.0312 L93.375 304.0312 Q75.9375 304.0312 71.4375 316.4062 L71.4375 319.2188 Q71.4375 339.1875 127.125 343.4062 Q134.4375 343.9688 147.9375 343.9688 Q184.7812 343.9688 213.1875 333.8438 L214.3125 333.8438 Q226.6875 335.8125 226.6875 341.1562 Q226.6875 354.0938 164.25 358.5938 L152.4375 358.5938 Q82.125 358.5938 65.25 333.8438 Q61.3125 326.5312 61.3125 319.2188 Q61.3125 304.5938 83.8125 296.7188 Q89.1562 295.5938 92.25 295.5938 L96.1875 295.5938 Q118.4062 295.5938 150.1875 310.7812 L151.875 310.7812 L152.4375 305.1562 L152.4375 281.5312 L141.75 281.5312 Q93.9375 281.5312 93.9375 256.7812 Q93.9375 243.8438 109.125 230.9062 L109.125 229.7812 Q108.5625 228.375 101.25 225.2812 Q95.625 220.5 95.625 212.9062 Q95.625 205.3125 103.5 198.8438 L104.0625 198.8438 Q108 200.8125 108 202.7812 Q106.3125 205.5938 106.3125 210.0938 L106.3125 211.7812 Q106.3125 216 128.8125 219.0938 Q133.875 222.75 133.875 227.5312 Q133.875 233.1562 115.3125 238.2188 Q102.9375 245.25 102.9375 255.6562 L102.9375 257.9062 Q102.9375 269.1562 142.875 269.1562 L146.25 269.1562 Q151.875 269.1562 151.875 268.0312 Q151.875 247.2188 151.3125 238.2188 Q151.3125 136.4062 158.0625 136.4062 Q161.1562 134.1562 163.125 134.1562 ZM106.875 153.2812 L108 153.2812 Q111.9375 163.9688 122.0625 167.9062 Q140.625 172.6875 140.625 177.4688 L141.75 180.8438 Q140.3438 188.7188 135 188.7188 Q117.5625 188.7188 105.75 166.7812 Q102.9375 159.75 102.9375 155.5312 L106.875 153.2812 Z" stroke="none" />
    </g>
  </g>
</svg>
