<?xml version="1.0" encoding="UTF-8" standalone="no"?>
<svg
   xmlns:dc="http://purl.org/dc/elements/1.1/"
   xmlns:cc="http://creativecommons.org/ns#"
   xmlns:rdf="http://www.w3.org/1999/02/22-rdf-syntax-ns#"
   xmlns:svg="http://www.w3.org/2000/svg"
   xmlns="http://www.w3.org/2000/svg"
   xmlns:sodipodi="http://sodipodi.sourceforge.net/DTD/sodipodi-0.dtd"
   xmlns:inkscape="http://www.inkscape.org/namespaces/inkscape"
   fill-opacity="1"
   color-rendering="auto"
   color-interpolation="auto"
   text-rendering="auto"
   stroke="black"
   stroke-linecap="square"
   stroke-miterlimit="10"
   shape-rendering="auto"
   stroke-opacity="1"
   fill="black"
   stroke-dasharray="none"
   font-weight="normal"
   stroke-width="1"
   font-family="'Dialog'"
   font-style="normal"
   stroke-linejoin="miter"
   font-size="12"
   stroke-dashoffset="0"
   image-rendering="auto"
   version="1.1"
   id="svg9"
   sodipodi:docname="hentaigana_letter_ka1.svg"
   inkscape:version="0.92.4 (5da689c313, 2019-01-14)">
  <metadata
     id="metadata13">
    <rdf:RDF>
      <cc:Work
         rdf:about="">
        <dc:format>image/svg+xml</dc:format>
        <dc:type
           rdf:resource="http://purl.org/dc/dcmitype/StillImage" />
      </cc:Work>
    </rdf:RDF>
  </metadata>
  <sodipodi:namedview
     pagecolor="#ffffff"
     bordercolor="#666666"
     borderopacity="1"
     objecttolerance="10"
     gridtolerance="10"
     guidetolerance="10"
     inkscape:pageopacity="0"
     inkscape:pageshadow="2"
     inkscape:window-width="1920"
     inkscape:window-height="986"
     id="namedview11"
     showgrid="false"
     inkscape:zoom="2.36"
     inkscape:cx="50"
     inkscape:cy="50"
     inkscape:window-x="-11"
     inkscape:window-y="-11"
     inkscape:window-maximized="1"
     inkscape:current-layer="svg9" />
  <!--Unicode Character 'HENTAIGANA LETTER KA-1' (U+1B017)-->
  <defs
     id="genericDefs" />
  <g
     id="g7"
     transform="matrix(0.43034358,0,0,0.4460495,-12.03727,-59.918752)">
    <g
       id="g5">
      <path
         d="m 156.9375,135.8438 q 28.6875,2.8124 28.6875,10.6874 1.125,0 1.125,4.5 -2.25,19.125 -2.25,24.75 h 0.5625 q 7.3125,-0.5624 11.8125,-0.5624 h 11.8125 q 24.1875,0 28.125,10.125 l 0.5625,1.125 q -2.25,5.625 -10.6875,5.625 -25.0313,-2.8126 -30.375,-2.8126 -12.375,0 -12.375,1.6876 0,12.0937 -1.6875,44.4374 10.6875,7.3126 10.6875,14.0626 0,3.375 -11.25,23.625 v 22.5 q 0,8.1562 -6.1875,11.25 h -1.125 q -2.25,0 -9.5625,-5.0626 h -1.6875 q -24.1875,17.1563 -24.1875,27 v 2.25 q 0,9 26.4375,11.8126 4.2188,0.5624 10.6875,0.5624 30.375,0 30.375,-12.375 v -3.375 q 0,-12.0937 -4.5,-42.1874 l 1.6875,-1.125 H 207 q 0.8438,0.2812 7.3125,24.75 6.75,21.0937 13.5,25.875 0.8437,0 1.6875,4.5 0,9.2812 -29.25,15.75 -10.9688,1.6874 -25.3125,1.6874 -38.5313,-1.6874 -45,-19.125 -1.6875,-5.3437 -1.6875,-6.75 0,-11.5312 25.3125,-35.4374 -1.6875,-3.0938 -22.5,-13.5 -3.375,-3.375 -4.5,-9.5626 0,-14.3437 41.0625,-35.4374 3.375,-0.5626 3.375,-2.8126 0,-13.7812 0.5625,-42.75 h -1.6875 q -28.125,4.2188 -57.9375,24.1876 -0.8437,0 -3.9375,-5.0626 24.4688,-20.8124 59.0625,-30.9374 4.5,0 4.5,-7.875 0,-24.75 -4.5,-24.75 -1.6875,-1.9688 -12.375,-5.625 v -0.5626 q 1.125,-5.0624 2.25,-5.0624 z M 76.5,145.9688 q 3.9375,7.875 3.9375,17.4374 0,26.1563 -34.3125,69.75 -2.25,3.0938 -2.25,5.0626 v 2.8124 q 13.5,13.7813 13.5,15.1876 4.5,12.9374 4.5,29.25 l -1.6875,30.9374 h 1.125 q 8.4375,-23.0624 16.875,-39.9374 h 1.6875 q 3.375,1.9687 3.375,2.8124 Q 63,334.125 63,349.5938 q -2.25,5.0624 -7.875,5.0624 -7.0312,0 -9.5625,-14.625 2.25,-30.6562 2.25,-46.125 v -21.9374 q 0,-21.6563 -7.875,-27 -9,-7.3126 -9,-12.9376 0,-7.0312 18,-26.4374 Q 72,174.9375 72,153.8438 v -3.9376 q 0,-3.9374 4.5,-3.9374 z m 144.5625,73.6874 q 22.7813,12.9376 32.625,32.625 l 3.375,13.5 q 0,16.3126 -10.6875,20.25 -3.9375,0 -6.1875,-7.875 -8.7187,-9.5624 -21.9375,-9.5624 -1.125,-2.25 -1.125,-6.1876 l 1.125,-0.5624 q 8.7188,0.5624 15.1875,0.5624 5.0625,0 5.0625,-6.75 0,-14.3437 -21.375,-32.0624 2.5312,-3.9376 3.9375,-3.9376 z m -82.6875,54.5626 q 0,4.5 20.8125,14.625 11.25,-12.0938 11.25,-23.0626 v -16.3124 h -0.5625 q -10.125,1.4062 -28.125,17.4374 -3.375,3.6563 -3.375,7.3126 z"
         id="path3"
         inkscape:connector-curvature="0"
         style="stroke:none" />
    </g>
  </g>
</svg>
