<?xml version="1.0"?>

<!DOCTYPE svg PUBLIC '-//W3C//DTD SVG 1.0//EN' 'http://www.w3.org/TR/2001/REC-SVG-20010904/DTD/svg10.dtd'>
<svg fill-opacity="1" xmlns:xlink="http://www.w3.org/1999/xlink" color-rendering="auto" color-interpolation="auto" text-rendering="auto" stroke="black" stroke-linecap="square" stroke-miterlimit="10" shape-rendering="auto" stroke-opacity="1" fill="black" stroke-dasharray="none" font-weight="normal" stroke-width="1" xmlns="http://www.w3.org/2000/svg" font-family="&apos;Dialog&apos;" font-style="normal" stroke-linejoin="miter" font-size="12" stroke-dashoffset="0" image-rendering="auto">
  <!--Unicode Character 'HENTAIGANA LETTER NE-3' (U+1B094)-->
  <defs id="genericDefs" />
  <g>
    <g>
      <path d="M195.4688 138.9375 L198.8438 143.4375 L198.8438 144 Q176.9062 160.875 176.9062 192.375 Q176.9062 204.75 185.3438 256.5 Q186.4688 268.0312 186.4688 280.6875 Q186.4688 287.1562 185.3438 298.6875 Q201.0938 305.4375 217.9688 305.4375 Q234.2812 308.5312 234.2812 316.125 Q234.2812 323.4375 221.3438 324 Q207.2812 324 180.8438 313.3125 Q160.0312 353.8125 119.5312 353.8125 L118.9688 353.8125 Q75.9375 353.8125 59.3438 302.625 Q53.7188 282.375 53.7188 261.5625 L53.7188 257.0625 Q53.7188 231.4688 73.9688 203.0625 Q94.2188 180.5625 114.4688 180.5625 Q142.875 180.5625 147.6562 223.875 Q151.5938 275.625 155.5312 275.625 Q159.1875 284.625 171.8438 293.0625 L172.9688 293.0625 Q173.5312 287.4375 173.5312 284.625 L173.5312 277.875 Q173.5312 249.4688 163.4062 204.75 L161.7188 189.5625 Q161.7188 166.7812 183.0938 146.25 Q192.0938 139.5 195.4688 138.9375 ZM65.5312 261 Q65.5312 328.7812 108.2812 341.4375 Q110.8125 342.5625 115.5938 342.5625 L124.0312 342.5625 Q146.5312 342.5625 166.2188 313.875 Q169.0312 307.4062 169.0312 306.5625 Q149.0625 295.0312 140.9062 269.4375 Q136.9688 256.7812 133.5938 216.5625 Q128.8125 190.6875 113.3438 190.6875 L111.6562 190.6875 Q90.8438 190.6875 72.2812 225.5625 Q65.5312 244.6875 65.5312 261 Z" stroke="none" />
    </g>
  </g>
</svg>
