<?xml version="1.0"?>

<!DOCTYPE svg PUBLIC '-//W3C//DTD SVG 1.0//EN' 'http://www.w3.org/TR/2001/REC-SVG-20010904/DTD/svg10.dtd'>
<svg fill-opacity="1" xmlns:xlink="http://www.w3.org/1999/xlink" color-rendering="auto" color-interpolation="auto" text-rendering="auto" stroke="black" stroke-linecap="square" stroke-miterlimit="10" shape-rendering="auto" stroke-opacity="1" fill="black" stroke-dasharray="none" font-weight="normal" stroke-width="1" xmlns="http://www.w3.org/2000/svg" font-family="&apos;Dialog&apos;" font-style="normal" stroke-linejoin="miter" font-size="12" stroke-dashoffset="0" image-rendering="auto">
  <!--Unicode Character 'HENTAIGANA LETTER HA-5' (U+1B0A2)-->
  <defs id="genericDefs" />
  <g>
    <g>
      <path d="M122.625 131.625 Q146.8125 135.5625 146.8125 144.5625 Q146.8125 149.9062 110.25 164.25 L108.5625 166.5 L108.5625 167.0625 L124.875 180.5625 Q126.2812 180.5625 143.4375 169.875 Q157.5 161.4375 165.375 161.4375 L168.75 161.4375 Q186.4688 161.4375 189.5625 176.625 L189.5625 178.3125 Q189.5625 180.8438 185.625 199.125 L185.625 200.8125 Q185.9062 201.9375 186.75 201.9375 L187.3125 201.9375 Q205.5938 200.25 208.125 200.25 Q226.6875 201.9375 226.6875 211.5 Q226.6875 221.0625 193.5 228.9375 Q136.9688 249.4688 91.125 275.0625 Q87.1875 277.875 87.1875 278.4375 L87.1875 279 Q184.5 250.3125 209.25 250.3125 L213.75 250.3125 Q246.375 250.3125 255.375 266.625 L255.9375 269.4375 Q255.9375 279.2812 235.6875 280.6875 Q193.2188 280.6875 149.625 293.625 L148.5 295.3125 L148.5 295.875 Q148.5 299.8125 159.1875 302.625 Q167.625 306.8438 167.625 312.75 Q167.625 320.625 144.5625 323.4375 Q130.5 327.9375 130.5 335.25 L130.5 336.375 Q130.5 344.8125 150.75 345.9375 L160.3125 345.9375 Q165.375 345.9375 176.0625 344.25 Q186.1875 346.2188 186.1875 351.5625 Q186.1875 360 164.8125 361.125 L162 361.125 Q117.5625 361.125 117.5625 337.5 Q117.5625 324.2812 142.875 314.4375 L143.4375 313.3125 Q132.1875 307.9688 132.1875 299.8125 Q132.1875 284.9062 225.5625 268.875 Q231.75 267.4688 231.75 266.625 Q224.1562 262.125 209.8125 262.125 L205.3125 262.125 Q161.1562 262.125 63 300.375 Q57.9375 301.5 55.6875 301.5 Q41.0625 301.5 32.0625 279 L36 275.625 Q44.1562 283.5 51.75 284.0625 L57.9375 284.0625 Q65.8125 284.0625 91.125 267.75 Q152.4375 235.6875 202.5 216.5625 Q205.3125 214.3125 205.3125 213.75 Q205.3125 212.3438 197.4375 211.5 Q189 212.0625 178.3125 213.75 Q172.4062 213.75 170.4375 205.3125 Q173.8125 184.5 173.8125 177.75 Q173.8125 169.3125 166.5 169.3125 L165.9375 169.3125 Q152.7188 169.5938 129.9375 189 Q129.375 190.125 129.375 190.6875 Q133.875 199.6875 133.875 210.375 L133.875 212.625 Q133.875 239.0625 96.1875 246.9375 Q91.4062 247.5 87.75 247.5 Q70.875 247.5 70.875 235.125 Q70.875 222.1875 114.1875 187.3125 L114.1875 186.75 Q114.1875 182.5312 99.5625 169.3125 L99.5625 168.75 Q99.5625 162.5625 117.5625 151.875 Q126 145.4062 126 141.75 L126 141.1875 Q125.7188 139.5 118.125 136.125 Q118.125 134.1562 122.625 131.625 ZM84.375 236.8125 L84.375 238.5 Q84.375 239.3438 86.0625 240.1875 L86.625 240.1875 Q119.25 240.1875 119.25 208.6875 Q118.6875 201.0938 118.6875 199.125 L117 199.125 Q87.1875 224.7188 84.375 236.8125 Z" stroke="none" />
    </g>
  </g>
</svg>
