<?xml version="1.0"?>

<!DOCTYPE svg PUBLIC '-//W3C//DTD SVG 1.0//EN' 'http://www.w3.org/TR/2001/REC-SVG-20010904/DTD/svg10.dtd'>
<svg fill-opacity="1" xmlns:xlink="http://www.w3.org/1999/xlink" color-rendering="auto" color-interpolation="auto" text-rendering="auto" stroke="black" stroke-linecap="square" stroke-miterlimit="10" shape-rendering="auto" stroke-opacity="1" fill="black" stroke-dasharray="none" font-weight="normal" stroke-width="1" xmlns="http://www.w3.org/2000/svg" font-family="&apos;Dialog&apos;" font-style="normal" stroke-linejoin="miter" font-size="12" stroke-dashoffset="0" image-rendering="auto">
  <!--Unicode Character 'HENTAIGANA LETTER KI-8' (U+1B02A)-->
  <defs id="genericDefs" />
  <g>
    <g>
      <path d="M118.4062 140.0625 Q125.7188 140.0625 131.3438 153.5625 Q145.9688 172.125 145.9688 174.9375 Q145.9688 189.2812 98.1562 197.4375 Q87.4688 197.4375 87.4688 200.25 Q81.5625 213.4688 76.7812 231.1875 L76.7812 232.3125 Q86.625 228.375 91.9688 228.375 Q102.0938 228.375 106.0312 239.0625 Q107.1562 243.2812 107.1562 246.9375 Q107.1562 257.0625 102.0938 271.125 Q102.6562 271.125 102.6562 271.6875 Q182.25 193.5 205.0312 193.5 Q224.4375 193.5 231.4688 213.75 Q233.1562 221.625 233.1562 226.6875 L233.1562 230.625 Q233.1562 258.75 212.3438 268.875 Q207.2812 270 205.0312 270 Q200.5312 270 186.4688 264.375 Q183.9375 263.25 180.8438 263.25 Q172.9688 263.25 172.9688 293.0625 L172.9688 300.375 Q172.9688 324.5625 181.4062 324.5625 Q188.1562 328.5 199.9688 328.5 L207.8438 328.5 Q214.5938 328.5 238.7812 322.875 Q247.2188 324 247.2188 329.0625 Q247.2188 337.7812 232.0312 340.3125 Q219.9375 343.125 206.7188 343.125 L201.0938 343.125 Q165.9375 343.125 160.0312 317.25 Q158.3438 307.6875 157.7812 297 Q157.7812 271.4062 166.7812 255.9375 Q170.7188 252.8438 174.6562 252 L196.0312 258.75 L202.2188 258.75 Q214.5938 258.75 217.9688 229.5 Q217.9688 202.5 203.3438 202.5 Q182.5312 202.5 106.5938 282.9375 Q94.2188 294.75 76.2188 337.5 Q66.0938 352.6875 58.7812 352.6875 Q53.1562 352.6875 53.1562 343.125 Q53.1562 333.8438 72.2812 313.3125 Q93.0938 278.7188 93.0938 246.9375 L93.0938 246.375 Q93.0938 241.5938 89.7188 239.625 L86.3438 239.625 Q81.5625 239.625 70.0312 249.75 L69.4688 249.75 Q61.5938 246.9375 61.5938 237.9375 Q61.5938 229.7812 75.0938 197.4375 L75.0938 196.875 Q60.1875 196.875 42.4688 178.875 L40.7812 176.625 L40.7812 176.0625 Q42.1875 173.25 45.2812 171 Q60.75 184.5 81.2812 184.5 Q103.5 140.0625 118.4062 140.0625 ZM95.3438 184.5 Q131.3438 180.2812 131.3438 171 L131.3438 170.4375 Q122.9062 150.1875 118.4062 150.1875 L117.8438 150.1875 Q108 158.9062 99.8438 174.375 Q95.3438 182.25 95.3438 184.5 Z" stroke="none" />
    </g>
  </g>
</svg>
