<?xml version="1.0"?>

<!DOCTYPE svg PUBLIC '-//W3C//DTD SVG 1.0//EN' 'http://www.w3.org/TR/2001/REC-SVG-20010904/DTD/svg10.dtd'>
<svg fill-opacity="1" xmlns:xlink="http://www.w3.org/1999/xlink" color-rendering="auto" color-interpolation="auto" text-rendering="auto" stroke="black" stroke-linecap="square" stroke-miterlimit="10" shape-rendering="auto" stroke-opacity="1" fill="black" stroke-dasharray="none" font-weight="normal" stroke-width="1" xmlns="http://www.w3.org/2000/svg" font-family="&apos;Dialog&apos;" font-style="normal" stroke-linejoin="miter" font-size="12" stroke-dashoffset="0" image-rendering="auto">
  <!--Unicode Character 'HENTAIGANA LETTER NE-4' (U+1B095)-->
  <defs id="genericDefs" />
  <g>
    <g>
      <path d="M80.4375 137.8125 Q109.6875 143.4375 109.6875 156.9375 Q105.75 181.125 105.75 190.6875 L123.1875 182.25 L124.875 182.25 Q131.625 184.5 131.625 189.5625 Q131.625 193.7812 121.5 199.6875 Q105.4688 205.5938 104.625 206.4375 Q102.9375 239.3438 102.9375 254.8125 L104.0625 254.8125 Q126.2812 230.3438 166.5 181.125 Q186.75 159.75 200.8125 159.75 Q217.4062 159.75 224.4375 180 Q226.125 189.5625 226.6875 197.4375 Q226.6875 231.1875 209.25 253.125 Q203.625 257.625 198.5625 257.625 Q194.9062 257.625 182.8125 248.0625 Q179.1562 246.9375 177.75 246.9375 Q168.4688 246.9375 160.875 278.4375 Q159.75 289.9688 159.75 293.0625 Q160.5938 316.125 164.25 316.125 Q165.0938 316.125 176.0625 303.1875 Q192.9375 289.125 206.4375 289.125 L209.8125 289.125 Q231.1875 289.125 244.6875 317.25 Q246.375 324.2812 246.375 326.8125 Q244.125 335.8125 237.9375 335.8125 Q231.1875 335.8125 227.8125 317.25 Q218.5312 298.6875 208.6875 298.6875 L206.4375 298.6875 Q190.125 298.6875 174.9375 325.6875 Q170.7188 341.4375 165.9375 341.4375 Q147.9375 336.6562 144.5625 297 Q146.25 249.75 173.25 239.0625 Q175.5 238.5 177.75 238.5 Q181.9688 238.5 195.1875 243.5625 Q204.4688 243.5625 210.375 207.5625 L210.375 195.1875 Q210.375 171 198.5625 171 Q180 171 145.125 221.0625 Q102.375 271.6875 102.375 272.8125 Q102.375 314.1562 104.625 336.9375 Q104.625 349.3125 93.9375 354.9375 Q86.9062 354.9375 80.4375 333.5625 Q74.25 322.5938 64.6875 312.75 Q57.375 319.5 56.8125 319.5 L54 319.5 Q49.7812 319.5 45.5625 303.75 L45.5625 303.1875 Q45.5625 298.6875 61.3125 278.4375 Q91.6875 227.5312 91.6875 220.5 Q92.25 213.1875 92.25 208.6875 Q80.4375 210.375 68.0625 210.375 Q52.5938 210.375 41.625 198 Q44.4375 193.5 44.4375 192.375 L45.5625 192.375 Q55.9688 198.5625 66.9375 198.5625 L71.4375 198.5625 Q82.4062 198.5625 92.25 195.75 L92.25 160.875 Q92.25 150.75 77.0625 142.875 Q78.75 138.9375 80.4375 137.8125 ZM90 245.25 Q84.375 257.0625 63 294.1875 L63.5625 294.1875 Q90 273.375 91.125 267.1875 L91.125 262.125 Q91.125 256.5 91.6875 245.25 L90 245.25 ZM70.3125 306.5625 L70.3125 307.6875 L88.875 326.8125 L90 326.8125 Q90 320.9062 90.5625 286.3125 L89.4375 286.3125 Q70.3125 306 70.3125 306.5625 Z" stroke="none" />
    </g>
  </g>
</svg>
