<?xml version="1.0"?>

<!DOCTYPE svg PUBLIC '-//W3C//DTD SVG 1.0//EN' 'http://www.w3.org/TR/2001/REC-SVG-20010904/DTD/svg10.dtd'>
<svg fill-opacity="1" xmlns:xlink="http://www.w3.org/1999/xlink" color-rendering="auto" color-interpolation="auto" text-rendering="auto" stroke="black" stroke-linecap="square" stroke-miterlimit="10" shape-rendering="auto" stroke-opacity="1" fill="black" stroke-dasharray="none" font-weight="normal" stroke-width="1" xmlns="http://www.w3.org/2000/svg" font-family="&apos;Dialog&apos;" font-style="normal" stroke-linejoin="miter" font-size="12" stroke-dashoffset="0" image-rendering="auto">
  <!--Unicode Character 'HENTAIGANA LETTER U-4' (U+1B00D)-->
  <defs id="genericDefs" />
  <g>
    <g>
      <path d="M175.5 134.1562 Q184.5 134.1562 194.0625 149.3438 L194.625 152.1562 Q194.625 157.7812 174.9375 178.0312 L147.375 211.2188 Q154.6875 221.0625 154.6875 234.2812 L154.6875 237.0938 Q154.6875 244.6875 153 253.9688 L153.5625 253.9688 Q172.9688 248.3438 182.25 248.3438 L186.75 248.3438 Q214.0312 248.3438 221.0625 268.5938 L221.625 273.6562 Q221.625 300.0938 161.4375 315.2812 Q135.5625 325.125 135.5625 332.1562 L135.5625 332.7188 Q135.5625 340.875 156.9375 342.2812 L157.5 342.2812 Q171.8438 341.1562 174.9375 341.1562 Q188.4375 343.6875 188.4375 350.1562 L188.4375 352.4062 Q184.5 358.5938 165.9375 358.5938 Q137.5312 358.5938 126.5625 342.2812 Q124.875 335.25 124.875 333.2812 Q124.875 320.0625 160.875 306.2812 Q195.4688 291.6562 200.25 280.4062 Q202.5 276.1875 202.5 271.4062 L202.5 270.8438 Q202.5 255.0938 183.375 255.0938 Q170.1562 255.0938 143.4375 270.8438 Q142.3125 271.4062 141.75 271.4062 Q137.5312 271.4062 136.6875 260.7188 Q140.0625 251.4375 140.0625 243.2812 L140.0625 232.0312 Q140.0625 229.7812 138.9375 224.7188 L137.25 224.7188 Q108.2812 257.9062 84.375 257.9062 Q66.375 254.8125 66.375 241.5938 L66.375 241.0312 Q66.375 223.875 95.625 207.8438 Q108.8438 202.7812 119.8125 202.7812 L126.5625 202.7812 Q131.0625 202.7812 138.375 205.0312 Q173.5312 160.3125 173.8125 148.7812 Q173.8125 147.9375 172.125 147.0938 Q168.1875 147.0938 135.5625 167.9062 Q119.5312 178.5938 111.9375 178.5938 L109.6875 178.5938 Q95.9062 178.5938 87.1875 153.2812 Q90.8438 149.9062 92.25 149.9062 Q97.875 160.0312 108.5625 160.0312 Q127.9688 160.0312 170.4375 135.2812 Q172.9688 134.1562 175.5 134.1562 ZM74.8125 239.9062 L74.8125 242.1562 Q74.8125 250.0312 82.6875 250.0312 L88.875 250.0312 Q106.0312 246.375 127.6875 220.2188 L129.375 217.9688 L129.375 216.8438 Q129.0938 214.5938 117.5625 214.0312 Q88.5938 214.0312 75.9375 235.4062 Q74.8125 237.375 74.8125 239.9062 Z" stroke="none" />
    </g>
  </g>
</svg>
