<?xml version="1.0"?>

<!DOCTYPE svg PUBLIC '-//W3C//DTD SVG 1.0//EN' 'http://www.w3.org/TR/2001/REC-SVG-20010904/DTD/svg10.dtd'>
<svg fill-opacity="1" xmlns:xlink="http://www.w3.org/1999/xlink" color-rendering="auto" color-interpolation="auto" text-rendering="auto" stroke="black" stroke-linecap="square" stroke-miterlimit="10" shape-rendering="auto" stroke-opacity="1" fill="black" stroke-dasharray="none" font-weight="normal" stroke-width="1" xmlns="http://www.w3.org/2000/svg" font-family="&apos;Dialog&apos;" font-style="normal" stroke-linejoin="miter" font-size="12" stroke-dashoffset="0" image-rendering="auto">
  <!--Unicode Character 'HENTAIGANA LETTER TE-9' (U+1B076)-->
  <defs id="genericDefs" />
  <g>
    <g>
      <path d="M173.25 136.125 Q189 138.9375 195.1875 145.125 Q198.5625 149.9062 198.5625 154.6875 Q196.3125 164.25 196.3125 172.125 Q204.1875 173.25 204.1875 179.4375 Q204.1875 181.6875 192.9375 196.875 Q192.9375 202.7812 191.25 222.75 Q209.5312 216.5625 223.875 213.1875 L223.875 212.0625 L211.5 202.5 L211.5 201.9375 Q214.0312 197.4375 214.875 197.4375 Q219.9375 200.8125 241.3125 208.6875 Q243 210.6562 244.125 213.75 Q244.125 222.1875 217.6875 225 Q190.125 233.1562 190.125 235.6875 Q189.5625 243.2812 189.5625 246.9375 L191.25 248.0625 Q205.3125 245.25 214.875 245.25 L216 245.25 Q240.75 245.25 250.875 274.5 Q252 280.4062 252.5625 288 Q252.5625 324.2812 221.625 343.6875 Q205.3125 352.125 185.625 352.125 Q157.7812 352.125 149.0625 332.4375 Q148.5 328.5 147.9375 327.375 Q147.9375 313.5938 167.0625 311.0625 L167.625 311.0625 Q190.125 311.0625 210.375 338.625 Q236.25 322.875 236.25 288.5625 Q236.25 261.2812 218.25 254.8125 Q217.6875 254.8125 213.75 254.25 Q200.8125 254.25 185.0625 262.125 Q184.5 262.125 183.375 262.6875 Q176.9062 262.6875 175.5 254.25 Q176.625 243.2812 176.625 240.1875 L176.0625 240.1875 Q159.4688 246.9375 145.125 256.5 L142.875 256.5 Q140.0625 255.375 138.375 249.1875 Q138.375 244.4062 161.4375 221.0625 Q181.6875 196.3125 181.6875 192.9375 L181.6875 189.5625 L182.25 182.8125 L181.6875 182.8125 Q159.4688 190.9688 112.5 223.875 Q93.0938 239.9062 90 244.6875 Q95.0625 282.6562 95.0625 306.5625 Q95.0625 356.625 77.0625 356.625 Q72 356.625 57.375 336.375 Q35.4375 320.625 35.4375 314.4375 L35.4375 312.75 Q35.4375 288.2812 74.25 244.125 Q77.0625 242.7188 77.0625 239.625 Q75.375 218.25 75.375 217.6875 Q75.375 177.75 96.75 138.375 Q102.0938 139.5 102.375 141.1875 Q88.3125 173.5312 88.3125 214.3125 L88.3125 216.5625 Q88.3125 220.5 88.875 228.9375 Q90.5625 228.9375 106.3125 216.5625 Q151.0312 185.9062 182.25 174.375 Q183.375 174.375 183.375 169.3125 Q183.375 148.5 177.75 146.25 L169.3125 140.625 Q171.5625 136.125 173.25 136.125 ZM159.1875 235.125 Q159.4688 236.25 160.3125 236.25 Q178.875 227.8125 178.875 226.125 Q178.875 223.875 180 212.625 L178.875 212.625 Q163.4062 229.7812 159.1875 235.125 ZM51.1875 314.4375 Q51.1875 327.9375 75.375 339.1875 Q80.4375 339.1875 80.4375 315.5625 L80.4375 303.75 Q80.4375 286.875 78.75 257.625 L78.1875 257.625 Q71.4375 263.5312 61.875 279 Q51.1875 302.625 51.1875 314.4375 ZM161.4375 331.875 Q165.6562 343.125 183.9375 343.125 L189.5625 343.125 Q200.8125 342.8438 200.8125 341.4375 Q195.1875 331.875 176.0625 325.125 Q175.2188 324.5625 173.25 324.5625 L169.3125 324.5625 Q161.4375 324.5625 161.4375 331.875 Z" stroke="none" />
    </g>
  </g>
</svg>
