<?xml version="1.0"?>

<!DOCTYPE svg PUBLIC '-//W3C//DTD SVG 1.0//EN' 'http://www.w3.org/TR/2001/REC-SVG-20010904/DTD/svg10.dtd'>
<svg fill-opacity="1" xmlns:xlink="http://www.w3.org/1999/xlink" color-rendering="auto" color-interpolation="auto" text-rendering="auto" stroke="black" stroke-linecap="square" stroke-miterlimit="10" shape-rendering="auto" stroke-opacity="1" fill="black" stroke-dasharray="none" font-weight="normal" stroke-width="1" xmlns="http://www.w3.org/2000/svg" font-family="&apos;Dialog&apos;" font-style="normal" stroke-linejoin="miter" font-size="12" stroke-dashoffset="0" image-rendering="auto">
  <!--Unicode Character 'HENTAIGANA LETTER TO-3' (U+1B079)-->
  <defs id="genericDefs" />
  <g>
    <g>
      <path d="M129.6562 134.1562 Q154.9688 139.5 154.9688 151.0312 Q154.9688 154.6875 142.5938 175.7812 Q140.3438 180.8438 140.3438 181.9688 L140.3438 183.0938 L140.9062 183.0938 Q148.2188 183.0938 171.8438 169.5938 L175.7812 169.0312 Q186.1875 169.0312 188.1562 177.4688 Q188.1562 187.3125 131.3438 198.2812 Q115.5938 229.5 108.2812 255.0938 L108.2812 256.2188 Q140.9062 253.6875 140.9062 246.6562 Q144 237.9375 149.9062 234.8438 L151.0312 234.8438 Q153.5625 234.8438 167.9062 248.3438 L167.9062 249.4688 Q167.9062 254.8125 154.4062 259.0312 Q154.4062 266.625 153.8438 299.5312 Q153.8438 306 154.9688 343.9688 Q151.875 358.5938 143.1562 358.5938 Q140.0625 358.5938 132.4688 348.4688 Q106.875 333 103.7812 330.4688 Q103.7812 326.25 105.4688 325.9688 Q122.625 332.7188 138.6562 338.3438 Q140.3438 337.7812 140.3438 337.2188 Q140.3438 316.6875 140.9062 262.4062 L140.3438 262.4062 Q138.9375 262.4062 106.0312 273.0938 Q101.8125 273.0938 93.6562 260.7188 Q92.5312 256.5 92.5312 255.6562 Q92.5312 250.875 116.1562 198.2812 Q100.9688 195.75 95.3438 189.8438 Q87.4688 181.9688 87.4688 178.5938 Q87.75 178.5938 90.2812 175.7812 L90.8438 175.7812 Q99.5625 185.3438 120.6562 185.3438 L122.9062 185.3438 Q136.4062 160.875 136.4062 151.5938 L136.4062 151.0312 Q136.4062 143.1562 124.5938 139.2188 L124.5938 138.6562 Q128.25 134.1562 129.6562 134.1562 ZM207.8438 285.4688 Q226.6875 285.4688 241.0312 307.9688 Q242.7188 313.0312 242.7188 316.4062 Q242.7188 329.3438 216.2812 332.1562 Q212.3438 332.1562 203.9062 333.2812 Q199.9688 331.3125 199.9688 328.2188 Q219.375 323.1562 223.5938 316.4062 L223.5938 313.0312 Q218.25 293.9062 200.5312 293.9062 Q192.9375 294.4688 190.9688 294.4688 Q189.2812 290.5312 189.2812 289.4062 Q200.5312 285.4688 207.8438 285.4688 ZM68.9062 295.0312 Q71.1562 298.4062 71.1562 299.5312 Q60.4688 306.8438 60.4688 316.4062 Q60.4688 322.5938 64.4062 322.5938 Q65.8125 322.5938 118.4062 297.2812 L121.2188 296.7188 Q122.3438 298.6875 122.3438 301.2188 L122.3438 301.7812 Q89.1562 319.5 70.5938 334.9688 Q66.375 342.8438 59.9062 342.8438 Q45.2812 338.3438 45.2812 321.4688 Q45.2812 306 68.9062 295.0312 Z" stroke="none" />
    </g>
  </g>
</svg>
