<?xml version="1.0"?>

<!DOCTYPE svg PUBLIC '-//W3C//DTD SVG 1.0//EN' 'http://www.w3.org/TR/2001/REC-SVG-20010904/DTD/svg10.dtd'>
<svg fill-opacity="1" xmlns:xlink="http://www.w3.org/1999/xlink" color-rendering="auto" color-interpolation="auto" text-rendering="auto" stroke="black" stroke-linecap="square" stroke-miterlimit="10" shape-rendering="auto" stroke-opacity="1" fill="black" stroke-dasharray="none" font-weight="normal" stroke-width="1" xmlns="http://www.w3.org/2000/svg" font-family="&apos;Dialog&apos;" font-style="normal" stroke-linejoin="miter" font-size="12" stroke-dashoffset="0" image-rendering="auto">
  <!--Unicode Character 'HENTAIGANA LETTER TA-4' (U+1B061)-->
  <defs id="genericDefs" />
  <g>
    <g>
      <path d="M119.8125 134.1562 Q136.125 139.2188 142.875 151.0312 Q145.6875 154.9688 146.8125 160.5938 L147.375 160.5938 Q178.5938 148.2188 191.25 148.2188 Q216 151.0312 216 162.8438 L216.5625 162.8438 Q215.1562 172.125 181.6875 195.4688 Q135.8438 228.9375 130.5 234.2812 L131.0625 234.2812 Q158.9062 223.5938 173.8125 223.5938 Q211.5 223.5938 226.125 253.4062 Q230.625 265.7812 230.625 277.0312 L230.625 283.2188 Q230.625 335.5312 192.9375 353.5312 Q181.6875 358.5938 168.75 358.5938 Q147.9375 358.5938 125.4375 339.4688 Q127.4062 336.0938 129.375 334.9688 L129.9375 334.9688 Q137.8125 340.5938 141.75 341.1562 Q150.75 326.25 150.75 300.0938 L150.75 290.5312 L150.1875 290.5312 Q137.5312 290.5312 114.1875 302.3438 L113.625 302.3438 Q111.375 297.8438 111.375 296.7188 Q135.2812 280.6875 149.625 279.2812 L149.625 278.7188 Q148.2188 266.9062 140.0625 266.9062 Q135.2812 268.0312 132.75 268.0312 Q131.625 266.0625 131.625 264.6562 L131.625 264.0938 Q138.375 257.9062 146.8125 257.9062 L147.9375 257.9062 Q163.6875 259.5938 163.6875 270.8438 L164.8125 276.4688 L176.625 276.4688 Q194.625 276.4688 194.625 286.5938 Q193.7812 291.0938 187.875 291.0938 Q178.3125 289.9688 172.125 289.9688 L165.375 289.9688 Q165.375 317.8125 149.0625 342.8438 L149.0625 343.9688 Q154.9688 347.9062 165.9375 347.9062 L169.875 347.9062 Q200.5312 347.9062 210.9375 309.0938 Q213.1875 298.125 213.1875 288.2812 L213.1875 276.4688 Q213.1875 243.8438 190.6875 235.4062 Q184.2188 233.1562 177.1875 233.1562 L171 233.1562 Q142.0312 233.1562 96.1875 266.9062 Q96.1875 268.3125 91.6875 269.7188 Q88.0312 269.7188 86.625 263.5312 Q86.625 255.375 93.9375 248.9062 Q106.3125 244.125 128.8125 224.7188 L128.8125 224.1562 Q121.7812 213.1875 117 207.2812 Q102.0938 196.0312 99 196.0312 Q84.6562 204.75 78.75 207.2812 Q76.5 207.8438 74.8125 207.8438 Q61.875 207.8438 57.375 179.7188 Q57.375 177.4688 63.5625 175.7812 Q66.375 185.625 71.4375 188.7188 Q75.9375 189.8438 78.1875 189.8438 Q86.3438 189.8438 126.5625 170.1562 Q133.875 167.3438 133.875 165.6562 Q133.875 149.0625 115.3125 138.6562 Q115.3125 137.8125 119.8125 134.1562 ZM148.5 169.5938 Q149.0625 178.5938 149.0625 179.7188 Q149.0625 194.625 144 211.7812 Q144.5625 211.7812 144.5625 212.3438 Q195.75 175.2188 195.75 164.5312 Q195.75 158.0625 184.5 157.2188 L181.125 157.2188 Q171 157.2188 148.5 169.5938 ZM106.3125 192.0938 L106.3125 193.2188 Q119.5312 198.8438 129.9375 206.1562 L131.625 206.1562 Q135 192.375 135 176.9062 L134.4375 176.9062 Q110.25 188.7188 106.3125 192.0938 ZM84.375 275.9062 Q100.6875 281.25 100.6875 291.6562 Q101.8125 291.6562 101.8125 298.4062 L101.8125 305.1562 Q101.8125 312.1875 99 320.3438 L99 320.9062 L99.5625 320.9062 Q109.125 316.4062 127.6875 312.4688 L127.6875 311.9062 Q126 306.2812 126 301.2188 Q127.125 300.6562 128.25 300.6562 Q141.1875 315.2812 141.1875 316.9688 Q141.1875 321.4688 122.0625 323.1562 Q103.7812 328.2188 84.9375 343.9688 Q83.8125 343.9688 82.6875 344.5312 Q78.4688 344.5312 77.625 336.6562 Q77.625 333.5625 86.625 316.4062 Q88.875 309.9375 88.875 301.7812 L88.875 292.7812 Q88.875 286.3125 81.5625 279.8438 Q83.5312 275.9062 84.375 275.9062 Z" stroke="none" />
    </g>
  </g>
</svg>
