<?xml version="1.0"?>

<!DOCTYPE svg PUBLIC '-//W3C//DTD SVG 1.0//EN' 'http://www.w3.org/TR/2001/REC-SVG-20010904/DTD/svg10.dtd'>
<svg fill-opacity="1" xmlns:xlink="http://www.w3.org/1999/xlink" color-rendering="auto" color-interpolation="auto" text-rendering="auto" stroke="black" stroke-linecap="square" stroke-miterlimit="10" shape-rendering="auto" stroke-opacity="1" fill="black" stroke-dasharray="none" font-weight="normal" stroke-width="1" xmlns="http://www.w3.org/2000/svg" font-family="&apos;Dialog&apos;" font-style="normal" stroke-linejoin="miter" font-size="12" stroke-dashoffset="0" image-rendering="auto">
  <!--Unicode Character 'HENTAIGANA LETTER HE-3' (U+1B0B5)-->
  <defs id="genericDefs" />
  <g>
    <g>
      <path d="M111.6562 127.9688 L115.5938 129.0938 Q107.1562 160.875 107.1562 188.1562 L107.7188 188.1562 Q111.375 188.1562 130.2188 166.7812 Q134.1562 160.875 134.1562 155.5312 Q133.875 152.7188 132.4688 152.7188 L129.6562 152.7188 Q129.0938 152.7188 121.7812 154.4062 Q119.5312 151.5938 119.5312 151.0312 Q129.6562 143.7188 137.5312 143.7188 Q148.7812 146.25 148.7812 156.0938 L148.7812 156.6562 Q148.7812 168.1875 121.7812 185.3438 Q108.8438 196.0312 108.8438 196.5938 Q109.4062 196.5938 109.4062 197.1562 Q112.7812 194.9062 126.2812 192.6562 Q135.8438 194.3438 138.0938 194.3438 Q188.7188 151.0312 203.3438 151.0312 Q204.4688 150.4688 205.0312 150.4688 Q217.4062 150.4688 221.9062 162.8438 L221.9062 163.9688 L215.7188 184.7812 L215.7188 186.4688 Q216.5625 188.1562 232.0312 191.5312 Q244.4062 197.7188 244.4062 207.2812 Q244.4062 226.4062 192.0938 247.2188 L191.5312 247.2188 Q190.9688 247.2188 188.7188 243.8438 Q226.9688 223.5938 226.9688 207.2812 L226.9688 206.1562 Q226.9688 198.5625 217.4062 195.4688 Q202.7812 193.7812 202.7812 188.7188 Q205.0312 179.4375 205.0312 170.1562 L205.0312 165.0938 Q205.0312 160.5938 200.5312 160.5938 L198.8438 160.5938 Q186.75 160.5938 145.9688 198.2812 L145.9688 199.4062 Q154.9688 208.4062 154.9688 219.0938 Q154.9688 248.9062 116.1562 262.9688 Q109.4062 264.6562 105.4688 264.6562 L104.3438 264.6562 Q85.2188 264.6562 85.2188 253.4062 Q85.2188 236.8125 128.5312 202.2188 L128.5312 201.0938 L125.7188 200.5312 L120.6562 200.5312 Q104.625 200.5312 59.3438 244.4062 Q53.7188 251.7188 49.7812 251.7188 Q44.4375 251.7188 43.5938 243.8438 Q43.5938 231.1875 61.5938 225.2812 Q77.625 215.4375 90.2812 206.7188 L90.2812 204.4688 Q89.4375 204.4688 79.5938 189.2812 Q73.4062 181.9688 70.5938 181.9688 Q62.7188 189.5625 61.0312 197.1562 Q58.2188 199.9688 54.8438 199.9688 Q46.9688 198.2812 46.9688 185.3438 L46.9688 183.6562 Q46.9688 168.4688 59.9062 154.9688 Q63.2812 155.25 63.2812 156.6562 Q61.0312 165.6562 61.0312 169.0312 L61.0312 176.9062 L62.1562 176.9062 Q70.3125 171.5625 90.2812 159.4688 Q91.9688 159.75 91.9688 163.9688 Q80.4375 172.4062 75.6562 177.4688 Q84.375 187.3125 94.2188 189.8438 L94.7812 189.8438 Q94.7812 149.0625 111.0938 127.9688 L111.6562 127.9688 ZM99.8438 250.5938 L99.8438 251.7188 Q99.8438 257.3438 104.9062 257.3438 Q130.5 257.3438 138.6562 229.2188 Q139.2188 226.4062 139.2188 222.4688 Q139.2188 208.125 134.7188 207.8438 Q99.8438 234.8438 99.8438 250.5938 ZM162.8438 246.0938 Q169.5938 246.0938 179.7188 257.3438 Q179.7188 258.1875 175.7812 261.2812 Q169.5938 257.9062 166.2188 257.9062 L162.2812 257.9062 Q152.7188 259.0312 126.2812 292.7812 Q126.2812 293.3438 126.8438 293.3438 Q150.75 293.3438 188.1562 276.4688 L188.7188 275.3438 L188.7188 274.7812 Q188.7188 273.9375 182.5312 266.9062 Q183.9375 264.6562 187.0312 262.9688 Q192.9375 267.4688 206.7188 273.0938 Q206.7188 273.375 207.2812 276.4688 Q207.2812 289.9688 145.4062 304.0312 Q139.2188 305.7188 118.9688 307.4062 Q99 334.9688 85.7812 361.9688 Q83.8125 363.6562 81.2812 364.7812 Q73.4062 364.7812 73.4062 354.6562 L73.4062 354.0938 Q73.4062 341.7188 96.4688 315.8438 Q96.4688 315.2812 102.0938 307.9688 L102.0938 306.8438 L101.5312 306.8438 Q73.9688 306.8438 73.9688 293.9062 Q73.9688 285.1875 89.7188 278.1562 L91.4062 278.1562 L92.5312 282.0938 Q87.4688 286.5938 87.4688 287.1562 L87.4688 290.5312 Q87.4688 294.4688 108.2812 294.4688 Q109.125 294.4688 140.9062 258.4688 Q156.0938 246.0938 162.8438 246.0938 ZM179.7188 308.5312 Q195.75 308.5312 219.0938 338.3438 Q225.2812 347.3438 225.2812 354.0938 Q224.1562 363.0938 217.9688 363.0938 L217.4062 363.0938 Q209.5312 363.0938 203.9062 346.2188 Q197.4375 333 185.3438 321.4688 Q180.2812 316.4062 168.4688 316.4062 L165.6562 312.4688 Q165.6562 310.2188 179.7188 308.5312 Z" stroke="none" />
    </g>
  </g>
</svg>
