<?xml version="1.0"?>

<!DOCTYPE svg PUBLIC '-//W3C//DTD SVG 1.0//EN' 'http://www.w3.org/TR/2001/REC-SVG-20010904/DTD/svg10.dtd'>
<svg fill-opacity="1" xmlns:xlink="http://www.w3.org/1999/xlink" color-rendering="auto" color-interpolation="auto" text-rendering="auto" stroke="black" stroke-linecap="square" stroke-miterlimit="10" shape-rendering="auto" stroke-opacity="1" fill="black" stroke-dasharray="none" font-weight="normal" stroke-width="1" xmlns="http://www.w3.org/2000/svg" font-family="&apos;Dialog&apos;" font-style="normal" stroke-linejoin="miter" font-size="12" stroke-dashoffset="0" image-rendering="auto">
  <!--Unicode Character 'HENTAIGANA LETTER TE-3' (U+1B070)-->
  <defs id="genericDefs" />
  <g>
    <g>
      <path d="M72.8438 138.6562 Q91.4062 150.75 91.4062 164.5312 Q91.4062 175.2188 58.2188 242.1562 Q72.8438 249.4688 72.8438 284.9062 Q72.8438 290.5312 71.7188 313.5938 L72.8438 313.5938 Q81.2812 289.4062 94.7812 268.0312 Q98.1562 269.7188 99.2812 271.9688 Q83.8125 305.7188 72.2812 349.5938 Q70.0312 354.0938 66.6562 354.0938 Q54.8438 349.3125 54.8438 337.7812 Q59.9062 315.2812 59.9062 300.6562 L59.9062 278.1562 Q59.9062 248.9062 50.9062 248.9062 Q45 248.9062 44.7188 241.5938 Q44.7188 235.6875 57.6562 214.5938 Q76.2188 174.375 76.2188 158.3438 Q76.2188 150.4688 68.3438 143.1562 Q68.3438 142.3125 72.8438 138.6562 ZM155.5312 138.6562 Q181.4062 143.4375 181.4062 155.5312 Q179.1562 167.9062 178.0312 176.9062 Q183.0938 176.9062 186.4688 182.5312 L186.4688 184.2188 Q186.4688 189 175.7812 198.2812 Q174.0938 215.7188 174.0938 219.0938 Q209.25 204.75 211.2188 203.3438 Q201.375 198.2812 201.0938 197.1562 Q203.0625 193.2188 205.0312 193.2188 L229.2188 201.6562 Q230.625 203.3438 231.4688 206.1562 Q231.4688 214.3125 203.9062 218.5312 Q172.9688 229.7812 172.9688 233.1562 Q172.9688 234.8438 171.8438 248.9062 L172.9688 248.9062 Q191.8125 243.2812 202.7812 243.2812 Q231.1875 243.2812 242.1562 275.9062 Q242.7188 284.9062 243.2812 284.9062 Q243.2812 328.7812 203.3438 348.4688 Q196.0312 351.8438 179.1562 353.5312 Q138.6562 351.5625 131.9062 333.2812 Q130.7812 331.0312 130.7812 327.0938 Q130.7812 309.6562 154.9688 307.4062 Q178.3125 307.4062 194.3438 341.1562 Q225.2812 327.9375 225.2812 286.5938 L225.2812 284.3438 Q225.2812 262.6875 214.5938 256.2188 Q209.25 253.4062 206.1562 253.4062 L197.7188 253.4062 Q184.7812 253.4062 166.2188 264.0938 Q165.375 264.6562 163.4062 264.6562 Q158.625 264.6562 157.2188 257.3438 Q159.4688 244.4062 159.4688 238.7812 L158.9062 238.7812 Q129.375 255.375 122.3438 258.4688 Q118.4062 257.0625 118.4062 251.7188 L118.4062 251.1562 Q118.4062 244.125 137.5312 228.0938 Q163.9688 199.6875 163.9688 196.0312 L163.9688 189.2812 L163.4062 189.2812 Q155.5312 191.8125 130.7812 212.3438 Q130.2188 212.3438 126.8438 208.4062 Q142.5938 189.2812 157.7812 180.8438 Q165.6562 178.3125 165.6562 176.9062 L165.6562 165.0938 Q165.6562 150.1875 151.5938 144.2812 Q153 140.625 155.5312 138.6562 ZM144.8438 233.1562 L146.5312 233.1562 Q161.7188 226.125 161.7188 223.0312 Q162.2812 215.1562 162.2812 212.9062 L161.7188 212.9062 Q144.8438 229.5 144.8438 233.1562 ZM143.7188 328.7812 Q143.7188 335.25 155.5312 340.5938 Q163.6875 343.9688 179.1562 343.9688 L185.3438 343.9688 L185.3438 342.8438 Q174.9375 319.7812 161.1562 319.7812 L155.5312 319.7812 Q143.7188 319.7812 143.7188 328.7812 Z" stroke="none" />
    </g>
  </g>
</svg>
