<?xml version="1.0"?>

<!DOCTYPE svg PUBLIC '-//W3C//DTD SVG 1.0//EN' 'http://www.w3.org/TR/2001/REC-SVG-20010904/DTD/svg10.dtd'>
<svg fill-opacity="1" xmlns:xlink="http://www.w3.org/1999/xlink" color-rendering="auto" color-interpolation="auto" text-rendering="auto" stroke="black" stroke-linecap="square" stroke-miterlimit="10" shape-rendering="auto" stroke-opacity="1" fill="black" stroke-dasharray="none" font-weight="normal" stroke-width="1" xmlns="http://www.w3.org/2000/svg" font-family="&apos;Dialog&apos;" font-style="normal" stroke-linejoin="miter" font-size="12" stroke-dashoffset="0" image-rendering="auto">
  <!--Unicode Character 'HENTAIGANA LETTER MA-2' (U+1B0C3)-->
  <defs id="genericDefs" />
  <g>
    <g>
      <path d="M124.0312 132.75 Q137.25 132.75 149.9062 142.875 Q152.1562 145.9688 152.1562 149.625 Q150.4688 160.5938 149.3438 183.9375 Q174.9375 178.3125 183.6562 178.3125 Q207.8438 181.125 207.8438 195.75 Q207.8438 206.4375 175.7812 213.1875 L175.2188 213.1875 Q173.8125 213.1875 171.8438 208.125 Q185.9062 202.2188 192.6562 194.0625 L192.6562 190.6875 Q192.6562 188.7188 186.4688 187.875 L183.0938 187.875 Q172.4062 187.875 149.3438 194.0625 L149.3438 257.625 L149.9062 257.625 Q175.2188 253.9688 178.0312 244.6875 L178.0312 243.5625 Q178.0312 240.1875 174.6562 236.25 Q178.875 232.875 180.2812 232.875 Q191.5312 240.75 191.5312 248.625 Q191.5312 262.9688 149.9062 271.125 L149.9062 286.3125 Q149.9062 305.1562 151.5938 340.875 Q149.3438 360 139.2188 360 Q134.7188 360 124.0312 345.375 Q112.7812 337.2188 99.2812 330.1875 Q99.5625 324.5625 100.9688 324.5625 Q132.1875 337.5 135.2812 337.5 L135.8438 337.5 Q136.4062 313.0312 136.4062 299.8125 L136.4062 272.25 Q136.125 272.25 129.0938 272.8125 Q88.0312 272.8125 88.0312 255.375 Q88.0312 244.4062 106.0312 237.375 Q106.875 237.375 109.9688 242.4375 Q102.0938 247.7812 102.0938 254.25 Q102.0938 259.875 123.4688 259.875 Q133.875 259.3125 136.4062 259.3125 L136.4062 198.5625 L135.8438 198.5625 L88.5938 214.3125 Q85.5 214.875 83.5312 214.875 L81.8438 214.875 Q65.5312 214.875 54.8438 191.25 L54.8438 190.6875 L59.3438 186.75 Q67.5 198 81.8438 198 Q99.8438 198 136.9688 187.3125 L136.9688 171 Q136.9688 145.125 127.4062 141.75 Q120.6562 138.6562 120.6562 137.8125 Q122.0625 132.75 124.0312 132.75 ZM197.1562 294.75 L198.8438 294.75 Q219.9375 294.75 241.5938 321.1875 Q246.6562 329.3438 247.2188 335.8125 Q246.0938 345.375 238.2188 345.375 Q231.1875 345.375 225.2812 327.9375 Q209.8125 303.1875 197.7188 303.1875 L190.9688 303.1875 Q189 303.1875 184.7812 304.875 Q181.9688 300.375 181.9688 299.25 Q190.9688 294.75 197.1562 294.75 ZM62.7188 304.875 Q64.4062 308.5312 64.4062 309.375 Q57.0938 315.2812 57.0938 325.125 Q59.3438 326.8125 60.4688 326.8125 Q75.9375 324.5625 107.7188 306.5625 L108.2812 306.5625 Q109.6875 306.5625 110.5312 311.625 Q68.0625 342.2812 52.5938 347.625 Q42.4688 347.625 40.7812 333 L40.7812 332.4375 Q40.7812 316.9688 62.7188 304.875 Z" stroke="none" />
    </g>
  </g>
</svg>
