<?xml version="1.0"?>

<!DOCTYPE svg PUBLIC '-//W3C//DTD SVG 1.0//EN' 'http://www.w3.org/TR/2001/REC-SVG-20010904/DTD/svg10.dtd'>
<svg fill-opacity="1" xmlns:xlink="http://www.w3.org/1999/xlink" color-rendering="auto" color-interpolation="auto" text-rendering="auto" stroke="black" stroke-linecap="square" stroke-miterlimit="10" shape-rendering="auto" stroke-opacity="1" fill="black" stroke-dasharray="none" font-weight="normal" stroke-width="1" xmlns="http://www.w3.org/2000/svg" font-family="&apos;Dialog&apos;" font-style="normal" stroke-linejoin="miter" font-size="12" stroke-dashoffset="0" image-rendering="auto">
  <!--Unicode Character 'HENTAIGANA LETTER SA-8' (U+1B043)-->
  <defs id="genericDefs" />
  <g>
    <g>
      <path d="M141.4688 131.3438 Q173.5312 133.3125 173.5312 147.0938 L174.0938 150.4688 Q172.4062 162 172.4062 178.5938 L172.4062 183.0938 Q172.6875 184.2188 173.5312 184.2188 L174.0938 184.2188 Q190.4062 174.6562 201.6562 174.6562 Q227.8125 174.6562 237.6562 203.3438 Q240.4688 214.3125 240.4688 221.9062 L240.4688 222.4688 Q240.4688 305.1562 144.2812 354.0938 Q130.5 360.5625 125.7188 361.4062 L122.9062 356.9062 L122.9062 355.2188 Q147.9375 347.3438 184.2188 314.1562 Q223.5938 276.75 223.5938 220.7812 Q223.5938 193.7812 214.0312 187.0312 Q208.125 183.6562 202.7812 183.6562 L200.5312 183.6562 Q189.2812 183.6562 172.9688 196.5938 Q172.4062 197.4375 172.4062 198.8438 Q172.4062 230.625 173.5312 264.0938 Q169.875 278.7188 162.8438 278.7188 Q159.1875 278.7188 149.9062 266.3438 Q124.5938 249.1875 107.1562 243.2812 Q104.3438 240.1875 104.3438 237.6562 Q106.3125 225 152.7188 195.4688 Q155.8125 194.625 158.3438 191.5312 L158.3438 178.0312 Q158.3438 143.1562 153.8438 143.1562 Q149.0625 140.0625 138.6562 137.5312 L138.6562 136.9688 Q139.2188 131.3438 141.4688 131.3438 ZM59.9062 148.2188 Q81.2812 157.7812 81.2812 172.9688 Q81.2812 177.1875 64.4062 229.7812 Q58.2188 253.6875 58.2188 275.3438 Q58.2188 293.625 63.2812 302.3438 Q64.125 302.3438 72.2812 270.2812 Q80.1562 246.9375 81.8438 245.5312 L82.4062 245.5312 Q85.7812 245.5312 85.7812 247.7812 Q76.2188 287.7188 76.2188 305.1562 L76.2188 317.5312 Q75.375 330.4688 68.3438 330.4688 Q51.4688 326.5312 48.0938 286.5938 Q47.5312 284.625 47.5312 279.2812 Q47.5312 247.2188 62.1562 194.3438 Q63.8438 185.625 64.4062 174.0938 Q64.4062 158.625 55.9688 152.1562 Q55.9688 151.3125 59.9062 148.2188 ZM119.5312 239.3438 Q119.8125 243 158.9062 256.7812 Q158.3438 224.4375 158.3438 206.1562 L158.3438 205.5938 Q144.2812 212.0625 124.5938 231.4688 Q119.5312 236.8125 119.5312 239.3438 Z" stroke="none" />
    </g>
  </g>
</svg>
