<?xml version="1.0"?>

<!DOCTYPE svg PUBLIC '-//W3C//DTD SVG 1.0//EN' 'http://www.w3.org/TR/2001/REC-SVG-20010904/DTD/svg10.dtd'>
<svg fill-opacity="1" xmlns:xlink="http://www.w3.org/1999/xlink" color-rendering="auto" color-interpolation="auto" text-rendering="auto" stroke="black" stroke-linecap="square" stroke-miterlimit="10" shape-rendering="auto" stroke-opacity="1" fill="black" stroke-dasharray="none" font-weight="normal" stroke-width="1" xmlns="http://www.w3.org/2000/svg" font-family="&apos;Dialog&apos;" font-style="normal" stroke-linejoin="miter" font-size="12" stroke-dashoffset="0" image-rendering="auto">
  <!--Unicode Character 'HENTAIGANA LETTER KI-4' (U+1B026)-->
  <defs id="genericDefs" />
  <g>
    <g>
      <path d="M160.0312 144.5625 Q163.9688 144.5625 175.7812 154.6875 Q187.0312 159.75 187.0312 164.8125 Q187.0312 180.8438 149.3438 190.125 Q147.6562 204.1875 147.6562 216.5625 L147.6562 218.8125 Q147.6562 239.625 158.9062 282.375 Q160.0312 291.9375 160.0312 298.125 L160.0312 304.875 Q161.1562 306 179.1562 312.75 Q210.6562 329.3438 210.6562 340.875 Q210.6562 346.2188 203.9062 348.1875 Q198.5625 348.1875 188.1562 336.375 Q171.2812 322.3125 157.2188 318.9375 L156.6562 318.9375 Q143.4375 345.375 111.6562 345.375 L108.8438 345.375 Q82.4062 345.375 77.3438 323.4375 Q77.3438 306.5625 107.7188 300.9375 Q118.125 299.8125 122.3438 299.8125 Q126.8438 299.8125 143.7188 301.5 L143.7188 297.5625 Q143.7188 284.625 135.2812 239.0625 Q134.1562 225.8438 134.1562 218.8125 Q134.1562 203.3438 136.4062 190.6875 Q120.6562 190.6875 102.0938 180.5625 Q97.5938 177.1875 97.5938 176.625 L97.5938 176.0625 Q98.7188 171 99.8438 171 Q115.5938 177.75 135.8438 177.75 L138.0938 177.75 Q138.9375 177.4688 144.8438 159.1875 Q153 144.5625 160.0312 144.5625 ZM152.7188 175.5 L152.7188 176.625 Q153.8438 176.625 153.8438 177.1875 Q167.9062 172.9688 173.5312 165.9375 L173.5312 162.5625 Q168.4688 156.375 164.5312 156.375 L161.1562 156.375 Q157.2188 156.375 152.7188 175.5 ZM89.1562 325.125 Q89.1562 334.4062 112.7812 335.8125 Q133.0312 335.8125 142.0312 316.125 Q142.5938 315.2812 142.5938 313.3125 Q133.875 310.5 125.7188 310.5 L113.9062 310.5 Q89.1562 312.1875 89.1562 320.625 L89.1562 325.125 Z" stroke="none" />
    </g>
  </g>
</svg>
