<?xml version="1.0"?>

<!DOCTYPE svg PUBLIC '-//W3C//DTD SVG 1.0//EN' 'http://www.w3.org/TR/2001/REC-SVG-20010904/DTD/svg10.dtd'>
<svg fill-opacity="1" xmlns:xlink="http://www.w3.org/1999/xlink" color-rendering="auto" color-interpolation="auto" text-rendering="auto" stroke="black" stroke-linecap="square" stroke-miterlimit="10" shape-rendering="auto" stroke-opacity="1" fill="black" stroke-dasharray="none" font-weight="normal" stroke-width="1" xmlns="http://www.w3.org/2000/svg" font-family="&apos;Dialog&apos;" font-style="normal" stroke-linejoin="miter" font-size="12" stroke-dashoffset="0" image-rendering="auto">
  <!--Unicode Character 'HENTAIGANA LETTER YO-5' (U+1B0EB)-->
  <defs id="genericDefs" />
  <g>
    <g>
      <path d="M104.0625 141.75 Q133.3125 149.625 133.3125 162.5625 Q133.3125 167.0625 118.125 195.75 Q93.375 248.3438 93.375 254.25 L94.5 254.8125 L97.875 254.8125 Q106.875 254.8125 134.4375 250.875 Q144.2812 250.875 154.6875 267.1875 L154.6875 269.4375 Q154.6875 271.4062 133.3125 304.3125 Q120.9375 327.375 120.9375 331.875 L120.9375 333 Q122.625 336.375 128.25 336.375 Q150.75 336.375 183.375 333 Q199.125 335.8125 199.125 344.8125 Q199.125 351 189.5625 351 Q174.375 348.75 163.125 348.1875 Q158.9062 348.75 124.3125 349.3125 Q112.5 349.3125 109.6875 333 Q109.6875 323.1562 136.125 270 Q136.6875 269.1562 136.6875 267.1875 L136.6875 266.0625 Q136.125 263.8125 131.0625 263.8125 Q115.875 263.8125 93.9375 271.6875 Q84.6562 271.6875 80.4375 254.25 Q80.4375 248.3438 98.4375 209.25 Q111.9375 176.3438 114.1875 166.5 L114.1875 162 Q114.1875 154.125 100.125 147.375 Q102.6562 141.75 104.0625 141.75 ZM198 185.0625 Q204.75 185.0625 207.5625 191.8125 Q207.5625 202.5 173.25 206.4375 L168.75 206.4375 Q144.8438 206.4375 133.3125 191.25 L133.3125 190.125 L136.125 186.1875 Q144 192.9375 161.4375 192.9375 L168.75 192.9375 Q178.875 192.9375 196.3125 185.0625 L198 185.0625 Z" stroke="none" />
    </g>
  </g>
</svg>
