<?xml version="1.0"?>

<!DOCTYPE svg PUBLIC '-//W3C//DTD SVG 1.0//EN' 'http://www.w3.org/TR/2001/REC-SVG-20010904/DTD/svg10.dtd'>
<svg fill-opacity="1" xmlns:xlink="http://www.w3.org/1999/xlink" color-rendering="auto" color-interpolation="auto" text-rendering="auto" stroke="black" stroke-linecap="square" stroke-miterlimit="10" shape-rendering="auto" stroke-opacity="1" fill="black" stroke-dasharray="none" font-weight="normal" stroke-width="1" xmlns="http://www.w3.org/2000/svg" font-family="&apos;Dialog&apos;" font-style="normal" stroke-linejoin="miter" font-size="12" stroke-dashoffset="0" image-rendering="auto">
  <!--Unicode Character 'HENTAIGANA LETTER NA-8' (U+1B085)-->
  <defs id="genericDefs" />
  <g>
    <g>
      <path d="M95.0625 149.9062 L95.625 149.9062 Q99 151.5938 100.125 153.8438 L100.125 154.4062 Q55.6875 206.1562 55.6875 274.2188 Q55.6875 282.0938 58.5 309.0938 Q58.5 313.3125 52.3125 314.1562 Q38.8125 308.5312 38.8125 287.7188 L38.8125 282.6562 Q38.8125 216.2812 84.9375 159.4688 L95.0625 149.9062 ZM192.9375 151.0312 Q206.7188 151.0312 208.6875 170.1562 L208.6875 170.7188 Q199.125 237.0938 199.125 284.9062 L199.125 288.2812 Q199.125 323.1562 222.75 331.0312 Q228.375 333.8438 238.5 333.8438 Q247.5 332.7188 248.0625 332.7188 Q249.1875 336.6562 249.1875 338.9062 Q241.0312 342.8438 233.4375 342.8438 L228.375 342.8438 Q203.3438 342.8438 187.3125 314.7188 Q182.8125 304.3125 182.8125 286.5938 Q182.8125 255.6562 192.375 167.3438 Q192.375 160.5938 187.3125 160.5938 L186.1875 160.5938 Q165.6562 163.9688 126.5625 216.2812 Q128.8125 234.8438 129.375 262.9688 Q129.375 311.625 109.6875 328.2188 Q105.4688 329.9062 103.5 329.9062 Q88.875 329.9062 73.125 305.1562 Q70.875 298.125 70.875 294.4688 L70.875 292.2188 Q72.2812 271.9688 112.5 218.5312 L112.5 217.4062 Q109.4062 198.8438 100.125 198.8438 L99 198.8438 Q95.3438 198.8438 90 202.2188 L89.4375 202.2188 Q88.0312 202.2188 87.1875 197.7188 Q95.3438 188.7188 105.75 188.7188 Q116.1562 188.7188 123.75 204.4688 Q167.3438 151.0312 192.9375 151.0312 ZM112.5 235.4062 Q84.9375 276.4688 84.9375 293.9062 Q84.9375 310.7812 97.3125 316.4062 L99.5625 316.4062 Q114.75 316.4062 114.75 247.2188 L114.75 241.0312 L114.1875 235.4062 L112.5 235.4062 Z" stroke="none" />
    </g>
  </g>
</svg>
