<?xml version="1.0"?>

<!DOCTYPE svg PUBLIC '-//W3C//DTD SVG 1.0//EN' 'http://www.w3.org/TR/2001/REC-SVG-20010904/DTD/svg10.dtd'>
<svg fill-opacity="1" xmlns:xlink="http://www.w3.org/1999/xlink" color-rendering="auto" color-interpolation="auto" text-rendering="auto" stroke="black" stroke-linecap="square" stroke-miterlimit="10" shape-rendering="auto" stroke-opacity="1" fill="black" stroke-dasharray="none" font-weight="normal" stroke-width="1" xmlns="http://www.w3.org/2000/svg" font-family="&apos;Dialog&apos;" font-style="normal" stroke-linejoin="miter" font-size="12" stroke-dashoffset="0" image-rendering="auto">
  <!--Unicode Character 'HENTAIGANA LETTER U-3' (U+1B00C)-->
  <defs id="genericDefs" />
  <g>
    <g>
      <path d="M91.4062 137.8125 L93.0938 137.8125 Q102.6562 146.25 121.7812 146.25 L122.9062 146.25 Q134.4375 146.25 160.5938 141.75 Q175.2188 144.8438 175.2188 154.125 Q175.2188 159.75 154.9688 162.5625 Q125.7188 174.375 125.7188 186.75 L125.7188 191.8125 Q125.7188 197.7188 130.7812 216 Q163.9688 205.875 185.9062 205.875 Q220.7812 205.875 238.7812 229.5 Q243.8438 238.2188 243.8438 248.0625 Q243.8438 290.8125 174.0938 308.25 Q169.0312 308.25 156.0938 326.25 Q152.1562 329.9062 152.1562 333 L152.1562 336.9375 Q155.25 341.4375 163.4062 341.4375 L166.7812 341.4375 Q172.9688 341.4375 190.9688 337.5 Q201.6562 338.625 201.6562 345.375 Q201.6562 353.8125 174.6562 354.9375 L169.0312 354.9375 Q145.6875 354.9375 142.0312 339.1875 L142.0312 338.0625 Q142.0312 331.0312 156.0938 311.625 L156.0938 310.5 L152.1562 310.5 Q133.0312 310.5 133.0312 295.3125 Q133.0312 279.5625 162.8438 267.1875 Q165.9375 266.625 167.9062 266.625 L169.0312 266.625 Q184.2188 266.625 184.2188 279.5625 L184.2188 280.6875 Q184.2188 286.875 178.0312 298.6875 L179.1562 299.25 Q195.75 293.0625 210.0938 282.9375 Q225.2812 270 225.2812 249.1875 L225.2812 245.8125 Q225.2812 214.3125 187.0312 214.3125 L183.6562 214.3125 Q158.625 214.3125 132.4688 226.125 L132.4688 235.125 Q132.4688 288.5625 80.7188 312.75 Q75.0938 315 69.4688 315 L66.6562 315 Q44.1562 312.75 44.1562 293.625 Q44.1562 271.125 79.0312 243 Q95.9062 230.3438 116.1562 220.5 L116.1562 219.9375 Q116.1562 217.125 113.3438 197.4375 L113.3438 196.3125 Q113.3438 173.8125 141.4688 159.75 L141.4688 158.0625 Q133.0312 158.625 129.6562 158.625 Q103.2188 158.625 89.1562 142.3125 L89.1562 141.75 Q91.4062 138.9375 91.4062 137.8125 ZM59.9062 293.625 L59.9062 298.6875 Q59.9062 306.5625 67.7812 306.5625 L68.9062 306.5625 Q86.625 306.5625 104.3438 281.25 Q117.2812 257.3438 117.2812 232.3125 L116.7188 232.3125 Q75.0938 252 62.1562 283.5 Q59.9062 289.9688 59.9062 293.625 ZM146.5312 298.125 Q146.5312 301.2188 155.5312 302.0625 Q165.6562 302.0625 165.6562 294.75 Q169.0312 288 169.0312 281.25 L169.0312 279.5625 Q169.0312 275.625 165.0938 275.625 L164.5312 275.625 Q154.125 275.625 146.5312 292.5 L146.5312 298.125 Z" stroke="none" />
    </g>
  </g>
</svg>
