<?xml version="1.0"?>

<!DOCTYPE svg PUBLIC '-//W3C//DTD SVG 1.0//EN' 'http://www.w3.org/TR/2001/REC-SVG-20010904/DTD/svg10.dtd'>
<svg fill-opacity="1" xmlns:xlink="http://www.w3.org/1999/xlink" color-rendering="auto" color-interpolation="auto" text-rendering="auto" stroke="black" stroke-linecap="square" stroke-miterlimit="10" shape-rendering="auto" stroke-opacity="1" fill="black" stroke-dasharray="none" font-weight="normal" stroke-width="1" xmlns="http://www.w3.org/2000/svg" font-family="&apos;Dialog&apos;" font-style="normal" stroke-linejoin="miter" font-size="12" stroke-dashoffset="0" image-rendering="auto">
  <!--Unicode Character 'HENTAIGANA LETTER RU-2' (U+1B0F9)-->
  <defs id="genericDefs" />
  <g>
    <g>
      <path d="M117.8438 142.3125 Q127.6875 142.3125 134.1562 159.75 Q134.7188 159.75 135.8438 160.3125 Q172.6875 144 187.0312 144 Q201.6562 144 203.9062 161.4375 Q203.9062 168.1875 175.7812 184.5 Q127.4062 216.2812 107.1562 232.875 L107.1562 233.4375 L107.7188 233.4375 Q136.6875 223.875 151.0312 223.875 L157.7812 223.875 Q192.6562 223.875 207.2812 258.1875 Q210.6562 268.875 210.6562 276.75 L210.6562 281.8125 Q210.6562 287.1562 207.2812 303.1875 Q243.8438 324 243.8438 337.5 Q243.8438 342 237.6562 344.8125 Q234 344.8125 221.9062 330.75 L202.2188 316.125 L201.0938 316.125 Q176.9062 350.4375 140.3438 350.4375 Q122.9062 350.4375 107.1562 340.3125 L106.0312 340.3125 Q88.5938 347.625 73.9688 347.625 Q52.5938 347.625 45.2812 331.3125 Q44.1562 326.25 44.1562 324 Q44.1562 303.1875 86.9062 286.3125 Q93.375 267.4688 102.6562 262.125 Q112.7812 252.5625 123.4688 252.5625 L125.1562 252.5625 Q139.5 252.5625 144.8438 267.1875 Q146.5312 273.0938 146.5312 277.3125 L146.5312 279.5625 Q146.5312 280.125 147.0938 280.125 L146.5312 281.25 L146.5312 282.375 Q146.5312 283.2188 166.2188 286.875 L191.5312 295.3125 Q194.3438 293.9062 194.3438 281.25 L194.3438 275.0625 Q194.3438 246.0938 166.2188 234.5625 Q161.4375 232.875 154.9688 232.875 L150.4688 232.875 Q117 232.875 62.1562 271.125 Q61.3125 271.6875 59.3438 271.6875 L58.2188 271.6875 Q55.4062 270.2812 55.4062 267.1875 Q57.0938 248.625 68.3438 248.625 Q83.25 242.4375 157.7812 182.8125 Q184.7812 164.8125 184.7812 158.625 L184.7812 157.5 Q184.7812 152.7188 179.1562 152.4375 Q166.2188 152.4375 129.6562 178.3125 L127.4062 178.3125 Q118.9688 178.3125 116.1562 153.5625 L113.3438 151.3125 L111.0938 151.3125 Q109.6875 151.3125 104.3438 153 L102.6562 150.1875 L102.6562 149.625 Q110.25 142.3125 117.8438 142.3125 ZM56.5312 153 Q57.9375 170.4375 62.7188 170.4375 L64.9688 170.4375 Q70.3125 170.4375 82.4062 160.875 L82.9688 160.875 Q83.8125 160.875 85.7812 163.6875 Q70.5938 187.0312 60.4688 189.5625 Q50.0625 189.5625 47.5312 169.875 Q50.0625 153 53.7188 153 L56.5312 153 ZM97.5938 283.5 L98.1562 283.5 Q111.9375 281.25 120.0938 281.25 L129.0938 281.25 Q129.6562 281.25 129.6562 281.8125 Q130.7812 281.25 131.3438 281.25 L131.3438 280.125 Q131.3438 262.125 124.0312 262.125 L118.9688 262.125 Q107.1562 262.125 97.5938 281.8125 L97.5938 283.5 ZM95.3438 295.875 Q95.3438 314.1562 107.1562 326.8125 Q119.5312 320.625 130.2188 294.1875 Q129.6562 293.0625 129.6562 292.5 L115.5938 292.5 Q97.0312 293.3438 95.3438 295.875 ZM144.2812 295.3125 Q137.8125 316.125 116.7188 333.5625 L116.7188 334.6875 Q127.4062 338.625 135.2812 338.625 L142.5938 338.625 Q169.5938 338.625 187.0312 308.8125 Q156.9375 295.3125 144.2812 295.3125 ZM53.1562 324 Q53.1562 339.1875 74.5312 339.1875 Q84.375 339.1875 97.5938 333.5625 L97.5938 331.875 Q85.7812 316.6875 85.7812 298.6875 L85.7812 298.125 L85.2188 298.125 Q53.1562 310.2188 53.1562 324 Z" stroke="none" />
    </g>
  </g>
</svg>
