<?xml version="1.0"?>

<!DOCTYPE svg PUBLIC '-//W3C//DTD SVG 1.0//EN' 'http://www.w3.org/TR/2001/REC-SVG-20010904/DTD/svg10.dtd'>
<svg fill-opacity="1" xmlns:xlink="http://www.w3.org/1999/xlink" color-rendering="auto" color-interpolation="auto" text-rendering="auto" stroke="black" stroke-linecap="square" stroke-miterlimit="10" shape-rendering="auto" stroke-opacity="1" fill="black" stroke-dasharray="none" font-weight="normal" stroke-width="1" xmlns="http://www.w3.org/2000/svg" font-family="&apos;Dialog&apos;" font-style="normal" stroke-linejoin="miter" font-size="12" stroke-dashoffset="0" image-rendering="auto">
  <!--Unicode Character 'HENTAIGANA LETTER RE-2' (U+1B0FF)-->
  <defs id="genericDefs" />
  <g>
    <g>
      <path d="M80.7188 133.3125 L82.4062 133.3125 Q88.0312 146.8125 103.7812 153 Q125.7188 158.3438 125.7188 167.625 Q124.3125 177.1875 117.2812 177.1875 Q105.4688 173.8125 100.9688 173.8125 L98.7188 173.8125 Q88.875 173.8125 70.5938 181.125 L69.4688 181.125 Q66.6562 178.5938 66.6562 176.625 Q82.125 166.5 94.2188 162 L94.7812 160.875 Q77.3438 146.8125 77.3438 136.125 L77.3438 135 Q78.75 135 80.7188 133.3125 ZM181.4062 179.4375 Q201.6562 179.4375 205.0312 207.5625 Q205.0312 209.25 205.5938 211.5 Q196.5938 277.3125 196.5938 294.1875 Q196.5938 313.3125 206.1562 318.9375 Q208.125 320.0625 210.6562 320.0625 L211.2188 320.0625 Q233.1562 320.0625 248.3438 276.1875 L249.4688 276.1875 Q253.6875 278.1562 253.9688 279.5625 Q251.1562 299.8125 234.2812 323.4375 Q221.0625 338.0625 208.4062 338.0625 Q185.625 338.0625 180.2812 303.75 L179.1562 289.6875 Q179.1562 279 187.0312 216.5625 L187.0312 206.4375 Q185.3438 189.5625 177.4688 189.5625 L172.9688 189.5625 Q144.2812 195.4688 89.7188 279 Q90.2812 324 91.4062 345.375 Q89.1562 359.4375 81.2812 359.4375 L79.5938 359.4375 Q77.3438 358.5938 70.5938 342 Q61.875 329.625 58.7812 327.375 L57.0938 327.375 Q50.9062 338.9062 43.5938 342.5625 Q38.8125 342.5625 34.5938 327.375 L45.2812 305.4375 Q54.2812 281.8125 54.2812 260.4375 L54.2812 256.5 Q54.2812 252.5625 50.9062 248.0625 Q50.9062 247.2188 54.2812 244.6875 L54.8438 244.6875 Q63.2812 251.1562 63.2812 262.6875 Q63.2812 272.8125 56.5312 306.5625 L57.0938 306.5625 Q77.9062 276.1875 77.9062 273.9375 Q77.9062 255.6562 80.7188 223.3125 L79.0312 223.3125 Q59.625 236.25 48.6562 236.25 Q35.4375 236.25 34.0312 219.9375 L34.0312 218.25 Q37.125 201.9375 39.6562 201.9375 Q44.1562 203.9062 44.1562 205.875 Q43.0312 209.5312 43.0312 210.9375 L43.0312 213.75 Q43.0312 219.0938 50.3438 220.5 Q64.9688 220.5 84.6562 203.0625 Q86.625 201.9375 89.1562 201.9375 Q99.8438 203.3438 99.8438 208.125 Q90.8438 232.3125 90.8438 257.0625 L90.8438 258.75 L91.4062 258.75 Q147.375 179.4375 181.4062 179.4375 ZM76.2188 297.5625 Q63 316.6875 62.1562 319.5 Q62.1562 320.625 77.3438 334.6875 L77.9062 334.6875 L78.4688 331.875 L78.4688 306 Q78.4688 303.1875 77.9062 297.5625 L76.2188 297.5625 Z" stroke="none" />
    </g>
  </g>
</svg>
