<?xml version="1.0"?>

<!DOCTYPE svg PUBLIC '-//W3C//DTD SVG 1.0//EN' 'http://www.w3.org/TR/2001/REC-SVG-20010904/DTD/svg10.dtd'>
<svg fill-opacity="1" xmlns:xlink="http://www.w3.org/1999/xlink" color-rendering="auto" color-interpolation="auto" text-rendering="auto" stroke="black" stroke-linecap="square" stroke-miterlimit="10" shape-rendering="auto" stroke-opacity="1" fill="black" stroke-dasharray="none" font-weight="normal" stroke-width="1" xmlns="http://www.w3.org/2000/svg" font-family="&apos;Dialog&apos;" font-style="normal" stroke-linejoin="miter" font-size="12" stroke-dashoffset="0" image-rendering="auto">
  <!--Unicode Character 'HENTAIGANA LETTER RO-2' (U+1B103)-->
  <defs id="genericDefs" />
  <g>
    <g>
      <path d="M184.7812 141.4688 Q194.3438 141.4688 204.4688 154.9688 L204.4688 157.2188 Q204.4688 163.9688 188.1562 171.2812 Q159.75 190.125 109.9688 237.6562 Q85.2188 264.9375 85.2188 268.5938 L85.7812 268.5938 Q87.1875 268.5938 120.0938 248.9062 Q172.9688 220.2188 194.9062 220.2188 L196.0312 220.2188 Q196.5938 220.2188 196.5938 219.6562 Q214.0312 219.6562 214.0312 234.2812 Q214.0312 247.2188 179.7188 301.7812 Q170.7188 317.8125 170.7188 322.5938 L170.7188 324.2812 Q170.7188 335.5312 195.4688 335.5312 L198.2812 335.5312 Q208.9688 335.5312 229.2188 331.0312 Q239.9062 331.0312 239.9062 340.0312 L239.9062 340.5938 Q236.8125 351.2812 207.8438 351.2812 Q173.25 351.2812 162.8438 337.2188 Q161.1562 333 161.1562 329.3438 L161.1562 327.0938 Q161.1562 317.8125 185.3438 267.4688 Q193.7812 247.2188 193.7812 239.9062 L193.7812 236.5312 Q193.7812 229.5 184.7812 228.6562 L182.5312 228.6562 Q171.2812 228.6562 112.2188 263.5312 Q93.0938 274.5 54.2812 311.9062 L51.4688 311.9062 Q48.0938 310.5 48.0938 304.0312 L48.0938 300.6562 Q48.0938 288.8438 62.7188 278.7188 Q92.8125 243.2812 148.2188 188.7188 Q180.8438 158.625 180.8438 157.7812 L180.8438 156.0938 L179.1562 156.0938 Q158.3438 156.0938 115.0312 172.9688 L110.5312 174.0938 Q98.7188 174.0938 82.4062 146.5312 L82.4062 145.4062 Q82.4062 143.7188 88.5938 142.0312 Q97.5938 156.6562 110.5312 156.6562 Q126 156.6562 181.9688 141.4688 L184.7812 141.4688 Z" stroke="none" />
    </g>
  </g>
</svg>
