<?xml version="1.0"?>

<!DOCTYPE svg PUBLIC '-//W3C//DTD SVG 1.0//EN' 'http://www.w3.org/TR/2001/REC-SVG-20010904/DTD/svg10.dtd'>
<svg fill-opacity="1" xmlns:xlink="http://www.w3.org/1999/xlink" color-rendering="auto" color-interpolation="auto" text-rendering="auto" stroke="black" stroke-linecap="square" stroke-miterlimit="10" shape-rendering="auto" stroke-opacity="1" fill="black" stroke-dasharray="none" font-weight="normal" stroke-width="1" xmlns="http://www.w3.org/2000/svg" font-family="&apos;Dialog&apos;" font-style="normal" stroke-linejoin="miter" font-size="12" stroke-dashoffset="0" image-rendering="auto">
  <!--Unicode Character 'HENTAIGANA LETTER WE-4' (U+1B115)-->
  <defs id="genericDefs" />
  <g>
    <g>
      <path d="M120.9375 127.6875 Q131.3438 127.6875 145.125 136.125 Q148.5 139.2188 148.5 144.5625 Q144.5625 167.9062 144.5625 174.375 L145.125 174.375 Q149.625 174.375 168.1875 164.25 L169.875 164.25 Q177.75 165.0938 177.75 171 Q177.75 180.5625 143.4375 187.3125 L143.4375 201.375 Q150.75 206.1562 150.75 212.0625 Q150.75 215.7188 143.4375 225.5625 L143.4375 254.8125 L144 255.9375 Q150.1875 254.8125 159.1875 254.25 Q185.625 254.25 185.625 277.875 Q185.625 298.4062 159.1875 302.625 L144.5625 300.375 L144.5625 321.1875 Q144.5625 331.3125 138.375 333 Q129.9375 327.0938 129.9375 320.0625 Q130.5 303.75 130.5 293.0625 L115.875 283.5 L114.75 283.5 Q75.9375 329.625 56.25 329.625 Q45 329.625 39.375 309.9375 L38.8125 303.1875 Q41.0625 259.875 66.375 247.5 Q70.3125 246.375 72.5625 246.375 Q79.0312 246.375 97.875 261.5625 L99 261.5625 Q123.4688 239.0625 131.625 225.5625 L131.625 214.3125 L131.0625 214.3125 Q124.3125 214.3125 100.125 228.375 Q96.75 224.4375 96.75 222.1875 Q121.2188 203.3438 132.1875 202.5 L132.1875 187.875 L127.6875 187.875 Q104.0625 187.875 90.5625 172.125 Q90.5625 171.5625 93.9375 167.625 Q106.3125 176.625 121.5 176.625 L132.1875 176.625 Q132.1875 174.375 132.75 153 Q132.75 139.5 119.25 134.4375 Q116.4375 134.1562 116.4375 132.75 L116.4375 132.1875 Q118.6875 127.6875 120.9375 127.6875 ZM225.5625 218.8125 Q242.4375 218.8125 242.4375 232.875 Q242.4375 244.6875 225.5625 275.625 L225.5625 277.3125 Q225.5625 280.4062 236.8125 286.875 Q249.1875 295.875 249.1875 309.9375 Q249.1875 344.5312 157.5 365.0625 L153 365.0625 Q149.625 360 149.625 358.875 Q231.75 338.0625 231.75 308.25 Q231.75 291.375 217.6875 282.375 Q216 279.2812 216 277.875 Q226.6875 250.875 226.6875 238.5 L226.6875 232.875 Q226.6875 232.0312 224.4375 230.625 L218.8125 230.625 Q211.7812 230.625 190.6875 245.8125 Q188.4375 243.2812 186.75 240.75 Q208.6875 218.8125 225.5625 218.8125 ZM103.5 266.625 L103.5 267.1875 Q121.7812 261 131.0625 258.75 L131.0625 240.75 L129.9375 240.75 Q129.6562 240.75 103.5 266.625 ZM52.875 297.5625 L52.875 301.5 Q52.875 313.875 59.625 313.875 L62.4375 313.875 Q75.0938 313.875 109.125 280.6875 L109.6875 279.5625 Q106.875 277.3125 106.3125 277.3125 Q99 281.25 96.75 281.25 Q92.25 280.4062 92.25 272.25 Q92.5312 267.75 93.375 267.75 Q82.6875 255.9375 75.375 255.9375 L72 255.9375 Q61.0312 255.9375 53.4375 286.3125 Q52.875 292.5 52.875 297.5625 ZM144 264.375 L144 289.125 Q144 291.375 155.8125 291.9375 L157.5 291.9375 Q169.875 289.6875 169.875 279.5625 L169.875 272.8125 Q169.875 264.6562 156.9375 262.6875 Q154.125 262.6875 144 264.375 ZM115.3125 274.5 Q127.4062 282.9375 129.9375 282.9375 L130.5 282.9375 Q131.0625 275.3438 131.0625 271.6875 L131.0625 268.3125 L130.5 268.3125 Q115.3125 272.8125 115.3125 274.5 Z" stroke="none" />
    </g>
  </g>
</svg>
