<?xml version="1.0"?>

<!DOCTYPE svg PUBLIC '-//W3C//DTD SVG 1.0//EN' 'http://www.w3.org/TR/2001/REC-SVG-20010904/DTD/svg10.dtd'>
<svg fill-opacity="1" xmlns:xlink="http://www.w3.org/1999/xlink" color-rendering="auto" color-interpolation="auto" text-rendering="auto" stroke="black" stroke-linecap="square" stroke-miterlimit="10" shape-rendering="auto" stroke-opacity="1" fill="black" stroke-dasharray="none" font-weight="normal" stroke-width="1" xmlns="http://www.w3.org/2000/svg" font-family="&apos;Dialog&apos;" font-style="normal" stroke-linejoin="miter" font-size="12" stroke-dashoffset="0" image-rendering="auto">
  <!--Unicode Character 'HENTAIGANA LETTER KA-6' (U+1B01C)-->
  <defs id="genericDefs" />
  <g>
    <g>
      <path d="M117.2812 133.3125 Q144.8438 140.9062 144.8438 147.375 Q146.25 147.6562 147.6562 152.4375 Q147.6562 158.3438 122.9062 162 Q91.9688 171.5625 76.2188 182.25 Q64.4062 190.9688 64.4062 195.1875 L64.4062 199.125 Q66.9375 204.1875 80.7188 204.1875 L81.8438 204.1875 Q112.7812 202.7812 116.7188 196.875 Q126 184.5 129.6562 183.9375 Q144.2812 189.8438 144.2812 194.625 Q144.2812 199.9688 124.5938 209.25 Q106.5938 230.9062 106.5938 235.6875 Q107.1562 237.375 123.4688 248.0625 Q127.4062 253.125 129.6562 253.125 Q174.6562 223.875 197.1562 223.875 Q211.2188 225.2812 211.2188 236.25 L211.2188 236.8125 Q211.2188 240.1875 195.4688 281.25 L195.4688 285.75 L197.7188 285.75 Q213.4688 280.6875 221.9062 280.6875 Q238.2188 280.6875 243.8438 291.9375 Q244.9688 294.4688 244.9688 297 Q244.9688 317.8125 174.6562 339.1875 L174.0938 339.1875 Q172.6875 339.1875 170.1562 333 Q226.9688 312.1875 226.9688 298.6875 L226.9688 295.875 Q226.9688 290.5312 219.0938 289.6875 L213.4688 289.6875 Q208.6875 289.6875 192.0938 295.3125 Q184.7812 295.3125 183.0938 282.9375 Q183.0938 275.9062 194.3438 237.9375 L194.3438 234.5625 Q194.3438 233.7188 192.0938 232.3125 L189.8438 232.3125 Q172.4062 232.3125 134.1562 259.3125 Q133.5938 260.1562 133.5938 261.5625 Q141.4688 274.2188 141.4688 294.1875 L141.4688 294.75 Q141.4688 338.0625 110.5312 358.3125 Q109.6875 358.3125 105.4688 359.4375 Q100.9688 358.5938 85.7812 336.375 Q78.1875 328.7812 68.3438 322.3125 Q67.2188 322.3125 56.5312 334.125 Q54.2812 334.6875 54.2812 335.25 Q43.0312 331.5938 43.0312 323.4375 Q43.0312 315.2812 53.1562 277.875 L53.1562 277.3125 Q53.1562 271.6875 44.7188 266.0625 L43.5938 266.0625 L43.5938 264.9375 Q46.125 260.4375 46.9688 260.4375 L48.0938 260.4375 Q63.2812 265.2188 63.2812 275.0625 L63.2812 276.1875 Q58.2188 302.0625 58.2188 309.9375 L59.3438 309.9375 Q92.25 280.4062 118.4062 261 L118.4062 259.875 Q116.1562 253.9688 99.2812 240.75 Q99.2812 239.9062 98.1562 237.375 Q98.1562 234 109.4062 213.75 L109.4062 213.1875 L108.8438 213.1875 Q100.6875 215.4375 83.5312 216.5625 Q54.2812 216.5625 54.2812 198.5625 Q54.2812 177.1875 121.7812 147.9375 L122.3438 145.125 Q122.3438 142.875 112.7812 138.375 Q115.3125 133.5938 117.2812 133.3125 ZM73.4062 316.6875 Q95.3438 330.1875 106.0312 338.625 L107.1562 338.625 Q115.875 338.625 124.5938 308.8125 Q125.7188 304.3125 126.2812 293.0625 Q126.2812 279 122.9062 269.4375 L121.2188 269.4375 Q112.2188 273.6562 73.4062 315.5625 L73.4062 316.6875 Z" stroke="none" />
    </g>
  </g>
</svg>
