<?xml version="1.0"?>

<!DOCTYPE svg PUBLIC '-//W3C//DTD SVG 1.0//EN' 'http://www.w3.org/TR/2001/REC-SVG-20010904/DTD/svg10.dtd'>
<svg fill-opacity="1" xmlns:xlink="http://www.w3.org/1999/xlink" color-rendering="auto" color-interpolation="auto" text-rendering="auto" stroke="black" stroke-linecap="square" stroke-miterlimit="10" shape-rendering="auto" stroke-opacity="1" fill="black" stroke-dasharray="none" font-weight="normal" stroke-width="1" xmlns="http://www.w3.org/2000/svg" font-family="&apos;Dialog&apos;" font-style="normal" stroke-linejoin="miter" font-size="12" stroke-dashoffset="0" image-rendering="auto">
  <!--Unicode Character 'HENTAIGANA LETTER HA-9' (U+1B0A6)-->
  <defs id="genericDefs" />
  <g>
    <g>
      <path d="M123.75 134.4375 Q155.8125 137.25 155.8125 150.1875 Q155.8125 155.8125 139.5 179.4375 L139.5 181.125 L140.0625 181.125 Q148.7812 181.125 172.125 173.8125 L173.8125 173.8125 Q182.8125 173.8125 183.9375 180 L183.9375 180.5625 Q183.9375 190.9688 129.375 195.75 Q100.125 246.375 100.125 248.625 L100.6875 248.625 Q108 245.8125 111.9375 245.8125 Q124.0312 245.8125 125.4375 262.6875 Q120.9375 296.4375 120.9375 314.4375 L120.9375 316.6875 Q120.9375 329.625 137.8125 334.125 Q164.8125 342 190.6875 342 L196.3125 342 Q201.9375 342 207.5625 340.875 Q218.8125 343.125 218.8125 350.4375 Q218.8125 357.4688 197.4375 358.3125 L196.3125 358.3125 Q153 358.3125 118.6875 342 Q105.75 334.125 105.75 316.6875 L105.75 314.4375 Q105.75 301.5 110.8125 262.6875 L110.8125 262.125 Q110.8125 255.9375 106.3125 255.9375 L104.625 255.9375 Q97.3125 255.9375 80.4375 284.625 Q77.625 287.4375 74.8125 287.4375 Q69.1875 287.4375 69.1875 275.0625 Q69.1875 268.3125 91.6875 237.375 Q111.375 207.5625 116.4375 194.625 Q95.0625 194.625 76.5 181.6875 Q79.3125 176.0625 81 176.0625 Q95.3438 182.25 113.0625 182.25 L122.625 182.25 Q135.5625 161.1562 135.5625 154.125 L135.5625 150.75 Q135.5625 144.2812 119.8125 140.625 L119.8125 139.5 Q121.7812 134.4375 123.75 134.4375 Z" stroke="none" />
    </g>
  </g>
</svg>
