<?xml version="1.0"?>

<!DOCTYPE svg PUBLIC '-//W3C//DTD SVG 1.0//EN' 'http://www.w3.org/TR/2001/REC-SVG-20010904/DTD/svg10.dtd'>
<svg fill-opacity="1" xmlns:xlink="http://www.w3.org/1999/xlink" color-rendering="auto" color-interpolation="auto" text-rendering="auto" stroke="black" stroke-linecap="square" stroke-miterlimit="10" shape-rendering="auto" stroke-opacity="1" fill="black" stroke-dasharray="none" font-weight="normal" stroke-width="1" xmlns="http://www.w3.org/2000/svg" font-family="&apos;Dialog&apos;" font-style="normal" stroke-linejoin="miter" font-size="12" stroke-dashoffset="0" image-rendering="auto">
  <!--Unicode Character 'HENTAIGANA LETTER HA-11' (U+1B0A8)-->
  <defs id="genericDefs" />
  <g>
    <g>
      <path d="M91.6875 138.375 L92.8125 138.375 Q122.0625 138.375 122.0625 154.6875 L122.0625 164.25 L122.625 164.25 L135 162 Q158.625 164.8125 158.625 182.25 Q158.625 199.9688 137.8125 207.5625 Q127.9688 210.375 117.5625 210.375 L115.875 210.375 Q114.75 210.375 110.25 228.375 L110.25 231.1875 Q110.25 235.6875 123.75 250.875 L124.875 250.875 Q132.1875 244.125 146.8125 228.375 L150.1875 232.875 L150.1875 233.4375 Q128.8125 257.9062 128.8125 259.3125 Q137.8125 277.5938 137.8125 293.0625 L137.8125 297 Q137.8125 329.625 100.6875 347.625 Q92.8125 349.875 88.3125 349.875 L87.1875 349.875 Q69.75 349.875 69.75 331.3125 L69.75 328.5 Q69.75 304.0312 115.3125 260.4375 Q115.875 259.3125 115.875 258.75 Q113.0625 252 102.375 235.125 Q101.25 230.0625 101.25 228.9375 Q107.4375 202.5 107.4375 177.75 L106.875 177.75 Q95.3438 184.7812 84.9375 200.25 Q53.4375 248.625 53.4375 321.75 L53.4375 326.8125 Q53.4375 334.4062 54 347.0625 Q54 351 49.5 354.375 L46.125 354.375 Q38.8125 350.1562 38.8125 338.625 Q38.25 329.3438 38.25 324.5625 Q38.25 297.8438 56.8125 232.875 Q61.3125 212.0625 61.3125 203.0625 L61.3125 194.0625 Q60.75 188.7188 60.75 184.5 Q63.5625 182.8125 65.25 182.8125 Q69.75 193.2188 69.75 201.9375 Q69.1875 204.75 69.1875 208.6875 L70.875 208.6875 Q78.4688 191.5312 108 168.1875 Q108 147.9375 101.8125 147.9375 Q99.5625 145.9688 88.875 143.4375 L88.875 142.875 Q90.2812 138.375 91.6875 138.375 ZM222.1875 153.5625 Q236.25 155.25 236.25 165.375 Q236.25 176.9062 198 218.25 Q196.875 220.2188 196.875 221.625 L196.875 223.3125 Q196.875 223.875 219.375 232.3125 Q228.375 238.5 228.375 244.6875 Q228.375 253.4062 197.4375 281.25 Q179.4375 302.9062 179.4375 310.5 L179.4375 312.75 Q179.4375 324 212.625 329.625 L224.4375 330.75 Q228.0938 330.1875 231.75 330.1875 L242.4375 330.1875 Q249.75 330.75 249.75 335.8125 Q249.75 344.5312 227.8125 345.9375 L223.875 345.9375 Q179.1562 343.9688 168.75 322.3125 Q167.625 317.5312 167.625 316.6875 Q167.625 299.8125 205.875 257.625 Q210.375 252.2812 210.375 248.0625 L210.375 246.375 Q210.375 241.0312 192.9375 233.4375 Q188.4375 230.0625 187.3125 226.125 Q187.3125 222.75 208.125 191.25 Q217.6875 173.5312 217.6875 169.3125 L217.6875 166.5 Q217.6875 165.6562 215.4375 164.25 L214.875 164.25 Q205.3125 164.25 183.375 186.75 Q180.8438 185.9062 179.4375 183.375 Q202.7812 153.5625 222.1875 153.5625 ZM117.5625 203.625 L123.1875 203.625 Q140.3438 203.625 142.3125 183.9375 Q142.3125 169.875 132.75 169.875 L128.25 169.875 Q120.375 169.875 120.375 175.5 Q120.375 179.4375 117.5625 203.625 ZM118.125 268.875 Q85.5 306.2812 85.5 318.9375 Q84.0938 320.625 83.8125 329.625 L83.8125 334.6875 Q83.8125 341.4375 90.5625 341.4375 L91.125 341.4375 Q110.25 341.4375 122.0625 306 Q123.1875 298.6875 123.1875 292.5 L123.1875 287.4375 Q123.1875 279.2812 120.375 268.875 L118.125 268.875 Z" stroke="none" />
    </g>
  </g>
</svg>
