<?xml version="1.0"?>

<!DOCTYPE svg PUBLIC '-//W3C//DTD SVG 1.0//EN' 'http://www.w3.org/TR/2001/REC-SVG-20010904/DTD/svg10.dtd'>
<svg fill-opacity="1" xmlns:xlink="http://www.w3.org/1999/xlink" color-rendering="auto" color-interpolation="auto" text-rendering="auto" stroke="black" stroke-linecap="square" stroke-miterlimit="10" shape-rendering="auto" stroke-opacity="1" fill="black" stroke-dasharray="none" font-weight="normal" stroke-width="1" xmlns="http://www.w3.org/2000/svg" font-family="&apos;Dialog&apos;" font-style="normal" stroke-linejoin="miter" font-size="12" stroke-dashoffset="0" image-rendering="auto">
  <!--Unicode Character 'HENTAIGANA LETTER RU-6' (U+1B0FD)-->
  <defs id="genericDefs" />
  <g>
    <g>
      <path d="M106.5938 140.625 Q109.4062 140.9062 116.7188 152.4375 Q123.4688 156.6562 123.4688 160.875 Q122.0625 167.3438 107.7188 174.9375 Q107.1562 182.5312 107.1562 186.1875 L107.1562 189 Q122.3438 190.6875 122.3438 198.5625 Q121.7812 201.375 106.5938 218.25 L106.5938 232.875 Q106.5938 240.1875 98.7188 240.1875 Q97.875 240.1875 93.6562 239.0625 Q86.9062 243.2812 86.9062 247.5 L86.9062 248.625 Q86.9062 252.8438 99.2812 262.125 Q109.125 253.125 158.9062 196.3125 Q191.8125 155.8125 208.9688 155.8125 L208.9688 155.25 Q218.5312 155.25 225.8438 166.5 Q225.8438 170.4375 226.9688 170.4375 Q226.9688 178.875 208.9688 205.3125 Q202.2188 216.8438 202.2188 220.5 L202.2188 224.4375 Q202.2188 225.8438 219.6562 241.875 L221.3438 248.0625 Q221.3438 254.25 203.9062 276.1875 Q187.5938 301.2188 187.5938 315 L187.5938 316.125 Q187.5938 330.1875 226.4062 330.1875 L234.8438 330.1875 Q245.5312 331.5938 245.5312 339.1875 Q245.5312 345.9375 233.7188 345.9375 L227.5312 345.9375 Q192.375 345.9375 179.1562 327.375 Q177.4688 323.1562 176.9062 319.5 Q176.9062 300.9375 203.9062 253.125 L204.4688 249.75 L204.4688 249.1875 Q204.4688 244.9688 193.7812 234 Q191.5312 228.6562 191.5312 225.5625 Q191.5312 222.75 204.4688 192.375 Q208.9688 178.3125 208.9688 172.6875 Q208.9688 168.1875 203.3438 167.625 Q191.5312 167.625 153.2812 215.4375 L106.5938 269.4375 L106.5938 271.125 Q118.4062 287.7188 118.4062 305.4375 Q118.4062 338.0625 84.6562 351 Q76.7812 352.125 73.4062 352.125 Q46.4062 349.5938 46.4062 335.25 Q46.4062 334.6875 45.8438 334.6875 Q46.4062 315.5625 91.4062 270.5625 Q91.9688 269.4375 91.9688 268.875 Q88.5938 263.8125 79.0312 252.5625 L78.4688 249.75 Q78.4688 246.375 85.2188 235.125 Q64.9688 223.5938 64.9688 216 Q64.9688 206.7188 94.2188 191.25 L94.2188 178.3125 L93.6562 178.3125 Q80.4375 180 76.7812 180 L72.2812 180 Q47.5312 180 42.4688 164.8125 L42.4688 164.25 Q44.7188 160.875 45.2812 160.875 Q56.5312 168.75 73.4062 168.75 Q96.4688 168.75 96.4688 159.75 Q100.4062 140.625 106.5938 140.625 ZM77.3438 217.6875 Q77.3438 222.4688 89.7188 226.125 Q94.2188 220.7812 94.2188 218.25 Q94.2188 216.8438 94.7812 203.625 L94.2188 203.625 Q77.3438 211.7812 77.3438 217.6875 ZM61.5938 331.3125 L61.5938 334.6875 Q61.5938 343.6875 73.9688 343.6875 Q93.375 343.6875 99.8438 322.3125 Q102.6562 315.8438 102.6562 306 L102.6562 298.125 Q102.6562 286.5938 97.5938 279 Q84.375 291.6562 71.1562 310.5 Q61.5938 326.8125 61.5938 331.3125 Z" stroke="none" />
    </g>
  </g>
</svg>
