<?xml version="1.0"?>

<!DOCTYPE svg PUBLIC '-//W3C//DTD SVG 1.0//EN' 'http://www.w3.org/TR/2001/REC-SVG-20010904/DTD/svg10.dtd'>
<svg fill-opacity="1" xmlns:xlink="http://www.w3.org/1999/xlink" color-rendering="auto" color-interpolation="auto" text-rendering="auto" stroke="black" stroke-linecap="square" stroke-miterlimit="10" shape-rendering="auto" stroke-opacity="1" fill="black" stroke-dasharray="none" font-weight="normal" stroke-width="1" xmlns="http://www.w3.org/2000/svg" font-family="&apos;Dialog&apos;" font-style="normal" stroke-linejoin="miter" font-size="12" stroke-dashoffset="0" image-rendering="auto">
  <!--Unicode Character 'HENTAIGANA LETTER NE-KO' (U+1B098)-->
  <defs id="genericDefs" />
  <g>
    <g>
      <path d="M165.375 142.3125 Q174.375 142.3125 185.0625 156.375 Q185.625 159.1875 186.1875 159.1875 Q186.1875 162.2812 150.1875 204.1875 Q149.625 205.0312 149.625 206.4375 L149.625 208.125 Q169.3125 234.2812 169.3125 245.25 L174.9375 244.6875 L195.1875 244.6875 Q234.5625 247.2188 234.5625 257.625 Q235.125 257.625 235.125 259.3125 Q235.125 264.9375 227.8125 266.625 Q201.9375 259.3125 177.1875 259.3125 L171.5625 259.3125 L171.5625 273.9375 Q171.5625 306.5625 153.5625 336.9375 Q142.0312 350.4375 133.875 350.4375 Q127.125 350.4375 124.3125 338.625 Q106.3125 322.0312 70.875 302.625 Q52.875 299.8125 52.875 290.8125 Q52.875 277.5938 115.875 254.25 Q136.9688 248.625 155.25 245.8125 Q155.25 232.875 141.1875 208.6875 Q141.1875 208.125 140.625 207 Q140.625 204.4688 160.3125 169.875 L165.375 155.8125 L164.25 155.25 L163.6875 155.25 Q155.8125 155.25 112.5 177.1875 L110.8125 177.1875 Q99.5625 177.1875 88.3125 154.6875 L88.3125 153 Q88.3125 151.875 92.25 149.625 Q101.8125 159.75 108 159.75 L112.5 159.75 Q123.1875 159.75 165.375 142.3125 ZM69.1875 293.625 Q69.1875 295.3125 111.375 315 Q133.3125 327.375 136.6875 327.375 L138.375 327.375 Q148.2188 320.9062 154.6875 288.5625 Q156.375 278.7188 156.375 264.375 L156.375 260.4375 Q130.7812 260.4375 79.3125 282.9375 Q69.1875 289.125 69.1875 293.625 Z" stroke="none" />
    </g>
  </g>
</svg>
