<?xml version="1.0"?>

<!DOCTYPE svg PUBLIC '-//W3C//DTD SVG 1.0//EN' 'http://www.w3.org/TR/2001/REC-SVG-20010904/DTD/svg10.dtd'>
<svg fill-opacity="1" xmlns:xlink="http://www.w3.org/1999/xlink" color-rendering="auto" color-interpolation="auto" text-rendering="auto" stroke="black" stroke-linecap="square" stroke-miterlimit="10" shape-rendering="auto" stroke-opacity="1" fill="black" stroke-dasharray="none" font-weight="normal" stroke-width="1" xmlns="http://www.w3.org/2000/svg" font-family="&apos;Dialog&apos;" font-style="normal" stroke-linejoin="miter" font-size="12" stroke-dashoffset="0" image-rendering="auto">
  <!--Unicode Character 'HENTAIGANA LETTER TE-4' (U+1B071)-->
  <defs id="genericDefs" />
  <g>
    <g>
      <path d="M180 143.7188 Q195.75 147.375 195.75 156.0938 Q195.75 160.3125 173.25 169.0312 Q153.5625 180 149.0625 181.4062 Q148.2188 181.4062 145.6875 178.0312 L145.6875 177.4688 Q163.125 166.5 170.4375 160.0312 L170.4375 158.9062 L169.875 158.9062 Q123.1875 175.2188 111.9375 175.2188 L110.8125 175.2188 Q91.6875 175.2188 75.375 155.5312 L75.375 154.9688 Q75.375 154.125 78.75 151.5938 L79.3125 151.5938 Q91.125 160.0312 107.4375 160.0312 L113.625 160.0312 Q130.2188 160.0312 178.3125 143.7188 L180 143.7188 ZM123.1875 187.0312 Q142.3125 187.0312 142.3125 199.4062 Q142.3125 205.0312 134.4375 229.7812 L135 229.7812 Q135.5625 229.7812 135.5625 230.3438 Q146.8125 230.3438 191.8125 215.1562 Q191.8125 214.0312 201.9375 212.3438 Q216 214.0312 216 220.7812 Q216 228.6562 182.25 234.2812 Q163.6875 239.3438 129.9375 244.4062 Q113.0625 278.4375 113.0625 279.8438 Q129.6562 274.7812 138.9375 274.7812 L143.4375 274.7812 Q173.8125 274.7812 226.125 314.1562 Q241.3125 329.3438 241.3125 338.9062 Q239.625 349.0312 234 349.0312 Q228.6562 349.0312 214.875 328.7812 Q187.5938 301.2188 171 293.3438 Q151.5938 283.2188 139.5 283.2188 L135.5625 283.2188 Q111.0938 283.2188 93.9375 309.6562 Q60.4688 347.625 51.75 347.9062 L51.1875 347.9062 Q47.25 347.9062 46.6875 341.7188 Q46.6875 329.3438 64.6875 319.2188 Q99.2812 290.25 112.5 245.5312 L111.9375 245.5312 Q101.8125 246.6562 92.25 246.6562 Q56.8125 246.6562 56.8125 228.6562 Q56.8125 218.8125 74.8125 207.8438 L75.9375 207.8438 Q78.75 210.0938 79.875 210.0938 L79.875 211.2188 Q69.75 219.6562 69.75 226.4062 Q71.7188 234.2812 81 234.2812 L91.6875 234.2812 Q118.6875 234.2812 118.6875 230.3438 Q124.3125 208.4062 124.3125 203.9062 L124.3125 201.0938 Q124.3125 194.625 110.25 193.2188 L109.6875 192.0938 L109.6875 190.9688 Q109.6875 187.0312 118.6875 187.0312 L123.1875 187.0312 Z" stroke="none" />
    </g>
  </g>
</svg>
