<?xml version="1.0"?>

<!DOCTYPE svg PUBLIC '-//W3C//DTD SVG 1.0//EN' 'http://www.w3.org/TR/2001/REC-SVG-20010904/DTD/svg10.dtd'>
<svg fill-opacity="1" xmlns:xlink="http://www.w3.org/1999/xlink" color-rendering="auto" color-interpolation="auto" text-rendering="auto" stroke="black" stroke-linecap="square" stroke-miterlimit="10" shape-rendering="auto" stroke-opacity="1" fill="black" stroke-dasharray="none" font-weight="normal" stroke-width="1" xmlns="http://www.w3.org/2000/svg" font-family="&apos;Dialog&apos;" font-style="normal" stroke-linejoin="miter" font-size="12" stroke-dashoffset="0" image-rendering="auto">
  <!--Unicode Character 'HENTAIGANA LETTER KU-3' (U+1B02D)-->
  <defs id="genericDefs" />
  <g>
    <g>
      <path d="M102.9375 153.2812 L106.3125 153.2812 Q132.1875 153.2812 132.1875 171.2812 Q131.625 184.2188 130.5 196.5938 L131.0625 196.5938 Q162 190.9688 169.3125 190.9688 Q180.2812 190.9688 187.3125 208.9688 L187.3125 210.6562 Q187.3125 212.3438 173.8125 250.0312 Q165.375 277.875 165.375 305.1562 Q165.375 316.125 174.9375 319.7812 Q190.125 324.8438 207 324.8438 Q226.6875 324.8438 242.4375 319.2188 Q252 321.4688 252 327.0938 Q252 334.6875 239.0625 337.2188 Q224.4375 339.4688 216.5625 339.4688 L203.625 339.4688 Q176.0625 339.4688 158.625 327.0938 Q150.75 318.375 150.75 306.8438 L150.75 303.4688 Q150.75 275.9062 169.3125 212.9062 L169.3125 207.8438 Q167.0625 204.4688 163.125 204.4688 Q147.0938 204.75 128.8125 212.3438 Q120.375 260.1562 98.4375 289.9688 Q62.7188 334.9688 44.4375 334.9688 Q40.2188 334.9688 36.5625 329.9062 L36.5625 328.7812 Q39.9375 318.375 39.9375 305.1562 L39.9375 301.2188 Q40.2188 299.5312 44.4375 299.5312 Q48.0938 317.5312 49.5 319.7812 L50.625 319.7812 Q86.9062 294.75 105.1875 247.2188 Q111.375 225.8438 111.375 219.0938 L111.375 218.5312 L110.8125 218.5312 Q85.7812 225.8438 52.875 254.5312 Q42.1875 268.0312 41.0625 273.0938 L39.375 273.0938 Q36 273.0938 36 270.8438 Q45.2812 242.7188 73.125 224.7188 Q90.5625 214.5938 113.625 204.4688 Q115.3125 194.0625 115.3125 171.8438 Q113.9062 160.0312 103.5 160.0312 L100.6875 159.4688 L100.6875 158.9062 Q100.6875 157.5 102.9375 153.2812 Z" stroke="none" />
    </g>
  </g>
</svg>
