<?xml version="1.0"?>

<!DOCTYPE svg PUBLIC '-//W3C//DTD SVG 1.0//EN' 'http://www.w3.org/TR/2001/REC-SVG-20010904/DTD/svg10.dtd'>
<svg fill-opacity="1" xmlns:xlink="http://www.w3.org/1999/xlink" color-rendering="auto" color-interpolation="auto" text-rendering="auto" stroke="black" stroke-linecap="square" stroke-miterlimit="10" shape-rendering="auto" stroke-opacity="1" fill="black" stroke-dasharray="none" font-weight="normal" stroke-width="1" xmlns="http://www.w3.org/2000/svg" font-family="&apos;Dialog&apos;" font-style="normal" stroke-linejoin="miter" font-size="12" stroke-dashoffset="0" image-rendering="auto">
  <!--Unicode Character 'HENTAIGANA LETTER HO-6' (U+1B0BF)-->
  <defs id="genericDefs" />
  <g>
    <g>
      <path d="M102.0938 130.7812 Q123.1875 130.7812 131.9062 142.5938 L132.4688 148.2188 L132.4688 149.9062 Q132.4688 154.6875 131.3438 171.8438 L131.9062 171.8438 Q143.7188 168.4688 147.6562 168.4688 Q158.0625 168.4688 162.2812 181.4062 L162.2812 182.5312 Q162.2812 188.4375 129.0938 216.2812 Q127.9688 218.8125 127.9688 225.2812 L127.9688 238.7812 Q127.9688 268.0312 129.0938 283.2188 Q130.2188 283.2188 130.2188 283.7812 Q169.0312 274.2188 169.0312 260.7188 L164.5312 221.9062 Q165.9375 221.0625 169.0312 220.2188 Q170.4375 223.5938 173.5312 237.6562 Q185.3438 264.375 185.3438 266.3438 Q185.3438 279.8438 140.9062 294.4688 Q140.0625 295.0312 129.6562 297.2812 Q129.6562 309.9375 130.7812 343.4062 Q127.6875 361.9688 120.0938 361.9688 Q116.1562 361.125 102.0938 338.9062 Q77.0625 305.1562 71.7188 301.2188 Q53.1562 298.125 53.1562 284.3438 Q53.1562 262.4062 115.5938 215.1562 L115.5938 214.5938 Q116.1562 195.1875 116.1562 189.8438 L115.0312 189.8438 Q91.125 198.2812 54.8438 230.3438 Q50.9062 227.5312 50.9062 226.9688 L50.9062 225.8438 Q84.0938 192.9375 99.2812 186.4688 Q115.0312 178.3125 116.7188 176.9062 L116.7188 159.4688 Q116.7188 144 110.5312 140.9062 L97.5938 135.8438 Q99.5625 130.7812 102.0938 130.7812 ZM128.5312 206.1562 L129.0938 206.1562 Q145.9688 187.5938 145.9688 182.5312 L145.9688 181.4062 Q145.9688 180.2812 144.8438 180.2812 L142.5938 180.2812 Q129.6562 180.2812 129.6562 187.0312 Q128.5312 198.5625 128.5312 206.1562 ZM190.4062 189.8438 Q215.4375 203.0625 228.0938 226.4062 Q237.0938 244.6875 237.0938 256.2188 L237.0938 259.5938 Q235.4062 281.5312 228.0938 281.5312 Q221.3438 281.5312 220.2188 257.9062 Q220.2188 225.5625 187.0312 193.2188 Q188.4375 189.8438 190.4062 189.8438 ZM64.4062 280.9688 L64.4062 281.5312 Q64.4062 288.8438 84.6562 288.8438 Q103.7812 288.8438 115.0312 286.5938 Q115.5938 273.375 115.5938 266.9062 L115.5938 226.4062 Q105.4688 229.7812 72.2812 264.0938 Q64.4062 272.8125 64.4062 280.9688 ZM89.1562 301.7812 L82.9688 301.7812 L82.9688 302.9062 Q106.0312 326.5312 113.3438 336.0938 Q114.4688 336.6562 115.0312 336.6562 Q116.1562 334.125 116.1562 327.6562 L116.1562 323.1562 Q116.1562 314.7188 115.5938 300.6562 Q97.5938 301.7812 89.1562 301.7812 Z" stroke="none" />
    </g>
  </g>
</svg>
