<?xml version="1.0"?>

<!DOCTYPE svg PUBLIC '-//W3C//DTD SVG 1.0//EN' 'http://www.w3.org/TR/2001/REC-SVG-20010904/DTD/svg10.dtd'>
<svg fill-opacity="1" xmlns:xlink="http://www.w3.org/1999/xlink" color-rendering="auto" color-interpolation="auto" text-rendering="auto" stroke="black" stroke-linecap="square" stroke-miterlimit="10" shape-rendering="auto" stroke-opacity="1" fill="black" stroke-dasharray="none" font-weight="normal" stroke-width="1" xmlns="http://www.w3.org/2000/svg" font-family="&apos;Dialog&apos;" font-style="normal" stroke-linejoin="miter" font-size="12" stroke-dashoffset="0" image-rendering="auto">
  <!--Unicode Character 'HENTAIGANA LETTER TI-4' (U+1B065)-->
  <defs id="genericDefs" />
  <g>
    <g>
      <path d="M76.5 142.5938 Q105.75 145.125 105.75 156.0938 Q105.75 158.0625 92.8125 184.7812 L91.6875 188.7188 L91.6875 189.2812 L92.25 189.2812 Q105.4688 189.2812 128.25 179.1562 L131.625 178.5938 Q139.5 178.5938 141.75 185.3438 Q141.75 195.1875 91.125 202.2188 L86.625 202.2188 Q84.9375 203.3438 74.25 233.1562 L75.375 233.7188 Q89.4375 223.5938 99 223.5938 L100.6875 223.5938 Q118.125 225.8438 118.125 234.8438 Q118.6875 234.8438 119.25 238.2188 Q119.25 253.4062 78.75 304.5938 Q70.3125 317.25 70.3125 331.0312 L71.4375 331.5938 Q74.25 330.1875 101.25 295.0312 Q127.125 262.4062 138.375 262.4062 Q149.625 262.4062 162 277.0312 L162.5625 277.0312 Q193.5 242.7188 218.25 242.7188 L221.0625 242.7188 Q252.5625 246.6562 252.5625 271.9688 Q252.5625 304.875 181.6875 338.3438 L176.625 332.1562 L176.625 331.0312 Q235.125 301.5 235.125 272.5312 L235.125 268.0312 Q233.4375 251.1562 219.375 251.1562 Q196.875 251.1562 173.8125 283.2188 Q166.7812 297.2812 162 297.2812 L161.4375 297.2812 Q154.4062 297.2812 145.6875 278.1562 Q140.625 271.9688 136.125 271.9688 Q129.9375 273.0938 106.3125 304.0312 Q91.6875 325.4062 79.875 345.6562 Q75.6562 350.1562 70.3125 350.1562 Q62.7188 350.1562 59.625 335.5312 Q59.625 315.8438 87.75 276.4688 Q102.375 250.0312 102.375 238.7812 Q101.5312 232.5938 96.75 232.5938 L93.375 232.5938 Q81.8438 232.5938 66.9375 253.9688 Q64.6875 256.7812 63 257.3438 L61.3125 257.3438 Q55.125 252.5625 55.125 248.9062 Q55.125 246.6562 63 229.7812 Q72.5625 204.4688 72.5625 203.3438 L72.5625 202.2188 L72 202.2188 Q54.5625 202.2188 35.4375 183.6562 Q35.4375 182.25 39.9375 178.5938 Q55.125 189.8438 77.0625 189.8438 Q78.75 189.8438 86.625 161.1562 L86.625 156.6562 Q86.625 153 73.125 149.3438 Q73.125 146.5312 76.5 142.5938 Z" stroke="none" />
    </g>
  </g>
</svg>
