<?xml version="1.0"?>

<!DOCTYPE svg PUBLIC '-//W3C//DTD SVG 1.0//EN' 'http://www.w3.org/TR/2001/REC-SVG-20010904/DTD/svg10.dtd'>
<svg fill-opacity="1" xmlns:xlink="http://www.w3.org/1999/xlink" color-rendering="auto" color-interpolation="auto" text-rendering="auto" stroke="black" stroke-linecap="square" stroke-miterlimit="10" shape-rendering="auto" stroke-opacity="1" fill="black" stroke-dasharray="none" font-weight="normal" stroke-width="1" xmlns="http://www.w3.org/2000/svg" font-family="&apos;Dialog&apos;" font-style="normal" stroke-linejoin="miter" font-size="12" stroke-dashoffset="0" image-rendering="auto">
  <!--Unicode Character 'HENTAIGANA LETTER YO-6' (U+1B0EC)-->
  <defs id="genericDefs" />
  <g>
    <g>
      <path d="M156.9375 136.6875 Q172.4062 136.6875 180.5625 145.6875 Q181.125 148.7812 181.125 150.1875 Q181.125 156.375 168.1875 186.75 L169.3125 187.3125 Q180 183.6562 202.5 167.0625 Q203.625 167.0625 203.625 166.5 Q217.6875 171.5625 217.6875 176.0625 Q210.375 191.8125 210.375 228.375 Q209.8125 261.2812 209.8125 272.25 Q209.8125 275.0625 210.9375 275.0625 Q219.6562 275.0625 241.3125 270.5625 Q252 272.25 252 277.875 L252 278.4375 Q252 285.4688 236.25 286.875 Q222.1875 289.125 211.5 289.125 Q210.375 290.5312 210.375 291.375 Q210.375 309.9375 211.5 340.875 Q209.25 356.0625 200.8125 356.0625 Q197.1562 356.0625 182.25 343.6875 Q141.1875 316.125 141.1875 282.375 L141.1875 279 Q141.1875 246.0938 175.5 228.9375 Q180.2812 227.25 184.5 227.25 Q190.4062 227.25 195.1875 231.1875 L195.75 231.1875 Q196.875 231.1875 196.875 229.5 Q196.875 202.5 204.1875 180 L203.0625 179.4375 Q158.625 208.125 158.0625 208.125 Q154.125 210.375 151.875 210.375 Q144.5625 205.3125 144.5625 201.375 Q144.5625 200.25 154.125 188.4375 Q163.6875 162.2812 163.6875 151.875 Q163.6875 145.125 150.75 143.4375 L150.75 142.3125 Q152.7188 136.6875 156.9375 136.6875 ZM81.5625 137.8125 Q97.3125 144.5625 97.3125 152.4375 Q97.3125 163.125 60.1875 216.5625 L60.1875 217.6875 L60.75 217.6875 Q77.3438 212.625 99 202.5 L101.8125 202.5 Q113.625 204.4688 113.625 211.5 Q113.625 217.9688 90 219.9375 Q61.3125 229.7812 48.9375 239.0625 L46.6875 239.625 Q36 235.4062 36 228.9375 Q36 226.6875 47.25 214.3125 Q82.6875 161.7188 82.6875 152.4375 L82.6875 149.0625 Q82.6875 144.5625 76.5 142.3125 L76.5 141.75 Q80.1562 137.8125 81.5625 137.8125 ZM76.5 236.25 Q88.3125 245.25 88.3125 254.8125 Q88.875 254.8125 88.875 255.375 Q78.1875 290.5312 78.1875 304.875 Q78.1875 311.9062 79.3125 319.5 L79.875 319.5 Q87.1875 309.0938 105.75 267.75 Q111.375 255.6562 111.375 254.25 L113.0625 254.25 Q117 257.0625 117 258.75 Q88.3125 326.25 88.3125 336.9375 Q88.3125 349.875 81.5625 349.875 Q70.0312 349.875 66.375 317.8125 L66.375 306.5625 Q66.375 295.5938 73.125 258.1875 L73.125 250.3125 Q72.5625 243.2812 72.5625 238.5 L76.5 236.25 ZM150.1875 281.8125 Q150.1875 309.9375 183.375 329.0625 Q190.9688 331.875 192.9375 331.875 L194.625 331.875 Q196.875 331.0312 196.875 326.8125 L196.875 289.125 L192.9375 289.125 Q172.4062 289.125 167.0625 280.125 Q166.5 277.3125 165.9375 277.3125 Q165.9375 276.1875 178.3125 255.9375 Q181.6875 248.9062 181.6875 245.8125 L181.6875 243 Q181.6875 242.1562 180 241.3125 L176.0625 241.3125 Q164.5312 241.3125 153.5625 263.8125 Q150.1875 270.8438 150.1875 281.8125 ZM177.75 269.4375 L177.75 272.25 Q179.4375 275.625 186.75 275.625 L195.75 275.625 Q196.3125 253.6875 196.3125 243.5625 Q189.2812 256.2188 177.75 269.4375 Z" stroke="none" />
    </g>
  </g>
</svg>
