<?xml version="1.0"?>

<!DOCTYPE svg PUBLIC '-//W3C//DTD SVG 1.0//EN' 'http://www.w3.org/TR/2001/REC-SVG-20010904/DTD/svg10.dtd'>
<svg fill-opacity="1" xmlns:xlink="http://www.w3.org/1999/xlink" color-rendering="auto" color-interpolation="auto" text-rendering="auto" stroke="black" stroke-linecap="square" stroke-miterlimit="10" shape-rendering="auto" stroke-opacity="1" fill="black" stroke-dasharray="none" font-weight="normal" stroke-width="1" xmlns="http://www.w3.org/2000/svg" font-family="&apos;Dialog&apos;" font-style="normal" stroke-linejoin="miter" font-size="12" stroke-dashoffset="0" image-rendering="auto">
  <!--Unicode Character 'HENTAIGANA LETTER NA-5' (U+1B082)-->
  <defs id="genericDefs" />
  <g>
    <g>
      <path d="M168.4688 138.9375 L169.0312 138.9375 Q182.25 149.0625 182.5312 151.875 Q182.5312 158.9062 153.8438 169.3125 Q102.6562 222.75 102.6562 224.4375 L103.2188 224.4375 Q112.7812 219.6562 127.4062 217.6875 Q143.7188 217.6875 155.5312 235.125 Q157.7812 239.0625 160.5938 248.0625 Q178.5938 244.6875 188.1562 244.6875 L190.4062 244.6875 Q224.7188 244.6875 234.2812 266.625 Q235.9688 275.625 235.9688 277.3125 Q235.9688 306.8438 190.4062 336.9375 Q187.5938 338.625 186.4688 338.625 Q183.0938 334.9688 183.0938 334.6875 Q217.9688 307.125 217.9688 282.375 L217.9688 273.9375 Q217.9688 259.5938 198.2812 253.6875 Q195.75 252.5625 189.2812 252.5625 L181.9688 252.5625 Q168.75 252.5625 161.1562 257.0625 L161.1562 259.875 Q161.1562 302.3438 133.5938 333.5625 Q111.6562 353.8125 86.9062 353.8125 Q75.0938 353.8125 69.4688 343.6875 Q67.7812 337.7812 67.7812 335.25 Q67.7812 294.1875 129.6562 259.3125 Q138.6562 254.5312 143.7188 253.125 L143.7188 250.3125 Q143.7188 234.8438 130.7812 227.8125 Q126.2812 226.6875 124.0312 226.6875 Q100.125 226.6875 67.7812 275.0625 Q61.5938 281.25 58.7812 281.25 L57.6562 281.25 Q52.0312 276.1875 52.0312 269.4375 Q52.0312 258.1875 64.9688 250.875 Q108.8438 205.3125 134.7188 173.25 L134.7188 172.125 Q128.25 172.6875 125.1562 172.6875 L120.0938 172.6875 Q91.125 172.6875 80.1562 149.625 Q79.0312 147.6562 79.0312 146.25 Q82.6875 142.875 82.9688 142.875 Q94.5 158.625 113.3438 158.625 L117.8438 158.625 Q152.4375 158.625 162.8438 140.625 Q166.5 138.9375 168.4688 138.9375 ZM84.6562 331.875 L84.6562 335.8125 Q84.6562 343.6875 91.9688 343.6875 L98.7188 343.6875 Q115.0312 343.6875 132.4688 313.875 Q143.7188 289.9688 143.7188 261.5625 Q108.2812 275.625 91.9688 306.5625 Q84.6562 320.9062 84.6562 331.875 Z" stroke="none" />
    </g>
  </g>
</svg>
