<?xml version="1.0"?>

<!DOCTYPE svg PUBLIC '-//W3C//DTD SVG 1.0//EN' 'http://www.w3.org/TR/2001/REC-SVG-20010904/DTD/svg10.dtd'>
<svg fill-opacity="1" xmlns:xlink="http://www.w3.org/1999/xlink" color-rendering="auto" color-interpolation="auto" text-rendering="auto" stroke="black" stroke-linecap="square" stroke-miterlimit="10" shape-rendering="auto" stroke-opacity="1" fill="black" stroke-dasharray="none" font-weight="normal" stroke-width="1" xmlns="http://www.w3.org/2000/svg" font-family="&apos;Dialog&apos;" font-style="normal" stroke-linejoin="miter" font-size="12" stroke-dashoffset="0" image-rendering="auto">
  <!--Unicode Character 'HENTAIGANA LETTER MU-2' (U+1B0D1)-->
  <defs id="genericDefs" />
  <g>
    <g>
      <path d="M186.4688 137.8125 Q198.8438 137.8125 200.5312 154.125 Q200.5312 160.875 192.0938 182.8125 L192.0938 183.375 Q210.6562 180.5625 237.0938 177.75 Q253.4062 181.125 253.4062 190.125 Q251.4375 196.875 243.8438 196.875 Q221.3438 192.9375 192.0938 192.9375 L187.5938 192.9375 Q184.7812 194.9062 168.4688 227.25 Q157.2188 243.8438 157.2188 245.8125 L157.2188 249.75 Q157.2188 264.0938 138.6562 283.5 L138.6562 284.625 Q139.5 285.4688 152.7188 289.6875 Q160.5938 294.4688 160.5938 301.5 Q160.5938 310.2188 136.4062 322.875 Q129.0938 328.2188 129.0938 331.875 Q129.0938 339.75 153.8438 339.75 L160.0312 339.75 Q167.625 339.75 177.4688 336.9375 Q187.0312 338.0625 187.0312 345.9375 Q187.0312 353.8125 159.4688 354.9375 L157.7812 354.9375 Q128.25 354.9375 118.9688 340.875 Q117.8438 338.3438 117.8438 335.25 Q117.8438 325.9688 139.7812 309.375 Q142.0312 306.2812 142.0312 303.1875 L142.0312 299.25 Q142.0312 297.2812 128.5312 291.9375 Q126.8438 289.4062 126.8438 288 Q127.6875 285.1875 134.7188 275.625 Q139.2188 265.7812 139.2188 262.6875 L139.2188 262.125 L138.0938 262.125 Q120.375 273.9375 104.9062 273.9375 Q89.1562 273.9375 89.1562 260.4375 L89.1562 259.875 Q89.1562 241.3125 119.5312 226.125 Q129.375 223.875 134.7188 223.3125 Q145.125 223.3125 152.7188 232.875 Q160.3125 225.5625 172.4062 194.625 L172.4062 194.0625 Q144.2812 194.0625 54.2812 221.625 Q41.625 221.625 34.5938 198.5625 Q38.8125 195.1875 40.2188 195.1875 Q44.4375 203.0625 50.9062 203.0625 L55.4062 203.0625 Q61.0312 203.0625 145.4062 189.5625 Q176.9062 185.9062 176.9062 183.9375 Q183.6562 162.5625 183.6562 153.5625 L183.6562 151.875 Q183.6562 148.7812 181.4062 147.9375 L178.0312 147.9375 Q164.8125 153 157.7812 165.9375 Q155.5312 174.9375 148.7812 174.9375 Q141.4688 174.9375 139.2188 156.375 Q135.8438 149.625 131.9062 149.625 Q130.7812 149.625 126.8438 151.875 Q124.0312 148.5 124.0312 147.9375 Q131.9062 139.5 137.5312 139.5 Q145.4062 139.5 152.7188 153 L153.8438 153 Q155.25 153 172.9688 141.75 Q181.4062 137.8125 186.4688 137.8125 ZM95.9062 145.125 L96.4688 145.125 Q99.8438 145.125 99.8438 147.375 Q97.5938 153.8438 97.5938 162 L97.5938 168.1875 L99.8438 168.1875 Q106.0312 164.25 115.5938 154.6875 Q117.8438 156.9375 117.8438 159.1875 Q102.375 177.4688 99.8438 185.625 Q97.5938 187.3125 95.3438 187.3125 Q86.3438 187.3125 84.0938 168.75 Q84.0938 157.7812 95.9062 145.125 ZM104.3438 259.875 Q104.625 264.375 108.8438 264.375 Q125.4375 264.375 140.3438 246.375 Q142.5938 243.2812 142.5938 241.3125 Q140.3438 231.75 136.9688 231.75 L132.4688 231.75 Q120.6562 231.75 106.0312 252 Q104.3438 256.2188 104.3438 259.875 Z" stroke="none" />
    </g>
  </g>
</svg>
