<?xml version="1.0"?>

<!DOCTYPE svg PUBLIC '-//W3C//DTD SVG 1.0//EN' 'http://www.w3.org/TR/2001/REC-SVG-20010904/DTD/svg10.dtd'>
<svg fill-opacity="1" xmlns:xlink="http://www.w3.org/1999/xlink" color-rendering="auto" color-interpolation="auto" text-rendering="auto" stroke="black" stroke-linecap="square" stroke-miterlimit="10" shape-rendering="auto" stroke-opacity="1" fill="black" stroke-dasharray="none" font-weight="normal" stroke-width="1" xmlns="http://www.w3.org/2000/svg" font-family="&apos;Dialog&apos;" font-style="normal" stroke-linejoin="miter" font-size="12" stroke-dashoffset="0" image-rendering="auto">
  <!--Unicode Character 'HENTAIGANA LETTER HU-3' (U+1B0B2)-->
  <defs id="genericDefs" />
  <g>
    <g>
      <path d="M138.6562 126.5625 Q161.1562 132.75 161.1562 141.75 Q161.1562 145.4062 149.9062 162.5625 L149.9062 163.125 Q165.6562 169.875 165.6562 182.25 Q165.6562 193.7812 144.8438 216 L144.8438 217.6875 Q154.125 220.5 158.3438 228.375 Q160.3125 236.25 161.1562 236.25 Q169.3125 234.5625 180.2812 233.4375 Q207 233.4375 219.6562 258.1875 Q222.4688 269.4375 222.4688 274.5 Q222.4688 306 190.9688 317.25 Q179.1562 318.9375 175.7812 318.9375 Q167.625 318.9375 158.3438 313.3125 L157.2188 313.3125 L157.2188 313.875 Q153.2812 343.9688 142.0312 362.8125 Q139.7812 366.1875 139.2188 366.1875 Q135.2812 366.1875 134.7188 363.375 Q147.0938 324.5625 147.0938 250.3125 L146.5312 250.3125 Q129.0938 253.9688 90.2812 284.625 Q81.8438 296.7188 77.3438 297.5625 Q69.75 297.5625 68.3438 280.6875 Q68.3438 277.3125 88.0312 262.125 Q148.2188 203.0625 148.2188 185.625 L148.2188 181.6875 Q148.2188 178.0312 143.1562 174.9375 Q142.0312 174.9375 131.9062 187.875 Q104.0625 214.875 84.0938 214.875 L82.9688 214.875 Q65.5312 213.1875 65.5312 199.6875 L65.5312 198.5625 Q65.5312 178.0312 104.3438 164.25 Q118.6875 160.3125 130.2188 160.3125 L133.0312 160.3125 Q138.375 160.3125 144.2812 140.625 Q144.2812 136.4062 134.7188 131.0625 Q136.9688 126.5625 138.6562 126.5625 ZM73.9688 198.5625 Q73.9688 206.4375 81.2812 206.4375 L83.5312 206.4375 Q100.125 206.4375 126.2812 176.0625 Q126.2812 175.2188 127.9688 173.25 L127.9688 172.125 Q127.9688 171 126.2812 171 Q91.6875 171 75.0938 191.8125 Q73.9688 195.75 73.9688 198.5625 ZM90.8438 268.3125 L91.9688 268.3125 Q137.8125 241.875 143.7188 241.875 Q146.5312 240.4688 146.5312 239.0625 Q144.8438 222.75 139.7812 222.75 Q90.8438 267.1875 90.8438 268.3125 ZM161.1562 246.375 L161.1562 267.1875 Q161.1562 280.4062 159.4688 304.3125 Q164.25 308.8125 175.2188 308.8125 Q194.9062 308.8125 203.3438 288.5625 Q205.5938 282.0938 205.5938 273.9375 Q205.5938 250.5938 188.7188 243.5625 Q184.7812 242.4375 181.9688 242.4375 L177.4688 242.4375 Q163.6875 243.2812 161.1562 246.375 Z" stroke="none" />
    </g>
  </g>
</svg>
