<?xml version="1.0"?>

<!DOCTYPE svg PUBLIC '-//W3C//DTD SVG 1.0//EN' 'http://www.w3.org/TR/2001/REC-SVG-20010904/DTD/svg10.dtd'>
<svg fill-opacity="1" xmlns:xlink="http://www.w3.org/1999/xlink" color-rendering="auto" color-interpolation="auto" text-rendering="auto" stroke="black" stroke-linecap="square" stroke-miterlimit="10" shape-rendering="auto" stroke-opacity="1" fill="black" stroke-dasharray="none" font-weight="normal" stroke-width="1" xmlns="http://www.w3.org/2000/svg" font-family="&apos;Dialog&apos;" font-style="normal" stroke-linejoin="miter" font-size="12" stroke-dashoffset="0" image-rendering="auto">
  <!--Unicode Character 'HENTAIGANA LETTER KE-5' (U+1B036)-->
  <defs id="genericDefs" />
  <g>
    <g>
      <path d="M91.125 132.1875 Q98.7188 149.0625 105.1875 149.0625 Q119.25 154.125 119.25 156.9375 Q120.0938 156.9375 121.5 162.5625 Q121.5 168.4688 110.25 169.875 L106.875 169.3125 Q100.4062 170.1562 88.3125 180.5625 Q85.7812 179.7188 84.375 177.1875 L97.3125 163.6875 Q86.0625 148.5 86.0625 135 Q86.0625 133.875 91.125 132.1875 ZM200.8125 136.125 Q205.0312 136.125 216 155.25 Q232.0312 177.4688 250.875 182.8125 Q257.625 188.7188 257.625 192.375 Q254.8125 203.625 237.375 203.625 Q215.7188 203.625 203.0625 207 Q204.1875 236.25 204.1875 263.25 Q204.1875 323.1562 181.125 360.5625 Q177.1875 358.3125 176.0625 358.3125 Q189.5625 320.0625 189.5625 265.5 Q189.5625 252.2812 188.4375 212.625 Q188.1562 209.25 187.3125 209.25 Q153.8438 216.8438 127.6875 236.8125 Q126.8438 236.8125 124.3125 233.4375 Q142.0312 210.375 187.3125 196.875 L187.3125 181.125 Q187.3125 174.0938 186.75 168.1875 Q186.75 143.7188 192.375 140.0625 Q196.5938 136.125 200.8125 136.125 ZM203.0625 155.25 Q203.0625 158.3438 202.5 178.3125 Q203.0625 189.5625 203.0625 193.5 Q237.9375 191.5312 237.9375 190.125 Q237.9375 187.3125 226.125 177.1875 Q219.0938 170.1562 205.3125 153 L204.75 153 Q203.9062 153 203.0625 155.25 ZM84.375 209.25 Q90.2812 209.25 95.0625 218.8125 Q95.0625 220.5 88.875 232.875 Q77.0625 264.6562 77.0625 285.75 L77.0625 293.0625 Q77.0625 301.7812 79.3125 312.1875 L79.875 312.1875 Q95.9062 279.8438 104.0625 267.1875 Q108 269.4375 108 270.5625 L108 271.125 Q89.4375 314.1562 89.4375 331.3125 Q89.4375 334.6875 83.25 338.0625 Q68.0625 338.0625 65.25 291.375 Q65.25 269.4375 74.8125 225.5625 L74.25 225.5625 Q46.6875 237.375 45 237.375 Q34.3125 237.375 30.375 218.25 Q33.1875 215.4375 35.4375 215.4375 Q38.8125 222.75 47.25 222.75 Q55.6875 222.75 84.375 209.25 Z" stroke="none" />
    </g>
  </g>
</svg>
