<?xml version="1.0"?>

<!DOCTYPE svg PUBLIC '-//W3C//DTD SVG 1.0//EN' 'http://www.w3.org/TR/2001/REC-SVG-20010904/DTD/svg10.dtd'>
<svg fill-opacity="1" xmlns:xlink="http://www.w3.org/1999/xlink" color-rendering="auto" color-interpolation="auto" text-rendering="auto" stroke="black" stroke-linecap="square" stroke-miterlimit="10" shape-rendering="auto" stroke-opacity="1" fill="black" stroke-dasharray="none" font-weight="normal" stroke-width="1" xmlns="http://www.w3.org/2000/svg" font-family="&apos;Dialog&apos;" font-style="normal" stroke-linejoin="miter" font-size="12" stroke-dashoffset="0" image-rendering="auto">
  <!--Unicode Character 'HENTAIGANA LETTER SE-5' (U+1B056)-->
  <defs id="genericDefs" />
  <g>
    <g>
      <path d="M96.75 124.5938 L100.125 124.5938 Q120.375 124.5938 120.375 137.5312 L120.375 138.0938 Q120.375 140.625 119.25 149.9062 L119.8125 149.9062 Q124.0312 149.9062 139.5 140.9062 L141.1875 140.9062 Q149.0625 140.9062 149.0625 146.5312 Q149.0625 154.6875 119.25 163.4062 Q117.5625 170.4375 115.3125 176.9062 L115.3125 178.0312 Q135.8438 170.7188 150.75 159.4688 L154.125 158.9062 Q160.875 158.9062 163.125 165.0938 Q162.5625 170.7188 137.8125 188.1562 L122.0625 202.2188 L122.0625 203.3438 L127.125 202.7812 Q129.0938 202.7812 137.8125 205.5938 Q146.8125 200.8125 174.9375 167.3438 Q174.9375 165.6562 177.1875 164.5312 L177.75 164.5312 Q179.4375 168.4688 179.4375 169.5938 Q170.4375 183.6562 145.6875 211.2188 Q149.625 220.7812 149.625 226.9688 Q149.625 252.2812 119.8125 271.9688 Q110.8125 274.7812 109.125 274.7812 Q94.5 271.9688 94.5 260.7188 Q94.5 245.5312 129.9375 212.9062 L129.9375 211.7812 Q126.5625 208.4062 122.625 208.4062 L122.0625 208.4062 Q113.625 208.4062 96.75 231.4688 Q79.3125 252.2812 51.75 288.8438 L47.8125 291.6562 L45 291.6562 Q41.625 289.4062 41.625 282.0938 Q41.625 270.5625 61.3125 255.0938 Q130.5 184.5 130.5 180.8438 L129.9375 180.8438 L78.1875 207.8438 Q76.7812 208.9688 69.75 210.0938 Q59.3438 210.0938 50.625 195.4688 Q52.5938 191.25 54 190.9688 Q60.75 196.0312 65.8125 196.0312 Q77.0625 196.0312 101.25 181.9688 Q104.3438 181.9688 106.875 165.0938 L106.3125 165.0938 Q95.0625 166.2188 91.125 166.2188 Q77.9062 166.2188 72.5625 153.2812 L72.5625 152.7188 Q72.8438 152.7188 75.9375 149.9062 Q81.8438 154.4062 86.0625 154.4062 L94.5 154.4062 Q105.75 154.4062 107.4375 151.5938 L107.4375 148.7812 Q107.4375 135.5625 101.25 131.3438 Q93.375 128.8125 93.375 127.4062 Q93.6562 124.5938 96.75 124.5938 ZM207 136.4062 Q218.25 137.8125 218.25 145.4062 Q217.125 151.875 210.375 170.1562 L210.9375 170.1562 Q228.0938 163.9688 234.5625 163.9688 Q242.4375 163.9688 246.375 178.0312 Q246.375 182.5312 218.25 200.5312 Q177.4688 231.75 176.625 233.1562 Q177.1875 233.1562 177.1875 233.7188 Q187.5938 229.7812 192.375 228.6562 Q200.25 232.0312 200.25 237.6562 Q200.25 241.5938 184.5 246.6562 Q173.25 255.9375 167.625 266.9062 L168.75 266.9062 Q181.9688 257.3438 190.125 257.3438 Q203.9062 257.3438 205.3125 282.6562 L205.3125 288.2812 Q205.3125 342 181.125 359.1562 Q173.8125 366.75 168.75 368.1562 Q166.5 367.3125 165.375 365.3438 Q190.125 343.9688 190.125 297.8438 L190.125 277.5938 Q190.125 270 186.1875 268.0312 L182.25 268.0312 Q169.0312 268.0312 155.8125 301.7812 Q154.9688 305.4375 150.75 308.5312 L149.0625 308.5312 Q143.7188 308.5312 141.75 295.5938 L141.75 293.9062 Q141.75 289.4062 158.0625 269.7188 Q169.0312 254.25 171 247.2188 L171 246.6562 Q167.0625 248.3438 157.5 250.0312 Q154.125 249.1875 154.125 247.2188 Q154.125 237.375 167.0625 234.8438 Q180.2812 226.125 227.8125 177.4688 L227.8125 176.3438 Q227.8125 175.2188 226.6875 175.2188 Q223.5938 175.2188 204.1875 184.2188 Q198 180.2812 198 176.9062 Q202.5 166.5 202.5 148.7812 L201.375 148.2188 L199.6875 148.2188 Q198.2812 148.5 192.375 156.0938 L191.8125 156.0938 Q189 153 189 151.5938 Q196.0312 136.4062 207 136.4062 ZM106.875 262.4062 L106.875 262.9688 Q106.875 263.8125 109.125 265.2188 L113.625 265.2188 Q127.125 265.2188 137.8125 232.0312 L137.8125 226.4062 Q137.8125 220.2188 136.125 220.2188 L135 220.2188 Q106.875 248.3438 106.875 262.4062 Z" stroke="none" />
    </g>
  </g>
</svg>
