<?xml version="1.0"?>

<!DOCTYPE svg PUBLIC '-//W3C//DTD SVG 1.0//EN' 'http://www.w3.org/TR/2001/REC-SVG-20010904/DTD/svg10.dtd'>
<svg fill-opacity="1" xmlns:xlink="http://www.w3.org/1999/xlink" color-rendering="auto" color-interpolation="auto" text-rendering="auto" stroke="black" stroke-linecap="square" stroke-miterlimit="10" shape-rendering="auto" stroke-opacity="1" fill="black" stroke-dasharray="none" font-weight="normal" stroke-width="1" xmlns="http://www.w3.org/2000/svg" font-family="&apos;Dialog&apos;" font-style="normal" stroke-linejoin="miter" font-size="12" stroke-dashoffset="0" image-rendering="auto">
  <!--Unicode Character 'HENTAIGANA LETTER KI-5' (U+1B027)-->
  <defs id="genericDefs" />
  <g>
    <g>
      <path d="M122.9062 134.7188 L124.5938 134.7188 Q154.4062 136.6875 154.4062 149.3438 Q152.1562 156.0938 152.1562 192.0938 Q152.7188 192.0938 152.7188 192.6562 Q184.2188 187.5938 205.5938 180.2812 Q210.9375 177.4688 217.9688 176.3438 Q225.8438 177.75 225.8438 182.5312 Q225.8438 195.1875 151.0312 207.2812 Q150.4688 217.4062 150.4688 283.2188 Q190.6875 286.5938 239.9062 314.1562 Q248.9062 321.1875 248.9062 329.3438 Q248.9062 335.8125 243.2812 338.3438 Q237.375 334.9688 218.5312 320.3438 Q196.5938 306.2812 168.4688 296.7188 Q153 292.7812 149.9062 292.7812 L149.9062 293.3438 Q149.9062 310.7812 151.5938 326.5312 Q151.5938 348.75 134.1562 358.0312 Q129.375 358.0312 112.7812 329.9062 Q107.4375 319.2188 90.2812 302.9062 L89.1562 302.9062 Q78.75 304.0312 46.9688 341.1562 L43.0312 342.8438 Q39.0938 341.7188 39.0938 335.5312 Q39.0938 319.2188 54.2812 311.3438 Q86.625 286.3125 100.4062 261.8438 Q111.0938 245.8125 111.0938 239.9062 Q111.0938 233.7188 102.0938 229.7812 L102.0938 229.2188 Q103.5 225.2812 106.5938 225.2812 Q125.4375 225.2812 127.9688 236.5312 Q127.9688 237.6562 128.5312 238.7812 Q128.5312 250.0312 89.7188 292.7812 Q90.2812 292.7812 90.2812 293.3438 Q120.0938 283.7812 136.9688 283.7812 L136.9688 283.2188 Q136.9688 275.9062 137.5312 208.9688 L136.9688 208.9688 Q124.875 210.6562 105.4688 210.6562 L99.8438 210.6562 Q71.1562 210.6562 55.9688 192.0938 Q56.5312 190.4062 59.3438 187.5938 Q73.125 198.2812 99.2812 198.2812 Q126 197.1562 137.5312 195.4688 L137.5312 156.0938 Q137.5312 146.8125 118.4062 140.3438 L118.4062 139.2188 Q119.8125 134.7188 122.9062 134.7188 ZM97.0312 300.0938 Q97.0312 301.2188 113.3438 315.2812 Q131.0625 334.4062 133.0312 334.4062 L133.5938 334.4062 Q136.4062 334.4062 136.4062 311.9062 L136.4062 293.3438 L131.9062 293.3438 Q114.4688 293.3438 97.0312 300.0938 Z" stroke="none" />
    </g>
  </g>
</svg>
