<?xml version="1.0"?>

<!DOCTYPE svg PUBLIC '-//W3C//DTD SVG 1.0//EN' 'http://www.w3.org/TR/2001/REC-SVG-20010904/DTD/svg10.dtd'>
<svg fill-opacity="1" xmlns:xlink="http://www.w3.org/1999/xlink" color-rendering="auto" color-interpolation="auto" text-rendering="auto" stroke="black" stroke-linecap="square" stroke-miterlimit="10" shape-rendering="auto" stroke-opacity="1" fill="black" stroke-dasharray="none" font-weight="normal" stroke-width="1" xmlns="http://www.w3.org/2000/svg" font-family="&apos;Dialog&apos;" font-style="normal" stroke-linejoin="miter" font-size="12" stroke-dashoffset="0" image-rendering="auto">
  <!--Unicode Character 'HENTAIGANA LETTER RI-2' (U+1B0F2)-->
  <defs id="genericDefs" />
  <g>
    <g>
      <path d="M96.4688 130.2188 L97.0312 130.2188 Q122.3438 140.625 122.3438 152.1562 Q122.3438 158.625 103.2188 166.7812 Q98.1562 171 98.1562 174.0938 L98.1562 176.9062 Q98.1562 182.5312 102.0938 189.8438 Q110.5312 191.5312 110.5312 197.1562 Q110.5312 201.0938 106.0312 207.2812 Q108.2812 220.5 109.4062 234.2812 L110.5312 234.2812 Q160.5938 198.2812 201.0938 198.2812 Q229.2188 198.2812 244.4062 225.2812 Q248.3438 236.25 248.3438 244.9688 Q248.3438 310.2188 157.7812 362.5312 L153.8438 357.4688 L153.8438 356.9062 Q230.3438 300.375 230.3438 249.4688 L230.3438 241.5938 Q230.3438 217.4062 207.8438 208.9688 L199.4062 207.8438 Q160.875 207.8438 110.5312 248.3438 Q112.2188 268.3125 112.2188 288.8438 Q112.2188 336.375 102.6562 345.6562 Q100.6875 347.3438 97.5938 348.4688 Q90.5625 348.4688 82.4062 317.5312 Q73.6875 296.7188 68.9062 289.4062 L68.3438 289.4062 Q63.2812 294.1875 50.3438 312.4688 Q46.6875 314.1562 45.8438 314.1562 Q39.6562 310.7812 39.6562 304.5938 L39.6562 300.0938 Q39.6562 289.4062 51.4688 279.8438 Q59.3438 269.4375 59.3438 268.0312 Q50.625 246.0938 50.3438 233.7188 Q50.3438 220.2188 91.4062 192.0938 L91.4062 190.9688 Q88.5938 181.6875 88.5938 178.0312 Q88.5938 168.4688 102.0938 156.6562 Q103.7812 152.4375 103.7812 150.4688 L103.7812 148.7812 Q103.7812 141.1875 93.0938 135.2812 L93.0938 134.1562 Q95.9062 130.2188 96.4688 130.2188 ZM62.1562 240.4688 Q62.1562 245.8125 65.5312 257.3438 L66.0938 257.3438 Q80.7188 237.0938 94.7812 206.1562 L94.7812 205.5938 Q94.7812 205.0312 94.2188 201.0938 L93.0938 201.0938 Q79.3125 205.875 64.9688 228.6562 Q62.1562 234 62.1562 240.4688 ZM96.4688 223.0312 Q72.5625 260.4375 68.9062 268.0312 L70.0312 268.5938 Q97.3125 243.8438 98.7188 243.2812 Q97.5938 228.0938 97.5938 223.5938 L96.4688 223.0312 ZM75.0938 281.5312 L75.0938 282.0938 Q75.0938 287.1562 95.3438 320.3438 L95.9062 320.3438 Q99.2812 297.8438 99.2812 259.0312 L98.1562 259.0312 Q86.625 268.0312 75.0938 281.5312 Z" stroke="none" />
    </g>
  </g>
</svg>
