<?xml version="1.0"?>

<!DOCTYPE svg PUBLIC '-//W3C//DTD SVG 1.0//EN' 'http://www.w3.org/TR/2001/REC-SVG-20010904/DTD/svg10.dtd'>
<svg fill-opacity="1" xmlns:xlink="http://www.w3.org/1999/xlink" color-rendering="auto" color-interpolation="auto" text-rendering="auto" stroke="black" stroke-linecap="square" stroke-miterlimit="10" shape-rendering="auto" stroke-opacity="1" fill="black" stroke-dasharray="none" font-weight="normal" stroke-width="1" xmlns="http://www.w3.org/2000/svg" font-family="&apos;Dialog&apos;" font-style="normal" stroke-linejoin="miter" font-size="12" stroke-dashoffset="0" image-rendering="auto">
  <!--Unicode Character 'HENTAIGANA LETTER KU-5' (U+1B02F)-->
  <defs id="genericDefs" />
  <g>
    <g>
      <path d="M155.25 136.4062 Q172.125 146.5312 172.125 162.8438 Q172.125 169.5938 160.875 197.1562 L160.875 197.7188 Q162 197.7188 169.3125 188.7188 Q188.4375 167.9062 209.25 167.9062 Q233.1562 167.9062 240.75 190.9688 Q242.4375 201.375 242.4375 202.7812 Q242.4375 231.1875 207.5625 250.0312 Q192.375 253.4062 192.375 256.7812 L186.75 279.2812 Q186.75 283.2188 204.75 291.0938 Q208.125 294.4688 208.125 297.8438 Q208.125 302.3438 190.6875 317.5312 Q185.625 324 185.625 327.6562 L185.625 328.7812 Q185.625 338.3438 221.625 341.7188 Q226.4062 341.7188 229.5 348.4688 Q229.5 354.9375 217.125 356.3438 Q195.4688 356.3438 180 343.4062 Q174.375 336.6562 174.375 331.5938 Q174.375 322.0312 190.6875 301.7812 L190.6875 300.6562 Q190.6875 300.0938 178.875 290.5312 Q174.9375 286.0312 174.9375 282.6562 Q180.5625 259.875 180.5625 255.0938 Q164.5312 255.0938 158.625 247.2188 L158.625 245.5312 Q158.625 235.4062 182.25 221.9062 Q183.9375 221.9062 186.75 220.7812 Q193.5 220.7812 195.75 234.2812 Q195.1875 241.0312 195.1875 244.4062 L195.75 244.4062 Q225 232.875 225 202.7812 Q225 185.0625 215.4375 179.1562 Q210.9375 178.0312 209.8125 178.0312 L204.75 178.0312 Q182.5312 178.0312 154.6875 219.6562 Q147.6562 237.6562 141.75 237.6562 Q134.4375 235.9688 134.4375 225.8438 L134.4375 223.5938 Q134.4375 215.4375 146.8125 201.6562 Q158.0625 178.3125 158.0625 160.0312 L158.0625 157.7812 Q158.0625 148.2188 149.625 139.7812 L149.625 139.2188 L155.25 136.4062 ZM85.5 141.4688 L86.0625 141.4688 Q108 153.5625 108 166.7812 Q107.1562 175.5 95.625 189.8438 Q81.2812 204.75 55.6875 228.0938 Q55.125 228.9375 55.125 230.3438 L55.125 232.0312 L69.1875 247.2188 Q72 252.8438 72 260.7188 Q66.375 304.5938 66.375 310.2188 L66.375 318.6562 Q66.375 325.9688 68.0625 325.9688 Q76.7812 302.625 92.25 271.4062 Q97.5938 272.5312 97.875 274.2188 Q77.0625 323.4375 77.0625 349.0312 Q73.125 354.6562 72 354.6562 L70.3125 354.6562 Q56.25 354.6562 53.4375 326.5312 L53.4375 315.2812 L59.0625 259.5938 Q59.0625 244.4062 46.125 233.7188 Q46.125 232.3125 45.5625 231.4688 Q45.5625 228.6562 64.125 209.5312 Q89.7188 180.2812 91.125 166.2188 L91.125 161.1562 Q91.125 155.25 82.125 145.9688 Q84.0938 141.75 85.5 141.4688 ZM171.5625 244.9688 Q171.5625 246.6562 181.6875 246.6562 Q182.25 245.5312 182.25 244.4062 L182.25 232.5938 L180 232.5938 Q171.5625 238.5 171.5625 244.9688 Z" stroke="none" />
    </g>
  </g>
</svg>
