<?xml version="1.0"?>

<!DOCTYPE svg PUBLIC '-//W3C//DTD SVG 1.0//EN' 'http://www.w3.org/TR/2001/REC-SVG-20010904/DTD/svg10.dtd'>
<svg fill-opacity="1" xmlns:xlink="http://www.w3.org/1999/xlink" color-rendering="auto" color-interpolation="auto" text-rendering="auto" stroke="black" stroke-linecap="square" stroke-miterlimit="10" shape-rendering="auto" stroke-opacity="1" fill="black" stroke-dasharray="none" font-weight="normal" stroke-width="1" xmlns="http://www.w3.org/2000/svg" font-family="&apos;Dialog&apos;" font-style="normal" stroke-linejoin="miter" font-size="12" stroke-dashoffset="0" image-rendering="auto">
  <!--Unicode Character 'HENTAIGANA LETTER MI-5' (U+1B0CD)-->
  <defs id="genericDefs" />
  <g>
    <g>
      <path d="M163.4062 138.0938 Q174.6562 141.4688 181.9688 152.1562 L181.9688 153.8438 Q181.9688 156.6562 172.4062 168.4688 Q146.5312 219.0938 146.5312 222.4688 Q164.5312 221.3438 171.2812 221.3438 L180.2812 221.3438 Q225.8438 221.3438 242.1562 250.5938 Q244.9688 259.5938 244.9688 264.6562 L244.9688 269.1562 Q244.9688 320.625 163.9688 351.8438 Q158.0625 354.6562 151.5938 354.6562 Q148.2188 349.875 148.2188 347.9062 Q226.4062 319.5 226.4062 265.7812 Q226.4062 245.5312 212.9062 239.3438 Q198.2812 232.0312 178.5938 232.0312 L175.7812 232.0312 Q139.2188 232.0312 139.2188 236.5312 Q131.3438 258.4688 99.2812 291.6562 Q79.5938 309.6562 61.5938 309.6562 Q47.25 309.6562 43.0312 289.9688 L43.0312 287.1562 Q43.0312 255.6562 94.7812 232.5938 Q106.0312 228.6562 129.6562 223.5938 Q158.3438 163.9688 158.3438 152.7188 Q157.7812 152.7188 157.7812 152.1562 Q104.625 169.0312 100.9688 169.0312 Q91.125 169.0312 86.9062 143.7188 Q86.9062 141.1875 93.0938 139.7812 Q95.9062 150.4688 103.7812 150.4688 L106.5938 150.4688 Q134.7188 150.4688 163.4062 138.0938 ZM58.7812 284.9062 L58.7812 287.7188 Q58.7812 295.0312 65.5312 296.1562 L68.3438 296.1562 Q88.3125 296.1562 122.9062 238.7812 L122.9062 237.0938 L122.3438 237.0938 Q105.1875 237.0938 73.9688 257.9062 Q58.7812 270.8438 58.7812 284.9062 Z" stroke="none" />
    </g>
  </g>
</svg>
