<?xml version="1.0"?>

<!DOCTYPE svg PUBLIC '-//W3C//DTD SVG 1.0//EN' 'http://www.w3.org/TR/2001/REC-SVG-20010904/DTD/svg10.dtd'>
<svg fill-opacity="1" xmlns:xlink="http://www.w3.org/1999/xlink" color-rendering="auto" color-interpolation="auto" text-rendering="auto" stroke="black" stroke-linecap="square" stroke-miterlimit="10" shape-rendering="auto" stroke-opacity="1" fill="black" stroke-dasharray="none" font-weight="normal" stroke-width="1" xmlns="http://www.w3.org/2000/svg" font-family="&apos;Dialog&apos;" font-style="normal" stroke-linejoin="miter" font-size="12" stroke-dashoffset="0" image-rendering="auto">
  <!--Unicode Character 'HENTAIGANA LETTER TI-5' (U+1B066)-->
  <defs id="genericDefs" />
  <g>
    <g>
      <path d="M111.9375 135.2812 Q138.9375 138.375 138.9375 148.7812 L138.9375 149.3438 Q138.9375 154.6875 126.5625 170.7188 L126.5625 171.8438 L127.125 171.8438 Q136.9688 171.8438 153 165.6562 Q158.625 165.6562 162.5625 172.4062 Q162.5625 182.25 123.1875 185.3438 L118.125 185.3438 Q113.9062 193.7812 95.0625 209.5312 L95.0625 210.6562 Q117 219.6562 117 234.2812 Q117 247.2188 97.875 282.6562 L97.875 283.7812 Q99 284.3438 99.5625 284.3438 Q150.4688 248.3438 185.625 248.3438 Q200.8125 248.3438 215.4375 255.6562 Q230.0625 265.7812 230.0625 282.0938 L230.0625 282.6562 Q230.0625 330.1875 109.6875 357.4688 Q106.875 353.5312 106.875 351.2812 Q151.5938 339.4688 174.9375 325.9688 Q212.0625 304.5938 212.0625 282.6562 L212.0625 281.5312 Q212.0625 266.3438 199.125 260.1562 Q195.1875 257.9062 189 257.9062 L181.125 257.9062 Q150.75 257.9062 104.625 298.4062 Q99.2812 305.7188 94.5 305.7188 Q81 300.6562 81 293.3438 L81 292.7812 Q81 289.9688 92.8125 269.7188 Q101.8125 247.5 101.8125 233.7188 Q101.8125 221.625 90.5625 217.4062 Q82.6875 216.5625 82.6875 210.6562 Q82.6875 208.9688 93.9375 199.4062 L102.375 187.5938 L102.375 185.9062 L94.5 185.9062 Q69.4688 185.9062 57.9375 165.6562 L57.9375 165.0938 L61.3125 162.2812 Q72.2812 173.5312 96.75 173.5312 Q112.5 173.5312 112.5 168.4688 Q120.375 158.625 120.375 152.7188 L120.375 150.4688 Q120.375 145.9688 108.5625 140.3438 L108.5625 139.7812 Q108.8438 138.0938 111.9375 135.2812 Z" stroke="none" />
    </g>
  </g>
</svg>
