<?xml version="1.0" encoding="UTF-8" standalone="no"?>
<svg
   xmlns:dc="http://purl.org/dc/elements/1.1/"
   xmlns:cc="http://creativecommons.org/ns#"
   xmlns:rdf="http://www.w3.org/1999/02/22-rdf-syntax-ns#"
   xmlns:svg="http://www.w3.org/2000/svg"
   xmlns="http://www.w3.org/2000/svg"
   xmlns:sodipodi="http://sodipodi.sourceforge.net/DTD/sodipodi-0.dtd"
   xmlns:inkscape="http://www.inkscape.org/namespaces/inkscape"
   fill-opacity="1"
   color-rendering="auto"
   color-interpolation="auto"
   text-rendering="auto"
   stroke="black"
   stroke-linecap="square"
   stroke-miterlimit="10"
   shape-rendering="auto"
   stroke-opacity="1"
   fill="black"
   stroke-dasharray="none"
   font-weight="normal"
   stroke-width="1"
   font-family="'Dialog'"
   font-style="normal"
   stroke-linejoin="miter"
   font-size="12"
   stroke-dashoffset="0"
   image-rendering="auto"
   version="1.1"
   id="svg9"
   sodipodi:docname="hentaigana_letter_nu1.svg"
   inkscape:version="0.92.4 (5da689c313, 2019-01-14)"
   width="100%"
   height="100%"
   viewBox="0 0 100 100"
   preserveAspectRatio="xMidYMid meet"
   >
  <metadata
     id="metadata13">
    <rdf:RDF>
      <cc:Work
         rdf:about="">
        <dc:format>image/svg+xml</dc:format>
        <dc:type
           rdf:resource="http://purl.org/dc/dcmitype/StillImage" />
      </cc:Work>
    </rdf:RDF>
  </metadata>
  <sodipodi:namedview
     pagecolor="#ffffff"
     bordercolor="#666666"
     borderopacity="1"
     objecttolerance="10"
     gridtolerance="10"
     guidetolerance="10"
     inkscape:pageopacity="0"
     inkscape:pageshadow="2"
     inkscape:window-width="1920"
     inkscape:window-height="986"
     id="namedview11"
     showgrid="false"
     inkscape:zoom="2.36"
     inkscape:cx="50"
     inkscape:cy="50"
     inkscape:window-x="-11"
     inkscape:window-y="-11"
     inkscape:window-maximized="1"
     inkscape:current-layer="svg9" />
  <!--Unicode Character 'HENTAIGANA LETTER NU-1' (U+1B08F)-->
  <defs
     id="genericDefs" />
  <g
     id="g7"
     transform="matrix(0.44895879,0,0,0.42405793,-14.929727,-54.500575)">
    <g
       id="g5">
      <path
         d="m 126.8438,130.5 q 23.0624,5.625 23.0624,18 v 0.5625 l -0.5624,5.625 h 0.5624 q 30.9376,-9 49.5,-9 33.75,0 45.5626,24.75 1.6874,7.0313 1.6874,10.6875 0,11.8125 -9.5624,23.625 v 0.5625 q 7.3124,5.9063 7.3124,14.625 0,19.6875 -43.3124,38.25 -3.375,1.4063 -3.375,2.25 17.1562,0 19.125,19.6875 0.5624,0.8438 0.5624,2.25 0,26.7188 -12.9374,53.4375 -18.2813,26.4375 -41.625,26.4375 -21.6563,0 -39.9376,-36 h -1.6874 q -29.8126,26.1562 -48.9376,32.625 h -0.5624 q -0.2813,0 -3.9376,-4.5 v -1.125 q 43.875,-22.5 63,-63.5625 V 288 h -0.5624 q -26.4376,9 -36,10.6875 -10.125,-2.5313 -10.125,-10.125 4.2187,-15.1875 7.875,-15.1875 1.6874,0 4.5,1.125 l -0.5626,2.8125 q 0,3.9375 4.5,3.9375 36.5626,-3.6562 36.5626,-11.8125 1.125,-4.2187 1.6874,-12.375 0,-4.2187 -9,-6.1875 0.8438,-6.1875 2.8126,-6.1875 h 3.9374 q 19.125,0 19.125,12.375 l -2.25,11.8125 h 0.5626 q 42.1874,-9.8438 64.125,-29.8125 11.25,-10.125 11.25,-17.4375 v -5.0625 q 0,-1.4063 -2.25,-1.6875 -26.4376,19.6875 -45,19.6875 h -2.8126 q -18,-1.6875 -18,-14.625 0,-16.0313 27.5626,-24.75 L 199.4062,193.5 q 14.625,1.125 26.4376,3.9375 3.9374,-5.0625 3.9374,-16.3125 0,-16.3125 -15.1874,-23.625 -6.1876,-2.8125 -15.75,-2.8125 h -0.5626 q -29.5312,0 -51.75,11.8125 -6.4687,28.6875 -36,67.5 0,0.8438 13.5,12.9375 l 0.5626,2.8125 q -2.25,5.625 -7.875,5.625 -5.3438,0 -15.1876,-10.125 h -1.125 q -20.8124,20.8125 -30.375,20.8125 -4.2187,0 -13.5,-11.25 Q 41.3438,244.4062 41.3438,237.375 v -0.5625 Q 42.4688,222.75 71.1562,195.75 l 0.5626,-1.125 q -3.0938,-11.25 -10.6876,-18 -1.6874,0 -2.8124,-2.25 1.125,-2.8125 3.9374,-2.8125 11.8126,0 20.25,15.1875 h 1.125 q 22.5,-15.1875 43.875,-23.625 6.1876,0 6.1876,-12.375 v -1.6875 q 0,-9 -10.125,-14.625 0.5624,-1.6875 3.375,-3.9375 z m -39.375,66.375 q 0,7.5938 15.1874,28.125 l 1.125,0.5625 q 12.9376,-17.4375 21.9376,-38.8125 3.9374,-10.125 5.0624,-15.75 h -1.125 q -25.875,9.8438 -42.1874,25.875 z m 83.8124,23.0625 q 0,6.75 6.75,6.75 20.25,0 39.9376,-18.5625 0.5624,-1.125 0.5624,-1.6875 -8.1562,-3.375 -19.6874,-3.375 -21.6563,0 -27.5626,14.625 z m -117,19.6875 q 0,5.0625 14.625,13.5 h 3.375 q 6.4688,0 21.9376,-16.3125 Q 80.4375,216.8438 77.3438,207 h -0.5626 q -5.3437,0 -20.25,24.1875 -2.25,6.75 -2.25,8.4375 z m 73.125,79.875 v 1.6875 q 15.75,25.875 33.75,25.875 h 6.1876 q 12.0937,0 24.75,-21.9375 8.4374,-20.25 8.4374,-41.0625 0,-14.625 -6.1874,-14.625 h -5.0626 q -15.75,0 -39.375,11.8125 -5.625,16.5938 -22.5,38.25 z"
         id="path3"
         inkscape:connector-curvature="0"
         style="stroke:none" />
    </g>
  </g>
</svg>
