<?xml version="1.0" encoding="UTF-8" standalone="no"?>
<svg
   xmlns:dc="http://purl.org/dc/elements/1.1/"
   xmlns:cc="http://creativecommons.org/ns#"
   xmlns:rdf="http://www.w3.org/1999/02/22-rdf-syntax-ns#"
   xmlns:svg="http://www.w3.org/2000/svg"
   xmlns="http://www.w3.org/2000/svg"
   xmlns:sodipodi="http://sodipodi.sourceforge.net/DTD/sodipodi-0.dtd"
   xmlns:inkscape="http://www.inkscape.org/namespaces/inkscape"
   fill-opacity="1"
   color-rendering="auto"
   color-interpolation="auto"
   text-rendering="auto"
   stroke="black"
   stroke-linecap="square"
   stroke-miterlimit="10"
   shape-rendering="auto"
   stroke-opacity="1"
   fill="black"
   stroke-dasharray="none"
   font-weight="normal"
   stroke-width="1"
   font-family="'Dialog'"
   font-style="normal"
   stroke-linejoin="miter"
   font-size="12"
   stroke-dashoffset="0"
   image-rendering="auto"
   version="1.1"
   id="svg9"
   sodipodi:docname="hentaigana_letter_ya1.svg"
   inkscape:version="0.92.4 (5da689c313, 2019-01-14)">
  <metadata
     id="metadata13">
    <rdf:RDF>
      <cc:Work
         rdf:about="">
        <dc:format>image/svg+xml</dc:format>
        <dc:type
           rdf:resource="http://purl.org/dc/dcmitype/StillImage" />
      </cc:Work>
    </rdf:RDF>
  </metadata>
  <sodipodi:namedview
     pagecolor="#ffffff"
     bordercolor="#666666"
     borderopacity="1"
     objecttolerance="10"
     gridtolerance="10"
     guidetolerance="10"
     inkscape:pageopacity="0"
     inkscape:pageshadow="2"
     inkscape:window-width="1920"
     inkscape:window-height="986"
     id="namedview11"
     showgrid="false"
     inkscape:zoom="2.36"
     inkscape:cx="50"
     inkscape:cy="50"
     inkscape:window-x="-11"
     inkscape:window-y="-11"
     inkscape:window-maximized="1"
     inkscape:current-layer="svg9" />
  <!--Unicode Character 'HENTAIGANA LETTER YA-1' (U+1B0DD)-->
  <defs
     id="genericDefs" />
  <g
     id="g7"
     transform="matrix(0.4364511,0,0,0.44073503,-12.704891,-58.821259)">
    <g
       id="g5">
      <path
         d="m 141.4688,135 q 16.3124,0 29.8124,23.0625 4.5,12.375 5.625,12.9375 25.0313,-9 34.3126,-9 31.7812,0 42.1874,25.3125 l 2.25,10.6875 -0.5624,1.125 v 2.25 q 0,26.7188 -28.6876,46.6875 -23.3437,12.375 -46.6874,12.375 h -2.25 V 261 q 0,22.5 -18,82.125 -5.625,14.625 -7.3126,14.625 -3.9374,-0.8438 -6.75,-2.8125 8.1563,-19.9687 15.75,-77.0625 1.6876,-15.4688 1.6876,-19.6875 -18.5626,-3.0937 -33.75,-18 -9.5626,-10.6875 -13.5,-28.125 V 211.5 q -55.4063,27.5625 -61.3126,27.5625 -12.6562,0 -21.9374,-24.1875 l 5.0624,-3.9375 Q 45,220.5 52.0312,220.5 h 2.8126 q 9.8437,0 59.0624,-20.8125 -0.5624,-8.4375 -0.5624,-12.375 v -1.6875 q 0,-36 20.25,-48.375 1.9687,-1.4062 7.875,-2.25 z m -17.4376,52.3125 0.5626,6.75 h 0.5624 q 34.5938,-15.1875 37.125,-17.4375 0,-9.2812 -9,-25.3125 Q 146.8125,144 141.4688,144 h -0.5626 q -13.2187,0 -16.875,34.875 z m 54.5626,-5.0625 q 1.6874,18.5625 2.25,35.4375 -0.5626,16.875 -1.6876,31.5 h 6.75 q 27,0 45,-21.9375 7.3126,-10.4062 7.3126,-29.8125 0,-20.25 -23.0626,-25.3125 h -2.8124 q -13.7813,0 -33.75,9.5625 z m -52.3126,24.1875 q 0,17.4375 18.5626,32.625 10.4062,6.75 18.5624,7.875 0,-0.5625 0.5626,-0.5625 0.5624,-13.2188 0.5624,-19.6875 V 207 q 0,-5.9062 -0.5624,-18 h -1.125 q -36.5626,14.9062 -36.5626,17.4375 z"
         id="path3"
         inkscape:connector-curvature="0"
         style="stroke:none" />
    </g>
  </g>
</svg>
