<?xml version="1.0"?>

<!DOCTYPE svg PUBLIC '-//W3C//DTD SVG 1.0//EN' 'http://www.w3.org/TR/2001/REC-SVG-20010904/DTD/svg10.dtd'>
<svg fill-opacity="1" xmlns:xlink="http://www.w3.org/1999/xlink" color-rendering="auto" color-interpolation="auto" text-rendering="auto" stroke="black" stroke-linecap="square" stroke-miterlimit="10" shape-rendering="auto" stroke-opacity="1" fill="black" stroke-dasharray="none" font-weight="normal" stroke-width="1" xmlns="http://www.w3.org/2000/svg" font-family="&apos;Dialog&apos;" font-style="normal" stroke-linejoin="miter" font-size="12" stroke-dashoffset="0" image-rendering="auto">
  <!--Unicode Character 'HENTAIGANA LETTER HU-2' (U+1B0B1)-->
  <defs id="genericDefs" />
  <g>
    <g>
      <path d="M105.4688 143.7188 Q111.0938 161.7188 111.0938 175.7812 L111.0938 193.2188 L110.5312 199.9688 L111.6562 199.9688 Q161.4375 163.9688 185.9062 163.9688 L186.4688 163.9688 Q206.7188 166.7812 206.7188 180.2812 Q206.7188 187.875 194.9062 212.9062 L194.9062 215.7188 Q194.9062 217.9688 214.5938 224.7188 Q243.2812 237.0938 243.2812 274.2188 Q243.2812 286.875 235.4062 307.9688 Q260.1562 329.0625 260.1562 338.9062 Q258.75 347.3438 252.8438 347.3438 Q247.5 346.7812 232.5938 325.9688 Q227.8125 321.4688 226.9688 321.4688 Q207.5625 346.2188 181.4062 346.2188 Q173.8125 346.2188 159.4688 339.4688 L158.9062 339.4688 Q147.9375 346.2188 138.0938 346.2188 L135.8438 346.2188 Q115.5938 343.125 115.5938 326.5312 Q115.5938 306.2812 142.5938 292.7812 Q145.6875 273.0938 153.2812 262.4062 Q166.5 246.0938 179.1562 246.0938 Q191.5312 246.0938 197.1562 259.5938 Q198.8438 264.0938 198.8438 269.1562 Q198.8438 275.3438 195.4688 289.4062 Q207.2812 292.7812 222.4688 299.5312 L223.0312 299.5312 Q226.9688 287.4375 226.9688 271.9688 L226.9688 269.1562 Q226.9688 239.0625 208.9688 231.4688 Q185.3438 223.0312 185.3438 216.8438 Q184.7812 213.75 184.7812 213.4688 Q189.8438 192.375 189.8438 184.7812 L189.8438 181.4062 Q189 172.9688 181.9688 172.9688 L181.4062 172.9688 Q160.875 172.9688 109.9688 212.9062 Q109.9688 235.4062 96.4688 283.2188 Q90.8438 298.9688 83.5312 316.4062 Q83.5312 317.8125 94.7812 331.5938 L95.3438 334.4062 Q93.375 338.9062 88.5938 338.9062 Q84.6562 338.9062 75.6562 331.0312 L75.0938 331.0312 Q63 349.0312 53.1562 349.0312 Q40.2188 349.0312 28.4062 316.9688 L27.8438 313.5938 Q27.8438 297.2812 50.9062 262.4062 Q50.9062 257.9062 49.7812 246.0938 Q49.7812 210.9375 63.8438 185.3438 L64.4062 185.3438 Q65.5312 185.3438 69.4688 187.0312 L69.4688 187.5938 Q60.4688 215.7188 60.4688 236.5312 L60.4688 247.2188 L61.0312 247.2188 Q78.75 225.8438 98.7188 209.5312 Q100.9688 199.6875 100.9688 182.5312 Q100.9688 163.125 98.1562 144.8438 L98.7188 144.8438 Q102.6562 143.7188 105.4688 143.7188 ZM62.7188 263.5312 Q62.7188 273.375 73.9688 300.6562 L75.6562 300.6562 Q96.4688 239.625 96.4688 225.8438 L95.3438 225.8438 Q73.4062 247.5 62.7188 263.5312 ZM151.5938 289.9688 L152.1562 289.9688 Q163.9688 287.1562 176.9062 287.1562 L180.8438 287.1562 Q183.6562 277.0312 183.6562 268.5938 Q183.6562 259.0312 178.5938 256.2188 L174.6562 256.2188 Q160.3125 256.2188 151.5938 286.5938 L151.5938 289.9688 ZM41.9062 310.2188 Q41.9062 329.9062 53.7188 333.2812 Q59.9062 333.2812 67.2188 317.5312 Q60.4688 306.2812 54.8438 282.6562 Q54.8438 282.0938 54.2812 279.2812 L53.1562 279.2812 Q41.9062 297.8438 41.9062 310.2188 ZM151.5938 301.2188 L151.5938 301.7812 Q151.5938 315.5625 158.9062 324.2812 L160.0312 324.2812 Q175.2188 305.1562 175.2188 299.5312 L169.5938 299.5312 Q161.4375 299.5312 151.5938 301.2188 ZM168.4688 332.7188 Q169.5938 335.5312 182.5312 336.0938 Q202.2188 336.0938 216.2812 313.0312 L216.2812 312.4688 Q201.9375 303.4688 190.9688 301.7812 Q184.5 315.2812 168.4688 332.7188 ZM126.2812 323.1562 L126.2812 328.7812 Q127.4062 337.7812 135.2812 337.7812 L139.2188 337.7812 Q152.1562 333.8438 152.1562 331.0312 Q145.6875 322.0312 142.5938 305.1562 L142.0312 305.1562 Q126.2812 311.9062 126.2812 323.1562 Z" stroke="none" />
    </g>
  </g>
</svg>
