<?xml version="1.0"?>

<!DOCTYPE svg PUBLIC '-//W3C//DTD SVG 1.0//EN' 'http://www.w3.org/TR/2001/REC-SVG-20010904/DTD/svg10.dtd'>
<svg fill-opacity="1" xmlns:xlink="http://www.w3.org/1999/xlink" color-rendering="auto" color-interpolation="auto" text-rendering="auto" stroke="black" stroke-linecap="square" stroke-miterlimit="10" shape-rendering="auto" stroke-opacity="1" fill="black" stroke-dasharray="none" font-weight="normal" stroke-width="1" xmlns="http://www.w3.org/2000/svg" font-family="&apos;Dialog&apos;" font-style="normal" stroke-linejoin="miter" font-size="12" stroke-dashoffset="0" image-rendering="auto">
  <!--Unicode Character 'HENTAIGANA LETTER HA-8' (U+1B0A5)-->
  <defs id="genericDefs" />
  <g>
    <g>
      <path d="M123.1875 135.8438 Q152.4375 142.0312 152.4375 151.5938 Q150.75 158.9062 149.625 172.4062 Q152.7188 172.4062 173.8125 165.0938 Q184.5 168.1875 184.5 173.5312 Q184.5 181.125 149.0625 187.0312 Q146.8125 188.4375 146.8125 215.1562 Q177.4688 210.6562 182.8125 203.3438 Q187.3125 197.7188 190.6875 197.7188 L191.25 197.7188 Q209.25 201.0938 209.25 207.2812 Q209.25 213.1875 186.1875 218.5312 Q121.5 282.375 121.5 283.7812 L121.5 284.9062 Q128.25 283.7812 129.375 283.7812 Q142.875 283.7812 142.875 308.5312 L142.875 316.9688 L143.4375 316.9688 Q154.125 302.3438 170.4375 287.1562 Q171.2812 287.1562 174.375 291.0938 L174.375 291.6562 Q144 322.5938 144 351.2812 Q141.75 356.9062 137.8125 356.9062 Q127.6875 356.9062 127.6875 336.6562 L127.6875 334.9688 Q129.375 313.3125 129.375 306.8438 Q129.375 292.7812 120.9375 292.7812 L120.375 292.7812 Q111.0938 292.7812 75.9375 332.7188 Q61.5938 347.0625 54.5625 347.9062 Q50.9062 347.9062 49.5 341.1562 Q49.5 329.3438 69.75 318.6562 Q90 305.1562 169.3125 221.9062 L169.3125 220.7812 L168.75 220.7812 Q122.9062 230.3438 82.6875 243.8438 Q76.5 245.5312 68.625 246.0938 Q56.5312 246.0938 41.625 223.5938 Q41.625 220.5 45 218.5312 Q57.0938 230.3438 72.5625 230.3438 Q83.5312 230.3438 132.1875 217.9688 L132.1875 207.2812 Q132.1875 201.375 132.75 189.2812 Q123.4688 189.8438 118.6875 189.8438 Q99.2812 189.8438 90.5625 175.7812 Q91.6875 172.4062 93.375 172.4062 Q102.6562 177.4688 110.8125 177.4688 L116.4375 177.4688 Q133.875 177.4688 133.875 172.9688 Q133.875 165.375 135 155.5312 Q135 146.5312 119.8125 141.4688 Q121.2188 135.8438 123.1875 135.8438 ZM195.1875 276.4688 Q215.7188 278.1562 233.4375 292.2188 Q246.375 304.3125 246.375 319.7812 L246.375 323.1562 Q245.5312 334.9688 237.375 334.9688 Q229.7812 330.4688 226.6875 330.4688 Q218.5312 330.4688 201.9375 336.0938 Q199.6875 333 199.6875 330.4688 Q226.125 319.7812 226.125 313.5938 L226.125 311.3438 Q226.125 292.5 200.8125 284.3438 Q195.4688 284.3438 192.9375 282.6562 Q193.7812 277.3125 195.1875 276.4688 Z" stroke="none" />
    </g>
  </g>
</svg>
