<?xml version="1.0" encoding="UTF-8" standalone="no"?>
<svg
   xmlns:dc="http://purl.org/dc/elements/1.1/"
   xmlns:cc="http://creativecommons.org/ns#"
   xmlns:rdf="http://www.w3.org/1999/02/22-rdf-syntax-ns#"
   xmlns:svg="http://www.w3.org/2000/svg"
   xmlns="http://www.w3.org/2000/svg"
   xmlns:sodipodi="http://sodipodi.sourceforge.net/DTD/sodipodi-0.dtd"
   xmlns:inkscape="http://www.inkscape.org/namespaces/inkscape"
   fill-opacity="1"
   color-rendering="auto"
   color-interpolation="auto"
   text-rendering="auto"
   stroke="black"
   stroke-linecap="square"
   stroke-miterlimit="10"
   shape-rendering="auto"
   stroke-opacity="1"
   fill="black"
   stroke-dasharray="none"
   font-weight="normal"
   stroke-width="1"
   font-family="'Dialog'"
   font-style="normal"
   stroke-linejoin="miter"
   font-size="12"
   stroke-dashoffset="0"
   image-rendering="auto"
   version="1.1"
   id="svg9"
   sodipodi:docname="hentaigana_letter_ha1.svg"
   inkscape:version="0.92.4 (5da689c313, 2019-01-14)">
  <metadata
     id="metadata13">
    <rdf:RDF>
      <cc:Work
         rdf:about="">
        <dc:format>image/svg+xml</dc:format>
        <dc:type
           rdf:resource="http://purl.org/dc/dcmitype/StillImage" />
      </cc:Work>
    </rdf:RDF>
  </metadata>
  <sodipodi:namedview
     pagecolor="#ffffff"
     bordercolor="#666666"
     borderopacity="1"
     objecttolerance="10"
     gridtolerance="10"
     guidetolerance="10"
     inkscape:pageopacity="0"
     inkscape:pageshadow="2"
     inkscape:window-width="1920"
     inkscape:window-height="986"
     id="namedview11"
     showgrid="false"
     inkscape:zoom="2.36"
     inkscape:cx="50"
     inkscape:cy="50"
     inkscape:window-x="-11"
     inkscape:window-y="-11"
     inkscape:window-maximized="1"
     inkscape:current-layer="svg9" />
  <!--Unicode Character 'HENTAIGANA LETTER HA-1' (U+1B09E)-->
  <defs
     id="genericDefs" />
  <g
     id="g7"
     transform="matrix(0.48184911,0,0,0.52919021,-19.242205,-81.249996)">
    <g
       id="g5">
      <path
         d="M 62.4375,181.125 H 63 q 6.1875,0 14.625,11.8125 2.8125,6.1875 3.9375,20.8125 0,12.375 -6.75,38.25 h 0.5625 q 0.5625,0 16.3125,-17.4375 44.4375,-48.375 79.875,-48.375 43.3125,0 68.0625,66.375 6.1875,20.8125 6.1875,35.4375 -2.25,16.3125 -9.5625,16.3125 -10.125,0 -10.125,-27.5625 0,-23.0625 -19.6875,-59.625 -16.875,-22.5 -36.5625,-22.5 -36.8438,0 -90,70.3125 -8.4375,10.125 -21.9375,40.5 -4.7813,6.1875 -9,6.1875 -6.75,0 -6.75,-12.9375 v -1.125 q 0,-9.8437 12.9375,-30.375 13.5,-30.0937 13.5,-59.0625 v -3.9375 q 0,-11.8125 -9,-18.5625 v -0.5625 q 1.9688,-3.9375 2.8125,-3.9375 z"
         id="path3"
         inkscape:connector-curvature="0"
         style="stroke:none" />
    </g>
  </g>
</svg>
