<?xml version="1.0"?>

<!DOCTYPE svg PUBLIC '-//W3C//DTD SVG 1.0//EN' 'http://www.w3.org/TR/2001/REC-SVG-20010904/DTD/svg10.dtd'>
<svg fill-opacity="1" xmlns:xlink="http://www.w3.org/1999/xlink" color-rendering="auto" color-interpolation="auto" text-rendering="auto" stroke="black" stroke-linecap="square" stroke-miterlimit="10" shape-rendering="auto" stroke-opacity="1" fill="black" stroke-dasharray="none" font-weight="normal" stroke-width="1" xmlns="http://www.w3.org/2000/svg" font-family="&apos;Dialog&apos;" font-style="normal" stroke-linejoin="miter" font-size="12" stroke-dashoffset="0" image-rendering="auto">
  <!--Unicode Character 'HENTAIGANA LETTER NO-5' (U+1B09D)-->
  <defs id="genericDefs" />
  <g>
    <g>
      <path d="M183.9375 135.5625 Q197.4375 138.9375 197.4375 147.375 Q197.4375 153.8438 177.1875 173.8125 Q173.8125 178.0312 173.8125 180 L227.25 169.3125 Q237.6562 169.3125 242.4375 180.5625 Q242.4375 184.7812 235.6875 186.75 Q221.0625 186.1875 212.625 186.1875 L207.5625 186.1875 Q165.9375 187.875 163.125 192.375 Q156.0938 201.9375 126.5625 230.625 L126 231.75 L127.125 231.75 Q140.3438 231.75 167.0625 221.0625 Q176.0625 223.3125 176.0625 229.5 Q176.0625 231.75 163.125 240.75 Q124.3125 277.875 117.5625 286.875 L117.5625 288 L119.25 288 Q120.6562 288 121.5 287.4375 Q130.2188 287.4375 132.1875 299.8125 Q131.0625 316.6875 131.0625 322.875 L131.0625 328.5 L132.1875 328.5 Q169.5938 298.6875 190.6875 298.6875 Q221.9062 300.375 230.0625 320.0625 L231.75 327.375 Q231.75 345.9375 186.75 357.1875 Q183.375 352.9688 183.375 351.5625 Q213.75 341.4375 213.75 329.625 L213.75 326.25 Q213.75 315.2812 195.75 308.25 L188.4375 308.25 Q169.3125 308.25 136.125 343.6875 Q131.3438 357.1875 126 357.1875 L124.875 357.1875 Q115.875 357.1875 115.875 331.3125 L115.875 326.8125 Q115.875 317.5312 117.5625 299.8125 Q116.7188 296.4375 113.625 296.4375 Q109.4062 296.4375 83.8125 322.875 Q66.375 340.0312 60.1875 340.875 Q53.4375 339.1875 53.4375 334.125 L53.4375 333.5625 Q59.0625 320.9062 59.0625 314.4375 L61.875 313.875 L64.125 313.875 Q64.6875 318.375 66.375 318.375 L66.9375 318.375 Q76.5 318.0938 145.6875 241.3125 L145.6875 240.1875 L145.125 240.1875 Q140.3438 240.1875 111.375 249.75 Q102.375 249.75 101.25 239.0625 Q101.25 234.8438 113.0625 232.3125 Q139.2188 208.9688 148.5 194.625 Q148.5 194.0625 147.9375 194.0625 Q105.1875 205.0312 68.625 219.9375 L67.5 219.9375 Q55.4062 219.9375 45.5625 198.5625 L45.5625 198 L50.0625 194.625 Q57.9375 202.5 64.125 202.5 L66.375 202.5 Q74.5312 202.5 156.375 183.375 Q177.1875 154.125 177.1875 146.8125 L177.1875 146.25 Q177.1875 145.125 175.5 145.125 Q154.4062 150.4688 115.3125 177.75 Q111.9375 188.4375 106.3125 188.4375 Q97.3125 188.4375 92.8125 170.4375 L92.8125 168.75 Q94.2188 156.9375 99.5625 149.0625 L100.125 149.0625 L104.0625 149.625 L104.0625 155.25 Q104.0625 165.9375 109.6875 165.9375 Q120.375 162.5625 169.3125 139.5 Q179.1562 135.5625 183.9375 135.5625 Z" stroke="none" />
    </g>
  </g>
</svg>
