<?xml version="1.0" encoding="UTF-8" standalone="no"?>
<svg
   xmlns:dc="http://purl.org/dc/elements/1.1/"
   xmlns:cc="http://creativecommons.org/ns#"
   xmlns:rdf="http://www.w3.org/1999/02/22-rdf-syntax-ns#"
   xmlns:svg="http://www.w3.org/2000/svg"
   xmlns="http://www.w3.org/2000/svg"
   xmlns:sodipodi="http://sodipodi.sourceforge.net/DTD/sodipodi-0.dtd"
   xmlns:inkscape="http://www.inkscape.org/namespaces/inkscape"
   fill-opacity="1"
   color-rendering="auto"
   color-interpolation="auto"
   text-rendering="auto"
   stroke="black"
   stroke-linecap="square"
   stroke-miterlimit="10"
   shape-rendering="auto"
   stroke-opacity="1"
   fill="black"
   stroke-dasharray="none"
   font-weight="normal"
   stroke-width="1"
   font-family="'Dialog'"
   font-style="normal"
   stroke-linejoin="miter"
   font-size="12"
   stroke-dashoffset="0"
   image-rendering="auto"
   version="1.1"
   id="svg9"
   sodipodi:docname="hentaigana_letter_ho1.svg"
   inkscape:version="0.92.4 (5da689c313, 2019-01-14)"
   width="100%"
   height="100%"
   viewBox="0 0 100 100"
   preserveAspectRatio="xMidYMid meet"
   >
  <metadata
     id="metadata13">
    <rdf:RDF>
      <cc:Work
         rdf:about="">
        <dc:format>image/svg+xml</dc:format>
        <dc:type
           rdf:resource="http://purl.org/dc/dcmitype/StillImage" />
      </cc:Work>
    </rdf:RDF>
  </metadata>
  <sodipodi:namedview
     pagecolor="#ffffff"
     bordercolor="#666666"
     borderopacity="1"
     objecttolerance="10"
     gridtolerance="10"
     guidetolerance="10"
     inkscape:pageopacity="0"
     inkscape:pageshadow="2"
     inkscape:window-width="1920"
     inkscape:window-height="986"
     id="namedview11"
     showgrid="false"
     inkscape:zoom="2.36"
     inkscape:cx="50"
     inkscape:cy="50"
     inkscape:window-x="-11"
     inkscape:window-y="-11"
     inkscape:window-maximized="1"
     inkscape:current-layer="svg9" />
  <!--Unicode Character 'HENTAIGANA LETTER HO-1' (U+1B0BA)-->
  <defs
     id="genericDefs" />
  <g
     id="g7"
     transform="matrix(0.45056012,0,0,0.45856874,-14.736589,-62.791309)">
    <g
       id="g5">
      <path
         d="m 82.125,138.375 q 20.8125,9.2812 20.8125,25.3125 v 2.25 q 0,21.0937 -59.0625,75.375 v 1.125 q 0,0.5625 11.25,6.1875 10.125,5.9062 10.125,42.1875 v 3.375 q 0,16.0313 -1.125,26.4375 l 1.125,0.5625 h 1.125 q 7.3125,-18 15.75,-29.25 3.9375,2.8125 3.9375,4.5 -10.6875,20.25 -19.125,50.625 -5.0625,7.3125 -9,7.3125 -7.5937,0 -8.4375,-15.1875 3.375,-18.2813 3.375,-69.75 V 267.75 q 0,-12.6562 -15.75,-19.125 -2.25,-2.8125 -2.25,-4.5 0,-4.5 15.1875,-17.4375 37.125,-44.4375 37.125,-65.8125 0,-8.4375 -9,-18 v -0.5625 q 0,-0.8437 3.9375,-3.9375 z m 128.25,10.6875 q 16.875,1.6875 16.875,14.0625 0,13.5 -52.875,53.4375 l -6.1875,5.625 v 0.5625 q 12.6563,9.8438 18,27.5625 5.3437,0 35.4375,-11.25 9.5625,1.9687 9.5625,7.875 0,8.1563 -44.4375,18 V 312.75 q 0,40.5 -15.75,40.5 -3.6562,0 -12.375,-14.625 Q 144,320.9062 138.9375,318.375 h -0.5625 q -16.875,17.4375 -21.9375,17.4375 -8.1563,0 -11.25,-14.625 -0.5625,-0.8437 -0.5625,-3.375 0,-10.6875 10.6875,-24.1875 h 0.5625 q 2.25,0.8438 3.375,2.8125 -3.375,9 -3.375,12.9375 v 4.5 q 0,4.5 3.9375,4.5 h 0.5625 q 5.3438,0 32.0625,-21.375 h 1.125 q 1.6875,3.9375 1.6875,5.0625 -5.625,4.5 -11.8125,10.6875 v 1.6875 q 2.25,0 23.625,17.4375 h 2.25 q 2.8125,0 3.375,-56.25 0,-0.2812 -0.5625,-7.3125 -17.7188,2.25 -31.5,2.25 -24.1875,0 -24.1875,-9.5625 v -1.125 q 0,-9.5625 25.3125,-27 38.5312,-31.7812 60.75,-53.4375 5.0625,-8.4375 5.0625,-12.375 V 164.25 q 0,-4.5 -3.9375,-4.5 h -3.375 q -1.6875,0 -11.25,3.375 l -2.8125,-3.9375 q 13.2187,-10.125 24.1875,-10.125 z m -69.1875,5.0625 h 1.125 q 3.9375,2.25 3.9375,2.8125 -6.1875,10.9687 -6.1875,23.625 v 4.5 q 0,3.0937 2.25,3.9375 h 1.125 q 4.7813,0 23.625,-19.125 2.8125,2.25 2.8125,5.0625 -18.5625,24.1875 -24.1875,29.8125 -2.5313,1.9688 -5.625,2.8125 -10.4063,0 -11.8125,-18.5625 v -2.8125 q 0,-15.1875 12.9375,-32.0625 z m -12.375,98.4375 v 1.6875 q 0,2.8125 13.5,2.8125 29.8125,-1.125 29.8125,-3.9375 0,-16.5938 -9.5625,-26.4375 H 162 q -31.7812,22.7813 -33.1875,25.875 z m 81.5625,32.625 q 27.5625,0 41.0625,24.75 1.6875,7.5937 1.6875,9 -1.4062,9 -6.75,9 h -0.5625 q -5.625,0 -10.6875,-15.75 Q 223.875,291.375 207,291.375 q 0,-1.125 -1.125,-1.125 0,-5.0625 4.5,-5.0625 z"
         id="path3"
         inkscape:connector-curvature="0"
         style="stroke:none" />
    </g>
  </g>
</svg>
