<?xml version="1.0"?>

<!DOCTYPE svg PUBLIC '-//W3C//DTD SVG 1.0//EN' 'http://www.w3.org/TR/2001/REC-SVG-20010904/DTD/svg10.dtd'>
<svg fill-opacity="1" xmlns:xlink="http://www.w3.org/1999/xlink" color-rendering="auto" color-interpolation="auto" text-rendering="auto" stroke="black" stroke-linecap="square" stroke-miterlimit="10" shape-rendering="auto" stroke-opacity="1" fill="black" stroke-dasharray="none" font-weight="normal" stroke-width="1" xmlns="http://www.w3.org/2000/svg" font-family="&apos;Dialog&apos;" font-style="normal" stroke-linejoin="miter" font-size="12" stroke-dashoffset="0" image-rendering="auto">
  <!--Unicode Character 'HENTAIGANA LETTER YU-3' (U+1B0E5)-->
  <defs id="genericDefs" />
  <g>
    <g>
      <path d="M144.5625 151.0312 Q169.5938 151.0312 178.875 178.5938 Q181.125 192.0938 182.25 192.0938 L187.875 192.0938 Q230.9062 192.0938 248.0625 232.0312 Q252 243.5625 252 253.9688 L252 255.6562 Q252 256.2188 252.5625 256.2188 L252 257.3438 L252 260.7188 Q252 305.7188 203.625 331.5938 Q183.375 341.7188 156.9375 341.7188 L155.25 341.7188 Q106.5938 341.7188 81.5625 296.7188 Q74.25 275.9062 74.25 260.1562 L72.5625 260.1562 Q61.3125 273.0938 55.6875 273.0938 Q41.625 273.0938 35.4375 235.9688 L36 235.9688 Q39.375 233.7188 41.0625 233.7188 Q48.9375 253.4062 56.25 253.4062 L57.375 253.4062 Q74.8125 245.8125 74.8125 235.4062 Q77.0625 210.6562 92.8125 183.0938 Q116.7188 151.0312 144.5625 151.0312 ZM84.375 233.7188 Q84.9375 233.7188 84.9375 234.2812 Q127.4062 200.8125 162.5625 193.7812 L164.25 193.7812 Q164.25 172.125 147.9375 162.8438 Q144.2812 161.7188 142.875 161.7188 L135.5625 161.7188 Q105.4688 161.7188 88.875 211.2188 Q86.625 220.5 84.375 233.7188 ZM181.6875 201.0938 Q181.6875 232.0312 155.25 266.3438 L155.25 268.0312 Q155.25 270.2812 163.125 270.2812 L166.5 270.2812 Q174.375 270.2812 185.625 268.0312 Q193.5 268.875 193.5 275.3438 Q193.5 284.3438 168.75 284.3438 L163.125 284.3438 Q140.0625 284.3438 140.0625 275.3438 Q142.5938 270.2812 153.5625 253.9688 Q165.375 230.0625 165.375 202.7812 L164.25 202.7812 Q130.2188 210.375 95.0625 239.3438 Q83.25 249.75 83.25 252.2812 Q83.25 302.9062 118.6875 320.3438 Q133.5938 328.2188 157.5 328.2188 Q208.4062 328.2188 230.0625 280.4062 Q233.4375 270 233.4375 255.6562 L233.4375 251.1562 Q233.4375 217.4062 203.625 203.9062 Q197.4375 201.0938 187.875 201.0938 L181.6875 201.0938 Z" stroke="none" />
    </g>
  </g>
</svg>
