<?xml version="1.0"?>

<!DOCTYPE svg PUBLIC '-//W3C//DTD SVG 1.0//EN' 'http://www.w3.org/TR/2001/REC-SVG-20010904/DTD/svg10.dtd'>
<svg fill-opacity="1" xmlns:xlink="http://www.w3.org/1999/xlink" color-rendering="auto" color-interpolation="auto" text-rendering="auto" stroke="black" stroke-linecap="square" stroke-miterlimit="10" shape-rendering="auto" stroke-opacity="1" fill="black" stroke-dasharray="none" font-weight="normal" stroke-width="1" xmlns="http://www.w3.org/2000/svg" font-family="&apos;Dialog&apos;" font-style="normal" stroke-linejoin="miter" font-size="12" stroke-dashoffset="0" image-rendering="auto">
  <!--Unicode Character 'HENTAIGANA LETTER SU-8' (U+1B051)-->
  <defs id="genericDefs" />
  <g>
    <g>
      <path d="M61.3125 140.9062 Q91.6875 149.0625 91.6875 166.7812 Q91.6875 170.1562 78.1875 207.2812 Q67.5 239.9062 67.5 269.1562 L67.5 298.9688 Q67.5 306.5625 69.75 314.7188 L71.4375 314.7188 Q89.4375 254.25 144.5625 189.2812 Q179.1562 149.3438 202.5 149.3438 L203.0625 149.3438 Q217.125 149.3438 217.125 163.9688 Q217.125 176.9062 195.75 208.4062 Q183.9375 227.5312 183.9375 229.2188 Q183.9375 230.0625 198.5625 240.4688 Q203.0625 245.8125 203.0625 251.1562 Q203.0625 260.4375 185.0625 278.7188 Q165.9375 300.6562 165.9375 308.5312 L165.9375 309.6562 Q165.9375 320.9062 198 324.2812 Q210.0938 324.2812 213.1875 324.8438 Q216.8438 324.2812 220.5 324.2812 Q235.125 326.25 235.125 333.2812 Q235.125 340.5938 219.375 340.5938 Q168.75 340.5938 156.9375 319.2188 Q155.8125 315.2812 155.8125 312.4688 Q155.8125 301.5 178.875 271.9688 Q187.875 258.4688 187.875 253.9688 L187.875 250.5938 Q187.875 245.8125 175.5 235.4062 Q174.375 233.4375 174.375 232.0312 Q174.375 228.0938 190.6875 197.7188 Q198.5625 181.125 198.5625 168.4688 L198.5625 164.5312 Q198.5625 161.4375 196.3125 160.5938 L195.1875 160.5938 Q168.1875 160.5938 118.6875 237.6562 Q81 299.5312 81 345.6562 Q78.4688 351.8438 72.5625 351.8438 Q59.3438 351.8438 54.5625 311.3438 Q52.875 297.8438 52.875 283.2188 L52.875 279.2812 Q52.875 246.9375 73.6875 166.2188 L73.6875 165.0938 Q73.6875 153.2812 57.375 146.5312 L57.375 144.8438 Q59.9062 140.9062 61.3125 140.9062 Z" stroke="none" />
    </g>
  </g>
</svg>
