<?xml version="1.0"?>

<!DOCTYPE svg PUBLIC '-//W3C//DTD SVG 1.0//EN' 'http://www.w3.org/TR/2001/REC-SVG-20010904/DTD/svg10.dtd'>
<svg fill-opacity="1" xmlns:xlink="http://www.w3.org/1999/xlink" color-rendering="auto" color-interpolation="auto" text-rendering="auto" stroke="black" stroke-linecap="square" stroke-miterlimit="10" shape-rendering="auto" stroke-opacity="1" fill="black" stroke-dasharray="none" font-weight="normal" stroke-width="1" xmlns="http://www.w3.org/2000/svg" font-family="&apos;Dialog&apos;" font-style="normal" stroke-linejoin="miter" font-size="12" stroke-dashoffset="0" image-rendering="auto">
  <!--Unicode Character 'HENTAIGANA LETTER HA-3' (U+1B0A0)-->
  <defs id="genericDefs" />
  <g>
    <g>
      <path d="M150.1875 130.2188 L153.5625 130.2188 Q177.75 130.2188 177.75 142.5938 Q177.75 144.5625 175.5 156.0938 L176.0625 156.0938 Q194.9062 148.2188 205.875 148.2188 Q225.5625 150.75 225.5625 166.2188 Q225.5625 180 208.125 186.4688 Q202.2188 188.1562 196.875 188.1562 Q188.7188 188.1562 178.3125 183.6562 Q178.3125 179.4375 180 179.1562 Q186.75 180.2812 190.6875 180.2812 L197.4375 180.2812 Q208.6875 178.0312 208.6875 169.0312 L208.6875 165.0938 Q208.6875 157.2188 198.5625 157.2188 Q169.3125 162.8438 169.3125 174.0938 Q168.1875 174.0938 167.625 182.5312 Q167.625 187.0312 181.125 195.4688 Q185.625 198.8438 188.4375 212.9062 Q243.5625 235.9688 243.5625 250.0312 Q242.1562 255.6562 237.9375 255.6562 Q233.7188 255.6562 210.9375 238.2188 Q193.5 226.9688 185.0625 224.1562 Q170.4375 238.2188 156.375 238.2188 L156.375 239.9062 Q163.6875 247.2188 165.375 256.7812 L170.4375 256.7812 Q211.5 256.7812 226.6875 288.2812 L228.375 298.9688 Q228.375 345.9375 124.3125 362.5312 Q122.0625 358.5938 122.0625 356.9062 Q210.375 334.6875 210.375 302.3438 L210.375 297.2812 Q210.375 275.9062 189 267.4688 Q179.7188 264.0938 168.1875 264.0938 L164.25 264.0938 Q160.3125 284.625 137.25 311.3438 Q128.8125 319.2188 120.375 325.9688 L127.125 333.2812 Q127.125 338.3438 118.6875 340.0312 Q115.875 340.0312 106.3125 333.2812 Q86.9062 343.4062 69.75 343.4062 L66.375 343.4062 Q44.4375 340.0312 44.4375 323.1562 Q44.4375 298.9688 90 274.7812 Q91.125 258.75 108.5625 239.9062 L110.8125 238.7812 L114.1875 242.1562 Q101.25 255.9375 101.25 269.7188 L101.25 270.2812 L102.375 270.2812 Q132.75 258.4688 150.1875 257.9062 L150.75 256.7812 L150.75 251.7188 Q150.75 238.7812 138.375 238.7812 Q115.3125 234.5625 115.3125 224.1562 Q114.75 224.1562 114.1875 221.9062 Q114.1875 207 142.875 204.4688 L143.4375 204.4688 Q158.3438 204.4688 171.5625 208.9688 Q172.6875 208.4062 173.25 208.4062 L173.25 202.7812 Q173.25 195.75 159.1875 187.5938 Q157.5 184.5 157.5 180.8438 Q158.0625 173.8125 158.0625 172.4062 L157.5 172.4062 Q139.2188 180.8438 131.625 180.8438 Q118.9688 180.8438 108 167.9062 Q109.6875 163.9688 111.375 163.9688 Q122.0625 169.5938 128.25 169.5938 L132.1875 169.5938 Q142.3125 169.5938 160.875 161.1562 Q162.5625 156.0938 162.5625 148.7812 L162.5625 145.4062 Q162.5625 135.8438 146.25 135.8438 L146.25 135.2812 Q146.25 130.2188 150.1875 130.2188 ZM58.5 136.4062 Q77.625 145.6875 77.625 156.0938 Q77.625 158.625 65.25 183.6562 Q56.8125 204.75 56.8125 221.3438 Q56.8125 232.875 59.625 237.0938 Q62.1562 236.25 72 218.5312 Q82.125 204.4688 82.125 203.3438 L83.25 203.3438 Q86.0625 205.5938 87.1875 205.5938 L87.1875 207.2812 Q66.6562 241.5938 64.6875 259.0312 Q61.0312 262.4062 59.625 262.4062 Q48.9375 262.4062 45.5625 225.8438 Q45.5625 199.9688 62.4375 157.7812 L62.4375 153.2812 Q62.4375 147.0938 54.5625 139.2188 Q54.5625 137.8125 58.5 136.4062 ZM123.75 219.0938 L123.75 222.4688 Q123.75 231.4688 138.9375 233.1562 L145.125 233.1562 Q165.0938 233.1562 171.5625 219.0938 Q160.3125 212.9062 140.0625 212.9062 Q126.5625 212.9062 123.75 219.0938 ZM100.6875 279.8438 L100.6875 282.6562 Q100.6875 303.75 114.1875 319.2188 Q136.125 306.8438 147.9375 270.2812 Q149.0625 268.3125 149.0625 265.7812 L149.0625 265.2188 Q129.6562 265.2188 100.6875 279.8438 ZM60.1875 318.0938 L60.1875 322.5938 Q61.5938 332.7188 70.3125 332.7188 L75.375 332.7188 Q87.1875 332.7188 100.125 327.0938 L100.125 325.9688 Q88.875 301.2188 88.875 286.0312 L88.3125 286.0312 Q69.1875 295.3125 61.875 309.6562 Q60.1875 314.7188 60.1875 318.0938 Z" stroke="none" />
    </g>
  </g>
</svg>
