<?xml version="1.0"?>

<!DOCTYPE svg PUBLIC '-//W3C//DTD SVG 1.0//EN' 'http://www.w3.org/TR/2001/REC-SVG-20010904/DTD/svg10.dtd'>
<svg fill-opacity="1" xmlns:xlink="http://www.w3.org/1999/xlink" color-rendering="auto" color-interpolation="auto" text-rendering="auto" stroke="black" stroke-linecap="square" stroke-miterlimit="10" shape-rendering="auto" stroke-opacity="1" fill="black" stroke-dasharray="none" font-weight="normal" stroke-width="1" xmlns="http://www.w3.org/2000/svg" font-family="&apos;Dialog&apos;" font-style="normal" stroke-linejoin="miter" font-size="12" stroke-dashoffset="0" image-rendering="auto">
  <!--Unicode Character 'HENTAIGANA LETTER SU-3' (U+1B04C)-->
  <defs id="genericDefs" />
  <g>
    <g>
      <path d="M78.4688 134.4375 Q99.2812 136.9688 99.2812 146.25 Q97.5938 151.5938 95.9062 163.125 L97.0312 163.125 Q113.0625 151.3125 126.2812 151.3125 Q136.9688 152.4375 136.9688 160.875 Q136.9688 169.0312 120.6562 182.25 Q121.7812 187.3125 135.2812 192.9375 Q137.5312 195.4688 137.5312 196.875 Q137.5312 207.5625 92.5312 230.0625 L92.5312 246.9375 Q92.5312 249.75 93.0938 256.5 Q99 256.5 149.9062 201.9375 L153.2812 206.4375 Q145.9688 217.9688 93.6562 270.5625 Q94.7812 286.875 96.4688 300.375 L97.0312 300.375 Q103.7812 290.5312 109.4062 267.75 L110.5312 267.1875 L111.6562 267.1875 Q119.5312 270.2812 119.5312 296.4375 Q120.0938 300.9375 120.0938 309.9375 Q118.9688 354.9375 113.3438 354.9375 Q113.3438 356.0625 108.2812 357.75 Q97.0312 357.75 89.1562 329.0625 L88.0312 329.0625 Q71.4375 349.3125 63.2812 349.3125 L62.7188 349.3125 Q53.4375 349.3125 50.3438 338.625 Q36.8438 321.1875 36.8438 318.9375 Q36.2812 317.8125 36.2812 316.6875 Q36.2812 302.9062 80.7188 265.5 L80.7188 264.9375 Q79.5938 241.3125 79.5938 235.6875 L79.5938 235.125 Q52.875 243.5625 44.7188 243.5625 Q31.7812 242.4375 31.7812 231.75 Q31.7812 222.4688 45.2812 216 Q46.125 216 47.5312 218.8125 L47.5312 219.375 Q43.5938 223.0312 43.5938 223.875 L43.5938 227.8125 Q43.875 228.9375 44.7188 228.9375 L49.2188 228.9375 Q57.375 228.9375 78.4688 221.0625 Q79.0312 217.9688 79.0312 217.6875 Q79.0312 207.2812 80.7188 179.4375 Q75.0938 180 62.1562 194.625 L58.7812 195.1875 Q45.8438 192.375 45.8438 178.3125 Q45.8438 166.2188 53.1562 159.75 Q57.0938 159.75 57.0938 167.0625 Q58.5 178.3125 61.0312 178.3125 L63.2812 178.3125 Q81.8438 171.5625 81.8438 168.1875 Q84.0938 155.5312 84.6562 149.0625 Q82.4062 139.5 75.6562 139.5 Q75.6562 136.6875 78.4688 134.4375 ZM184.2188 147.375 Q210.0938 152.1562 210.0938 163.6875 Q210.0938 177.4688 186.4688 229.5 Q185.9062 230.3438 185.9062 232.3125 L185.9062 232.875 Q186.1875 234 187.0312 234 L188.1562 234 Q191.5312 234 203.3438 232.3125 Q214.875 232.3125 216.8438 249.1875 L216.8438 249.75 Q216.8438 259.0312 208.4062 288.5625 Q220.2188 297.2812 229.7812 306.5625 Q256.2188 335.5312 256.2188 348.75 Q254.25 358.3125 247.7812 358.3125 Q241.875 358.3125 233.7188 336.375 Q225.2812 320.3438 208.4062 302.625 L203.9062 299.25 Q180.5625 326.25 154.9688 326.25 Q138.6562 324.5625 138.6562 313.875 L138.6562 313.3125 Q138.6562 297.8438 164.5312 285.75 Q172.6875 282.375 181.9688 282.375 Q184.7812 282.375 194.9062 282.9375 Q200.5312 269.1562 200.5312 248.0625 Q200.5312 245.25 197.7188 243.5625 Q194.0625 243.5625 181.9688 246.375 Q175.2188 242.4375 175.2188 237.375 Q192.6562 186.75 192.6562 168.75 L192.6562 164.8125 Q189.5625 153 180.8438 153 L180.8438 151.875 Q180.8438 151.3125 184.2188 147.375 ZM93.0938 192.375 L94.2188 192.375 Q119.5312 173.5312 119.5312 166.5 L119.5312 163.6875 Q119.5312 162.8438 117.2812 161.4375 L116.1562 161.4375 Q94.7812 167.9062 94.7812 174.9375 Q93.6562 181.9688 93.0938 192.375 ZM91.9688 208.6875 L91.9688 214.3125 L92.5312 214.3125 Q121.2188 202.2188 121.2188 195.1875 Q121.2188 190.4062 116.7188 185.625 L115.5938 185.625 Q92.5312 199.125 92.5312 200.25 Q91.9688 205.0312 91.9688 208.6875 ZM51.4688 319.5 L51.4688 321.1875 Q55.6875 335.8125 62.7188 335.8125 Q74.25 332.1562 85.7812 316.6875 L81.8438 280.125 Q75.9375 280.6875 58.7812 304.3125 Q51.4688 314.4375 51.4688 319.5 ZM109.9688 285.1875 Q107.1562 297.8438 99.8438 315.5625 Q99.8438 325.6875 106.0312 338.625 L107.7188 338.625 Q110.5312 338.625 111.6562 303.1875 L111.0938 285.1875 L109.9688 285.1875 ZM147.0938 311.0625 L147.0938 313.875 Q147.0938 316.125 154.4062 317.25 Q173.25 317.25 190.9688 294.75 L190.9688 293.0625 Q187.5938 290.25 180.2812 290.25 L174.6562 290.25 Q160.875 290.25 147.6562 307.6875 L147.0938 311.0625 Z" stroke="none" />
    </g>
  </g>
</svg>
