<?xml version="1.0" encoding="UTF-8" standalone="no"?>
<svg
   xmlns:dc="http://purl.org/dc/elements/1.1/"
   xmlns:cc="http://creativecommons.org/ns#"
   xmlns:rdf="http://www.w3.org/1999/02/22-rdf-syntax-ns#"
   xmlns:svg="http://www.w3.org/2000/svg"
   xmlns="http://www.w3.org/2000/svg"
   xmlns:sodipodi="http://sodipodi.sourceforge.net/DTD/sodipodi-0.dtd"
   xmlns:inkscape="http://www.inkscape.org/namespaces/inkscape"
   fill-opacity="1"
   color-rendering="auto"
   color-interpolation="auto"
   text-rendering="auto"
   stroke="black"
   stroke-linecap="square"
   stroke-miterlimit="10"
   shape-rendering="auto"
   stroke-opacity="1"
   fill="black"
   stroke-dasharray="none"
   font-weight="normal"
   stroke-width="1"
   font-family="'Dialog'"
   font-style="normal"
   stroke-linejoin="miter"
   font-size="12"
   stroke-dashoffset="0"
   image-rendering="auto"
   version="1.1"
   id="svg9"
   sodipodi:docname="hentaigana_letter_re1.svg"
   inkscape:version="0.92.4 (5da689c313, 2019-01-14)"
   width="100%"
   height="100%"
   viewBox="0 0 100 100"
   preserveAspectRatio="xMidYMid meet"
   >
  <metadata
     id="metadata13">
    <rdf:RDF>
      <cc:Work
         rdf:about="">
        <dc:format>image/svg+xml</dc:format>
        <dc:type
           rdf:resource="http://purl.org/dc/dcmitype/StillImage" />
      </cc:Work>
    </rdf:RDF>
  </metadata>
  <sodipodi:namedview
     pagecolor="#ffffff"
     bordercolor="#666666"
     borderopacity="1"
     objecttolerance="10"
     gridtolerance="10"
     guidetolerance="10"
     inkscape:pageopacity="0"
     inkscape:pageshadow="2"
     inkscape:window-width="1920"
     inkscape:window-height="986"
     id="namedview11"
     showgrid="false"
     inkscape:zoom="2.36"
     inkscape:cx="50"
     inkscape:cy="50"
     inkscape:window-x="-11"
     inkscape:window-y="-11"
     inkscape:window-maximized="1"
     inkscape:current-layer="svg9" />
  <!--Unicode Character 'HENTAIGANA LETTER RE-1' (U+1B0FE)-->
  <defs
     id="genericDefs" />
  <g
     id="g7"
     transform="matrix(0.43834857,0,0,0.43133562,-12.766263,-56.081754)">
    <g
       id="g5">
      <path
         d="m 77.9062,131.625 h 0.5626 q 4.7812,13.7812 17.4374,20.25 19.125,5.0625 19.125,14.0625 0,7.0313 -12.375,8.4375 -1.125,0 -6.1874,-0.5625 -14.0626,0 -30.9376,10.6875 h -0.5624 q -2.5313,-0.8438 -3.9376,-3.375 12.375,-9.8438 26.4376,-16.3125 l 0.5624,-1.125 V 163.125 Q 76.2188,151.3125 75.0938,144 q -2.25,-4.5 -3.375,-10.6875 3.9374,-1.6875 6.1874,-1.6875 z m 138.9376,7.3125 q 12.9374,1.6875 12.9374,11.8125 v 1.125 q 0,6.1875 -11.25,28.125 0.5626,0 0.5626,0.5625 8.4374,-1.6875 16.3124,-1.6875 h 4.5 q 12.9376,0 15.75,9 0,5.625 -8.4374,5.625 -12.9376,-1.125 -16.3126,-1.125 h -1.6874 q -22.5,0 -22.5,5.625 -12.9376,20.25 -32.625,43.3125 -3.9376,3.375 -3.9376,6.1875 32.3438,-15.75 54,-15.75 18,1.6875 18,11.25 -1.6874,7.875 -27,23.0625 -20.8124,14.3437 -20.8124,15.75 v 1.125 q 1.4062,1.4063 11.8124,5.0625 2.8126,2.8125 2.8126,5.0625 0,4.5 -15.1876,11.8125 -11.25,7.875 -11.25,15.75 V 324 q 0,8.1562 20.8126,11.25 3.375,0 11.8124,0.5625 3.0938,-0.5625 3.375,-0.5625 11.8126,1.4062 11.8126,7.875 0,6.4688 -16.875,8.4375 -42.1876,-3.9375 -42.1876,-26.4375 0,-14.3438 17.4376,-25.3125 l 0.5624,-1.125 q 0,-0.5625 -9,-5.625 0,-0.8437 -1.125,-3.375 0,-5.625 33.75,-32.0625 7.3126,-9 7.3126,-12.9375 0,-3.9375 -4.5,-3.9375 h -3.375 q -16.0313,0 -64.125,30.9375 l -3.375,0.5625 q -2.8126,-1.4062 -2.8126,-5.625 0,-9.5625 16.3126,-18.5625 25.3124,-29.25 35.4374,-48.375 V 198 h -0.5624 q -29.5313,10.6875 -75.375,52.3125 -27,27.2813 -27,33.75 v 64.125 q -1.6876,12.9375 -10.125,12.9375 -3.9376,0 -6.1876,-13.5 -7.5937,-14.9062 -17.4374,-28.6875 h -1.125 q -13.2188,16.875 -15.75,16.875 -4.7813,0 -7.875,-14.625 0,-1.4063 8.4374,-12.9375 16.875,-33.4688 16.875,-47.8125 v -1.125 q 0,-7.3125 -5.0624,-12.375 Q 54.5625,243 55.4062,243 q 11.25,5.0625 11.25,18.5625 0,9.8437 -9,34.875 h 1.125 Q 72.8438,283.5 80.1562,274.5 q 0,-4.2188 2.25,-53.4375 L 81.2812,220.5 h -1.125 q -9,3.0938 -27.5624,12.375 -4.5,0.2812 -4.5,1.125 -11.25,0 -13.5,-15.75 0,-14.0625 11.8124,-21.9375 2.25,2.25 2.25,4.5 -2.25,5.9063 -2.25,7.875 v 5.0625 q 1.9688,3.375 4.5,3.375 12.0938,0 35.4376,-13.5 h 1.125 q 5.0624,0 7.875,6.1875 -3.9376,31.5 -3.9376,47.8125 v 4.5 h 0.5626 q 60.1874,-56.25 102.375,-73.6875 10.6874,0 16.3124,-33.1875 v -1.6875 q 0,-5.0625 -6.1874,-5.0625 -12.6563,1.9688 -39.9376,37.125 -4.2187,3.0938 -9,3.9375 -8.7187,0 -11.25,-14.0625 0,-10.9688 9.5626,-28.6875 0.5624,0 0.5624,-0.5625 3.0938,0.5625 4.5,2.25 -2.25,8.1562 -2.8124,17.4375 0.8437,5.0625 3.375,5.0625 3.375,0 22.5,-17.4375 21.375,-14.625 34.875,-14.625 z M 61.0312,312.75 q 5.625,8.7188 18,20.8125 h 0.5626 V 326.25 q 0,-11.25 0.5624,-33.75 h -1.125 q -9.2812,8.7188 -18,20.25 z"
         id="path3"
         inkscape:connector-curvature="0"
         style="stroke:none" />
    </g>
  </g>
</svg>
