<?xml version="1.0"?>

<!DOCTYPE svg PUBLIC '-//W3C//DTD SVG 1.0//EN' 'http://www.w3.org/TR/2001/REC-SVG-20010904/DTD/svg10.dtd'>
<svg fill-opacity="1" xmlns:xlink="http://www.w3.org/1999/xlink" color-rendering="auto" color-interpolation="auto" text-rendering="auto" stroke="black" stroke-linecap="square" stroke-miterlimit="10" shape-rendering="auto" stroke-opacity="1" fill="black" stroke-dasharray="none" font-weight="normal" stroke-width="1" xmlns="http://www.w3.org/2000/svg" font-family="&apos;Dialog&apos;" font-style="normal" stroke-linejoin="miter" font-size="12" stroke-dashoffset="0" image-rendering="auto">
  <!--Unicode Character 'HENTAIGANA LETTER WO-5' (U+1B11A)-->
  <defs id="genericDefs" />
  <g>
    <g>
      <path d="M151.0312 140.0625 Q155.5312 140.0625 173.5312 155.25 Q184.7812 162.5625 197.7188 167.625 Q200.5312 170.4375 200.5312 173.8125 Q200.5312 180 173.5312 198 Q166.2188 205.0312 166.2188 207.5625 Q179.1562 251.4375 189.2812 268.875 Q191.5312 275.3438 193.7812 277.3125 Q195.75 277.3125 202.7812 264.9375 Q206.7188 259.0312 206.7188 255.375 L206.7188 253.125 Q204.1875 248.9062 200.5312 248.0625 L200.5312 246.9375 Q202.5 243.5625 203.3438 243.5625 L204.4688 243.5625 Q222.4688 250.0312 222.4688 257.625 Q222.4688 264.6562 201.0938 290.8125 L201.0938 291.9375 Q209.8125 308.8125 232.0312 331.3125 L233.1562 331.3125 L233.1562 330.75 L226.4062 294.75 Q228.375 293.625 230.9062 293.625 L231.4688 293.625 Q232.3125 294.4688 241.5938 324 Q242.7188 331.0312 251.1562 340.875 L251.7188 344.25 Q251.7188 351.5625 241.5938 352.6875 Q222.4688 350.7188 191.5312 301.5 L190.9688 301.5 Q162.5625 330.75 156.6562 330.75 Q156.6562 332.7188 138.0938 336.9375 Q120.375 336.9375 117.2812 307.125 L117.2812 302.0625 Q117.2812 279.8438 123.4688 248.625 L121.7812 248.625 Q89.4375 286.875 71.7188 319.5 Q57.0938 344.25 50.3438 344.25 Q40.2188 340.3125 40.2188 334.6875 Q42.1875 326.25 56.5312 294.1875 Q72.8438 252 72.8438 239.625 L72.8438 239.0625 Q72.8438 234 61.0312 228.9375 L59.9062 225 L68.3438 197.4375 L67.2188 197.4375 Q47.25 197.4375 36.2812 184.5 L36.2812 183.375 Q37.9688 181.125 37.9688 180 Q48.0938 185.0625 67.7812 185.0625 Q74.5312 185.0625 74.5312 178.875 Q79.0312 165.6562 79.0312 159.1875 L79.0312 157.5 Q79.0312 151.875 65.5312 148.5 L65.5312 147.9375 Q65.5312 145.125 68.3438 142.3125 Q91.9688 146.25 91.9688 149.0625 Q94.7812 150.75 94.7812 155.8125 Q93.6562 162.5625 86.9062 181.6875 L87.4688 181.6875 Q92.25 181.6875 105.4688 172.125 L107.7188 171.5625 Q115.5938 173.5312 115.5938 177.75 Q115.5938 187.3125 80.7188 196.875 Q71.7188 217.4062 71.7188 223.3125 Q86.3438 227.5312 86.3438 234 Q86.9062 236.25 86.9062 238.5 L86.9062 240.75 Q86.9062 254.25 57.6562 315.5625 L57.6562 316.125 Q60.4688 313.875 79.5938 288 Q108.2812 250.875 147.0938 212.625 Q152.1562 209.25 152.1562 206.4375 Q142.0312 169.3125 142.0312 150.75 Q143.4375 140.0625 151.0312 140.0625 ZM206.7188 144.5625 Q227.25 144.5625 237.6562 159.75 Q239.3438 163.125 239.3438 165.375 Q237.9375 174.375 231.4688 174.375 Q227.25 174.375 221.3438 162 Q215.4375 153 203.3438 149.625 L203.3438 149.0625 Q205.3125 144.5625 206.7188 144.5625 ZM154.9688 153.5625 Q154.9688 169.5938 163.4062 196.875 Q179.7188 184.2188 185.3438 177.1875 Q185.3438 173.5312 166.2188 158.0625 Q163.9688 154.9688 158.3438 151.3125 L156.6562 151.3125 Q155.25 151.3125 154.9688 153.5625 ZM125.7188 300.9375 Q125.7188 319.2188 133.0312 324 L136.9688 325.125 L142.0312 325.125 Q154.4062 324 176.9062 298.125 Q183.6562 290.25 183.6562 288.5625 Q168.75 257.625 154.9688 217.125 Q129.6562 236.5312 129.6562 250.3125 Q125.7188 274.7812 125.7188 300.9375 Z" stroke="none" />
    </g>
  </g>
</svg>
