<?xml version="1.0"?>

<!DOCTYPE svg PUBLIC '-//W3C//DTD SVG 1.0//EN' 'http://www.w3.org/TR/2001/REC-SVG-20010904/DTD/svg10.dtd'>
<svg fill-opacity="1" xmlns:xlink="http://www.w3.org/1999/xlink" color-rendering="auto" color-interpolation="auto" text-rendering="auto" stroke="black" stroke-linecap="square" stroke-miterlimit="10" shape-rendering="auto" stroke-opacity="1" fill="black" stroke-dasharray="none" font-weight="normal" stroke-width="1" xmlns="http://www.w3.org/2000/svg" font-family="&apos;Dialog&apos;" font-style="normal" stroke-linejoin="miter" font-size="12" stroke-dashoffset="0" image-rendering="auto">
  <!--Unicode Character 'HENTAIGANA LETTER MI-6' (U+1B0CE)-->
  <defs id="genericDefs" />
  <g>
    <g>
      <path d="M167.9062 143.7188 L171.8438 143.7188 Q192.375 143.7188 201.6562 168.4688 Q203.3438 176.9062 203.3438 181.4062 Q203.3438 217.125 171.8438 244.4062 Q158.3438 251.7188 149.3438 251.7188 Q137.5312 250.0312 132.4688 246.0938 L131.3438 246.0938 L100.4062 287.7188 L100.4062 288.2812 Q101.8125 288.2812 112.7812 281.5312 Q124.875 274.7812 135.8438 274.7812 Q150.1875 274.7812 156.0938 291.0938 Q162 329.9062 167.9062 329.9062 Q172.9688 333.2812 190.4062 333.2812 Q210.6562 333.2812 225.2812 329.9062 Q237.6562 329.9062 237.6562 340.0312 Q237.6562 349.0312 194.3438 349.0312 Q157.7812 349.0312 150.4688 334.4062 Q146.8125 334.4062 142.5938 296.1562 Q138.9375 284.9062 132.4688 284.9062 Q115.0312 284.9062 86.9062 313.0312 Q62.7188 345.0938 59.3438 347.9062 Q57.0938 347.9062 57.0938 348.4688 Q51.75 348.4688 50.3438 338.9062 Q50.3438 327.9375 67.7812 314.1562 Q119.25 248.9062 130.2188 216.2812 Q130.2188 210.9375 119.5312 205.5938 L119.5312 205.0312 Q121.2188 200.5312 122.9062 200.5312 Q147.0938 203.9062 147.0938 215.7188 Q147.0938 221.3438 136.4062 237.6562 L136.4062 238.7812 Q136.4062 240.4688 144.2812 241.0312 L149.9062 241.0312 Q166.2188 241.0312 180.8438 207.8438 Q185.3438 193.5 185.3438 184.7812 L185.3438 176.3438 Q185.3438 152.7188 171.8438 152.7188 L165.0938 152.7188 Q154.6875 152.7188 109.4062 178.5938 Q104.9062 180.8438 99.8438 180.8438 Q86.0625 180.8438 79.5938 155.5312 L84.0938 152.7188 L85.2188 152.7188 Q92.5312 162.8438 99.2812 162.8438 L101.5312 162.8438 Q109.6875 162.8438 144.8438 148.2188 Q160.0312 143.7188 167.9062 143.7188 Z" stroke="none" />
    </g>
  </g>
</svg>
