<?xml version="1.0"?>

<!DOCTYPE svg PUBLIC '-//W3C//DTD SVG 1.0//EN' 'http://www.w3.org/TR/2001/REC-SVG-20010904/DTD/svg10.dtd'>
<svg fill-opacity="1" xmlns:xlink="http://www.w3.org/1999/xlink" color-rendering="auto" color-interpolation="auto" text-rendering="auto" stroke="black" stroke-linecap="square" stroke-miterlimit="10" shape-rendering="auto" stroke-opacity="1" fill="black" stroke-dasharray="none" font-weight="normal" stroke-width="1" xmlns="http://www.w3.org/2000/svg" font-family="&apos;Dialog&apos;" font-style="normal" stroke-linejoin="miter" font-size="12" stroke-dashoffset="0" image-rendering="auto">
  <!--Unicode Character 'HENTAIGANA LETTER MO-5' (U+1B0DB)-->
  <defs id="genericDefs" />
  <g>
    <g>
      <path d="M128.8125 134.1562 Q130.7812 134.1562 145.125 147.6562 Q160.5938 154.4062 162 156.0938 Q163.125 158.9062 163.125 160.0312 Q163.125 175.2188 109.125 190.4062 Q89.7188 223.875 62.4375 263.5312 L62.4375 264.6562 L63 264.6562 Q97.5938 249.1875 137.8125 224.7188 L137.8125 224.1562 Q136.125 216 136.125 210.6562 Q136.125 204.75 141.1875 203.3438 Q156.0938 209.5312 157.5 209.5312 Q161.4375 209.5312 164.25 214.5938 Q164.25 216.5625 153.5625 226.4062 Q162 257.9062 171 273.6562 L171.5625 273.6562 Q178.3125 268.0312 178.3125 262.9688 L178.3125 260.1562 Q176.9062 254.5312 174.9375 254.5312 L174.9375 252.2812 Q178.5938 250.0312 180 250.0312 Q192.9375 259.5938 192.9375 267.4688 Q192.9375 275.9062 177.75 288.8438 L177.75 289.9688 Q189 313.3125 208.125 336.6562 L209.8125 336.6562 L203.625 300.0938 L204.1875 300.0938 L207.5625 299.5312 L209.8125 299.5312 Q220.5 339.4688 228.375 347.3438 Q228.9375 350.1562 228.9375 350.7188 Q228.9375 356.9062 218.25 358.5938 Q198.2812 358.5938 166.5 300.0938 L165.9375 300.0938 Q124.3125 334.4062 116.4375 334.4062 Q110.25 333 110.25 329.3438 Q117.5625 310.7812 117.5625 300.6562 L121.5 300.0938 Q123.1875 300.0938 123.1875 306.2812 L123.1875 315.8438 Q131.625 312.1875 157.5 289.4062 Q159.75 288.2812 159.75 286.0312 Q140.625 239.625 140.625 233.7188 L139.5 233.7188 Q61.0312 284.9062 57.375 284.9062 Q47.8125 281.5312 47.8125 271.4062 Q47.8125 267.1875 69.75 232.5938 Q89.1562 199.9688 91.6875 192.6562 L91.6875 192.0938 Q91.125 192.0938 87.1875 192.6562 Q59.3438 192.6562 47.25 175.2188 Q47.25 173.25 51.1875 171.2812 Q62.4375 179.1562 84.375 179.1562 Q100.125 179.1562 100.125 174.0938 Q118.6875 134.1562 128.8125 134.1562 ZM114.1875 175.2188 L114.1875 175.7812 L114.75 175.7812 Q124.0312 175.7812 146.8125 162.8438 L147.375 161.7188 L147.375 160.5938 Q133.5938 145.9688 132.75 145.9688 L131.625 145.9688 Q125.7188 151.3125 115.875 170.7188 Q114.1875 173.5312 114.1875 175.2188 ZM217.125 153.2812 Q229.5 153.2812 238.5 170.1562 Q240.75 176.0625 240.75 179.7188 Q239.625 189.8438 232.875 189.8438 Q226.4062 189.8438 225 175.2188 Q219.9375 164.25 213.75 162.8438 L210.375 162.8438 Q204.1875 165.0938 203.625 165.0938 Q201.375 162.5625 201.375 162.2812 L201.375 161.7188 Q208.6875 153.2812 217.125 153.2812 Z" stroke="none" />
    </g>
  </g>
</svg>
