<?xml version="1.0"?>

<!DOCTYPE svg PUBLIC '-//W3C//DTD SVG 1.0//EN' 'http://www.w3.org/TR/2001/REC-SVG-20010904/DTD/svg10.dtd'>
<svg fill-opacity="1" xmlns:xlink="http://www.w3.org/1999/xlink" color-rendering="auto" color-interpolation="auto" text-rendering="auto" stroke="black" stroke-linecap="square" stroke-miterlimit="10" shape-rendering="auto" stroke-opacity="1" fill="black" stroke-dasharray="none" font-weight="normal" stroke-width="1" xmlns="http://www.w3.org/2000/svg" font-family="&apos;Dialog&apos;" font-style="normal" stroke-linejoin="miter" font-size="12" stroke-dashoffset="0" image-rendering="auto">
  <!--Unicode Character 'HENTAIGANA LETTER MI-7' (U+1B0CF)-->
  <defs id="genericDefs" />
  <g>
    <g>
      <path d="M130.2188 136.4062 Q137.8125 147.6562 156.6562 147.6562 Q178.0312 150.4688 178.0312 159.4688 L178.0312 161.7188 Q174.9375 167.3438 167.3438 167.3438 Q161.1562 167.3438 125.1562 184.7812 Q122.9062 182.8125 122.9062 180.2812 Q140.3438 169.3125 148.7812 161.1562 L148.7812 160.0312 Q133.5938 155.8125 128.5312 147.0938 Q125.7188 142.0312 125.7188 139.2188 Q128.25 136.4062 130.2188 136.4062 ZM204.4688 149.9062 L205.0312 149.9062 Q230.9062 158.0625 230.9062 174.0938 Q230.9062 183.9375 195.4688 229.2188 Q201.6562 246.6562 201.6562 264.0938 Q201.6562 322.5938 183.0938 347.9062 Q174.6562 356.3438 167.3438 356.3438 Q161.4375 356.3438 148.2188 337.2188 Q130.7812 322.0312 130.7812 321.4688 Q133.3125 315.8438 134.1562 315.8438 Q163.125 335.5312 167.3438 335.5312 L167.9062 335.5312 Q180.5625 333.2812 184.7812 279.2812 Q184.7812 277.3125 185.3438 265.2188 Q184.7812 252.8438 183.6562 244.9688 L182.5312 244.9688 Q134.4375 298.4062 108.2812 318.0938 Q65.8125 351.2812 61.0312 351.2812 Q57.0938 345.6562 57.0938 344.5312 Q82.125 329.9062 138.0938 274.7812 Q162.8438 247.7812 177.4688 228.6562 L177.4688 226.9688 Q171.2812 216.2812 159.4688 216.2812 L158.9062 216.2812 Q139.7812 216.2812 101.5312 237.6562 Q99.2812 238.7812 95.3438 238.7812 L94.7812 238.7812 Q81.8438 238.7812 81.8438 225.2812 Q81.8438 211.2188 91.4062 202.7812 L91.9688 202.7812 Q95.0625 205.0312 96.4688 205.0312 Q93.6562 212.625 93.6562 214.5938 L93.6562 216.8438 Q93.6562 221.3438 98.1562 221.3438 L99.2812 221.3438 Q102.0938 221.3438 138.0938 209.5312 Q149.9062 207.2812 162.8438 206.1562 Q174.9375 206.1562 185.9062 215.7188 L187.0312 215.7188 Q212.9062 182.5312 212.9062 168.4688 Q212.9062 160.3125 201.6562 155.5312 L201.6562 154.4062 Q204.4688 150.75 204.4688 149.9062 Z" stroke="none" />
    </g>
  </g>
</svg>
