<?xml version="1.0" encoding="UTF-8" standalone="no"?>
<svg
   xmlns:dc="http://purl.org/dc/elements/1.1/"
   xmlns:cc="http://creativecommons.org/ns#"
   xmlns:rdf="http://www.w3.org/1999/02/22-rdf-syntax-ns#"
   xmlns:svg="http://www.w3.org/2000/svg"
   xmlns="http://www.w3.org/2000/svg"
   xmlns:sodipodi="http://sodipodi.sourceforge.net/DTD/sodipodi-0.dtd"
   xmlns:inkscape="http://www.inkscape.org/namespaces/inkscape"
   fill-opacity="1"
   color-rendering="auto"
   color-interpolation="auto"
   text-rendering="auto"
   stroke="black"
   stroke-linecap="square"
   stroke-miterlimit="10"
   shape-rendering="auto"
   stroke-opacity="1"
   fill="black"
   stroke-dasharray="none"
   font-weight="normal"
   stroke-width="1"
   font-family="'Dialog'"
   font-style="normal"
   stroke-linejoin="miter"
   font-size="12"
   stroke-dashoffset="0"
   image-rendering="auto"
   version="1.1"
   id="svg9"
   sodipodi:docname="hentaigana_letter_hu1.svg"
   inkscape:version="0.92.4 (5da689c313, 2019-01-14)"
   width="100%"
   height="100%"
   viewBox="0 0 100 100"
   preserveAspectRatio="xMidYMid meet"
   >
  <metadata
     id="metadata13">
    <rdf:RDF>
      <cc:Work
         rdf:about="">
        <dc:format>image/svg+xml</dc:format>
        <dc:type
           rdf:resource="http://purl.org/dc/dcmitype/StillImage" />
      </cc:Work>
    </rdf:RDF>
  </metadata>
  <sodipodi:namedview
     pagecolor="#ffffff"
     bordercolor="#666666"
     borderopacity="1"
     objecttolerance="10"
     gridtolerance="10"
     guidetolerance="10"
     inkscape:pageopacity="0"
     inkscape:pageshadow="2"
     inkscape:window-width="1920"
     inkscape:window-height="986"
     id="namedview11"
     showgrid="false"
     inkscape:zoom="2.36"
     inkscape:cx="50"
     inkscape:cy="50"
     inkscape:window-x="-11"
     inkscape:window-y="-11"
     inkscape:window-maximized="1"
     inkscape:current-layer="svg9" />
  <!--Unicode Character 'HENTAIGANA LETTER HU-1' (U+1B0B0)-->
  <defs
     id="genericDefs" />
  <g
     id="g7"
     transform="matrix(0.51270463,0,0,0.4805571,-23.89726,-68.420559)">
    <g
       id="g5">
      <path
         d="m 156.6562,144 q 9.2813,0 12.9376,10.6875 0,2.25 -15.1876,15.75 -77.0624,84.6563 -77.0624,86.625 v 0.5625 h 0.5624 q 12.9376,-7.5938 22.5,-7.875 17.1563,0 24.75,19.6875 1.125,2.5313 1.6876,9 -0.5626,18.5625 -0.5626,32.0625 1.125,0 12.9376,-18.5625 26.4374,-33.75 48.9374,-39.375 l 8.4376,-1.6875 q 28.6874,0 40.5,25.3125 1.6874,8.1563 1.6874,10.125 0,22.2187 -41.0624,34.875 l -2.8126,-3.9375 v -1.6875 Q 219.0938,306 219.0938,289.6875 v -9 q 0,-12.6563 -18.5626,-19.6875 -3.0937,-0.5625 -4.5,-0.5625 -32.3437,0 -66.9374,69.75 -3.0938,4.7813 -6.1876,15.75 -3.0937,2.8125 -3.375,2.8125 h -0.5624 q -7.5938,0 -11.25,-9.5625 3.375,-19.9687 3.375,-49.5 V 279 q -1.125,-20.8125 -10.125,-20.8125 h -4.5 q -8.4376,0 -28.6876,18.5625 -9.2812,10.6875 -12.9374,10.6875 -5.625,0 -5.625,-14.625 0,-8.1563 13.5,-18 57.375,-58.2187 81.5624,-92.8125 -0.5624,0 -0.5624,-0.5625 -9.2813,1.6875 -16.875,1.6875 h -1.6876 q -17.7187,0 -27.5624,-15.1875 0.8437,0 3.375,-3.375 7.875,5.625 21.375,5.625 h 1.6874 q 14.3438,0 31.5,-6.1875 z"
         id="path3"
         inkscape:connector-curvature="0"
         style="stroke:none" />
    </g>
  </g>
</svg>
