<?xml version="1.0"?>

<!DOCTYPE svg PUBLIC '-//W3C//DTD SVG 1.0//EN' 'http://www.w3.org/TR/2001/REC-SVG-20010904/DTD/svg10.dtd'>
<svg fill-opacity="1" xmlns:xlink="http://www.w3.org/1999/xlink" color-rendering="auto" color-interpolation="auto" text-rendering="auto" stroke="black" stroke-linecap="square" stroke-miterlimit="10" shape-rendering="auto" stroke-opacity="1" fill="black" stroke-dasharray="none" font-weight="normal" stroke-width="1" xmlns="http://www.w3.org/2000/svg" font-family="&apos;Dialog&apos;" font-style="normal" stroke-linejoin="miter" font-size="12" stroke-dashoffset="0" image-rendering="auto">
  <!--Unicode Character 'HENTAIGANA LETTER MI-3' (U+1B0CB)-->
  <defs id="genericDefs" />
  <g>
    <g>
      <path d="M187.875 131.9062 L190.6875 131.9062 Q204.1875 133.3125 204.1875 140.9062 Q204.1875 143.7188 191.8125 161.1562 Q172.9688 193.5 168.1875 205.5938 Q171.5625 209.8125 171.5625 213.4688 L171.5625 214.0312 Q171.5625 225.5625 156.375 241.5938 Q153.8438 245.25 147.375 262.9688 Q144.5625 265.7812 136.125 265.7812 Q131.3438 270 95.625 295.0312 L95.625 295.5938 Q167.625 282.6562 167.625 277.0312 Q184.5 266.3438 190.125 266.3438 Q198.5625 266.3438 206.4375 277.0312 Q206.4375 282.6562 173.25 287.7188 Q166.7812 289.125 131.625 318.0938 L131.625 319.2188 Q140.0625 318.0938 145.6875 318.0938 L148.5 318.0938 Q183.9375 318.0938 214.875 342.8438 Q221.0625 348.75 221.0625 353.5312 Q221.0625 358.875 213.1875 360.8438 Q209.5312 360.8438 186.1875 341.1562 Q163.125 326.5312 144 326.5312 L134.4375 326.5312 Q120.6562 326.5312 84.9375 357.4688 Q80.1562 359.1562 78.75 359.1562 Q74.8125 357.4688 74.8125 354.0938 Q76.7812 343.6875 84.9375 337.7812 Q103.7812 332.4375 142.3125 296.7188 L142.3125 295.5938 L141.75 295.5938 Q111.6562 302.0625 72.5625 318.0938 Q68.0625 318.0938 66.9375 308.5312 Q66.9375 299.8125 81 296.1562 Q110.5312 276.4688 127.6875 261.8438 Q104.625 250.875 104.625 238.2188 Q109.4062 221.625 144 204.4688 Q151.5938 202.2188 159.1875 202.2188 L159.75 202.2188 Q176.3438 169.5938 183.9375 146.5312 L183.9375 144.8438 Q183.9375 144 182.25 143.1562 L180.5625 143.1562 Q172.4062 143.1562 160.3125 147.6562 L159.1875 147.6562 Q157.5 143.7188 157.5 142.5938 Q177.4688 131.9062 187.875 131.9062 ZM98.4375 141.4688 L100.6875 141.4688 L103.5 142.0312 Q101.8125 149.9062 101.8125 152.7188 Q101.8125 161.7188 108.5625 161.7188 Q114.4688 161.1562 137.8125 147.6562 L138.375 147.6562 Q140.0625 151.0312 140.0625 152.1562 Q113.625 172.6875 107.4375 175.7812 Q105.1875 176.3438 103.5 176.3438 Q91.6875 172.6875 91.6875 158.9062 Q91.6875 149.9062 98.4375 141.4688 ZM120.375 241.0312 L120.375 245.5312 Q125.7188 253.4062 133.875 253.4062 Q141.4688 253.4062 153 219.0938 Q155.8125 214.875 155.8125 212.3438 L155.8125 211.7812 L151.875 211.7812 Q139.7812 211.7812 121.5 236.5312 Q120.375 238.5 120.375 241.0312 Z" stroke="none" />
    </g>
  </g>
</svg>
