<?xml version="1.0"?>

<!DOCTYPE svg PUBLIC '-//W3C//DTD SVG 1.0//EN' 'http://www.w3.org/TR/2001/REC-SVG-20010904/DTD/svg10.dtd'>
<svg fill-opacity="1" xmlns:xlink="http://www.w3.org/1999/xlink" color-rendering="auto" color-interpolation="auto" text-rendering="auto" stroke="black" stroke-linecap="square" stroke-miterlimit="10" shape-rendering="auto" stroke-opacity="1" fill="black" stroke-dasharray="none" font-weight="normal" stroke-width="1" xmlns="http://www.w3.org/2000/svg" font-family="&apos;Dialog&apos;" font-style="normal" stroke-linejoin="miter" font-size="12" stroke-dashoffset="0" image-rendering="auto">
  <!--Unicode Character 'HENTAIGANA LETTER KA-10' (U+1B020)-->
  <defs id="genericDefs" />
  <g>
    <g>
      <path d="M143.1562 132.75 Q179.7188 140.9062 179.7188 158.0625 Q179.7188 163.9688 165.0938 166.5 Q151.5938 168.1875 147.0938 171.5625 L146.5312 172.6875 L146.5312 173.25 Q146.5312 174.375 154.9688 189.5625 Q156.375 189.5625 161.1562 188.4375 Q169.5938 190.6875 169.5938 195.75 Q169.5938 199.9688 156.6562 214.3125 L156.6562 226.125 Q156.6562 236.25 153.2812 249.1875 Q182.25 245.25 198.8438 245.25 L203.3438 245.25 Q239.9062 245.25 256.7812 266.625 Q257.9062 268.875 257.9062 270.5625 Q257.9062 273.375 254.5312 275.625 L252.2812 275.625 L224.7188 262.125 Q214.5938 258.75 203.3438 258.75 L193.7812 258.75 Q166.7812 258.75 111.0938 298.125 L108.8438 300.375 L109.9688 300.375 Q143.7188 280.6875 166.2188 280.6875 L170.1562 280.6875 Q203.3438 284.625 203.3438 311.0625 Q203.3438 336.9375 169.5938 354.9375 Q154.4062 360 141.4688 360 Q116.7188 360 112.7812 341.4375 L112.7812 339.75 Q112.7812 321.4688 140.3438 314.4375 L145.9688 313.875 Q164.25 313.875 179.7188 329.0625 L180.8438 329.0625 Q185.9062 322.3125 185.9062 313.3125 Q185.9062 288.5625 164.5312 288.5625 Q130.7812 288.5625 80.1562 334.125 Q79.875 334.125 76.7812 334.6875 Q73.4062 334.6875 72.2812 326.25 Q72.2812 315 90.2812 306 Q123.4688 279.2812 165.0938 257.625 L165.0938 257.0625 L164.5312 257.0625 Q135 257.0625 77.3438 282.9375 Q56.8125 293.0625 35.7188 308.8125 L33.4688 308.8125 Q30.0938 307.125 30.0938 301.5 Q30.0938 286.3125 40.2188 281.8125 Q44.4375 281.8125 111.6562 230.625 Q139.7812 210.9375 142.5938 208.125 L142.5938 203.0625 L142.0312 203.0625 Q135 203.0625 103.7812 218.8125 Q97.875 223.875 95.3438 223.875 Q80.4375 223.875 72.2812 198 L75.6562 195.75 L76.2188 195.75 Q86.3438 207 93.6562 207 L99.2812 207 Q113.0625 203.625 142.5938 192.9375 Q142.5938 185.3438 137.5312 170.4375 Q137.5312 165.9375 155.5312 159.75 Q160.0312 156.0938 160.0312 153 L160.0312 152.4375 Q160.0312 145.125 139.7812 137.25 L139.7812 136.125 Q141.4688 132.75 143.1562 132.75 ZM129.6562 229.5 L129.6562 230.625 L139.7812 237.9375 L140.9062 237.9375 Q142.0312 231.75 142.0312 223.875 L142.0312 222.75 L140.3438 222.75 Q130.7812 229.5 129.6562 229.5 ZM54.8438 283.5 L55.4062 283.5 Q97.3125 262.125 127.4062 254.8125 Q138.6562 252 138.6562 250.875 L138.6562 250.3125 Q127.6875 234 122.9062 234 Q76.7812 264.9375 54.8438 282.9375 L54.8438 283.5 ZM127.4062 337.5 L127.4062 341.4375 Q127.4062 351.5625 142.0312 351.5625 Q158.9062 351.5625 174.6562 337.5 L174.6562 335.8125 Q162.8438 325.125 148.7812 325.125 Q132.75 325.125 127.9688 334.125 L127.4062 337.5 Z" stroke="none" />
    </g>
  </g>
</svg>
