<?xml version="1.0"?>

<!DOCTYPE svg PUBLIC '-//W3C//DTD SVG 1.0//EN' 'http://www.w3.org/TR/2001/REC-SVG-20010904/DTD/svg10.dtd'>
<svg fill-opacity="1" xmlns:xlink="http://www.w3.org/1999/xlink" color-rendering="auto" color-interpolation="auto" text-rendering="auto" stroke="black" stroke-linecap="square" stroke-miterlimit="10" shape-rendering="auto" stroke-opacity="1" fill="black" stroke-dasharray="none" font-weight="normal" stroke-width="1" xmlns="http://www.w3.org/2000/svg" font-family="&apos;Dialog&apos;" font-style="normal" stroke-linejoin="miter" font-size="12" stroke-dashoffset="0" image-rendering="auto">
  <!--Unicode Character 'HENTAIGANA LETTER O-3' (U+1B016)-->
  <defs id="genericDefs" />
  <g>
    <g>
      <path d="M206.7188 136.4062 Q220.7812 139.7812 220.7812 145.9688 Q220.7812 150.75 196.5938 162.8438 Q171.5625 179.7188 170.1562 181.9688 Q170.7188 181.9688 170.7188 182.5312 Q185.9062 177.4688 196.5938 177.4688 Q207.8438 178.5938 207.8438 187.0312 Q207.8438 194.0625 176.9062 212.3438 L176.9062 213.4688 Q194.625 207.2812 203.9062 207.2812 Q227.25 207.2812 235.4062 225.8438 Q237.6562 231.4688 237.6562 235.9688 L237.6562 241.0312 Q237.6562 277.5938 191.5312 294.4688 Q176.9062 295.5938 159.4688 310.7812 Q153.8438 317.25 153.8438 321.4688 L153.8438 323.1562 Q153.8438 336.0938 187.0312 336.0938 Q204.4688 336.0938 232.5938 331.0312 L233.7188 331.0312 Q241.5938 332.1562 241.5938 337.2188 L241.5938 338.3438 Q241.5938 351.2812 192.6562 351.2812 Q153.2812 351.2812 144.8438 331.0312 Q143.7188 325.9688 143.7188 323.7188 Q143.7188 311.3438 162.8438 298.9688 L162.8438 298.4062 L162.2812 298.4062 Q137.5312 298.4062 137.5312 280.9688 Q137.5312 264.375 172.9688 252.8438 Q178.5938 252.2812 181.4062 252.2812 L183.0938 252.2812 Q200.5312 253.6875 200.5312 267.4688 L200.5312 268.0312 Q200.5312 273.375 193.2188 283.2188 L193.7812 283.2188 Q207.8438 277.3125 215.1562 260.1562 Q219.0938 251.1562 219.0938 238.2188 L219.0938 237.6562 Q219.0938 223.0312 211.7812 217.9688 Q205.5938 215.7188 198.8438 215.7188 L196.5938 215.7188 Q183.0938 215.7188 135.2812 242.7188 Q134.4375 243.2812 132.4688 243.2812 L131.3438 243.2812 Q129.0938 242.4375 129.0938 238.2188 Q130.2188 225.8438 139.7812 225.8438 Q161.7188 218.8125 178.0312 202.7812 Q192.0938 189.8438 192.0938 185.9062 L192.0938 185.3438 Q192.0938 184.2188 190.9688 184.2188 L187.5938 184.2188 Q183.9375 184.2188 157.7812 196.0312 Q153 196.0312 151.0312 188.1562 Q151.0312 183.9375 172.4062 171.8438 Q185.3438 162 192.0938 153.2812 L190.9688 152.7188 Q181.125 155.5312 170.7188 155.5312 L163.4062 155.5312 Q150.1875 155.5312 142.5938 145.4062 Q145.4062 142.3125 145.4062 142.0312 Q150.1875 145.4062 160.0312 145.4062 L162.2812 145.4062 Q182.25 145.4062 205.0312 136.4062 L206.7188 136.4062 ZM107.7188 140.3438 Q121.7812 144.2812 121.7812 152.1562 Q121.7812 156.0938 106.5938 166.7812 Q95.3438 180.5625 95.3438 186.4688 Q95.3438 187.5938 106.5938 206.1562 Q109.4062 215.7188 109.4062 221.9062 Q107.4375 233.1562 99.2812 233.1562 L99.2812 233.7188 Q96.1875 233.7188 81.2812 221.3438 Q79.3125 220.2188 77.9062 220.2188 L75.0938 220.2188 Q67.5 220.2188 66.0938 297.2812 Q67.2188 331.5938 70.0312 345.0938 Q70.0312 352.6875 61.5938 356.3438 Q50.9062 356.3438 50.9062 308.5312 Q50.9062 266.625 60.4688 223.0312 Q66.0938 209.5312 75.0938 209.5312 Q76.7812 209.5312 89.1562 216.8438 L91.4062 216.8438 Q93.6562 216 93.6562 211.7812 Q93.6562 204.75 86.9062 187.0312 Q86.9062 184.5 86.3438 183.6562 Q86.3438 177.4688 95.9062 158.9062 L94.7812 158.9062 Q74.5312 174.0938 65.5312 174.0938 Q54.2812 174.0938 48.0938 157.2188 Q46.4062 151.3125 46.4062 145.9688 Q46.9688 142.0312 51.4688 142.0312 Q59.0625 157.7812 66.6562 157.7812 L72.8438 157.7812 Q82.9688 157.7812 102.6562 142.0312 L107.7188 140.3438 ZM146.5312 282.0938 Q146.5312 290.5312 162.8438 290.5312 Q178.0312 290.5312 180.8438 284.9062 Q184.7812 278.7188 184.7812 274.7812 L184.7812 268.0312 Q184.7812 264.6562 175.7812 264.0938 Q155.5312 264.0938 147.0938 279.2812 Q146.5312 280.125 146.5312 282.0938 Z" stroke="none" />
    </g>
  </g>
</svg>
