<?xml version="1.0" encoding="UTF-8" standalone="no"?>
<svg
   xmlns:dc="http://purl.org/dc/elements/1.1/"
   xmlns:cc="http://creativecommons.org/ns#"
   xmlns:rdf="http://www.w3.org/1999/02/22-rdf-syntax-ns#"
   xmlns:svg="http://www.w3.org/2000/svg"
   xmlns="http://www.w3.org/2000/svg"
   xmlns:sodipodi="http://sodipodi.sourceforge.net/DTD/sodipodi-0.dtd"
   xmlns:inkscape="http://www.inkscape.org/namespaces/inkscape"
   fill-opacity="1"
   color-rendering="auto"
   color-interpolation="auto"
   text-rendering="auto"
   stroke="black"
   stroke-linecap="square"
   stroke-miterlimit="10"
   shape-rendering="auto"
   stroke-opacity="1"
   fill="black"
   stroke-dasharray="none"
   font-weight="normal"
   stroke-width="1"
   font-family="'Dialog'"
   font-style="normal"
   stroke-linejoin="miter"
   font-size="12"
   stroke-dashoffset="0"
   image-rendering="auto"
   version="1.1"
   id="svg9"
   sodipodi:docname="hentaigana_letter_e2.svg"
   inkscape:version="0.92.4 (5da689c313, 2019-01-14)">
  <metadata
     id="metadata13">
    <rdf:RDF>
      <cc:Work
         rdf:about="">
        <dc:format>image/svg+xml</dc:format>
        <dc:type
           rdf:resource="http://purl.org/dc/dcmitype/StillImage" />
      </cc:Work>
    </rdf:RDF>
  </metadata>
  <sodipodi:namedview
     pagecolor="#ffffff"
     bordercolor="#666666"
     borderopacity="1"
     objecttolerance="10"
     gridtolerance="10"
     guidetolerance="10"
     inkscape:pageopacity="0"
     inkscape:pageshadow="2"
     inkscape:window-width="1920"
     inkscape:window-height="986"
     id="namedview11"
     showgrid="false"
     inkscape:zoom="2.36"
     inkscape:cx="50"
     inkscape:cy="50"
     inkscape:window-x="-11"
     inkscape:window-y="-11"
     inkscape:window-maximized="1"
     inkscape:current-layer="svg9" />
  <!--Unicode Character 'HENTAIGANA LETTER E-2' (U+1B00F)-->
  <defs
     id="genericDefs" />
  <g
     id="g7"
     transform="matrix(0.457706,0,0,0.44116436,-15.765596,-58.503317)">
    <g
       id="g5">
      <path
         d="m 170.4375,134.1562 q 15.1875,4.7813 15.1875,11.8126 0,2.5312 -18,25.875 v 2.25 q 0,1.4062 18,5.625 23.625,9.8437 23.625,34.875 0,28.9687 -41.0625,42.1874 -22.5,2.8126 -22.5,5.0626 -25.0313,16.5937 -52.875,29.8124 v 0.5626 H 94.5 q 9,-2.5313 43.875,-15.1876 62.4375,-20.25 86.0625,-20.25 21.6563,1.4063 27,18 v 2.25 q 0,11.8126 -44.4375,17.4376 -76.5,18.5624 -76.5,32.625 v 4.5 q 3.9375,12.375 33.75,12.375 h 4.5 q 4.5,0 15.1875,-1.125 7.3125,0 7.875,8.4374 0,6.1876 -20.25,7.3126 h -7.875 q -37.125,-1.125 -43.875,-21.375 -0.5625,-3.0938 -0.5625,-5.0626 0,-26.4374 92.25,-48.375 21.9375,-6.75 21.9375,-10.125 0,-5.625 -9.5625,-7.3124 h -6.75 q -29.5312,0 -105.1875,30.9374 -30.6563,18 -37.125,18 -1.125,0 -6.1875,0.5626 -15.1875,0 -32.0625,-17.4376 0,-0.8437 3.9375,-5.0624 5.9062,4.5 16.3125,4.5 h 2.8125 q 13.5,0 39.9375,-16.3126 18.8437,-10.9687 34.875,-22.5 v -1.6874 q -9.2813,-2.25 -15.75,-6.1876 -19.9687,12.375 -41.625,12.375 -15.1875,-2.25 -15.1875,-15.1874 0,-15.4688 33.75,-33.75 0,-14.0626 14.625,-32.0626 11.8125,-10.125 21.375,-10.125 h 1.125 q 18.5625,1.4063 18.5625,18.5626 v 7.875 q 1.125,0.8437 12.9375,3.9374 10.6875,7.3126 10.6875,18.5626 0,10.9687 -11.25,26.4374 0.5625,0 0.5625,0.5626 27.5625,-11.5313 27.5625,-32.0626 v -3.9374 q 0,-18 -10.125,-23.625 -5.3437,-3.6563 -20.25,-9 -2.25,-2.25 -2.25,-5.625 7.3125,-20.5313 7.3125,-25.875 -0.8438,-2.25 -1.6875,-2.25 H 164.25 q -47.8125,21.375 -57.375,21.375 -12.375,0 -20.25,-21.9376 v -1.125 q 0,-0.8437 4.5,-3.375 h 0.5625 q 7.5937,11.25 14.625,11.25 H 112.5 q 14.625,0 48.9375,-14.0624 4.7813,-3.9376 9,-3.9376 z m -64.6875,75.375 q 18.5625,-6.1874 30.375,-9 v -8.4374 q 0,-9.5626 -7.3125,-9.5626 H 126 q -12.6562,0 -20.25,24.1876 z m 43.3125,0 q -2.5313,13.7813 -20.25,33.1876 -0.8437,0 -1.6875,1.6874 v 1.125 q 9.8438,3.9376 16.875,3.9376 8.4375,-4.5 14.625,-23.625 v -7.3126 q -1.125,-9 -9,-9 z m -43.3125,9.5626 v 1.125 q 0,8.4374 11.25,18.5624 h 0.5625 q 8.7187,-5.0624 16.3125,-27 v -1.6874 h -0.5625 q -9,0 -27.5625,9 z M 72,246.6562 v 1.6876 q 0.8438,7.3124 5.625,7.3124 h 4.5 q 14.9062,0 27.5625,-9.5624 v -1.125 Q 99,234 96.1875,223.0312 H 95.625 Q 72,235.4062 72,246.6562 Z"
         id="path3"
         inkscape:connector-curvature="0"
         style="stroke:none" />
    </g>
  </g>
</svg>
