<?xml version="1.0"?>

<!DOCTYPE svg PUBLIC '-//W3C//DTD SVG 1.0//EN' 'http://www.w3.org/TR/2001/REC-SVG-20010904/DTD/svg10.dtd'>
<svg fill-opacity="1" xmlns:xlink="http://www.w3.org/1999/xlink" color-rendering="auto" color-interpolation="auto" text-rendering="auto" stroke="black" stroke-linecap="square" stroke-miterlimit="10" shape-rendering="auto" stroke-opacity="1" fill="black" stroke-dasharray="none" font-weight="normal" stroke-width="1" xmlns="http://www.w3.org/2000/svg" font-family="&apos;Dialog&apos;" font-style="normal" stroke-linejoin="miter" font-size="12" stroke-dashoffset="0" image-rendering="auto">
  <!--Unicode Character 'HENTAIGANA LETTER A-3' (U+1B004)-->
  <defs id="genericDefs" />
  <g>
    <g>
      <path d="M156.0938 135.5625 Q163.125 148.5 185.3438 156.9375 Q192.9375 159.75 217.4062 162 Q223.5938 166.2188 223.5938 169.3125 Q223.5938 177.75 212.3438 177.75 Q185.9062 177.75 161.1562 154.6875 Q150.1875 143.1562 149.9062 138.9375 Q154.125 135.5625 156.0938 135.5625 ZM54.2812 142.875 Q59.9062 155.8125 73.9688 155.8125 L76.7812 155.8125 Q77.9062 155.8125 90.2812 151.3125 Q100.9688 155.8125 100.9688 161.4375 Q100.9688 162.8438 89.1562 182.25 Q69.4688 223.0312 69.4688 275.625 L69.4688 276.1875 Q69.4688 291.375 72.2812 321.75 Q72.2812 329.625 66.0938 331.875 Q56.5312 331.875 54.8438 306 L54.8438 300.375 Q54.8438 233.1562 79.0312 168.1875 L78.4688 168.1875 Q74.5312 168.75 72.2812 168.75 Q57.0938 168.75 48.6562 146.8125 Q51.1875 142.875 54.2812 142.875 ZM181.9688 224.4375 Q223.5938 224.4375 237.6562 255.9375 Q239.3438 265.2188 239.3438 267.75 L239.3438 269.4375 Q239.3438 322.875 140.9062 357.1875 Q139.5 355.5 136.4062 351 L136.4062 349.3125 Q221.9062 317.8125 221.9062 268.875 Q221.9062 233.4375 180.8438 233.4375 Q178.0312 248.0625 171.8438 261 Q152.4375 289.125 135.8438 289.125 Q128.8125 289.125 121.2188 266.625 Q113.9062 256.5 113.9062 252 Q113.9062 237.375 160.5938 226.125 Q168.75 225 181.9688 224.4375 ZM128.5312 258.1875 Q130.2188 273.9375 139.7812 273.9375 L140.9062 273.9375 Q151.5938 273.9375 166.2188 248.625 Q170.1562 237.0938 170.1562 234 L169.5938 234 Q146.5312 237.9375 134.1562 248.625 Q128.5312 253.6875 128.5312 258.1875 Z" stroke="none" />
    </g>
  </g>
</svg>
