<?xml version="1.0"?>

<!DOCTYPE svg PUBLIC '-//W3C//DTD SVG 1.0//EN' 'http://www.w3.org/TR/2001/REC-SVG-20010904/DTD/svg10.dtd'>
<svg fill-opacity="1" xmlns:xlink="http://www.w3.org/1999/xlink" color-rendering="auto" color-interpolation="auto" text-rendering="auto" stroke="black" stroke-linecap="square" stroke-miterlimit="10" shape-rendering="auto" stroke-opacity="1" fill="black" stroke-dasharray="none" font-weight="normal" stroke-width="1" xmlns="http://www.w3.org/2000/svg" font-family="&apos;Dialog&apos;" font-style="normal" stroke-linejoin="miter" font-size="12" stroke-dashoffset="0" image-rendering="auto">
  <!--Unicode Character 'HENTAIGANA LETTER SU-5' (U+1B04E)-->
  <defs id="genericDefs" />
  <g>
    <g>
      <path d="M132.4688 128.25 Q160.5938 133.5938 160.5938 146.25 Q158.9062 156.6562 158.9062 165.375 Q160.875 165.375 182.5312 154.6875 Q195.4688 156.375 195.4688 162.5625 Q195.4688 169.3125 157.2188 178.875 L157.2188 195.1875 L161.7188 195.1875 Q178.875 195.1875 180.8438 205.875 Q180.8438 215.1562 156.6562 230.0625 L156.6562 230.625 Q156.6562 237.6562 157.2188 248.0625 Q157.2188 254.8125 148.2188 258.75 Q145.6875 258.75 129.6562 248.625 Q127.6875 247.5 126.2812 247.5 Q120.375 250.5938 69.4688 282.375 L68.9062 283.5 L70.0312 283.5 Q102.9375 277.3125 156.6562 269.4375 Q188.4375 235.6875 197.7188 235.6875 Q202.2188 235.6875 212.3438 247.5 Q219.6562 253.6875 237.6562 263.25 Q240.4688 265.7812 240.4688 270 Q240.4688 275.9062 231.4688 277.3125 Q201.0938 276.75 194.9062 276.75 Q163.9688 276.75 163.9688 281.25 Q155.8125 287.7188 129.0938 317.25 L129.0938 318.375 L129.6562 318.375 Q164.25 309.9375 180.2812 309.9375 L185.3438 309.9375 Q208.6875 309.9375 215.1562 326.8125 Q216.2812 329.0625 216.2812 333 Q216.2812 356.0625 161.7188 364.5 L156.6562 364.5 Q154.4062 361.125 154.4062 360 Q199.4062 349.5938 199.4062 333 L199.4062 329.625 Q197.7188 318.375 185.3438 318.375 Q182.5312 317.8125 181.9688 317.8125 Q153 317.8125 122.3438 338.0625 Q120.375 338.625 120.0938 338.625 Q110.5312 333.5625 110.5312 327.9375 Q110.5312 325.9688 124.5938 311.0625 Q133.0312 299.25 148.7812 281.8125 L148.7812 280.6875 L148.2188 280.6875 Q92.8125 286.875 58.2188 302.625 L55.9688 302.625 Q47.5312 296.1562 47.5312 289.125 Q47.5312 280.125 72.8438 271.125 Q105.4688 254.5312 119.5312 243.5625 L119.5312 243 Q100.4062 230.3438 100.4062 224.4375 Q100.4062 211.7812 144.8438 195.75 L144.8438 180.5625 Q137.25 181.125 134.1562 181.125 Q110.8125 181.125 100.4062 163.125 Q100.4062 162.2812 103.7812 159.75 Q111.9375 168.75 128.5312 168.75 L138.6562 168.75 L145.4062 168.1875 L145.4062 153.5625 Q145.4062 141.1875 129.6562 133.875 Q129.6562 131.3438 132.4688 128.25 ZM157.2188 203.625 L157.2188 220.5 L158.3438 220.5 Q166.7812 214.875 166.7812 210.9375 L166.7812 207 Q165.0938 203.625 160.5938 203.625 L157.2188 203.625 ZM114.4688 230.0625 Q117.5625 235.6875 126.2812 238.5 Q144 228.6562 144.8438 226.6875 L144.8438 206.4375 L144.2812 206.4375 Q135.5625 206.4375 117.2812 222.1875 Q114.4688 225.8438 114.4688 230.0625 ZM134.1562 240.75 L134.1562 241.875 Q140.9062 244.125 142.5938 244.125 L144.2812 244.125 L144.2812 234.5625 Q141.4688 234.5625 134.1562 240.75 ZM173.5312 267.75 L173.5312 268.875 Q204.75 266.0625 220.7812 266.0625 L220.7812 264.9375 Q205.5938 248.0625 199.4062 248.0625 Q192.6562 248.0625 173.5312 267.75 Z" stroke="none" />
    </g>
  </g>
</svg>
