<?xml version="1.0"?>

<!DOCTYPE svg PUBLIC '-//W3C//DTD SVG 1.0//EN' 'http://www.w3.org/TR/2001/REC-SVG-20010904/DTD/svg10.dtd'>
<svg fill-opacity="1" xmlns:xlink="http://www.w3.org/1999/xlink" color-rendering="auto" color-interpolation="auto" text-rendering="auto" stroke="black" stroke-linecap="square" stroke-miterlimit="10" shape-rendering="auto" stroke-opacity="1" fill="black" stroke-dasharray="none" font-weight="normal" stroke-width="1" xmlns="http://www.w3.org/2000/svg" font-family="&apos;Dialog&apos;" font-style="normal" stroke-linejoin="miter" font-size="12" stroke-dashoffset="0" image-rendering="auto">
  <!--Unicode Character 'HENTAIGANA LETTER HE-5' (U+1B0B7)-->
  <defs id="genericDefs" />
  <g>
    <g>
      <path d="M126.2812 129.9375 Q138.6562 134.7188 138.6562 142.3125 Q138.6562 149.3438 123.4688 166.5 L124.5938 166.5 Q132.4688 163.4062 150.4688 154.6875 Q151.5938 154.125 152.7188 154.125 Q156.9375 154.125 162.2812 163.125 L162.2812 164.25 Q162.2812 167.9062 130.2188 204.1875 L130.2188 204.75 L130.7812 204.75 Q167.3438 185.0625 183.6562 185.0625 Q208.9688 188.4375 208.9688 209.25 Q208.9688 230.0625 180.2812 237.9375 L172.9688 239.0625 Q171 239.0625 160.5938 236.8125 Q157.7812 246.6562 157.7812 249.75 L157.7812 251.4375 Q158.0625 252.5625 158.9062 252.5625 L159.4688 252.5625 Q174.9375 250.3125 179.1562 250.3125 Q206.1562 250.3125 214.5938 274.5 Q215.7188 277.875 216.2812 284.625 Q216.2812 312.1875 185.3438 329.625 Q170.4375 335.8125 156.0938 335.8125 Q125.7188 335.8125 109.4062 312.1875 Q99.8438 312.75 98.1562 312.75 Q89.1562 312.75 67.7812 311.0625 Q57.0938 311.0625 57.0938 318.9375 L57.0938 319.5 Q57.0938 349.3125 148.7812 349.3125 L154.4062 349.3125 Q184.2188 349.3125 233.1562 342 Q240.4688 342.8438 240.4688 349.3125 Q240.4688 358.875 206.1562 361.125 Q193.2188 362.25 156.0938 362.8125 Q73.9688 362.8125 52.0312 334.6875 Q47.5312 328.5 47.5312 320.0625 Q47.5312 305.4375 66.0938 302.625 Q86.0625 303.75 89.7188 303.75 Q100.9688 303.1875 104.9062 303.1875 L105.4688 302.0625 Q104.3438 296.7188 104.3438 293.625 Q104.3438 280.4062 121.2188 274.5 Q125.4375 272.8125 132.4688 272.8125 L135.8438 272.8125 Q159.4688 275.0625 159.4688 289.6875 Q159.4688 304.875 121.7812 311.0625 Q131.9062 324 151.5938 324 L158.9062 324 Q187.3125 324 197.7188 292.5 L198.2812 283.5 Q195.75 259.875 183.0938 259.875 Q183.0938 259.3125 180.2812 259.3125 Q166.7812 259.3125 153.8438 266.0625 Q142.5938 263.25 142.5938 257.625 Q147.0938 238.7812 147.0938 230.0625 L147.0938 227.8125 Q144.2812 223.3125 139.7812 223.3125 Q139.7812 222.1875 141.4688 218.25 L145.4062 218.25 Q162.2812 218.25 162.2812 231.75 L166.7812 231.75 Q184.2188 231.75 190.9688 216 Q192.0938 210.375 192.0938 208.125 Q192.0938 195.75 179.7188 195.75 Q149.9062 195.75 115.5938 227.25 Q104.625 240.75 100.4062 240.75 Q95.3438 240.75 95.3438 230.0625 Q95.3438 223.5938 111.0938 214.3125 Q135 185.3438 142.0312 169.3125 L142.0312 168.1875 Q136.4062 168.1875 107.1562 190.125 L104.9062 190.125 Q102.0938 190.125 100.4062 179.4375 Q100.4062 173.8125 115.0312 162 Q126.8438 147.0938 126.8438 144 L126.8438 140.0625 Q126.8438 137.25 122.9062 133.875 L122.9062 132.75 Q124.5938 129.9375 126.2812 129.9375 ZM113.3438 293.0625 Q113.3438 296.4375 115.0312 301.5 L115.5938 301.5 Q136.4062 301.5 144.8438 290.8125 L144.8438 286.875 Q144.8438 280.125 134.1562 280.125 L130.2188 280.125 Q115.875 280.125 113.3438 290.25 L113.3438 293.0625 Z" stroke="none" />
    </g>
  </g>
</svg>
