<?xml version="1.0"?>

<!DOCTYPE svg PUBLIC '-//W3C//DTD SVG 1.0//EN' 'http://www.w3.org/TR/2001/REC-SVG-20010904/DTD/svg10.dtd'>
<svg fill-opacity="1" xmlns:xlink="http://www.w3.org/1999/xlink" color-rendering="auto" color-interpolation="auto" text-rendering="auto" stroke="black" stroke-linecap="square" stroke-miterlimit="10" shape-rendering="auto" stroke-opacity="1" fill="black" stroke-dasharray="none" font-weight="normal" stroke-width="1" xmlns="http://www.w3.org/2000/svg" font-family="&apos;Dialog&apos;" font-style="normal" stroke-linejoin="miter" font-size="12" stroke-dashoffset="0" image-rendering="auto">
  <!--Unicode Character 'HENTAIGANA LETTER NE-6' (U+1B097)-->
  <defs id="genericDefs" />
  <g>
    <g>
      <path d="M83.8125 135.8438 L84.375 135.8438 Q91.125 150.4688 101.8125 154.4062 Q114.75 156.375 114.75 165.6562 L114.75 166.2188 Q114.75 172.9688 103.5 172.9688 L99.5625 172.9688 Q95.9062 172.9688 81.5625 183.6562 Q79.0312 182.8125 77.625 180.2812 Q90.5625 169.0312 90.5625 165.6562 Q79.875 152.7188 79.875 139.2188 Q79.875 138.0938 83.8125 135.8438 ZM164.8125 142.0312 Q189.5625 147.9375 189.5625 156.6562 L189.5625 157.7812 Q186.1875 173.25 162.5625 206.1562 L162.5625 207.8438 Q167.0625 207.8438 190.6875 193.7812 Q191.8125 193.7812 191.8125 193.2188 Q202.5 196.3125 202.5 201.6562 Q196.875 214.0312 196.875 225.8438 L196.875 260.7188 Q196.875 311.9062 199.125 339.4688 Q199.125 351.5625 190.125 356.3438 Q189.5625 356.3438 188.4375 356.9062 Q182.5312 356.9062 178.875 342.8438 Q165.6562 329.625 152.4375 321.4688 Q152.4375 318.6562 155.25 316.4062 L181.6875 329.3438 Q182.8125 329.9062 183.9375 329.9062 Q183.375 324.8438 182.8125 289.4062 Q183.375 235.9688 183.375 215.1562 Q183.9375 212.0625 183.9375 210.6562 Q174.0938 212.9062 152.4375 228.6562 L151.3125 228.6562 Q147.0938 228.6562 146.25 217.9688 Q146.25 211.7812 158.625 194.3438 Q173.25 165.0938 173.25 157.7812 Q173.25 151.5938 161.4375 147.6562 L161.4375 147.0938 Q161.4375 143.7188 164.8125 142.0312 ZM90 206.7188 Q102.375 209.25 102.375 216.2812 Q97.3125 233.4375 97.3125 257.3438 L98.4375 257.3438 Q110.5312 244.125 125.4375 225.2812 Q128.5312 227.5312 129.9375 230.3438 Q119.8125 245.5312 96.75 274.2188 L96.75 293.3438 Q96.75 303.1875 98.4375 336.0938 Q96.4688 354.6562 86.625 354.6562 Q81.8438 354.6562 78.1875 337.2188 Q74.8125 328.5 62.4375 313.0312 Q45.5625 328.7812 44.4375 328.7812 Q43.5938 329.3438 42.1875 329.3438 Q36.8438 329.3438 34.875 313.0312 L34.875 311.9062 Q34.875 309.375 45 298.9688 Q66.6562 270.8438 86.0625 230.9062 Q86.625 227.25 86.625 223.5938 L86.625 219.0938 L86.0625 219.0938 Q76.7812 222.75 54 235.9688 Q52.3125 235.9688 52.3125 236.5312 Q43.5938 236.5312 38.8125 215.7188 L43.3125 212.3438 Q47.8125 219.6562 53.4375 219.6562 L54.5625 219.6562 Q64.125 219.6562 90 206.7188 ZM54 302.9062 Q62.4375 298.125 85.5 271.9688 L85.5 264.6562 Q85.5 259.875 86.0625 250.5938 L85.5 250.5938 Q72.8438 272.25 54 302.3438 L54 302.9062 ZM211.5 264.6562 Q240.75 264.6562 252 295.5938 Q253.125 300.9375 253.125 304.0312 L253.125 304.5938 Q253.125 316.4062 244.125 316.4062 Q236.25 316.4062 236.25 301.2188 Q232.5938 285.4688 221.625 275.9062 L209.25 269.7188 L209.25 269.1562 Q209.25 266.9062 211.5 264.6562 ZM133.875 274.7812 Q137.8125 276.4688 137.8125 278.1562 Q132.75 286.875 132.75 292.7812 L132.75 297.2812 L133.3125 300.0938 L135.5625 300.0938 Q150.4688 291.375 169.3125 275.9062 L171 275.9062 Q173.25 280.125 173.25 280.9688 Q144 307.9688 135 319.7812 Q135 321.1875 129.9375 322.5938 Q120.6562 322.5938 118.6875 304.0312 Q118.6875 291.0938 133.875 274.7812 ZM67.5 309.0938 L83.8125 327.6562 L84.9375 327.6562 L84.9375 327.0938 Q85.5 293.625 85.5 288.2812 L84.375 288.2812 Q67.5 306.5625 67.5 309.0938 Z" stroke="none" />
    </g>
  </g>
</svg>
