<?xml version="1.0"?>

<!DOCTYPE svg PUBLIC '-//W3C//DTD SVG 1.0//EN' 'http://www.w3.org/TR/2001/REC-SVG-20010904/DTD/svg10.dtd'>
<svg fill-opacity="1" xmlns:xlink="http://www.w3.org/1999/xlink" color-rendering="auto" color-interpolation="auto" text-rendering="auto" stroke="black" stroke-linecap="square" stroke-miterlimit="10" shape-rendering="auto" stroke-opacity="1" fill="black" stroke-dasharray="none" font-weight="normal" stroke-width="1" xmlns="http://www.w3.org/2000/svg" font-family="&apos;Dialog&apos;" font-style="normal" stroke-linejoin="miter" font-size="12" stroke-dashoffset="0" image-rendering="auto">
  <!--Unicode Character 'HENTAIGANA LETTER HE-6' (U+1B0B8)-->
  <defs id="genericDefs" />
  <g>
    <g>
      <path d="M46.6875 140.3438 Q88.3125 156.375 88.3125 176.9062 Q86.9062 185.9062 79.3125 185.9062 Q74.25 185.9062 66.9375 167.9062 Q54 152.1562 42.1875 145.9688 Q44.1562 142.3125 46.6875 140.3438 ZM198.5625 171.8438 L201.9375 171.8438 Q233.1562 171.8438 241.3125 193.7812 Q243 199.125 244.125 210.0938 Q244.125 271.4062 212.0625 302.3438 Q203.3438 309.0938 199.125 309.0938 Q192.375 309.0938 182.25 292.2188 Q178.0312 287.1562 163.125 274.7812 Q165.0938 271.4062 167.0625 270.2812 L168.1875 270.2812 Q198 289.9688 199.6875 289.9688 L200.8125 289.9688 Q208.9688 289.9688 221.625 253.9688 Q226.6875 234.5625 226.6875 213.4688 L226.6875 210.0938 Q226.6875 190.9688 217.6875 184.7812 Q209.8125 180.8438 197.4375 180.8438 Q182.5312 180.8438 162.5625 187.0312 L162.5625 187.5938 Q172.125 195.75 172.125 203.9062 Q172.125 226.6875 142.875 266.3438 Q118.125 293.3438 99 293.3438 Q87.1875 293.3438 87.1875 278.1562 Q91.6875 258.75 95.625 209.5312 Q95.625 202.5 119.8125 190.4062 Q167.3438 171.8438 198.5625 171.8438 ZM98.4375 270.8438 L98.4375 274.7812 Q98.4375 279.2812 104.0625 279.2812 L108 279.2812 Q128.5312 271.9688 146.8125 237.6562 Q156.375 214.3125 156.375 201.6562 Q155.25 190.4062 151.875 190.4062 Q123.4688 200.25 111.375 209.5312 Q105.1875 215.4375 103.5 226.9688 Q98.4375 255.0938 98.4375 270.8438 ZM39.375 201.0938 Q45 218.5312 61.875 228.6562 Q65.8125 232.0312 65.8125 237.6562 Q65.8125 240.75 54.5625 265.2188 Q49.5 278.7188 49.5 288.2812 L49.5 298.4062 Q49.5 322.875 84.375 331.0312 Q113.3438 337.2188 162 337.2188 Q199.125 337.2188 242.4375 327.0938 Q254.8125 329.9062 254.8125 334.9688 Q254.8125 346.5 202.5 350.7188 Q183.9375 352.4062 153 352.4062 Q98.1562 352.4062 60.75 337.2188 Q39.9375 324.8438 39.9375 293.9062 Q39.9375 279.5625 48.375 244.4062 L48.375 241.0312 Q48.375 236.8125 38.25 220.7812 Q36.5625 218.5312 33.1875 205.5938 Q35.1562 201.0938 39.375 201.0938 Z" stroke="none" />
    </g>
  </g>
</svg>
