<?xml version="1.0"?>

<!DOCTYPE svg PUBLIC '-//W3C//DTD SVG 1.0//EN' 'http://www.w3.org/TR/2001/REC-SVG-20010904/DTD/svg10.dtd'>
<svg fill-opacity="1" xmlns:xlink="http://www.w3.org/1999/xlink" color-rendering="auto" color-interpolation="auto" text-rendering="auto" stroke="black" stroke-linecap="square" stroke-miterlimit="10" shape-rendering="auto" stroke-opacity="1" fill="black" stroke-dasharray="none" font-weight="normal" stroke-width="1" xmlns="http://www.w3.org/2000/svg" font-family="&apos;Dialog&apos;" font-style="normal" stroke-linejoin="miter" font-size="12" stroke-dashoffset="0" image-rendering="auto">
  <!--Unicode Character 'HENTAIGANA LETTER KE-4' (U+1B035)-->
  <defs id="genericDefs" />
  <g>
    <g>
      <path d="M105.1875 129.0938 Q119.25 143.1562 146.25 143.1562 L150.75 143.1562 Q153.2812 143.1562 167.625 142.0312 Q173.8125 142.0312 176.625 149.3438 Q176.625 158.0625 157.5 159.4688 L156.375 159.4688 Q128.5312 159.4688 109.6875 143.1562 Q101.8125 133.875 101.8125 131.9062 L105.1875 129.0938 ZM97.875 158.9062 Q100.125 161.1562 100.125 162.2812 Q97.875 165.6562 97.875 167.3438 L97.875 169.5938 Q97.875 175.7812 104.0625 175.7812 L110.8125 175.7812 Q121.2188 175.7812 130.5 173.5312 Q138.0938 173.5312 142.875 185.3438 Q141.4688 189 124.875 196.0312 Q99 211.7812 87.75 220.2188 L87.75 220.7812 L88.3125 220.7812 Q142.0312 199.9688 181.125 199.9688 L188.4375 199.9688 Q238.7812 202.7812 243.5625 219.6562 Q243.5625 233.7188 213.75 239.3438 Q213.75 240.1875 193.5 244.4062 L194.0625 249.4688 Q194.0625 263.5312 157.5 273.6562 L157.5 282.0938 Q158.0625 282.0938 162 281.5312 Q171.5625 281.5312 172.6875 287.7188 Q172.4062 292.2188 156.375 301.7812 L156.375 305.7188 Q212.625 317.8125 212.625 338.9062 Q212.625 344.5312 205.875 344.5312 Q202.7812 344.5312 181.125 327.0938 Q164.8125 318.6562 156.9375 318.6562 L156.375 318.6562 L156.375 319.2188 Q157.5 342.8438 157.5 344.5312 Q157.5 357.75 143.4375 363.6562 Q138.6562 363.6562 119.8125 346.7812 Q107.7188 337.5 87.75 324.2812 Q85.5 318.9375 85.5 316.9688 Q85.5 303.75 135.5625 286.0312 Q144 284.625 144 283.2188 L144 276.4688 L143.4375 276.4688 Q126.5625 278.7188 115.3125 279.2812 Q100.6875 279.2812 94.5 270.8438 Q93.375 268.875 93.375 265.7812 Q93.375 255.375 113.0625 247.7812 Q113.9062 247.7812 115.875 250.5938 L115.875 251.7188 Q106.3125 255.375 106.3125 260.1562 L106.3125 260.7188 Q106.3125 266.3438 115.875 266.3438 L121.5 266.3438 Q144 264.9375 144 262.4062 L144 259.5938 Q144 225.8438 163.6875 225.8438 Q171.5625 225.8438 188.4375 238.2188 L189.5625 238.2188 Q222.1875 230.0625 222.1875 220.7812 L222.1875 219.0938 Q222.1875 210.0938 185.0625 208.4062 L174.375 208.4062 Q126.2812 208.4062 51.1875 253.4062 L48.9375 253.9688 Q44.4375 253.9688 44.4375 241.5938 Q44.4375 232.0312 58.5 230.3438 Q63.5625 229.7812 106.3125 195.4688 Q112.5 191.8125 112.5 189.2812 L111.375 188.7188 L110.8125 188.7188 Q86.625 188.7188 86.625 172.9688 Q91.9688 158.9062 97.875 158.9062 ZM157.5 259.0312 L157.5 259.5938 Q158.625 259.5938 158.625 260.1562 Q181.6875 254.5312 181.6875 249.4688 L181.6875 248.3438 Q181.6875 239.625 167.0625 233.7188 L163.125 233.7188 Q157.5 233.7188 157.5 259.0312 ZM99.5625 319.2188 Q99.5625 327.9375 140.625 345.6562 L141.75 345.6562 Q142.875 345.6562 142.875 344.5312 L142.875 339.4688 Q142.875 331.0312 143.4375 316.9688 Q132.4688 316.9688 130.5 311.3438 Q130.5 307.125 140.0625 301.7812 Q144 299.5312 144 298.4062 L144 291.6562 L143.4375 291.6562 Q135 291.6562 109.6875 305.7188 Q99.5625 313.3125 99.5625 319.2188 Z" stroke="none" />
    </g>
  </g>
</svg>
