<?xml version="1.0"?>

<!DOCTYPE svg PUBLIC '-//W3C//DTD SVG 1.0//EN' 'http://www.w3.org/TR/2001/REC-SVG-20010904/DTD/svg10.dtd'>
<svg fill-opacity="1" xmlns:xlink="http://www.w3.org/1999/xlink" color-rendering="auto" color-interpolation="auto" text-rendering="auto" stroke="black" stroke-linecap="square" stroke-miterlimit="10" shape-rendering="auto" stroke-opacity="1" fill="black" stroke-dasharray="none" font-weight="normal" stroke-width="1" xmlns="http://www.w3.org/2000/svg" font-family="&apos;Dialog&apos;" font-style="normal" stroke-linejoin="miter" font-size="12" stroke-dashoffset="0" image-rendering="auto">
  <!--Unicode Character 'HENTAIGANA LETTER TO-2' (U+1B078)-->
  <defs id="genericDefs" />
  <g>
    <g>
      <path d="M132.1875 132.1875 Q176.0625 143.4375 176.0625 159.75 Q176.0625 165.375 167.0625 166.5 Q161.1562 165.375 159.1875 165.375 L149.625 165.375 Q140.625 165.375 120.375 168.75 L120.375 168.1875 Q118.6875 165.0938 118.6875 163.125 Q149.0625 154.4062 149.0625 152.4375 L149.0625 150.75 Q141.75 141.75 129.375 137.25 Q128.8125 137.25 128.8125 136.6875 Q130.5 133.5938 132.1875 132.1875 ZM170.4375 174.9375 Q179.7188 174.9375 183.9375 184.5 Q183.9375 189 165.9375 195.75 Q136.9688 219.375 112.5 250.3125 Q110.25 252.5625 110.25 254.8125 Q132.1875 240.75 152.4375 232.875 Q158.9062 232.875 160.3125 223.875 Q165.9375 206.4375 179.4375 206.4375 L180 206.4375 Q181.4062 206.4375 186.1875 208.125 L186.1875 208.6875 Q186.1875 214.3125 181.125 214.3125 Q175.2188 214.3125 173.8125 225.5625 L173.8125 226.6875 L174.375 226.6875 Q190.4062 224.4375 203.0625 223.875 Q229.5 225.2812 229.5 232.3125 L229.5 232.875 Q228.0938 239.0625 223.3125 239.0625 Q207.8438 236.8125 197.4375 236.8125 Q190.6875 236.8125 172.125 238.5 Q171 246.0938 171 255.9375 Q171 261 183.9375 265.5 Q195.1875 273.9375 195.1875 293.0625 Q195.1875 300.9375 190.125 313.3125 Q246.9375 336.0938 246.9375 352.125 Q245.5312 360.5625 239.0625 360.5625 Q235.6875 360.5625 218.25 343.6875 Q197.1562 328.7812 184.5 324.5625 Q159.4688 353.8125 126 353.8125 L125.4375 353.8125 Q104.9062 353.8125 100.125 338.625 Q99.5625 336.375 99.5625 334.125 Q99.5625 315.5625 135 307.6875 Q145.4062 306 154.125 306 Q159.75 306 174.9375 308.25 Q179.4375 300.6562 179.4375 288.5625 L179.4375 280.6875 Q179.4375 270.8438 171.5625 267.1875 Q156.375 264.6562 156.375 252 L156.375 242.4375 L155.8125 242.4375 Q131.3438 250.0312 104.0625 272.8125 Q73.125 308.25 54 343.6875 Q50.3438 348.75 47.25 348.75 L45.5625 348.75 Q41.0625 345.6562 41.0625 335.25 Q41.0625 326.5312 63.5625 299.25 Q101.5312 247.2188 149.625 194.0625 Q149.0625 194.0625 149.0625 193.5 Q97.875 214.3125 92.8125 214.3125 L92.25 214.3125 Q77.9062 214.3125 70.875 188.4375 Q71.1562 188.4375 76.5 186.1875 Q83.25 198 92.25 198 L96.1875 198 Q109.9688 198 151.3125 182.25 Q162.2812 174.9375 170.4375 174.9375 ZM109.125 333.5625 L109.125 334.6875 Q110.5312 343.6875 119.25 343.6875 L124.3125 343.6875 Q153.5625 343.6875 168.75 320.0625 L168.75 319.5 Q159.4688 316.6875 152.4375 316.6875 Q117.2812 316.6875 109.6875 330.1875 L109.125 333.5625 Z" stroke="none" />
    </g>
  </g>
</svg>
