<?xml version="1.0"?>

<!DOCTYPE svg PUBLIC '-//W3C//DTD SVG 1.0//EN' 'http://www.w3.org/TR/2001/REC-SVG-20010904/DTD/svg10.dtd'>
<svg fill-opacity="1" xmlns:xlink="http://www.w3.org/1999/xlink" color-rendering="auto" color-interpolation="auto" text-rendering="auto" stroke="black" stroke-linecap="square" stroke-miterlimit="10" shape-rendering="auto" stroke-opacity="1" fill="black" stroke-dasharray="none" font-weight="normal" stroke-width="1" xmlns="http://www.w3.org/2000/svg" font-family="&apos;Dialog&apos;" font-style="normal" stroke-linejoin="miter" font-size="12" stroke-dashoffset="0" image-rendering="auto">
  <!--Unicode Character 'HENTAIGANA LETTER SU-7' (U+1B050)-->
  <defs id="genericDefs" />
  <g>
    <g>
      <path d="M201.375 139.7812 Q210.9375 139.7812 213.1875 148.7812 Q213.1875 155.5312 185.625 197.1562 L181.125 205.5938 L182.25 205.5938 Q192.375 198.8438 204.75 198.8438 Q218.8125 198.8438 225 216.2812 Q226.6875 223.3125 226.6875 228.6562 L226.6875 232.0312 Q226.6875 257.0625 201.9375 273.0938 Q197.1562 276.4688 180 282.0938 L170.4375 301.2188 Q180 298.9688 182.25 298.9688 Q199.125 298.9688 227.8125 327.6562 Q236.25 337.2188 236.25 344.5312 Q236.25 350.4375 227.25 352.9688 Q221.625 350.1562 207 328.7812 Q189.2812 308.5312 179.4375 308.5312 L174.375 308.5312 Q165.375 308.5312 141.75 342.8438 Q134.1562 350.7188 128.8125 350.7188 L127.125 350.7188 Q123.1875 348.1875 123.1875 343.9688 Q123.1875 334.4062 141.1875 322.0312 Q157.2188 302.9062 167.0625 282.0938 Q176.625 260.1562 176.625 253.9688 L176.625 250.5938 Q176.625 249.4688 174.9375 249.4688 L171 249.4688 Q169.875 247.2188 169.875 245.5312 Q178.3125 238.7812 184.5 238.7812 Q191.25 238.7812 191.25 247.7812 Q191.25 252.5625 185.0625 270.2812 L186.1875 270.2812 Q201.6562 264.0938 207 251.7188 Q210.375 243 210.375 231.4688 L210.375 230.9062 Q210.375 208.4062 198 208.4062 Q179.7188 208.4062 162.5625 238.7812 Q159.4688 242.4375 144.5625 269.7188 Q141.4688 272.8125 137.25 274.2188 Q131.625 274.2188 130.5 264.0938 Q130.5 252.8438 141.75 246.0938 Q172.125 207.5625 189.5625 166.7812 Q192.9375 158.3438 192.9375 156.0938 L192.9375 155.5312 Q192.9375 154.6875 191.25 153.8438 L190.6875 153.8438 Q172.4062 153.8438 145.125 176.3438 L141.1875 171.2812 L141.1875 170.7188 Q171.2812 139.7812 201.375 139.7812 ZM70.3125 144.2812 Q88.875 158.9062 88.875 170.1562 Q86.0625 181.4062 77.0625 210.0938 Q63.5625 261.5625 63.5625 292.7812 Q64.4062 316.4062 66.9375 316.4062 Q74.8125 302.9062 89.4375 273.6562 L90.5625 273.6562 Q94.5 275.625 94.5 277.5938 Q76.5 317.25 76.5 344.5312 Q76.5 349.0312 69.1875 351.8438 L68.625 351.8438 Q55.6875 351.8438 51.75 295.5938 L51.75 289.4062 Q51.75 252 70.875 176.3438 Q71.4375 171.5625 71.4375 168.4688 L71.4375 162.8438 Q71.4375 155.8125 65.8125 147.6562 L70.3125 144.2812 Z" stroke="none" />
    </g>
  </g>
</svg>
