<?xml version="1.0"?>

<!DOCTYPE svg PUBLIC '-//W3C//DTD SVG 1.0//EN' 'http://www.w3.org/TR/2001/REC-SVG-20010904/DTD/svg10.dtd'>
<svg fill-opacity="1" xmlns:xlink="http://www.w3.org/1999/xlink" color-rendering="auto" color-interpolation="auto" text-rendering="auto" stroke="black" stroke-linecap="square" stroke-miterlimit="10" shape-rendering="auto" stroke-opacity="1" fill="black" stroke-dasharray="none" font-weight="normal" stroke-width="1" xmlns="http://www.w3.org/2000/svg" font-family="&apos;Dialog&apos;" font-style="normal" stroke-linejoin="miter" font-size="12" stroke-dashoffset="0" image-rendering="auto">
  <!--Unicode Character 'HENTAIGANA LETTER KA-8' (U+1B01E)-->
  <defs id="genericDefs" />
  <g>
    <g>
      <path d="M92.8125 128.25 Q117.5625 129.6562 117.5625 140.0625 L117.5625 140.625 Q117.5625 144 112.5 155.8125 L112.5 156.375 Q114.1875 156.375 123.1875 155.25 Q142.875 155.25 145.125 178.3125 Q145.125 216.2812 113.625 235.125 L108.5625 235.6875 Q105.75 235.6875 88.3125 218.8125 Q82.9688 215.4375 81 215.4375 L79.875 215.4375 Q74.5312 226.9688 66.9375 230.625 Q62.7188 230.625 60.75 221.0625 Q60.75 215.4375 72.5625 203.0625 Q89.4375 176.9062 89.4375 173.25 L88.3125 172.6875 Q68.3438 181.6875 64.125 181.6875 Q55.125 181.6875 46.125 163.6875 L46.125 160.875 Q47.25 160.875 50.0625 158.625 L51.1875 158.625 Q58.5 167.625 64.125 167.625 L69.1875 167.625 Q96.75 160.875 96.75 158.625 Q101.25 147.375 101.25 146.25 L101.25 142.875 Q101.25 137.25 88.3125 133.875 Q90.5625 128.5312 92.8125 128.25 ZM166.5 153 Q171.5625 153.5625 171.5625 154.6875 Q170.4375 158.625 170.4375 161.4375 L170.4375 169.3125 Q170.4375 170.1562 172.6875 171.5625 L173.25 171.5625 Q174.375 171.5625 192.9375 160.3125 Q205.3125 154.6875 214.875 154.6875 Q241.875 158.0625 241.875 174.9375 Q241.875 194.625 172.125 230.625 Q170.4375 232.3125 145.125 245.25 L145.125 245.8125 L146.8125 245.8125 L187.3125 239.0625 Q196.875 240.4688 196.875 247.5 Q196.875 253.9688 177.1875 257.0625 Q139.7812 269.7188 124.875 281.25 L124.875 282.9375 L127.125 283.5 Q146.25 283.5 184.5 273.375 Q194.625 275.625 194.625 283.5 Q194.625 289.4062 169.3125 294.75 Q142.5938 305.4375 105.75 326.8125 Q98.4375 331.875 98.4375 332.4375 L98.4375 333 Q131.0625 318.9375 154.125 318.9375 Q204.1875 318.9375 233.4375 346.5 Q236.25 352.125 236.25 354.9375 Q234.8438 362.8125 228.375 362.8125 Q223.0312 361.125 201.9375 343.6875 Q181.125 328.5 149.625 328.5 Q118.6875 328.5 64.125 363.9375 Q63.8438 363.9375 60.75 364.5 Q56.25 364.5 56.25 357.1875 Q56.25 342 78.75 333 Q123.4688 307.9688 147.9375 292.5 L147.9375 291.9375 L146.25 291.9375 Q116.4375 299.25 110.25 299.25 Q102.9375 299.25 102.9375 292.5 Q102.9375 282.0938 147.9375 261 Q147.9375 260.1562 154.6875 257.0625 L154.6875 256.5 L153 256.5 Q127.6875 262.125 123.1875 262.125 Q118.4062 262.125 117.5625 254.8125 Q117.5625 248.0625 138.9375 241.3125 Q178.0312 223.3125 212.625 194.0625 Q223.875 181.4062 223.875 174.9375 L223.875 170.4375 Q222.75 162 215.4375 162 L209.25 162 Q194.0625 162 173.8125 190.125 Q173.8125 190.9688 169.3125 194.625 L168.1875 194.625 Q161.1562 194.625 159.75 179.4375 L159.75 178.3125 Q159.75 162 166.5 153 ZM84.375 209.25 Q106.5938 219.9375 108.5625 219.9375 L109.6875 219.9375 Q119.5312 219.9375 129.375 191.25 Q130.5 183.375 130.5 177.1875 Q130.5 164.8125 122.0625 164.8125 L120.375 164.8125 Q104.0625 164.8125 101.8125 173.25 Q84.375 207.5625 84.375 209.25 Z" stroke="none" />
    </g>
  </g>
</svg>
