<?xml version="1.0"?>

<!DOCTYPE svg PUBLIC '-//W3C//DTD SVG 1.0//EN' 'http://www.w3.org/TR/2001/REC-SVG-20010904/DTD/svg10.dtd'>
<svg fill-opacity="1" xmlns:xlink="http://www.w3.org/1999/xlink" color-rendering="auto" color-interpolation="auto" text-rendering="auto" stroke="black" stroke-linecap="square" stroke-miterlimit="10" shape-rendering="auto" stroke-opacity="1" fill="black" stroke-dasharray="none" font-weight="normal" stroke-width="1" xmlns="http://www.w3.org/2000/svg" font-family="&apos;Dialog&apos;" font-style="normal" stroke-linejoin="miter" font-size="12" stroke-dashoffset="0" image-rendering="auto">
  <!--Unicode Character 'HENTAIGANA LETTER KE-6' (U+1B037)-->
  <defs id="genericDefs" />
  <g>
    <g>
      <path d="M103.2188 133.0312 Q117.8438 133.0312 117.8438 136.9688 Q117.2812 141.4688 115.5938 141.4688 L109.4062 141.4688 Q102.6562 141.75 102.6562 147.6562 Q106.875 165.6562 108.8438 167.3438 L109.4062 167.3438 Q129.9375 153.8438 139.7812 153.8438 Q157.7812 157.7812 157.7812 168.4688 Q157.7812 178.0312 127.4062 203.3438 Q122.9062 207.2812 122.9062 208.4062 L131.9062 233.1562 L133.0312 233.1562 Q147.9375 226.6875 163.4062 217.4062 Q165.6562 217.4062 165.6562 216.8438 Q172.4062 217.6875 172.4062 223.5938 Q172.4062 231.1875 138.0938 245.5312 L138.0938 246.6562 Q144.2812 265.7812 146.5312 265.7812 Q207 235.4062 209.5312 232.5938 Q210.0938 231.4688 210.0938 230.3438 L210.0938 228.0938 Q210.0938 224.7188 198.2812 221.3438 L198.2812 220.2188 Q199.6875 216.5625 201.6562 215.1562 Q229.7812 219.9375 229.7812 232.5938 Q229.7812 243 196.0312 254.5312 Q158.9062 271.4062 149.9062 276.4688 L149.9062 277.0312 Q158.625 299.5312 159.4688 299.5312 L160.0312 299.5312 Q162.2812 290.5312 163.9688 286.0312 Q167.9062 287.4375 169.0312 289.4062 L165.6562 318.6562 Q163.9688 321.4688 160.5938 321.4688 Q151.5938 321.4688 144.2812 294.4688 Q140.0625 282.0938 138.0938 282.0938 Q104.625 298.6875 90.8438 310.7812 Q85.2188 318.9375 85.2188 323.7188 L85.2188 328.2188 Q85.2188 343.9688 127.9688 343.9688 Q140.3438 343.9688 160.5938 339.4688 Q171.8438 341.7188 171.8438 348.4688 Q171.8438 356.3438 141.4688 359.1562 Q138.0938 359.7188 133.5938 359.7188 Q88.5938 359.7188 76.2188 338.9062 Q73.9688 331.875 73.9688 328.2188 L73.9688 325.9688 Q73.9688 303.1875 118.4062 281.5312 L135.2812 271.4062 Q130.2188 255.0938 126.8438 250.0312 Q91.125 262.4062 72.8438 262.4062 Q59.9062 262.4062 59.9062 252.2812 Q59.9062 245.5312 79.5938 233.1562 Q102.6562 212.9062 109.4062 205.5938 L101.5312 184.7812 L99.8438 184.7812 Q83.8125 198.8438 75.6562 211.2188 Q71.7188 212.3438 71.7188 212.9062 Q58.7812 208.125 58.7812 193.7812 L58.2188 190.4062 Q59.625 169.5938 62.7188 169.5938 L68.3438 170.7188 Q68.3438 192.0938 73.9688 192.0938 Q77.0625 192.0938 97.0312 175.2188 L97.0312 174.6562 Q85.7812 151.0312 85.7812 144.8438 Q85.7812 135 102.0938 133.0312 L103.2188 133.0312 ZM111.0938 175.7812 Q117.5625 196.5938 118.9688 196.5938 L119.5312 196.5938 Q140.9062 176.9062 140.9062 169.5938 L140.9062 169.0312 Q140.9062 163.9688 133.5938 163.4062 L132.4688 163.4062 Q125.7188 163.4062 111.0938 175.7812 ZM73.9688 247.2188 Q74.25 248.3438 75.0938 248.3438 Q95.0625 248.3438 122.3438 238.2188 L122.3438 237.6562 L114.4688 216.2812 L113.9062 216.2812 Q111.9375 216.2812 94.2188 231.4688 L73.9688 247.2188 Z" stroke="none" />
    </g>
  </g>
</svg>
