<?xml version="1.0" encoding="UTF-8" standalone="no"?>
<svg
   xmlns:dc="http://purl.org/dc/elements/1.1/"
   xmlns:cc="http://creativecommons.org/ns#"
   xmlns:rdf="http://www.w3.org/1999/02/22-rdf-syntax-ns#"
   xmlns:svg="http://www.w3.org/2000/svg"
   xmlns="http://www.w3.org/2000/svg"
   xmlns:sodipodi="http://sodipodi.sourceforge.net/DTD/sodipodi-0.dtd"
   xmlns:inkscape="http://www.inkscape.org/namespaces/inkscape"
   fill-opacity="1"
   color-rendering="auto"
   color-interpolation="auto"
   text-rendering="auto"
   stroke="black"
   stroke-linecap="square"
   stroke-miterlimit="10"
   shape-rendering="auto"
   stroke-opacity="1"
   fill="black"
   stroke-dasharray="none"
   font-weight="normal"
   stroke-width="1"
   font-family="'Dialog'"
   font-style="normal"
   stroke-linejoin="miter"
   font-size="12"
   stroke-dashoffset="0"
   image-rendering="auto"
   version="1.1"
   id="svg9"
   sodipodi:docname="hentaigana_letter_ku1.svg"
   inkscape:version="0.92.4 (5da689c313, 2019-01-14)">
  <metadata
     id="metadata13">
    <rdf:RDF>
      <cc:Work
         rdf:about="">
        <dc:format>image/svg+xml</dc:format>
        <dc:type
           rdf:resource="http://purl.org/dc/dcmitype/StillImage" />
      </cc:Work>
    </rdf:RDF>
  </metadata>
  <sodipodi:namedview
     pagecolor="#ffffff"
     bordercolor="#666666"
     borderopacity="1"
     objecttolerance="10"
     gridtolerance="10"
     guidetolerance="10"
     inkscape:pageopacity="0"
     inkscape:pageshadow="2"
     inkscape:window-width="1920"
     inkscape:window-height="986"
     id="namedview11"
     showgrid="false"
     inkscape:zoom="2.36"
     inkscape:cx="50"
     inkscape:cy="50"
     inkscape:window-x="-11"
     inkscape:window-y="-11"
     inkscape:window-maximized="1"
     inkscape:current-layer="svg9" />
  <!--Unicode Character 'HENTAIGANA LETTER KU-1' (U+1B02B)-->
  <defs
     id="genericDefs" />
  <g
     id="g7"
     transform="matrix(0.47578851,0,0,0.47065709,-18.581347,-65.769581)">
    <g
       id="g5">
      <path
         d="m 120.6562,142.3125 q 8.4376,5.9063 8.4376,15.75 0,13.2187 -16.3126,33.1875 v 1.125 h 0.5626 q 15.4687,-5.3438 37.6874,-16.3125 2.25,-0.5625 3.9376,-0.5625 9.8437,0 17.4374,16.3125 v 1.125 q -3.9374,14.3437 -57.9374,76.5 -2.8126,2.8125 -2.8126,5.0625 h 0.5626 q 4.2187,-2.25 14.0624,-3.375 37.9688,3.375 90,38.25 30.375,22.5 30.375,33.1875 0,5.9063 -8.4374,7.875 -7.0313,0 -20.8126,-18 -42.75,-38.8125 -71.4374,-46.6875 -14.9063,-5.625 -24.1876,-5.625 h -1.125 q -13.7812,0 -36,27.5625 -24.75,28.125 -33.1874,28.125 h -2.25 q -7.875,-0.8437 -7.875,-6.1875 V 328.5 q 0,-1.125 7.3124,-13.5 1.6876,-8.4375 5.0626,-8.4375 1.4062,0 2.25,-0.5625 0.2812,1.125 1.125,1.125 -0.5626,0.2812 -1.125,9.5625 h 0.5624 q 3.375,0 34.3126,-34.875 45,-56.25 58.5,-83.8125 3.375,-4.7812 3.375,-8.4375 v -1.125 h -2.25 q -8.4376,1.4063 -59.0626,30.9375 -4.7812,0 -6.1874,-11.25 0,-3.0938 17.4374,-21.375 16.875,-23.9062 16.875,-33.75 -1.125,-6.1875 -2.8124,-7.875 v -0.5625 q 0.8437,-2.25 3.9374,-2.25 z"
         id="path3"
         inkscape:connector-curvature="0"
         style="stroke:none" />
    </g>
  </g>
</svg>
