<?xml version="1.0"?>

<!DOCTYPE svg PUBLIC '-//W3C//DTD SVG 1.0//EN' 'http://www.w3.org/TR/2001/REC-SVG-20010904/DTD/svg10.dtd'>
<svg fill-opacity="1" xmlns:xlink="http://www.w3.org/1999/xlink" color-rendering="auto" color-interpolation="auto" text-rendering="auto" stroke="black" stroke-linecap="square" stroke-miterlimit="10" shape-rendering="auto" stroke-opacity="1" fill="black" stroke-dasharray="none" font-weight="normal" stroke-width="1" xmlns="http://www.w3.org/2000/svg" font-family="&apos;Dialog&apos;" font-style="normal" stroke-linejoin="miter" font-size="12" stroke-dashoffset="0" image-rendering="auto">
  <!--Unicode Character 'HIRAGANA LETTER ARCHAIC YE' (U+1B001)-->
  <defs id="genericDefs" />
  <g>
    <g>
      <path d="M73.125 144.5625 Q98.4375 162.8438 98.4375 176.625 Q98.4375 194.0625 59.625 217.6875 L59.0625 218.8125 Q59.0625 221.0625 70.875 234.5625 Q72 240.4688 72 242.4375 Q69.1875 266.625 68.0625 293.625 Q68.625 297.5625 68.625 305.4375 L68.625 307.125 L69.1875 309.9375 L69.75 309.9375 Q70.3125 309.9375 87.75 279.5625 Q99.2812 260.1562 128.25 230.0625 Q171.2812 190.6875 208.125 190.6875 Q228.9375 190.6875 228.9375 211.5 Q228.9375 238.2188 165.9375 311.625 L165.9375 312.75 L166.5 312.75 Q191.25 309.375 204.75 309.375 L205.875 309.375 Q237.375 311.3438 237.375 321.1875 Q237.9375 321.1875 237.9375 322.875 Q237.9375 329.0625 230.0625 329.0625 Q210.375 322.875 194.0625 322.875 Q175.7812 322.875 154.6875 327.9375 Q151.5938 327.9375 151.3125 322.3125 L151.3125 321.1875 Q151.3125 313.0312 159.1875 307.125 Q209.8125 240.4688 209.8125 210.9375 L209.8125 209.8125 Q209.8125 200.8125 197.4375 200.8125 Q166.7812 200.8125 120.9375 252 Q84.375 298.6875 77.625 328.5 Q74.5312 348.1875 66.375 348.1875 Q54 348.1875 54 302.625 Q54 288.2812 59.0625 240.1875 Q59.0625 230.3438 50.625 220.5 Q50.625 219.9375 50.0625 218.8125 Q50.0625 216.2812 70.875 198 Q80.4375 185.3438 80.4375 176.0625 Q80.4375 161.4375 67.5 147.9375 Q70.0312 144.5625 73.125 144.5625 Z" stroke="none" />
    </g>
  </g>
</svg>
