<?xml version="1.0" encoding="UTF-8" standalone="no"?>
<svg
   xmlns:dc="http://purl.org/dc/elements/1.1/"
   xmlns:cc="http://creativecommons.org/ns#"
   xmlns:rdf="http://www.w3.org/1999/02/22-rdf-syntax-ns#"
   xmlns:svg="http://www.w3.org/2000/svg"
   xmlns="http://www.w3.org/2000/svg"
   xmlns:sodipodi="http://sodipodi.sourceforge.net/DTD/sodipodi-0.dtd"
   xmlns:inkscape="http://www.inkscape.org/namespaces/inkscape"
   fill-opacity="1"
   color-rendering="auto"
   color-interpolation="auto"
   text-rendering="auto"
   stroke="black"
   stroke-linecap="square"
   stroke-miterlimit="10"
   shape-rendering="auto"
   stroke-opacity="1"
   fill="black"
   stroke-dasharray="none"
   font-weight="normal"
   stroke-width="1"
   font-family="'Dialog'"
   font-style="normal"
   stroke-linejoin="miter"
   font-size="12"
   stroke-dashoffset="0"
   image-rendering="auto"
   version="1.1"
   id="svg9"
   sodipodi:docname="katakana_letter_ta.svg"
   inkscape:version="0.92.4 (5da689c313, 2019-01-14)">
  <metadata
     id="metadata13">
    <rdf:RDF>
      <cc:Work
         rdf:about="">
        <dc:format>image/svg+xml</dc:format>
        <dc:type
           rdf:resource="http://purl.org/dc/dcmitype/StillImage" />
      </cc:Work>
    </rdf:RDF>
  </metadata>
  <sodipodi:namedview
     pagecolor="#ffffff"
     bordercolor="#666666"
     borderopacity="1"
     objecttolerance="10"
     gridtolerance="10"
     guidetolerance="10"
     inkscape:pageopacity="0"
     inkscape:pageshadow="2"
     inkscape:window-width="1920"
     inkscape:window-height="986"
     id="namedview11"
     showgrid="false"
     inkscape:zoom="2.36"
     inkscape:cx="50"
     inkscape:cy="-0.84745763"
     inkscape:window-x="-11"
     inkscape:window-y="-11"
     inkscape:window-maximized="1"
     inkscape:current-layer="svg9" />
  <!--Unicode Character 'KATAKANA LETTER TA' (U+30BF)-->
  <defs
     id="genericDefs" />
  <g
     id="g7"
     transform="matrix(0.40621978,0,0,0.39804364,-6.1538007,-61.121671)">
    <g
       id="g5">
      <path
         d="M 245.1094,201.5156 Q 228.2344,261 202.7812,299.25 q 18.1407,14.2031 36.2813,31.9219 l -18.4219,24.1875 q -13.9218,-20.6719 -33.75,-35.4375 -42.75,54.2812 -131.0625,83.25 L 41.4844,377.5781 Q 125.2969,354.6562 166.5,304.5938 133.0312,280.4062 106.5938,269.5781 l 17.5781,-22.2187 q 31.5,16.4531 57.2343,35.7187 15.1876,-22.2187 30.2344,-63.7031 h -100.125 q -27.7031,39.6562 -57.375,63.9844 L 34.5938,263.8125 q 25.1718,-20.5313 47.8124,-50.5547 22.6407,-30.0234 35.1563,-59.2734 l 25.5937,10.6875 q -9.2812,19.125 -15.3281,28.8281 h 109.8281 z"
         id="path3"
         inkscape:connector-curvature="0"
         style="stroke:none" />
    </g>
  </g>
</svg>
