<?xml version="1.0" encoding="UTF-8" standalone="no"?>
<svg
   xmlns:dc="http://purl.org/dc/elements/1.1/"
   xmlns:cc="http://creativecommons.org/ns#"
   xmlns:rdf="http://www.w3.org/1999/02/22-rdf-syntax-ns#"
   xmlns:svg="http://www.w3.org/2000/svg"
   xmlns="http://www.w3.org/2000/svg"
   xmlns:sodipodi="http://sodipodi.sourceforge.net/DTD/sodipodi-0.dtd"
   xmlns:inkscape="http://www.inkscape.org/namespaces/inkscape"
   fill-opacity="1"
   color-rendering="auto"
   color-interpolation="auto"
   text-rendering="auto"
   stroke="black"
   stroke-linecap="square"
   stroke-miterlimit="10"
   shape-rendering="auto"
   stroke-opacity="1"
   fill="black"
   stroke-dasharray="none"
   font-weight="normal"
   stroke-width="1"
   font-family="'Dialog'"
   font-style="normal"
   stroke-linejoin="miter"
   font-size="12"
   stroke-dashoffset="0"
   image-rendering="auto"
   version="1.1"
   id="svg35"
   sodipodi:docname="katakana_letter_ka.svg"
   inkscape:version="0.92.4 (5da689c313, 2019-01-14)">
  <metadata
     id="metadata39">
    <rdf:RDF>
      <cc:Work
         rdf:about="">
        <dc:format>image/svg+xml</dc:format>
        <dc:type
           rdf:resource="http://purl.org/dc/dcmitype/StillImage" />
      </cc:Work>
    </rdf:RDF>
  </metadata>
  <sodipodi:namedview
     pagecolor="#ffffff"
     bordercolor="#666666"
     borderopacity="1"
     objecttolerance="10"
     gridtolerance="10"
     guidetolerance="10"
     inkscape:pageopacity="0"
     inkscape:pageshadow="2"
     inkscape:window-width="1920"
     inkscape:window-height="986"
     id="namedview37"
     showgrid="false"
     inkscape:zoom="2.36"
     inkscape:cx="50"
     inkscape:cy="-0.84745763"
     inkscape:window-x="-11"
     inkscape:window-y="-11"
     inkscape:window-maximized="1"
     inkscape:current-layer="svg35" />
  <!--Unicode Character 'KATAKANA LETTER KA' (U+30AB)-->
  <defs
     id="genericDefs" />
  <g
     id="g33"
     transform="matrix(0.44971674,0,0,0.40969801,-11.494684,-63.973089)">
    <g
       id="g31">
      <path
         d="m 247.0781,207.8438 -0.8437,56.1093 q -0.4219,28.4063 -2.8828,52.2422 -2.461,23.8359 -8.3672,42.8906 -5.9063,19.0547 -13.1485,26.5782 -7.2421,7.5234 -15.8906,9.7734 -8.6484,2.25 -20.4609,2.25 -8.0156,0 -26.1563,-0.2813 l -7.3125,-27.9843 q 24.75,2.1093 38.6719,2.1093 14.3437,0 22.7109,-31.0781 8.3672,-31.0781 8.3672,-75.7969 l -0.2812,-31.6406 h -71.4375 q -8.8594,63.2813 -34.875,102.2344 -26.0157,38.9531 -71.4375,62.4375 L 25.3125,376.0312 q 47.1094,-24.3281 69.1172,-55.6874 22.0078,-31.3594 29.7422,-86.4844 H 29.9531 v -26.0156 h 96.1875 v -50.625 h 25.875 v 50.625 z"
         id="path29"
         inkscape:connector-curvature="0"
         style="stroke:none" />
    </g>
  </g>
</svg>
